<svg id="Capa_1" enable-background="new 0 0 512 512" height="512" viewBox="0 0 512 512" width="512" xmlns="http://www.w3.org/2000/svg"><g><path d="m412.695 280.845h-313.39c-2.437-16.644-1.903-33.721 1.742-50.426l37.618-172.483c6.424-29.442 32.493-50.436 62.62-50.436h109.431c30.127 0 56.196 20.994 62.62 50.436l37.618 172.483c3.644 16.705 4.178 33.782 1.741 50.426z" fill="#b98eff"/><path d="m351.304 504.5h-190.608c-29.291 0-48.785-30.288-36.641-56.941l25.616-56.266h212.659l25.616 56.266c12.143 26.653-7.351 56.941-36.642 56.941z" fill="#17d9c3"/><path d="m412.695 280.845c-2.406 16.362-7.683 32.302-15.738 47.053l-34.628 63.395h-212.658l-34.628-63.395c-8.055-14.751-13.331-30.691-15.738-47.053z" fill="#88f8d8"/><g><path d="m412.695 288.346h-313.39c-3.723 0-6.882-2.73-7.421-6.414-2.599-17.751-1.981-35.62 1.835-53.11l37.618-172.482c3.47-15.906 12.365-30.29 25.044-40.503 12.68-10.213 28.627-15.837 44.904-15.837h109.431c16.276 0 32.224 5.624 44.903 15.836 12.68 10.213 21.574 24.597 25.044 40.502l37.618 172.483c3.816 17.49 4.434 35.359 1.835 53.111-.54 3.683-3.698 6.414-7.421 6.414zm-306.752-15h300.114c1.354-13.839.54-27.711-2.432-41.327l-37.618-172.484c-5.63-25.806-28.883-44.535-55.292-44.535h-109.43c-26.408 0-49.662 18.729-55.292 44.535l-37.618 172.483c-2.972 13.617-3.786 27.488-2.432 41.328z" fill="#6d00ca"/></g><circle cx="310.957" cy="327.63" fill="#007ea8" r="11.661"/><g><path d="m280.691 355.614h-49.382c-4.142 0-7.5-3.357-7.5-7.5s3.358-7.5 7.5-7.5h49.382c4.142 0 7.5 3.357 7.5 7.5s-3.358 7.5-7.5 7.5z" fill="#007ea8"/></g><circle cx="201.043" cy="327.63" fill="#007ea8" r="11.661"/><circle cx="306.726" cy="89.616" fill="#ff63ed" r="29.964"/><path d="m288.768 270.398c0 3.608.463 7.108 1.326 10.447h80.627c.628-2.415 1.046-4.912 1.224-7.474.526-7.575-.976-14.755-4.017-21.052-3.974-8.228-4.31-17.649-1.499-26.344 1.328-4.108 1.972-8.522 1.799-13.11-.741-19.621-16.729-35.611-36.35-36.353-21.571-.816-39.315 16.429-39.315 37.819 0 4.079.646 8.007 1.84 11.687 2.834 8.732 2.334 18.219-1.612 26.508-2.579 5.415-4.023 11.475-4.023 17.872z" fill="#ff63ed"/><g><path d="m306.726 127.081c-20.658 0-37.464-16.807-37.464-37.465s16.807-37.465 37.464-37.465 37.464 16.807 37.464 37.465-16.806 37.465-37.464 37.465zm0-59.93c-12.387 0-22.464 10.078-22.464 22.465s10.078 22.465 22.464 22.465 22.464-10.078 22.464-22.465-10.077-22.465-22.464-22.465z" fill="#e207b9"/></g><g><path d="m370.721 288.346h-80.627c-3.419 0-6.406-2.313-7.262-5.624-1.038-4.018-1.564-8.164-1.564-12.323 0-7.379 1.598-14.477 4.75-21.097 3.089-6.488 3.533-13.935 1.25-20.969-1.464-4.511-2.207-9.222-2.207-14.003 0-12.438 4.935-24.038 13.896-32.667 8.958-8.626 20.745-13.093 33.202-12.646 23.539.891 42.673 20.027 43.562 43.565.203 5.362-.523 10.645-2.156 15.699-2.306 7.134-1.91 14.512 1.116 20.776 3.7 7.663 5.341 16.25 4.746 24.834-.206 2.967-.693 5.941-1.448 8.843-.859 3.305-3.843 5.612-7.258 5.612zm-74.326-15h68.031c.014-.164.027-.328.038-.493.416-5.983-.722-11.956-3.289-17.271-4.712-9.757-5.38-21.091-1.882-31.912 1.091-3.379 1.576-6.918 1.44-10.521-.594-15.746-13.394-28.547-29.139-29.142-8.328-.327-16.237 2.689-22.23 8.461-5.998 5.775-9.301 13.539-9.301 21.862 0 3.206.496 6.359 1.474 9.372 3.473 10.699 2.771 22.081-1.974 32.048-2.185 4.59-3.293 9.519-3.293 14.648-.002.985.041 1.968.125 2.948z" fill="#e207b9"/></g><path d="m418.372 275.943c-1.425-1.649-3.497-2.598-5.676-2.598h-313.391c-2.18 0-4.251.948-5.676 2.598-1.424 1.649-2.061 3.837-1.744 5.994 2.565 17.438 8.142 34.11 16.576 49.557l32.83 60.104-24.061 52.852c-6.764 14.846-5.531 31.902 3.297 45.626 8.831 13.728 23.848 21.924 40.17 21.924h190.607c16.322 0 31.339-8.196 40.17-21.924 8.828-13.724 10.061-30.78 3.297-45.624l-24.062-52.854 32.831-60.105c8.434-15.445 14.011-32.118 16.576-49.556.317-2.157-.32-4.344-1.744-5.994zm-39.513 206.018c-6.058 9.417-16.359 15.039-27.555 15.039h-190.608c-11.196 0-21.497-5.622-27.555-15.039-6.055-9.413-6.9-21.11-2.261-31.294l23.616-51.874h203.007l23.617 51.876c4.639 10.182 3.794 21.879-2.261 31.292zm11.516-157.658-32.495 59.49h-203.76l-32.494-59.489c-6.185-11.325-10.661-23.387-13.352-35.958h295.452c-2.691 12.571-7.166 24.632-13.351 35.957z" fill="#007ea8"/><path d="m247.736 155.037c2.879-6.047 4.491-12.814 4.491-19.957 0-26.28-21.802-47.467-48.305-46.462-23.529.892-42.941 19.652-44.572 43.142-.588 8.458 1.09 16.476 4.486 23.507 4.437 9.188 4.812 19.708 1.674 29.417-1.482 4.586-2.202 9.516-2.008 14.639.827 21.91 18.68 39.764 40.59 40.593 24.087.911 43.9-18.345 43.9-42.229 0-4.555-.721-8.941-2.055-13.05-3.166-9.751-2.608-20.344 1.799-29.6z" fill="#ff63ed"/><g><path d="m205.756 247.447c-.648 0-1.297-.012-1.949-.036-25.829-.978-46.825-21.976-47.801-47.805-.222-5.886.574-11.683 2.367-17.229 2.644-8.18 2.186-16.649-1.291-23.848-4.067-8.421-5.87-17.857-5.214-27.29.917-13.207 6.721-25.607 16.341-34.915 9.613-9.301 22.195-14.699 35.428-15.201 14.826-.572 28.873 4.784 39.541 15.055 10.672 10.275 16.549 24.091 16.549 38.902 0 8.107-1.756 15.907-5.219 23.181v.001c-3.546 7.446-4.057 15.991-1.438 24.059 1.606 4.952 2.421 10.122 2.421 15.366 0 13.648-5.416 26.38-15.25 35.849-9.361 9.013-21.542 13.911-34.485 13.911zm-.017-151.364c-.51 0-1.021.01-1.533.028-19.601.744-36.017 16.631-37.374 36.168-.475 6.832.825 13.653 3.758 19.727 5.163 10.69 5.893 23.115 2.057 34.984-1.251 3.87-1.807 7.925-1.651 12.05.681 18.036 15.343 32.699 33.379 33.381 9.569.372 18.597-3.08 25.462-9.691 6.87-6.615 10.654-15.509 10.654-25.043 0-3.67-.568-7.282-1.688-10.736-3.808-11.732-3.04-24.211 2.163-35.138v.001c2.496-5.244 3.762-10.874 3.762-16.733 0-10.697-4.245-20.675-11.953-28.097-7.336-7.063-16.886-10.901-27.036-10.901zm41.997 58.954h.01z" fill="#e207b9"/></g></g></svg>