<svg id="Capa_1" enable-background="new 0 0 512 512" height="512" viewBox="0 0 512 512" width="512" xmlns="http://www.w3.org/2000/svg"><g><path d="m365.355 56.741h48.165v65.323h-48.165z" fill="#ff63ed"/><path d="m413.521 22.556v34.185h-48.165v-34.185c0-8.318 6.749-15.056 15.056-15.056h18.053c8.307 0 15.056 6.739 15.056 15.056z" fill="#ff9bff"/><path d="m398.464 0h-18.053c-12.438 0-22.556 10.118-22.556 22.556v99.509c0 4.143 3.357 7.5 7.5 7.5h48.165c4.143 0 7.5-3.357 7.5-7.5 0-11.225 0-89.315 0-99.509.001-12.438-10.118-22.556-22.556-22.556zm-25.609 22.556c0-4.166 3.39-7.556 7.556-7.556h18.053c4.167 0 7.557 3.39 7.557 7.556v26.686h-33.165v-26.686zm33.166 92.008h-33.165v-50.322h33.165z" fill="#e207b9"/><path d="m375.413 122.065c-19.139 0-34.658 15.519-34.658 34.668v254.032l-30.997 49.121c-12.22 19.371 1.7 44.615 24.611 44.615h-241.38c-22.911 0-36.83-25.244-24.611-44.615l30.997-49.121v-254.032c0-19.149 15.519-34.668 34.658-34.668z" fill="#a4bcff"/><path d="m413.517 122.067h-38.099c-19.143 0-34.662 15.519-34.662 34.662v254.04l-30.994 49.116c-12.224 19.372 1.697 44.618 24.604 44.618h66.094c26.355 0 47.719-21.365 47.719-47.719v-300.055c0-19.143-15.519-34.662-34.662-34.662z" fill="#7181ff"/><path d="m147.023 171.431h146.086v76.34h-146.086z" fill="#ffff6f"/><g><path d="m293.109 255.271h-146.086c-4.142 0-7.5-3.357-7.5-7.5v-76.34c0-4.143 3.358-7.5 7.5-7.5h146.086c4.143 0 7.5 3.357 7.5 7.5v76.34c0 4.143-3.358 7.5-7.5 7.5zm-138.586-15h131.086v-61.34h-131.086z" fill="#f90"/></g><g fill="#ff63ed"><circle cx="220.066" cy="296.4" r="17.331"/><circle cx="285.063" cy="296.4" r="17.331"/><circle cx="155.069" cy="296.4" r="17.331"/><circle cx="220.066" cy="365.268" r="17.331"/><circle cx="285.063" cy="365.268" r="17.331"/><circle cx="155.069" cy="365.268" r="17.331"/></g><g><g><path d="m220.066 321.231c-13.692 0-24.831-11.139-24.831-24.83s11.139-24.831 24.831-24.831 24.831 11.14 24.831 24.831-11.139 24.83-24.831 24.83zm0-34.661c-5.42 0-9.831 4.41-9.831 9.831 0 5.42 4.41 9.83 9.831 9.83s9.831-4.41 9.831-9.83c0-5.421-4.41-9.831-9.831-9.831z" fill="#e207b9"/></g><g><path d="m285.063 321.231c-13.691 0-24.831-11.139-24.831-24.83s11.14-24.831 24.831-24.831c13.692 0 24.831 11.14 24.831 24.831s-11.14 24.83-24.831 24.83zm0-34.661c-5.421 0-9.831 4.41-9.831 9.831 0 5.42 4.41 9.83 9.831 9.83s9.831-4.41 9.831-9.83c0-5.421-4.41-9.831-9.831-9.831z" fill="#e207b9"/></g><g><path d="m155.069 321.231c-13.692 0-24.831-11.139-24.831-24.83s11.139-24.831 24.831-24.831 24.831 11.14 24.831 24.831-11.139 24.83-24.831 24.83zm0-34.661c-5.421 0-9.831 4.41-9.831 9.831 0 5.42 4.41 9.83 9.831 9.83s9.831-4.41 9.831-9.83c0-5.421-4.41-9.831-9.831-9.831z" fill="#e207b9"/></g><g><path d="m220.066 390.099c-13.692 0-24.831-11.14-24.831-24.831s11.139-24.831 24.831-24.831 24.831 11.14 24.831 24.831-11.139 24.831-24.831 24.831zm0-34.663c-5.42 0-9.831 4.41-9.831 9.831s4.41 9.831 9.831 9.831 9.831-4.41 9.831-9.831-4.41-9.831-9.831-9.831z" fill="#e207b9"/></g><g><path d="m285.063 390.099c-13.691 0-24.831-11.14-24.831-24.831s11.14-24.831 24.831-24.831c13.692 0 24.831 11.14 24.831 24.831s-11.14 24.831-24.831 24.831zm0-34.663c-5.421 0-9.831 4.41-9.831 9.831s4.41 9.831 9.831 9.831 9.831-4.41 9.831-9.831-4.41-9.831-9.831-9.831z" fill="#e207b9"/></g><g><path d="m155.069 390.099c-13.692 0-24.831-11.14-24.831-24.831s11.139-24.831 24.831-24.831 24.831 11.14 24.831 24.831-11.139 24.831-24.831 24.831zm0-34.663c-5.421 0-9.831 4.41-9.831 9.831s4.41 9.831 9.831 9.831 9.831-4.41 9.831-9.831-4.41-9.831-9.831-9.831z" fill="#e207b9"/></g></g><circle cx="263.131" cy="202.121" fill="#f90" r="9.137"/><g><path d="m239.414 225.673h-38.696c-4.142 0-7.5-3.357-7.5-7.5s3.358-7.5 7.5-7.5h38.696c4.142 0 7.5 3.357 7.5 7.5s-3.358 7.5-7.5 7.5z" fill="#f90"/></g><circle cx="177" cy="202.121" fill="#f90" r="9.137"/><path d="m413.521 114.564h-38.108-241.38c-23.246 0-42.158 18.916-42.158 42.168v251.862l-29.84 47.288c-15.387 24.394 2.111 56.118 30.954 56.118h307.467c30.449 0 55.222-24.768 55.222-55.212v-300.055c0-23.252-18.912-42.169-42.157-42.169zm-279.488 15h209.162c-6.432 7.621-9.941 17.268-9.941 27.168v246.531h-226.379v-246.53c0-14.981 12.184-27.169 27.158-27.169zm-41.044 367.436c-17.013 0-27.35-18.717-18.268-33.112l28.789-45.624h223.642l-23.739 37.619c-8.188 12.98-7.458 28.879 1.391 41.117zm347.689-40.212c0 22.173-18.043 40.212-40.222 40.212h-66.088c-17.012 0-27.35-18.716-18.268-33.112l30.997-49.121c.704-1.113 1.157-2.575 1.157-4.003v-254.031c0-14.937 12.14-27.168 27.158-27.168h38.108c14.975 0 27.157 12.188 27.157 27.168v300.055z" fill="#2115c2"/></g></svg>