<svg id="Capa_1" enable-background="new 0 0 512 512" height="512" viewBox="0 0 512 512" width="512" xmlns="http://www.w3.org/2000/svg"><g><path d="m120.206 35.917-21.326 21.326 56.693 56.693c4.757-9.068 11.464-16.947 19.571-23.081z" fill="#0eb4bb"/><path d="m313.351 35.917 21.326 21.326-56.693 56.693c-4.757-9.068-11.464-16.947-19.571-23.081z" fill="#0eb4bb"/><g><path d="m74.886 59.911c-5.889-5.889-5.889-15.437 0-21.326l26.663-26.663c5.889-5.89 15.437-5.89 21.326 0 5.889 5.889 5.889 15.437 0 21.326l-26.663 26.663c-5.888 5.889-15.437 5.89-21.326 0z" fill="#88f8d8"/></g><g><path d="m358.671 59.911c5.889-5.889 5.889-15.437 0-21.326l-26.663-26.663c-5.889-5.89-15.437-5.89-21.326 0-5.889 5.889-5.889 15.437 0 21.326l26.663 26.663c5.888 5.889 15.437 5.89 21.326 0z" fill="#88f8d8"/></g><path d="m370.192 136.072h-306.827c-27.007 0-48.901 21.894-48.901 48.901v270.625c0 27.007 21.894 48.901 48.901 48.901h306.826c27.007 0 48.901-21.894 48.901-48.901v-270.624c.001-27.008-21.893-48.902-48.9-48.902z" fill="#ffff6f"/><path d="m285.163 136.072c-4.811-33.465-33.588-59.188-68.385-59.188-34.797 0-63.574 25.723-68.385 59.188z" fill="#17d9c3"/><path d="m363.975 33.281-26.663-26.662c-8.822-8.824-23.108-8.827-31.933 0-7.903 7.905-8.687 20.248-2.398 29.061l-45.459 45.459c-12.133-7.628-26.234-11.755-40.743-11.755-14.508 0-28.61 4.127-40.743 11.755l-45.455-45.455c6.351-8.867 5.5-21.162-2.403-29.065-8.822-8.824-23.107-8.827-31.933-.001l-26.663 26.664c-8.803 8.805-8.803 23.129 0 31.931v.001c7.9 7.9 20.194 8.756 29.066 2.403l47.864 47.864c-2.692 6.194-4.569 12.755-5.542 19.523-.31 2.153.331 4.335 1.756 5.978 1.425 1.645 3.492 2.589 5.668 2.589h136.77c2.176 0 4.243-.944 5.668-2.589 1.425-1.644 2.065-3.825 1.756-5.978-.973-6.768-2.85-13.329-5.542-19.523l47.864-47.864c8.862 6.346 21.163 5.499 29.064-2.403l.001-.001c8.823-8.823 8.825-23.105 0-31.932zm-283.786 21.327c-2.956-2.956-2.955-7.765 0-10.72l26.663-26.664c2.961-2.961 7.756-2.964 10.719.001 2.962 2.96 2.965 7.756 0 10.719l-26.663 26.664c-2.959 2.961-7.756 2.963-10.719 0zm29.298 2.635 10.72-10.72 43.879 43.879c-3.707 3.516-7.022 7.379-9.93 11.509zm48.201 71.329c7.601-25.712 31.626-44.188 59.09-44.188s51.49 18.476 59.09 44.188zm111.784-38.169 43.878-43.879 10.72 10.72-44.668 44.668c-2.909-4.131-6.224-7.993-9.93-11.509zm83.896-35.796c-2.963 2.963-7.757 2.963-10.72 0-11.66-11.66-19.946-19.946-26.663-26.663-2.956-2.955-2.955-7.764 0-10.72 2.961-2.961 7.756-2.964 10.719.001l26.663 26.663c2.962 2.96 2.965 7.756.001 10.719z" fill="#007ea8"/><path d="m286.919 201.441h-180.494c-14.686 0-26.591 11.905-26.591 26.591v184.508c0 14.686 11.905 26.591 26.591 26.591h180.494c14.686 0 26.591-11.905 26.591-26.591v-184.507c0-14.686-11.905-26.592-26.591-26.592z" fill="#88f8d8"/><g><path d="m286.919 446.631h-180.494c-18.798 0-34.091-15.293-34.091-34.09v-184.508c0-18.798 15.294-34.091 34.091-34.091h180.493c18.798 0 34.091 15.294 34.091 34.091v184.507c.001 18.798-15.293 34.091-34.09 34.091zm-180.494-237.69c-10.527 0-19.092 8.564-19.092 19.092v184.507c0 10.526 8.564 19.091 19.092 19.091h180.493c10.527 0 19.092-8.564 19.092-19.091v-184.507c0-10.527-8.564-19.092-19.092-19.092z" fill="#007ea8"/></g><circle cx="255.672" cy="315.55" fill="#007ea8" r="12.518"/><g><path d="m223.179 345.041h-53.014c-4.143 0-7.5-3.357-7.5-7.5s3.357-7.5 7.5-7.5h53.014c4.143 0 7.5 3.357 7.5 7.5s-3.357 7.5-7.5 7.5z" fill="#007ea8"/></g><circle cx="137.672" cy="315.55" fill="#007ea8" r="12.518"/><path d="m448.635 136.072h-78.443c27.007 0 48.901 21.894 48.901 48.901v270.625c0 27.007-21.894 48.901-48.901 48.901h78.443c27.007 0 48.901-21.894 48.901-48.901v-270.624c0-27.008-21.894-48.902-48.901-48.902z" fill="#ffd600"/><circle cx="366.301" cy="254.233" fill="#f90" r="22.414"/><circle cx="366.301" cy="336.073" fill="#f90" r="22.414"/><g><path d="m366.302 284.147c-16.495 0-29.915-13.419-29.915-29.914s13.42-29.915 29.915-29.915 29.914 13.42 29.914 29.915-13.419 29.914-29.914 29.914zm0-44.829c-8.225 0-14.915 6.69-14.915 14.915 0 8.224 6.69 14.914 14.915 14.914 8.224 0 14.914-6.69 14.914-14.914s-6.691-14.915-14.914-14.915z" fill="#f95116"/></g><g><path d="m366.302 365.987c-16.495 0-29.915-13.419-29.915-29.914s13.42-29.915 29.915-29.915 29.914 13.42 29.914 29.915c-.001 16.495-13.419 29.914-29.914 29.914zm0-44.829c-8.225 0-14.915 6.69-14.915 14.915 0 8.224 6.69 14.914 14.915 14.914 8.224 0 14.914-6.69 14.914-14.914s-6.691-14.915-14.914-14.915z" fill="#f95116"/></g><g><path d="m388.715 397.491h-44.829c-4.143 0-7.5-3.357-7.5-7.5s3.357-7.5 7.5-7.5h44.829c4.143 0 7.5 3.357 7.5 7.5s-3.357 7.5-7.5 7.5z" fill="#f95116"/></g><g><path d="m388.715 428.995h-44.829c-4.143 0-7.5-3.357-7.5-7.5s3.357-7.5 7.5-7.5h44.829c4.143 0 7.5 3.357 7.5 7.5s-3.357 7.5-7.5 7.5z" fill="#f95116"/></g><path d="m448.635 128.572c-5.502 0-373.297 0-385.27 0-31.099 0-56.401 25.302-56.401 56.402v270.625c0 31.099 25.302 56.401 56.401 56.401h385.27c31.099 0 56.401-25.302 56.401-56.401v-270.625c0-31.1-25.302-56.402-56.401-56.402zm-426.671 327.027v-270.625c0-22.829 18.572-41.402 41.401-41.402h306.826c22.829 0 41.402 18.573 41.402 41.402v270.625c0 22.829-18.573 41.401-41.402 41.401h-306.826c-22.829 0-41.401-18.572-41.401-41.401zm468.072 0c0 22.829-18.572 41.401-41.401 41.401h-40.179c11.315-10.464 18.138-25.427 18.138-41.401v-270.625c0-15.775-6.645-30.776-18.138-41.402h40.18c22.829 0 41.401 18.573 41.401 41.402v270.625z" fill="#f90"/></g></svg>