<?xml version="1.0" encoding="iso-8859-1"?>
<!-- Generator: Adobe Illustrator 21.0.0, SVG Export Plug-In . SVG Version: 6.00 Build 0)  -->
<svg version="1.1" id="Capa_1" xmlns="http://www.w3.org/2000/svg" xmlns:xlink="http://www.w3.org/1999/xlink" x="0px" y="0px"
	 viewBox="0 0 512 512" style="enable-background:new 0 0 512 512;" xml:space="preserve">
<path style="fill:#EDE6F5;" d="M400.979,7.5h-289.96c-9.95,0-18.02,8.07-18.02,18.02v460.96c0,9.95,8.07,18.02,18.02,18.02h289.96
	c9.95,0,18.02-8.07,18.02-18.02V25.52C419,15.57,410.93,7.5,400.979,7.5z"/>
<g>
	<circle style="fill:#E0D3F2;" cx="368.89" cy="348.44" r="12.5"/>
	<circle style="fill:#E0D3F2;" cx="368.89" cy="392.44" r="12.5"/>
	<circle style="fill:#E0D3F2;" cx="347.89" cy="370.44" r="12.5"/>
	<circle style="fill:#E0D3F2;" cx="389.89" cy="370.44" r="12.5"/>
	<circle style="fill:#E0D3F2;" cx="135.229" cy="347.42" r="17"/>
	<path style="fill:#E0D3F2;" d="M158.729,410.664v17.52c0,1.15-0.93,2.09-2.09,2.09h-8.48c-1.15,0-2.08,0.93-2.08,2.08v8.48
		c0,1.16-0.94,2.09-2.09,2.09h-17.52c-1.15,0-2.09-0.93-2.09-2.09v-8.48c0-1.15-0.93-2.08-2.08-2.08h-8.48
		c-1.16,0-2.09-0.94-2.09-2.09v-17.52c0-1.15,0.93-2.09,2.09-2.09h8.48c1.15,0,2.08-0.93,2.08-2.08v-8.48
		c0-1.16,0.94-2.09,2.09-2.09h17.52c1.15,0,2.09,0.93,2.09,2.09v8.48c0,1.15,0.93,2.08,2.08,2.08h8.48
		C157.799,408.574,158.729,409.513,158.729,410.664z"/>
	<path style="fill:#E0D3F2;" d="M419,284.5v-53H153.846c-17.037,0-30.847-13.811-30.847-30.847V7.5h-11.98
		c-9.952,0-18.02,8.068-18.02,18.02V231.5v53v201.98c0,9.952,8.068,18.02,18.02,18.02h289.96c9.952,0,18.02-8.068,18.02-18.02
		v-5.063H195.965c-40.298,0-72.966-32.668-72.966-72.966v-93.104c0-17.037,13.811-30.847,30.847-30.847H419z"/>
</g>
<path style="fill:#CEC1E7;" d="M426.5,243.5c8.01,0,14.5,6.49,14.5,14.5c0,4-1.62,7.63-4.25,10.25c-2.62,2.63-6.25,4.25-10.25,4.25
	h-341c-8.01,0-14.5-6.49-14.5-14.5c0-4,1.62-7.63,4.25-10.25c2.62-2.63,6.25-4.25,10.25-4.25H426.5z"/>
<path style="fill:#B6A7DB;" d="M436.75,255.24c-2.62,2.63-6.25,4.25-10.25,4.25h-341c-5.667,0-10.561-3.257-12.946-7.994
	c-0.987,1.958-1.554,4.164-1.554,6.504c0,8.01,6.49,14.5,14.5,14.5h341c4,0,7.63-1.62,10.25-4.25C439.38,265.63,441,262,441,258
	c0-2.343-0.568-4.548-1.554-6.506C438.745,252.884,437.841,254.153,436.75,255.24z"/>
<path style="fill:#4F4F74;" d="M379,63.01V243.5h-246V63.01c0-8.56,6.95-15.51,15.51-15.51h214.98C372.049,47.5,379,54.45,379,63.01
	z"/>
<rect x="132.999" y="231.5" style="fill:#3E436D;" width="246" height="12"/>
<path style="fill:#7CCAFD;" d="M354,75.694v139.611c0,1.764-1.43,3.194-3.194,3.194H161.193c-1.764,0-3.194-1.43-3.194-3.194V75.694
	c0-1.764,1.43-3.194,3.194-3.194h189.611C352.57,72.5,354,73.93,354,75.694z"/>
<path style="fill:#41C2E5;" d="M305,200.5c-70.692,0-128-57.307-128-128l0,0h-15.806c-1.764,0-3.194,1.43-3.194,3.194v139.611
	c0,1.764,1.43,3.194,3.194,3.194h189.611c1.764,0,3.194-1.43,3.194-3.194V200.5H305z"/>
<path style="fill:#82DBBA;" d="M327,311.51v153.98c0,3.87-3.14,7.01-7.01,7.01h-127.98c-3.87,0-7.01-3.14-7.01-7.01V311.51
	c0-3.87,3.14-7.01,7.01-7.01h127.98C323.859,304.5,327,307.64,327,311.51z"/>
<circle style="fill:#4F4F74;" cx="139.999" cy="340.5" r="17"/>
<path style="fill:#3E436D;" d="M149.999,352c-9.39,0-17-7.61-17-17c0-4.327,1.629-8.263,4.291-11.264
	c-8.099,1.3-14.291,8.299-14.291,16.764c0,9.39,7.61,17,17,17c5.063,0,9.595-2.225,12.709-5.736
	C151.824,351.906,150.923,352,149.999,352z"/>
<path style="fill:#4F4F74;" d="M163.499,403.74v17.52c0,1.15-0.93,2.09-2.09,2.09h-8.48c-1.15,0-2.08,0.93-2.08,2.08v8.48
	c0,1.16-0.94,2.09-2.09,2.09h-17.52c-1.15,0-2.09-0.93-2.09-2.09v-8.48c0-1.15-0.93-2.08-2.08-2.08h-8.48
	c-1.16,0-2.09-0.94-2.09-2.09v-17.52c0-1.15,0.93-2.09,2.09-2.09h8.48c1.15,0,2.08-0.93,2.08-2.08v-8.48c0-1.16,0.94-2.09,2.09-2.09
	h17.52c1.15,0,2.09,0.93,2.09,2.09v8.48c0,1.15,0.93,2.08,2.08,2.08h8.48C162.57,401.65,163.499,402.59,163.499,403.74z"/>
<path style="fill:#3E436D;" d="M137.74,426.652c-1.15,0-2.09-0.93-2.09-2.09v-8.48c0-1.15-0.93-2.08-2.08-2.08h-8.48
	c-1.16,0-2.09-0.94-2.09-2.09V401.65h-4.41c-1.16,0-2.09,0.94-2.09,2.09v17.52c0,1.15,0.93,2.09,2.09,2.09h8.48
	c1.15,0,2.08,0.93,2.08,2.08v8.48c0,1.16,0.94,2.09,2.09,2.09h17.52c1.15,0,2.09-0.93,2.09-2.09v-7.258L137.74,426.652
	L137.74,426.652z"/>
<circle style="fill:#82DBBA;" cx="373" cy="342.5" r="12.5"/>
<circle style="fill:#358DCD;" cx="373" cy="386.5" r="12.5"/>
<circle style="fill:#FE4583;" cx="352" cy="364.5" r="12.5"/>
<circle style="fill:#DD1B1B;" cx="394" cy="364.5" r="12.5"/>
<path style="fill:#5BCE95;" d="M381.5,348.592c-6.904,0-12.5-5.596-12.5-12.5c0-2.106,0.526-4.088,1.446-5.829
	c-5.678,1.179-9.946,6.209-9.946,12.237c0,6.904,5.596,12.5,12.5,12.5c4.797,0,8.958-2.706,11.054-6.671
	C383.229,348.5,382.375,348.592,381.5,348.592z"/>
<path style="fill:#098BAA;" d="M381.5,392.592c-6.904,0-12.5-5.596-12.5-12.5c0-2.106,0.526-4.088,1.446-5.829
	c-5.678,1.179-9.946,6.209-9.946,12.237c0,6.904,5.596,12.5,12.5,12.5c4.797,0,8.958-2.706,11.054-6.671
	C383.229,392.5,382.375,392.592,381.5,392.592z"/>
<path style="fill:#EA2D88;" d="M360.5,370.592c-6.904,0-12.5-5.596-12.5-12.5c0-2.106,0.526-4.088,1.446-5.829
	c-5.678,1.179-9.946,6.209-9.946,12.237c0,6.904,5.596,12.5,12.5,12.5c4.797,0,8.958-2.706,11.054-6.671
	C362.229,370.5,361.375,370.592,360.5,370.592z"/>
<path style="fill:#CC0202;" d="M402.5,370.592c-6.904,0-12.5-5.596-12.5-12.5c0-2.106,0.526-4.088,1.446-5.829
	c-5.678,1.179-9.946,6.209-9.946,12.237c0,6.904,5.596,12.5,12.5,12.5c4.797,0,8.958-2.706,11.054-6.671
	C404.229,370.5,403.375,370.592,402.5,370.592z"/>
<path style="fill:#9C90BA;" d="M426.5,243.5h-27.419v29H426.5c4,0,7.63-1.62,10.25-4.25C439.38,265.63,441,262,441,258
	C441,249.99,434.51,243.5,426.5,243.5z"/>
<path style="fill:#8478A8;" d="M441,258c0-2.002-0.406-3.909-1.139-5.644c-0.633,1.053-1.389,2.027-2.269,2.884
	c-2.679,2.63-6.39,4.25-10.479,4.25H399.08v13.01H426.5c4,0,7.63-1.62,10.25-4.25C439.38,265.63,441,262,441,258z"/>
<path style="fill:#9C90BA;" d="M112.567,243.5H85.499c-4,0-7.63,1.62-10.25,4.25c-2.63,2.62-4.25,6.25-4.25,10.25
	c0,8.01,6.49,14.5,14.5,14.5h27.068V243.5z"/>
<path style="fill:#8478A8;" d="M72.39,251.834c-0.884,1.874-1.391,3.96-1.391,6.166c0,8.01,6.49,14.5,14.5,14.5h27.068v-13.01
	H85.263C79.684,259.49,74.856,256.386,72.39,251.834z"/>
<path style="fill:#5BCE95;" d="M244.72,445.17c-22.702,0-41.106-18.404-41.106-41.106V311.51c0-3.87,3.14-7.01,7.01-7.01h-18.615
	c-3.872,0-7.01,3.138-7.01,7.01v133.66v20.32c0,3.872,3.138,7.01,7.01,7.01h18.615H319.99c3.872,0,7.01-3.138,7.01-7.01v-20.32
	H244.72z"/>
<path d="M426.5,236V25.519C426.5,11.448,415.052,0,400.98,0H111.018C96.947,0,85.499,11.448,85.499,25.519V236
	c-12.131,0-22,9.869-22,22c0,12.131,9.869,22,22,22v206.481c0,14.071,11.448,25.519,25.519,25.519h289.963
	c14.071,0,25.519-11.448,25.519-25.519V280c12.131,0,22-9.869,22-22S438.63,236,426.5,236z M100.499,25.519
	c0-5.8,4.719-10.519,10.519-10.519h289.963c5.8,0,10.519,4.719,10.519,10.519V236h-25V63.014C386.5,50.324,376.175,40,363.485,40
	H148.514c-12.69,0-23.014,10.324-23.014,23.014V236h-25C100.5,236,100.5,25.519,100.499,25.519z M371.5,236h-231V63.014
	c0-4.419,3.595-8.014,8.014-8.014h214.973c4.419,0,8.014,3.595,8.014,8.014L371.5,236L371.5,236z M78.499,258c0-3.86,3.14-7,7-7
	h19.919v14H85.499C81.639,265,78.499,261.86,78.499,258z M411.5,423H398c-4.142,0-7.5,3.358-7.5,7.5s3.358,7.5,7.5,7.5h13.5v5.683
	H398c-4.142,0-7.5,3.358-7.5,7.5s3.358,7.5,7.5,7.5h13.5v27.798c0,5.8-4.719,10.519-10.519,10.519H111.018
	c-5.8,0-10.519-4.719-10.519-10.519V280h46.25c4.142,0,7.5-3.358,7.5-7.5s-3.358-7.5-7.5-7.5h-26.331v-14l0,0H391.58v14h-214.83
	c-4.142,0-7.5,3.358-7.5,7.5s3.358,7.5,7.5,7.5H411.5V423z M426.5,265h-19.919v-14H426.5c3.86,0,7,3.14,7,7
	C433.5,261.86,430.359,265,426.5,265z"/>
<path d="M354,65h-196c-4.142,0-7.5,3.358-7.5,7.5v146c0,4.142,3.358,7.5,7.5,7.5h196c4.142,0,7.5-3.358,7.5-7.5v-29
	c0-4.142-3.358-7.5-7.5-7.5c-4.142,0-7.5,3.358-7.5,7.5V211h-181V80h181v79.5c0,4.142,3.358,7.5,7.5,7.5c4.142,0,7.5-3.358,7.5-7.5
	v-87C361.5,68.358,358.141,65,354,65z"/>
<path d="M319.987,297H192.012c-8.002,0-14.513,6.51-14.513,14.513v153.975c0,8.002,6.51,14.513,14.513,14.513h127.975
	c8.002,0,14.513-6.51,14.513-14.513V311.513C334.5,303.51,327.99,297,319.987,297z M192.499,465v-12.33H272
	c4.142,0,7.5-3.358,7.5-7.5s-3.358-7.5-7.5-7.5h-79.5V312h127v126H298c-4.142,0-7.5,3.358-7.5,7.5s3.358,7.5,7.5,7.5h21.5v12
	H192.499z"/>
<path d="M139.999,365c13.509,0,24.5-10.991,24.5-24.5s-10.991-24.5-24.5-24.5s-24.5,10.991-24.5,24.5S126.49,365,139.999,365z
	 M139.999,331c5.238,0,9.5,4.262,9.5,9.5s-4.262,9.5-9.5,9.5s-9.5-4.262-9.5-9.5S134.761,331,139.999,331z"/>
<path d="M161.414,394.154h-3.068v-3.068c0-5.286-4.3-9.585-9.585-9.585H131.24c-5.286,0-9.585,4.3-9.585,9.585v3.068h-3.068
	c-5.286,0-9.585,4.3-9.585,9.585v17.521c0,5.286,4.3,9.585,9.585,9.585h3.068v3.068c0,5.286,4.3,9.585,9.585,9.585h17.521
	c5.286,0,9.585-4.3,9.585-9.585v-3.068h3.068c5.286,0,9.585-4.3,9.585-9.585v-17.521
	C170.999,398.454,166.699,394.154,161.414,394.154z M155.999,415.846h-3.068c-5.286,0-9.585,4.3-9.585,9.585v3.068h-6.692v-3.068
	c0-5.286-4.3-9.585-9.585-9.585h-3.07v-6.692h3.068c5.286,0,9.585-4.3,9.585-9.585V396.5h6.692v3.068c0,5.286,4.3,9.585,9.585,9.585
	h3.07V415.846z"/>
<circle cx="373" cy="342.5" r="12.5"/>
<circle cx="373" cy="386.5" r="12.5"/>
<circle cx="355" cy="461.5" r="8.5"/>
<circle cx="352" cy="364.5" r="12.5"/>
<circle cx="394" cy="364.5" r="12.5"/>
<g>
</g>
<g>
</g>
<g>
</g>
<g>
</g>
<g>
</g>
<g>
</g>
<g>
</g>
<g>
</g>
<g>
</g>
<g>
</g>
<g>
</g>
<g>
</g>
<g>
</g>
<g>
</g>
<g>
</g>
</svg>
