<?xml version="1.0" encoding="iso-8859-1"?>
<!-- Generator: Adobe Illustrator 21.0.0, SVG Export Plug-In . SVG Version: 6.00 Build 0)  -->
<svg version="1.1" id="Capa_1" xmlns="http://www.w3.org/2000/svg" xmlns:xlink="http://www.w3.org/1999/xlink" x="0px" y="0px"
	 viewBox="0 0 512 512" style="enable-background:new 0 0 512 512;" xml:space="preserve">
<path style="fill:#CF8AFA;" d="M369,20.12V271.5H143V20.12c0-6.97,5.65-12.62,12.62-12.62h200.76C363.35,7.5,369,13.15,369,20.12z"
	/>
<path style="fill:#C283FF;" d="M166,213.396V7.5h-10.38c-6.97,0-12.62,5.65-12.62,12.62V271.5h226V244H196.604
	C179.702,244,166,230.298,166,213.396z"/>
<path style="fill:#CF8AFA;" d="M369,298.5v193.58c0,6.86-5.56,12.42-12.42,12.42H155.42c-6.86,0-12.42-5.56-12.42-12.42V298.5H369z"
	/>
<g>
	<path style="fill:#C283FF;" d="M333.302,383.816c0,2.71-0.7,5.46-2.15,7.98l-20.44,35.41c-4.42,7.65-14.21,10.27-21.86,5.85
		c-7.65-4.42-10.27-14.2-5.86-21.85l20.44-35.41c4.42-7.65,14.21-10.27,21.86-5.86C330.422,372.906,333.302,378.286,333.302,383.816
		z"/>
	<circle style="fill:#C283FF;" cx="210.46" cy="362.43" r="12"/>
	<circle style="fill:#C283FF;" cx="242.46" cy="394.43" r="12"/>
	<circle style="fill:#C283FF;" cx="210.46" cy="426.43" r="12"/>
	<circle style="fill:#C283FF;" cx="178.46" cy="394.43" r="12"/>
	<path style="fill:#C283FF;" d="M181.614,335H369v-36.5H143v193.58c0,6.859,5.561,12.42,12.42,12.42H162V354.614
		C162,343.782,170.782,335,181.614,335z"/>
</g>
<path style="fill:#AC60FC;" d="M387,284.82v7.36c0,15.09-12.23,27.32-27.32,27.32H152.32c-15.09,0-27.32-12.23-27.32-27.32v-7.36
	c0-15.09,12.23-27.32,27.32-27.32h207.36C374.77,257.5,387,269.73,387,284.82z"/>
<path style="fill:#954BF7;" d="M379.68,292.997H179.497c-19.052,0-34.497-15.445-34.497-34.497l0,0c-11.533,3.2-20,13.767-20,26.32
	v7.36c0,15.088,12.232,27.32,27.32,27.32h207.36c15.088,0,27.32-12.232,27.32-27.32v-0.183
	C384.669,292.644,382.217,292.997,379.68,292.997z"/>
<path style="fill:#4F4F74;" d="M337,43.67v177.66c0,2.3-1.87,4.17-4.17,4.17H179.17c-2.3,0-4.17-1.87-4.17-4.17V43.67
	c0-2.3,1.87-4.17,4.17-4.17h153.66C335.13,39.5,337,41.37,337,43.67z"/>
<path style="fill:#3E436D;" d="M210.169,195.5c-2.3,0-4.17-1.87-4.17-4.17V39.5H179.17c-2.3,0-4.17,1.87-4.17,4.17v177.66
	c0,2.3,1.87,4.17,4.17,4.17h153.66c2.3,0,4.17-1.87,4.17-4.17V195.5H210.169z"/>
<circle style="fill:#82DBBA;" cx="215" cy="358.5" r="12"/>
<circle style="fill:#DD1B1B;" cx="247" cy="390.5" r="12"/>
<circle style="fill:#358DCD;" cx="215" cy="422.5" r="12"/>
<circle style="fill:#FE4583;" cx="183" cy="390.5" r="12"/>
<path style="fill:#5BCE95;" d="M212,356c0-3.807,1.776-7.192,4.539-9.39c-0.505-0.065-1.017-0.11-1.539-0.11c-6.63,0-12,5.37-12,12
	s5.37,12,12,12c2.823,0,5.412-0.98,7.461-2.61C216.56,367.134,212,362.107,212,356z"/>
<path style="fill:#CC0202;" d="M244,388c0-3.807,1.776-7.192,4.539-9.39c-0.505-0.065-1.017-0.11-1.539-0.11c-6.63,0-12,5.37-12,12
	s5.37,12,12,12c2.823,0,5.412-0.98,7.461-2.61C248.56,399.134,244,394.107,244,388z"/>
<path style="fill:#098BAA;" d="M212,420c0-3.807,1.776-7.192,4.539-9.39c-0.505-0.065-1.017-0.11-1.539-0.11c-6.63,0-12,5.37-12,12
	s5.37,12,12,12c2.823,0,5.412-0.98,7.461-2.61C216.56,431.134,212,426.107,212,420z"/>
<path style="fill:#EA2D88;" d="M180,388c0-3.807,1.776-7.192,4.539-9.39c-0.505-0.065-1.017-0.11-1.539-0.11c-6.63,0-12,5.37-12,12
	s5.37,12,12,12c2.823,0,5.412-0.98,7.461-2.61C184.56,399.134,180,394.107,180,388z"/>
<path style="fill:#AC60FC;" d="M339.45,378.63c0,2.71-0.7,5.46-2.15,7.98l-20.44,35.41c-4.42,7.65-14.21,10.27-21.86,5.85
	c-7.65-4.42-10.27-14.2-5.86-21.85l20.44-35.41c4.42-7.65,14.21-10.27,21.86-5.86C336.57,367.72,339.45,373.1,339.45,378.63z"/>
<path style="fill:#9B56F4;" d="M301.55,425.352c-7.65-4.42-10.27-14.2-5.86-21.85l20.44-35.41c1.274-2.206,3.004-3.978,4.992-5.299
	c-4.671,0.688-8.997,3.413-11.542,7.817l-20.44,35.41c-4.41,7.65-1.79,17.43,5.86,21.85c5.445,3.146,11.966,2.71,16.871-0.553
	C308.428,427.824,304.797,427.228,301.55,425.352z"/>
<path style="fill:#AC60FC;" d="M143,475.247v16.833c0,6.86,5.56,12.42,12.42,12.42h201.16c6.86,0,12.42-5.56,12.42-12.42v-16.833
	H143z"/>
<path style="fill:#82DBBA;" d="M312,67.224v130.552c0,1.504-1.22,2.724-2.724,2.724H202.724c-1.504,0-2.724-1.22-2.724-2.724V67.224
	c0-1.504,1.22-2.724,2.724-2.724h106.552C310.78,64.5,312,65.72,312,67.224z"/>
<path style="fill:#50C998;" d="M272.846,200.5h36.43c1.504,0,2.724-1.22,2.724-2.724V67.224c0-1.504-1.22-2.724-2.724-2.724h-36.43
	V200.5z"/>
<path d="M376.5,254.346V20.124C376.5,9.028,367.472,0,356.376,0H155.624C144.528,0,135.5,9.028,135.5,20.124v234.222
	c-9.112,5.05-15.728,14.065-17.512,24.701c-0.008,0.037-0.013,0.076-0.02,0.113c-0.303,1.844-0.468,3.734-0.468,5.662v7.354
	c0,13.103,7.277,24.535,18,30.477V492.08c0,10.984,8.936,19.92,19.92,19.92h201.16c10.984,0,19.92-8.936,19.92-19.92V322.654
	c10.723-5.943,18-17.374,18-30.477v-7.354C394.5,271.72,387.223,260.289,376.5,254.346z M150.5,250V20.124
	c0-2.825,2.299-5.124,5.124-5.124h200.752c2.825,0,5.124,2.299,5.124,5.124V250h-1.823H152.323H150.5z M379.5,292.177
	c0,10.931-8.893,19.823-19.823,19.823H342.75c-4.142,0-7.5,3.358-7.5,7.5s3.358,7.5,7.5,7.5h18.75v141H313
	c-4.142,0-7.5,3.358-7.5,7.5s3.358,7.5,7.5,7.5h48.5v9.08c0,2.713-2.207,4.92-4.92,4.92H155.42c-2.713,0-4.92-2.207-4.92-4.92
	v-9.333H286c4.142,0,7.5-3.358,7.5-7.5s-3.358-7.5-7.5-7.5H150.5V327h1.823H312.75c4.142,0,7.5-3.358,7.5-7.5s-3.358-7.5-7.5-7.5
	H152.323c-10.931,0-19.823-8.893-19.823-19.823v-4.089H256c4.142,0,7.5-3.358,7.5-7.5s-3.358-7.5-7.5-7.5H136.384
	c3.613-4.894,9.403-8.087,15.939-8.087h207.354c10.931,0,19.823,8.893,19.823,19.823V292.177z"/>
<path d="M332.833,32H179.167c-6.433,0-11.667,5.233-11.667,11.667v177.667c0,6.433,5.233,11.667,11.667,11.667h153.667
	c6.433,0,11.667-5.233,11.667-11.667V43.667C344.5,37.233,339.267,32,332.833,32z M329.5,218h-147V47h147V218z"/>
<path d="M200,208h112c4.142,0,7.5-3.358,7.5-7.5v-136c0-4.142-3.358-7.5-7.5-7.5H200c-4.142,0-7.5,3.358-7.5,7.5v85
	c0,4.142,3.358,7.5,7.5,7.5s7.5-3.358,7.5-7.5V72h57.846v121H207.5v-13.5c0-4.142-3.358-7.5-7.5-7.5s-7.5,3.358-7.5,7.5v21
	C192.5,204.642,195.858,208,200,208z M280.346,72H304.5v121h-24.154V72z"/>
<path d="M215,378c10.752,0,19.5-8.748,19.5-19.5S225.752,339,215,339s-19.5,8.748-19.5,19.5S204.248,378,215,378z M215,354
	c2.481,0,4.5,2.019,4.5,4.5s-2.019,4.5-4.5,4.5s-4.5-2.019-4.5-4.5S212.519,354,215,354z"/>
<path d="M247,371c-10.752,0-19.5,8.748-19.5,19.5S236.248,410,247,410c10.752,0,19.5-8.748,19.5-19.5S257.752,371,247,371z M247,395
	c-2.481,0-4.5-2.019-4.5-4.5s2.019-4.5,4.5-4.5s4.5,2.019,4.5,4.5S249.481,395,247,395z"/>
<path d="M215,403c-10.752,0-19.5,8.748-19.5,19.5S204.248,442,215,442s19.5-8.748,19.5-19.5S225.752,403,215,403z M215,427
	c-2.481,0-4.5-2.019-4.5-4.5s2.019-4.5,4.5-4.5s4.5,2.019,4.5,4.5S217.481,427,215,427z"/>
<path d="M202.5,390.5c0-10.752-8.748-19.5-19.5-19.5s-19.5,8.748-19.5,19.5S172.248,410,183,410S202.5,401.252,202.5,390.5z
	 M183,395c-2.481,0-4.5-2.019-4.5-4.5s2.019-4.5,4.5-4.5s4.5,2.019,4.5,4.5S185.481,395,183,395z"/>
<path d="M303.09,366.861l-20.441,35.405c-6.479,11.222-2.621,25.623,8.602,32.102c3.692,2.131,7.726,3.144,11.71,3.144
	c8.127,0,16.043-4.215,20.391-11.746l20.441-35.406c3.139-5.436,3.972-11.769,2.348-17.832c-1.625-6.063-5.513-11.131-10.949-14.269
	C323.969,351.78,309.569,355.639,303.09,366.861z M330.803,382.861l-20.441,35.405c-2.344,4.06-7.553,5.456-11.611,3.111
	c-4.059-2.344-5.455-7.552-3.111-11.611l20.441-35.405c1.573-2.724,4.436-4.249,7.375-4.249c1.441,0,2.901,0.367,4.236,1.137
	c1.966,1.135,3.373,2.968,3.96,5.161C332.239,378.604,331.938,380.895,330.803,382.861z"/>
<g>
</g>
<g>
</g>
<g>
</g>
<g>
</g>
<g>
</g>
<g>
</g>
<g>
</g>
<g>
</g>
<g>
</g>
<g>
</g>
<g>
</g>
<g>
</g>
<g>
</g>
<g>
</g>
<g>
</g>
</svg>
