<?xml version="1.0" encoding="iso-8859-1"?>
<!-- Generator: Adobe Illustrator 21.0.0, SVG Export Plug-In . SVG Version: 6.00 Build 0)  -->
<svg version="1.1" id="Capa_1" xmlns="http://www.w3.org/2000/svg" xmlns:xlink="http://www.w3.org/1999/xlink" x="0px" y="0px"
	 viewBox="0 0 512.001 512.001" style="enable-background:new 0 0 512.001 512.001;" xml:space="preserve">
<g>
	<path style="fill:#CEC1E7;" d="M504.515,400.548v22.296c0,2.116-1.707,3.823-3.823,3.823H455.61v-29.941h45.082
		C502.808,396.726,504.515,398.432,504.515,400.548z"/>
	<path style="fill:#CEC1E7;" d="M504.515,338.669v22.296c0,2.116-1.707,3.823-3.823,3.823H455.61v-29.942h45.082
		C502.808,334.847,504.515,336.553,504.515,338.669z"/>
	<path style="fill:#CEC1E7;" d="M504.515,276.79v22.296c0,2.116-1.707,3.823-3.823,3.823H455.61v-29.942h45.082
		C502.808,272.967,504.515,274.674,504.515,276.79z"/>
	<path style="fill:#CEC1E7;" d="M504.515,214.911v22.296c0,2.116-1.707,3.823-3.823,3.823H455.61v-29.942h45.082
		C502.808,211.088,504.515,212.795,504.515,214.911z"/>
	<path style="fill:#CEC1E7;" d="M504.515,153.032v22.296c0,2.116-1.707,3.823-3.823,3.823H455.61v-29.942h45.082
		C502.808,149.209,504.515,150.916,504.515,153.032z"/>
	<path style="fill:#CEC1E7;" d="M504.515,91.152v22.296c0,2.116-1.707,3.823-3.823,3.823H455.61V87.33h45.082
		C502.808,87.33,504.515,89.037,504.515,91.152z"/>
	<path style="fill:#CEC1E7;" d="M50.402,396.726v29.941H11.308c-2.116,0-3.823-1.707-3.823-3.823v-22.296
		c0-2.116,1.707-3.823,3.823-3.823L50.402,396.726L50.402,396.726z"/>
	<path style="fill:#CEC1E7;" d="M50.402,334.847v29.942H11.308c-2.116,0-3.823-1.707-3.823-3.823v-22.296
		c0-2.116,1.707-3.823,3.823-3.823L50.402,334.847L50.402,334.847z"/>
	<path style="fill:#CEC1E7;" d="M50.402,272.967v29.942H11.308c-2.116,0-3.823-1.707-3.823-3.823V276.79
		c0-2.116,1.707-3.823,3.823-3.823L50.402,272.967L50.402,272.967z"/>
	<path style="fill:#CEC1E7;" d="M50.402,211.088v29.942H11.308c-2.116,0-3.823-1.707-3.823-3.823v-22.296
		c0-2.116,1.707-3.823,3.823-3.823H50.402z"/>
	<path style="fill:#CEC1E7;" d="M50.402,149.209v29.942H11.308c-2.116,0-3.823-1.707-3.823-3.823v-22.296
		c0-2.116,1.707-3.823,3.823-3.823H50.402z"/>
	<path style="fill:#CEC1E7;" d="M50.402,87.33v29.942H11.308c-2.116,0-3.823-1.707-3.823-3.823V91.152
		c0-2.116,1.707-3.823,3.823-3.823H50.402z"/>
</g>
<path style="fill:#EDE6F5;" d="M467.587,68.367H354.657c-4.052,0-7.336,3.284-7.336,7.336v12.007v48.026H163.68V87.709V75.703
	c0-4.052-3.284-7.336-7.336-7.336H43.415c-8.543,0-15.47,6.926-15.47,15.47v344.328c0,8.543,6.926,15.47,15.47,15.47h112.929
	c4.052,0,7.336-3.284,7.336-7.336v-14.512v-20.071h183.641v20.071v14.512c0,4.052,3.284,7.336,7.336,7.336h112.929
	c8.543,0,15.47-6.926,15.47-15.47V83.837C483.057,75.293,476.13,68.367,467.587,68.367z"/>
<g>
	<path style="fill:#E0D3F2;" d="M77.349,412.694c-8.543,0-15.47-6.926-15.47-15.47V68.367H43.415c-8.543,0-15.47,6.926-15.47,15.47
		v344.328c0,8.543,6.926,15.47,15.47,15.47h112.929c4.052,0,7.336-3.284,7.336-7.336v-14.512v-9.092H77.349z"/>
	<path style="fill:#E0D3F2;" d="M388.591,412.694c-4.051,0-7.336-3.285-7.336-7.336v-14.512l0,0
		c0-11.084-8.986-20.071-20.071-20.071H197.614v20.071v10.869h149.708v20.071v14.512c0,4.051,3.285,7.336,7.336,7.336h112.929
		c8.543,0,15.47-6.926,15.47-15.47v-15.47H388.591z"/>
</g>
<path style="fill:#AB9DD6;" d="M338.459,78.347H173.541c-5.17,0-9.362,4.192-9.362,9.362v334.078c0,5.998,4.87,10.869,10.869,10.869
	h161.904c5.998,0,10.869-4.87,10.869-10.869V87.709C347.821,82.539,343.629,78.347,338.459,78.347z"/>
<path style="fill:#A095CE;" d="M347.322,148.7V87.709c0-5.17-4.192-9.362-9.362-9.362h-17.586v37.578
	c0,7.62-7.524,12.888-14.721,10.384c-15.779-5.488-32.519-8.353-49.653-8.353c-17.346,0-34.29,2.934-50.241,8.556
	c-7.202,2.538-14.758-2.734-14.758-10.371V78.347h-17.959c-5.17,0-9.362,4.192-9.362,9.362v164.946h0.499v136.22
	c26.25,20.164,58.286,31.118,91.821,31.118s65.572-10.956,91.821-31.118v-239.8C347.655,148.949,347.487,148.826,347.322,148.7z"/>
<path style="fill:#CEC1E7;" d="M347.821,173.122c25.221,24.163,40.92,58.176,40.92,95.853s-15.699,71.69-40.92,95.853
	c-23.833,22.845-56.2,36.888-91.821,36.888s-67.987-14.043-91.821-36.888c-25.221-24.163-40.92-58.176-40.92-95.853
	s15.699-71.69,40.92-95.853c23.833-22.845,56.2-36.888,91.821-36.888S323.987,150.277,347.821,173.122z"/>
<path style="fill:#BCAFDD;" d="M282.947,389.739c-35.62,0-67.987-14.043-91.821-36.888c-25.221-24.163-40.92-58.176-40.92-95.853
	s15.699-71.69,40.92-95.853c7.477-7.167,15.795-13.467,24.79-18.739c-19.607,6.205-37.25,16.83-51.737,30.716
	c-25.221,24.163-40.92,58.176-40.92,95.853s15.699,71.69,40.92,95.853c23.833,22.845,56.2,36.888,91.821,36.888
	c24.445,0,47.358-6.615,67.031-18.149C310.382,387.571,296.916,389.739,282.947,389.739z"/>
<g>
	<circle style="fill:#4F4F74;" cx="96.312" cy="379.759" r="36.928"/>
	<circle style="fill:#4F4F74;" cx="77.349" cy="296.921" r="17.965"/>
</g>
<path style="fill:#3E436D;" d="M87.986,308.897c-9.921,0-17.965-8.044-17.965-17.965c0-4.478,1.65-8.565,4.361-11.711
	c-8.506,1.417-14.999,8.792-14.999,17.699c0,9.921,8.044,17.965,17.965,17.965c5.442,0,10.309-2.43,13.603-6.254
	C89.985,308.793,88.999,308.897,87.986,308.897z"/>
<circle style="fill:#4F4F74;" cx="415.688" cy="379.759" r="36.928"/>
<g>
	<path style="fill:#3E436D;" d="M107.714,411.696c-20.39,0-36.928-16.538-36.928-36.928c0-12.901,6.624-24.253,16.651-30.857
		c-16.105,3.976-28.053,18.517-28.053,35.847c0,20.39,16.538,36.928,36.928,36.928c7.489,0,14.455-2.238,20.276-6.071
		C113.745,411.317,110.774,411.696,107.714,411.696z"/>
	<path style="fill:#3E436D;" d="M427.09,411.696c-20.39,0-36.928-16.538-36.928-36.928c0-12.901,6.624-24.253,16.651-30.857
		c-16.105,3.976-28.054,18.516-28.054,35.847c0,20.39,16.538,36.928,36.928,36.928c7.489,0,14.455-2.238,20.276-6.071
		C433.121,411.317,430.15,411.696,427.09,411.696z"/>
</g>
<g>
	<path style="fill:#BDACE5;" d="M310.893,204.172v16.827c0,2.795-2.266,5.06-5.06,5.06h-99.665c-2.795,0-5.06-2.266-5.06-5.06
		v-16.827c0-2.795,2.266-5.06,5.06-5.06h99.665C308.627,199.112,310.893,201.377,310.893,204.172z"/>
	<path style="fill:#BDACE5;" d="M319.875,316.951v22.815c0,2.795-2.266,5.06-5.06,5.06h-117.63c-2.795,0-5.06-2.266-5.06-5.06
		v-22.815c0-2.795,2.266-5.06,5.06-5.06h117.63C317.61,311.891,319.875,314.157,319.875,316.951z"/>
</g>
<path d="M96.312,335.346c-24.49,0-44.413,19.923-44.413,44.413c0,24.49,19.923,44.413,44.413,44.413s44.413-19.923,44.413-44.413
	C140.725,355.269,120.802,335.346,96.312,335.346z M96.312,409.201c-16.235,0-29.442-13.207-29.442-29.442
	c0-16.235,13.207-29.443,29.442-29.443s29.442,13.207,29.442,29.443C125.754,395.994,112.547,409.201,96.312,409.201z"/>
<path d="M77.349,322.371c14.034,0,25.45-11.417,25.45-25.45s-11.417-25.45-25.45-25.45s-25.45,11.417-25.45,25.45
	S63.315,322.371,77.349,322.371z M77.349,286.441c5.779,0,10.48,4.701,10.48,10.48s-4.701,10.48-10.48,10.48
	c-5.779,0-10.48-4.701-10.48-10.48S71.57,286.441,77.349,286.441z"/>
<path d="M415.688,335.346c-24.489,0-44.413,19.923-44.413,44.413c0,24.49,19.924,44.413,44.413,44.413s44.413-19.923,44.413-44.413
	C460.101,355.269,440.177,335.346,415.688,335.346z M415.688,409.201c-16.235,0-29.443-13.207-29.443-29.442
	c0-16.235,13.207-29.443,29.443-29.443s29.443,13.207,29.443,29.443C445.131,395.994,431.923,409.201,415.688,409.201z"/>
<path d="M500.696,124.757c6.233,0,11.304-5.071,11.304-11.304V91.148c0-6.233-5.071-11.304-11.304-11.304h-10.01
	c-1.897-10.76-11.308-18.963-22.604-18.963H355.16c-6.561,0-12.131,4.288-14.078,10.206c-0.856-0.135-1.729-0.226-2.623-0.226
	H173.54c-0.894,0-1.766,0.091-2.623,0.226c-1.946-5.918-7.517-10.206-14.077-10.206H43.918c-11.296,0-20.707,8.203-22.604,18.963
	h-10.01C5.071,79.845,0,84.916,0,91.148v22.304c0,6.233,5.071,11.304,11.304,11.304h9.655v16.967h-9.655
	C5.071,141.724,0,146.795,0,153.028v22.304c0,6.233,5.071,11.304,11.304,11.304h9.655v16.967h-9.655
	C5.071,203.603,0,208.674,0,214.907v22.304c0,6.233,5.071,11.304,11.304,11.304h9.655v16.967h-9.655
	C5.071,265.482,0,270.553,0,276.786v22.304c0,6.233,5.071,11.304,11.304,11.304h9.655v16.967h-9.655
	C5.071,327.361,0,332.432,0,338.665v22.304c0,6.233,5.071,11.304,11.304,11.304h9.655v16.967h-9.655
	C5.071,389.24,0,394.311,0,400.544v22.304c0,6.233,5.071,11.304,11.304,11.304h10.454c2.643,9.762,11.573,16.967,22.161,16.967
	H156.84c6.987,0,12.846-4.864,14.405-11.381c1.229,0.26,2.499,0.402,3.805,0.402h161.904c1.304,0,2.576-0.142,3.804-0.402
	c1.56,6.516,7.419,11.381,14.405,11.381h112.921c10.587,0,19.518-7.205,22.161-16.967h10.454c6.233,0,11.304-5.071,11.304-11.304
	v-22.304c0-6.233-5.071-11.304-11.304-11.304h-9.656v-16.967h9.655c6.233,0,11.304-5.071,11.304-11.304v-22.304
	c0-6.233-5.071-11.304-11.304-11.304h-9.655v-16.967h9.655c6.233,0,11.304-5.071,11.304-11.304v-22.304
	c0-6.233-5.071-11.304-11.304-11.304h-9.655v-16.967h9.655c6.233,0,11.304-5.071,11.304-11.304v-22.304
	c0-6.233-5.071-11.304-11.304-11.304h-9.655v-16.967h9.655c6.233,0,11.304-5.071,11.304-11.304v-22.304
	c0-6.233-5.071-11.304-11.304-11.304h-9.655v-16.967L500.696,124.757L500.696,124.757z M497.029,109.786h-5.988V94.815h5.988
	V109.786z M173.54,85.833h10.562v21.458c0,4.134,3.351,7.485,7.485,7.485s7.485-3.351,7.485-7.485V85.833h113.852v21.458
	c0,4.134,3.35,7.485,7.485,7.485c4.135,0,7.485-3.351,7.485-7.485V85.833h10.562c1.034,0,1.876,0.841,1.876,1.875v69.31
	c-3.844-2.903-7.84-5.614-11.977-8.116v-17.658c0-4.134-3.35-7.485-7.485-7.485c-4.135,0-7.485,3.351-7.485,7.485v9.794
	c-17.525-7.893-36.952-12.289-57.387-12.289c-19.924,0-39.474,4.252-57.388,12.284v-9.789c0-4.134-3.351-7.485-7.485-7.485
	s-7.485,3.351-7.485,7.485v17.624c-4.117,2.48-8.116,5.175-11.977,8.083V87.708C171.665,86.674,172.506,85.833,173.54,85.833z
	 M14.971,109.786V94.815h5.988v14.971H14.971z M14.971,171.665v-14.971h5.988v14.971H14.971z M14.971,233.544v-14.971h5.988v14.971
	H14.971z M14.971,295.424v-14.971h5.988v14.971H14.971z M14.971,357.303v-14.971h5.988v14.971H14.971z M14.971,404.211h5.988v14.971
	h-5.988V404.211z M156.694,436.149H43.918c-4.405,0-7.988-3.583-7.988-7.988V83.841c0-4.405,3.583-7.988,7.988-7.988h112.776v94.141
	c-20.504,20.587-34.225,47.115-39,75.796c-0.68,4.077,2.077,7.934,6.155,8.612c4.075,0.683,7.934-2.077,8.612-6.155
	c4.811-28.894,19.791-55.354,42.182-74.504c22.635-19.36,51.527-30.022,81.357-30.022c69.066,0,125.255,56.189,125.255,125.255
	S325.066,394.231,256,394.231c-66.189,0-121.104-51.706-125.023-117.714c-0.246-4.127-3.782-7.269-7.916-7.028
	c-4.127,0.246-7.274,3.789-7.028,7.916c2.1,35.371,17.282,67.067,40.662,90.511v68.234H156.694z M336.952,425.17H175.048
	c-1.865,0-3.383-1.518-3.383-3.383v-40.832c23.539,17.75,52.792,28.247,84.335,28.247c31.632,0,60.848-10.533,84.335-28.27v40.855
	C340.335,423.652,338.817,425.17,336.952,425.17z M476.07,428.16c0,4.405-3.584,7.988-7.988,7.988H355.306v-68.268
	c25.274-25.375,40.92-60.347,40.92-98.906s-15.646-73.53-40.92-98.906V87.708V75.852h112.776c4.404,0,7.988,3.583,7.988,7.988
	V428.16z M497.029,404.211v14.971h-5.988v-14.971H497.029z M497.029,342.332v14.971h-5.988v-14.971H497.029z M497.029,280.453
	v14.971h-5.988v-14.971H497.029z M497.029,218.574v14.971h-5.988v-14.971H497.029z M497.029,156.694v14.971h-5.988v-14.971H497.029z
	"/>
<path d="M206.165,233.544h99.67c6.916,0,12.542-5.627,12.542-12.543V204.17c0-6.916-5.627-12.543-12.542-12.543h-99.67
	c-6.916,0-12.544,5.627-12.544,12.543v16.831C193.622,227.917,199.249,233.544,206.165,233.544z M208.593,206.597h94.815v11.977
	h-94.815V206.597z"/>
<path d="M197.183,352.312h117.635c6.916,0,12.542-5.627,12.542-12.543v-22.819c0-6.916-5.627-12.543-12.542-12.543H197.183
	c-6.916,0-12.544,5.627-12.544,12.543v22.819C184.639,346.685,190.266,352.312,197.183,352.312z M199.61,319.377h112.78v17.965
	H199.61V319.377z"/>
<path d="M108.288,372.273H85.333c-4.134,0-7.485,3.351-7.485,7.485c0,4.134,3.351,7.485,7.485,7.485h22.955
	c4.134,0,7.485-3.351,7.485-7.485C115.774,375.625,112.422,372.273,108.288,372.273z"/>
<path d="M420.746,367.254c-2.956-2.708-7.516-2.608-10.352,0.226l-10.979,10.979c-2.923,2.923-2.923,7.663,0,10.585
	c2.924,2.923,7.663,2.923,10.586,0l5.91-5.91l6.693,6.136c1.437,1.317,3.25,1.967,5.056,1.967c2.025,0,4.044-0.816,5.519-2.427
	c2.794-3.047,2.588-7.782-0.459-10.576L420.746,367.254z"/>
<g>
</g>
<g>
</g>
<g>
</g>
<g>
</g>
<g>
</g>
<g>
</g>
<g>
</g>
<g>
</g>
<g>
</g>
<g>
</g>
<g>
</g>
<g>
</g>
<g>
</g>
<g>
</g>
<g>
</g>
</svg>
