<?xml version="1.0" encoding="iso-8859-1"?>
<!-- Generator: Adobe Illustrator 21.0.0, SVG Export Plug-In . SVG Version: 6.00 Build 0)  -->
<svg version="1.1" id="Capa_1" xmlns="http://www.w3.org/2000/svg" xmlns:xlink="http://www.w3.org/1999/xlink" x="0px" y="0px"
	 viewBox="0 0 512 512" style="enable-background:new 0 0 512 512;" xml:space="preserve">
<path style="fill:#FE4583;" d="M113.279,255.501v81.84H30.441c-6.338,0-12.076-2.575-16.228-6.727
	c-4.152-4.152-6.727-9.891-6.727-16.228v-58.885H113.279z"/>
<path style="fill:#FC3268;" d="M47.522,312.39c-6.338,0-12.076-2.575-16.228-6.727c-4.152-4.152-6.727-9.891-6.727-16.228v-33.934
	H7.485v58.885c0,6.338,2.575,12.076,6.727,16.228c4.152,4.152,9.891,6.727,16.228,6.727h82.838V312.39H47.522z"/>
<path style="fill:#CEC1E7;" d="M113.279,232.546v45.91H30.441c-6.338,0-12.076-2.575-16.228-6.727
	c-4.152-4.152-6.727-9.891-6.727-16.228c0-12.675,10.28-22.955,22.955-22.955H113.279z"/>
<path style="fill:#FE4583;" d="M504.515,255.501v58.885c0,6.338-2.575,12.076-6.727,16.228c-4.152,4.152-9.891,6.727-16.228,6.727
	h-86.83v-81.84H504.515z"/>
<path style="fill:#FC3268;" d="M498.641,312.39h-86.83v-56.889h-17.082v81.84h86.83c6.338,0,12.076-2.575,16.228-6.727
	c4.152-4.152,6.727-9.891,6.727-16.228v-2.76C502.639,312.122,500.671,312.39,498.641,312.39z"/>
<path style="fill:#CEC1E7;" d="M481.559,232.546c12.675,0,22.955,10.28,22.955,22.955c0,6.338-2.575,12.076-6.727,16.228
	c-4.152,4.152-9.891,6.727-16.228,6.727h-86.83v-45.91H481.559z"/>
<path style="fill:#4F4F74;" d="M432.655,226.757v57.398H79.345v-57.398c0-28.225,22.875-51.1,51.1-51.1h81.142h90.823h79.145
	C409.78,175.657,432.655,198.532,432.655,226.757z"/>
<path style="fill:#3E436D;" d="M146.759,175.657L146.759,175.657h-16.314c-28.222,0-51.1,22.878-51.1,51.1v57.398h353.31v-57.398
	c0-0.737-0.025-1.467-0.056-2.196H195.664C168.655,224.561,146.759,202.666,146.759,175.657z"/>
<path style="fill:#CEC1E7;" d="M288.267,126.752c7.535,0,13.643,6.108,13.643,13.643v79.175h-90.823v-79.175
	c0-7.535,6.108-13.643,13.643-13.643H288.267z"/>
<path style="fill:#BCAFDD;" d="M262.559,126.752h-37.828c-7.535,0-13.643,6.108-13.643,13.643v79.175h37.828v-79.175
	C248.916,132.861,255.024,126.752,262.559,126.752z"/>
<path style="fill:#FE4583;" d="M308.288,215.519c-2.375-2.485-5.938-3.932-9.691-3.932h-83.198c-3.753,0-7.316,1.447-9.691,3.932
	l-21.069,22.017v14.097h144.717v-14.097L308.288,215.519z"/>
<path style="fill:#FC3268;" d="M243.536,215.519c2.375-2.485,5.938-3.932,9.691-3.932h-37.828c-3.753,0-7.316,1.447-9.691,3.932
	l-21.069,22.017v14.097h37.828v-14.097L243.536,215.519z"/>
<path style="fill:#EDE6F5;" d="M432.655,284.155v54.474c0,25.75-20.869,46.619-46.619,46.619H125.964
	c-25.75,0-46.619-20.869-46.619-46.619v-54.474c0-25.75,20.869-46.619,46.619-46.619h260.072
	C411.786,237.536,432.655,258.405,432.655,284.155z"/>
<path style="fill:#E0D3F2;" d="M424.818,351.314H118.127V250.221c0-4.246,0.578-8.355,1.642-12.263
	c-22.818,3.031-40.424,22.549-40.424,46.197v54.474c0,25.75,20.869,46.619,46.619,46.619h260.072
	c21.504,0,39.594-14.559,44.978-34.356C428.985,351.161,426.92,351.314,424.818,351.314z"/>
<path style="fill:#4F4F74;" d="M406.706,284.155v54.474c0,11.418-9.252,20.67-20.67,20.67H125.964
	c-11.418,0-20.67-9.252-20.67-20.67v-54.474c0-11.418,9.252-20.67,20.67-20.67h45.172c1.627,0,3.104,0.968,3.753,2.465l3.433,7.954
	c1.717,3.972,5.629,6.547,9.951,6.547h137.452c4.322,0,8.234-2.575,9.951-6.547l3.433-7.954c0.649-1.497,2.126-2.465,3.753-2.465
	h43.176C397.454,263.485,406.706,272.737,406.706,284.155z"/>
<path style="fill:#3E436D;" d="M403.145,344.327H197.546c-41.5,0-75.143-33.642-75.143-75.143l0,0c0-1.903,0.278-3.738,0.76-5.487
	c-10.088,1.37-17.868,9.993-17.868,20.458v54.474c0,11.416,9.254,20.67,20.67,20.67h260.072c9.514,0,17.504-6.433,19.91-15.182
	C405.028,344.241,404.097,344.327,403.145,344.327z"/>
<path style="fill:#82DBBA;" d="M341.832,313.388v15.969c0,3.304-2.685,5.988-5.988,5.988H178.152c-3.304,0-5.988-2.685-5.988-5.988
	v-15.969c0-3.304,2.685-5.988,5.988-5.988h157.692C339.148,307.4,341.832,310.084,341.832,313.388z"/>
<path style="fill:#5BCE95;" d="M231.548,324.366c-9.371,0-16.967-7.596-16.967-16.967l0,0h-36.429c-3.308,0-5.988,2.681-5.988,5.988
	v15.969c0,3.308,2.681,5.988,5.988,5.988h157.692c3.308,0,5.988-2.681,5.988-5.988v-4.99H231.548z"/>
<path d="M386.037,256h-43.175c-4.624,0-8.796,2.744-10.625,6.986l-3.434,7.955c-0.531,1.23-1.74,2.024-3.079,2.024H188.273
	c-1.339,0-2.548-0.794-3.079-2.024l-3.433-7.953c-1.831-4.246-6.003-6.988-10.626-6.988h-45.171
	c-15.526,0-28.155,12.629-28.155,28.154v54.477c0,15.524,12.629,28.153,28.154,28.153h260.074c15.525,0,28.154-12.629,28.154-28.154
	v-54.477C414.191,268.629,401.562,256,386.037,256z M399.22,338.63c0,7.27-5.914,13.183-13.183,13.183H125.963
	c-7.269,0-13.183-5.913-13.183-13.182v-54.477c0-7.27,5.914-13.183,13.183-13.183H168.9l2.55,5.905
	c2.9,6.72,9.504,11.061,16.823,11.061h137.451c7.319,0,13.923-4.342,16.823-11.061l2.55-5.905h40.941
	c7.269,0,13.183,5.913,13.183,13.182L399.22,338.63L399.22,338.63z"/>
<path d="M335.846,299.914H178.15c-7.427,0-13.472,6.043-13.472,13.472v15.973c0,7.428,6.044,13.472,13.472,13.472h18.216
	c4.135,0,7.485-3.351,7.485-7.485s-3.35-7.485-7.485-7.485h-16.717v-12.975h154.698v12.975H226.308
	c-4.135,0-7.485,3.351-7.485,7.485s3.35,7.485,7.485,7.485h109.538c7.427,0,13.472-6.043,13.472-13.472v-15.973
	C349.318,305.957,343.274,299.914,335.846,299.914z"/>
<path d="M148.211,278.955h-13.973c-4.135,0-7.485,3.351-7.485,7.485c0,4.134,3.35,7.485,7.485,7.485h13.973
	c4.135,0,7.485-3.351,7.485-7.485C155.696,282.307,152.345,278.955,148.211,278.955z"/>
<path d="M379.758,278.955h-13.973c-4.135,0-7.485,3.351-7.485,7.485c0,4.134,3.35,7.485,7.485,7.485h13.973
	c4.135,0,7.485-3.351,7.485-7.485C387.244,282.307,383.893,278.955,379.758,278.955z"/>
<path d="M379.758,299.914c-4.135,0-7.485,3.351-7.485,7.485v20.46h-6.487c-4.135,0-7.485,3.351-7.485,7.485s3.35,7.485,7.485,7.485
	h7.707c7.583,0,13.751-6.169,13.751-13.751V307.4C387.244,303.266,383.893,299.914,379.758,299.914z"/>
<path d="M148.211,299.914h-7.707c-7.583,0-13.751,6.169-13.751,13.751v21.68c0,4.134,3.35,7.485,7.485,7.485
	c4.135,0,7.485-3.351,7.485-7.485v-20.46h6.487c4.135,0,7.485-3.351,7.485-7.485C155.696,303.266,152.345,299.914,148.211,299.914z"
	/>
<path d="M481.559,225.06h-41.462c-0.904-31.521-26.81-56.889-58.545-56.889h-71.658v-27.78c0-11.648-9.475-21.125-21.124-21.125
	h-63.546c-11.648,0-21.124,9.476-21.124,21.125v27.78h-73.654c-31.735,0-57.64,25.367-58.545,56.889H30.441
	C13.656,225.06,0,238.716,0,255.501v58.885c0,16.785,13.656,30.441,30.441,30.441h41.784c3.086,26.923,26.002,47.906,53.738,47.906
	h260.074c27.736,0,50.652-20.983,53.738-47.906h41.784c16.784,0,30.441-13.655,30.441-30.441v-58.885
	C512,238.716,498.344,225.06,481.559,225.06z M497.029,255.501c0,8.53-6.939,15.47-15.47,15.47H440.14v-30.94h41.419
	C490.09,240.031,497.029,246.971,497.029,255.501z M211.113,220.692c0.956-0.999,2.599-1.62,4.29-1.62h83.192
	c1.69,0,3.333,0.621,4.29,1.62l8.954,9.359H202.16L211.113,220.692z M219.072,140.392c0-3.393,2.761-6.154,6.153-6.154h63.546
	c3.392,0,6.153,2.761,6.153,6.154v63.71h-75.852V140.392z M86.83,226.759c0-24.051,19.566-43.617,43.617-43.617h73.654v24.153
	c-1.389,0.863-2.68,1.87-3.806,3.047l-18.854,19.709h-55.479c-15.381,0-29.273,6.462-39.133,16.801V226.759z M30.441,240.031H71.86
	v30.94H30.441c-8.53,0-15.47-6.939-15.47-15.47S21.91,240.031,30.441,240.031z M14.971,314.386v-32.683
	c4.537,2.689,9.825,4.239,15.47,4.239H71.86v43.914H30.441C21.91,329.856,14.971,322.916,14.971,314.386z M425.17,338.631
	c0,21.578-17.555,39.132-39.133,39.132H125.963c-21.578,0-39.133-17.555-39.133-39.132v-54.477
	c0-21.578,17.555-39.132,39.133-39.132l0,0h219.113l0,0c4.135,0,7.485-3.351,7.485-7.485c0-4.134-3.35-7.485-7.485-7.485h-12.522
	L313.7,210.343c-1.126-1.177-2.415-2.184-3.806-3.047v-24.153h71.658c24.051,0,43.617,19.566,43.617,43.617v20.093
	c-9.86-10.339-23.752-16.801-39.133-16.801h-11.02c-4.135,0-7.485,3.351-7.485,7.485c0,4.134,3.35,7.485,7.485,7.485h11.02
	c21.578,0,39.133,17.555,39.133,39.132V338.631z M481.559,329.856H440.14v-43.914h41.419c5.645,0,10.933-1.55,15.47-4.239v32.683
	C497.029,322.916,490.09,329.856,481.559,329.856z"/>
<g>
</g>
<g>
</g>
<g>
</g>
<g>
</g>
<g>
</g>
<g>
</g>
<g>
</g>
<g>
</g>
<g>
</g>
<g>
</g>
<g>
</g>
<g>
</g>
<g>
</g>
<g>
</g>
<g>
</g>
</svg>
