<?xml version="1.0" encoding="iso-8859-1"?>
<!-- Generator: Adobe Illustrator 21.0.0, SVG Export Plug-In . SVG Version: 6.00 Build 0)  -->
<svg version="1.1" id="Capa_1" xmlns="http://www.w3.org/2000/svg" xmlns:xlink="http://www.w3.org/1999/xlink" x="0px" y="0px"
	 viewBox="0 0 512 512" style="enable-background:new 0 0 512 512;" xml:space="preserve">
<path style="fill:#F8D46E;" d="M288.157,7.5h-66.32c-7.46,0-13.35,6.36-12.77,13.8l2.76,35.52l0.88,11.32l1.9,24.36v6.86h81.377
	l-0.597-6.86l2.419-31.091c0.049-0.625-0.294-1.216-0.861-1.484l-15.878-7.505c-1.61-0.76-1.59-3.05,0.02-3.79l17.56-8.03
	c0.5-0.228,0.836-0.71,0.879-1.258l1.401-18.042C301.508,13.86,295.617,7.5,288.157,7.5z"/>
<path style="fill:#7CCAFD;" d="M380.347,305.34l-12.1-4.95c20.95-8.43,35.75-28.93,35.75-52.89c0-31.48-25.52-57-57-57
	c-16.62,0-31.58,7.12-42,18.47v-40.502c7.235-0.331,13-6.281,13-13.598V109.5h-124v45.37c0,7.317,5.765,13.267,13,13.598v83.582
	c0,13.58-8.21,25.81-20.77,30.95l-54.58,22.34c-14.44,6.81-23.65,21.35-23.65,37.32v95.45c0,36.67,29.72,66.39,66.39,66.39h163.22
	c36.67,0,66.39-29.72,66.39-66.39v-95.45C403.997,326.69,394.787,312.15,380.347,305.34z M346.997,276.5c-16.02,0-29-12.98-29-29
	s12.98-29,29-29c16.02,0,29,12.98,29,29S363.017,276.5,346.997,276.5z"/>
<path style="fill:#41C2E5;" d="M150.645,457.11v-95.45c0-15.97,9.21-30.51,23.65-37.32l54.58-22.34
	c12.56-5.14,20.77-17.37,20.77-30.95v-72.745c0-5.301-2.68-10.202-7.058-13.191c-3.588-2.45-5.942-6.567-5.942-11.243V128.5h81.352
	v-19h-124v45.37c0,7.317,5.765,13.267,13,13.598v83.582c0,13.58-8.21,25.81-20.77,30.95l-54.58,22.34
	c-14.44,6.81-23.65,21.35-23.65,37.32v95.45c0,35.337,27.602,64.208,62.422,66.262C158.215,492.333,150.645,475.609,150.645,457.11z
	"/>
<path style="fill:#F8D46E;" d="M216.467,110.99v5.51l1.46,23.74c0.21,2.69,2.45,4.76,5.14,4.76h63.86c2.69,0,4.93-2.07,5.14-4.76
	l1.46-23.74v-5.51C293.527,110.99,216.467,110.99,216.467,110.99z"/>
<g>
	<path style="fill:#F7C852;" d="M236.491,68.14l-0.88-11.32l-2.76-35.52c-0.58-7.44,5.31-13.8,12.77-13.8h-23.784
		c-7.46,0-13.35,6.36-12.77,13.8l2.76,35.52l0.88,11.32l1.9,24.36v6.86h23.784V92.5L236.491,68.14z"/>
	<path style="fill:#F7C852;" d="M241.71,140.24l-1.46-23.74v-5.51h-23.783v5.51l1.46,23.74c0.21,2.69,2.45,4.76,5.14,4.76h23.783
		C244.161,145,241.921,142.93,241.71,140.24z"/>
</g>
<path style="fill:#AC60FC;" d="M339.376,389.351c-2.938-18.061-18.604-31.851-37.495-31.851c-20.99,0-38,17.01-38,38
	c0,1.77,0.13,3.5,0.36,5.2v0.02c0.039-0.002,0.077-0.006,0.115-0.009v4.462l74.372-11.892l0.789-3.792L339.376,389.351z"/>
<path style="fill:#954BF7;" d="M282.472,402.277v-1.566c-0.038,0.003-0.077,0.006-0.115,0.009v-0.02c-0.23-1.7-0.36-3.43-0.36-5.2
	c0-17.867,12.328-32.843,28.942-36.905c-2.904-0.711-5.935-1.095-9.058-1.095c-20.99,0-38,17.01-38,38c0,1.77,0.13,3.5,0.36,5.2
	v0.02c0.039-0.002,0.077-0.006,0.115-0.009v4.462L282.472,402.277z"/>
<path style="fill:#AC60FC;" d="M195.997,353.5c-13.81,0-25,11.19-25,25c0,4.02,0.95,7.81,2.64,11.17v5.862l39.355,3.053l0.902-2.636
	h0.003v-0.01c4.39-4.5,7.1-10.65,7.1-17.44C220.997,364.69,209.807,353.5,195.997,353.5z"/>
<path style="fill:#954BF7;" d="M187.033,395.532v-5.862c-1.69-3.36-2.64-7.15-2.64-11.17c0-11.489,7.747-21.158,18.302-24.086
	c-2.132-0.591-4.377-0.914-6.698-0.914c-13.81,0-25,11.19-25,25c0,4.02,0.95,7.81,2.64,11.17v5.862l39.355,3.053l0.346-1.012
	L187.033,395.532z"/>
<path style="fill:#CF8AFA;" d="M133.997,389.23c0-3.01,2.69-5.31,5.66-4.85l33.98,5.29l40.26,6.28l23,3.58
	c9.09,1.42,18.3,1.81,27.46,1.19c3.59-0.23,7.17-0.63,10.74-1.19l64.42-10.04l32.82-5.11c2.97-0.46,5.66,1.84,5.66,4.85v48.88
	c0,22.31-18.08,40.39-40.39,40.39h-163.22c-22.31,0-40.39-18.08-40.39-40.39V389.23z"/>
<path style="fill:#C283FF;" d="M171.527,438.11v-48.768l-31.87-4.961c-2.97-0.46-5.66,1.84-5.66,4.85v48.88
	c0,22.31,18.08,40.39,40.39,40.39h37.53C189.607,478.5,171.527,460.42,171.527,438.11z"/>
<g>
	<circle style="fill:#AC60FC;" cx="237.997" cy="305.5" r="18"/>
	<circle style="fill:#AC60FC;" cx="213.997" cy="437.5" r="18"/>
	<circle style="fill:#AC60FC;" cx="260.997" cy="218.5" r="21"/>
</g>
<g>
	<path style="fill:#954BF7;" d="M236.497,299.542c0-4.512,1.672-8.625,4.416-11.784c-0.951-0.155-1.92-0.257-2.916-0.257
		c-9.94,0-18,8.06-18,18s8.06,18,18,18c5.428,0,10.284-2.415,13.584-6.216C243.031,315.888,236.497,308.487,236.497,299.542z"/>
	<path style="fill:#954BF7;" d="M206.63,431.337c0.463-4.67,2.768-8.84,6.162-11.776c-9.376,0.623-16.795,8.406-16.795,17.939
		c0,9.94,8.06,18,18,18c4.488,0,8.583-1.654,11.736-4.372C214.639,451.844,205.523,442.505,206.63,431.337z"/>
	<path style="fill:#954BF7;" d="M256.497,212.542c0-5.855,2.399-11.144,6.263-14.953c-0.583-0.049-1.167-0.089-1.763-0.089
		c-11.6,0-21,9.4-21,21s9.4,21,21,21c5.745,0,10.946-2.311,14.737-6.047C264.961,232.555,256.497,223.546,256.497,212.542z"/>
</g>
<path style="fill:#358DCD;" d="M314.997,92.5c6.63,0,12,5.37,12,12c0,3.32-1.34,6.32-3.51,8.49c-2.17,2.17-5.17,3.51-8.49,3.51h-120
	c-6.63,0-12-5.37-12-12c0-3.32,1.34-6.32,3.51-8.49s5.17-3.51,8.49-3.51H314.997z"/>
<path style="fill:#366FCC;" d="M212.555,106.721c-6.63,0-12-5.37-12-12c0-0.76,0.078-1.501,0.213-2.221h-5.771
	c-3.32,0-6.32,1.34-8.49,3.51c-2.17,2.17-3.51,5.17-3.51,8.49c0,6.63,5.37,12,12,12h120c3.32,0,6.32-1.34,8.49-3.51
	c1.673-1.673,2.845-3.843,3.297-6.269H212.555z"/>
<path d="M385.3,299.427c16.284-11.953,26.197-31.009,26.197-51.927c0-35.565-28.935-64.5-64.5-64.5
	c-12.291,0-24.262,3.548-34.5,10.023v-18.65c7.628-3.191,13-10.731,13-19.503v-33.964c5.403-3.471,9-9.52,9-16.405
	c0-10.752-8.748-19.5-19.5-19.5h-11.5l1.869-24.053c0.241-3.104-1.46-6.034-4.275-7.363l-6.296-2.974l7.776-3.555
	c2.479-1.133,4.148-3.522,4.359-6.24l1.472-18.938c0.437-5.624-1.51-11.223-5.341-15.363S293.799,0,288.159,0h-66.322
	c-5.641,0-11.072,2.375-14.903,6.515s-5.777,9.74-5.341,15.364l2.76,35.521l0,0l2.145,27.6h-11.5c-10.752,0-19.5,8.748-19.5,19.5
	c0,7.703,4.501,14.357,11,17.523v32.847c0,8.772,5.372,16.312,13,19.503V207c0,4.142,3.357,7.5,7.5,7.5s7.5-3.358,7.5-7.5v-31h41.5
	c4.143,0,7.5-3.358,7.5-7.5s-3.357-7.5-7.5-7.5h-48.369c-3.381,0-6.131-2.75-6.131-6.13V124h7.916l1.024,16.701
	c0.003,0.041,0.006,0.082,0.009,0.123c0.51,6.547,6.053,11.676,12.62,11.676h63.861c6.567,0,12.11-5.129,12.62-11.676
	c0.003-0.041,0.006-0.082,0.009-0.123L300.581,124h9.916v30.87c0,3.38-2.75,6.13-6.131,6.13c-0.062,0-0.123,0.008-0.185,0.009
	c-0.061-0.001-0.122-0.009-0.184-0.009h-22c-4.143,0-7.5,3.358-7.5,7.5s3.357,7.5,7.5,7.5h15.5v32.5v0.473V224.5
	c0,4.142,3.357,7.5,7.5,7.5s7.5-3.358,7.5-7.5v-12.479c9.206-8.94,21.623-14.021,34.5-14.021c27.294,0,49.5,22.206,49.5,49.5
	c0,20.315-12.186,38.344-31.045,45.931c-2.833,1.14-4.692,3.882-4.701,6.936c-0.009,3.054,1.833,5.807,4.659,6.964l11.901,4.871
	c11.661,5.583,19.186,17.517,19.186,30.455v95.456c0,32.471-26.417,58.889-58.889,58.889H174.386
	c-32.472,0-58.889-26.417-58.889-58.889v-95.456c0-12.939,7.524-24.872,19.186-30.455l54.38-22.257
	c15.451-6.323,25.435-21.197,25.435-37.892V237c0-4.142-3.357-7.5-7.5-7.5s-7.5,3.358-7.5,7.5v15.052
	c0,10.578-6.326,20.003-16.116,24.01l-54.571,22.335c-0.121,0.049-0.241,0.102-0.36,0.158c-16.98,8.013-27.952,25.323-27.952,44.1
	v95.456c0,40.742,33.146,73.889,73.889,73.889h163.223c40.742,0,73.889-33.146,73.889-73.889v-95.456
	C411.497,324.534,401.276,307.778,385.3,299.427z M220.528,71.945h9.469c4.143,0,7.5-3.358,7.5-7.5s-3.357-7.5-7.5-7.5h-10.635
	l-1.395-17.95h32.03c4.143,0,7.5-3.358,7.5-7.5s-3.357-7.5-7.5-7.5h-33.195l-0.255-3.279c-0.116-1.491,0.38-2.917,1.396-4.014
	S220.341,15,221.836,15h66.322c1.495,0,2.878,0.604,3.894,1.702c1.016,1.098,1.512,2.523,1.396,4.014L292.32,35.25l-14.347,6.558
	c-3.38,1.546-5.579,4.947-5.602,8.665c-0.023,3.717,2.134,7.145,5.496,8.732l12.145,5.735L288.452,85h-66.91L220.528,71.945z
	 M284.725,137.5H225.27l-0.828-13.5h61.111L284.725,137.5z M293.526,109h-77.059h-21.47c-2.481,0-4.5-2.019-4.5-4.5
	s2.019-4.5,4.5-4.5h19.605h80.789h19.606c2.481,0,4.5,2.019,4.5,4.5s-2.019,4.5-4.5,4.5H293.526z"/>
<path d="M383.497,247.5c0-20.126-16.374-36.5-36.5-36.5c-20.126,0-36.5,16.374-36.5,36.5s16.374,36.5,36.5,36.5
	C367.123,284,383.497,267.626,383.497,247.5z M325.497,247.5c0-11.855,9.645-21.5,21.5-21.5c11.855,0,21.5,9.645,21.5,21.5
	c0,11.855-9.645,21.5-21.5,21.5C335.142,269,325.497,259.355,325.497,247.5z"/>
<path d="M256.548,393.495c-6.178,0.029-12.358-0.425-18.494-1.38l-11.764-1.832c1.445-3.712,2.208-7.692,2.208-11.783
	c0-17.92-14.579-32.5-32.5-32.5s-32.5,14.58-32.5,32.5c0,0.675,0.023,1.346,0.064,2.014l-22.747-3.543
	c-3.584-0.558-7.223,0.475-9.979,2.835s-4.337,5.794-4.337,9.423v48.882c0,26.406,21.482,47.889,47.889,47.889h163.223
	c26.406,0,47.889-21.483,47.889-47.889V432c0-4.142-3.357-7.5-7.5-7.5s-7.5,3.358-7.5,7.5v6.111
	c0,18.135-14.754,32.889-32.889,32.889H174.386c-18.135,0-32.889-14.754-32.889-32.889v-45.853l94.248,14.678
	c13.439,2.093,27.066,2.093,40.504,0l94.248-14.678V402c0,4.142,3.357,7.5,7.5,7.5s7.5-3.358,7.5-7.5v-12.771
	c0-3.628-1.581-7.063-4.337-9.423c-2.756-2.36-6.392-3.393-9.979-2.835l-26.036,4.055c-6.081-18.35-23.19-31.026-43.148-31.026
	C277.581,350,257.602,369.334,256.548,393.495z M178.497,378.5c0-9.649,7.851-17.5,17.5-17.5s17.5,7.851,17.5,17.5
	c0,3.362-0.958,6.586-2.729,9.366l-31.699-4.937C178.693,381.495,178.497,380.016,178.497,378.5z M330.008,383.383l-56.068,8.732
	c-0.762,0.119-1.526,0.208-2.289,0.311C273.198,377.047,286.217,365,301.997,365C314.487,365,325.308,372.4,330.008,383.383z"/>
<path d="M212.497,305.5c0,14.061,11.439,25.5,25.5,25.5s25.5-11.439,25.5-25.5s-11.439-25.5-25.5-25.5
	S212.497,291.439,212.497,305.5z M237.997,295c5.79,0,10.5,4.71,10.5,10.5s-4.71,10.5-10.5,10.5s-10.5-4.71-10.5-10.5
	S232.207,295,237.997,295z"/>
<path d="M213.997,412c-14.061,0-25.5,11.439-25.5,25.5s11.439,25.5,25.5,25.5s25.5-11.439,25.5-25.5S228.058,412,213.997,412z
	 M213.997,448c-5.79,0-10.5-4.71-10.5-10.5s4.71-10.5,10.5-10.5s10.5,4.71,10.5,10.5S219.787,448,213.997,448z"/>
<path d="M260.997,190c-15.715,0-28.5,12.785-28.5,28.5s12.785,28.5,28.5,28.5c15.715,0,28.5-12.785,28.5-28.5
	S276.712,190,260.997,190z M260.997,232c-7.444,0-13.5-6.056-13.5-13.5s6.056-13.5,13.5-13.5c7.444,0,13.5,6.056,13.5,13.5
	S268.441,232,260.997,232z"/>
<g>
</g>
<g>
</g>
<g>
</g>
<g>
</g>
<g>
</g>
<g>
</g>
<g>
</g>
<g>
</g>
<g>
</g>
<g>
</g>
<g>
</g>
<g>
</g>
<g>
</g>
<g>
</g>
<g>
</g>
</svg>
