<?xml version="1.0" encoding="iso-8859-1"?>
<!-- Generator: Adobe Illustrator 21.0.0, SVG Export Plug-In . SVG Version: 6.00 Build 0)  -->
<svg version="1.1" id="Capa_1" xmlns="http://www.w3.org/2000/svg" xmlns:xlink="http://www.w3.org/1999/xlink" x="0px" y="0px"
	 viewBox="0 0 512.003 512.003" style="enable-background:new 0 0 512.003 512.003;" xml:space="preserve">
<path style="fill:#CEC1E7;" d="M145.209,353.075l-7.41,9.361L58.127,465.641l-2.01,2.609l4.057,34.857
	c0.089,0.766,0.79,1.311,1.555,1.207l34.78-4.701l2.349-3.049l74.322-96.277l4.44-9.034L145.209,353.075z"/>
<g>
	<polygon style="fill:#4F4F74;" points="123.713,34.832 78.784,67.887 80.822,70.765 129.32,133.21 129.32,133.23 129.321,133.229 
		129.88,140.828 189.216,134.453 189.216,119.114 189.216,119.104 	"/>
	<polygon style="fill:#4F4F74;" points="390.61,31.681 322.782,118.941 322.782,134.821 382.631,134.821 382.958,132.688 
		431.027,70.793 431.179,70.765 434.854,66.351 	"/>
</g>
<polygon style="fill:#32314B;" points="387.123,36.167 372.115,55.474 416.283,89.779 431.027,70.793 431.179,70.765 
	431.297,70.623 "/>
<g>
	<path style="fill:#FECF54;" d="M451.094,42.262c5.399,4.189,6.379,11.957,2.189,17.356l-6.129,7.888
		c-4.189,5.399-11.967,6.368-17.366,2.179l-41.41-32.162c-5.399-4.189-6.368-11.967-2.18-17.356l6.129-7.888
		c4.189-5.399,11.957-6.378,17.356-2.189L451.094,42.262z"/>
	<path style="fill:#FECF54;" d="M125.801,20.167c4.189,5.389,3.219,13.167-2.179,17.356l-41.41,32.162
		c-5.399,4.189-13.167,3.219-17.366-2.179l-6.119-7.888c-4.199-5.399-3.219-13.167,2.179-17.356l41.41-32.172
		c5.399-4.189,13.167-3.209,17.356,2.189L125.801,20.167z"/>
</g>
<g>
	
		<rect x="113.117" y="89.736" transform="matrix(0.7898 -0.6134 0.6134 0.7898 -33.3716 108.1423)" style="fill:#32314B;" width="55.939" height="26.044"/>
	<polygon style="fill:#32314B;" points="124.982,36.465 80.822,70.765 95.638,89.84 139.805,55.536 	"/>
</g>
<path style="fill:#CEC1E7;" d="M453.874,465.642l-79.291-102.706l-3.394-3.79l-36.591,35.151l4.494,6.341l74.053,95.917l2.359,3.059
	l34.77,4.701c0.765,0.103,1.465-0.441,1.555-1.207l4.057-34.857L453.874,465.642z"/>
<path style="fill:#BDACE5;" d="M374.582,362.936l79.291,102.706l-0.01,0.01l-31.193,1.52l-64.495-83.9
	C364.165,376.923,369.654,370.115,374.582,362.936z"/>
<path style="fill:#EDE6F5;" d="M413.513,496.275l9.158-29.103l31.193-1.52l0.01-0.01l2.01,2.609l-4.057,34.856
	c-0.089,0.767-0.79,1.311-1.555,1.207l-34.77-4.701l-2.359-3.059L413.513,496.275z"/>
<polygon style="fill:#32314B;" points="384.943,130.131 400.916,109.564 356.746,75.246 340.758,95.813 "/>
<path style="fill:#A85C3B;" d="M262.329,77.414c16.546,19.105,37.021,32.552,60.526,41.6c18.346,7.058,38.541,11.437,60.176,13.747
	c2.899,0.31,5.819,0.58,8.768,0.82c7.068,0.57,12.527,6.438,12.527,13.527v119.982c0,35.022-10.787,68.244-29.743,95.847
	c-4.929,7.178-10.418,13.987-16.406,20.335c-5.889,6.249-12.267,12.057-19.085,17.366c-12.907,10.068-27.414,18.356-43.22,24.444
	l-29.903,11.517c-6.179,2.379-13.037,2.379-19.215,0l-29.903-11.517c-15.986-6.159-30.653-14.567-43.67-24.794
	c-6.808-5.339-13.167-11.167-19.036-17.436c-5.969-6.379-11.437-13.207-16.346-20.415c-18.746-27.513-29.403-60.536-29.403-95.347
	V147.397c0-7.138,5.539-13.087,12.667-13.527c2.779-0.17,5.539-0.39,8.258-0.64c21.885-2.05,41.86-6.748,59.896-14.117
	c23.225-9.498,43.23-23.434,59.966-41.91C252.721,73.305,258.89,73.445,262.329,77.414z"/>
<path style="fill:#A04830;" d="M313.174,414.003l-29.903-11.517c-15.986-6.159-30.653-14.567-43.67-24.794
	c-6.808-5.339-13.167-11.167-19.036-17.436c-5.969-6.378-11.437-13.207-16.346-20.415c-18.746-27.513-29.403-60.536-29.403-95.347
	V124.801c0-0.173,0.018-0.342,0.025-0.514c-14.117,4.442-29.293,7.422-45.521,8.942c-2.719,0.25-5.479,0.47-8.258,0.64
	c-7.128,0.44-12.667,6.388-12.667,13.527v119.692c0,34.812,10.657,67.834,29.403,95.347c4.909,7.208,10.378,14.037,16.346,20.415
	c5.869,6.268,12.227,12.097,19.036,17.436c13.017,10.228,27.683,18.636,43.67,24.794l29.903,11.517
	c6.179,2.379,13.037,2.379,19.215,0l29.903-11.517c7.372-2.839,14.448-6.177,21.224-9.931
	C315.768,414.862,314.455,414.496,313.174,414.003z"/>
<path style="fill:#BDACE5;" d="M173.18,400.287l-74.322,96.277l-0.37-0.29l-9.158-29.103l64.815-84.32
	C160.013,389.12,166.372,394.949,173.18,400.287z"/>
<g>
	<path style="fill:#EDE6F5;" d="M98.488,496.275l0.37,0.29l-2.349,3.049l-34.78,4.701c-0.765,0.103-1.465-0.441-1.555-1.207
		l-4.057-34.857l2.01-2.609l0.01,0.01l31.193,1.52L98.488,496.275z"/>
	<path style="fill:#EDE6F5;" d="M375.674,158.095c1.512,0.182,2.657,1.456,2.657,2.978v106.015c0,29.083-8.698,57.126-25.164,81.111
		c-16.456,23.974-39.501,42.17-66.644,52.628l-29.893,11.517c-0.09,0.03-0.18,0.04-0.27,0.04c-0.09,0-0.18-0.01-0.27-0.04
		l-29.893-11.517c-27.144-10.458-50.188-28.653-66.644-52.628c-16.466-23.984-25.164-52.028-25.164-81.111V161.535
		c0-1.532,1.157-2.808,2.678-2.981c46.483-5.269,85.5-21.721,116.385-49.055c1.154-1.021,2.873-1.013,4.019,0.018
		C287.031,136.111,325.985,152.109,375.674,158.095z"/>
</g>
<path style="fill:#E0D3F2;" d="M210.683,379.471c-16.466-23.984-25.164-52.028-25.164-81.111v-76.867
	c0-17.317,12.056-32.281,28.966-36.014c35.075-7.74,65.223-22.696,90.097-44.71c0.343-0.303,0.738-0.505,1.151-0.626
	c-18.272-7.891-34.315-18.079-48.263-30.628c-1.145-1.03-2.865-1.039-4.019-0.018c-30.886,27.335-69.902,43.788-116.385,49.055
	c-1.522,0.173-2.678,1.45-2.678,2.981v105.554c0,29.083,8.698,57.126,25.164,81.111c16.456,23.974,39.501,42.17,66.644,52.628
	l4.072,1.569C223.012,395.511,216.437,387.853,210.683,379.471z"/>
<path style="fill:#FECF54;" d="M295.891,236.016c11.217,0,15.876,14.347,6.808,20.935l-10.827,7.868
	c-4.059,2.949-5.759,8.168-4.209,12.937l4.139,12.727c3.459,10.667-8.738,19.535-17.816,12.937l-10.827-7.858
	c-4.049-2.949-9.548-2.949-13.597,0l-10.827,7.858c-9.078,6.598-21.275-2.269-17.816-12.937l4.139-12.727
	c1.55-4.769-0.15-9.988-4.209-12.937l-10.827-7.868c-9.068-6.588-4.409-20.935,6.808-20.935h13.377
	c5.019,0,9.458-3.229,11.007-7.998l4.139-12.727c3.469-10.667,18.546-10.667,22.015,0l4.139,12.727
	c1.55,4.769,5.989,7.998,11.007,7.998L295.891,236.016L295.891,236.016z"/>
<path style="fill:#F7C852;" d="M244.635,298.623l4.139-12.727c1.55-4.769-0.15-9.988-4.209-12.937l-10.827-7.868
	c-9.068-6.588-4.409-20.935,6.808-20.935h13.377c5.019,0,9.458-3.229,11.007-7.998l4.139-12.727c0.15-0.46,0.328-0.893,0.519-1.313
	l-2.22-6.827c-3.469-10.667-18.546-10.667-22.015,0l-4.139,12.727c-1.55,4.769-5.989,7.998-11.007,7.998H216.83
	c-11.217,0-15.876,14.347-6.808,20.935l10.827,7.868c4.059,2.949,5.759,8.168,4.209,12.937l-4.139,12.727
	c-3.459,10.667,8.738,19.535,17.816,12.937l5.72-4.151C244.511,299.054,244.564,298.84,244.635,298.623z"/>
<path d="M461.816,463.667l-78.019-101.065c18.349-28.553,28.026-61.454,28.026-95.512V147.104c0-9.312-6.236-17.38-14.84-20.083
	l2.121-2.73l34.802-44.808c1.129,0.199,2.276,0.307,3.436,0.307c0.835,0,1.676-0.053,2.518-0.158
	c5.267-0.662,9.96-3.335,13.215-7.526l6.126-7.888c3.256-4.191,4.685-9.4,4.023-14.666c-0.662-5.266-3.335-9.959-7.526-13.215
	L414.284,4.171c-8.65-6.719-21.159-5.149-27.881,3.504l-6.126,7.888c-3.256,4.191-4.685,9.4-4.022,14.667
	c0.253,2.012,0.804,3.937,1.616,5.733l-11.614,14.953c0,0.001-0.001,0.001-0.001,0.002s-0.001,0.001-0.001,0.002l-15.358,19.774
	c-0.002,0.003-0.005,0.005-0.006,0.008l-15.977,20.572c-0.001,0.001-0.002,0.003-0.003,0.004l-14.477,18.64
	c-21.143-8.928-38.525-21.348-52.433-37.407c-3.062-3.538-7.502-5.597-12.181-5.649c-0.061,0-0.121-0.001-0.183-0.001
	c-4.574,0-8.941,1.931-12.006,5.314c-14.575,16.087-31.99,28.664-52.1,37.689l-14.435-18.585c-0.001-0.001-0.002-0.003-0.003-0.004
	l-7.743-9.969l-23.601-30.388c0-0.001-0.001-0.001-0.001-0.002s-0.001-0.001-0.001-0.002L134.12,35.946
	c2.932-6.499,2.275-14.371-2.393-20.384l-6.128-7.889c-6.72-8.651-19.226-10.226-27.881-3.503L56.306,36.335
	c-4.191,3.255-6.864,7.948-7.526,13.214c-0.662,5.267,0.767,10.476,4.021,14.667l6.128,7.888c3.255,4.192,7.948,6.864,13.215,7.526
	c0.842,0.105,1.683,0.158,2.518,0.158c1.16,0,2.306-0.108,3.435-0.307l26.978,34.733c0.002,0.002,0.003,0.005,0.005,0.008
	l10.252,13.199c-8.406,2.787-14.434,10.724-14.434,19.976v119.691c0,33.856,9.561,66.57,27.699,95.006L50.187,463.667
	c-1.196,1.549-1.739,3.503-1.514,5.448l4.213,36.254c0.232,2,1.26,3.821,2.849,5.057c1.323,1.028,2.943,1.577,4.6,1.577
	c0.334,0,0.67-0.022,1.005-0.068l36.168-4.89c1.955-0.264,3.726-1.288,4.931-2.848l38.063-49.307
	c2.53-3.278,1.926-7.987-1.354-10.518c-3.278-2.529-7.986-1.925-10.518,1.354l-27.129,35.142l-3.846-12.223l57.192-74.403
	c2.576,2.493,5.211,4.921,7.931,7.248l-15.814,20.484c-2.53,3.278-1.925,7.987,1.354,10.517c1.365,1.054,2.977,1.563,4.577,1.563
	c2.243,0,4.463-1.003,5.94-2.916l15.755-20.41c12.132,8.702,25.389,15.892,39.566,21.351l29.9,11.515
	c3.967,1.528,8.134,2.291,12.303,2.291c4.168,0,8.337-0.764,12.303-2.291l29.9-11.515c13.997-5.391,27.094-12.472,39.1-21.024
	l71.9,93.141c1.205,1.562,2.976,2.584,4.931,2.848l36.169,4.891c0.335,0.045,0.671,0.067,1.005,0.067c1.656,0,3.276-0.549,4.6-1.577
	c1.59-1.235,2.616-3.057,2.849-5.057l4.213-36.254C463.554,467.171,463.012,465.216,461.816,463.667z M426.224,459.488
	l-58.282-75.82c2.343-2.677,4.599-5.443,6.788-8.271l64.43,83.462L426.224,459.488z M354.711,90.228l3.422-4.406l32.347,25.124
	l-6.779,8.728L351.354,94.55L354.711,90.228z M367.331,73.978l6.168-7.94l32.347,25.124l-6.167,7.94L367.331,73.978z
	 M388.313,46.964l29.243,22.713l3.104,2.411l-5.616,7.23l-32.347-25.124L388.313,46.964z M392.121,24.762l6.126-7.888
	c0.96-1.236,2.399-1.883,3.854-1.883c1.045,0,2.098,0.334,2.983,1.023l41.413,32.164c1.028,0.798,1.684,1.95,1.846,3.24
	c0.163,1.292-0.188,2.569-0.987,3.597l-6.127,7.889c-0.798,1.028-1.949,1.684-3.24,1.846c-1.286,0.167-2.567-0.188-3.597-0.987
	L392.98,31.599c-1.028-0.799-1.685-1.95-1.847-3.241C390.972,27.067,391.323,25.79,392.121,24.762z M342.155,106.394l20.386,15.833
	c-9.676-1.796-18.793-4.075-27.37-6.841L342.155,106.394z M106.156,91.162l32.348-25.124l6.167,7.94l-32.348,25.124L106.156,91.162z
	 M91.34,72.088l5.922-4.599l26.427-20.525l5.616,7.23L96.956,79.318L91.34,72.088z M121.522,110.946l32.347-25.124l6.778,8.728
	l-32.347,25.124l-3.129-4.028L121.522,110.946z M169.848,106.394l7.15,9.207c-9.051,3.117-18.575,5.602-28.572,7.431
	L169.848,106.394z M70.772,62.905l-6.128-7.888c-0.798-1.028-1.148-2.305-0.986-3.597s0.818-2.442,1.847-3.241l41.412-32.164
	c0.888-0.689,1.939-1.023,2.984-1.023c1.455,0,2.895,0.647,3.853,1.882l6.127,7.888c1.648,2.122,1.264,5.19-0.859,6.838
	L77.61,63.764c-1.027,0.798-2.303,1.153-3.597,0.987C72.721,64.589,71.57,63.933,70.772,62.905z M85.778,459.488l-12.936-0.629
	l64.788-83.927c2.181,2.837,4.424,5.619,6.76,8.306L85.778,459.488z M64.276,473.458l19.472,0.947l5.846,18.577L66.9,496.05
	L64.276,473.458z M293.174,418.084l-29.9,11.515c-4.458,1.718-9.369,1.718-13.827,0l-29.9-11.515
	c-15.065-5.803-29.006-13.73-41.503-23.496c-0.094-0.08-0.182-0.164-0.28-0.24c-0.126-0.098-0.259-0.182-0.389-0.27
	c-6.22-4.914-12.07-10.293-17.52-16.095c-0.133-0.156-0.277-0.304-0.425-0.451c-5.469-5.869-10.529-12.167-15.128-18.869
	c-0.116-0.169-0.227-0.34-0.342-0.509c-0.007-0.011-0.014-0.022-0.022-0.032c-18.346-26.954-28.043-58.414-28.043-91.033V147.398
	c0-3.194,2.478-5.852,5.641-6.049c25.575-1.594,48.807-6.615,69.596-14.991c0.562-0.148,1.109-0.37,1.635-0.654
	c24.052-9.957,44.774-24.471,61.98-43.463c0.231-0.256,0.531-0.386,0.89-0.386c0.005,0,0.011,0,0.017,0
	c0.229,0.003,0.663,0.067,1.012,0.47c16.673,19.253,37.666,33.732,63.393,43.638c0.088,0.036,0.176,0.072,0.266,0.104
	c20.541,7.874,44.092,12.843,70.882,14.989c3.206,0.257,5.624,2.856,5.624,6.046v119.985c0,32.815-9.811,64.462-28.372,91.522
	c-0.013,0.019-0.026,0.038-0.039,0.057c-4.675,6.809-9.823,13.205-15.393,19.153l0,0c-5.658,6.041-11.759,11.612-18.248,16.691
	c-0.088,0.062-0.18,0.118-0.266,0.185c-0.063,0.049-0.119,0.104-0.181,0.155C321.92,404.495,308.101,412.335,293.174,418.084z
	 M357.457,394.635l56.89,74.008l-3.847,12.224l-60.993-79.009C352.233,399.539,354.873,397.118,357.457,394.635z M422.408,492.98
	l5.846-18.577l19.472-0.947l-2.625,22.592L422.408,492.98z"/>
<path d="M359.353,352.44c17.321-25.231,26.476-54.745,26.476-85.351v-44.241c0-4.141-3.356-7.498-7.498-7.498
	s-7.498,3.357-7.498,7.498v26.994h-36.491c-4.142,0-7.498,3.357-7.498,7.498c0,4.141,3.356,7.498,7.498,7.498h36.491v2.249
	c0,27.561-8.245,54.14-23.844,76.863c-15.598,22.723-37.437,39.97-63.158,49.875l-19.973,7.692v-70.196
	c0-4.141-3.356-7.498-7.498-7.498s-7.498,3.357-7.498,7.498v70.196l-19.974-7.692c-25.721-9.906-47.56-27.153-63.157-49.875
	c-15.599-22.723-23.844-49.301-23.844-76.863v-2.249h36.491c4.142,0,7.498-3.357,7.498-7.498c0-4.141-3.356-7.498-7.498-7.498
	h-36.491v-84.319c41.154-5.264,76.702-19.268,105.975-41.717v50.554c0,4.141,3.356,7.498,7.498,7.498
	c4.142,0,7.498-3.357,7.498-7.498v-50.614c28.428,21.892,63.962,35.472,107.974,41.291v27.818c0,4.141,3.356,7.498,7.498,7.498
	s7.498-3.357,7.498-7.498V158.4c0-3.817-2.867-7.024-6.66-7.451c-50.628-5.694-89.421-21.641-118.596-48.754
	c-2.856-2.655-7.27-2.677-10.155-0.05c-30.526,27.816-69.823,44.383-116.8,49.238c-3.822,0.396-6.727,3.616-6.727,7.458v108.246
	c0,30.605,9.155,60.119,26.476,85.351c17.32,25.231,41.571,44.383,70.131,55.383l29.901,11.515c0.948,0.365,1.944,0.55,2.96,0.55
	c1.006,0,1.993-0.182,2.961-0.55l29.899-11.515C317.782,396.822,342.033,377.671,359.353,352.44z"/>
<path d="M296.276,270.884l10.828-7.867c6.809-4.948,9.528-13.318,6.926-21.324c-2.601-8.004-9.721-13.177-18.138-13.177h-13.384
	c-1.771,0-3.328-1.131-3.875-2.815l-4.136-12.728c-2.601-8.005-9.722-13.178-18.139-13.178s-15.537,5.173-18.139,13.178
	l-4.137,12.73c-0.546,1.684-2.104,2.814-3.874,2.814h-13.384c-8.417,0-15.536,5.173-18.138,13.177
	c-2.602,8.005,0.117,16.375,6.927,21.324l10.827,7.866c1.433,1.041,2.028,2.872,1.481,4.556l-4.136,12.728
	c-2.602,8.005,0.118,16.374,6.927,21.323c6.811,4.948,15.611,4.948,22.421,0l10.828-7.867c1.431-1.041,3.354-1.042,4.789,0
	l10.827,7.867c3.404,2.473,7.307,3.71,11.209,3.71c3.903,0,7.806-1.237,11.211-3.711c6.809-4.948,9.529-13.318,6.927-21.323
	l-4.135-12.727C294.247,273.755,294.843,271.925,296.276,270.884z M287.461,258.751c-6.704,4.871-9.489,13.439-6.929,21.323
	l4.136,12.728c0.826,2.541-0.76,4.032-1.48,4.556s-2.627,1.572-4.791,0l-10.826-7.867c-3.353-2.436-7.281-3.654-11.21-3.654
	c-3.929,0-7.857,1.218-11.209,3.654l-10.827,7.866c-2.163,1.571-4.071,0.523-4.791,0c-0.721-0.523-2.306-2.015-1.48-4.556
	l4.137-12.73c2.559-7.882-0.226-16.451-6.93-21.322l-10.826-7.866c-2.162-1.571-1.756-3.71-1.48-4.557
	c0.274-0.847,1.203-2.815,3.875-2.815h13.384c8.289,0,15.578-5.296,18.138-13.178l4.136-12.728c0.826-2.541,2.985-2.816,3.876-2.816
	c0.891,0,3.05,0.275,3.876,2.816l4.135,12.727c2.56,7.883,9.85,13.179,18.139,13.179h13.384c2.672,0,3.601,1.969,3.875,2.815
	c0.275,0.847,0.683,2.985-1.479,4.556L287.461,258.751z"/>
<g>
</g>
<g>
</g>
<g>
</g>
<g>
</g>
<g>
</g>
<g>
</g>
<g>
</g>
<g>
</g>
<g>
</g>
<g>
</g>
<g>
</g>
<g>
</g>
<g>
</g>
<g>
</g>
<g>
</g>
</svg>
