<?xml version="1.0" encoding="iso-8859-1"?>
<!-- Generator: Adobe Illustrator 21.0.0, SVG Export Plug-In . SVG Version: 6.00 Build 0)  -->
<svg version="1.1" id="Capa_1" xmlns="http://www.w3.org/2000/svg" xmlns:xlink="http://www.w3.org/1999/xlink" x="0px" y="0px"
	 viewBox="0 0 512.001 512.001" style="enable-background:new 0 0 512.001 512.001;" xml:space="preserve">
<path style="fill:#7CCAFD;" d="M368.771,76.86c-0.991-2.792-3.633-4.654-6.595-4.654H149.645c-2.962,0-5.605,1.862-6.595,4.654
	l-19.746,55.755l112.451,133.688v10.986h39.907l0.405-10.986l112.451-133.688L368.771,76.86z"/>
<path style="fill:#67C4F9;" d="M181.791,157.34c-12.884-15.317-16.693-36.312-10.011-55.18l8.96-25.3
	c0.991-2.792,3.633-4.654,6.595-4.654h-37.689c-2.962,0-5.605,1.862-6.595,4.654l-19.746,55.755l112.451,133.688v10.986h37.689
	v-10.986L181.791,157.34z"/>
<path style="fill:#F8D46E;" d="M305.821,302.652c33.997,17.944,57.176,53.643,57.176,94.756
	c0,58.837-47.448,106.586-106.166,107.086c-59.238,0.5-108.007-47.849-108.007-107.086c0-41.113,23.179-76.822,57.176-94.756
	c1.141-0.61,1.872-1.781,1.872-3.072v-20.977c0-6.796,5.504-12.3,12.3-12.3h71.478c6.796,0,12.3,5.504,12.3,12.3v20.977
	C303.949,300.871,304.68,302.042,305.821,302.652z M327.968,397.409c0-39.792-32.266-72.058-72.058-72.058
	s-72.058,32.266-72.058,72.058s32.266,72.058,72.058,72.058S327.968,437.201,327.968,397.409z"/>
<path style="fill:#F7C852;" d="M171.742,402.051c0-41.113,23.179-76.822,57.176-94.756c1.141-0.61,1.872-1.781,1.872-3.072l0,0
	c0-18.378,14.899-33.277,33.277-33.277h37.199c-2.253-2.826-5.72-4.642-9.617-4.642h-71.478c-6.793,0-12.3,5.506-12.3,12.3v20.977
	c0,1.291-0.731,2.462-1.871,3.072c-33.997,17.934-57.176,53.643-57.176,94.756c0,55.714,43.142,101.791,97.557,106.66
	C203.254,490.237,171.742,449.665,171.742,402.051z"/>
<polygon style="fill:#43B0FC;" points="303.799,132.615 263.637,266.303 248.184,266.303 208.022,132.615 "/>
<polygon style="fill:#16A3F2;" points="234.151,219.589 248.184,266.303 263.637,266.303 266.218,257.712 "/>
<g>
	<path style="fill:#43B0FC;" d="M368.771,76.86l19.746,55.755h-84.718l-7.726-60.409h66.103
		C365.138,72.207,367.781,74.068,368.771,76.86z"/>
	<path style="fill:#43B0FC;" d="M215.748,71.386l-7.726,60.409h-84.718l19.746-55.755c0.991-2.792,3.633-4.654,6.595-4.654
		C149.645,71.386,215.748,71.386,215.748,71.386z"/>
</g>
<path style="fill:#16A3F2;" d="M123.303,132.615h46.447c-2.098-9.981-1.493-20.514,2.028-30.455l8.96-25.3
	c0.991-2.792,3.633-4.654,6.595-4.654h-37.689c-0.741,0-1.461,0.116-2.141,0.334c-1.02,0.327-1.948,0.884-2.713,1.619
	c-0.51,0.49-0.949,1.062-1.295,1.697c-0.173,0.318-0.322,0.653-0.446,1.002L123.303,132.615L123.303,132.615z"/>
<g>
	<path style="fill:#F8D46E;" d="M327.858,393.406c-0.03-0.52-0.06-1.031-0.1-1.541C327.798,392.375,327.838,392.885,327.858,393.406
		z"/>
	<path style="fill:#F8D46E;" d="M327.598,390.043c-0.06-0.61-0.13-1.211-0.21-1.811
		C327.468,388.832,327.538,389.443,327.598,390.043z"/>
	<path style="fill:#F8D46E;" d="M285.424,331.656c-0.44-0.2-0.871-0.39-1.321-0.57C284.543,331.266,284.984,331.456,285.424,331.656
		z"/>
	<path style="fill:#F8D46E;" d="M282.192,330.295c-0.39-0.15-0.781-0.3-1.181-0.45C281.411,329.995,281.801,330.145,282.192,330.295
		z"/>
	<path style="fill:#F8D46E;" d="M266.879,326.181c-0.59-0.09-1.191-0.18-1.791-0.25
		C265.688,326.001,266.279,326.091,266.879,326.181z"/>
</g>
<g>
	<path style="fill:#7CCAFD;" d="M415.019,232.626c2.272,1.121,1.912,4.434-0.51,5.164c-9.948,3.032-17.014,10.108-21.027,21.487
		c-0.841,2.382-4.233,2.462-5.184,0.12c-4.143-10.318-11.9-17.184-22.768-21.097c-2.312-0.831-2.512-4.023-0.31-5.104
		c10.218-5.014,17.995-12.54,22.979-22.969c1.021-2.142,4.133-2.052,5.044,0.14C397.344,220.246,404.72,227.582,415.019,232.626z"/>
	<path style="fill:#7CCAFD;" d="M433.033,31.464c2.272,1.121,1.912,4.434-0.51,5.164c-9.948,3.032-17.014,10.108-21.027,21.487
		c-0.841,2.382-4.233,2.462-5.184,0.12c-4.143-10.318-11.9-17.184-22.768-21.097c-2.312-0.831-2.512-4.023-0.31-5.104
		c10.218-5.014,17.995-12.54,22.979-22.969c1.021-2.142,4.133-2.052,5.044,0.14C415.359,19.084,422.735,26.42,433.033,31.464z"/>
	<path style="fill:#7CCAFD;" d="M128.788,31.464c2.272,1.121,1.912,4.434-0.51,5.164c-9.948,3.032-17.014,10.108-21.027,21.487
		c-0.841,2.382-4.233,2.462-5.184,0.12c-4.143-10.318-11.9-17.184-22.768-21.097c-2.312-0.831-2.512-4.023-0.31-5.104
		c10.218-5.014,17.995-12.54,22.979-22.969c1.021-2.142,4.133-2.052,5.044,0.14C111.114,19.084,118.49,26.42,128.788,31.464z"/>
</g>
<path d="M255.91,317.845c-40.041,0-73.973,29.933-78.926,69.627c-0.513,4.113,2.405,7.864,6.519,8.378
	c4.114,0.508,7.864-2.405,8.378-6.519c4.017-32.195,31.544-56.475,64.03-56.475c35.594,0,64.552,28.958,64.552,64.552
	s-28.958,64.552-64.552,64.552c-28.61,0-53.427-18.374-61.755-45.722c-1.208-3.965-5.399-6.202-9.367-4.994
	c-3.965,1.208-6.202,5.401-4.994,9.367c4.863,15.972,14.923,30.323,28.327,40.41c13.865,10.435,30.392,15.951,47.789,15.951
	c43.871,0,79.564-35.693,79.564-79.564S299.783,317.845,255.91,317.845z"/>
<path d="M311.455,297.163v-18.559c0-10.747-8.608-19.502-19.289-19.78l102.095-121.38c0.066-0.078,0.513-0.703,0.511-0.703
	c1.294-1.96,1.607-4.414,0.82-6.635l-19.749-55.753c-2.046-5.776-7.538-9.657-13.666-9.657H149.643
	c-6.128,0-11.619,3.881-13.666,9.657l-19.748,55.753c-0.814,2.298-0.461,4.848,0.945,6.839
	c0.037,0.053,102.481,121.879,102.481,121.879c-10.681,0.278-19.289,9.033-19.289,19.78v18.559
	c-36.484,20.238-59.048,58.426-59.048,100.246c0,30.664,12.075,59.525,34.001,81.266c21.697,21.515,50.283,33.328,80.592,33.327
	c0.327,0,0.658-0.001,0.985-0.004c30.402-0.256,58.944-12.29,80.366-33.883c21.435-21.606,33.24-50.268,33.24-80.705
	C370.503,355.59,347.941,317.402,311.455,297.163z M361.815,79.708l16.081,45.398h-67.492l-5.807-45.398H361.815z M222.359,79.708
	h67.103l5.807,45.398h-78.717L222.359,79.708z M296.436,140.117l-7.029,21.8c-1.272,3.945,0.896,8.175,4.841,9.447
	c0.766,0.247,1.541,0.364,2.305,0.364c3.171,0,6.117-2.025,7.143-5.205l8.514-26.406h60.187l-97.599,116.035l19.219-59.604
	c1.272-3.945-0.896-8.176-4.84-9.448c-3.947-1.271-8.176,0.896-9.448,4.84l-21.556,66.856h-4.52l-38.268-118.678H296.436z
	 M150.006,79.708h57.218l-5.807,45.398h-67.492L150.006,79.708z M139.425,140.117h60.187l37.413,116.035L139.425,140.117z
	 M326.605,467.54c-18.616,18.765-43.418,29.222-69.835,29.445c-0.286,0.002-0.568,0.003-0.855,0.003
	c-26.323-0.001-51.163-10.27-70.025-28.974c-19.061-18.901-29.559-43.976-29.559-70.606c0-37.046,20.375-70.812,53.174-88.122
	c0.291-0.154,0.559-0.338,0.833-0.514h24.557c4.145,0,7.506-3.361,7.506-7.506c0-4.145-3.361-7.506-7.506-7.506h-19.516v-15.156
	c0-2.644,2.151-4.795,4.795-4.795h71.477c2.644,0,4.795,2.151,4.795,4.795v15.221h-21.517c-4.145,0-7.506,3.361-7.506,7.506
	c0,4.145,3.361,7.506,7.506,7.506h26.666c0.241,0.152,0.472,0.314,0.727,0.449c32.798,17.311,53.173,51.077,53.173,88.122
	C355.491,423.858,345.232,448.765,326.605,467.54z"/>
<path d="M130.458,43.814c4.106-1.249,6.982-4.816,7.324-9.086c0.338-4.215-1.897-8.141-5.694-10.001
	c-8.868-4.346-14.804-10.365-18.148-18.406c-1.553-3.734-5.175-6.213-9.227-6.318c-4.032-0.086-7.784,2.185-9.525,5.828
	c-4.149,8.689-10.529,15.057-19.506,19.468c-3.71,1.822-5.957,5.666-5.726,9.791c0.231,4.137,2.902,7.715,6.805,9.117
	c9.111,3.274,15.112,8.778,18.344,16.827c1.575,3.922,5.295,6.424,9.518,6.424c0.076,0,0.152-0.001,0.228-0.002
	c4.321-0.092,8.039-2.776,9.474-6.839C117.49,51.648,122.767,46.153,130.458,43.814z M104.314,46.636
	c-3.575-5.137-8.225-9.357-13.914-12.628c5.5-3.846,10.139-8.514,13.879-13.965c3.363,5.14,7.698,9.59,12.974,13.314
	C111.987,36.541,107.664,40.978,104.314,46.636z"/>
<path d="M418.318,225.89c-8.868-4.346-14.804-10.365-18.148-18.406c-1.553-3.734-5.175-6.213-9.227-6.318
	c-4.032-0.093-7.784,2.185-9.525,5.828c-4.149,8.689-10.529,15.057-19.506,19.468c-3.71,1.822-5.957,5.666-5.726,9.791
	c0.231,4.137,2.902,7.715,6.805,9.117c9.111,3.274,15.112,8.778,18.344,16.826c1.575,3.922,5.295,6.424,9.518,6.424
	c0.076,0,0.152-0.001,0.228-0.002c4.322-0.092,8.039-2.776,9.474-6.839c3.165-8.968,8.442-14.465,16.132-16.803
	c4.106-1.249,6.982-4.816,7.324-9.086C424.351,231.675,422.116,227.75,418.318,225.89z M390.545,247.798
	c-3.575-5.137-8.225-9.357-13.914-12.628c5.5-3.846,10.139-8.514,13.879-13.965c3.363,5.14,7.698,9.59,12.974,13.314
	C398.218,237.703,393.895,242.141,390.545,247.798z"/>
<path d="M436.333,24.727c-8.868-4.346-14.804-10.365-18.148-18.406c-1.553-3.734-5.175-6.213-9.227-6.318
	c-4.036-0.086-7.784,2.185-9.525,5.828c-4.149,8.689-10.529,15.057-19.506,19.468c-3.71,1.822-5.957,5.666-5.726,9.791
	c0.231,4.137,2.902,7.715,6.805,9.117c9.111,3.274,15.112,8.778,18.344,16.827c1.575,3.922,5.295,6.424,9.518,6.424
	c0.076,0,0.152-0.001,0.228-0.002c4.322-0.092,8.039-2.776,9.474-6.839c3.165-8.968,8.442-14.465,16.132-16.803
	c4.106-1.249,6.982-4.816,7.324-9.086C442.366,30.513,440.131,26.588,436.333,24.727z M408.559,46.636
	c-3.575-5.137-8.225-9.357-13.914-12.628c5.5-3.846,10.139-8.514,13.879-13.965c3.363,5.14,7.698,9.59,12.974,13.314
	C416.233,36.541,411.909,40.978,408.559,46.636z"/>
<g>
</g>
<g>
</g>
<g>
</g>
<g>
</g>
<g>
</g>
<g>
</g>
<g>
</g>
<g>
</g>
<g>
</g>
<g>
</g>
<g>
</g>
<g>
</g>
<g>
</g>
<g>
</g>
<g>
</g>
</svg>
