<?xml version="1.0" encoding="iso-8859-1"?>
<!-- Generator: Adobe Illustrator 21.0.0, SVG Export Plug-In . SVG Version: 6.00 Build 0)  -->
<svg version="1.1" id="Capa_1" xmlns="http://www.w3.org/2000/svg" xmlns:xlink="http://www.w3.org/1999/xlink" x="0px" y="0px"
	 viewBox="0 0 512.005 512.005" style="enable-background:new 0 0 512.005 512.005;" xml:space="preserve">
<path style="fill:#7CCAFD;" d="M415.942,132.508L349.095,60.7l-5.686,5.296l-55.041,51.978
	c-62.069-34.739-141.978-27.02-196.419,24.407C24.814,205.782,21.8,311.589,85.201,378.724
	c63.401,67.125,169.208,70.138,236.333,6.738c54.991-51.928,66.945-132.307,34.639-196.579l54.601-51.567L415.942,132.508z"/>
<g>
	<path style="fill:#41C2E5;" d="M347.052,112.288l26.644-25.161L349.095,60.7l-5.686,5.296l-54.396,51.368
		c4.247,1.181,8.455,2.533,12.614,4.054C317.325,127.158,334.901,123.763,347.052,112.288z"/>
	<path style="fill:#41C2E5;" d="M143.505,363.902c-63.401-67.135-60.387-172.943,6.748-236.343
		c13.625-12.87,28.845-23.004,44.981-30.418c-37.305,2.551-73.983,17.562-103.284,45.24
		c-67.135,63.401-70.148,169.208-6.748,236.343c50.523,53.492,127.977,66.269,191.325,37.168
		C228.393,419.181,179.219,401.715,143.505,363.902z"/>
</g>
<path style="fill:#F8D46E;" d="M299.557,155.567l-115.636,36.079v13.014l162.122,45.508c1.656,0.465,3.239-0.91,3.034-2.618
	C344.683,210.803,326.369,178.336,299.557,155.567z"/>
<path style="fill:#CEC1E7;" d="M189.446,188.352v18.601c0,1.672-1.862,2.943-3.904,2.673l-24.167-2.513l-0.19,0.02l-1.532-18.711
	l25.889-2.743C187.584,185.409,189.446,186.68,189.446,188.352z"/>
<path style="fill:#EDE6F5;" d="M166.172,207.133l-1.532-18.711l-1.502-18.441c-0.25-3.033-2.783-5.366-5.816-5.366h-17.88
	c-3.033,0-5.566,2.333-5.816,5.366l-9.4,115.158v17.806h48.834v-11.519L166.172,207.133z"/>
<path style="fill:#E0D3F2;" d="M151.223,169.982c0.25-3.033,2.783-5.366,5.816-5.366h-17.598c-3.033,0-5.566,2.333-5.816,5.366
	l-9.4,115.158v17.806h17.598V285.14L151.223,169.982z"/>
<path style="fill:#82DBBA;" d="M302.003,286.572l36.007,6.83c2.488,0.472,4.073,2.947,3.444,5.4
	c-6.492,25.335-19.874,48.068-39.162,66.288c-12.974,12.244-27.931,21.744-44.109,28.181c-16.178,6.437-33.577,9.811-51.407,9.811
	c-38.703,0-74.643-15.487-101.203-43.609c-16.684-17.667-27.825-38.598-33.497-60.618c-0.637-2.473,0.976-4.966,3.49-5.414
	l39.639-7.079c2.993-0.531,6.007-0.941,9.02-1.221c3.484-0.34,6.978-0.501,10.462-0.501c12.424,0,24.808,2.082,36.621,6.217
	c0.581,0.2,1.161,0.4,1.742,0.591c22.505,7.468,46.832,7.518,69.397,0.13l4.385-1.442
	C264.621,284.309,283.603,283.078,302.003,286.572z"/>
<path style="fill:#F8D46E;" d="M468.559,62.172l-45.461-48.134c-9.37-9.911-25.578-8.299-32.806,3.264l-17.249,27.581l-4.06,4.06
	l64.022,64.022l1.905-2.579l28.522-15.637C475.386,88.181,477.919,72.093,468.559,62.172z"/>
<path style="fill:#F7C852;" d="M392.925,72.885l4.06-4.06l17.249-27.581c6.059-9.692,18.424-12.388,27.786-7.171l-18.922-20.035
	c-9.37-9.911-25.578-8.299-32.806,3.264l-17.249,27.581l-4.06,4.06l64.022,64.022l0,0L392.925,72.885z"/>
<path style="fill:#358DCD;" d="M432.849,108.203c6.838,7.238,6.507,18.641-0.731,25.478c-3.484,3.284-7.929,4.915-12.364,4.915
	c-4.785,0-9.561-1.892-13.105-5.646l-59.116-62.59c-6.838-7.238-6.507-18.641,0.721-25.478c3.484-3.284,7.929-4.915,12.374-4.915
	c4.785,0,9.551,1.892,13.095,5.636L432.849,108.203z"/>
<path style="fill:#366FCC;" d="M429.213,134.562l-59.116-62.59c-6.838-7.238-6.507-18.641,0.721-25.478
	c0.66-0.622,1.364-1.166,2.086-1.67c-3.443-3.214-7.845-4.857-12.277-4.857c-4.445,0-8.89,1.632-12.374,4.915
	c-7.228,6.838-7.558,18.24-0.721,25.478l59.116,62.59c3.544,3.754,8.319,5.646,13.105,5.646c3.596,0,7.19-1.092,10.282-3.25
	C429.759,135.089,429.476,134.841,429.213,134.562z"/>
<path style="fill:#17C178;" d="M302.021,351.244l11.333,2.152c-3.424,4.075-7.108,7.979-11.042,11.693
	c-12.974,12.244-27.931,21.744-44.109,28.181c-16.178,6.437-33.577,9.811-51.407,9.811c-38.703,0-74.643-15.487-101.203-43.609
	c-1.782-1.892-3.504-3.814-5.166-5.776l0.02-0.02l14.776-2.633c6.467-1.151,12.984-1.732,19.502-1.732
	c12.424,0,24.798,2.092,36.601,6.227c22.996,8.049,47.993,8.299,71.139,0.711l4.385-1.432
	C264.639,348.981,283.621,347.76,302.021,351.244z"/>
<path style="fill:#4ACE99;" d="M302.021,318.908l30.023,5.696c-4.976,10.301-11.222,19.952-18.691,28.792l-11.333-2.152
	c-18.401-3.484-37.382-2.263-55.171,3.574l-4.385,1.432c-23.146,7.588-48.144,7.338-71.139-0.711
	c-11.803-4.135-24.177-6.227-36.601-6.227c-6.517,0-13.035,0.581-19.502,1.732l-14.776,2.633l-0.02,0.02
	c-7.659-9.07-13.976-18.881-18.941-29.172l2.423-0.23l31.315-5.596c6.457-1.151,12.974-1.722,19.482-1.722
	c12.424,0,24.808,2.082,36.621,6.227c22.996,8.049,47.993,8.299,71.139,0.711l4.385-1.442
	C264.639,316.645,283.621,315.414,302.021,318.908z"/>
<polygon style="fill:#FE4583;" points="166.931,216.173 169.544,248.209 127.257,248.209 129.869,216.173 "/>
<polygon style="fill:#EA2D88;" points="147.452,216.173 129.869,216.173 127.257,248.209 144.837,248.209 "/>
<path style="fill:#29D7FF;" d="M475.977,447.27c-11.733,6.357-25.949,6.537-37.852,0.481l-13.075-6.647
	c-11.903-6.057-26.119-5.877-37.852,0.481l-10.532,5.686c-11.733,6.357-25.949,6.537-37.852,0.481l-13.075-6.647
	c-11.903-6.057-26.119-5.877-37.852,0.481l-10.532,5.686c-11.733,6.357-25.949,6.537-37.852,0.481l-13.075-6.647
	c-11.903-6.057-26.119-5.877-37.852,0.481l-10.532,5.686c-11.733,6.357-25.949,6.537-37.852,0.481l-13.075-6.647
	c-11.903-6.057-26.119-5.877-37.852,0.481l-10.532,5.686c-11.733,6.357-25.949,6.537-37.852,0.481l-28.648-14.117
	c-2.078-1.024-4.509,0.489-4.509,2.805v27.009v37.919c0,1.727,1.4,3.126,3.126,3.126h490.299c1.727,0,3.126-1.4,3.126-3.126v-37.919
	v-26.7c0-2.389-2.571-3.895-4.655-2.728L475.977,447.27z"/>
<path style="fill:#00F4CB;" d="M239.503,447.751c11.903,6.057,26.119,5.877,37.852-0.481l10.532-5.686
	c11.733-6.357,25.949-6.537,37.852-0.481l13.075,6.647c11.903,6.057,26.119,5.877,37.852-0.481l10.532-5.686
	c11.733-6.357,25.949-6.537,37.852-0.481l13.075,6.647c11.903,6.057,26.119,5.877,37.852-0.481l23.646-13.25
	c2.084-1.168,4.655,0.338,4.655,2.728v26.7l-28.302,15.858c-11.733,6.357-25.949,6.537-37.852,0.481l-13.075-6.647
	c-11.903-6.057-26.119-5.877-37.852,0.481l-10.532,5.686c-11.733,6.357-25.949,6.537-37.852,0.481l-13.075-6.647
	c-11.903-6.057-26.119-5.877-37.852,0.481l-10.532,5.686c-11.733,6.357-25.949,6.537-37.852,0.481l-13.075-6.647
	c-11.903-6.057-26.119-5.877-37.852,0.481l-10.532,5.686c-11.733,6.357-25.949,6.537-37.852,0.481l-13.075-6.647
	c-11.903-6.057-26.119-5.877-37.852,0.481l-10.532,5.686c-11.733,6.357-25.949,6.537-37.852,0.481L7.725,463.449v-27.01
	c0-2.317,2.431-3.828,4.509-2.805l28.648,14.117c11.903,6.057,26.119,5.877,37.852-0.481l10.532-5.686
	c11.733-6.357,25.949-6.537,37.852-0.481l13.075,6.647c11.903,6.057,26.119,5.877,37.852-0.481l10.532-5.686
	c11.733-6.357,25.949-6.537,37.852-0.481L239.503,447.751z"/>
<path d="M307.447,370.546c4.11-3.881,7.966-7.973,11.567-12.246c0.093-0.108,0.183-0.218,0.27-0.331
	c7.599-9.069,14.022-18.972,19.182-29.517c0.206-0.345,0.389-0.707,0.541-1.089c4.781-9.981,8.439-20.524,10.865-31.481
	c0.438-1.982,0.056-4.059-1.062-5.754c-1.117-1.695-2.874-2.866-4.869-3.245l-40.537-7.693c-19.593-3.718-39.964-2.401-58.914,3.811
	l-4.383,1.437c-19.352,6.343-40.405,6.751-59.985,1.299l-5.716-69.994l10.136,1.33c0.515,0.067,1.028,0.101,1.539,0.101
	c2.745,0,5.383-0.964,7.413-2.745c0.331-0.29,0.633-0.605,0.92-0.929l68.761,20.685c0.722,0.217,1.45,0.32,2.166,0.32
	c3.228,0,6.21-2.097,7.187-5.347c1.194-3.971-1.056-8.158-5.027-9.353l-70.568-21.228v-2.851l101.106-30.415
	c3.97-1.194,6.222-5.382,5.027-9.353c-1.194-3.97-5.381-6.224-9.353-5.027l-100.058,30.1c-0.055-0.051-0.104-0.107-0.16-0.156
	c-2.407-2.111-5.669-3.078-8.951-2.644l-13.061,1.714l-0.864-10.575c-0.562-6.877-6.404-12.263-13.304-12.263h-17.871
	c-6.9,0-12.743,5.386-13.304,12.263l-8.906,109.057c-1.117,0.166-2.233,0.343-3.347,0.542l-44.235,7.9
	c-2.013,0.359-3.793,1.525-4.927,3.227c-1.134,1.702-1.526,3.793-1.083,5.789c5.709,25.753,18.321,49.524,36.475,68.744
	c27.99,29.636,65.867,45.957,106.659,45.958C244.358,410.586,280.11,396.366,307.447,370.546z M136.774,223.682h23.215l1.39,17.019
	h-25.995L136.774,223.682z M181.919,193.72v7.863l-8.762-1.15l-0.45-5.504L181.919,193.72z M140.985,172.124h14.794l2.984,36.541
	h-20.763L140.985,172.124z M134.158,255.717h28.448l2.065,25.288c-10.531-2.754-21.399-4.052-32.264-3.845L134.158,255.717z
	 M116.53,293.752c17.466-3.121,35.553-1.67,52.3,4.194c0.691,0.242,1.391,0.453,2.085,0.682c0.013,0.004,0.025,0.009,0.039,0.013
	c23.845,7.837,49.967,7.89,73.831,0.067l4.383-1.437c16.544-5.422,34.332-6.573,51.437-3.327l32.709,6.207
	c-1.552,5.464-3.459,10.795-5.69,15.975l-24.22-4.596c-19.593-3.717-39.964-2.401-58.914,3.811l-4.383,1.437
	c-19.778,6.482-40.823,6.847-60.86,1.055c-3.985-1.151-8.147,1.145-9.298,5.128c-1.151,3.983,1.144,8.147,5.128,9.298
	c10.809,3.124,21.872,4.684,32.923,4.684c12.409,0,24.801-1.967,36.784-5.896l4.383-1.437c16.544-5.423,34.332-6.572,51.437-3.327
	l19.98,3.791c-3.057,5.255-6.485,10.3-10.266,15.106l-6.914-1.312c-19.593-3.717-39.964-2.4-58.915,3.811l-4.382,1.437
	c-21.454,7.033-45.006,6.796-66.316-0.666c-19.182-6.715-39.896-8.376-59.903-4.804l-10.457,1.867
	c-3.82-4.837-7.278-9.932-10.371-15.233l23.466-4.191c9.825-1.755,19.837-2.076,29.758-0.955c4.127,0.47,7.839-2.497,8.303-6.618
	c0.466-4.121-2.498-7.838-6.618-8.303c-11.364-1.284-22.829-0.915-34.083,1.094l-27.904,4.984
	c-2.258-5.214-4.19-10.573-5.755-16.057L116.53,293.752z M115.322,358.646l1.207-0.215c17.469-3.12,35.553-1.669,52.301,4.194
	c12.583,4.406,25.848,6.611,39.116,6.611c12.467,0,24.936-1.948,36.84-5.85l4.382-1.437c15.878-5.204,32.9-6.461,49.366-3.686
	c-0.467,0.453-0.923,0.916-1.398,1.365c-24.538,23.177-56.628,35.941-90.364,35.941
	C172.201,395.568,139.962,382.499,115.322,358.646z"/>
<path d="M282.587,232.184c-1.194,3.971,1.056,8.158,5.027,9.353l49.35,14.846c0.722,0.217,1.45,0.32,2.166,0.32
	c3.228,0,6.21-2.097,7.187-5.347c1.194-3.971-1.056-8.158-5.027-9.353l-49.35-14.846
	C287.97,225.963,283.783,228.213,282.587,232.184z"/>
<path d="M511.787,463.329v-31.917c0-2.666-1.414-5.131-3.713-6.478c-2.3-1.348-5.141-1.375-7.466-0.071l-28.247,15.833
	c-9.592,5.168-21.113,5.304-30.831,0.362l-13.076-6.648c-14.131-7.186-30.89-6.975-44.83,0.566l-10.528,5.694
	c-9.601,5.193-21.145,5.338-30.878,0.387l-13.076-6.648c-14.131-7.186-30.89-6.975-44.83,0.566l-10.527,5.694
	c-9.601,5.193-21.145,5.338-30.878,0.387l-9.088-4.621c33.721-5.244,66.25-20.364,92.876-45.513
	c27.871-26.324,45.956-60.17,52.3-97.877c5.823-34.615,0.966-70.78-13.672-102.479l47.957-45.295
	c1.855,0.482,3.775,0.764,5.737,0.82c0.25,0.007,0.499,0.011,0.748,0.011c6.541,0,12.734-2.46,17.51-6.97
	c7.098-6.703,9.49-16.544,7.068-25.36l22.695-12.448c7.755-4.254,12.991-11.704,14.367-20.442
	c1.376-8.738-1.319-17.436-7.392-23.867L428.553,8.884c-6.074-6.43-14.605-9.618-23.406-8.742
	c-8.802,0.875-16.538,5.677-21.228,13.178l-13.245,21.186c-2.911-1.244-6.057-1.948-9.316-2.041
	c-6.811-0.198-13.3,2.278-18.257,6.96c-6.626,6.259-9.15,15.253-7.485,23.594l-48.461,45.772
	c-30.687-15.877-66.233-22.399-100.724-18.387c-37.595,4.371-72.05,20.457-99.642,46.516
	c-33.924,32.041-53.339,75.374-54.67,122.018c-1.33,46.644,15.58,91.014,47.621,124.937c28.122,29.775,64.306,47.453,102.002,52.864
	l-7.267,3.931c-9.601,5.193-21.145,5.338-30.878,0.387l-13.076-6.648c-14.132-7.186-30.89-6.975-44.83,0.566l-10.527,5.694
	c-9.6,5.193-21.144,5.339-30.963,0.345l-33.157-16.338c-2.328-1.147-5.082-1.011-7.284,0.359c-2.203,1.371-3.543,3.781-3.543,6.376
	v73.081c0,4.147,3.362,7.508,7.508,7.508s7.508-3.362,7.508-7.508v-28.976l22.246,10.961c14.131,7.187,30.889,6.976,44.83-0.565
	l10.527-5.694c9.6-5.193,21.145-5.339,30.878-0.387l13.076,6.647c6.88,3.499,14.382,5.244,21.878,5.244
	c7.903,0,15.799-1.939,22.952-5.808l10.528-5.694c9.6-5.193,21.145-5.339,30.878-0.387l13.076,6.647
	c14.131,7.187,30.889,6.976,44.83-0.565l10.527-5.694c9.6-5.193,21.144-5.338,30.879-0.387l13.076,6.647
	c14.13,7.186,30.888,6.975,44.829-0.565l10.528-5.694c9.601-5.193,21.145-5.339,30.878-0.387l13.076,6.647
	c14.132,7.187,30.889,6.975,44.83-0.565c0.033-0.018,0.066-0.036,0.099-0.054l17.12-9.596v28.229c0,4.147,3.362,7.508,7.508,7.508
	s7.508-3.362,7.508-7.508v-41.129C511.787,463.352,511.787,463.341,511.787,463.329z M396.653,21.283
	c2.204-3.526,5.841-5.783,9.979-6.195c4.137-0.414,8.148,1.085,11.004,4.11l45.461,48.132c2.856,3.023,4.123,7.113,3.476,11.22
	c-0.647,4.108-3.107,7.61-6.754,9.611l-23.433,12.852l-53.9-57.068L396.653,21.283z M353.413,50.343
	c1.966-1.857,4.516-2.869,7.21-2.869c0.102,0,0.205,0.001,0.308,0.004c2.806,0.08,5.414,1.249,7.341,3.291l59.118,62.592l0,0
	c1.927,2.041,2.944,4.71,2.865,7.517c-0.08,2.806-1.248,5.414-3.29,7.342c-2.041,1.927-4.709,2.934-7.517,2.865
	c-2.806-0.08-5.414-1.248-7.341-3.29l0,0L352.99,65.203l0,0C349.008,60.987,349.2,54.322,353.413,50.343z M90.658,373.564
	c-29.287-31.008-44.745-71.564-43.528-114.197c1.217-42.634,18.963-82.243,49.972-111.529c25.22-23.821,56.71-38.523,91.064-42.517
	c6.074-0.707,12.18-1.055,18.285-1.055c27.295,0,54.531,6.982,78.253,20.259c0.012,0.007,0.025,0.011,0.037,0.017
	c8.254,4.622,16.15,10.027,23.468,16.065c1.4,1.154,3.091,1.717,4.774,1.717c2.164,0,4.312-0.931,5.796-2.73
	c2.639-3.199,2.185-7.931-1.013-10.57c-5.414-4.467-11.122-8.608-17.04-12.392l42.377-40.026l12.193,12.909l44.863,47.499
	l-42.034,39.7c-2.653-4.596-5.5-9.094-8.554-13.418c-2.393-3.388-7.077-4.193-10.465-1.801c-3.387,2.393-4.194,7.077-1.801,10.465
	c4.302,6.091,12.052,20.073,12.163,20.295c15.102,30.045,20.33,64.957,14.719,98.303c-5.797,34.457-22.328,65.389-47.803,89.451
	C252.374,440.464,151.113,437.573,90.658,373.564z M472.359,472.732c-9.592,5.168-21.113,5.304-30.831,0.362l-13.076-6.648
	c-14.132-7.186-30.891-6.975-44.83,0.566l-10.528,5.694c-9.601,5.192-21.145,5.338-30.878,0.387l-13.076-6.648
	c-14.132-7.186-30.89-6.974-44.83,0.566l-10.527,5.694c-9.601,5.192-21.145,5.339-30.878,0.387l-13.076-6.648
	c-14.132-7.186-30.89-6.975-44.83,0.566l-10.528,5.694c-9.602,5.193-21.145,5.337-30.878,0.387l-13.076-6.648
	c-14.131-7.186-30.89-6.974-44.83,0.566l-10.527,5.694c-9.6,5.194-21.144,5.339-30.963,0.345l-28.967-14.274v-15.295l22.246,10.961
	c14.131,7.185,30.889,6.975,44.83-0.566l10.527-5.694c9.6-5.193,21.145-5.339,30.878-0.387l13.076,6.648
	c14.131,7.185,30.889,6.975,44.83-0.566l10.528-5.694c9.6-5.193,21.145-5.339,30.878-0.387l13.076,6.648
	c14.131,7.185,30.889,6.975,44.83-0.566l10.527-5.694c9.6-5.193,21.144-5.339,30.879-0.387l13.076,6.648
	c14.132,7.186,30.89,6.975,44.829-0.566l10.528-5.694c9.6-5.193,21.145-5.339,30.878-0.387l13.076,6.648
	c14.132,7.186,30.889,6.975,44.83-0.566c0.033-0.018,0.066-0.036,0.099-0.054l17.12-9.596v14.82L472.359,472.732z"/>
<g>
</g>
<g>
</g>
<g>
</g>
<g>
</g>
<g>
</g>
<g>
</g>
<g>
</g>
<g>
</g>
<g>
</g>
<g>
</g>
<g>
</g>
<g>
</g>
<g>
</g>
<g>
</g>
<g>
</g>
</svg>
