<?xml version="1.0" encoding="iso-8859-1"?>
<!-- Generator: Adobe Illustrator 21.0.0, SVG Export Plug-In . SVG Version: 6.00 Build 0)  -->
<svg version="1.1" id="Capa_1" xmlns="http://www.w3.org/2000/svg" xmlns:xlink="http://www.w3.org/1999/xlink" x="0px" y="0px"
	 viewBox="0 0 512.001 512.001" style="enable-background:new 0 0 512.001 512.001;" xml:space="preserve">
<path style="fill:#00F4CB;" d="M397.275,496.279c1.422,4.005-1.542,8.211-5.798,8.211H122.523c-4.256,0-7.219-4.206-5.798-8.211
	l43.057-121.37c0.871-2.453,3.194-4.095,5.798-4.095h59.659h63.143h60.039c2.603,0,4.927,1.642,5.798,4.095L397.275,496.279z"/>
<path style="fill:#03E59A;" d="M388.47,471.462H187.722c-4.256,0-7.22-4.206-5.798-8.211l32.792-92.437h-49.138
	c-2.603,0-4.926,1.642-5.798,4.095l-43.057,121.37c-1.422,4.005,1.542,8.211,5.798,8.211h268.954c4.256,0,7.219-4.206,5.798-8.211
	L388.47,471.462z"/>
<path style="fill:#B2D66C;" d="M335.721,397.646l27.743,78.207c0.624,1.758-0.681,3.605-2.546,3.605H153.084
	c-1.865,0-3.17-1.846-2.546-3.605l27.743-78.207c0.383-1.078,1.402-1.798,2.546-1.798h53.124h45.73h53.494
	C334.319,395.847,335.339,396.568,335.721,397.646z"/>
<g>
	<path style="fill:#FECF54;" d="M191.764,395.847l77.492,83.61h-32.763l-28.718-30.981l-33.414,30.981h-21.279
		c-1.865,0-3.17-1.846-2.546-3.605l3.739-10.544l37.169-34.455L173.4,411.387l4.879-13.743c0.383-1.077,1.403-1.797,2.546-1.797
		L191.764,395.847L191.764,395.847z"/>
	<path style="fill:#FECF54;" d="M363.462,475.852l-4.989-14.059l-65.957-65.947H279.68c-0.166,0-9.913,0-9.913,0v11.235
		l72.375,72.375h18.775C362.783,479.457,364.087,477.61,363.462,475.852z"/>
</g>
<path style="fill:#EDE6F5;" d="M400.69,152.196c0,49.385-24.733,92.982-62.492,119.097c-13.187,9.112-23.241,22.089-28.447,37.249
	l-29.249,85.232c-1.732,5.057-4.987,9.292-9.132,12.256c-4.155,2.964-9.202,4.666-14.559,4.666
	c-10.694,0-20.217-6.799-23.691-16.922l-28.558-83.23c-5.307-15.45-15.35-28.928-28.928-38.02
	c-39.011-26.104-64.615-70.663-64.325-121.19C111.779,71.36,177.886,6.514,257.851,7.525
	C336.906,8.517,400.69,72.912,400.69,152.196z"/>
<path style="fill:#E0D3F2;" d="M268.773,310.545c-5.307-15.45-15.35-28.928-28.928-38.02
	c-39.011-26.104-64.615-70.663-64.325-121.19c0.403-68.338,48.731-125.618,112.677-140.215c-9.777-2.222-19.927-3.465-30.346-3.595
	C177.886,6.515,111.779,71.36,111.309,151.336c-0.29,50.527,25.313,95.085,64.325,121.19c13.578,9.092,23.621,22.57,28.928,38.02
	l28.558,83.23c3.475,10.123,12.997,16.922,23.691,16.922c5.357,0,10.404-1.702,14.559-4.666c4.145-2.964,7.4-7.199,9.132-12.256
	l8.415-24.522L268.773,310.545z"/>
<path id="SVGCleanerId_0" style="fill:#FE4583;" d="M257.851,7.525C182.382,6.574,119.249,64.28,112.009,138.007h287.989h0.01
	C392.929,65.362,332.129,8.457,257.851,7.525z"/>
<g>
	<path id="SVGCleanerId_0_1_" style="fill:#FE4583;" d="M257.851,7.525C182.382,6.574,119.249,64.28,112.009,138.007h287.989h0.01
		C392.929,65.362,332.129,8.457,257.851,7.525z"/>
</g>
<path style="fill:#FC3268;" d="M285.969,10.631c-9.089-1.915-18.488-2.984-28.118-3.104
	c-75.469-0.951-138.602,56.755-145.842,130.482h64.209C182.02,75.939,225.906,24.947,285.969,10.631z"/>
<path style="fill:#AB9DD6;" d="M306.045,138.007H205.953h-93.942c-0.432,4.39-0.677,8.834-0.703,13.328
	c-0.025,4.283,0.152,8.517,0.492,12.707h93.542h101.313h93.539c0.316-3.908,0.495-7.855,0.495-11.846
	c0-4.787-0.238-9.52-0.692-14.189H306.045z"/>
<path style="fill:#A095CE;" d="M176.218,138.007h-64.207c-0.432,4.39-0.677,8.834-0.703,13.328
	c-0.025,4.283,0.152,8.517,0.492,12.707h64.201c-0.358-4.19-0.544-8.424-0.518-12.707
	C175.511,146.842,175.762,142.397,176.218,138.007z"/>
<path style="fill:#4F4F74;" d="M205.933,138.007c6.178-21.829,26.255-37.83,50.066-37.83c23.811,0,43.888,16.001,50.066,37.83
	c1.282,4.506,1.963,9.272,1.963,14.189c0,4.075-0.471,8.041-1.352,11.846c-5.367,23.03-26.024,40.183-50.677,40.183
	s-45.31-17.153-50.677-40.183c-0.881-3.805-1.352-7.77-1.352-11.846C203.971,147.279,204.651,142.513,205.933,138.007z"/>
<circle style="fill:#32314B;" cx="255.996" cy="152.2" r="22.029"/>
<path style="fill:#27273D;" d="M250.943,149.024c0-7.649,3.9-14.385,9.818-18.334c-1.534-0.338-3.126-0.522-4.762-0.522
	c-12.166,0-22.029,9.863-22.029,22.029c0,12.166,9.863,22.029,22.029,22.029c4.517,0,8.715-1.362,12.211-3.695
	C258.334,168.353,250.943,159.554,250.943,149.024z"/>
<path d="M255.999,122.662c-16.288,0-29.539,13.251-29.539,29.539s13.25,29.539,29.539,29.539s29.539-13.251,29.539-29.539
	S272.287,122.662,255.999,122.662z M255.999,166.72c-8.006,0-14.519-6.514-14.519-14.519c0-8.006,6.514-14.519,14.519-14.519
	s14.519,6.514,14.519,14.519C270.518,160.206,264.005,166.72,255.999,166.72z"/>
<path d="M361.297,372.399c-1.929-5.44-7.102-9.095-12.873-9.095H298.9l6.208-18.089c1.347-3.922-0.742-8.195-4.665-9.541
	c-3.926-1.347-8.196,0.744-9.541,4.665l-17.504,51.001c-2.431,7.083-9.096,11.843-16.585,11.843
	c-7.489,0-14.155-4.759-16.585-11.843l-28.566-83.23c-5.893-17.171-17.204-32.024-31.85-41.825
	c-32.793-21.943-54.186-56.407-59.616-94.734h79.518c8.052,23.353,30.234,40.182,56.287,40.182s48.236-16.829,56.287-40.182h79.507
	c-5.358,37.571-26.138,71.62-57.866,93.56c-14.758,10.205-25.574,24.382-31.276,40.996l-1.439,4.192
	c-1.347,3.923,0.742,8.195,4.665,9.541c3.922,1.347,8.195-0.742,9.541-4.665l1.439-4.192c4.654-13.56,13.511-25.149,25.613-33.518
	c37.659-26.043,61.419-67.465,65.188-112.601c0.008-0.071,0.011-0.142,0.016-0.214c0.338-4.123,0.526-8.275,0.526-12.45
	c0-40.314-15.605-78.307-43.94-106.979c-28.31-28.648-66.066-44.703-106.31-45.209c-40.757-0.518-79.234,15.015-108.469,43.716
	c-29.218,28.684-45.441,66.883-45.679,107.56c-0.301,51.275,24.991,98.932,67.656,127.482c11.932,7.983,21.164,20.135,25.996,34.217
	l17.27,50.318h-49.148c-5.772,0-10.945,3.655-12.873,9.094l-43.059,121.376c-1.481,4.176-0.839,8.829,1.716,12.447
	c2.556,3.619,6.728,5.779,11.159,5.779h268.961c4.431,0,8.602-2.161,11.159-5.779c2.555-3.619,3.197-8.272,1.716-12.447
	L361.297,372.399z M255.999,196.715c-24.545,0-44.514-19.968-44.514-44.514s19.968-44.514,44.514-44.514
	s44.514,19.968,44.514,44.514S280.544,196.715,255.999,196.715z M315.358,156.532c0.103-1.432,0.174-2.873,0.174-4.332
	c0-2.26-0.138-4.488-0.385-6.683h77.872c0.106,2.219,0.16,4.447,0.16,6.683c0,1.447-0.025,2.891-0.07,4.332H315.358z
	 M160.004,54.445c26.359-25.879,61.099-39.894,97.757-39.415c36.272,0.457,70.3,14.927,95.816,40.748
	c20.381,20.624,33.445,46.601,37.894,74.719h-80.051c-8.694-22.122-30.25-37.831-55.42-37.831s-46.726,15.709-55.42,37.831h-24.435
	c-4.148,0-7.51,3.362-7.51,7.51s3.361,7.51,7.51,7.51h20.706c-0.246,2.196-0.385,4.423-0.385,6.683c0,1.458,0.071,2.899,0.174,4.332
	h-77.743c-0.054-1.714-0.086-3.433-0.076-5.157c0.011-1.96,0.073-3.911,0.166-5.858h27.117c4.148,0,7.51-3.362,7.51-7.51
	s-3.361-7.51-7.51-7.51h-25.57C125.11,101.79,138.735,75.326,160.004,54.445z M345.253,471.947l-64.388-64.387
	c1.19-1.305,2.282-2.706,3.253-4.204h5.288l62.573,62.573l2.135,6.017H345.253z M310.649,403.357h19.133l10.52,29.653
	L310.649,403.357z M256.812,418.202c3.969,0,7.804-0.742,11.377-2.077l55.822,55.821h-51.474l-63.576-68.59h20.542
	C235.41,412.462,245.611,418.202,256.812,418.202z M239.77,471.947l-26.482-28.571c-1.355-1.461-3.233-2.324-5.224-2.399
	c-1.983-0.066-3.929,0.643-5.39,1.997l-31.259,28.974h-11.53l0.846-2.384l35.817-33.199c3.042-2.82,3.222-7.571,0.403-10.613
	l-14.954-16.134l2.221-6.261h4.263l63.576,68.59H239.77z M219.291,471.947h-25.78l13.866-12.853L219.291,471.947z M176.329,425.597
	l4.502,4.856l-9.274,8.596L176.329,425.597z M124.444,496.98l42.094-118.656h53.341l3.437,10.013h-44.4c-3.18,0-6.015,2.003-7.077,5
	l-5.539,15.616c-0.005,0.015-0.011,0.03-0.016,0.045l-19.116,53.887c-0.003,0.009-0.006,0.017-0.009,0.026l-4.98,14.038
	c-0.815,2.299-0.464,4.85,0.943,6.843c1.407,1.993,3.694,3.177,6.134,3.177h215.493c2.44,0,4.727-1.185,6.134-3.177
	s1.759-4.544,0.943-6.843l-29.661-83.61c-1.063-2.997-3.898-5-7.077-5h-44.778l3.437-10.013h53.719l42.094,118.656H124.444V496.98z"
	/>
<g>
</g>
<g>
</g>
<g>
</g>
<g>
</g>
<g>
</g>
<g>
</g>
<g>
</g>
<g>
</g>
<g>
</g>
<g>
</g>
<g>
</g>
<g>
</g>
<g>
</g>
<g>
</g>
<g>
</g>
</svg>
