<?xml version="1.0" encoding="iso-8859-1"?>
<!-- Generator: Adobe Illustrator 21.0.0, SVG Export Plug-In . SVG Version: 6.00 Build 0)  -->
<svg version="1.1" id="Capa_1" xmlns="http://www.w3.org/2000/svg" xmlns:xlink="http://www.w3.org/1999/xlink" x="0px" y="0px"
	 viewBox="0 0 512 512" style="enable-background:new 0 0 512 512;" xml:space="preserve">
<path style="fill:#B2D66C;" d="M328.859,295.5h-24.098c-18.027,0-32.846,13.723-34.587,31.292h-27.346
	c-1.741-17.569-16.56-31.292-34.587-31.292h-24.098c-4.496,0-8.142,3.645-8.142,8.142v11.098c0,19.198,15.563,34.76,34.76,34.76
	h17.915h14.325h27h4.514h27.726c19.198,0,34.76-15.563,34.76-34.76v-11.098C337.001,299.145,333.356,295.5,328.859,295.5z"/>
<g>
	<path style="fill:#8FD650;" d="M321.597,295.5h-16.836c-18.027,0-32.846,13.723-34.587,31.292h16.835
		C288.75,309.223,303.57,295.5,321.597,295.5z"/>
	<path style="fill:#8FD650;" d="M192.837,314.74v-11.098c0-4.497,3.645-8.142,8.142-8.142h-16.835c-4.496,0-8.142,3.645-8.142,8.142
		v11.098c0,19.198,15.563,34.76,34.76,34.76h16.835C208.399,349.5,192.837,333.938,192.837,314.74z"/>
</g>
<rect x="241.751" y="204.61" style="fill:#F8D46E;" width="28" height="173.78"/>
<path style="fill:#F7C852;" d="M255.751,204.61h-14v49.192v124.589h14V254.512c0.083,0,0.167,0.003,0.25,0.003
	c4.64,0,9.225-0.231,13.75-0.669V204.61H255.751z"/>
<rect x="168.001" y="386" style="fill:#4ACE99;" width="178" height="118.5"/>
<path style="fill:#38C689;" d="M271.737,423.764h74.264V386h-178v118.5h23l0,0C191.001,459.911,227.148,423.764,271.737,423.764z"/>
<path style="fill:#FE4583;" d="M397.001,53.47V92.5c0,38.94-15.78,74.18-41.3,99.7s-60.76,41.3-99.7,41.3
	c-77.87,0-141-63.13-141-141V53.47l132.74,87.55c2.51,1.65,5.38,2.48,8.26,2.48c2.88,0,5.75-0.83,8.26-2.48L397.001,53.47z"/>
<path style="fill:#FC3268;" d="M157.335,92.5V81.392L115.001,53.47V92.5c0,77.87,63.13,141,141,141
	c7.195,0,14.263-0.542,21.168-1.582C209.34,221.706,157.335,163.176,157.335,92.5z"/>
<path style="fill:#EDE6F5;" d="M194.001,174.5c0,14.12-5.98,26.83-15.53,35.78c-27.59-18.19-48.41-45.81-57.86-78.28h0.01
	c7.18-4.13,15.5-6.5,24.38-6.5C172.061,125.5,194.001,147.44,194.001,174.5z"/>
<path style="fill:#E0D3F2;" d="M178.471,210.28c7.081-6.636,12.193-15.343,14.365-25.156
	c-14.183-16.108-24.763-35.317-30.493-56.455c-1.637-0.62-3.313-1.162-5.028-1.606c-0.095-0.024-0.19-0.046-0.284-0.069
	c-0.502-0.127-1.01-0.239-1.518-0.35c-0.557-0.118-1.115-0.233-1.679-0.333c-0.053-0.01-0.107-0.019-0.16-0.029
	c-2.862-0.5-5.808-0.764-8.814-0.776c-8.826,0.025-17.096,2.387-24.238,6.495h-0.01C130.061,164.47,150.881,192.09,178.471,210.28z"
	/>
<g>
	<path style="fill:#EDE6F5;" d="M391.661,131.06c-6.65,23.44-19.2,44.38-35.96,61.14c-6.41,6.41-13.44,12.21-20.98,17.3
		c-9.08-8.9-14.72-21.29-14.72-35c0-27.06,21.94-49,49-49C377.181,125.5,384.881,127.51,391.661,131.06z"/>
	<circle style="fill:#EDE6F5;" cx="257.001" cy="188.5" r="23"/>
	<path style="fill:#EDE6F5;" d="M386.301,24.59L353.707,9.245c-1.675-0.789-3.584,0.497-3.484,2.345l1.919,35.531l0.328,2.805
		l35.301-22.813L386.301,24.59z"/>
	<path style="fill:#EDE6F5;" d="M351.371,47.62l-32.664-15.376c-1.675-0.788-3.584,0.497-3.484,2.345l1.929,35.61l1.772,2.432
		l33.267-23.261L351.371,47.62z"/>
	<path style="fill:#EDE6F5;" d="M283.707,55.245c-1.675-0.789-3.584,0.497-3.485,2.345l1.929,35.69l1.171,1.707l32.258-21.071
		l0.871-3.256L283.707,55.245z"/>
</g>
<g>
	<path style="fill:#E0D3F2;" d="M361.02,12.688l-7.314-3.443c-1.675-0.789-3.584,0.497-3.484,2.345l1.919,35.531l0.328,2.805
		l10.206-6.595L361.02,12.688z"/>
	<path style="fill:#E0D3F2;" d="M326.021,35.688l-7.314-3.443c-1.675-0.788-3.584,0.497-3.484,2.345l1.929,35.61l1.772,2.432
		l8.767-6.13L326.021,35.688z"/>
	<path style="fill:#E0D3F2;" d="M291.021,58.688l-7.314-3.443c-1.675-0.789-3.584,0.497-3.485,2.345l1.929,35.69l1.171,1.707
		l9.331-6.095L291.021,58.688z"/>
</g>
<g>
	<path style="fill:#EDE6F5;" d="M230.106,55.245L196.622,71.01l-2.579,2.578l36.998,22.173l0.48-1.251l0.08-0.12l1.989-36.8
		C233.691,55.742,231.781,54.456,230.106,55.245z"/>
	<path style="fill:#EDE6F5;" d="M195.106,32.245L161.622,48.01l-3.961,3.961l37.805,21.791l1.136-2.372l0.02-0.38l1.969-36.42
		C198.691,32.742,196.781,31.456,195.106,32.245z"/>
	<path style="fill:#EDE6F5;" d="M160.106,9.245L126.342,25.14l-3.303,3.303l36.246,23.286l2.317-3.339l0.02-0.38l1.969-36.42
		C163.691,9.742,161.781,8.456,160.106,9.245z"/>
</g>
<g>
	<path style="fill:#E0D3F2;" d="M232.869,70.953l0.722-13.363c0.1-1.848-1.81-3.134-3.484-2.345L196.622,71.01l-2.579,2.578
		l14.619,8.761L232.869,70.953z"/>
	<path style="fill:#E0D3F2;" d="M172.014,60.125l25.854-12.173l0.722-13.363c0.1-1.848-1.81-3.134-3.484-2.345L161.622,48.01
		l-3.961,3.961l14.278,8.23L172.014,60.125z"/>
	<path style="fill:#E0D3F2;" d="M162.868,24.952l0.722-13.363c0.1-1.848-1.81-3.134-3.484-2.345L126.342,25.14l-3.303,3.303
		l13.708,8.807L162.868,24.952z"/>
</g>
<g>
	<polygon style="fill:#FECF54;" points="352.141,47.12 352.191,48.01 351.371,47.62 	"/>
	<polygon style="fill:#FECF54;" points="317.151,70.2 317.191,71.01 316.451,70.66 	"/>
	<path style="fill:#FECF54;" d="M409.521,27.24c4.56,6.92,2.65,16.22-4.26,20.78l-141,93c-2.51,1.65-5.38,2.48-8.26,2.48
		c-2.88,0-5.75-0.83-8.26-2.48l-141-93c-6.91-4.56-8.82-13.86-4.26-20.78s13.86-8.82,20.78-4.26l3.27,2.16l35.26,23.25l34.96,23.06
		l34.96,23.06l24.29,16.02l26.15-17.25l34.3-22.62l0.74,0.35l-0.04-0.81l34.22-22.58l0.82,0.39l-0.05-0.89l34.16-22.53l2.44-1.61
		C395.661,18.42,404.961,20.33,409.521,27.24z"/>
</g>
<path style="fill:#F7C852;" d="M260.9,128.401c2.88,0,5.75-0.83,8.26-2.48l141-93c0.488-0.322,0.945-0.673,1.383-1.041
	c-0.4-1.608-1.057-3.178-2.021-4.641c-4.56-6.91-13.86-8.82-20.78-4.26l-2.44,1.61l-34.16,22.53l0.05,0.89l-0.82-0.39L317.151,70.2
	l0.04,0.81l-0.74-0.35l-34.3,22.62l-26.15,17.25l-24.29-16.02l-34.96-23.06l-34.96-23.06l-35.26-23.25l-3.27-2.16
	c-5.677-3.741-12.951-3.127-17.901,1.032c0.875,3.527,3.009,6.751,6.279,8.909l141,93C255.15,127.571,258.02,128.401,260.9,128.401z
	"/>
<path style="fill:#17C178;" d="M365.001,363.05v28.9c0,7.48-6.07,13.55-13.55,13.55h-5.45h-178h-5.45
	c-7.48,0-13.55-6.07-13.55-13.55v-28.9c0-7.48,6.07-13.55,13.55-13.55h188.9C358.931,349.5,365.001,355.57,365.001,363.05z"/>
<path style="fill:#00B764;" d="M196.001,386L196.001,386c-10.493,0-19-8.507-19-19v-17.5h-14.45c-7.483,0-13.55,6.067-13.55,13.55
	v28.9c0,7.483,6.067,13.55,13.55,13.55h5.45h178h5.45c7.483,0,13.55-6.067,13.55-13.55V386H196.001z"/>
<path d="M415.783,23.112c-6.588-9.988-19.828-13.01-30.055-7.081L353.195,0.714c-2.388-1.125-5.191-0.909-7.382,0.563
	c-2.19,1.474-3.444,3.991-3.302,6.627l1.512,27.97l-25.829-12.161c-2.388-1.125-5.191-0.91-7.382,0.563
	c-2.19,1.474-3.444,3.991-3.302,6.627l1.512,27.97l-25.829-12.161c-2.389-1.125-5.19-0.91-7.382,0.563
	c-2.19,1.474-3.444,3.991-3.302,6.627l1.919,35.486l-18.427,12.159l-16.498-10.882l1.988-36.76c0.143-2.636-1.111-5.153-3.302-6.627
	s-4.993-1.688-7.382-0.563l-25.829,12.161l1.512-27.97c0.143-2.636-1.111-5.153-3.302-6.627s-4.994-1.688-7.382-0.563
	l-25.829,12.161l1.512-27.97c0.143-2.636-1.111-5.153-3.302-6.627c-2.189-1.475-4.994-1.688-7.382-0.563L127.134,16.57
	c-4.966-3.185-10.864-4.299-16.656-3.109c-5.888,1.208-10.953,4.637-14.261,9.654c-3.31,5.017-4.467,11.022-3.259,16.91
	c1.207,5.887,4.636,10.952,9.652,14.261l4.889,3.224V92.5c0,74.928,55.784,137.062,128,147.078v58.427
	c-7.363-6.234-16.877-10.005-27.26-10.005h-32.238c-4.143,0-7.5,3.358-7.5,7.5v19.238c0,10.388,3.784,19.897,10.027,27.262H162.55
	c-11.606,0-21.049,9.443-21.049,21.049v28.901c0,10.915,8.352,19.912,19,20.946V497h-33c-4.143,0-7.5,3.358-7.5,7.5
	s3.357,7.5,7.5,7.5h258c4.143,0,7.5-3.358,7.5-7.5s-3.357-7.5-7.5-7.5h-32v-84.104c10.648-1.034,19-10.031,19-20.946v-28.901
	c0-11.606-9.442-21.049-21.049-21.049h-15.967c6.238-7.365,10.016-16.876,10.016-27.262V295.5c0-4.142-3.357-7.5-7.5-7.5h-32.238
	c-10.382,0-19.896,3.771-27.262,10.005V287c0-4.142-3.357-7.5-7.5-7.5s-7.5,3.358-7.5,7.5v43.262V342h-13v-11.738v-89.374
	c1.826,0.067,3.658,0.112,5.5,0.112c2.515,0,5.015-0.064,7.5-0.189V257c0,4.142,3.357,7.5,7.5,7.5s7.5-3.358,7.5-7.5v-17.702
	c71.245-10.875,126-72.562,126-146.798V57.507l4.888-3.224c5.018-3.309,8.446-8.374,9.653-14.261
	C420.25,34.134,419.093,28.129,415.783,23.112z M175.501,497v-84h163v84H175.501z M357.501,363.049v28.901
	c0,3.335-2.714,6.049-6.049,6.049H162.55c-3.335,0-6.049-2.714-6.049-6.049v-28.901c0-3.335,2.714-6.049,6.049-6.049h188.902
	C354.787,357,357.501,359.714,357.501,363.049z M278.501,330.262c0-15.032,12.23-27.262,27.262-27.262h24.738v11.738
	c0,15.032-12.229,27.262-27.262,27.262h-24.738V330.262z M210.763,342c-15.032,0-27.262-12.229-27.262-27.262V303h24.738
	c15.032,0,27.262,12.229,27.262,27.262V342H210.763z M371.018,25.685l-12.091,7.975l-0.758-14.025L371.018,25.685z M336.093,48.72
	l-12.162,8.022l-0.763-14.107L336.093,48.72z M288.168,65.635l13,6.121l-12.233,8.069L288.168,65.635z M224.998,81.098
	l-13.331-8.793l14.167-6.67L224.998,81.098z M190.002,58.016l-13.26-8.746l14.092-6.635L190.002,58.016z M155.007,34.933
	l-13.189-8.699l14.016-6.599L155.007,34.933z M129.756,135.921c4.836-1.912,10.011-2.92,15.245-2.92c22.883,0,41.5,18.617,41.5,41.5
	c0,9.564-3.185,18.554-9.058,25.868C155.587,184.407,138.744,161.98,129.756,135.921z M335.83,199.441
	c-5.407-7.151-8.329-15.811-8.329-24.94c0-22.883,18.617-41.5,41.5-41.5c4.658,0,9.167,0.77,13.478,2.259
	C373.721,161.096,357.254,183.407,335.83,199.441z M404.349,37.007c-0.403,1.962-1.546,3.65-3.219,4.753l-8.315,5.484
	c-0.004,0.003-0.008,0.005-0.012,0.008L260.13,134.76c-2.457,1.622-5.801,1.622-8.258,0l-64.854-42.776
	c-3.46-2.281-8.11-1.327-10.391,2.131c-2.28,3.458-1.326,8.109,2.131,10.39l64.854,42.776c3.688,2.433,7.972,3.719,12.389,3.719
	s8.701-1.286,12.389-3.718L389.501,67.4v25.1c0,9.709-1.052,19.176-3.029,28.301c-5.628-1.83-11.538-2.801-17.471-2.801
	c-31.154,0-56.5,25.346-56.5,56.5c0,12.131,3.807,23.641,10.831,33.235C303.552,219.337,280.542,226,256.001,226
	c-23.97,0-46.483-6.354-65.949-17.461c7.347-9.744,11.449-21.721,11.449-34.039c0-31.154-25.346-56.5-56.5-56.5
	c-6.614,0-13.157,1.195-19.33,3.446c-2.069-9.324-3.17-19.008-3.17-28.946V67.4l31.188,20.571c3.459,2.28,8.11,1.327,10.391-2.131
	c2.28-3.458,1.326-8.109-2.131-10.39l-51.078-33.69c-0.005-0.003,0.005,0.003,0,0l0,0c-1.672-1.103-2.814-2.791-3.218-4.753
	c-0.402-1.962-0.017-3.964,1.088-5.638c1.103-1.672,2.79-2.815,4.753-3.218c1.959-0.4,3.964-0.016,5.636,1.087l132.741,87.553
	c2.506,1.652,5.754,1.652,8.26,0l132.741-87.553c3.451-2.277,8.112-1.32,10.39,2.131C404.365,33.043,404.751,35.045,404.349,37.007z
	"/>
<path d="M257.001,219c16.817,0,30.5-13.682,30.5-30.5s-13.683-30.5-30.5-30.5s-30.5,13.682-30.5,30.5S240.184,219,257.001,219z
	 M257.001,173c8.547,0,15.5,6.953,15.5,15.5s-6.953,15.5-15.5,15.5c-8.547,0-15.5-6.953-15.5-15.5S248.454,173,257.001,173z"/>
<g>
</g>
<g>
</g>
<g>
</g>
<g>
</g>
<g>
</g>
<g>
</g>
<g>
</g>
<g>
</g>
<g>
</g>
<g>
</g>
<g>
</g>
<g>
</g>
<g>
</g>
<g>
</g>
<g>
</g>
</svg>
