<?xml version="1.0" encoding="iso-8859-1"?>
<!-- Generator: Adobe Illustrator 21.0.0, SVG Export Plug-In . SVG Version: 6.00 Build 0)  -->
<svg version="1.1" id="Capa_1" xmlns="http://www.w3.org/2000/svg" xmlns:xlink="http://www.w3.org/1999/xlink" x="0px" y="0px"
	 viewBox="0 0 512 512" style="enable-background:new 0 0 512 512;" xml:space="preserve">
<path style="fill:#FE4583;" d="M256,7.5c-33.69,0-64.19,13.66-86.27,35.73C147.66,65.31,134,95.81,134,129.5v10l7.545,34.636
	L257,198.901l114.564-25.161L378,139.5v-10C378,62.12,323.38,7.5,256,7.5z"/>
<path style="fill:#FC3268;" d="M175.545,174.136L168,139.5v-10c0-33.69,13.66-64.19,35.73-86.27
	c18.299-18.291,42.384-30.795,69.271-34.545C267.444,7.91,261.771,7.5,256,7.5c-33.69,0-64.19,13.66-86.27,35.73
	C147.66,65.31,134,95.81,134,129.5v10l7.545,34.636L257,198.901l16.799-3.689L175.545,174.136z"/>
<rect x="168" y="285" style="fill:#4ACE99;" width="178" height="218.5"/>
<path style="fill:#38C689;" d="M346,333.401L346,333.401V285H168v218.5h26.092v-18.191C194.092,401.412,262.103,333.401,346,333.401
	z"/>
<g>
	<path style="fill:#FC3268;" d="M378,129.5v10h-65l-25-25l-0.28-0.16l19.54-33.84h60.49h0.01C374.34,95.49,378,112.07,378,129.5z"/>
	<path style="fill:#FC3268;" d="M228.28,46.66L208.74,80.5h-64.49c6.13-13.99,14.83-26.61,25.48-37.27
		c9.3-9.29,20.1-17.1,31.99-23.01L228,46.5L228.28,46.66z"/>
</g>
<path style="fill:#E22761;" d="M214.875,33.375l-13.29-13.084c-11.836,5.902-22.59,13.685-31.854,22.939
	c-10.65,10.66-19.35,23.28-25.48,37.27h33.423c6.24-13.991,15.062-26.613,25.882-37.27
	C207.117,39.724,210.901,36.435,214.875,33.375z"/>
<path style="fill:#FE4583;" d="M367.75,80.5h-60.49l-19.54-33.84L288,46.5l24.82-24.82l0.07-0.13
	C337.2,34.39,356.65,55.2,367.75,80.5z"/>
<polygon style="fill:#E22761;" points="307.26,80.5 287.72,114.34 287.63,114.5 228.37,114.5 228.28,114.34 208.74,80.5 
	228.28,46.66 228.37,46.5 287.63,46.5 287.72,46.66 "/>
<path style="fill:#FE4583;" d="M228.28,114.34L228,114.5l-25,25h-69v-10c0-17.43,3.66-34.01,10.25-49h64.49L228.28,114.34z"/>
<path style="fill:#FC3268;" d="M177.414,80.5H144.25c-6.59,14.99-10.25,31.57-10.25,49v10h32.827v-10
	C166.827,112.07,170.611,95.498,177.414,80.5z"/>
<path style="fill:#FFE6A6;" d="M287.72,156.114L258,176.623l-39.066-20.509h-84.016L134,167.5v22c0,9.22,1.84,18,5.17,26.02
	l37.61,41.272v30.373h148.902V257.5h0.148c0,0,48.255-42.316,47.26-42.63c3.16-7.84,4.91-16.4,4.91-25.37v-22v-11.386H287.72z"/>
<path style="fill:#F7D78F;" d="M179.01,215.52c-3.33-8.02-5.17-16.8-5.17-26.02v-22l0.917-11.386h-39.841L134,167.5v22
	c0,9.22,1.84,18,5.17,26.02l37.61,41.272v30.373h39.841v-30.373L179.01,215.52z"/>
<g>
	<path style="fill:#FECF54;" d="M139.17,215.52c3.12-1.3,6.54-2.02,10.13-2.02h20.4c14.52,0,26.3,11.78,26.3,26.3v9.87
		c0,4.33-3.5,7.83-7.83,7.83h-25.62h-31.72c-4.33,0-7.83-3.5-7.83-7.83v-9.87C123,228.87,129.68,219.49,139.17,215.52z"/>
	<path style="fill:#FECF54;" d="M391,239.8v9.87c0,4.33-3.5,7.83-7.83,7.83h-31.72h-25.62c-4.33,0-7.83-3.5-7.83-7.83v-9.87
		c0-14.52,11.78-26.3,26.3-26.3h20.4c2.93,0,5.76,0.48,8.39,1.37C383.5,218.37,391,228.21,391,239.8z"/>
</g>
<g>
	<path style="fill:#F9BD38;" d="M153.72,249.67v-9.87c0-10.93,6.68-20.31,16.17-24.28c1.583-0.66,3.244-1.168,4.965-1.511
		c-1.667-0.332-3.391-0.509-5.156-0.509h-20.4c-3.59,0-7.01,0.72-10.13,2.02c-9.49,3.97-16.17,13.35-16.17,24.28v9.87
		c0,4.33,3.5,7.83,7.83,7.83h30.72C157.22,257.5,153.72,254,153.72,249.67z"/>
	<path style="fill:#F9BD38;" d="M348.72,249.67v-9.87c0-12.738,9.066-23.364,21.094-25.782c-1.657-0.327-3.364-0.518-5.114-0.518
		h-20.4c-14.52,0-26.3,11.78-26.3,26.3v9.87c0,4.33,3.5,7.83,7.83,7.83h25.62h5.1C352.22,257.5,348.72,254,348.72,249.67z"/>
</g>
<path style="fill:#FECF54;" d="M378,139.5c7.73,0,14,6.27,14,14s-6.27,14-14,14h-72.92c-5.3,12.98-18.13,22-32.62,22h-42.81
	c-13.66,0-25.63-9.2-29.44-22H134c-7.73,0-14-6.27-14-14s6.27-14,14-14h74.12c9.12,0,16.99,6.81,18.29,15.84l0.56,3.83
	c0.19,1.33,1.35,2.33,2.68,2.33h42.81c3.55,0,6.62-2.65,7.13-6.17c1.3-9.02,9.17-15.83,18.29-15.83H378z"/>
<path style="fill:#F9BD38;" d="M382.219,154.563h-63.716c-5.051,0-9.878,2.377-12.73,6.546
	c-6.409,9.368-17.191,15.454-29.094,15.454h-42.81c-10.788,0-20.522-5.738-26.015-14.456c-2.918-4.632-7.91-7.544-13.384-7.544
	h-56.251c-6.809,0-12.479-4.867-13.735-11.309c-2.9,2.695-4.668,6.593-4.468,10.908c0.35,7.538,6.846,13.338,14.392,13.338h65.803
	c3.81,12.8,15.78,22,29.44,22h42.81c14.49,0,27.32-9.02,32.62-22h72.307c6.154,0,11.833-3.746,13.854-9.558
	c0.872-2.507,0.928-4.907,0.494-7.133C389.236,153.131,385.898,154.563,382.219,154.563z"/>
<path style="fill:#17C178;" d="M365,271.05v28.9c0,7.48-6.07,13.55-13.55,13.55H346H168h-5.45c-7.48,0-13.55-6.07-13.55-13.55v-28.9
	c0-7.48,6.07-13.55,13.55-13.55h25.62h137.66h25.62C358.93,257.5,365,263.57,365,271.05z"/>
<path style="fill:#00B764;" d="M196.414,291.5L196.414,291.5c-10.493,0-19-8.507-19-19v-15H162.55c-7.483,0-13.55,6.067-13.55,13.55
	v28.9c0,7.483,6.067,13.55,13.55,13.55H168h178h5.45c7.483,0,13.55-6.067,13.55-13.55v-8.45L196.414,291.5L196.414,291.5z"/>
<path d="M382.373,211.004c2.075-6.964,3.127-14.169,3.127-21.504v-15.876c8.163-3.053,14-10.909,14-20.124s-5.837-17.07-14-20.124
	V129.5C385.5,58.093,327.406,0,256,0S126.5,58.093,126.5,129.5v3.876c-8.163,3.053-14,10.909-14,20.124s5.837,17.07,14,20.124V189.5
	c0,7.737,1.173,15.311,3.465,22.602c-8.736,6.117-14.465,16.25-14.465,27.7v9.871c0,8.452,6.876,15.328,15.327,15.328h11.568
	c-0.577,1.918-0.896,3.946-0.896,6.049v28.901c0,10.915,8.352,19.912,19,20.946V497h-33c-4.143,0-7.5,3.358-7.5,7.5
	s3.357,7.5,7.5,7.5h258c4.143,0,7.5-3.358,7.5-7.5s-3.357-7.5-7.5-7.5h-32V320.896c10.648-1.034,19-10.031,19-20.946v-28.901
	c0-2.103-0.319-4.132-0.896-6.049h11.568c8.451,0,15.327-6.876,15.327-15.328v-9.871C398.5,227.639,392.04,216.959,382.373,211.004z
	 M370.5,132h-54.393l-18.969-18.969L311.59,88h51.124c5.024,12.874,7.786,26.87,7.786,41.5V132z M232.7,54h50.6l15.3,26.5L283.3,107
	h-50.6l-15.3-26.5L232.7,54z M231.107,122h53.786l10.172,10.172c-11.506,1.272-21.058,10.207-22.861,21.828h-38.408
	c-1.373-8.842-7.235-16.121-15.024-19.665L231.107,122z M355.559,73H311.59l-14.452-25.031l17.046-17.046
	C331.362,41.101,345.667,55.636,355.559,73z M300.068,23.825L284.893,39h-53.786l-16.323-16.322C227.58,17.724,241.477,15,256,15
	C271.609,15,286.497,18.144,300.068,23.825z M149.286,88h16.964c4.143,0,7.5-3.358,7.5-7.5s-3.357-7.5-7.5-7.5h-9.809
	c10.376-18.212,25.605-33.313,43.914-43.538l18.507,18.506L204.41,73h-8.16c-4.143,0-7.5,3.358-7.5,7.5s3.357,7.5,7.5,7.5h8.16
	l14.452,25.031L199.893,132H141.5v-2.5C141.5,114.87,144.262,100.874,149.286,88z M141.5,189.5V175h53.57
	c6.237,13.189,19.742,22,34.584,22h42.809c15.418,0,29.824-8.662,37.309-22h12.479c4.143,0,7.5-3.358,7.5-7.5s-3.357-7.5-7.5-7.5
	H305.08c-3.047,0-5.791,1.844-6.943,4.665C293.901,175.033,283.584,182,272.463,182h-42.809c-10.188,0-19.341-6.843-22.26-16.641
	c-0.946-3.179-3.87-5.359-7.188-5.359H134c-3.584,0-6.5-2.916-6.5-6.5s2.916-6.5,6.5-6.5h74.118c5.421,0,10.095,4.045,10.872,9.413
	l0.556,3.836c0.723,4.989,5.068,8.751,10.108,8.751h42.809c7.253,0,13.507-5.413,14.548-12.593c0.776-5.363,5.45-9.407,10.871-9.407
	H378c3.584,0,6.5,2.916,6.5,6.5s-2.916,6.5-6.5,6.5h-25.75c-4.143,0-7.5,3.358-7.5,7.5s3.357,7.5,7.5,7.5h18.25v14.5
	c0,5.683-0.794,11.268-2.348,16.675c-1.136-0.116-2.288-0.175-3.454-0.175h-20.396c-18.639,0-33.802,15.164-33.802,33.802
	c0,0,0.014,10.08,0.016,10.187C310.344,249.99,203.483,250,203.483,250c0.002-0.11,0.017-10.198,0.017-10.198
	c0-18.638-15.163-33.802-33.802-33.802h-20.396c-1.832,0-3.629,0.152-5.383,0.434C142.32,200.957,141.5,195.287,141.5,189.5z
	 M130.5,249.672v-9.871c0-10.367,8.435-18.802,18.802-18.802h20.396c10.367,0,18.802,8.435,18.802,18.802v9.871
	c0,0.181-0.146,0.328-0.327,0.328l0,0h-57.346C130.646,250,130.5,249.853,130.5,249.672z M175.5,321h163v175h-163V321z
	 M357.5,271.049v28.901c0,3.335-2.714,6.049-6.049,6.049H162.549c-3.335,0-6.049-2.714-6.049-6.049v-28.901
	c0-3.335,2.714-6.049,6.049-6.049h188.902C354.786,265,357.5,267.714,357.5,271.049z M383.5,249.672
	c0,0.181-0.146,0.328-0.327,0.328h-57.346l0,0c-0.181,0-0.327-0.147-0.327-0.328v-9.871c0-10.367,8.435-18.802,18.802-18.802h20.396
	c10.367,0,18.802,8.435,18.802,18.802V249.672z"/>
<path d="M240.5,218h35.092c4.143,0,7.5-3.358,7.5-7.5s-3.357-7.5-7.5-7.5H240.5c-4.143,0-7.5,3.358-7.5,7.5S236.357,218,240.5,218z"
	/>
<path d="M276,226h-35.092c-4.143,0-7.5,3.358-7.5,7.5s3.357,7.5,7.5,7.5H276c4.143,0,7.5-3.358,7.5-7.5S280.143,226,276,226z"/>
<g>
</g>
<g>
</g>
<g>
</g>
<g>
</g>
<g>
</g>
<g>
</g>
<g>
</g>
<g>
</g>
<g>
</g>
<g>
</g>
<g>
</g>
<g>
</g>
<g>
</g>
<g>
</g>
<g>
</g>
</svg>
