<?xml version="1.0" encoding="iso-8859-1"?>
<!-- Generator: Adobe Illustrator 21.0.0, SVG Export Plug-In . SVG Version: 6.00 Build 0)  -->
<svg version="1.1" id="Capa_1" xmlns="http://www.w3.org/2000/svg" xmlns:xlink="http://www.w3.org/1999/xlink" x="0px" y="0px"
	 viewBox="0 0 512 512" style="enable-background:new 0 0 512 512;" xml:space="preserve">
<path style="fill:#4F4F74;" d="M409.5,159.5c52.47,0,95,42.53,95,95c0,26.24-10.63,49.98-27.82,67.18
	c-17.2,17.19-40.94,27.82-67.18,27.82H296.82c-4.04,0-7.32-3.28-7.32-7.32V166.82c0-4.04,3.28-7.32,7.32-7.32H409.5z"/>
<path style="fill:#3E436D;" d="M480.434,191.313c5.706,12.206,8.9,25.822,8.9,40.187c0,26.24-10.63,49.98-27.82,67.18
	c-17.2,17.19-40.94,27.82-67.18,27.82H289.5v15.68c0,4.04,3.28,7.32,7.32,7.32H409.5c26.24,0,49.98-10.63,67.18-27.82
	c17.19-17.2,27.82-40.94,27.82-67.18C504.5,230.237,495.401,208.103,480.434,191.313z"/>
<path style="fill:#EDE6F5;" d="M498.23,288.5c-4.81,12.56-12.21,23.83-21.55,33.18c-14.08,14.08-32.55,23.75-53.19,26.8L388.5,288.5
	H498.23z"/>
<g>
	<path style="fill:#D2CADD;" d="M464.815,331.739L431.35,312.48l-18.214,18.251l10.354,17.749
		C438.753,346.225,452.823,340.341,464.815,331.739z"/>
	<polygon style="fill:#D2CADD;" points="455.94,288.5 431.35,312.48 388.5,288.5 	"/>
</g>
<rect x="253.5" y="181.5" style="fill:#32314B;" width="36" height="146"/>
<path style="fill:#65657F;" d="M253.5,159.28v194.44c0,8.16-6.62,14.78-14.78,14.78H180h-14.5h-65c-4.42,0-8.42-1.79-11.32-4.68
	c-2.89-2.9-4.68-6.9-4.68-11.32c0-8.84,7.16-16,16-16h65H178c8.84,0,16-7.16,16-16s-7.16-16-16-16h-12.5h-119
	c-4.42,0-8.42-1.79-11.32-4.68c-2.89-2.9-4.68-6.9-4.68-11.32c0-8.84,7.16-16,16-16h119H178c8.84,0,16-7.16,16-16s-7.16-16-16-16
	h-12.5h-21c-4.42,0-8.42-1.79-11.32-4.68c-2.89-2.9-4.68-6.9-4.68-11.32c0-8.84,7.16-16,16-16h21H178c8.84,0,16-7.16,16-16
	s-7.16-16-16-16h-12.5h-142c-4.42,0-8.42-1.79-11.32-4.68c-2.89-2.9-4.68-6.9-4.68-11.32c0-8.84,7.16-16,16-16h142H180h58.72
	C246.88,144.5,253.5,151.12,253.5,159.28z"/>
<g>
	<path style="fill:#5B5B72;" d="M23.5,176.5h142h8.01c0.629-1.717,0.99-3.564,0.99-5.5c0-8.84-7.16-16-16-16H146H8.49
		c-0.629,1.717-0.99,3.564-0.99,5.5c0,4.42,1.79,8.42,4.68,11.32C15.08,174.71,19.08,176.5,23.5,176.5z"/>
	<path style="fill:#5B5B72;" d="M158.5,219H146h-16.51c-0.629,1.717-0.99,3.564-0.99,5.5c0,4.42,1.79,8.42,4.68,11.32
		c2.9,2.89,6.9,4.68,11.32,4.68h21h8.01c0.629-1.717,0.99-3.564,0.99-5.5C174.5,226.16,167.34,219,158.5,219z"/>
	<path style="fill:#5B5B72;" d="M238.72,144.5H234v147.407C234,322.334,209.334,347,178.907,347H160.5H146H85.49
		c-0.629,1.717-0.99,3.564-0.99,5.5c0,4.42,1.79,8.42,4.68,11.32c2.9,2.89,6.9,4.68,11.32,4.68h65H180h58.72
		c8.163,0,14.78-6.617,14.78-14.78V159.28C253.5,151.117,246.883,144.5,238.72,144.5z"/>
	<path style="fill:#5B5B72;" d="M173.51,304.5c0.629-1.717,0.99-3.564,0.99-5.5c0-8.84-7.16-16-16-16H146H31.49
		c-0.629,1.717-0.99,3.564-0.99,5.5c0,4.42,1.79,8.42,4.68,11.32c2.9,2.89,6.9,4.68,11.32,4.68h119H173.51z"/>
</g>
<path style="fill:#65657F;" d="M89.82,213.18c2.89,2.9,4.68,6.9,4.68,11.32c0,8.84-7.16,16-16,16h-28c-4.42,0-8.42-1.79-11.32-4.68
	c-2.89-2.9-4.68-6.9-4.68-11.32c0-8.84,7.16-16,16-16h28C82.92,208.5,86.92,210.29,89.82,213.18z"/>
<path style="fill:#5B5B72;" d="M78.5,228.133h-28c-4.42,0-8.42-1.79-11.32-4.68c-1.456-1.461-2.631-3.203-3.44-5.135
	c-0.797,1.902-1.24,3.99-1.24,6.183c0,4.42,1.79,8.42,4.68,11.32c2.9,2.89,6.9,4.68,11.32,4.68h28c8.84,0,16-7.16,16-16
	c0-2.193-0.443-4.282-1.24-6.185C90.843,224.083,85.148,228.133,78.5,228.133z"/>
<path style="fill:#FE4583;" d="M462.5,220.489v8.408c0,12.498-9.715,23.169-22.205,23.59c-13.062,0.44-23.795-10.023-23.795-22.987
	v-9.011c0-1.651,1.338-2.989,2.989-2.989h40.023C461.162,217.5,462.5,218.838,462.5,220.489z"/>
<path d="M409.5,152H296.816c-8.17,0-14.816,6.646-14.816,14.816V174h-21v-14.718c0-12.286-9.996-22.282-22.282-22.282H23.5
	C10.542,137,0,147.542,0,160.5S10.542,184,23.5,184H178c4.687,0,8.5,3.813,8.5,8.5s-3.813,8.5-8.5,8.5h-33.5
	c-12.958,0-23.5,10.542-23.5,23.5s10.542,23.5,23.5,23.5H178c4.687,0,8.5,3.813,8.5,8.5c0,4.687-3.813,8.5-8.5,8.5H46.5
	C33.542,265,23,275.542,23,288.5S33.542,312,46.5,312h75.25c4.142,0,7.5-3.357,7.5-7.5s-3.358-7.5-7.5-7.5H46.5
	c-4.687,0-8.5-3.813-8.5-8.5s3.813-8.5,8.5-8.5H178c12.958,0,23.5-10.542,23.5-23.5S190.958,233,178,233h-33.5
	c-4.687,0-8.5-3.813-8.5-8.5s3.813-8.5,8.5-8.5H178c12.958,0,23.5-10.542,23.5-23.5S190.958,169,178,169H23.5
	c-4.687,0-8.5-3.813-8.5-8.5s3.813-8.5,8.5-8.5h215.218c4.016,0,7.282,3.267,7.282,7.282v194.436c0,4.016-3.267,7.282-7.282,7.282
	H100.5c-4.687,0-8.5-3.813-8.5-8.5s3.813-8.5,8.5-8.5H178c12.958,0,23.5-10.542,23.5-23.5S190.958,297,178,297h-26.25
	c-4.142,0-7.5,3.357-7.5,7.5s3.358,7.5,7.5,7.5H178c4.687,0,8.5,3.813,8.5,8.5s-3.813,8.5-8.5,8.5h-77.5
	C87.542,329,77,339.542,77,352.5S87.542,376,100.5,376h138.218c12.287,0,22.282-9.996,22.282-22.282V335h21v7.184
	c0,8.17,6.646,14.816,14.816,14.816H409.5c56.519,0,102.5-45.981,102.5-102.5S466.019,152,409.5,152z M297,342V238.5
	c0-4.143-3.357-7.5-7.5-7.5s-7.5,3.357-7.5,7.5V320h-21V189h21v19.5c0,4.143,3.357,7.5,7.5,7.5s7.5-3.357,7.5-7.5V167h112.5
	c48.248,0,87.5,39.252,87.5,87.5c0,9.234-1.442,18.137-4.106,26.5H388.5c-2.686,0-5.166,1.436-6.504,3.765
	c-1.337,2.328-1.327,5.194,0.025,7.515l28.993,49.701C410.51,341.99,410.006,342,409.5,342L297,342L297,342z M427.325,340.173
	l-4.949-8.484l10.195-9.936l17.925,10.029C443.307,335.611,435.526,338.469,427.325,340.173z M414.587,318.335l-5.755-9.865
	l10.086,5.643L414.587,318.335z M417.264,296h20.239l-7.381,7.194L417.264,296z M464.551,322.458l-20.776-11.625L458.994,296h27.521
	C480.994,306.207,473.5,315.195,464.551,322.458z"/>
<path d="M50.5,248h28c12.958,0,23.5-10.542,23.5-23.5S91.458,201,78.5,201h-28C37.542,201,27,211.542,27,224.5S37.542,248,50.5,248z
	 M50.5,216h28c4.687,0,8.5,3.813,8.5,8.5s-3.813,8.5-8.5,8.5h-28c-4.687,0-8.5-3.813-8.5-8.5S45.813,216,50.5,216z"/>
<path d="M401.5,225h7.5v4.5c0,16.817,13.683,30.5,30.5,30.5s30.5-13.683,30.5-30.5v-12c0-4.143-3.357-7.5-7.5-7.5h-46h-15
	c-4.143,0-7.5,3.357-7.5,7.5S397.357,225,401.5,225z M455,225v4.5c0,8.547-6.953,15.5-15.5,15.5s-15.5-6.953-15.5-15.5V225H455z"/>
<path d="M241.5,403h-50c-4.142,0-7.5,3.357-7.5,7.5s3.358,7.5,7.5,7.5h50c4.142,0,7.5-3.357,7.5-7.5S245.642,403,241.5,403z"/>
<path d="M133.5,451h-97c-4.142,0-7.5,3.357-7.5,7.5s3.358,7.5,7.5,7.5h97c4.142,0,7.5-3.357,7.5-7.5S137.642,451,133.5,451z"/>
<path d="M271.5,109h50c4.143,0,7.5-3.357,7.5-7.5s-3.357-7.5-7.5-7.5h-50c-4.143,0-7.5,3.357-7.5,7.5S267.357,109,271.5,109z"/>
<path d="M119.5,61h97c4.142,0,7.5-3.357,7.5-7.5s-3.358-7.5-7.5-7.5h-97c-4.142,0-7.5,3.357-7.5,7.5S115.358,61,119.5,61z"/>
<g>
</g>
<g>
</g>
<g>
</g>
<g>
</g>
<g>
</g>
<g>
</g>
<g>
</g>
<g>
</g>
<g>
</g>
<g>
</g>
<g>
</g>
<g>
</g>
<g>
</g>
<g>
</g>
<g>
</g>
</svg>
