<?xml version="1.0" encoding="iso-8859-1"?>
<!-- Generator: Adobe Illustrator 21.0.0, SVG Export Plug-In . SVG Version: 6.00 Build 0)  -->
<svg version="1.1" id="Capa_1" xmlns="http://www.w3.org/2000/svg" xmlns:xlink="http://www.w3.org/1999/xlink" x="0px" y="0px"
	 viewBox="0 0 512 512" style="enable-background:new 0 0 512 512;" xml:space="preserve">
<path style="fill:#EE8E3E;" d="M504.5,324.25c0,11.94-4.55,22.82-12.02,31c7.47,8.18,12.02,19.06,12.02,31c0,25.41-20.59,46-46,46
	s-46-20.59-46-46c0-6.78,1.47-13.21,4.1-19h-74.1v-28H415c-1.62-4.7-2.5-9.75-2.5-15c0-25.41,20.59-46,46-46
	S504.5,298.84,504.5,324.25z M474.5,324.25c0-8.84-7.16-16-16-16s-16,7.16-16,16s7.16,16,16,16S474.5,333.09,474.5,324.25z
	 M474.5,386.25c0-8.84-7.16-16-16-16s-16,7.16-16,16s7.16,16,16,16S474.5,395.09,474.5,386.25z"/>
<g>
	<path style="fill:#EA8032;" d="M399.347,352.25H342.5v15h70.188c0.005-0.053,0.009-0.106,0.014-0.159
		C413.416,359.147,407.323,352.25,399.347,352.25z"/>
	<path style="fill:#EA8032;" d="M458.5,417.25c-22.862,0-41.813-16.671-45.385-38.52c-0.403,2.446-0.615,4.958-0.615,7.52
		c0,25.41,20.59,46,46,46s46-20.59,46-46c0-2.552-0.22-5.052-0.62-7.491C500.295,400.594,481.352,417.25,458.5,417.25z"/>
</g>
<path style="fill:#F8D46E;" d="M356.5,339.55v27.4c0,4.59-3.71,8.3-8.3,8.3h-41.7v-44h41.7C352.79,331.25,356.5,334.96,356.5,339.55
	z"/>
<path style="fill:#F7C852;" d="M348.2,358.25h-41.7v17h41.7c4.59,0,8.3-3.71,8.3-8.3v-17C356.5,354.54,352.79,358.25,348.2,358.25z"
	/>
<path style="fill:#F8D46E;" d="M331.53,50.75l7.28,13.5l-6.2,11.5h-38.16c-7.97,0-14.45,6.48-14.45,14.45v26.55
	c0,20.95-17.05,38-38,38s-38-17.05-38-38v-4.5c0-8-6.5-14.5-14.5-14.5s-14.5,6.5-14.5,14.5v73.5h-25v-73.5
	c0-21.78,17.72-39.5,39.5-39.5s39.5,17.72,39.5,39.5v4.5c0,7.17,5.83,13,13,13s13-5.83,13-13V90.2c0-21.75,17.7-39.45,39.45-39.45
	C294.45,50.75,331.53,50.75,331.53,50.75z"/>
<g>
	<path style="fill:#F7C852;" d="M254.095,129.75c7.17,0,13-5.83,13-13V90.2c0-21.75,17.7-39.45,39.45-39.45H294.45
		C272.7,50.75,255,68.45,255,90.2v26.55c0,4.986-2.823,9.319-6.953,11.499C249.856,129.203,251.911,129.75,254.095,129.75z"/>
	<path style="fill:#F7C852;" d="M195.547,73.213c-1.972-0.304-3.992-0.463-6.047-0.463c-21.78,0-39.5,17.72-39.5,39.5v73.5h12.095
		v-73.5C162.095,92.526,176.628,76.133,195.547,73.213z"/>
	<path style="fill:#F7C852;" d="M216.095,116.75v-4.5c0-8-6.5-14.5-14.5-14.5c-2.161,0-4.204,0.487-6.047,1.337
		c4.982,2.296,8.453,7.324,8.453,13.163v4.5c0,20.95,17.05,38,38,38c2.058,0,4.077-0.17,6.047-0.487
		C229.961,151.356,216.095,135.642,216.095,116.75z"/>
</g>
<path style="fill:#FE715A;" d="M212.82,168.25H112.18c-9.21,0-16.68,7.47-16.68,16.68v43.32l0.08,0.16l133.495-0.159
	c0.114,0.054,0.23,0.105,0.344,0.159l0.08-0.16v-43.32C229.5,175.72,222.03,168.25,212.82,168.25z"/>
<g>
	<path style="fill:#F75B4B;" d="M133,228.25v-43.32c0-9.21,7.47-16.68,16.68-16.68h-37.5c-9.21,0-16.68,7.47-16.68,16.68v43.32
		l0.08,0.16l37.478-0.045L133,228.25z"/>
	<path style="fill:#F75B4B;" d="M229.172,228.295c0.083,0.038,0.166,0.075,0.248,0.115l0.058-0.115H229.172z"/>
</g>
<path style="fill:#FE4583;" d="M162.5,194.25c23.96,0,46.66,5.44,66.92,15.16c52.1,24.97,88.08,78.2,88.08,139.84
	c0,85.6-69.4,155-155,155s-155-69.4-155-155c0-61.64,35.98-114.87,88.08-139.84C115.84,199.69,138.54,194.25,162.5,194.25z"/>
<path style="fill:#FC3268;" d="M218.5,474.24c-85.6,0-155-69.4-155-155c0-47.699,21.556-90.349,55.444-118.778
	c-8.08,2.363-15.889,5.361-23.364,8.948C43.48,234.38,7.5,287.61,7.5,349.25c0,85.6,69.4,155,155,155
	c37.916,0,72.646-13.624,99.582-36.233C248.256,472.062,233.633,474.24,218.5,474.24z"/>
<path style="fill:#FE715A;" d="M398.504,39.571l-12.673,23.491c-0.4,0.741-0.4,1.634,0,2.376l12.673,23.491
	c0.884,1.639-0.268,3.635-2.129,3.689l-26.676,0.773c-0.842,0.024-1.615,0.471-2.057,1.187l-14.012,22.719
	c-0.977,1.585-3.281,1.585-4.259,0l-14.012-22.719c-0.442-0.717-1.215-1.163-2.057-1.187l-26.675-0.773
	c-1.862-0.054-3.014-2.05-2.129-3.689l7.112-13.179l5.56-10.313c0.4-0.741,0.4-1.634,0-2.375l-6.64-12.313l-6.033-11.179
	c-0.884-1.639,0.268-3.635,2.129-3.689l26.675-0.773c0.842-0.024,1.615-0.471,2.057-1.187l14.012-22.719
	c0.977-1.585,3.281-1.585,4.259,0l14.012,22.719c0.442,0.717,1.215,1.163,2.057,1.187l26.676,0.773
	C398.235,35.936,399.388,37.932,398.504,39.571z"/>
<path style="fill:#FF4C39;" d="M334.166,87.25l5.56-10.313c0.4-0.741,0.4-1.634,0-2.375l-6.64-12.313l-6.033-11.179
	c-0.884-1.639,0.268-3.635,2.129-3.689l26.675-0.773c0.842-0.024,1.615-0.471,2.057-1.188l8.41-13.635l-12.695-20.583
	c-0.977-1.585-3.281-1.585-4.259,0l-14.012,22.719c-0.442,0.717-1.215,1.163-2.057,1.188l-26.675,0.773
	c-1.861,0.054-3.014,2.05-2.129,3.689l6.033,11.179l6.64,12.313c0.4,0.741,0.4,1.634,0,2.375l-5.56,10.313l-7.112,13.179
	c-0.885,1.639,0.268,3.635,2.129,3.689l24.263,0.703L334.166,87.25z"/>
<path d="M162.5,221.75c-17.526,0-34.508,3.493-50.473,10.383c-3.803,1.641-5.556,6.054-3.914,9.857
	c1.223,2.835,3.986,4.53,6.89,4.53c0.991,0,1.999-0.198,2.968-0.616c14.077-6.074,29.059-9.154,44.529-9.154
	c4.143,0,7.5-3.357,7.5-7.5S166.643,221.75,162.5,221.75z"/>
<path d="M162.5,461.75c-62.033,0-112.5-50.468-112.5-112.5c0-33.36,14.678-64.799,40.271-86.255
	c3.174-2.661,3.59-7.392,0.929-10.565c-2.661-3.175-7.393-3.59-10.565-0.929C51.633,275.813,35,311.442,35,349.25
	c0,70.304,57.196,127.5,127.5,127.5c4.143,0,7.5-3.357,7.5-7.5S166.643,461.75,162.5,461.75z"/>
<path d="M458.5,347.75c12.958,0,23.5-10.542,23.5-23.5s-10.542-23.5-23.5-23.5s-23.5,10.542-23.5,23.5S445.542,347.75,458.5,347.75z
	 M458.5,315.75c4.687,0,8.5,3.813,8.5,8.5s-3.813,8.5-8.5,8.5s-8.5-3.813-8.5-8.5S453.813,315.75,458.5,315.75z"/>
<path d="M458.5,409.75c12.958,0,23.5-10.542,23.5-23.5s-10.542-23.5-23.5-23.5s-23.5,10.542-23.5,23.5S445.542,409.75,458.5,409.75z
	 M458.5,377.75c4.687,0,8.5,3.813,8.5,8.5s-3.813,8.5-8.5,8.5s-8.5-3.813-8.5-8.5S453.813,377.75,458.5,377.75z"/>
<path d="M512,324.25c0-29.5-24-53.5-53.5-53.5s-53.5,24-53.5,53.5c0,2.521,0.175,5.026,0.522,7.5h-43.598
	c-2.721-4.771-7.847-8-13.721-8h-25.21c-8.203-51.821-40.985-95.569-85.994-118.887v-19.938c0-13.33-10.845-24.176-24.175-24.176
	H182.5v-48.5c0-3.859,3.141-7,7-7s7,3.141,7,7v4.5c0,25.089,20.411,45.5,45.5,45.5s45.5-20.411,45.5-45.5v-26.55
	c0-3.832,3.117-6.949,6.949-6.949h4.589l-3.069,5.689c-1.235,2.29-1.195,5.057,0.105,7.311s3.678,3.672,6.278,3.747l28.041,0.811
	l14.723,23.879c1.365,2.215,3.781,3.563,6.384,3.563s5.019-1.349,6.384-3.563l14.723-23.879l28.041-0.811
	c2.601-0.075,4.978-1.493,6.278-3.747s1.341-5.021,0.105-7.311L393.713,64.25l13.318-24.689c1.235-2.29,1.195-5.057-0.105-7.311
	s-3.678-3.672-6.278-3.747l-28.041-0.811L357.884,3.813c-1.365-2.215-3.781-3.563-6.384-3.563s-5.019,1.349-6.384,3.563
	l-14.723,23.879l-28.041,0.811c-2.601,0.075-4.978,1.493-6.278,3.747s-1.341,5.021-0.105,7.311l1.99,3.689h-3.51
	c-25.888,0-46.949,21.062-46.949,46.949v26.551c0,3.032-2.468,5.5-5.5,5.5s-5.5-2.468-5.5-5.5v-4.5c0-25.916-21.084-47-47-47
	s-47,21.084-47,47v48.5h-30.325C98.845,160.75,88,171.596,88,184.926v19.935c-20.269,10.495-38.342,25.232-52.69,43.251
	C12.21,277.118,0,312.092,0,349.25c0,89.603,72.897,162.5,162.5,162.5c78.121,0,143.536-55.416,159.02-129h26.684
	c5.874,0,10.999-3.229,13.721-8h44.313c-0.823,3.748-1.237,7.591-1.237,11.5c0,11.563,3.635,22.575,10.511,31.844
	c1.472,1.983,3.735,3.032,6.029,3.031c1.553,0,3.12-0.48,4.463-1.477c3.326-2.468,4.022-7.165,1.555-10.492
	c-4.944-6.664-7.558-14.585-7.558-22.906c0-5.541,1.153-10.891,3.428-15.898c1.055-2.321,0.857-5.02-0.522-7.163
	c-1.381-2.144-3.756-3.438-6.306-3.438H364v-13h51.004c2.425,0,4.699-1.172,6.106-3.146c1.408-1.974,1.774-4.507,0.983-6.799
	c-1.39-4.029-2.094-8.254-2.094-12.555c0-21.229,17.271-38.5,38.5-38.5s38.5,17.271,38.5,38.5c0,9.624-3.571,18.838-10.058,25.944
	c-2.613,2.863-2.613,7.248,0,10.111c6.486,7.106,10.058,16.32,10.058,25.944c0,21.229-17.271,38.5-38.5,38.5
	c-3.372,0-6.737-0.444-10.002-1.32c-4.002-1.075-8.113,1.3-9.188,5.301c-1.073,4,1.3,8.113,5.301,9.188
	c4.531,1.216,9.204,1.832,13.889,1.832c29.5,0,53.5-24,53.5-53.5c0-11.193-3.477-21.987-9.895-31
	C508.523,346.237,512,335.443,512,324.25z M334.871,42.569c2.524-0.073,4.842-1.411,6.167-3.561L351.5,22.041l10.462,16.968
	c1.325,2.149,3.643,3.487,6.167,3.561l19.926,0.576l-9.464,17.544c-1.199,2.223-1.199,4.898,0,7.121l9.464,17.544l-19.926,0.576
	c-2.524,0.073-4.842,1.411-6.167,3.561L351.5,106.459l-10.462-16.968c-1.325-2.149-3.643-3.487-6.167-3.561l-19.926-0.576
	l3.232-5.991c0.015-0.028,0.03-0.055,0.045-0.083l6.187-11.469c1.199-2.223,1.199-4.898,0-7.121l-7.268-13.473
	c-0.014-0.026-0.027-0.051-0.041-0.076l-2.155-3.994L334.871,42.569z M157.5,112.25c0-17.645,14.355-32,32-32s32,14.355,32,32v4.5
	c0,11.304,9.196,20.5,20.5,20.5s20.5-9.196,20.5-20.5V90.199c0-17.617,14.332-31.949,31.949-31.949h11.601l3.237,6l-2.158,4h-12.68
	c-12.103,0-21.949,9.847-21.949,21.949v26.551c0,16.817-13.683,30.5-30.5,30.5s-30.5-13.683-30.5-30.5v-4.5c0-12.131-9.869-22-22-22
	s-22,9.869-22,22v48.5h-10L157.5,112.25L157.5,112.25z M162.5,496.75c-81.332,0-147.5-66.168-147.5-147.5
	c0-33.729,11.08-65.471,32.043-91.795c20.349-25.553,48.931-43.851,80.479-51.522c4.024-0.979,6.494-5.035,5.516-9.061
	c-0.98-4.024-5.028-6.499-9.061-5.515c-7.149,1.738-14.156,3.979-20.978,6.675v-13.106c0-5.06,4.116-9.176,9.175-9.176h100.65
	c5.059,0,9.175,4.116,9.175,9.176v13.104c-18.435-7.279-38.509-11.28-59.5-11.28c-2.23,0-4.545,0.053-7.073,0.162
	c-4.139,0.179-7.349,3.679-7.17,7.816c0.179,4.139,3.665,7.358,7.816,7.17c2.312-0.1,4.414-0.148,6.427-0.148
	c81.332,0,147.5,66.168,147.5,147.5S243.832,496.75,162.5,496.75z M348.204,367.75H325v-29h23.204c0.438,0,0.796,0.357,0.796,0.796
	v27.408C349,367.393,348.643,367.75,348.204,367.75z"/>
<g>
</g>
<g>
</g>
<g>
</g>
<g>
</g>
<g>
</g>
<g>
</g>
<g>
</g>
<g>
</g>
<g>
</g>
<g>
</g>
<g>
</g>
<g>
</g>
<g>
</g>
<g>
</g>
<g>
</g>
</svg>
