<?xml version="1.0" encoding="iso-8859-1"?>
<!-- Generator: Adobe Illustrator 21.0.0, SVG Export Plug-In . SVG Version: 6.00 Build 0)  -->
<svg version="1.1" id="Capa_1" xmlns="http://www.w3.org/2000/svg" xmlns:xlink="http://www.w3.org/1999/xlink" x="0px" y="0px"
	 viewBox="0 0 512 512" style="enable-background:new 0 0 512 512;" xml:space="preserve">
<path style="fill:#EAB642;" d="M305.096,242.474v30.059h-189.37v21.813c0,3.447-2.795,6.242-6.242,6.242H92.911
	c-3.447,0-6.242-2.795-6.242-6.242v-21.813H57.613v21.813c0,3.447-2.795,6.242-6.242,6.242H34.798c-3.447,0-6.242-2.795-6.242-6.242
	v-21.813H12.234c-2.605,0-4.719-2.114-4.719-4.719v-20.62c0-2.605,2.114-4.719,4.719-4.719H305.096z"/>
<path style="fill:#F2C557;" d="M12.234,242.474c-2.605,0-4.719,2.114-4.719,4.719v15.826c0-2.605,2.114-4.719,4.719-4.719h292.862
	v-15.826H12.234z"/>
<path style="fill:#F8D46E;" d="M504.485,193.558v124.884c0,4.729-2.525,9.088-6.613,11.452l-73.443,42.403
	c-4.088,2.365-9.138,2.365-13.226,0l-73.443-42.403c-4.088-2.365-6.613-6.723-6.613-11.452v-23.867h-25.49
	c-5.29,0-9.579-4.288-9.579-9.579v-54.987c0-5.29,4.288-9.579,9.579-9.579h25.49v-26.872c0-4.729,2.525-9.088,6.613-11.452
	l73.443-42.403c4.088-2.365,9.138-2.365,13.226,0l73.443,42.403C501.96,184.47,504.485,188.829,504.485,193.558z"/>
<path style="fill:#F9BD38;" d="M445.859,353.214c-4.088,2.365-9.138,2.365-13.226,0l-73.443-42.403
	c-4.088-2.365-6.613-6.723-6.613-11.452l0,0c0-13.181-10.685-23.867-23.867-23.867h-1.623c-5.29,0-9.579-4.288-9.579-9.579v-45.483
	h-11.851c-5.29,0-9.579,4.288-9.579,9.579v54.987c0,5.29,4.288,9.579,9.579,9.579h25.49v23.867c0,4.729,2.525,9.088,6.613,11.452
	l73.443,42.403c4.088,2.365,9.138,2.365,13.226,0l73.443-42.403c3.813-2.206,6.265-6.148,6.577-10.507L445.859,353.214z"/>
<polygon style="fill:#EE8E3E;" points="474.427,308.603 474.427,308.723 418.317,341.116 418.317,306.599 418.237,306.459 
	444.278,291.419 444.368,291.569 "/>
<polygon style="fill:#FFEA27;" points="474.427,203.888 474.427,309.094 444.368,292.06 444.278,291.91 444.368,291.859 
	444.368,221.121 444.278,221.072 444.368,220.922 "/>
<polygon style="fill:#EE8E3E;" points="474.427,203.277 474.427,203.397 444.368,220.431 444.278,220.581 418.237,205.541 
	418.317,205.401 418.317,171.335 418.517,170.994 "/>
<g>
	<polygon style="fill:#FFEA27;" points="418.417,171.485 418.217,171.826 418.217,205.892 418.137,206.032 417.716,205.792 
		391.254,221.072 391.164,220.922 361.105,203.888 361.105,203.768 417.716,171.084 	"/>
	<polygon style="fill:#FFEA27;" points="418.317,306.599 418.317,341.116 417.816,341.407 361.205,308.723 361.205,308.603 
		391.264,291.569 391.354,291.419 417.816,306.699 418.237,306.459 	"/>
</g>
<polygon style="fill:#EE8E3E;" points="391.254,291.419 391.164,291.569 361.105,308.603 361.105,203.397 391.164,220.431 
	391.254,220.581 391.164,220.631 391.164,291.369 "/>
<polygon style="fill:#FE4583;" points="444.368,220.631 444.368,291.369 417.816,306.699 391.264,291.369 391.264,220.631 
	417.816,205.301 "/>
<path style="fill:#EA2828;" d="M439.859,290.75L439.859,290.75c-16.43-9.487-26.552-27.018-26.552-45.99v-36.857l-22.043,12.727
	v70.738l26.552,15.33l26.552-15.33v-3.221L439.859,290.75z"/>
<rect x="170.834" y="242.474" style="fill:#E0AE3F;" width="32.063" height="30.059"/>
<rect x="170.834" y="258.295" style="fill:#D89E2B;" width="32.063" height="14.233"/>
<path d="M478.184,196.768l-56.611-32.684c-2.325-1.343-5.19-1.343-7.515,0l-56.611,32.684c-2.325,1.343-3.757,3.822-3.757,6.508
	v105.446c0,2.685,1.433,5.165,3.757,6.508l56.611,32.684c1.162,0.671,2.46,1.007,3.757,1.007s2.595-0.336,3.757-1.007l56.611-32.684
	c2.325-1.343,3.757-3.822,3.757-6.508V203.276C481.941,200.592,480.508,198.111,478.184,196.768z M444.227,211.873l-18.395-10.622
	v-17.354l33.566,19.379L444.227,211.873z M410.802,200.673l-19.397,11.199l-15.17-8.597l34.567-19.956V200.673z M383.75,224.809
	v62.38l-15.029,8.517v-79.413L383.75,224.809z M391.405,300.127l19.397,11.199v17.354l-34.566-19.957L391.405,300.127z
	 M425.832,310.748l18.395-10.621l15.17,8.596l-33.565,19.379V310.748z M451.883,287.19v-10.65c0-4.151-3.365-7.515-7.515-7.515
	c-4.15,0-7.515,3.364-7.515,7.515v10.491l-19.037,10.991l-19.037-10.991v-62.061l19.037-10.991l19.037,10.991v21.512
	c0,4.151,3.365,7.515,7.515,7.515c4.15,0,7.515-3.364,7.515-7.515v-21.672l15.029-8.517v79.413L451.883,287.19z"/>
<path d="M501.633,175.597L501.633,175.597l-73.448-42.405c-6.396-3.692-14.341-3.693-20.736,0l-73.448,42.405
	c-6.395,3.693-10.367,10.574-10.367,17.958v19.361h-17.978c-9.423,0-17.09,7.666-17.09,17.09v4.953h-26.802
	c-4.15,0-7.515,3.364-7.515,7.515c0,4.151,3.365,7.515,7.515,7.515h26.802v15.029h-78.153v-15.029h21.292
	c4.15,0,7.515-3.364,7.515-7.515c0-4.151-3.365-7.515-7.515-7.515H12.237C5.49,234.959,0,240.448,0,247.195v20.614
	c0,6.747,5.49,12.237,12.237,12.237h8.804v14.302c0,7.583,6.169,13.753,13.753,13.753h16.581c7.583,0,13.753-6.169,13.753-13.753
	v-14.301h14.027v14.302c0,7.583,6.169,13.753,13.753,13.753h16.581c7.583,0,13.753-6.169,13.753-13.753v-14.302h165.323V285
	c0,9.423,7.666,17.09,17.09,17.09h17.976v16.354c0,7.384,3.973,14.265,10.368,17.958l73.447,42.405
	c3.198,1.847,6.783,2.77,10.368,2.77c3.585,0,7.171-0.924,10.368-2.77l73.448-42.405c6.395-3.693,10.367-10.574,10.367-17.958
	V193.555C512,186.171,508.027,179.29,501.633,175.597z M115.726,265.018c-4.15,0-7.515,3.364-7.515,7.515v20.54H94.184v-20.54
	c0-4.151-3.365-7.515-7.515-7.515H57.613c-4.15,0-7.515,3.364-7.515,7.515v20.54H36.07v-20.54c0-4.151-3.365-7.515-7.515-7.515
	H15.029v-15.029h148.29v15.029H115.726z M178.348,265.018v-15.029h17.033v15.029H178.348z M496.971,318.444
	c0,2.032-1.093,3.926-2.854,4.943l-73.448,42.405c-1.758,1.016-3.946,1.016-5.706,0l-73.447-42.405
	c-1.76-1.017-2.854-2.91-2.854-4.943V276.54c0-4.151-3.365-7.515-7.515-7.515c-4.15,0-7.515,3.364-7.515,7.515v10.521h-17.978
	c-1.136,0-2.061-0.925-2.061-2.061v-54.994c0-1.136,0.924-2.061,2.061-2.061h17.978v22.545c0,4.151,3.365,7.515,7.515,7.515
	c4.15,0,7.515-3.364,7.515-7.515v-56.933c0-2.032,1.093-3.926,2.854-4.943l73.448-42.405c1.758-1.015,3.946-1.017,5.706,0
	l73.447,42.405c1.76,1.017,2.854,2.91,2.854,4.943L496.971,318.444L496.971,318.444z"/>
<g>
</g>
<g>
</g>
<g>
</g>
<g>
</g>
<g>
</g>
<g>
</g>
<g>
</g>
<g>
</g>
<g>
</g>
<g>
</g>
<g>
</g>
<g>
</g>
<g>
</g>
<g>
</g>
<g>
</g>
</svg>
