<?xml version="1.0" encoding="iso-8859-1"?>
<!-- Generator: Adobe Illustrator 21.0.0, SVG Export Plug-In . SVG Version: 6.00 Build 0)  -->
<svg version="1.1" id="Capa_1" xmlns="http://www.w3.org/2000/svg" xmlns:xlink="http://www.w3.org/1999/xlink" x="0px" y="0px"
	 viewBox="0 0 512 512" style="enable-background:new 0 0 512 512;" xml:space="preserve">
<path style="fill:#FE4583;" d="M327,105.5v36H131v-36c0-54.12,43.88-98,98-98c27.06,0,51.56,10.97,69.3,28.7
	C316.03,53.94,327,78.44,327,105.5z"/>
<path style="fill:#FC3268;" d="M178,121c0-54.12,43.88-98,98-98c2.091,0,4.164,0.073,6.222,0.202
	C266.894,13.271,248.621,7.5,229,7.5c-54.12,0-98,43.88-98,98v36h47V121z"/>
<path style="fill:#EDE6F5;" d="M302,105.5v36H156v-36c0-40.25,32.75-73,73-73S302,65.25,302,105.5z"/>
<path style="fill:#E0D3F2;" d="M200.684,121.5C185.395,121.5,173,109.105,173,93.816V85.5c0-13.283,3.584-25.738,9.81-36.48
	C166.457,62.419,156,82.76,156,105.5v36h146v-20H200.684z"/>
<path style="fill:#EDE6F5;" d="M454.446,380.417l-0.781-200.629l0,0l-0.063-15.369c-0.027-6.63-5.419-11.978-12.049-11.951
	c-3.32,0.014-6.314,1.366-8.476,3.545c-2.161,2.179-3.489,5.184-3.475,8.504l0.098,24l0,0l0.746,191.999L454.446,380.417z"/>
<path style="fill:#E0D3F2;" d="M443.425,188.517L443.425,188.517l-0.098-24c-0.014-3.32,1.314-6.325,3.475-8.504
	c0.507-0.511,1.063-0.972,1.655-1.385c-1.957-1.366-4.335-2.17-6.905-2.159c-3.32,0.014-6.314,1.366-8.476,3.545
	c-2.161,2.179-3.489,5.184-3.475,8.504l0.098,24l0,0l0.746,191.999l13.725-0.056L443.425,188.517z"/>
<path style="fill:#65657F;" d="M466.58,199.92c7.06,7.06,11.42,16.81,11.42,27.58c0,21.54-17.46,39-39,39h-49v-78h49
	C449.77,188.5,459.52,192.86,466.58,199.92z"/>
<path style="fill:#5B5B72;" d="M471.835,242.99h-13.512c-19.6,0-35.488-15.889-35.488-35.488V188.5H390v78h49
	c16.084,0,29.89-9.738,35.853-23.638C473.856,242.939,472.852,242.99,471.835,242.99z"/>
<path style="fill:#FE4583;" d="M403,145.82V453.5H55V145.82c0-8.46,6.86-15.32,15.32-15.32h317.36
	C396.14,130.5,403,137.36,403,145.82z"/>
<path style="fill:#FC3268;" d="M91.45,130.5L91.45,130.5H70.32c-8.461,0-15.32,6.859-15.32,15.32V453.5h348v-33.705h-22.255
	C220.972,419.795,91.45,290.273,91.45,130.5z"/>
<path style="fill:#65657F;" d="M424,456.96v42.935c0,2.543-2.062,4.605-4.605,4.605H38.605c-2.543,0-4.605-2.062-4.605-4.605V456.96
	c0-7.434,6.026-13.46,13.46-13.46h363.08C417.974,443.5,424,449.526,424,456.96z"/>
<path style="fill:#5B5B72;" d="M107.504,484c-22.368,0-40.5-18.132-40.5-40.5l0,0H47.46c-7.434,0-13.46,6.026-13.46,13.46v42.935
	c0,2.543,2.062,4.605,4.605,4.605h380.79c2.543,0,4.605-2.062,4.605-4.605V484H107.504z"/>
<path style="fill:#FE4583;" d="M276,86.47v14.06c0,2.74-2.23,4.97-4.97,4.97h-84.06c-2.74,0-4.97-2.23-4.97-4.97V86.47
	c0-2.74,2.23-4.97,4.97-4.97h84.06C273.77,81.5,276,83.73,276,86.47z"/>
<path style="fill:#F8D46E;" d="M276,86.47v14.06c0,2.74-2.23,4.97-4.97,4.97H246v-24h25.03C273.77,81.5,276,83.73,276,86.47z"/>
<rect x="214" y="81.5" style="fill:#FE715A;" width="32" height="24"/>
<path style="fill:#EDE6F5;" d="M269,168.25v166c0,3.73-3.02,6.75-6.75,6.75h-64.5c-3.73,0-6.75-3.02-6.75-6.75v-166
	c0-3.73,3.02-6.75,6.75-6.75h64.5C265.98,161.5,269,164.52,269,168.25z"/>
<path style="fill:#CF8AFA;" d="M230.025,314.451c-0.578-0.536-1.472-0.536-2.05,0L224,318.14l-11.062,11.062
	c-0.536,0.536-0.59,1.387-0.127,1.987l7.581,9.811h17.217l7.581-9.811c0.464-0.6,0.409-1.451-0.127-1.987L234,318.14
	L230.025,314.451z"/>
<path style="fill:#FFEA27;" d="M242.81,161.5c3.8,3.47,6.19,8.45,6.19,14c0,10.49-8.51,19-19,19s-19-8.51-19-19
	c0-5.55,2.39-10.53,6.19-14H242.81z"/>
<path id="SVGCleanerId_0" style="fill:#FFEA27;" d="M136.81,161.5c3.8,3.47,6.19,8.45,6.19,14c0,10.49-8.51,19-19,19s-19-8.51-19-19
	c0-5.55,2.39-10.53,6.19-14H136.81z"/>
<path style="fill:#EDE6F5;" d="M163,168.25v166c0,3.73-3.02,6.75-6.75,6.75h-64.5c-3.73,0-6.75-3.02-6.75-6.75v-166
	c0-3.73,3.02-6.75,6.75-6.75h64.5C159.98,161.5,163,164.52,163,168.25z"/>
<path style="fill:#CF8AFA;" d="M124.584,314.07c-0.346-0.321-0.882-0.321-1.228,0l-4.386,4.07l-11.438,11.438
	c-0.321,0.321-0.354,0.831-0.076,1.191L115.362,341h17.217l7.906-10.231c0.278-0.359,0.245-0.869-0.076-1.191L128.97,318.14
	L124.584,314.07z"/>
<g>
	<path id="SVGCleanerId_0_1_" style="fill:#FFEA27;" d="M136.81,161.5c3.8,3.47,6.19,8.45,6.19,14c0,10.49-8.51,19-19,19
		s-19-8.51-19-19c0-5.55,2.39-10.53,6.19-14H136.81z"/>
</g>
<path style="fill:#EDE6F5;" d="M375,168.25v166c0,3.73-3.02,6.75-6.75,6.75h-64.5c-3.73,0-6.75-3.02-6.75-6.75v-166
	c0-3.73,3.02-6.75,6.75-6.75h64.5C371.98,161.5,375,164.52,375,168.25z"/>
<g>
	<path style="fill:#E0D3F2;" d="M163,327.25c-32.585,0-59-26.415-59-59V161.5H91.75c-3.728,0-6.75,3.022-6.75,6.75v166
		c0,3.728,3.022,6.75,6.75,6.75h64.5c3.728,0,6.75-3.022,6.75-6.75V327.25L163,327.25z"/>
	<path style="fill:#E0D3F2;" d="M269,327.25c-32.585,0-59-26.415-59-59V161.5h-12.25c-3.728,0-6.75,3.022-6.75,6.75v166
		c0,3.728,3.022,6.75,6.75,6.75h64.5c3.728,0,6.75-3.022,6.75-6.75V327.25L269,327.25z"/>
	<path style="fill:#E0D3F2;" d="M375,327.25c-32.585,0-59-26.415-59-59V161.5h-12.25c-3.728,0-6.75,3.022-6.75,6.75v166
		c0,3.728,3.022,6.75,6.75,6.75h64.5c3.728,0,6.75-3.022,6.75-6.75V327.25L375,327.25z"/>
</g>
<path style="fill:#CF8AFA;" d="M337.199,193.948l14.986-19.393c0.466-0.603,0.411-1.459-0.128-1.998L341,161.5h-10l-11.057,11.057
	c-0.539,0.539-0.594,1.395-0.128,1.998l14.986,19.393C335.408,194.733,336.592,194.733,337.199,193.948z"/>
<path style="fill:#FE4583;" d="M351.631,317.179c-4.26-4.25-10.8-4.82-15.66-1.7c-4.86-3.12-11.4-2.55-15.65,1.7
	c-0.11,0.1-0.21,0.21-0.31,0.32c-4.47,4.79-4.25,12.3,0.32,17l6.315,6.5h18.651l6.315-6.5c4.57-4.7,4.79-12.21,0.32-17
	C351.831,317.39,351.731,317.28,351.631,317.179z"/>
<path style="fill:#82DBBA;" d="M340,387.64v11.72c0,3.94-3.2,7.14-7.14,7.14H125.14c-3.94,0-7.14-3.2-7.14-7.14v-11.72
	c0-3.94,3.2-7.14,7.14-7.14h207.72C336.8,380.5,340,383.7,340,387.64z"/>
<g>
	<path style="fill:#FE4583;" d="M245.93,242c4.47,4.79,4.25,12.3-0.32,17l-13.035,13.418c-1.427,1.469-3.784,1.469-5.211,0
		L214.33,259c-4.57-4.7-4.79-12.21-0.32-17c0.1-0.11,0.2-0.22,0.31-0.32c4.25-4.25,10.79-4.82,15.65-1.7
		c4.86-3.12,11.4-2.55,15.66,1.7C245.73,241.78,245.83,241.89,245.93,242z"/>
	<path style="fill:#FE4583;" d="M139.93,242c4.47,4.79,4.25,12.3-0.32,17l-13.035,13.418c-1.427,1.469-3.784,1.469-5.211,0
		L108.33,259c-4.57-4.7-4.79-12.21-0.32-17c0.1-0.11,0.2-0.22,0.31-0.32c4.25-4.25,10.79-4.82,15.65-1.7
		c4.86-3.12,11.4-2.55,15.66,1.7C139.73,241.78,139.83,241.89,139.93,242z"/>
</g>
<circle style="fill:#FFEA27;" cx="336" cy="256.5" r="19"/>
<path style="fill:#65657F;" d="M456.05,375.45c2.44,2.45,3.95,5.82,3.95,9.55c0,7.46-6.04,13.5-13.5,13.5h-9
	c-3.73,0-7.1-1.51-9.55-3.95c-2.44-2.45-3.95-5.82-3.95-9.55c0-7.46,6.04-13.5,13.5-13.5h9C450.23,371.5,453.6,373.01,456.05,375.45
	z"/>
<path style="fill:#5B5B72;" d="M456.5,393.5h-9c-3.73,0-7.1-1.51-9.55-3.95c-2.44-2.45-3.95-5.82-3.95-9.55
	c0-3.212,1.125-6.158,2.996-8.475C429.772,371.792,424,377.71,424,385c0,3.73,1.51,7.1,3.95,9.55c2.45,2.44,5.82,3.95,9.55,3.95h9
	c4.248,0,8.03-1.962,10.504-5.025C456.835,393.481,456.67,393.5,456.5,393.5z"/>
<path d="M186.972,74c-6.877,0-12.472,5.596-12.472,12.473v14.055c0,6.877,5.595,12.473,12.472,12.473h84.056
	c6.877,0,12.472-5.596,12.472-12.473V86.473c0-6.877-5.595-12.473-12.472-12.473H186.972z M189.5,89h17v9h-17V89z M221.5,98v-9h17v9
	H221.5z M268.5,98h-15v-9h15V98z"/>
<path d="M197.753,348.5h64.494c7.859,0,14.253-6.394,14.253-14.253V168.253c0-7.859-6.394-14.253-14.253-14.253h-64.494
	c-7.859,0-14.253,6.394-14.253,14.253v165.994C183.5,342.106,189.894,348.5,197.753,348.5z M222.97,331.137l7.03-7.03l7.03,7.03
	l-1.826,2.363h-10.407L222.97,331.137z M241.5,175.5c0,6.341-5.159,11.5-11.5,11.5s-11.5-5.159-11.5-11.5
	c0-2.366,0.716-4.601,2.037-6.5h18.926C240.784,170.899,241.5,173.134,241.5,175.5z M198.5,169h5.825
	c-0.539,2.11-0.825,4.292-0.825,6.5c0,14.612,11.888,26.5,26.5,26.5s26.5-11.888,26.5-26.5c0-2.208-0.286-4.39-0.825-6.5h5.825
	v164.5h-7.633c1.211-2.77,0.66-6.08-1.564-8.304l-17-17c-2.929-2.928-7.678-2.928-10.606,0l-17,17
	c-2.224,2.224-2.775,5.533-1.564,8.304H198.5V169z"/>
<path d="M156.247,348.5c7.859,0,14.253-6.394,14.253-14.253V313.5c0-4.143-3.358-7.5-7.5-7.5s-7.5,3.357-7.5,7.5v20h-7.633
	c1.211-2.77,0.66-6.08-1.564-8.304l-17-17c-2.929-2.928-7.678-2.928-10.606,0l-17,17c-2.224,2.224-2.775,5.533-1.564,8.304H92.5V169
	h5.825c-0.539,2.11-0.825,4.292-0.825,6.5c0,14.612,11.888,26.5,26.5,26.5s26.5-11.888,26.5-26.5c0-2.208-0.286-4.39-0.825-6.5
	h5.825v114.5c0,4.143,3.358,7.5,7.5,7.5s7.5-3.357,7.5-7.5V168.253c0-7.859-6.394-14.253-14.253-14.253H91.753
	c-7.859,0-14.253,6.394-14.253,14.253v165.994c0,7.859,6.394,14.253,14.253,14.253H156.247z M135.5,175.5
	c0,6.341-5.159,11.5-11.5,11.5s-11.5-5.159-11.5-11.5c0-2.366,0.716-4.601,2.037-6.5h18.926
	C134.784,170.899,135.5,173.134,135.5,175.5z M116.97,331.137l7.03-7.03l7.03,7.03l-1.826,2.363h-10.407L116.97,331.137z"/>
<path d="M368.247,154h-64.494c-7.859,0-14.253,6.394-14.253,14.253v165.994c0,7.859,6.394,14.253,14.253,14.253h64.494
	c7.859,0,14.253-6.394,14.253-14.253V168.253C382.5,160.394,376.106,154,368.247,154z M343.03,174.137l-7.03,9.098l-7.03-9.098
	l5.136-5.137h3.787L343.03,174.137z M325.706,328.777c-1.809-1.862-1.905-4.852-0.21-6.668l0.123-0.127
	c1.67-1.671,4.321-1.961,6.305-0.689c2.467,1.58,5.628,1.58,8.095,0c1.981-1.271,4.633-0.982,6.304,0.689l0.127,0.131
	c1.691,1.813,1.595,4.802-0.214,6.664l-4.589,4.723h-11.352L325.706,328.777z M367.5,333.5h-6.617
	c3.222-7.104,2.101-15.654-3.464-21.617c-0.16-0.172-0.323-0.34-0.49-0.508c-5.534-5.534-13.796-7.237-20.958-4.693
	c-7.161-2.543-15.424-0.842-20.958,4.693c-0.167,0.168-0.331,0.336-0.486,0.504c-5.568,5.966-6.69,14.517-3.468,21.621H304.5V169
	h8.509c-2.002,2.662-2.032,6.383,0.056,9.086l17,22c1.42,1.838,3.612,2.914,5.935,2.914s4.515-1.076,5.935-2.914l17-22
	c2.088-2.703,2.058-6.424,0.056-9.086h8.509V333.5z"/>
<path d="M332.855,373h-207.71c-8.075,0-14.645,6.569-14.645,14.645v11.711c0,8.075,6.57,14.645,14.645,14.645h207.71
	c8.075,0,14.645-6.569,14.645-14.645v-11.711C347.5,379.569,340.93,373,332.855,373z M332.5,399h-207v-11h207V399z"/>
<path d="M224.592,280.331c1.412,1.453,3.353,2.273,5.379,2.273s3.967-0.82,5.379-2.273l15.644-16.101
	c7.422-7.639,7.607-19.652,0.426-27.348c-0.16-0.172-0.323-0.34-0.49-0.508c-5.534-5.533-13.795-7.237-20.958-4.693
	c-7.162-2.543-15.424-0.842-20.958,4.693c-0.167,0.168-0.331,0.336-0.486,0.504c-7.186,7.699-7,19.713,0.422,27.352L224.592,280.331
	z M219.496,247.109l0.123-0.127c0.974-0.974,2.28-1.479,3.594-1.479c0.94,0,1.884,0.259,2.711,0.789c2.467,1.58,5.628,1.58,8.095,0
	c1.981-1.271,4.633-0.982,6.304,0.689l0.127,0.131c1.691,1.813,1.595,4.802-0.214,6.664l-10.265,10.564l-10.265-10.564
	C217.896,251.915,217.8,248.926,219.496,247.109z"/>
<path d="M144.929,236.375c-5.535-5.533-13.796-7.237-20.958-4.693c-7.161-2.543-15.424-0.842-20.958,4.693
	c-0.167,0.168-0.331,0.336-0.486,0.504c-7.186,7.699-7,19.713,0.422,27.352l15.644,16.101c1.412,1.453,3.353,2.273,5.379,2.273
	s3.967-0.82,5.379-2.273l15.644-16.101c7.422-7.639,7.607-19.652,0.426-27.348C145.259,236.711,145.096,236.543,144.929,236.375z
	 M134.235,253.777l-10.265,10.564l-10.265-10.564c-1.809-1.862-1.905-4.852-0.21-6.668l0.123-0.127
	c0.974-0.974,2.28-1.479,3.594-1.479c0.94,0,1.884,0.259,2.711,0.789c2.467,1.58,5.628,1.58,8.095,0
	c1.981-1.271,4.633-0.982,6.304,0.689l0.127,0.131C136.141,248.926,136.044,251.915,134.235,253.777z"/>
<path d="M336,230c-14.612,0-26.5,11.888-26.5,26.5S321.388,283,336,283s26.5-11.888,26.5-26.5S350.612,230,336,230z M336,268
	c-6.341,0-11.5-5.159-11.5-11.5S329.659,245,336,245s11.5,5.159,11.5,11.5S342.341,268,336,268z"/>
<path d="M485.5,227.5c0-17.482-9.702-32.735-24-40.676V164.5c0-10.752-8.748-19.5-19.5-19.5s-19.5,8.748-19.5,19.5V181h-12v-35.185
	c0-12.58-10.235-22.815-22.816-22.815H334.5v-17.5C334.5,47.327,287.173,0,229,0S123.5,47.327,123.5,105.5V123H70.316
	C57.735,123,47.5,133.235,47.5,145.815V436h-0.036c-11.56,0-20.964,9.404-20.964,20.964V504.5c0,4.143,3.358,7.5,7.5,7.5h390
	c4.142,0,7.5-3.357,7.5-7.5v-47.536c0-11.56-9.404-20.964-20.964-20.964H410.5V274h12v40.5c0,4.143,3.358,7.5,7.5,7.5
	s7.5-3.357,7.5-7.5V274h1.5c2.554,0,5.057-0.215,7.5-0.613V364h-9v-19.5c0-4.143-3.358-7.5-7.5-7.5s-7.5,3.357-7.5,7.5v25.831
	c-3.706,3.789-6,8.963-6,14.669c0,11.579,9.42,21,21,21h9c11.58,0,21-9.421,21-21c0-5.706-2.294-10.88-6-14.669V268.176
	C475.798,260.235,485.5,244.982,485.5,227.5z M446.5,391h-9c-3.309,0-6-2.691-6-6s2.691-6,6-6h9c3.309,0,6,2.691,6,6
	S449.809,391,446.5,391z M437.5,164.5c0-2.481,2.019-4.5,4.5-4.5s4.5,2.019,4.5,4.5v17.113c-2.443-0.398-4.946-0.613-7.5-0.613h-1.5
	V164.5z M138.5,105.5c0-49.902,40.598-90.5,90.5-90.5s90.5,40.598,90.5,90.5V123h-10v-17.5c0-44.388-36.112-80.5-80.5-80.5
	s-80.5,36.112-80.5,80.5V123h-10V105.5z M294.5,123h-131v-17.5c0-36.117,29.383-65.5,65.5-65.5s65.5,29.383,65.5,65.5V123z
	 M416.5,456.964V497h-375v-40.036c0-3.288,2.675-5.964,5.964-5.964H55h348h7.536C413.825,451,416.5,453.676,416.5,456.964z
	 M62.5,436V145.815c0-4.31,3.506-7.815,7.816-7.815H131h25h146h25h60.684c4.31,0,7.816,3.506,7.816,7.815V436H62.5z M410.5,259v-63
	H439c17.369,0,31.5,14.131,31.5,31.5S456.369,259,439,259H410.5z"/>
<g>
</g>
<g>
</g>
<g>
</g>
<g>
</g>
<g>
</g>
<g>
</g>
<g>
</g>
<g>
</g>
<g>
</g>
<g>
</g>
<g>
</g>
<g>
</g>
<g>
</g>
<g>
</g>
<g>
</g>
</svg>
