<?xml version="1.0" encoding="iso-8859-1"?>
<!-- Generator: Adobe Illustrator 21.0.0, SVG Export Plug-In . SVG Version: 6.00 Build 0)  -->
<svg version="1.1" id="Capa_1" xmlns="http://www.w3.org/2000/svg" xmlns:xlink="http://www.w3.org/1999/xlink" x="0px" y="0px"
	 viewBox="0 0 512.002 512.002" style="enable-background:new 0 0 512.002 512.002;" xml:space="preserve">
<path style="fill:#EDE6F5;" d="M123.753,246.865l-17.113-57.082c-8.556-23.645-9.484-49.383-2.643-73.586l1.187-4.178
	c5.914-20.922-9.813-41.714-31.563-41.714c-18.628,0-32.809,15.248-32.809,32.739c0,3.052,0.429,6.173,1.346,9.294l1.157,3.929
	c7.19,24.502,6.392,50.66-2.284,74.683l-22.189,66.805c-14.789,50.041-14.789,103.294,0,153.335
	c2.593,8.786,7.918,16.185,14.899,21.391c6.961,5.206,15.577,8.217,24.732,8.217h29.578c15.098,0,28.631-8.177,35.861-20.782
	l1.373-2.224L123.753,246.865z"/>
<path style="fill:#E0D3F2;" d="M92.589,439.951c-9.155,0-17.771-3.012-24.732-8.217c-6.981-5.206-12.306-12.605-14.899-21.391
	c-14.789-50.041-14.789-103.294,0-153.335l22.189-66.805c8.676-24.023,9.474-50.181,2.284-74.683l-1.157-3.929
	c-0.917-3.121-1.346-6.243-1.346-9.294c0-11.304,5.928-21.665,15.146-27.585c-4.791-2.786-10.386-4.407-16.452-4.407
	c-18.628,0-32.809,15.248-32.809,32.739c0,3.052,0.429,6.173,1.346,9.294l1.157,3.929c7.19,24.502,6.392,50.66-2.284,74.683
	l-22.189,66.805c-14.789,50.041-14.789,103.294,0,153.335c2.593,8.786,7.918,16.185,14.899,21.391
	c6.961,5.206,15.577,8.217,24.732,8.217h29.578c2.647,0,5.24-0.265,7.765-0.748H92.589z"/>
<path style="fill:#EDE6F5;" d="M497.109,270.4l-24.173-80.617c-8.556-23.645-9.474-49.383-2.633-73.586l1.177-4.178
	c5.924-20.922-9.803-41.714-31.553-41.714c-18.638,0-32.809,15.248-32.809,32.739c0,3.052,0.429,6.173,1.346,9.294l1.147,3.929
	c6.751,22.996,6.462,47.449-0.768,70.216l-14.241,241.132c7.639,8.147,18.459,13.084,30.166,13.084h29.578
	c19.057,0,35.641-13.024,40.159-31.543l2.603-10.71C507.36,356.382,507.36,312.463,497.109,270.4z"/>
<path style="fill:#E0D3F2;" d="M417.559,427.614l14.241-241.132c7.23-22.767,7.519-47.219,0.768-70.216l-1.147-3.929
	c-0.917-3.121-1.346-6.243-1.346-9.294c0-13.668,8.653-25.966,21.329-30.689c-3.546-1.321-7.405-2.05-11.476-2.05
	c-18.638,0-32.809,15.248-32.809,32.739c0,3.052,0.429,6.173,1.346,9.294l1.147,3.929c6.751,22.996,6.462,47.449-0.768,70.216
	l-14.241,241.132c7.639,8.147,18.459,13.084,30.166,13.084h22.955C436.018,440.698,425.198,435.762,417.559,427.614z"/>
<path style="fill:#EDE6F5;" d="M270.077,70.305c-18.638,0-32.809,15.248-32.809,32.739c0,3.052,0.429,6.173,1.346,9.294l1.157,3.929
	c7.19,24.502,6.392,50.66-2.294,74.683l-7.25,21.84v43.225h68.484l-0.911-86.057c-3.171-17.801-2.314-36.18,2.653-53.761
	l1.177-4.178C307.554,91.096,291.827,70.305,270.077,70.305z"/>
<path style="fill:#E0D3F2;" d="M261.674,190.58c8.686-24.023,9.484-50.181,2.294-74.683l-1.157-3.929
	c-0.917-3.121-1.346-6.243-1.346-9.294c0-13.442,8.373-25.549,20.707-30.44c-3.716-1.472-7.782-2.3-12.092-2.3
	c-18.638,0-32.809,15.248-32.809,32.739c0,3.052,0.429,6.173,1.346,9.294l1.157,3.929c7.19,24.502,6.392,50.66-2.294,74.683
	l-7.25,21.839v43.225h24.196v-43.225L261.674,190.58z"/>
<path style="fill:#D9CEEA;" d="M219.208,227.39l-11.279-37.606c-8.556-23.645-9.474-49.383-2.633-73.586l1.177-4.178
	c5.924-20.922-9.803-41.714-31.553-41.714c-18.638,0-32.809,15.248-32.809,32.739c0,3.052,0.429,6.173,1.346,9.294l1.157,3.929
	c7.19,24.502,6.392,50.66-2.294,74.683l-18.569,55.915l-3.62,10.89c-14.789,50.041-14.789,103.294,0,153.335
	c0.927,3.131,2.204,6.083,3.78,8.826c2.832,4.956,6.632,9.214,11.119,12.565c6.971,5.206,15.577,8.217,24.732,8.217h29.578
	c13.164,0,25.15-6.223,32.789-16.165L219.208,227.39z"/>
<path style="fill:#C3B6DD;" d="M193.878,439.951c-9.155,0-17.761-3.012-24.732-8.217c-4.488-3.351-8.287-7.609-11.119-12.565
	c-1.576-2.742-2.852-5.694-3.78-8.826c-14.789-50.041-14.789-103.294,0-153.335l3.62-10.89l18.569-55.915
	c8.686-24.023,9.484-50.181,2.294-74.683l-1.157-3.929c-0.917-3.121-1.346-6.243-1.346-9.294c0-11.305,5.925-21.666,15.144-27.586
	c-4.79-2.786-10.384-4.406-16.449-4.406c-18.638,0-32.809,15.248-32.809,32.739c0,3.052,0.429,6.173,1.346,9.294l1.157,3.929
	c7.19,24.502,6.392,50.66-2.294,74.683l-18.569,55.915l-3.62,10.89c-14.789,50.041-14.789,103.294,0,153.335
	c0.927,3.131,2.204,6.083,3.78,8.826c2.832,4.956,6.632,9.214,11.119,12.565c6.971,5.206,15.577,8.217,24.732,8.217h29.578
	c2.65,0,5.248-0.263,7.776-0.748H193.878z"/>
<g>
	<path style="fill:#FE4583;" d="M488.263,241.93l8.586,28.651h-28.102c-2.433-10.022-5.963-19.616-10.461-28.651L488.263,241.93
		L488.263,241.93z"/>
	<path style="fill:#FE4583;" d="M472.696,190.023l5.435,18.14h-43.48l-0.01,0.01c-7.749-8.157-16.494-15.377-26.038-21.451
		c0.758-2.383,1.436-4.787,2.034-7.2h58.797C470.363,183.063,471.45,186.563,472.696,190.023z"/>
</g>
<g>
	<path style="fill:#FC3268;" d="M431.799,186.483c0.731-2.303,1.372-4.626,1.962-6.96h-22.956c-0.589,2.334-1.231,4.657-1.962,6.96
		l-0.023,0.383c7.899,5.048,15.242,10.888,21.929,17.39L431.799,186.483z"/>
	<path style="fill:#FC3268;" d="M241.028,179.282h32.41c-16.554,8.217-31.234,19.666-43.21,33.507l7.25-21.84
		C238.864,187.11,240.05,183.211,241.028,179.282z"/>
</g>
<path style="fill:#FE4583;" d="M213.374,207.923h-76.688l5.634-16.973c1.386-3.839,2.573-7.739,3.55-11.668h58.797
	c0.927,3.54,2.014,7.04,3.261,10.501L213.374,207.923z"/>
<path style="fill:#FC3268;" d="M179.783,179.282h-33.912c-0.121,0.484-0.253,0.965-0.38,1.448c-0.128,0.483-0.247,0.967-0.38,1.449
	c-0.341,1.235-0.709,2.463-1.09,3.69c-0.121,0.387-0.244,0.772-0.368,1.158c-0.423,1.312-0.861,2.621-1.33,3.92
	c0,0.001-0.001,0.002-0.001,0.003l-0.055,0.166l-5.58,16.807h33.864l5.885-17.721C177.736,186.608,178.837,182.961,179.783,179.282z
	"/>
<path style="fill:#FE4583;" d="M125.468,241.689h85.533c-4.498,9.035-8.028,18.628-10.471,28.651h-69.737h-14.041
	c1.017-4.218,2.144-8.417,3.381-12.585l3.62-10.89L125.468,241.689z"/>
<path style="fill:#FC3268;" d="M125.472,241.689l-1.699,5.116l-0.02,0.06l-2.413,7.26l-1.207,3.63
	c-0.001,0.002-0.001,0.004-0.002,0.005c-0.553,1.867-1.078,3.743-1.588,5.62c-0.142,0.52-0.277,1.041-0.416,1.562
	c-0.475,1.796-0.94,3.594-1.375,5.397h14.041h19.888c1.076-4.466,2.261-8.912,3.566-13.332l3.62-10.89l1.471-4.428L125.472,241.689
	L125.472,241.689z"/>
<path style="fill:#FE4583;" d="M122.207,241.689l1.546,5.176l-3.62,10.89c-1.237,4.168-2.363,8.367-3.381,12.585h-0.01H15.462h-0.01
	c1.027-4.218,2.154-8.417,3.391-12.585l5.335-16.065h98.019L122.207,241.689L122.207,241.689z"/>
<path style="fill:#FC3268;" d="M24.179,241.689l-5.336,16.066c-0.001,0.002-0.001,0.004-0.002,0.006
	c-0.547,1.845-1.065,3.698-1.571,5.554c-0.17,0.624-0.333,1.249-0.499,1.874c-0.369,1.396-0.729,2.794-1.075,4.196
	c-0.079,0.318-0.159,0.637-0.236,0.955h0.001h33.929c1.076-4.466,2.261-8.912,3.566-13.332l5.088-15.319L24.179,241.689
	L24.179,241.689z"/>
<path style="fill:#FE4583;" d="M106.64,189.783l5.435,18.14H35.397l5.634-16.973c1.386-3.839,2.573-7.729,3.55-11.668h58.797
	C104.296,182.812,105.383,186.323,106.64,189.783z"/>
<path style="fill:#FC3268;" d="M78.49,179.282H44.582c-0.156,0.628-0.326,1.254-0.493,1.879c-0.079,0.296-0.152,0.593-0.233,0.889
	c-0.363,1.321-0.755,2.636-1.165,3.946c-0.096,0.307-0.194,0.613-0.293,0.92c-0.434,1.349-0.884,2.695-1.366,4.032
	c0,0.001-0.001,0.002-0.001,0.003l-0.039,0.116l-5.596,16.857H69.26l5.886-17.721C76.446,186.608,77.545,182.961,78.49,179.282z"/>
<path style="fill:#EDE6F5;" d="M229.65,349.491h-25.032c1.157,20.782,4.717,41.445,10.67,61.599
	c1.476,4.976,3.819,9.504,6.841,13.443c2.324,3.022,5.036,5.694,8.058,7.948c6.971,5.206,15.577,8.217,24.732,8.217h29.578
	c5.934,0,11.638-1.266,16.803-3.56l2.928-4.818L229.65,349.491z"/>
<path style="fill:#AC60FC;" d="M408.604,186.723c38.503,24.512,64.053,67.573,64.053,116.597
	c0,54.848-31.971,102.237-78.293,124.535c-18.1,8.716-38.404,13.602-59.834,13.602c-11.538,0-22.757-1.416-33.467-4.079
	c-45.005-11.199-81.275-44.467-96.682-87.647c-5.176-14.51-7.988-30.127-7.988-46.411c0-27.943,8.297-53.951,22.577-75.69
	c3.341-5.106,7.031-9.982,11.019-14.59v-0.01c17.571-20.314,40.957-35.462,67.573-42.831c11.767-3.261,24.163-5.006,36.968-5.006
	C361.783,165.192,387.193,173.09,408.604,186.723z"/>
<path style="fill:#954BF7;" d="M374.819,417.817c-11.538,0-22.757-1.416-33.467-4.079c-45.005-11.199-81.275-44.467-96.682-87.647
	c-5.176-14.51-7.988-30.127-7.988-46.411c0-27.943,8.297-53.951,22.577-75.69c3.341-5.106,7.031-9.982,11.019-14.59v-0.01
	c4.777-5.523,9.996-10.648,15.581-15.353c-21.767,8.196-40.927,21.716-55.871,38.993v0.01c-3.989,4.607-7.679,9.484-11.019,14.59
	c-14.28,21.74-22.577,47.748-22.577,75.69c0,16.285,2.812,31.902,7.988,46.411c15.407,43.18,51.677,76.448,96.682,87.647
	c10.71,2.663,21.929,4.079,33.467,4.079c21.431,0,41.734-4.886,59.834-13.602c10.51-5.059,20.271-11.422,29.097-18.859
	C408.329,414.692,391.936,417.817,374.819,417.817z"/>
<g>
	<ellipse style="fill:#8048BD;" cx="286.439" cy="372.898" rx="12.281" ry="12.276"/>
	<ellipse style="fill:#8048BD;" cx="250.618" cy="339.131" rx="12.276" ry="12.281"/>
	<ellipse style="fill:#8048BD;" cx="298.715" cy="324.811" rx="12.281" ry="12.276"/>
</g>
<path d="M504.139,268.872c-0.031-0.127-0.065-0.252-0.103-0.378l-24.175-80.618c-0.04-0.134-0.084-0.266-0.132-0.396
	c-8.073-22.311-8.928-46.172-2.472-69.004l1.181-4.177c3.464-12.25,1.046-25.099-6.635-35.253
	c-7.681-10.153-19.387-15.977-32.118-15.977c-12.811,0-24.561,5.881-32.239,16.137c-7.678,10.255-10.011,23.186-6.403,35.479
	l1.155,3.93c5.453,18.579,6.018,38.011,1.743,56.737c-20.647-11.245-44.299-17.638-69.418-17.638
	c-10.532,0-20.803,1.134-30.706,3.269c-1.497-14.241-0.288-28.785,3.591-42.506l1.181-4.177c3.464-12.25,1.046-25.099-6.635-35.253
	c-7.681-10.153-19.387-15.977-32.118-15.977c-12.811,0-24.561,5.881-32.239,16.137c-7.678,10.255-10.011,23.186-6.403,35.479
	l1.155,3.93c6.791,23.136,6.05,47.352-2.142,70.029c-0.022,0.062-0.043,0.123-0.064,0.184l-6.86,20.654
	c-0.481,0.569-0.961,1.14-1.434,1.716l-6.994-23.321c-0.04-0.134-0.084-0.266-0.131-0.396c-8.074-22.311-8.928-46.172-2.473-69.003
	l1.182-4.177c3.463-12.251,1.045-25.1-6.636-35.254c-7.681-10.154-19.386-15.977-32.118-15.977
	c-12.811,0-24.561,5.881-32.239,16.137c-7.678,10.255-10.011,23.186-6.403,35.478l1.154,3.932
	c6.791,23.135,6.05,47.351-2.142,70.029c-0.022,0.061-0.043,0.122-0.064,0.183l-11.11,33.45l-10.316-34.402
	c-0.04-0.134-0.084-0.266-0.131-0.396c-8.074-22.311-8.928-46.172-2.472-69.004l1.181-4.177c3.464-12.25,1.046-25.099-6.635-35.253
	c-7.681-10.153-19.387-15.977-32.118-15.977c-12.811,0-24.561,5.881-32.239,16.137c-7.678,10.255-10.011,23.186-6.403,35.478
	l1.154,3.931c6.791,23.137,6.05,47.352-2.142,70.029c-0.022,0.062-0.043,0.123-0.064,0.184l-22.192,66.812
	c-0.026,0.079-0.051,0.158-0.075,0.237c-15.233,51.542-15.233,106.027,0,157.57c6.086,20.591,25.333,34.972,46.805,34.972h29.579
	c13.761,0,26.745-5.869,35.881-15.77c9.064,9.779,21.985,15.771,35.839,15.771h29.576c12.151,0,23.915-4.649,32.83-12.721
	c8.797,7.957,20.402,12.72,32.75,12.72h29.577c6.017,0,11.871-1.082,17.439-3.219c10.553,2.44,21.541,3.731,32.825,3.731
	c20.466,0,40.269-4.224,58.403-12.154c8.777,7.447,20.019,11.642,31.604,11.642h29.577c22.576,0,42.076-15.32,47.421-37.254
	l2.61-10.712C514.623,357.412,514.623,311.913,504.139,268.872z M465.592,192.371l2.494,8.317h-30.378
	c-4.899-4.925-10.148-9.502-15.704-13.691H463.8C464.36,188.796,464.951,190.589,465.592,192.371z M472.571,215.646l5.639,18.806
	h-15.425c-3.552-6.589-7.599-12.873-12.088-18.806H472.571z M469.782,249.412h12.914l4.106,13.691h-12.323
	C473.138,258.439,471.566,253.872,469.782,249.412z M419.423,88.17c4.826-6.446,12.212-10.143,20.264-10.143
	c8.002,0,15.36,3.66,20.188,10.042c4.828,6.381,6.347,14.458,4.17,22.159l-1.181,4.177c-5.363,18.968-6.256,38.562-2.75,57.632
	h-40.258c3.317-19.142,2.233-38.778-3.303-57.637l-1.155-3.93C413.129,102.744,414.596,94.617,419.423,88.17z M249.574,88.17
	c4.826-6.446,12.212-10.143,20.264-10.143c8.002,0,15.36,3.66,20.188,10.042c4.828,6.381,6.347,14.458,4.17,22.159l-1.182,4.177
	c-4.612,16.313-5.9,33.65-3.802,50.535c-6.063,1.99-11.955,4.36-17.639,7.097H250.02c3.323-19.105,2.246-38.689-3.317-57.637
	l-1.155-3.93C243.282,102.744,244.747,94.617,249.574,88.17z M194.568,263.102h-68.352c0.27-0.956,4.411-13.691,4.411-13.691h68.638
	C197.482,253.872,195.911,258.439,194.568,263.102z M25.738,260.236l3.595-10.824h85.533c0,0-3.514,11.271-4.158,13.691H24.92
	C25.191,262.147,25.456,261.189,25.738,260.236z M50.028,186.998H97.5c0.56,1.799,1.151,3.592,1.792,5.374l2.494,8.317h-56.27
	l2.343-7.053C48.652,191.435,49.36,189.22,50.028,186.998z M106.272,215.646l5.639,18.806h-77.61l6.247-18.806H106.272z
	 M206.262,234.453h-70.666l6.247-18.806h65.725l3.275,10.922C209.238,229.145,207.707,231.773,206.262,234.453z M151.323,186.998
	h47.473c0.56,1.798,1.151,3.591,1.792,5.373l2.494,8.318h-56.27l2.343-7.052C149.946,191.436,150.654,189.221,151.323,186.998z
	 M154.418,88.17c4.826-6.446,12.212-10.143,20.264-10.143c8.002,0,15.36,3.66,20.188,10.042c4.828,6.381,6.347,14.458,4.17,22.159
	l-1.182,4.177c-5.363,18.968-6.255,38.562-2.75,57.632h-40.245c3.324-19.105,2.245-38.688-3.317-57.635l-1.154-3.932
	C148.125,102.744,149.592,94.617,154.418,88.17z M53.123,88.17c4.826-6.446,12.212-10.143,20.264-10.143
	c8.002,0,15.36,3.66,20.188,10.042c4.828,6.381,6.347,14.458,4.17,22.159l-1.182,4.177c-5.363,18.968-6.255,38.562-2.75,57.632
	H53.568c3.323-19.105,2.245-38.689-3.317-57.636l-1.154-3.931C46.831,102.744,48.297,94.617,53.123,88.17z M159.527,433.462
	c-14.892,0-28.239-9.974-32.46-24.255c-7.678-25.979-11.286-52.895-10.722-80.004c0.086-4.13-3.193-7.546-7.323-7.632
	c-4.146-0.081-7.547,3.192-7.633,7.323c-0.595,28.649,3.218,57.097,11.334,84.554c0.634,2.146,1.42,4.22,2.328,6.223
	c-6.328,8.583-16.442,13.791-27.242,13.791H58.233c-14.892,0-28.24-9.973-32.46-24.254c-12.657-42.825-14.196-87.798-4.622-131.147
	h86.016c-1.381,6.653-2.532,13.361-3.424,20.088c-0.542,4.095,2.338,7.854,6.432,8.397c0.333,0.045,0.665,0.066,0.992,0.066
	c3.694,0,6.907-2.736,7.405-6.498c0.98-7.395,2.29-14.763,3.893-22.053h4.647h64.003c-1.442,8.207-2.199,16.648-2.199,25.262
	c0,16.729,2.844,32.803,8.06,47.776c1.251,21.113,4.914,42.084,10.903,62.348c1.115,3.771,2.675,7.332,4.605,10.636
	c-6.256,6.006-14.53,9.379-23.379,9.379h-29.578V433.462z M254.684,433.461c-14.892,0-28.24-9.973-32.46-24.254
	c-1.918-6.488-3.559-13.059-4.971-19.68c13.585,18.432,31.403,33.557,52.01,43.933H254.684z M489.604,396.912l-2.61,10.712
	c-3.706,15.213-17.229,25.836-32.887,25.836h-29.577c-5.828,0-11.534-1.529-16.552-4.342c15.459-9.047,29.317-21.011,40.81-35.544
	c2.562-3.24,2.013-7.944-1.227-10.506c-3.24-2.56-7.943-2.014-10.506,1.227c-12.414,15.697-27.895,28.06-45.264,36.53
	c-0.411,0.15-0.809,0.343-1.195,0.567c-17.253,8.196-36.321,12.578-56.075,12.578c-72.041,0-130.651-58.61-130.651-130.651
	s58.612-130.648,130.653-130.648c72.04,0,130.65,58.609,130.65,130.65c0,19.911-4.363,39.025-12.966,56.814
	c-1.799,3.719-0.242,8.191,3.476,9.99c3.718,1.797,8.19,0.242,9.989-3.476c9.594-19.836,14.46-41.142,14.46-63.327
	c0-8.614-0.757-17.055-2.199-25.262h12.839c-0.797-2.655-1.392-5.37-1.891-8.018l0.768,2.56
	C499.527,313.272,499.511,356.25,489.604,396.912z"/>
<path d="M286.435,353.142c-10.894,0-19.757,8.863-19.757,19.758c0,10.895,8.863,19.758,19.757,19.758
	c10.895,0,19.758-8.863,19.758-19.758C306.193,362.005,297.329,353.142,286.435,353.142z M286.435,377.699
	c-2.646,0-4.799-2.153-4.799-4.8c0-2.647,2.153-4.8,4.799-4.8c2.647,0,4.8,2.153,4.8,4.8
	C291.235,375.546,289.081,377.699,286.435,377.699z"/>
<path d="M250.623,319.377c-10.894,0-19.757,8.863-19.757,19.758c0,10.894,8.863,19.757,19.757,19.757
	c10.895,0,19.758-8.863,19.758-19.757C270.38,328.24,261.518,319.377,250.623,319.377z M250.623,343.933
	c-2.646,0-4.799-2.152-4.799-4.799s2.153-4.8,4.799-4.8c2.647,0,4.8,2.153,4.8,4.8S253.27,343.933,250.623,343.933z"/>
<path d="M298.713,305.052c-10.895,0-19.758,8.863-19.758,19.758c0,10.894,8.863,19.757,19.758,19.757
	c10.894,0,19.757-8.863,19.757-19.757C318.47,313.915,309.607,305.052,298.713,305.052z M298.713,329.609
	c-2.647,0-4.8-2.152-4.8-4.799s2.153-4.8,4.8-4.8c2.646,0,4.799,2.153,4.799,4.8S301.359,329.609,298.713,329.609z"/>
<g>
</g>
<g>
</g>
<g>
</g>
<g>
</g>
<g>
</g>
<g>
</g>
<g>
</g>
<g>
</g>
<g>
</g>
<g>
</g>
<g>
</g>
<g>
</g>
<g>
</g>
<g>
</g>
<g>
</g>
</svg>
