<?xml version="1.0" encoding="iso-8859-1"?>
<!-- Generator: Adobe Illustrator 21.0.0, SVG Export Plug-In . SVG Version: 6.00 Build 0)  -->
<svg version="1.1" id="Capa_1" xmlns="http://www.w3.org/2000/svg" xmlns:xlink="http://www.w3.org/1999/xlink" x="0px" y="0px"
	 viewBox="0 0 512 512" style="enable-background:new 0 0 512 512;" xml:space="preserve">
<path style="fill:#EE8E3E;" d="M253.5,85.25v92.5c0,9.25-7.5,16.75-16.75,16.75H22.25C13,194.5,5.5,187,5.5,177.75v-92.5
	C5.5,76,13,68.5,22.25,68.5h214.5C246,68.5,253.5,76,253.5,85.25z"/>
<path style="fill:#EA8032;" d="M71.75,160.277c-9.25,0-16.75-7.5-16.75-16.75V68.5H22.25C13,68.5,5.5,76,5.5,85.25v92.5
	c0,9.25,7.5,16.75,16.75,16.75h214.5c9.25,0,16.75-7.5,16.75-16.75v-17.473L71.75,160.277L71.75,160.277z"/>
<path style="fill:#85C255;" d="M230.5,97.392v68.216c0,2.15-1.743,3.892-3.892,3.892H36.392c-2.15,0-3.892-1.743-3.892-3.892V97.392
	c0-2.15,1.743-3.892,3.892-3.892h190.216C228.757,93.5,230.5,95.243,230.5,97.392z"/>
<path style="fill:#FFEA6E;" d="M230.5,97.392v68.216c0,2.15-1.743,3.892-3.892,3.892H131.5v-76h95.108
	C228.757,93.5,230.5,95.243,230.5,97.392z"/>
<path style="fill:#EE8E3E;" d="M504.5,334.25v92.5c0,9.25-7.5,16.75-16.75,16.75h-215.5c-9.25,0-16.75-7.5-16.75-16.75v-92.5
	c0-9.25,7.5-16.75,16.75-16.75h215.5C497,317.5,504.5,325,504.5,334.25z"/>
<path style="fill:#EA8032;" d="M318.75,393c-9.25,0-16.75-7.5-16.75-16.75V317.5h-29.75c-9.25,0-16.75,7.5-16.75,16.75v92.5
	c0,9.25,7.5,16.75,16.75,16.75h215.5c9.25,0,16.75-7.5,16.75-16.75V393H318.75z"/>
<path style="fill:#85C255;" d="M479.5,347.785v65.43c0,2.919-2.366,5.285-5.285,5.285h-188.43c-2.919,0-5.285-2.366-5.285-5.285
	v-65.43c0-2.919,2.366-5.285,5.285-5.285h188.43C477.134,342.5,479.5,344.866,479.5,347.785z"/>
<path style="fill:#7CCAFD;" d="M479.5,347.785v65.43c0,2.919-2.366,5.285-5.285,5.285H380v-76h94.215
	C477.134,342.5,479.5,344.866,479.5,347.785z"/>
<path style="fill:#EE8E3E;" d="M255.5,211.25v215.5c0,9.25-7.5,16.75-16.75,16.75h-92.5c-9.25,0-16.75-7.5-16.75-16.75v-215.5
	c0-9.25,7.5-16.75,16.75-16.75h92.5C248,194.5,255.5,202,255.5,211.25z"/>
<path style="fill:#EA8032;" d="M194.005,402.37c-9.25,0-16.75-7.5-16.75-16.75V194.5H146.25c-9.25,0-16.75,7.5-16.75,16.75v215.5
	c0,9.25,7.5,16.75,16.75,16.75h92.5c9.25,0,16.75-7.5,16.75-16.75v-24.38H194.005z"/>
<path style="fill:#7CCAFD;" d="M230.5,223.427v191.146c0,2.169-1.758,3.927-3.927,3.927h-68.146c-2.169,0-3.927-1.758-3.927-3.927
	V223.427c0-2.169,1.758-3.927,3.927-3.927h68.146C228.742,219.5,230.5,221.258,230.5,223.427z"/>
<path style="fill:#FE4583;" d="M230.5,223.427v96.513h-76v-96.513c0-2.169,1.758-3.927,3.927-3.927h68.146
	C228.742,219.5,230.5,221.258,230.5,223.427z"/>
<path d="M238,169.5v-76c0-4.143-3.358-7.5-7.5-7.5h-198c-4.142,0-7.5,3.357-7.5,7.5v76c0,4.143,3.358,7.5,7.5,7.5h198
	C234.642,177,238,173.643,238,169.5z M40,101h84v61H40V101z M223,162h-84v-61h84V162z"/>
<path d="M487.754,310H272.246c-3.273,0-6.395,0.656-9.246,1.836V291.5c0-4.143-3.358-7.5-7.5-7.5s-7.5,3.357-7.5,7.5l0,0v135.254
	c0,5.099-4.147,9.246-9.246,9.246h-92.509c-5.098,0-9.246-4.147-9.246-9.246V211.246c0-5.099,4.147-9.246,9.246-9.246h92.509
	c5.098,0,9.246,4.147,9.246,9.246V261.5c0,4.143,3.358,7.5,7.5,7.5s7.5-3.357,7.5-7.5v-50.254c0-6.491-2.569-12.39-6.737-16.746
	c4.168-4.356,6.737-10.255,6.737-16.745v-92.51C263,71.876,252.124,61,238.754,61H24.246C10.876,61,0,71.876,0,85.245v92.51
	C0,191.124,10.876,202,24.246,202h99.591c-1.181,2.851-1.836,5.973-1.836,9.246v215.508C122,440.123,132.876,451,146.246,451h92.509
	c6.491,0,12.389-2.569,16.745-6.737c4.356,4.168,10.255,6.737,16.746,6.737h215.509C501.124,451,512,440.124,512,426.755v-92.51
	C512,320.876,501.124,310,487.754,310z M15,177.755v-92.51C15,80.147,19.147,76,24.246,76h214.509c5.098,0,9.246,4.147,9.246,9.245
	v92.51c0,5.098-4.147,9.245-9.246,9.245l0,0H24.246C19.147,187,15,182.853,15,177.755z M497,426.755
	c0,5.098-4.147,9.245-9.246,9.245H272.246c-5.098,0-9.246-4.147-9.246-9.245v-0.001v-92.509c0-5.098,4.147-9.245,9.246-9.245
	h215.509c5.098,0,9.246,4.147,9.246,9.245v92.51H497z"/>
<path d="M479.5,335h-199c-4.142,0-7.5,3.357-7.5,7.5v76c0,4.143,3.358,7.5,7.5,7.5h49.75c4.142,0,7.5-3.357,7.5-7.5
	s-3.358-7.5-7.5-7.5H288v-61h85v61h-12.75c-4.142,0-7.5,3.357-7.5,7.5s3.358,7.5,7.5,7.5H479.5c4.142,0,7.5-3.357,7.5-7.5v-76
	C487,338.357,483.642,335,479.5,335z M472,411h-84v-61h84V411z"/>
<path d="M154.5,212c-4.142,0-7.5,3.357-7.5,7.5v199c0,4.143,3.358,7.5,7.5,7.5h76c4.142,0,7.5-3.357,7.5-7.5v-199
	c0-4.143-3.358-7.5-7.5-7.5H154.5z M223,227v84h-61v-84H223z M162,411v-85h61v85H162z"/>
<circle cx="78.5" cy="131.5" r="11"/>
<circle cx="330" cy="382" r="11"/>
<circle cx="166" cy="132" r="11"/>
<circle cx="194" cy="132" r="11"/>
<circle cx="179" cy="250" r="11"/>
<circle cx="207" cy="250" r="11"/>
<circle cx="179" cy="380" r="11"/>
<circle cx="207" cy="380" r="11"/>
<circle cx="179" cy="287" r="11"/>
<circle cx="194" cy="351" r="11"/>
<circle cx="207" cy="287" r="11"/>
<circle cx="443" cy="367" r="11"/>
<circle cx="413" cy="381" r="11"/>
<circle cx="443" cy="395" r="11"/>
<g>
</g>
<g>
</g>
<g>
</g>
<g>
</g>
<g>
</g>
<g>
</g>
<g>
</g>
<g>
</g>
<g>
</g>
<g>
</g>
<g>
</g>
<g>
</g>
<g>
</g>
<g>
</g>
<g>
</g>
</svg>
