<?xml version="1.0" encoding="iso-8859-1"?>
<!-- Generator: Adobe Illustrator 21.0.0, SVG Export Plug-In . SVG Version: 6.00 Build 0)  -->
<svg version="1.1" id="Capa_1" xmlns="http://www.w3.org/2000/svg" xmlns:xlink="http://www.w3.org/1999/xlink" x="0px" y="0px"
	 viewBox="0 0 512 512" style="enable-background:new 0 0 512 512;" xml:space="preserve">
<path style="fill:#EDE6F5;" d="M429.339,298.082v61.21H82.661v-61.21V165.844c0-12.184,9.879-22.063,22.063-22.063h86.669h127.208
	h88.673c12.184,0,22.063,9.879,22.063,22.063V298.082z"/>
<path style="fill:#FFB90B;" d="M308.493,23.656c-9.969-9.969-23.746-16.142-38.966-16.142h-28.556v165.323h28.556
	c30.439,0,55.108-24.668,55.108-55.108V62.622C324.634,47.403,318.462,33.626,308.493,23.656z"/>
<path style="fill:#FFEA6E;" d="M295.076,62.622v55.108c0,30.439-24.668,55.108-55.108,55.108s-55.108-24.668-55.108-55.108V62.622
	c0-30.439,24.668-55.108,55.108-55.108c15.22,0,28.997,6.172,38.966,16.142C288.904,33.626,295.076,47.403,295.076,62.622z"/>
<path style="fill:#F9DF5D;" d="M256.501,163.056c-30.439,0-55.108-24.668-55.108-55.108V52.841c0-16.746,7.476-31.733,19.261-41.84
	c-20.908,7.826-35.793,27.979-35.793,51.621v55.108c0,30.439,24.668,55.108,55.108,55.108c13.694,0,26.21-5.004,35.847-13.268
	C269.804,161.819,263.298,163.056,256.501,163.056z"/>
<path style="fill:#CEC1E7;" d="M107.71,330.415V172.657c0-2.114,1.713-3.827,3.827-3.827h288.924c2.114,0,3.827,1.713,3.827,3.827
	v157.758c0,2.114-1.713,3.827-3.827,3.827H111.538C109.424,334.243,107.71,332.528,107.71,330.415z"/>
<path style="fill:#A85C3B;" d="M429.339,298.082v184.38c0,12.164-9.859,22.023-22.023,22.023H104.684
	c-12.164,0-22.023-9.859-22.023-22.023v-184.38H429.339z"/>
<g>
	<path style="fill:#EDE6F5;" d="M112.72,298.082H82.661v184.38c0,12.164,9.859,22.023,22.023,22.023h8.036V298.082z"/>
	<path style="fill:#EDE6F5;" d="M399.304,504.485h8.012c12.164,0,22.023-9.859,22.023-22.023v-184.38h-30.035V504.485z"/>
</g>
<g>
	<rect x="330.405" y="298.082" style="fill:#963C1D;" width="68.875" height="206.403"/>
	<rect x="179.481" y="298.082" style="fill:#963C1D;" width="76.016" height="206.403"/>
</g>
<g>
	<rect x="82.661" y="298.082" style="fill:#F8D46E;" width="346.677" height="26.552"/>
	<path style="fill:#F8D46E;" d="M429.339,446.372v36.09c0,12.164-9.859,22.023-22.023,22.023h-37.092v-47.523
		c0-5.851,4.739-10.591,10.591-10.591h18.466H429.339z"/>
	<path style="fill:#F8D46E;" d="M141.777,456.962v47.523h-37.092c-12.164,0-22.023-9.859-22.023-22.023v-36.09h30.059h18.466
		C137.038,446.372,141.777,451.111,141.777,456.962z"/>
</g>
<g>
	<path style="fill:#29D7FF;" d="M159.902,35.279c1.934,0.942,1.623,3.737-0.431,4.359c-8.396,2.555-14.368,8.537-17.765,18.155
		c-0.711,2.014-3.577,2.084-4.369,0.1c-3.507-8.717-10.06-14.518-19.248-17.825c-1.954-0.701-2.124-3.397-0.261-4.308
		c8.627-4.238,15.21-10.601,19.408-19.418c0.872-1.804,3.497-1.733,4.268,0.12C144.983,24.808,151.205,31.011,159.902,35.279z"/>
	<path style="fill:#29D7FF;" d="M395.362,94.394c1.934,0.942,1.623,3.737-0.431,4.359c-8.396,2.555-14.368,8.537-17.765,18.155
		c-0.711,2.014-3.577,2.084-4.369,0.1c-3.507-8.717-10.06-14.518-19.248-17.825c-1.954-0.701-2.124-3.397-0.261-4.308
		c8.627-4.238,15.21-10.601,19.408-19.418c0.872-1.804,3.497-1.733,4.268,0.12C380.443,83.924,386.665,90.126,395.362,94.394z"/>
</g>
<path style="fill:#FFB90B;" d="M298.082,298.082v50.128c0,9.388-7.615,17.003-17.003,17.003h-50.158
	c-9.388,0-17.003-7.615-17.003-17.003v-50.128H298.082z"/>
<path style="fill:#EDA507;" d="M273.033,298.082v39.244c0,1.568-1.27,2.839-2.839,2.839h-28.389c-1.568,0-2.839-1.27-2.839-2.839
	v-39.244H273.033z"/>
<g>
	<path style="fill:#FFEA6E;" d="M395.823,261.18l14.979,36.902H307.601l14.979-36.902c1.022-2.525,3.477-4.178,6.212-4.178h30.91
		h29.908C392.346,257.002,394.801,258.655,395.823,261.18z"/>
	<path style="fill:#FFEA6E;" d="M344.723,220.1l14.979,36.902h-30.91h-42.383h-29.908L271.48,220.1
		c1.022-2.525,3.477-4.178,6.212-4.178h60.819C341.246,215.922,343.701,217.575,344.723,220.1z"/>
	<path style="fill:#FFEA6E;" d="M292.622,261.18l14.979,36.902H204.399l14.979-36.902c1.022-2.525,3.477-4.178,6.212-4.178h30.91
		h29.908C289.145,257.002,291.6,258.655,292.622,261.18z"/>
	<path style="fill:#FFEA6E;" d="M241.522,220.1l14.979,36.902h-30.91h-42.383h-29.908l14.979-36.902
		c1.022-2.525,3.477-4.178,6.212-4.178h60.819C238.045,215.922,240.5,217.575,241.522,220.1z"/>
	<path style="fill:#FFEA6E;" d="M189.42,261.18l14.979,36.902H101.198l14.979-36.902c1.022-2.525,3.477-4.178,6.212-4.178h30.91
		h29.908C185.943,257.002,188.398,258.655,189.42,261.18z"/>
</g>
<g>
	<path style="fill:#FFDE3B;" d="M352.58,257.002L352.58,257.002h-23.787c-2.735,0-5.19,1.653-6.212,4.178l-14.979,36.902h103.202
		l-6.508-16.031h-34.849C356.528,282.051,347.721,268.97,352.58,257.002z"/>
	<path style="fill:#FFDE3B;" d="M321.22,240.971h-2.875c-12.917,0-21.724-13.08-16.866-25.049l0,0h-23.787
		c-2.735,0-5.19,1.653-6.212,4.178l-14.979,36.902h29.908h42.383h30.91l-6.508-16.031H321.22z"/>
	<path style="fill:#FFDE3B;" d="M249.378,257.002L249.378,257.002h-23.787c-2.735,0-5.19,1.653-6.212,4.178l-14.979,36.902h103.202
		l-6.508-16.031h-34.849C253.327,282.051,244.52,268.97,249.378,257.002z"/>
	<path style="fill:#FFDE3B;" d="M218.019,240.971h-2.875c-12.917,0-21.724-13.08-16.866-25.049l0,0h-23.787
		c-2.735,0-5.19,1.653-6.212,4.178l-14.979,36.902h29.908h42.383h30.91l-6.508-16.031H218.019z"/>
	<path style="fill:#FFDE3B;" d="M146.177,257.002L146.177,257.002h-23.787c-2.735,0-5.19,1.653-6.212,4.178l-14.979,36.902h103.202
		l-6.508-16.031h-34.849C150.125,282.051,141.318,268.97,146.177,257.002z"/>
</g>
<path style="fill:#EE8E3E;" d="M269.096,80.668c1.062,1.453,0.03,3.487-1.763,3.487H255.81v51.18c0,1.663-1.353,3.006-3.006,3.006
	h-25.67c-1.653,0-3.006-1.343-3.006-3.006v-51.18h-11.523c-1.793,0-2.826-2.034-1.763-3.487l26.712-36.561
	c1.192-1.633,3.637-1.633,4.829,0L269.096,80.668z"/>
<path d="M351.014,106.26c7.365,2.645,12.209,7.077,14.808,13.549c1.511,3.764,5.078,6.164,9.129,6.164
	c0.073,0,0.146-0.001,0.219-0.003c4.144-0.088,7.711-2.663,9.086-6.56c2.576-7.301,6.665-11.582,12.865-13.466
	c3.934-1.195,6.688-4.612,7.017-8.704c0.326-4.044-1.819-7.812-5.463-9.598c0-0.001-0.001-0.001-0.001-0.001
	c-7.225-3.54-12.056-8.428-14.767-14.947c-1.489-3.582-4.963-5.961-8.849-6.062c-3.887-0.097-7.468,2.095-9.137,5.591
	c-3.388,7.096-8.601,12.297-15.941,15.902c-3.557,1.748-5.712,5.434-5.491,9.389C344.71,101.481,347.27,104.914,351.014,106.26z
	 M374.64,86.786c2.45,3.428,5.425,6.477,8.909,9.134c-3.503,2.387-6.488,5.455-8.937,9.191c-2.613-3.393-5.803-6.285-9.557-8.665
	C368.732,93.673,371.933,90.448,374.64,86.786z"/>
<path d="M115.554,47.144c7.365,2.645,12.209,7.077,14.808,13.549c1.511,3.764,5.078,6.164,9.129,6.164
	c0.073,0,0.146-0.001,0.219-0.003c4.144-0.088,7.711-2.663,9.086-6.56c2.576-7.301,6.665-11.582,12.865-13.466
	c3.934-1.195,6.688-4.612,7.017-8.704c0.326-4.044-1.819-7.812-5.463-9.598c0-0.001-0.001-0.001-0.001-0.001
	c-7.225-3.54-12.056-8.428-14.767-14.947c-1.489-3.582-4.963-5.961-8.849-6.062c-3.892-0.088-7.468,2.095-9.137,5.591
	c-3.388,7.096-8.601,12.297-15.941,15.902c-3.557,1.748-5.712,5.434-5.491,9.389C109.25,42.366,111.81,45.798,115.554,47.144z
	 M139.18,27.671c2.45,3.428,5.425,6.477,8.909,9.134c-3.503,2.387-6.488,5.455-8.937,9.191c-2.613-3.393-5.803-6.285-9.557-8.665
	C133.272,34.557,136.474,31.332,139.18,27.671z"/>
<path d="M216.615,91.668v43.664c0,5.802,4.72,10.523,10.523,10.523H252.8c5.802,0,10.523-4.72,10.523-10.523V91.668h4.008
	c3.674,0,6.991-2.035,8.655-5.312c1.663-3.276,1.351-7.155-0.818-10.122l-26.719-36.562c-1.971-2.695-5.141-4.304-8.481-4.304
	c-3.34,0-6.51,1.608-8.482,4.306L204.77,76.235c-2.168,2.967-2.481,6.845-0.818,10.122c1.664,3.277,4.98,5.312,8.655,5.312
	L216.615,91.668L216.615,91.668z M239.969,53.541l16.88,23.099h-1.041c-4.15,0-7.515,3.364-7.515,7.515v46.672h-16.649V84.153
	c0-4.151-3.365-7.515-7.515-7.515h-1.041L239.969,53.541z"/>
<path d="M407.272,136.266h-77.424c1.82-5.86,2.801-12.086,2.801-18.536V62.622C332.65,28.092,304.557,0,270.027,0
	c0,0-29.832,0-30.059,0c-34.529,0-62.622,28.092-62.622,62.622v55.108c0,6.451,0.982,12.676,2.801,18.536h-75.42
	c-16.311,0-29.581,13.27-29.581,29.581v316.61c0,16.29,13.253,29.543,29.542,29.543h302.622c16.29,0,29.543-13.253,29.543-29.542
	V165.847C436.853,149.536,423.583,136.266,407.272,136.266z M380.816,438.857c-9.984,0-18.107,8.123-18.107,18.107v40.006h-24.784
	V332.65h53.841v106.207H380.816z M180.589,442.364c-4.15,0-7.515,3.364-7.515,7.515v47.092h-23.782v-40.006
	c0-9.984-8.123-18.107-18.107-18.107h-10.949V332.149h52.839v87.671c0,4.151,3.365,7.515,7.515,7.515s7.515-3.364,7.515-7.515
	v-87.671h18.3v16.056c0,13.522,11,24.523,24.523,24.523h17.058v124.243h-59.881v-47.092
	C188.103,445.728,184.739,442.364,180.589,442.364z M90.176,438.857V332.149h15.029v106.708H90.176z M421.824,317.62H305.597
	v-12.023h116.227V317.62z M230.926,357.699c-5.235,0-9.494-4.258-9.494-9.494v-42.608h10.02v34.568c0,4.151,3.365,7.515,7.515,7.515
	h34.067c4.15,0,7.515-3.364,7.515-7.515v-34.568h10.02v42.608c0,5.235-4.258,9.494-9.494,9.494H230.926z M226.135,182.356h59.73
	l10.575,26.051h-80.88L226.135,182.356z M348.542,249.487h-80.88l10.575-26.051h59.73l0,0L348.542,249.487z M246.481,305.597h19.037
	v27.053h-19.037V305.597z M215.56,290.568l10.575-26.051h59.73l10.575,26.051H215.56z M302.085,264.517h11.031l-5.515,13.587
	L302.085,264.517z M256.501,237.023l-5.516-13.587h11.031L256.501,237.023z M234.766,223.436L234.766,223.436l10.575,26.051h-80.88
	l10.575-26.051H234.766z M209.915,264.517l-5.516,13.587l-5.516-13.587H209.915z M318.762,290.568l10.575-26.051h59.73
	l10.575,26.051H318.762z M396.775,251.413c-2.124-1.235-4.578-1.926-7.161-1.926h-24.852l-13.076-32.211
	c-2.187-5.388-7.357-8.869-13.172-8.869h-25.855l-13.015-32.063h97.13V251.413z M212.355,176.344l-13.015,32.063h-24.852
	c-5.814,0-10.985,3.482-13.172,8.869l-13.077,32.211h-25.854c-2.583,0-5.037,0.69-7.161,1.926v-75.069H212.355z M122.933,264.517
	h59.73l10.575,26.051h-80.88L122.933,264.517z M206.403,305.597v11.523H90.176v-11.523H206.403z M263.014,372.728h18.06
	c13.522,0,24.523-11,24.523-24.523V332.65h17.298v164.321h-59.881V372.728z M406.795,332.65h15.029v106.207h-15.029V332.65z
	 M407.272,151.296c8.024,0,14.551,6.529,14.551,14.551v124.721h-5.962l-4.058-9.997V168.83c0-4.151-3.365-7.515-7.515-7.515h-89.358
	c2.967-3.056,5.623-6.413,7.922-10.02H407.272z M192.376,62.622c0-26.242,21.351-47.593,47.593-47.593
	c25.768,0,47.108,20.961,47.569,46.725c0.074,4.15,3.466,7.485,7.648,7.379c4.149-0.074,7.453-3.499,7.379-7.648
	c-0.295-16.488-6.936-31.942-18.699-43.515c-0.443-0.436-0.901-0.849-1.354-1.269c20.203,5.5,35.108,23.998,35.108,45.921v55.108
	c0,21.936-14.921,40.442-35.143,45.93c12.358-11.446,20.113-27.796,20.113-45.93V91.679c0-4.151-3.365-7.515-7.515-7.515
	c-4.15,0-7.515,3.364-7.515,7.515v26.051c0,26.242-21.351,47.593-47.593,47.593s-47.593-21.351-47.593-47.593V62.622z
	 M104.728,151.296h82.415c2.301,3.607,4.956,6.964,7.922,10.02H107.71c-4.15,0-7.515,3.364-7.515,7.515v111.741l-4.058,9.997h-5.962
	V165.847C90.176,157.824,96.704,151.296,104.728,151.296z M90.176,482.458v-28.572h41.008c1.697,0,3.078,1.381,3.078,3.078v40.006
	h-29.574C96.687,496.971,90.176,490.46,90.176,482.458z M407.312,496.971h-29.574v-40.006c0-1.697,1.381-3.078,3.078-3.078h41.008
	v28.572C421.824,490.46,415.313,496.971,407.312,496.971z"/>
<g>
</g>
<g>
</g>
<g>
</g>
<g>
</g>
<g>
</g>
<g>
</g>
<g>
</g>
<g>
</g>
<g>
</g>
<g>
</g>
<g>
</g>
<g>
</g>
<g>
</g>
<g>
</g>
<g>
</g>
</svg>
