<?xml version="1.0" encoding="iso-8859-1"?>
<!-- Generator: Adobe Illustrator 21.0.0, SVG Export Plug-In . SVG Version: 6.00 Build 0)  -->
<svg version="1.1" id="Capa_1" xmlns="http://www.w3.org/2000/svg" xmlns:xlink="http://www.w3.org/1999/xlink" x="0px" y="0px"
	 viewBox="0 0 512 512" style="enable-background:new 0 0 512 512;" xml:space="preserve">
<path style="fill:#EE8E3E;" d="M400,277.72v208.56c0,10.06-8.16,18.22-18.22,18.22H130.22c-10.06,0-18.22-8.16-18.22-18.22V277.72
	c0-10.06,8.16-18.22,18.22-18.22h251.56C391.84,259.5,400,267.66,400,277.72z"/>
<path style="fill:#EA8032;" d="M184.72,460c-10.06,0-18.22-8.16-18.22-18.22V259.5h-36.28c-10.06,0-18.22,8.16-18.22,18.22v208.56
	c0,10.06,8.16,18.22,18.22,18.22h251.56c10.06,0,18.22-8.16,18.22-18.22V460H184.72z"/>
<path style="fill:#F8D46E;" d="M370,294.253v175.495c0,2.625-2.128,4.753-4.753,4.753H146.753c-2.625,0-4.753-2.128-4.753-4.753
	V294.253c0-2.625,2.128-4.753,4.753-4.753h218.495C367.872,289.5,370,291.628,370,294.253z"/>
<path style="fill:#F9BD38;" d="M268.965,455.685C212.099,455.685,166,409.586,166,352.72V289.5h-19.247
	c-2.625,0-4.753,2.128-4.753,4.753v175.495c0,2.625,2.128,4.752,4.752,4.752h218.495c2.625,0,4.753-2.128,4.753-4.753v-14.062
	H268.965z"/>
<g>
	<path style="fill:#E0B13B;" d="M310.5,326.26v46.53c0,4.3-2.37,8.25-6.17,10.27l-35.88,19.09v6.5c0,1.7-1.38,3.09-3.09,3.09h-17.09
		c-1.7,0-3.09-1.39-3.09-3.09v-13.49c0-4.3,2.38-8.25,6.17-10.27l35.89-19.09v-27.91h-55.48v17.67c0,1.61-1.3,2.91-2.91,2.91h-17.44
		c-1.61,0-2.91-1.3-2.91-2.91v-29.3c0-6.42,5.21-11.63,11.63-11.63h78.74C305.29,314.63,310.5,319.84,310.5,326.26z"/>
	<path style="fill:#E0B13B;" d="M268.45,436.33v15.34c0,2.39-1.94,4.33-4.34,4.33h-14.59c-2.4,0-4.34-1.94-4.34-4.33v-15.34
		c0-2.39,1.94-4.33,4.34-4.33h14.59C266.51,432,268.45,433.94,268.45,436.33z"/>
</g>
<path style="fill:#FFF5DA;" d="M348,169.5l-0.02-0.19c0,0-0.626-35.477-0.626-36.938s-181.354,0-181.354,0v37.098v0.03
	c-8.7,17.8-12.24,35.6-10.62,53.41c1.9,20.75,19.41,36.59,40.25,36.59h122.89c21.25,0,39.1-16.43,40.33-37.65
	C359.81,205.27,356.2,187.82,348,169.5z"/>
<path style="fill:#F9E6B9;" d="M196.775,222.91c-1.62-17.81,1.92-35.61,10.62-53.41v-0.03v-37.098H166v37.098v0.03
	c-8.7,17.8-12.24,35.6-10.62,53.41c1.9,20.75,19.41,36.59,40.25,36.59h41.395C216.185,259.5,198.675,243.66,196.775,222.91z"/>
<path style="fill:#17C178;" d="M375,126.5v12.66c0,15.64-11.82,28.51-27.02,30.15c-1.09,0.13-2.2,0.19-3.32,0.19h-16.63
	c-1.73,0-3.36-0.6-4.65-1.62c-1.28-1.02-2.24-2.46-2.64-4.14c-1.32-5.55-5.51-9.98-10.97-11.61c-37.23-11.11-73.02-10.42-107.62,0
	c-5.43,1.63-9.57,6.06-10.88,11.58l-0.01,0.03c-0.8,3.37-3.82,5.76-7.29,5.76h-16.63c-0.45,0-0.9-0.01-1.34-0.03
	c-16.14-0.7-29-14-29-30.31V126.5c0-65.72,53.28-119,119-119S375,60.78,375,126.5z"/>
<path style="fill:#00B764;" d="M179.481,139.16V126.5c0-58.47,42.174-107.091,97.76-117.107C270.348,8.15,263.25,7.5,256,7.5
	c-65.72,0-119,53.28-119,119v12.66c0,16.31,12.86,29.61,29,30.31c0.44,0.021,0.89,0.03,1.34,0.03h16.63c3.47,0,6.49-2.39,7.29-5.76
	l0.01-0.03c0.036-0.152,0.083-0.301,0.123-0.451C184.153,157.715,179.481,148.986,179.481,139.16z"/>
<g>
	<path style="fill:#EDE6F5;" d="M375,126.5v12.66c0,4.35-0.92,8.48-2.57,12.22c-11.35-1.03-20.73-8.83-24.09-19.33
		c-0.87-2.69-1.34-5.57-1.34-8.55c0-14.1,10.43-25.76,23.99-27.71C373.61,105.59,375,115.88,375,126.5z"/>
	<path style="fill:#EDE6F5;" d="M359.77,68.23c-4.98,2.72-10.69,4.27-16.77,4.27c-19.33,0-35-15.67-35-35
		c0-5.79,1.42-11.25,3.91-16.07C331.99,32.13,348.64,48.43,359.77,68.23z"/>
	<circle style="fill:#EDE6F5;" cx="256" cy="79.5" r="35"/>
	<path style="fill:#EDE6F5;" d="M200.09,21.43c2.49,4.82,3.91,10.28,3.91,16.07c0,19.33-15.67,35-35,35
		c-6.08,0-11.79-1.55-16.77-4.27C163.36,48.43,180.01,32.13,200.09,21.43z"/>
	<path style="fill:#EDE6F5;" d="M165,123.5c0,2.84-0.42,5.58-1.21,8.16c-3.25,10.7-12.73,18.67-24.22,19.72
		c-1.65-3.74-2.57-7.87-2.57-12.22V126.5c0-10.62,1.39-20.91,4.01-30.71C154.57,97.74,165,109.4,165,123.5z"/>
</g>
<path d="M381.782,252h-28.348c7.437-7.845,12.232-18.202,12.901-29.71c0.887-15.244-1.863-31.287-8.158-47.794
	c14.207-5.453,24.323-19.229,24.323-35.332V126.5C382.5,56.748,325.752,0,256,0S129.5,56.748,129.5,126.5v12.664
	c0,16.679,10.853,30.862,25.864,35.883c-6.407,16.107-8.923,32.395-7.449,48.54c1.01,11.064,5.676,20.905,12.747,28.413h-30.444
	c-14.181,0-25.718,11.537-25.718,25.718v208.564c0,14.181,11.537,25.718,25.718,25.718h251.564
	c14.181,0,25.718-11.537,25.718-25.718V277.718C407.5,263.537,395.963,252,381.782,252z M367.5,126.5v12.664
	c0,1.125-0.085,2.229-0.243,3.311c-7.562-3.042-12.757-10.384-12.757-18.975c0-7.75,4.423-14.666,10.982-18.132
	C366.801,112.213,367.5,119.276,367.5,126.5z M348.574,64.419C346.746,64.797,344.878,65,343,65c-15.163,0-27.5-12.337-27.5-27.5
	c0-1.688,0.157-3.347,0.456-4.971C328.89,40.81,340.009,51.688,348.574,64.419z M196.044,32.529
	c0.297,1.625,0.456,3.283,0.456,4.971c0,15.163-12.336,27.5-27.5,27.5c-1.878,0-3.744-0.207-5.57-0.587
	C171.995,51.684,183.112,40.809,196.044,32.529z M144.743,142.478c-0.158-1.082-0.243-2.188-0.243-3.313V126.5
	c0-7.224,0.699-14.287,2.017-21.131c6.558,3.469,10.983,10.381,10.983,18.131C157.5,132.091,152.305,139.436,144.743,142.478z
	 M162.853,222.224c-1.364-14.943,1.317-30.135,7.946-45.224h13.169c6.979,0,12.979-4.741,14.6-11.561
	c0.694-2.922,2.896-5.271,5.745-6.128c21.854-6.58,44.05-8.983,65.977-7.141c4.124,0.34,7.755-2.718,8.102-6.846
	s-2.718-7.755-6.846-8.102c-23.81-2-47.889,0.599-71.558,7.725c-7.95,2.394-14.086,8.916-16.019,17.052h-16.632
	c-6.026,0-11.51-2.35-15.595-6.177c12.373-5.583,20.759-17.956,20.759-32.323c0-14.593-9.057-27.492-22.087-32.851
	c1.496-4.394,3.261-8.665,5.272-12.794C159.965,79.264,164.467,80,169,80c23.435,0,42.5-19.065,42.5-42.5
	c0-4.197-0.645-8.383-1.867-12.391C223.76,18.623,239.464,15,256,15c16.531,0,32.231,3.621,46.355,10.104
	c-1.221,4.008-1.855,8.198-1.855,12.396c0,23.435,19.065,42.5,42.5,42.5c4.533,0,9.034-0.739,13.313-2.149
	c2.012,4.132,3.778,8.404,5.275,12.801C348.557,96.009,339.5,108.907,339.5,123.5c0,14.368,8.389,26.738,20.763,32.32
	c-4.086,3.829-9.571,6.18-15.599,6.18l-16.631,0.001c-1.933-8.131-8.109-14.667-16.118-17.056c-2.965-0.886-5.968-1.706-9.18-2.509
	c-4.012-1.001-8.09,1.438-9.095,5.458c-1.004,4.019,1.439,8.09,5.458,9.095c2.99,0.747,5.778,1.509,8.527,2.33
	c2.89,0.861,5.117,3.218,5.813,6.151c1.614,6.788,7.615,11.529,14.593,11.529h15.004c6.329,15.532,9.136,30.456,8.324,44.42
	C350.364,238.567,335.938,252,318.52,252H195.63C178.494,252,164.403,239.199,162.853,222.224z M392.5,486.282
	c0,5.91-4.808,10.718-10.718,10.718H130.218c-5.91,0-10.718-4.808-10.718-10.718V277.718c0-5.91,4.808-10.718,10.718-10.718h251.564
	c5.91,0,10.718,4.808,10.718,10.718L392.5,486.282L392.5,486.282z"/>
<path d="M370,282H142c-4.142,0-7.5,3.357-7.5,7.5v118c0,4.143,3.358,7.5,7.5,7.5s7.5-3.357,7.5-7.5V297h213v170h-213v-29.5
	c0-4.143-3.358-7.5-7.5-7.5s-7.5,3.357-7.5,7.5v37c0,4.143,3.358,7.5,7.5,7.5h228c4.143,0,7.5-3.357,7.5-7.5v-185
	C377.5,285.357,374.143,282,370,282z"/>
<circle cx="347.5" cy="313" r="9"/>
<circle cx="166.5" cy="313" r="9"/>
<circle cx="347.5" cy="451" r="9"/>
<circle cx="166.5" cy="451" r="9"/>
<path d="M275.947,406.651l31.905-16.971c6.259-3.33,10.147-9.802,10.147-16.892v-46.526c0-10.549-8.582-19.131-19.132-19.131H220.13
	c-10.549,0-19.131,8.582-19.131,19.131v29.302c0,5.739,4.669,10.409,10.409,10.409h17.445c5.74,0,10.409-4.67,10.409-10.409v-10.17
	h40.474v15.901l-31.906,16.972c-6.259,3.329-10.147,9.802-10.147,16.891v13.492c0,5.838,4.749,10.587,10.587,10.587h17.089
	c5.838,0,10.587-4.749,10.587-10.587v-1.999H275.947z M264.925,395.524c-2.447,1.302-3.978,3.849-3.978,6.621v2.092h-8.263v-9.079
	c0-1.531,0.84-2.929,2.191-3.648l35.884-19.087c2.447-1.302,3.978-3.849,3.978-6.621v-27.907c0-4.143-3.357-7.5-7.5-7.5h-55.474
	c-4.142,0-7.5,3.357-7.5,7.5v13.079H216v-24.711c0-2.277,1.854-4.131,4.131-4.131h78.737c2.278,0,4.132,1.854,4.132,4.131v46.526
	c0,1.531-0.84,2.929-2.192,3.648L264.925,395.524z"/>
<path d="M264.113,424.5h-14.595c-6.525,0-11.834,5.309-11.834,11.834v15.332c0,6.525,5.309,11.834,11.834,11.834h14.595
	c6.525,0,11.834-5.309,11.834-11.834v-15.332C275.947,429.809,270.639,424.5,264.113,424.5z M260.947,448.5h-8.263v-9h8.263V448.5z"
	/>
<path d="M222.5,171c-4.971,0-9,4.029-9,9v32c0,4.971,4.029,9,9,9c4.971,0,9-4.029,9-9v-32C231.5,175.029,227.471,171,222.5,171z"/>
<path d="M291.5,171c-4.971,0-9,4.029-9,9v32c0,4.971,4.029,9,9,9s9-4.029,9-9v-32C300.5,175.029,296.471,171,291.5,171z"/>
<path d="M298.5,79.5c0-23.435-19.065-42.5-42.5-42.5s-42.5,19.065-42.5,42.5S232.565,122,256,122S298.5,102.935,298.5,79.5z
	 M256,107c-15.164,0-27.5-12.337-27.5-27.5S240.836,52,256,52c15.163,0,27.5,12.337,27.5,27.5S271.163,107,256,107z"/>
<g>
</g>
<g>
</g>
<g>
</g>
<g>
</g>
<g>
</g>
<g>
</g>
<g>
</g>
<g>
</g>
<g>
</g>
<g>
</g>
<g>
</g>
<g>
</g>
<g>
</g>
<g>
</g>
<g>
</g>
</svg>
