<?xml version="1.0" encoding="iso-8859-1"?>
<!-- Generator: Adobe Illustrator 21.0.0, SVG Export Plug-In . SVG Version: 6.00 Build 0)  -->
<svg version="1.1" id="Capa_1" xmlns="http://www.w3.org/2000/svg" xmlns:xlink="http://www.w3.org/1999/xlink" x="0px" y="0px"
	 viewBox="0 0 512 512" style="enable-background:new 0 0 512 512;" xml:space="preserve">
<path style="fill:#EDE6F5;" d="M295.076,7.515h-22.043c-28.776,0-52.102,23.326-52.102,52.102v38.074v14.027v74.946
	c0,7.304,5.922,13.226,13.226,13.226h15.631c7.304,0,13.226-5.922,13.226-13.226v-74.946h32.063c14.388,0,27.414-5.831,36.842-15.26
	c9.428-9.428,15.26-22.454,15.26-36.842C347.178,30.84,323.853,7.515,295.076,7.515z"/>
<path style="fill:#E0D3F2;" d="M241.973,186.665v-74.946V97.691V59.616c0-28.776,23.326-52.102,52.102-52.102h-21.041
	c-28.776,0-52.102,23.326-52.102,52.102v38.074v14.027v74.946c0,7.304,5.922,13.226,13.226,13.226h15.631
	c0.928,0,1.832-0.097,2.705-0.279C246.486,198.362,241.973,193.041,241.973,186.665z"/>
<path style="fill:#AB9DD6;" d="M220.932,165.824v20.841c0,7.304,5.922,13.226,13.226,13.226h15.631
	c7.304,0,13.226-5.922,13.226-13.226v-20.841H220.932z"/>
<path style="fill:#8E81C6;" d="M251.189,199.814c0.441-0.047,0.876-0.114,1.304-0.203c0,0,0,0,0.001,0
	c-6.007-1.249-10.521-6.571-10.521-12.947v-20.841h-21.041v20.841c0,7.304,5.922,13.226,13.226,13.226h15.631
	c0.464,0,0.921-0.024,1.372-0.071C251.17,199.818,251.179,199.815,251.189,199.814z"/>
<path style="fill:#EDE6F5;" d="M220.932,111.718v74.946c0,7.304-5.922,13.226-13.226,13.226h-15.631
	c-7.304,0-13.226-5.922-13.226-13.226v-74.946h-32.063c-14.388,0-27.414-5.831-36.842-15.26s-15.26-22.454-15.26-36.842
	c0-28.776,23.326-52.102,52.102-52.102h22.043c28.776,0,52.102,23.326,52.102,52.102v38.074V111.718z"/>
<g>
	<path style="fill:#E0D3F2;" d="M115.726,59.616c0-28.776,23.326-52.102,52.102-52.102h-21.041
		c-28.776,0-52.102,23.326-52.102,52.102c0,14.388,5.831,27.414,15.26,36.842s22.454,15.26,36.842,15.26h21.041
		c-14.388,0-27.414-5.831-36.842-15.26C121.557,87.03,115.726,74.005,115.726,59.616z"/>
	<path style="fill:#E0D3F2;" d="M199.89,186.665v-55.258c0-10.873-8.815-19.688-19.688-19.688h-1.353v74.946
		c0,7.304,5.922,13.226,13.226,13.226h15.631c0.928,0,1.832-0.097,2.705-0.279C204.404,198.362,199.89,193.042,199.89,186.665z"/>
</g>
<path style="fill:#AB9DD6;" d="M178.849,165.824v20.841c0,7.304,5.922,13.226,13.226,13.226h15.631
	c7.304,0,13.226-5.922,13.226-13.226v-20.841H178.849z"/>
<path style="fill:#8E81C6;" d="M209.106,199.814c0.441-0.047,0.876-0.114,1.304-0.203c0,0,0,0,0.001,0
	c-6.007-1.249-10.521-6.57-10.521-12.947v-20.841h-21.041v20.841c0,0.457,0.023,0.908,0.068,1.353
	c0.475,4.676,3.394,8.62,7.453,10.566c1.729,0.83,3.659,1.308,5.705,1.308h15.631c0.464,0,0.921-0.024,1.372-0.071
	C209.087,199.818,209.096,199.815,209.106,199.814z"/>
<g>
	<path style="fill:#4F4F74;" d="M315.115,47.092v25.049c0,5.811-4.709,10.521-10.521,10.521s-10.521-4.709-10.521-10.521V47.092
		c0-2.906,1.182-5.531,3.086-7.435c1.904-1.904,4.529-3.086,7.435-3.086C310.406,36.571,315.115,41.281,315.115,47.092z"/>
	<path style="fill:#4F4F74;" d="M147.789,47.092v25.049c0,5.811-4.709,10.521-10.521,10.521s-10.521-4.709-10.521-10.521V47.092
		c0-5.811,4.709-10.521,10.521-10.521c2.906,0,5.531,1.182,7.435,3.086C146.606,41.561,147.789,44.186,147.789,47.092z"/>
</g>
<g>
	<path style="fill:#3E436D;" d="M312.866,75.909c-5.811,0-10.521-4.709-10.521-10.521V40.34c0-1.281,0.241-2.502,0.661-3.635
		c-2.266,0.346-4.297,1.404-5.846,2.953c-1.904,1.904-3.086,4.529-3.086,7.435v25.049c0,5.811,4.709,10.521,10.521,10.521
		c4.531,0,8.381-2.869,9.862-6.884C313.937,75.856,313.408,75.909,312.866,75.909z"/>
	<path style="fill:#3E436D;" d="M145.539,75.909c-5.811,0-10.521-4.709-10.521-10.521V40.34c0-1.279,0.24-2.501,0.658-3.635
		c-5.054,0.767-8.929,5.118-8.929,10.387v25.049c0,5.811,4.709,10.521,10.521,10.521c4.531,0,8.381-2.869,9.862-6.884
		C146.61,75.856,146.081,75.909,145.539,75.909z"/>
</g>
<g>
	<circle style="fill:#CFC5DD;" cx="172.838" cy="44.587" r="10.02"/>
	<circle style="fill:#CFC5DD;" cx="269.025" cy="44.587" r="10.02"/>
</g>
<path style="fill:#FFEA6E;" d="M417.315,388.258v43.365c0,4.829-3.908,8.737-8.737,8.737H383.97c-4.829,0-8.737-3.908-8.737-8.737
	v-43.365c0-11.623,9.418-21.041,21.041-21.041C407.897,367.217,417.315,376.636,417.315,388.258z"/>
<path style="fill:#F9BD38;" d="M396.274,431.623v-43.365c0-7.785,4.237-14.565,10.521-18.204c-3.097-1.794-6.683-2.838-10.521-2.838
	c-11.623,0-21.041,9.418-21.041,21.041v43.365c0,4.829,3.908,8.737,8.737,8.737h21.041
	C400.182,440.36,396.274,436.452,396.274,431.623z"/>
<path style="fill:#EE8E3E;" d="M375.233,414.131v17.492c0,4.829,3.908,8.737,8.737,8.737h24.608c4.829,0,8.737-3.908,8.737-8.737
	v-17.492H375.233z"/>
<path style="fill:#E88338;" d="M396.274,431.623v-17.492h-21.041v17.492c0,4.829,3.908,8.737,8.737,8.737h21.041
	C400.182,440.36,396.274,436.452,396.274,431.623z"/>
<path d="M137.268,29.057c-9.944,0-18.035,8.091-18.035,18.035v25.049c0,9.944,8.091,18.035,18.035,18.035
	s18.035-8.091,18.035-18.035V47.092C155.303,37.148,147.213,29.057,137.268,29.057z M140.274,72.141
	c0,1.657-1.349,3.006-3.006,3.006s-3.006-1.349-3.006-3.006V47.092c0-1.657,1.349-3.006,3.006-3.006s3.006,1.349,3.006,3.006V72.141
	z"/>
<circle cx="172.838" cy="44.587" r="10.02"/>
<path d="M322.63,72.141V47.092c0-9.944-8.091-18.035-18.035-18.035s-18.035,8.091-18.035,18.035v25.049
	c0,9.944,8.091,18.035,18.035,18.035S322.63,82.085,322.63,72.141z M301.589,72.141V47.092c0-1.657,1.349-3.006,3.006-3.006
	s3.006,1.349,3.006,3.006v25.049c0,1.657-1.349,3.006-3.006,3.006S301.589,73.798,301.589,72.141z"/>
<circle cx="269.025" cy="44.587" r="10.02"/>
<path d="M403.789,360.714V199.389c0-26.52-21.575-48.094-48.094-48.094c-26.519,0-48.094,21.574-48.094,48.094v264.517
	c0,18.232-14.833,33.065-33.065,33.065h-12.023c-18.232,0-33.065-14.833-33.065-33.065V321.998
	c12.135-3.489,21.041-14.682,21.041-27.924v-86.705c11.111-0.376,20.039-9.508,20.039-20.707V158.81
	c0-4.151-3.365-7.515-7.515-7.515c-3.981,0-7.23,3.098-7.49,7.014h-27.078V59.616c0-24.585,20.001-44.587,44.587-44.587h22.043
	c24.586,0,44.587,20.002,44.587,44.587s-20.001,44.587-44.587,44.587H250.99l0,0c-4.15,0-7.515,3.364-7.515,7.515
	c0,4.151,3.365,7.515,7.515,7.515h4.509v9.519c0,4.151,3.365,7.515,7.515,7.515c4.15,0,7.515-3.364,7.515-7.515v-9.519h24.548
	c32.873,0,59.616-26.743,59.616-59.616S327.95,0,295.076,0h-22.043c-22.38,0-41.908,12.401-52.102,30.687
	C210.738,12.401,191.209,0,168.83,0h-22.043C113.913,0,87.17,26.743,87.17,59.616s26.743,59.616,59.616,59.616h24.548v67.429
	c0,11.438,9.306,20.744,20.745,20.744h0.297v26.552c0,4.151,3.365,7.515,7.515,7.515s7.515-3.364,7.515-7.515v-26.552h0.297
	c5.025,0,9.636-1.798,13.23-4.78c3.594,2.984,8.205,4.78,13.23,4.78h1.299v86.669c0,7.735-6.292,14.027-14.027,14.027
	s-14.027-6.292-14.027-14.027v-30.059c0-4.151-3.365-7.515-7.515-7.515s-7.515,3.364-7.515,7.515v30.059
	c0,13.604,9.399,25.049,22.043,28.196v141.636c0,26.52,21.575,48.094,48.094,48.094h12.023c26.519,0,48.094-21.574,48.094-48.094
	V199.389c0-18.232,14.833-33.065,33.065-33.065c18.232,0,33.065,14.833,33.065,33.065v161.324
	c-12.111,3.307-21.041,14.4-21.041,27.545v43.368c0,8.959,7.289,16.249,16.249,16.249h4.792v22.544c0,4.151,3.365,7.515,7.515,7.515
	c4.15,0,7.515-3.364,7.515-7.515v-22.544h4.792c8.959,0,16.249-7.288,16.249-16.249v-43.368
	C424.83,375.114,415.899,364.021,403.789,360.714z M146.787,104.204c-24.586,0-44.587-20.002-44.587-44.587
	s20.001-44.587,44.587-44.587h22.043c24.586,0,44.587,20.002,44.587,44.587v98.693h-27.053v-39.076h4.509
	c4.15,0,7.515-3.364,7.515-7.515c0-4.151-3.365-7.515-7.515-7.515l0,0H146.787z M207.702,192.376h-15.624
	c-3.151,0-5.715-2.564-5.715-5.714v-13.323h27.053v13.323C213.417,189.812,210.853,192.376,207.702,192.376z M228.446,186.662
	v-13.323h27.053v13.323c0,3.151-2.564,5.714-5.715,5.714H234.16C231.01,192.376,228.446,189.812,228.446,186.662z M396.274,374.732
	c7.459,0,13.526,6.068,13.526,13.526v18.358h-27.053v-18.358C382.748,380.8,388.815,374.732,396.274,374.732z M408.581,432.845
	h-24.613c-0.672,0-1.219-0.547-1.219-1.219v-9.98h27.053v9.98C409.8,432.298,409.253,432.845,408.581,432.845z"/>
<g>
</g>
<g>
</g>
<g>
</g>
<g>
</g>
<g>
</g>
<g>
</g>
<g>
</g>
<g>
</g>
<g>
</g>
<g>
</g>
<g>
</g>
<g>
</g>
<g>
</g>
<g>
</g>
<g>
</g>
</svg>
