<?xml version="1.0" encoding="iso-8859-1"?>
<!-- Generator: Adobe Illustrator 21.0.0, SVG Export Plug-In . SVG Version: 6.00 Build 0)  -->
<svg version="1.1" id="Capa_1" xmlns="http://www.w3.org/2000/svg" xmlns:xlink="http://www.w3.org/1999/xlink" x="0px" y="0px"
	 viewBox="0 0 512.001 512.001" style="enable-background:new 0 0 512.001 512.001;" xml:space="preserve">
<g>
	<path style="fill:#FECF54;" d="M206.447,380.164l-55.19-38.723h-7.315v127.283h7.315l0.198-0.167l50.123,35.165
		c2.809,1.97,6.669-0.03,6.669-3.469v-22.836v-29.795v-31.994v-31.994C208.247,382.254,207.577,380.954,206.447,380.164z"/>
	<path style="fill:#FECF54;" d="M360.981,43.419L310.66,8.116c-2.81-1.97-6.669,0.03-6.669,3.469v22.836v29.795V96.21v31.994
		c0,1.38,0.67,2.68,1.8,3.469l55.19,38.723h7.045V43.419L360.981,43.419L360.981,43.419z"/>
	<path style="fill:#FECF54;" d="M437.297,8.116l-50.321,35.304h-5.894v126.977h5.894l55.19-38.723c1.13-0.79,1.8-2.09,1.8-3.469
		V96.21V64.215V34.421V11.585C443.966,8.146,440.107,6.146,437.297,8.116z"/>
</g>
<path style="fill:#CEC1E7;" d="M386.976,39.583v381.451l-12.398,5.479l-13.598-5.899V39.583c0-7.179,5.819-12.998,12.998-12.998
	C381.157,26.585,386.976,32.404,386.976,39.583z"/>
<path style="fill:#E52828;" d="M129.023,168.469v35.993H82.571c-2.919,0-4.469-3.449-2.53-5.629l7.159-8.069
	c2.19-2.45,2.19-6.149,0-8.598l-7.159-8.069c-1.94-2.18-0.39-5.629,2.53-5.629L129.023,168.469L129.023,168.469z"/>
<path style="fill:#FE4583;" d="M437.297,8.278l-50.321,35.304v30.994l56.99-39.993V11.748
	C443.966,8.308,440.107,6.309,437.297,8.278z"/>
<path style="fill:#85C255;" d="M386.976,138.565v31.994l55.19-38.723c1.13-0.79,1.8-2.09,1.8-3.469V96.372
	c0,1.38-0.67,2.68-1.8,3.469L386.976,138.565z"/>
<path style="fill:#FE715A;" d="M386.976,74.576v31.994l55.19-38.723c1.13-0.79,1.8-2.09,1.8-3.469V34.584L386.976,74.576z"/>
<path style="fill:#FECF54;" d="M74.941,503.721c-2.809,1.97-6.669-0.03-6.669-3.469v-22.836v-29.795v-31.994v-31.994
	c0-1.38,0.67-2.68,1.8-3.469l55.19-38.723v31.994v31.994v31.994v30.994L74.941,503.721z"/>
<path id="SVGCleanerId_0" style="fill:#FE4583;" d="M74.941,503.721l50.321-35.304v-30.994l-56.99,39.993v22.836
	C68.272,503.691,72.131,505.691,74.941,503.721z"/>
<path id="SVGCleanerId_1" style="fill:#85C255;" d="M125.262,373.435v-31.994l-55.19,38.723c-1.13,0.79-1.8,2.09-1.8,3.469v31.994
	c0-1.38,0.67-2.68,1.8-3.469L125.262,373.435z"/>
<path id="SVGCleanerId_2" style="fill:#FE715A;" d="M125.262,437.424v-31.994l-55.19,38.723c-1.13,0.79-1.8,2.09-1.8,3.469v29.795
	L125.262,437.424z"/>
<path style="fill:#CEC1E7;" d="M125.262,472.417V96.965l12.398-5.479l13.598,5.899v375.032c0,7.179-5.819,12.998-12.998,12.998
	C131.081,485.415,125.262,479.596,125.262,472.417z"/>
<path style="fill:#FECF54;" d="M125.262,341.441l-55.19,38.723c-1.13,0.79-1.8,2.09-1.8,3.469v31.994v31.994v29.795v22.836
	c0,3.439,3.859,5.439,6.669,3.469l50.321-35.304l4.557-0.276V341.441H125.262z"/>
<g>
	<path id="SVGCleanerId_0_1_" style="fill:#FE4583;" d="M74.941,503.721l50.321-35.304v-30.994l-56.99,39.993v22.836
		C68.272,503.691,72.131,505.691,74.941,503.721z"/>
</g>
<g>
	<path id="SVGCleanerId_1_1_" style="fill:#85C255;" d="M125.262,373.435v-31.994l-55.19,38.723c-1.13,0.79-1.8,2.09-1.8,3.469
		v31.994c0-1.38,0.67-2.68,1.8-3.469L125.262,373.435z"/>
</g>
<g>
	<path id="SVGCleanerId_2_1_" style="fill:#FE715A;" d="M125.262,437.424v-31.994l-55.19,38.723c-1.13,0.79-1.8,2.09-1.8,3.469
		v29.795L125.262,437.424z"/>
</g>
<path style="fill:#CEC1E7;" d="M125.262,472.417V87.967l12.398-5.479l13.598,5.899v384.03c0,7.179-5.819,12.998-12.998,12.998
	C131.081,485.415,125.262,479.596,125.262,472.417z"/>
<g>
	<path style="fill:#AB9DD6;" d="M373.979,420.614V39.583c0-4.808,2.618-8.996,6.499-11.245c-1.914-1.108-4.128-1.753-6.499-1.753
		c-7.179,0-12.998,5.819-12.998,12.998v381.031l13.598,5.899l6.439-2.845L373.979,420.614z"/>
	<path style="fill:#AB9DD6;" d="M138.259,472.416V87.966l5.959-2.634l-6.559-2.845l-12.398,5.479v384.45
		c0,7.179,5.819,12.998,12.998,12.998c2.371,0,4.585-0.645,6.499-1.753C140.877,481.414,138.259,477.225,138.259,472.416z"/>
</g>
<path style="fill:#FE4583;" d="M201.578,503.721l-50.321-35.304v-30.994l56.99,39.993v22.836
	C208.247,503.691,204.387,505.691,201.578,503.721z"/>
<path style="fill:#85C255;" d="M151.257,373.435v-31.994l55.19,38.723c1.13,0.79,1.8,2.09,1.8,3.469v31.994
	c0-1.38-0.67-2.68-1.8-3.469L151.257,373.435z"/>
<path style="fill:#FE715A;" d="M151.257,437.424v-31.994l55.19,38.723c1.13,0.79,1.8,2.09,1.8,3.469v29.795L151.257,437.424z"/>
<path style="fill:#65657F;" d="M378.281,498.283c-1.678,2.817-5.752,2.832-7.452,0.029l-55.77-92.006
	c-2.969-4.899,2.11-10.718,7.359-8.438l38.563,16.747l13.598,5.899l12.398-5.479l38.643-17.067c5.239-2.32,10.348,3.459,7.419,8.378
	L378.281,498.283z"/>
<path style="fill:#FE4583;" d="M310.66,8.278l50.321,35.304v30.994l-56.99-39.993V11.748C303.991,8.308,307.851,6.309,310.66,8.278z
	"/>
<path style="fill:#85C255;" d="M360.981,138.565v31.994l-55.19-38.723c-1.13-0.79-1.8-2.09-1.8-3.469V96.372
	c0,1.38,0.67,2.68,1.8,3.469L360.981,138.565z"/>
<path style="fill:#FE715A;" d="M360.981,74.576v31.994l-55.19-38.723c-1.13-0.79-1.8-2.09-1.8-3.469V34.584L360.981,74.576z"/>
<path style="fill:#FE4583;" d="M159.018,169.919v33.094c0,5.219-4.229,9.448-9.448,9.448h-23.096c-5.219,0-9.448-4.229-9.448-9.448
	v-33.094c0-5.219,4.229-9.448,9.448-9.448h23.096C154.788,160.471,159.018,164.7,159.018,169.919z"/>
<path style="fill:#FC3268;" d="M135.887,203.013v-33.094c0-5.219,4.229-9.448,9.448-9.448h-18.862c-5.219,0-9.448,4.229-9.448,9.448
	v33.094c0,5.219,4.229,9.448,9.448,9.448h18.862C140.116,212.461,135.887,208.232,135.887,203.013z"/>
<path style="fill:#65657F;" d="M133.709,14.133c1.791-3.006,6.138-3.023,7.952-0.031l55.518,91.59
	c2.969,4.899-2.11,10.718-7.359,8.438l-38.563-16.747l-13.598-5.899l-12.398,5.479l-38.643,17.067
	c-5.239,2.32-10.348-3.459-7.419-8.378L133.709,14.133z"/>
<g>
	<path style="fill:#3E436D;" d="M138.201,11.899c-1.704-0.184-3.494,0.561-4.491,2.235l-54.509,91.52
		c-2.929,4.919,2.18,10.698,7.419,8.378l38.643-17.067l12.398-5.479l0.541,0.235V11.899z"/>
	<path style="fill:#3E436D;" d="M374.288,420.388l-13.308-5.773l-38.563-16.747c-5.249-2.28-10.328,3.539-7.359,8.438l55.77,92.006
		c0.796,1.313,2.113,2,3.459,2.078V420.388z"/>
</g>
<path d="M210.513,374.028l-51.996-36.489v-29.595c0-4.142-3.356-7.499-7.499-7.499c-4.142,0-7.499,3.356-7.499,7.499v164.47
	c0,3.031-2.468,5.499-5.499,5.499c-3.031,0-5.499-2.468-5.499-5.499V219.96h10.998v57.989c0,4.142,3.356,7.499,7.499,7.499
	c4.142,0,7.499-3.356,7.499-7.499v-60.573c4.793-2.998,7.999-8.309,7.999-14.367v-33.086c0-6.059-3.205-11.37-7.999-14.367v-46.739
	l28.075,12.189h-0.001c1.731,0.751,3.548,1.115,5.345,1.115c3.77,0,7.451-1.604,10.056-4.587c3.846-4.406,4.394-10.727,1.362-15.727
	l-59.52-98.195C142.475,1.369,140.043,0,137.422,0c-0.01,0-0.02,0-0.029,0c-2.633,0.01-5.066,1.4-6.413,3.661l-58.463,98.156
	c-2.991,5.021-2.397,11.335,1.478,15.711c3.874,4.374,10.068,5.726,15.416,3.365l28.116-12.423v47.084
	c-2.192,1.371-4.044,3.223-5.415,5.415H82.568c-4.277,0-8.175,2.521-9.927,6.424c-1.753,3.903-1.049,8.49,1.794,11.689l6.562,7.383
	l-6.563,7.383c-2.841,3.198-3.545,7.787-1.793,11.689c1.753,3.902,5.65,6.424,9.927,6.424h29.542
	c1.371,2.192,3.223,4.044,5.415,5.415v120.162l-51.993,36.487c-3.129,2.194-4.997,5.786-4.997,9.608v116.622
	c0,4.395,2.424,8.386,6.324,10.414c1.712,0.89,3.567,1.329,5.418,1.329c2.366,0,4.719-0.72,6.738-2.137l-0.001,0.001l40.601-28.492
	c3.332,6.819,10.32,11.539,18.407,11.539c8.087,0,15.074-4.719,18.407-11.539l40.6,28.491c2.02,1.418,4.372,2.137,6.738,2.137
	c1.85,0,3.707-0.439,5.418-1.329c3.9-2.028,6.324-6.019,6.324-10.414V383.634C215.507,379.812,213.64,376.22,210.513,374.028z
	 M192.566,107.25L192.566,107.25l-0.005-0.002C192.563,107.249,192.564,107.25,192.566,107.25z M117.525,401.527l-41.992,29.47
	v-13.673l41.992-29.468V401.527z M75.533,449.317l41.992-29.468v13.672L75.533,462.99V449.317z M149.565,167.969
	c1.077,0,1.954,0.877,1.954,1.954v33.086c0,1.077-0.877,1.954-1.954,1.954h-23.088c-1.077,0-1.954-0.877-1.954-1.954v-33.086
	c0-1.077,0.877-1.954,1.954-1.954H149.565z M88.007,105.118l42.516-71.383v16.756c0,4.142,3.356,7.499,7.499,7.499
	c4.142,0,7.499-3.356,7.499-7.499V35.327l42.363,69.891L145.52,86.824V74.486c0-4.142-3.356-7.499-7.499-7.499
	c-4.142,0-7.499,3.356-7.499,7.499v11.847L88.007,105.118z M137.448,99.67l6.073,2.637v50.666h-10.998v-51.127L137.448,99.67z
	 M92.811,177.182l-1.079-1.214h17.796v20.996H91.732l1.079-1.213C97.516,190.457,97.516,182.475,92.811,177.182z M117.525,355.861
	v13.672l-41.992,29.47V385.33L117.525,355.861z M75.533,493.984v-12.672l41.992-29.469v12.672L75.533,493.984z M200.51,430.996
	l-41.992-29.469v-13.672l41.992,29.468V430.996z M158.518,419.85l41.992,29.468v13.672l-41.992-29.469V419.85z M200.51,385.329
	v13.672l-41.992-29.469V355.86L200.51,385.329z M158.518,464.517v-12.672l41.992,29.469v12.672L158.518,464.517z"/>
<path d="M445.143,1.331c-3.9-2.027-8.558-1.718-12.156,0.806c0,0,0,0-0.001,0l-40.601,28.492
	c-3.332-6.818-10.32-11.538-18.407-11.538s-15.073,4.719-18.407,11.538l-40.6-28.492c-0.001,0-0.001,0-0.001,0
	c-3.598-2.526-8.258-2.832-12.156-0.806c-3.899,2.028-6.322,6.018-6.322,10.413v116.623c0,3.819,1.867,7.411,4.994,9.607
	l51.996,36.487V328.44c0,4.142,3.356,7.499,7.499,7.499s7.499-3.356,7.499-7.499V39.587c0-3.032,2.467-5.499,5.499-5.499
	s5.499,2.467,5.499,5.499v370.568l-4.925,2.176l-6.073-2.637v-51.259c0-4.142-3.356-7.499-7.499-7.499s-7.499,3.356-7.499,7.499
	v44.748l-28.075-12.189c-5.366-2.331-11.554-0.933-15.4,3.474c-3.845,4.405-4.392,10.726-1.361,15.726l59.52,98.195
	c1.36,2.243,3.791,3.611,6.413,3.611c0.01,0,0.02,0,0.029,0c2.633-0.01,5.066-1.4,6.413-3.661l58.463-98.157
	c2.991-5.02,2.397-11.334-1.478-15.71c-3.874-4.374-10.068-5.726-15.416-3.365l-28.116,12.423V174.461l51.997-36.488
	c3.126-2.196,4.993-5.787,4.993-9.606V11.744C451.464,7.349,449.043,3.358,445.143,1.331z M353.482,92.15L311.49,62.683V49.011
	l41.992,29.468V92.15z M311.49,81.005l41.992,29.468v13.672L311.49,94.677V81.005z M353.482,47.483v12.672L311.49,30.687V18.016
	L353.482,47.483z M311.49,126.671v-13.672l41.992,29.468v13.672L311.49,126.671z M423.994,406.882l-42.516,71.383v-16.757
	c0-4.142-3.356-7.499-7.499-7.499c-4.142,0-7.499,3.356-7.499,7.499v15.164l-42.363-69.891l42.363,18.393v12.338
	c0,4.142,3.356,7.499,7.499,7.499c4.142,0,7.499-3.356,7.499-7.499v-11.847L423.994,406.882z M436.467,62.683L394.475,92.15V78.479
	l41.992-29.468V62.683z M394.475,110.473l41.992-29.468v13.673l-41.992,29.468V110.473z M436.467,18.016v12.673l-41.992,29.468
	V47.483L436.467,18.016z M394.475,156.139v-13.672l41.992-29.468v13.673L394.475,156.139z"/>
<g>
</g>
<g>
</g>
<g>
</g>
<g>
</g>
<g>
</g>
<g>
</g>
<g>
</g>
<g>
</g>
<g>
</g>
<g>
</g>
<g>
</g>
<g>
</g>
<g>
</g>
<g>
</g>
<g>
</g>
</svg>
