<?xml version="1.0" encoding="iso-8859-1"?>
<!-- Generator: Adobe Illustrator 21.0.0, SVG Export Plug-In . SVG Version: 6.00 Build 0)  -->
<svg version="1.1" id="Capa_1" xmlns="http://www.w3.org/2000/svg" xmlns:xlink="http://www.w3.org/1999/xlink" x="0px" y="0px"
	 viewBox="0 0 512 512" style="enable-background:new 0 0 512 512;" xml:space="preserve">
<path style="fill:#CF8AFA;" d="M321.356,360.12l30.553-36.802l-278.095-3.587l33.846,40.386
	c-19.963,3.407-35.16,20.779-35.16,41.713v60.34c0,23.38,18.95,42.33,42.33,42.33h199.34c23.38,0,42.33-18.95,42.33-42.33v-60.34
	C356.5,380.901,341.311,363.533,321.356,360.12z"/>
<path style="fill:#C283FF;" d="M257.543,346.563h-93.579c-10.15,0-19.778-4.494-26.298-12.273l-11.638-13.886l-52.215-0.673
	l33.846,40.386c-19.963,3.407-35.16,20.779-35.16,41.713v60.34c0,23.378,18.952,42.33,42.33,42.33h51.65
	c-23.38,0-42.33-18.95-42.33-42.33v-60.34c0-19.71,13.473-36.257,31.708-40.97h101.984c4.021,0,7.267-3.32,7.145-7.368
	C264.871,349.58,261.457,346.563,257.543,346.563z"/>
<g>
	<circle style="fill:#4ACE99;" cx="271.5" cy="47.5" r="40"/>
	<circle style="fill:#4ACE99;" cx="297.5" cy="146.5" r="18"/>
	<circle style="fill:#4ACE99;" cx="190.5" cy="186.5" r="29"/>
</g>
<g>
	<path style="fill:#2CC651;" d="M257.991,40c0-13.315,6.513-25.104,16.521-32.375C273.517,7.55,272.515,7.5,271.5,7.5
		c-22.09,0-40,17.91-40,40s17.91,40,40,40c8.774,0,16.884-2.833,23.479-7.625C274.297,78.333,257.991,61.075,257.991,40z"/>
	<path style="fill:#2CC651;" d="M294.979,141c0-4.774,1.872-9.102,4.906-12.324c-0.782-0.104-1.574-0.176-2.385-0.176
		c-9.94,0-18,8.06-18,18s8.06,18,18,18c5.166,0,9.812-2.189,13.094-5.676C301.784,157.654,294.979,150.129,294.979,141z"/>
	<path style="fill:#2CC651;" d="M187.991,179c0-8.166,3.378-15.537,8.806-20.807c-2.029-0.449-4.134-0.693-6.298-0.693
		c-16.02,0-29,12.98-29,29s12.98,29,29,29c7.854,0,14.972-3.125,20.194-8.193C197.705,204.431,187.991,192.856,187.991,179z"/>
</g>
<path style="fill:#9965CA;" d="M336.5,264.5h-242H69.806c-4.035,0-7.306,3.271-7.306,7.306V296.5c0,17.673,14.327,32,32,32h242
	c8.84,0,16.84-3.58,22.63-9.37s9.37-13.79,9.37-22.63v-24.694c0-4.035-3.271-7.306-7.306-7.306H336.5z"/>
<path style="fill:#FE4583;" d="M336.5,238.5c17.67,0,32,14.33,32,32c0,8.84-3.58,16.84-9.37,22.63s-13.79,9.37-22.63,9.37h-242
	c-17.67,0-32-14.33-32-32c0-8.84,3.58-16.84,9.37-22.63c5.79-5.79,13.79-9.37,22.63-9.37H336.5z"/>
<path style="fill:#4ACE99;" d="M336.5,267.5h-242c-8.84,0-16.84,3.58-22.63,9.37c-2.369,2.368-4.359,5.111-5.895,8.126
	C71.265,295.381,82.049,302.5,94.5,302.5h242c8.84,0,16.84-3.58,22.63-9.37c2.369-2.368,4.359-5.111,5.895-8.126
	C359.735,274.619,348.951,267.5,336.5,267.5z"/>
<path style="fill:#2CC651;" d="M150.976,295.07c-8.872,0-16.897-3.614-22.691-9.449c-4.393-4.423-4.404-11.688-0.009-16.109
	c0.024-0.024,0.047-0.047,0.071-0.071c0.679-0.679,1.39-1.324,2.128-1.94H94.5c-8.84,0-16.84,3.58-22.63,9.37
	c-2.369,2.368-4.359,5.111-5.895,8.126C71.265,295.381,82.049,302.5,94.5,302.5h242c7.804,0,14.95-2.793,20.502-7.43H150.976z"/>
<path d="M258.184,427.48l13.292-22.848c1.35-2.32,1.357-5.185,0.019-7.511c-1.338-2.326-3.817-3.761-6.501-3.761h-27.739
	l-13.362-21.782c-1.363-2.223-3.784-3.578-6.393-3.578s-5.029,1.355-6.393,3.578l-13.362,21.782h-27.737
	c-2.684,0-5.163,1.435-6.501,3.761c-1.339,2.326-1.331,5.19,0.019,7.511l13.291,22.847l-14.783,24.099
	c-1.42,2.314-1.479,5.216-0.152,7.585s3.83,3.837,6.545,3.837h29.053l13.538,23.272c1.343,2.309,3.812,3.729,6.482,3.729
	s5.14-1.42,6.482-3.729L237.52,463h29.052c2.715,0,5.219-1.468,6.545-3.837s1.268-5.271-0.152-7.585L258.184,427.48z
	 M251.953,408.36l-2.676,4.6l-2.822-4.6H251.953z M240.712,427.684l-11.818,20.315h-22.787l-11.819-20.316l11.853-19.322h22.717
	L240.712,427.684z M217.5,389.844l2.157,3.517h-4.314L217.5,389.844z M183.049,408.36h5.496l-2.821,4.598L183.049,408.36z
	 M181.826,447.999l3.556-5.797l3.372,5.797H181.826z M217.501,467.585l-2.668-4.586h5.335L217.501,467.585z M246.248,447.999
	l3.371-5.795l3.555,5.795H246.248z"/>
<path d="M450.5,469H418c-3.309,0-6-2.691-6-6v-2c0-3.309,2.691-6,6-6c11.579,0,21-9.421,21-21v-3c0-11.579-9.421-21-21-21h-24.265
	c-3.383-10.434-13.189-18-24.735-18h-5.981c-3.25-16.166-14.341-29.53-29.126-35.929l19.815-24.022
	C366.89,325.642,376,312.116,376,296.5v-26c0-21.78-17.72-39.5-39.5-39.5h-242C72.72,231,55,248.72,55,270.5v26
	c0,14.621,7.992,27.403,19.83,34.232l20.389,25.291c-14.842,6.379-25.981,19.77-29.239,35.978H60c-14.337,0-26,11.663-26,26
	s11.663,26,26,26h5v18.166C65,489.645,87.355,512,114.834,512h199.332C341.645,512,364,489.645,364,462.166V444h5
	c11.912,0,21.97-8.054,25.035-19H418c3.309,0,6,2.691,6,6v3c0,3.309-2.691,6-6,6c-11.579,0-21,9.421-21,21v2
	c0,11.579,9.421,21,21,21h32.5c4.143,0,7.5-3.357,7.5-7.5S454.643,469,450.5,469z M94.5,246h242
	c12.815,0,23.356,9.891,24.407,22.439C354.083,263.064,345.563,260,336.5,260h-242c-9.063,0-17.583,3.064-24.407,8.439
	C71.144,255.891,81.685,246,94.5,246z M60,429c-6.065,0-11-4.935-11-11s4.935-11,11-11h5v22H60z M349,462.166
	C349,481.374,333.373,497,314.166,497H114.834C95.627,497,80,481.374,80,462.166v-60.332C80,382.626,95.627,367,114.834,367H137.5
	c4.143,0,7.5-3.357,7.5-7.5s-3.357-7.5-7.5-7.5h-26.256l-12.899-16H142.5c4.143,0,7.5-3.357,7.5-7.5s-3.357-7.5-7.5-7.5h-48
	c-11.643,0-21.407-8.165-23.885-19.067C77.253,306.989,85.53,310,94.5,310h174.25c4.143,0,7.5-3.357,7.5-7.5s-3.357-7.5-7.5-7.5
	H94.5c-8.087,0-15.268-3.94-19.732-10c4.574-6.245,11.824-10,19.732-10h242c7.909,0,15.158,3.755,19.732,10
	c-4.464,6.059-11.646,10-19.732,10h-37.75c-4.143,0-7.5,3.357-7.5,7.5s3.357,7.5,7.5,7.5h37.75c8.97,0,17.247-3.011,23.885-8.067
	C357.907,312.835,348.143,321,336.5,321h-164c-4.143,0-7.5,3.357-7.5,7.5s3.357,7.5,7.5,7.5h158.503l-13.197,16H291.5
	c-4.143,0-7.5,3.357-7.5,7.5s3.357,7.5,7.5,7.5h22.666C333.373,367,349,382.626,349,401.834V462.166z M369,429h-5v-22h5
	c6.065,0,11,4.935,11,11S375.065,429,369,429z"/>
<path d="M190.5,223c20.126,0,36.5-16.374,36.5-36.5S210.626,150,190.5,150S154,166.374,154,186.5S170.374,223,190.5,223z M190.5,165
	c11.855,0,21.5,9.645,21.5,21.5s-9.645,21.5-21.5,21.5s-21.5-9.645-21.5-21.5S178.645,165,190.5,165z"/>
<path d="M297.5,121c-14.061,0-25.5,11.439-25.5,25.5s11.439,25.5,25.5,25.5s25.5-11.439,25.5-25.5S311.561,121,297.5,121z
	 M297.5,157c-5.79,0-10.5-4.71-10.5-10.5s4.71-10.5,10.5-10.5s10.5,4.71,10.5,10.5S303.29,157,297.5,157z"/>
<path d="M271.5,95c26.191,0,47.5-21.309,47.5-47.5S297.691,0,271.5,0S224,21.309,224,47.5S245.309,95,271.5,95z M271.5,15
	c17.921,0,32.5,14.579,32.5,32.5S289.421,80,271.5,80S239,65.421,239,47.5S253.579,15,271.5,15z"/>
<path d="M74.5,141c4.143,0,7.5-3.357,7.5-7.5v-8c0-4.143-3.357-7.5-7.5-7.5s-7.5,3.357-7.5,7.5v8C67,137.643,70.357,141,74.5,141z"
	/>
<path d="M92.5,160h8c4.143,0,7.5-3.357,7.5-7.5s-3.357-7.5-7.5-7.5h-8c-4.143,0-7.5,3.357-7.5,7.5S88.357,160,92.5,160z"/>
<path d="M73.5,186c4.143,0,7.5-3.357,7.5-7.5v-8c0-4.143-3.357-7.5-7.5-7.5s-7.5,3.357-7.5,7.5v8C66,182.643,69.357,186,73.5,186z"
	/>
<path d="M47.5,159h8c4.143,0,7.5-3.357,7.5-7.5s-3.357-7.5-7.5-7.5h-8c-4.143,0-7.5,3.357-7.5,7.5S43.357,159,47.5,159z"/>
<path d="M444.5,338c4.143,0,7.5-3.357,7.5-7.5v-8c0-4.143-3.357-7.5-7.5-7.5s-7.5,3.357-7.5,7.5v8
	C437,334.643,440.357,338,444.5,338z"/>
<path d="M470.5,342h-8c-4.143,0-7.5,3.357-7.5,7.5s3.357,7.5,7.5,7.5h8c4.143,0,7.5-3.357,7.5-7.5S474.643,342,470.5,342z"/>
<path d="M443.5,383c4.143,0,7.5-3.357,7.5-7.5v-8c0-4.143-3.357-7.5-7.5-7.5s-7.5,3.357-7.5,7.5v8
	C436,379.643,439.357,383,443.5,383z"/>
<path d="M417.5,356h8c4.143,0,7.5-3.357,7.5-7.5s-3.357-7.5-7.5-7.5h-8c-4.143,0-7.5,3.357-7.5,7.5S413.357,356,417.5,356z"/>
<g>
</g>
<g>
</g>
<g>
</g>
<g>
</g>
<g>
</g>
<g>
</g>
<g>
</g>
<g>
</g>
<g>
</g>
<g>
</g>
<g>
</g>
<g>
</g>
<g>
</g>
<g>
</g>
<g>
</g>
</svg>
