<?xml version="1.0" encoding="iso-8859-1"?>
<!-- Generator: Adobe Illustrator 21.0.0, SVG Export Plug-In . SVG Version: 6.00 Build 0)  -->
<svg version="1.1" id="Capa_1" xmlns="http://www.w3.org/2000/svg" xmlns:xlink="http://www.w3.org/1999/xlink" x="0px" y="0px"
	 viewBox="0 0 512 512" style="enable-background:new 0 0 512 512;" xml:space="preserve">
<path style="fill:#4F4F74;" d="M413.692,173.162v256.603c0,1.596-1.293,2.89-2.89,2.89H98.308V173.162H413.692z"/>
<path style="fill:#3E436D;" d="M410.802,407.704H98.308v24.951h312.494c1.596,0,2.89-1.294,2.89-2.89v-24.951
	C413.692,406.409,412.398,407.704,410.802,407.704z"/>
<path style="fill:#82DBBA;" d="M388.741,202.803v200.21c0,2.59-2.1,4.69-4.69,4.69H127.949c-2.59,0-4.69-2.1-4.69-4.69v-200.21
	c0-2.59,2.1-4.69,4.69-4.69H384.05C386.641,198.113,388.741,200.213,388.741,202.803z"/>
<path style="fill:#5BCE95;" d="M330.218,372.616c-96.64,0-174.982-78.342-174.982-174.982l0,0H127.45c-2.59,0-4.69,2.1-4.69,4.69
	v200.21c0,2.59,2.1,4.69,4.69,4.69h256.101c2.59,0,4.69-2.1,4.69-4.69v-29.919L330.218,372.616L330.218,372.616z"/>
<path style="fill:#F8D46E;" d="M98.308,173.162v259.493H40.581c-18.274,0-33.095-14.821-33.095-33.095V206.257
	c0-18.274,14.821-33.095,33.095-33.095H98.308z"/>
<path style="fill:#F7C852;" d="M49.696,407.704c-6.776,0-12.269-5.493-12.269-12.269V181.306c0-2.783,0.347-5.484,0.995-8.066
	c-17.268,1.114-30.937,15.47-30.937,33.018V399.56c0,18.274,14.821,33.095,33.095,33.095h57.727v-24.951H49.696z"/>
<path style="fill:#FE715A;" d="M504.515,112.44v193.302c0,18.274-14.821,33.095-33.095,33.095h-57.727V90.284
	c0-6.038,4.9-10.939,10.939-10.939h46.789C489.694,79.345,504.515,94.166,504.515,112.44z"/>
<path style="fill:#FF4C39;" d="M492.933,321.131h-50.456c-4.016,0-7.272-3.256-7.272-7.272V79.345h-10.574
	c-6.041,0-10.939,4.897-10.939,10.939v248.555h57.727c13.141,0,24.496-7.664,29.839-18.764
	C498.598,320.763,495.809,321.131,492.933,321.131z"/>
<circle style="fill:#4F4F74;" cx="52.398" cy="257.996" r="21.957"/>
<path style="fill:#404063;" d="M47.906,253.006c0-6.702,3.006-12.698,7.74-16.726c-1.06-0.158-2.145-0.241-3.249-0.241
	c-12.126,0-21.957,9.831-21.957,21.957c0,12.126,9.831,21.957,21.957,21.957c5.424,0,10.386-1.971,14.217-5.231
	C56.03,273.151,47.906,264.028,47.906,253.006z"/>
<g>
	<circle style="fill:#4F4F74;" cx="50.431" cy="313.767" r="11.422"/>
	<circle style="fill:#4F4F74;" cx="50.402" cy="355.865" r="11.422"/>
	<circle style="fill:#4F4F74;" cx="71.391" cy="334.846" r="11.422"/>
	<circle style="fill:#4F4F74;" cx="29.417" cy="334.786" r="11.422"/>
</g>
<g>
	<path style="fill:#404063;" d="M58.347,320.564c-6.308,0-11.422-5.113-11.422-11.422c0-2.512,0.82-4.828,2.196-6.713
		c-5.69,0.651-10.11,5.476-10.11,11.341c0,6.308,5.113,11.422,11.422,11.422c3.796,0,7.149-1.859,9.226-4.708
		C59.227,320.532,58.791,320.564,58.347,320.564z"/>
	<path style="fill:#404063;" d="M58.317,362.656c-6.308,0-11.422-5.114-11.422-11.422c0-2.512,0.82-4.828,2.196-6.713
		c-5.69,0.651-10.11,5.476-10.11,11.341c0,6.308,5.113,11.422,11.422,11.422c3.796,0,7.149-1.859,9.226-4.708
		C59.196,362.624,58.76,362.656,58.317,362.656z"/>
	<path style="fill:#404063;" d="M79.301,341.64c-6.308,0-11.422-5.114-11.422-11.422c0-2.512,0.82-4.828,2.196-6.713
		c-5.69,0.651-10.11,5.476-10.11,11.341c0,6.308,5.114,11.422,11.422,11.422c3.796,0,7.149-1.859,9.226-4.708
		C80.181,341.609,79.745,341.64,79.301,341.64z"/>
	<path style="fill:#404063;" d="M37.332,341.579c-6.308,0-11.422-5.113-11.422-11.422c0-2.512,0.82-4.828,2.196-6.713
		c-5.69,0.651-10.11,5.476-10.11,11.341c0,6.308,5.113,11.422,11.422,11.422c3.796,0,7.149-1.859,9.226-4.708
		C38.211,341.548,37.776,341.579,37.332,341.579z"/>
</g>
<g>
	<circle style="fill:#4F4F74;" cx="459.602" cy="251.509" r="21.957"/>
	<circle style="fill:#4F4F74;" cx="459.602" cy="195.678" r="11.422"/>
	<circle style="fill:#4F4F74;" cx="459.602" cy="153.64" r="11.422"/>
	<circle style="fill:#4F4F74;" cx="438.583" cy="174.659" r="11.422"/>
	<circle style="fill:#4F4F74;" cx="480.621" cy="174.659" r="11.422"/>
</g>
<path d="M388.741,190.628H123.259c-4.134,0-7.485,3.351-7.485,7.485v137.731c0,4.134,3.351,7.485,7.485,7.485
	c4.134,0,7.485-3.351,7.485-7.485V205.598h250.511v194.62H130.745v-34.433c0-4.134-3.351-7.485-7.485-7.485
	c-4.134,0-7.485,3.351-7.485,7.485v41.918c0,4.134,3.351,7.485,7.485,7.485h265.482c4.134,0,7.485-3.351,7.485-7.485V198.113
	C396.226,193.979,392.875,190.628,388.741,190.628z"/>
<path d="M471.414,71.86H424.63c-10.158,0-18.423,8.265-18.423,18.423v75.394H40.586l0,0C18.206,165.676,0,183.883,0,206.262v193.293
	c0,22.378,18.206,40.585,40.586,40.585l0,0h373.106c4.134,0,7.485-3.351,7.485-7.485v-86.331h50.237
	c22.379,0,40.586-18.206,40.586-40.586V112.445C512,90.066,493.794,71.86,471.414,71.86z M14.971,399.555V206.262
	c0-14.124,11.491-25.615,25.615-25.615h50.237V425.17H40.586C26.461,425.17,14.971,413.679,14.971,399.555z M497.029,305.738
	c0,14.124-11.491,25.615-25.615,25.615h-50.237v-82.339c0-4.134-3.351-7.485-7.485-7.485c-4.134,0-7.485,3.351-7.485,7.485V425.17
	l0,0H105.793V180.647h300.413v38.425c0,4.134,3.351,7.485,7.485,7.485c4.134,0,7.485-3.351,7.485-7.485V90.283l0,0
	c0-1.903,1.549-3.452,3.452-3.452h46.785c14.124,0,25.615,11.491,25.615,25.615V305.738z"/>
<path d="M52.398,287.439c16.234,0,29.442-13.208,29.442-29.443s-13.208-29.442-29.442-29.442s-29.442,13.208-29.442,29.442
	S36.163,287.439,52.398,287.439z M52.398,243.524c7.979,0,14.472,6.492,14.472,14.472c0,7.979-6.492,14.472-14.472,14.472
	s-14.472-6.492-14.472-14.472C37.926,250.017,44.418,243.524,52.398,243.524z"/>
<circle cx="52.398" cy="313.827" r="11.422"/>
<circle cx="52.398" cy="355.865" r="11.422"/>
<circle cx="73.417" cy="334.846" r="11.422"/>
<circle cx="31.383" cy="334.846" r="11.422"/>
<path d="M459.602,222.066c-16.234,0-29.443,13.208-29.443,29.442s13.208,29.442,29.443,29.442s29.442-13.208,29.442-29.442
	S475.837,222.066,459.602,222.066z M459.602,265.98c-7.979,0-14.472-6.492-14.472-14.472s6.492-14.472,14.472-14.472
	c7.979,0,14.472,6.492,14.472,14.472S467.582,265.98,459.602,265.98z"/>
<circle cx="459.602" cy="195.678" r="11.422"/>
<circle cx="459.602" cy="153.64" r="11.422"/>
<circle cx="438.583" cy="174.659" r="11.422"/>
<circle cx="480.621" cy="174.659" r="11.422"/>
<g>
</g>
<g>
</g>
<g>
</g>
<g>
</g>
<g>
</g>
<g>
</g>
<g>
</g>
<g>
</g>
<g>
</g>
<g>
</g>
<g>
</g>
<g>
</g>
<g>
</g>
<g>
</g>
<g>
</g>
</svg>
