<?xml version="1.0" encoding="iso-8859-1"?>
<!-- Generator: Adobe Illustrator 21.0.0, SVG Export Plug-In . SVG Version: 6.00 Build 0)  -->
<svg version="1.1" id="Capa_1" xmlns="http://www.w3.org/2000/svg" xmlns:xlink="http://www.w3.org/1999/xlink" x="0px" y="0px"
	 viewBox="0 0 511.999 511.999" style="enable-background:new 0 0 511.999 511.999;" xml:space="preserve">
<g>
	<path style="fill:#32314B;" d="M137.332,102.13v29.374H83.091V102.13c0-4.728,3.838-8.575,8.575-8.575h37.09
		C133.494,93.555,137.332,97.403,137.332,102.13z"/>
	<path style="fill:#32314B;" d="M428.908,102.13v29.374h-54.241V102.13c0-4.728,3.838-8.575,8.575-8.575h37.09
		C425.07,93.555,428.908,97.403,428.908,102.13z"/>
</g>
<g>
	<path style="fill:#27273D;" d="M115.57,93.555H91.667c-4.737,0-8.575,3.848-8.575,8.575v29.374h23.902V102.13
		C106.994,97.403,110.832,93.555,115.57,93.555z"/>
	<path style="fill:#27273D;" d="M407.146,93.555h-23.902c-4.737,0-8.575,3.848-8.575,8.575v29.374h23.902V102.13
		C398.57,97.403,402.408,93.555,407.146,93.555z"/>
</g>
<path style="fill:#4F4F74;" d="M504.409,395.132l-15.842-165.301l-47.005-77.382v-26.519c0-4.071-3.288-7.359-7.336-7.359h-64.876
	c-4.048,0-7.336,3.288-7.336,7.359v26.519l-27.026,21.826H177.012l-27.026-21.826v-26.519c0-4.071-3.288-7.359-7.336-7.359H77.775
	c-4.048,0-7.336,3.288-7.336,7.359v26.519l-47.005,77.382L7.591,395.132c-1.199,12.492,8.595,23.311,21.109,23.311h25.057
	c6.537,0,12.703-3.027,16.721-8.192l48.824-62.774l96.779-30.831h79.938l96.669,30.821l48.834,62.784
	c4.018,5.163,10.185,8.192,16.721,8.192h25.057C495.813,418.443,505.607,407.624,504.409,395.132z"/>
<g>
	<path style="fill:#3E436D;" d="M396.856,152.45v-26.519c0-4.071,3.288-7.359,7.336-7.359h-34.842c-4.048,0-7.336,3.288-7.336,7.359
		v26.519l-27.026,21.826h34.842L396.856,152.45z"/>
	<path style="fill:#3E436D;" d="M227.788,316.632c-1.768-18.904-11.901-35.806-27.183-46.372c5.506-12.494,8.379-26.06,8.379-39.836
		c0-20.102-6.171-39.735-17.515-56.146h-14.458l-27.026-21.826v-12.446c-12.46-5.474-26.091-8.349-39.779-8.349
		c-1.644,0-3.286,0.044-4.926,0.126v-5.85c0-4.071,3.288-7.359,7.336-7.359H77.775c-4.048,0-7.336,3.288-7.336,7.359v14.071v12.448
		l-47.005,77.382l-3.824,39.905l0,0L7.591,395.132c-1.199,12.492,8.595,23.311,21.109,23.311h25.057
		c1.663,0,3.301-0.198,4.887-0.576c-10.058-2.383-17.248-11.93-16.21-22.735l7.542-78.694c0.306-3.191,3.883-4.893,6.571-3.146
		c9.519,6.189,20.162,10.785,31.553,13.403c7.432,1.708,13.285,7.289,15.516,14.581c1.299,4.25,3.043,8.364,5.21,12.262
		c0.794,1.424,1.643,2.807,2.535,4.154l7.943-10.213l96.779-30.831h11.693C227.78,316.642,227.783,316.639,227.788,316.632z"/>
	<path style="fill:#3E436D;" d="M476.364,410.252l-24.079-30.958c-10.433-13.414-23.34-24.577-37.928-32.949
		c-3.728-2.14-5.643-6.424-4.75-10.629c0.01-0.047,0.02-0.093,0.03-0.14c0.828-3.942,3.987-7.008,7.964-7.651
		c33.607-5.429,61.587-27.88,74.791-58.191l-3.824-39.903l-47.005-77.382v-12.448c-12.452-5.473-26.078-8.348-39.769-8.348
		c-13.689,0-27.321,2.875-39.779,8.349v12.446l-27.026,21.826H320.53c-11.345,16.413-17.516,36.045-17.516,56.146
		c0,13.736,2.855,27.265,8.33,39.73c-15.114,10.371-25.219,26.911-27.235,45.468c-0.038,0.336-0.053,0.687-0.086,1.026h11.994
		l96.669,30.821l48.834,62.784c4.018,5.163,10.185,8.192,16.721,8.192h25.057c1.69,0,3.327-0.203,4.898-0.576
		C483.55,416.762,479.359,414.101,476.364,410.252z"/>
</g>
<path style="fill:#32314B;" d="M441.561,153.283c27.925,14.422,47.005,43.547,47.005,77.139c0,47.925-38.849,86.774-86.774,86.774
	c-1.039,0-2.079-0.02-3.098-0.06c0.19,1.809,0.29,3.638,0.29,5.487c0,9.065-2.339,17.581-6.437,24.987
	c-8.805,15.892-25.746,26.646-45.196,26.646c-28.515,0-51.633-23.118-51.633-51.633c0-1.909,0.1-3.798,0.31-5.657
	c2.059-18.96,14.392-34.832,31.303-41.948c-7.816-13.033-12.323-28.285-12.323-44.596c0-21.049,7.496-40.359,19.979-55.381
	c7.426-8.955,16.611-16.381,27.026-21.758c11.914-6.157,25.437-9.635,39.779-9.635C416.125,143.648,429.658,147.126,441.561,153.283
	z"/>
<g>
	<circle style="fill:#27273D;" cx="356.971" cy="230.887" r="14.992"/>
	<circle style="fill:#27273D;" cx="395.951" cy="192.907" r="14.992"/>
	<circle style="fill:#27273D;" cx="434.38" cy="232.326" r="14.992"/>
	<circle style="fill:#27273D;" cx="394.651" cy="270.166" r="14.992"/>
</g>
<path style="fill:#32314B;" d="M70.438,153.283c11.904-6.157,25.437-9.635,39.769-9.635c14.342,0,27.865,3.478,39.779,9.635
	c10.414,5.387,19.6,12.813,27.026,21.758c12.483,15.022,19.979,34.332,19.979,55.381c0,16.331-4.518,31.603-12.363,44.656
	c16.841,7.166,29.095,23.008,31.144,41.918c0.21,1.849,0.31,3.728,0.31,5.627c0,28.515-23.118,51.633-51.633,51.633
	c-19.41,0-36.321-10.714-45.146-26.556c-4.128-7.426-6.487-15.982-6.487-25.077c0-1.849,0.1-3.678,0.29-5.477
	c-0.959,0.03-1.929,0.05-2.898,0.05c-47.925,0-86.774-38.849-86.774-86.774C23.433,196.83,42.513,167.705,70.438,153.283z"/>
<g>
	<path style="fill:#27273D;" d="M152.97,224.971V245.9c0,3.878-3.148,7.026-7.026,7.026h-14.432c-3.878,0-7.026,3.148-7.026,7.026
		v14.432c0,3.878-3.148,7.026-7.026,7.026H96.53c-3.878,0-7.026-3.148-7.026-7.026v-14.432c0-3.878-3.148-7.026-7.026-7.026H68.045
		c-3.878,0-7.026-3.148-7.026-7.026v-20.929c0-3.878,3.148-7.026,7.026-7.026h14.432c3.878,0,7.026-3.148,7.026-7.026v-14.432
		c0-3.878,3.148-7.026,7.026-7.026h20.929c3.878,0,7.026,3.148,7.026,7.026v14.432c0,3.878,3.148,7.026,7.026,7.026h14.432
		C149.822,217.945,152.97,221.093,152.97,224.971z"/>
	<path style="fill:#27273D;" d="M328.925,322.624c0-1.909,0.1-3.798,0.31-5.657c1.109-10.22,5.204-19.542,11.392-27.079
		c9.302-11.331,12.872-26.167,9.675-40.475c-1.365-6.112-2.087-12.466-2.087-18.991c0-21.049,7.496-40.359,19.979-55.381
		c7.426-8.955,16.611-16.381,27.026-21.758c7.194-3.718,14.979-6.451,23.174-8.039c-5.375-1.041-10.923-1.596-16.6-1.596
		c-14.342,0-27.865,3.478-39.779,9.635c-10.415,5.377-19.6,12.803-27.026,21.758c-12.483,15.022-19.979,34.332-19.979,55.381
		c0,16.311,4.508,31.563,12.323,44.596c-16.911,7.116-29.245,22.988-31.303,41.948c-0.21,1.859-0.31,3.748-0.31,5.657
		c0,28.515,23.118,51.633,51.633,51.633c5.814,0,11.401-0.967,16.616-2.74C343.594,364.605,328.925,345.333,328.925,322.624z"/>
	<path style="fill:#27273D;" d="M152.508,347.7c-4.128-7.426-6.487-15.982-6.487-25.077c0-1.849,0.1-3.678,0.29-5.477
		c-0.96,0.03-1.929,0.05-2.898,0.05c-47.925,0-86.774-38.849-86.774-86.774c0-33.592,19.08-62.717,47.005-77.139
		c7.188-3.718,14.974-6.451,23.169-8.039c-5.375-1.041-10.924-1.596-16.605-1.596c-14.332,0-27.865,3.478-39.769,9.635
		c-27.925,14.422-47.005,43.547-47.005,77.139c0,47.925,38.849,86.774,86.774,86.774c0.969,0,1.939-0.02,2.898-0.05
		c-0.19,1.799-0.29,3.628-0.29,5.477c0,9.095,2.359,17.651,6.487,25.077c8.825,15.842,25.736,26.556,45.146,26.556
		c5.806,0,11.382-0.972,16.59-2.74C168.843,367.372,158.69,358.797,152.508,347.7z"/>
</g>
<g>
	<path style="fill:#AB9DD6;" d="M164.448,299.975c12.503,0,22.648,10.145,22.648,22.648c0,12.503-10.145,22.648-22.648,22.648
		c-12.513,0-22.648-10.145-22.648-22.648C141.8,310.12,151.935,299.975,164.448,299.975z"/>
	<circle style="fill:#AB9DD6;" cx="347.556" cy="322.628" r="23.887"/>
</g>
<g>
	<path style="fill:#8787C4;" d="M159.171,316.648c0-6.549,2.784-12.446,7.229-16.582c-0.644-0.055-1.293-0.089-1.952-0.089
		c-12.513,0-22.648,10.145-22.648,22.648c0,12.503,10.135,22.648,22.648,22.648c5.955,0,11.371-2.305,15.415-6.066
		C168.268,338.214,159.171,328.492,159.171,316.648z"/>
	<path style="fill:#8787C4;" d="M341.035,316.648c0-7.106,3.105-13.483,8.03-17.859c-0.501-0.031-1.004-0.053-1.513-0.053
		c-13.193,0-23.887,10.694-23.887,23.887c0,13.193,10.694,23.887,23.887,23.887c6.087,0,11.639-2.28,15.858-6.029
		C350.922,339.701,341.035,329.332,341.035,316.648z"/>
</g>
<path style="fill:#AB9DD6;" d="M158.051,218.049v20.929c0,3.878-3.148,7.026-7.026,7.026h-14.432c-3.878,0-7.026,3.148-7.026,7.026
	v14.432c0,3.878-3.148,7.026-7.026,7.026h-20.929c-3.878,0-7.026-3.148-7.026-7.026V253.03c0-3.878-3.148-7.026-7.026-7.026H73.126
	c-3.878,0-7.026-3.148-7.026-7.026v-20.929c0-3.878,3.148-7.026,7.026-7.026h14.432c3.878,0,7.026-3.148,7.026-7.026v-14.432
	c0-3.878,3.148-7.026,7.026-7.026h20.929c3.878,0,7.026,3.148,7.026,7.026v14.432c0,3.878,3.148,7.026,7.026,7.026h14.432
	C154.903,211.023,158.051,214.171,158.051,218.049z"/>
<path style="fill:#8787C4;" d="M114.743,264.994c-3.878,0-7.026-3.148-7.026-7.026v-14.432c0-3.878-3.148-7.026-7.026-7.026H86.258
	c-3.878,0-7.026-3.148-7.026-7.026v-18.46h-6.106c-3.878,0-7.026,3.148-7.026,7.026v20.929c0,3.878,3.148,7.026,7.026,7.026h14.432
	c3.878,0,7.026,3.148,7.026,7.026v14.432c0,3.878,3.148,7.026,7.026,7.026h20.929c3.878,0,7.026-3.148,7.026-7.026v-2.469H114.743z"
	/>
<circle style="fill:#82DBBA;" cx="400.978" cy="189.589" r="14.992"/>
<circle style="fill:#DD1B1B;" cx="439.398" cy="229.008" r="14.992"/>
<circle style="fill:#358DCD;" cx="399.978" cy="266.548" r="14.992"/>
<circle style="fill:#FE4583;" cx="362.298" cy="227.269" r="14.992"/>
<circle style="fill:#82DBBA;" cx="401.278" cy="189.289" r="14.992"/>
<circle style="fill:#DD1B1B;" cx="439.707" cy="228.718" r="14.992"/>
<circle style="fill:#358DCD;" cx="399.978" cy="266.548" r="14.992"/>
<path style="fill:#5BCE95;" d="M411.028,199.778c-8.276,0-14.992-6.716-14.992-14.992c0-3.914,1.514-7.467,3.974-10.139
	c-7.821,0.504-14.021,6.995-14.021,14.943c0,8.276,6.716,14.992,14.992,14.992c4.362,0,8.279-1.877,11.018-4.853
	C411.676,199.751,411.355,199.778,411.028,199.778z"/>
<path style="fill:#CC0202;" d="M449.45,239.201c-8.276,0-14.992-6.716-14.992-14.992c0-3.914,1.514-7.467,3.974-10.139
	c-7.821,0.504-14.021,6.995-14.021,14.943c0,8.276,6.716,14.992,14.992,14.992c4.362,0,8.279-1.877,11.018-4.853
	C450.099,239.173,449.778,239.201,449.45,239.201z"/>
<path style="fill:#098BAA;" d="M410.028,276.738c-8.276,0-14.992-6.716-14.992-14.992c0-3.914,1.514-7.467,3.974-10.139
	c-7.821,0.504-14.021,6.995-14.021,14.943c0,8.276,6.716,14.992,14.992,14.992c4.362,0,8.279-1.877,11.018-4.853
	C410.677,276.71,410.356,276.738,410.028,276.738z"/>
<path style="fill:#EA2D88;" d="M372.048,237.758c-8.276,0-14.992-6.716-14.992-14.992c0-3.914,1.514-7.467,3.974-10.139
	c-7.821,0.504-14.021,6.995-14.021,14.943c0,8.276,6.716,14.992,14.992,14.992c4.362,0,8.279-1.877,11.018-4.853
	C372.697,237.73,372.376,237.758,372.048,237.758z"/>
<path d="M164.446,292.479c-16.621,0-30.144,13.523-30.144,30.144c0,16.621,13.523,30.144,30.144,30.144s30.144-13.523,30.144-30.144
	C194.591,306.002,181.068,292.479,164.446,292.479z M164.446,337.775c-8.355,0-15.152-6.797-15.152-15.152
	c0-8.355,6.797-15.152,15.152-15.152c8.355,0,15.152,6.797,15.152,15.152C179.599,330.978,172.802,337.775,164.446,337.775z"/>
<path d="M347.554,291.242c-17.304,0-31.381,14.078-31.381,31.381c0,17.304,14.078,31.381,31.381,31.381s31.381-14.078,31.381-31.381
	C378.936,305.32,364.858,291.242,347.554,291.242z M347.554,339.013c-9.037,0-16.389-7.352-16.389-16.389
	c0-9.037,7.352-16.389,16.389-16.389c9.037,0,16.389,7.352,16.389,16.389C363.943,331.661,356.591,339.013,347.554,339.013z"/>
<path d="M511.868,394.483l-15.815-164.475c-0.151-34.593-19.028-64.844-46.998-81.121v-22.041c0-7.437-5.508-13.596-12.655-14.654
	v-10.058c0-8.86-7.208-16.069-16.07-16.069h-37.088c-8.86,0-16.07,7.208-16.07,16.069v10.058
	c-7.147,1.059-12.654,7.218-12.654,14.654v22.041c-8.584,4.995-16.311,11.308-22.905,18.659h-85.36c-4.14,0-7.496,3.356-7.496,7.496
	s3.356,7.496,7.496,7.496h74.362c-8.317,14.044-13.1,30.416-13.1,47.887c0,14.404,3.286,28.562,9.559,41.392
	c-13.973,8.311-23.817,21.947-27.382,37.654h-67.59c-3.551-15.632-13.336-29.22-27.21-37.541
	c6.309-12.804,9.591-26.877,9.591-41.505c0-17.471-4.782-33.843-13.1-47.887h24.888c4.14,0,7.496-3.356,7.496-7.496
	s-3.356-7.496-7.496-7.496h-35.887c-6.594-7.35-14.32-13.663-22.905-18.659v-22.041c0-7.437-5.507-13.595-12.654-14.654v-10.058
	c0-8.86-7.208-16.069-16.069-16.069H91.669c-8.86,0-16.069,7.208-16.069,16.069v10.058c-7.147,1.059-12.655,7.217-12.655,14.654
	v22.041c-27.972,16.278-46.849,46.531-46.998,81.127L0.131,394.483c-0.773,8.037,1.898,16.072,7.327,22.048
	c5.428,5.976,13.172,9.403,21.246,9.403h25.057c8.905,0,17.154-4.027,22.631-11.047l42.556-54.546
	c10.854,13.072,27.22,21.412,45.499,21.412c31.987,0,58.105-25.535,59.082-57.29h64.74c0.977,31.754,27.095,57.29,59.082,57.29
	c18.339,0,34.744-8.402,45.597-21.547l42.662,54.681c5.477,7.02,13.726,11.047,22.631,11.047h25.057
	c8.074,0,15.818-3.427,21.246-9.403C509.971,410.556,512.642,402.519,511.868,394.483z M382.167,102.133
	c0-0.594,0.483-1.077,1.077-1.077h37.088c0.594,0,1.077,0.483,1.077,1.077v9.88h-39.242v-9.88H382.167z M369.513,127.005
	L369.513,127.005h64.552l0,0v14.842c-10.073-3.682-20.944-5.693-32.276-5.693s-22.203,2.011-32.276,5.693V127.005z M90.591,102.133
	c0-0.594,0.483-1.077,1.077-1.077h37.088c0.594,0,1.077,0.483,1.077,1.077v9.88H90.591V102.133z M77.936,127.005L77.936,127.005
	h64.552l0,0v14.842c-10.073-3.682-20.944-5.693-32.276-5.693s-22.203,2.011-32.276,5.693
	C77.936,141.847,77.936,127.005,77.936,127.005z M64.571,405.665c-2.617,3.353-6.558,5.277-10.811,5.277H28.703
	c-3.914,0-7.517-1.595-10.149-4.492c-2.632-2.896-3.874-6.637-3.5-10.532l11.702-121.693c15.09,28.635,44.481,48.612,78.612,50.347
	c0.258,7.893,2.067,15.395,5.136,22.218L64.571,405.665z M164.446,366.76c-23.826,0-43.291-18.981-44.098-42.613
	c1.385-0.148,2.767-0.317,4.138-0.526c4.093-0.623,6.907-4.445,6.286-8.537c-0.623-4.094-4.448-6.902-8.537-6.286
	c-3.953,0.601-7.998,0.906-12.023,0.906c-43.715,0-79.279-35.564-79.279-79.279s35.564-79.279,79.279-79.279
	s79.279,35.564,79.279,79.279c0,17.768-5.747,34.562-16.617,48.566c-2.539,3.27-1.946,7.979,1.324,10.517
	c3.269,2.539,7.979,1.946,10.517-1.324c0.863-1.11,1.693-2.239,2.501-3.378c13.15,7.909,21.367,22.163,21.367,37.818
	C208.584,346.961,188.783,366.76,164.446,366.76z M347.349,366.76c-24.337,0-44.137-19.8-44.137-44.137
	c0-15.729,8.276-30.019,21.517-37.908c0.83,1.175,1.676,2.337,2.555,3.468c1.478,1.903,3.69,2.899,5.927,2.899
	c1.606,0,3.225-0.515,4.592-1.575c3.27-2.539,3.863-7.248,1.324-10.517c-1.931-2.488-3.732-5.117-5.352-7.815
	c-0.004-0.006-0.006-0.013-0.01-0.019c-7.363-12.264-11.255-26.35-11.255-40.732c0-43.715,35.564-79.279,79.279-79.279
	s79.279,35.564,79.279,79.279s-35.564,79.279-79.279,79.279c-0.95,0-1.894-0.021-2.835-0.054c-0.006,0-0.012,0.001-0.018,0
	c-3.076-0.11-6.15-0.393-9.169-0.852c-4.092-0.622-7.915,2.192-8.537,6.286c-0.622,4.093,2.192,7.915,6.286,8.537
	c1.303,0.198,2.617,0.363,3.934,0.506C390.651,347.769,371.183,366.76,347.349,366.76z M493.446,406.45
	c-2.632,2.896-6.236,4.492-10.149,4.492h-25.057c-4.254,0-8.195-1.923-10.811-5.277l-46.054-59.028
	c3.024-6.779,4.815-14.225,5.071-22.054c34.208-1.672,63.681-21.663,78.799-50.345l11.7,121.682
	C497.32,399.814,496.078,403.554,493.446,406.45z"/>
<path d="M239.969,217.343h-21.897c-2.23,0-4.038,1.808-4.038,4.038v8.767c0,2.23,1.808,4.038,4.038,4.038h21.897
	c2.23,0,4.038-1.808,4.038-4.038v-8.767C244.006,219.151,242.199,217.343,239.969,217.343z"/>
<path d="M241.019,272.354v8.767c0,2.23,1.808,4.038,4.038,4.038h21.897c2.23,0,4.038-1.808,4.038-4.038v-8.767
	c0-2.23-1.808-4.038-4.038-4.038h-21.897C242.827,268.316,241.019,270.124,241.019,272.354z"/>
<path d="M280.142,236.361l16.026-6.439c3.747-1.505,3.747-6.809,0-8.316l-16.026-6.439c-2.944-1.183-6.151,0.984-6.151,4.158v12.877
	C273.99,235.377,277.197,237.545,280.142,236.361z"/>
<path d="M137.063,253.5h13.967c8.006,0,14.518-6.514,14.518-14.518v-20.936c0-8.006-6.514-14.518-14.518-14.518h-13.967v-13.967
	c0-8.006-6.514-14.518-14.518-14.518h-20.936c-8.006,0-14.518,6.514-14.518,14.518v13.967H73.123
	c-8.006,0-14.518,6.514-14.518,14.518v20.936c0,8.006,6.514,14.518,14.518,14.518H87.09v13.967c0,8.006,6.514,14.518,14.518,14.518
	h20.936c8.006,0,14.518-6.514,14.518-14.518V253.5z M122.07,253.027v13.967h-19.989v-13.967c0-8.006-6.514-14.518-14.518-14.518
	H73.596V218.52h13.967c8.006,0,14.518-6.514,14.518-14.518v-13.967h19.989v13.967c0,8.006,6.514,14.518,14.518,14.518h13.967v19.989
	h-13.967C128.584,238.508,122.07,245.022,122.07,253.027z"/>
<path d="M401.423,212.522c12.4,0,22.488-10.088,22.488-22.488s-10.088-22.488-22.488-22.488s-22.488,10.088-22.488,22.488
	S389.023,212.522,401.423,212.522z M401.423,182.538c4.134,0,7.496,3.362,7.496,7.496s-3.362,7.496-7.496,7.496
	c-4.134,0-7.496-3.362-7.496-7.496S397.29,182.538,401.423,182.538z"/>
<path d="M416.914,229.013c0,12.4,10.088,22.488,22.488,22.488s22.488-10.088,22.488-22.488s-10.088-22.488-22.488-22.488
	S416.914,216.614,416.914,229.013z M439.403,221.517c4.134,0,7.496,3.362,7.496,7.496s-3.362,7.496-7.496,7.496
	c-4.134,0-7.496-3.362-7.496-7.496S435.27,221.517,439.403,221.517z"/>
<path d="M400.423,244.505c-12.4,0-22.488,10.088-22.488,22.488c0,12.4,10.088,22.488,22.488,22.488s22.488-10.088,22.488-22.488
	C422.911,254.592,412.824,244.505,400.423,244.505z M400.423,274.489c-4.134,0-7.496-3.362-7.496-7.496
	c0-4.134,3.362-7.496,7.496-7.496c4.134,0,7.496,3.362,7.496,7.496C407.919,271.127,404.557,274.489,400.423,274.489z"/>
<path d="M362.443,250.502c12.4,0,22.488-10.088,22.488-22.488s-10.088-22.488-22.488-22.488s-22.488,10.088-22.488,22.488
	S350.044,250.502,362.443,250.502z M362.443,220.518c4.134,0,7.496,3.362,7.496,7.496c0,4.134-3.362,7.496-7.496,7.496
	c-4.134,0-7.496-3.362-7.496-7.496C354.947,223.88,358.31,220.518,362.443,220.518z"/>
<g>
</g>
<g>
</g>
<g>
</g>
<g>
</g>
<g>
</g>
<g>
</g>
<g>
</g>
<g>
</g>
<g>
</g>
<g>
</g>
<g>
</g>
<g>
</g>
<g>
</g>
<g>
</g>
<g>
</g>
</svg>
