<?xml version="1.0" encoding="iso-8859-1"?>
<!-- Generator: Adobe Illustrator 21.0.0, SVG Export Plug-In . SVG Version: 6.00 Build 0)  -->
<svg version="1.1" id="Capa_1" xmlns="http://www.w3.org/2000/svg" xmlns:xlink="http://www.w3.org/1999/xlink" x="0px" y="0px"
	 viewBox="0 0 511.999 511.999" style="enable-background:new 0 0 511.999 511.999;" xml:space="preserve">
<path style="fill:#EDE6F5;" d="M398.5,150c58.54,0,106,47.46,106,106s-47.46,106-106,106c-44.39,0-82.4-27.29-98.18-66h-88.64
	c-15.78,38.71-53.79,66-98.18,66c-58.54,0-106-47.46-106-106s47.46-106,106-106H398.5z"/>
<g>
	<path style="fill:#E0D3F2;" d="M66.5,256c0-58.54,47.46-106,106-106h-59c-58.54,0-106,47.46-106,106s47.46,106,106,106
		c10.232,0,20.118-1.466,29.477-4.172C98.802,345.042,66.5,304.294,66.5,256z"/>
	<path style="fill:#E0D3F2;" d="M359.32,296h-59c15.78,38.71,53.79,66,98.18,66c10.246,0,20.151-1.459,29.523-4.172
		C396.776,348.797,371.463,325.786,359.32,296z"/>
</g>
<circle style="fill:#CEC1E7;" cx="398.5" cy="256" r="79"/>
<g>
	<circle style="fill:#BCAFDD;" cx="393.35" cy="224" r="15"/>
	<circle style="fill:#BCAFDD;" cx="431.35" cy="262" r="15"/>
	<circle style="fill:#BCAFDD;" cx="393.35" cy="301" r="15"/>
	<circle style="fill:#BCAFDD;" cx="354.35" cy="262" r="15"/>
</g>
<circle style="fill:#CEC1E7;" cx="113.5" cy="256" r="79"/>
<g>
	<path style="fill:#BCAFDD;" d="M153.189,259.346v14.42c0,5.41-4.38,9.79-9.79,9.79h-15.98c-2.34,0-4.23,1.89-4.23,4.23v15.98
		c0,5.41-4.38,9.79-9.79,9.79h-14.42c-5.41,0-9.79-4.38-9.79-9.79v-15.98c0-2.34-1.89-4.23-4.23-4.23h-15.98
		c-5.41,0-9.79-4.38-9.79-9.79v-14.42c0-5.41,4.38-9.79,9.79-9.79h15.98c2.34,0,4.23-1.89,4.23-4.23v-15.98
		c0-5.41,4.38-9.79,9.79-9.79h14.42c5.41,0,9.79,4.38,9.79,9.79v15.98c0,2.34,1.89,4.23,4.23,4.23h15.98
		C148.809,249.557,153.189,253.937,153.189,259.346z"/>
	<path style="fill:#BCAFDD;" d="M415.906,323.063c-43.63,0-79-35.37-79-79c0-23.241,10.039-44.135,26.014-58.591
		C337.168,198.49,319.5,225.174,319.5,256c0,43.63,35.37,79,79,79c20.389,0,38.971-7.727,52.986-20.409
		C440.79,319.997,428.709,323.063,415.906,323.063z"/>
	<path style="fill:#BCAFDD;" d="M130.906,322.699c-43.63,0-79-35.37-79-79c0-22.821,9.689-43.37,25.164-57.792
		C51.78,199.079,34.5,225.514,34.5,256c0,43.63,35.37,79,79,79c20.809,0,39.726-8.058,53.836-21.208
		C156.433,319.471,144.05,322.699,130.906,322.699z"/>
</g>
<path style="fill:#4F4F74;" d="M160.5,248.79v14.42c0,5.41-4.38,9.79-9.79,9.79h-15.98c-2.34,0-4.23,1.89-4.23,4.23v15.98
	c0,5.41-4.38,9.79-9.79,9.79h-14.42c-5.41,0-9.79-4.38-9.79-9.79v-15.98c0-2.34-1.89-4.23-4.23-4.23H76.29
	c-5.41,0-9.79-4.38-9.79-9.79v-14.42c0-5.41,4.38-9.79,9.79-9.79h15.98c2.34,0,4.23-1.89,4.23-4.23v-15.98
	c0-5.41,4.38-9.79,9.79-9.79h14.42c5.41,0,9.79,4.38,9.79,9.79v15.98c0,2.34,1.89,4.23,4.23,4.23h15.98
	C156.12,239,160.5,243.38,160.5,248.79z"/>
<path style="fill:#3E436D;" d="M120.022,292.875c-5.41,0-9.79-4.38-9.79-9.79v-15.98c0-2.34-1.89-4.23-4.23-4.23h-15.98
	c-5.41,0-9.79-4.38-9.79-9.79V239H76.29c-5.41,0-9.79,4.38-9.79,9.79v14.42c0,5.41,4.38,9.79,9.79,9.79h15.98
	c2.34,0,4.23,1.89,4.23,4.23v15.98c0,5.41,4.38,9.79,9.79,9.79h14.42c5.41,0,9.79-4.38,9.79-9.79v-0.335L120.022,292.875
	L120.022,292.875z"/>
<circle style="fill:#82DBBA;" cx="398.5" cy="218" r="15"/>
<circle style="fill:#DD1B1B;" cx="436.5" cy="256" r="15"/>
<circle style="fill:#358DCD;" cx="398.5" cy="295" r="15"/>
<circle style="fill:#FE4583;" cx="359.5" cy="256" r="15"/>
<path style="fill:#5BCE95;" d="M407.844,224.857c-8.28,0-15-6.72-15-15c0-2.223,0.497-4.327,1.367-6.226
	c-6.191,1.847-10.711,7.58-10.711,14.369c0,8.28,6.72,15,15,15c6.057,0,11.265-3.603,13.633-8.774
	C410.773,224.632,409.336,224.857,407.844,224.857z"/>
<path style="fill:#CC0202;" d="M445.844,262.857c-8.28,0-15-6.72-15-15c0-2.223,0.497-4.327,1.367-6.226
	c-6.191,1.847-10.711,7.58-10.711,14.369c0,8.28,6.72,15,15,15c6.057,0,11.265-3.603,13.633-8.774
	C448.773,262.632,447.336,262.857,445.844,262.857z"/>
<path style="fill:#098BAA;" d="M407.844,301.857c-8.28,0-15-6.72-15-15c0-2.223,0.497-4.327,1.367-6.226
	c-6.191,1.847-10.711,7.58-10.711,14.369c0,8.28,6.72,15,15,15c6.057,0,11.265-3.603,13.633-8.774
	C410.773,301.632,409.336,301.857,407.844,301.857z"/>
<path style="fill:#EA2D88;" d="M368.844,262.857c-8.28,0-15-6.72-15-15c0-2.223,0.497-4.327,1.367-6.226
	c-6.191,1.847-10.711,7.58-10.711,14.369c0,8.28,6.72,15,15,15c6.057,0,11.265-3.603,13.633-8.774
	C371.773,262.632,370.336,262.857,368.844,262.857z"/>
<path style="fill:#4F4F74;" d="M290.5,209.78v11.44c0,3.74-3.04,6.78-6.78,6.78h-56.44c-3.74,0-6.78-3.04-6.78-6.78v-11.44
	c0-3.74,3.04-6.78,6.78-6.78h56.44C287.46,203,290.5,206.04,290.5,209.78z"/>
<path style="fill:#3E436D;" d="M248.181,219.557c-9.144,0-16.557-7.413-16.557-16.557l0,0h-4.344c-3.745,0-6.78,3.036-6.78,6.78
	v11.44c0,3.745,3.036,6.78,6.78,6.78h56.44c3.745,0,6.78-3.036,6.78-6.78v-1.663H248.181z"/>
<path d="M398.5,169.5c-47.696,0-86.5,38.804-86.5,86.5s38.804,86.5,86.5,86.5S485,303.696,485,256S446.196,169.5,398.5,169.5z
	 M398.5,327.5c-39.425,0-71.5-32.075-71.5-71.5s32.075-71.5,71.5-71.5S470,216.575,470,256S437.925,327.5,398.5,327.5z"/>
<path d="M171.679,202.06c-3.288,2.519-3.912,7.227-1.393,10.515C179.912,225.14,185,240.157,185,256c0,39.425-32.075,71.5-71.5,71.5
	S42,295.424,42,256s32.075-71.5,71.5-71.5c12.831,0,25.427,3.451,36.427,9.979c3.562,2.114,8.164,0.94,10.277-2.622
	c2.114-3.562,0.94-8.163-2.622-10.277c-13.315-7.902-28.558-12.079-44.082-12.079C65.804,169.5,27,208.304,27,256
	s38.804,86.5,86.5,86.5S200,303.696,200,256c0-19.17-6.157-37.341-17.806-52.547C179.675,200.164,174.968,199.541,171.679,202.06z"
	/>
<path d="M398.5,142.5h-285C50.916,142.5,0,193.416,0,256s50.916,113.5,113.5,113.5c44.653,0,84.583-25.74,103.105-66h78.789
	c18.521,40.26,58.452,66,103.105,66c62.584,0,113.5-50.916,113.5-113.5S461.084,142.5,398.5,142.5z M398.5,354.5
	c-40.232,0-76.046-24.074-91.24-61.332c-1.15-2.823-3.896-4.668-6.944-4.668h-88.63c-3.048,0-5.793,1.845-6.945,4.668
	c-15.195,37.258-51.009,61.332-91.24,61.332C59.187,354.5,15,310.313,15,256s44.187-98.5,98.5-98.5h285
	c54.313,0,98.5,44.187,98.5,98.5S452.813,354.5,398.5,354.5z"/>
<path d="M138,231.5v-12.708c0-9.535-7.757-17.292-17.292-17.292h-14.417C96.757,201.5,89,209.257,89,218.792V231.5H76.292
	C66.757,231.5,59,239.257,59,248.792v14.417c0,9.535,7.757,17.292,17.292,17.292H89v12.708c0,9.535,7.757,17.292,17.292,17.292
	h14.416c9.535,0,17.292-7.757,17.292-17.292V280.5h12.708c9.535,0,17.292-7.757,17.292-17.292v-14.417
	c0-9.535-7.757-17.292-17.292-17.292L138,231.5L138,231.5z M153,248.792v14.417c0,1.264-1.028,2.292-2.292,2.292h-15.976
	c-6.469,0-11.732,5.263-11.732,11.732v15.976c0,1.264-1.028,2.292-2.292,2.292h-14.416c-1.264,0-2.292-1.028-2.292-2.292v-15.976
	c0-6.469-5.263-11.732-11.732-11.732H76.292c-1.264,0-2.292-1.028-2.292-2.292v-14.417c0-1.264,1.028-2.292,2.292-2.292h15.976
	c6.469,0,11.732-5.263,11.732-11.732v-15.976c0-1.264,1.028-2.292,2.292-2.292h14.417c1.264,0,2.292,1.028,2.292,2.292v15.976
	c0,6.469,5.263,11.732,11.732,11.732h15.976C151.972,246.5,153,247.528,153,248.792z"/>
<path d="M398.5,240.5c12.406,0,22.5-10.093,22.5-22.5s-10.094-22.5-22.5-22.5S376,205.593,376,218S386.094,240.5,398.5,240.5z
	 M398.5,210.5c4.136,0,7.5,3.364,7.5,7.5s-3.364,7.5-7.5,7.5s-7.5-3.364-7.5-7.5S394.364,210.5,398.5,210.5z"/>
<path d="M436.5,233.5c-12.406,0-22.5,10.093-22.5,22.5c0,12.407,10.094,22.5,22.5,22.5S459,268.407,459,256
	S448.906,233.5,436.5,233.5z M436.5,263.5c-4.136,0-7.5-3.364-7.5-7.5s3.364-7.5,7.5-7.5s7.5,3.364,7.5,7.5
	C444,260.135,440.636,263.5,436.5,263.5z"/>
<path d="M398.5,272.5c-12.406,0-22.5,10.093-22.5,22.5s10.094,22.5,22.5,22.5S421,307.407,421,295S410.906,272.5,398.5,272.5z
	 M398.5,302.5c-4.136,0-7.5-3.364-7.5-7.5s3.364-7.5,7.5-7.5s7.5,3.364,7.5,7.5S402.636,302.5,398.5,302.5z"/>
<path d="M359.5,233.5c-12.406,0-22.5,10.093-22.5,22.5c0,12.407,10.094,22.5,22.5,22.5S382,268.407,382,256
	S371.906,233.5,359.5,233.5z M359.5,263.5c-4.136,0-7.5-3.364-7.5-7.5s3.364-7.5,7.5-7.5s7.5,3.364,7.5,7.5
	C367,260.135,363.636,263.5,359.5,263.5z"/>
<path d="M235.779,245.613l-20.689,15.873c-3.286,2.521-3.906,7.229-1.385,10.516c1.477,1.925,3.704,2.935,5.956,2.935
	c1.593,0,3.199-0.505,4.56-1.55l20.689-15.873c3.286-2.521,3.906-7.229,1.385-10.516
	C243.773,243.711,239.065,243.091,235.779,245.613z"/>
<path d="M277.779,245.613l-20.689,15.873c-3.286,2.521-3.906,7.229-1.385,10.516c1.477,1.925,3.704,2.935,5.957,2.935
	c1.593,0,3.198-0.505,4.56-1.55l20.689-15.873c3.286-2.521,3.906-7.229,1.385-10.516
	C285.774,243.712,281.065,243.091,277.779,245.613z"/>
<path d="M229,178c0-4.142-3.358-7.5-7.5-7.5h-14c-4.142,0-7.5,3.358-7.5,7.5s3.358,7.5,7.5,7.5h14
	C225.642,185.5,229,182.142,229,178z"/>
<path d="M315,178c0-4.142-3.357-7.5-7.5-7.5h-65c-4.142,0-7.5,3.358-7.5,7.5s3.358,7.5,7.5,7.5h65
	C311.643,185.5,315,182.142,315,178z"/>
<path d="M283.717,195.5h-56.434c-7.875,0-14.283,6.407-14.283,14.283v11.435c0,7.875,6.407,14.283,14.283,14.283h56.434
	c7.876,0,14.283-6.407,14.283-14.283v-11.435C298,201.907,291.593,195.5,283.717,195.5z M283,220.5h-55v-10h55V220.5z"/>
<g>
</g>
<g>
</g>
<g>
</g>
<g>
</g>
<g>
</g>
<g>
</g>
<g>
</g>
<g>
</g>
<g>
</g>
<g>
</g>
<g>
</g>
<g>
</g>
<g>
</g>
<g>
</g>
<g>
</g>
</svg>
