<?xml version="1.0" encoding="iso-8859-1"?>
<!-- Generator: Adobe Illustrator 21.0.0, SVG Export Plug-In . SVG Version: 6.00 Build 0)  -->
<svg version="1.1" id="Capa_1" xmlns="http://www.w3.org/2000/svg" xmlns:xlink="http://www.w3.org/1999/xlink" x="0px" y="0px"
	 viewBox="0 0 512 512" style="enable-background:new 0 0 512 512;" xml:space="preserve">
<path style="fill:#F8D46E;" d="M414,39.78v382.34c0,7.93-3.15,15.53-8.75,21.13l-52.5,52.5c-5.6,5.6-13.2,8.75-21.13,8.75H130.28
	c-17.83,0-32.28-14.45-32.28-32.28V39.78C98,21.95,112.45,7.5,130.28,7.5h251.44C399.55,7.5,414,21.95,414,39.78z"/>
<g>
	<path style="fill:#F7C852;" d="M222.878,350.14v26.72c0,2.19-1.78,3.96-3.97,3.96h-23.24c-2.19,0-3.97,1.78-3.97,3.97v23.24
		c0,2.19-1.77,3.97-3.96,3.97h-26.72c-2.19,0-3.96-1.78-3.96-3.97v-23.24c0-2.19-1.78-3.97-3.97-3.97h-23.24
		c-2.19,0-3.97-1.77-3.97-3.96v-26.72c0-2.19,1.78-3.96,3.97-3.96h23.24c2.19,0,3.97-1.78,3.97-3.97v-23.24
		c0-2.19,1.77-3.97,3.96-3.97h26.72c2.19,0,3.96,1.78,3.96,3.97v23.24c0,2.19,1.78,3.97,3.97,3.97h23.24
		C221.098,346.18,222.878,347.95,222.878,350.14z"/>
	<path style="fill:#F7C852;" d="M226.337,474C180.864,474,144,437.137,144,391.663V9.28c0-0.597,0.019-1.19,0.051-1.78H130.28
		C112.452,7.5,98,21.952,98,39.78v432.44c0,17.828,14.452,32.28,32.28,32.28h201.34c7.93,0,15.53-3.15,21.13-8.75L374.5,474H226.337
		z"/>
</g>
<path style="fill:#F2CA66;" d="M144,346.18h-14.152c-2.19,0-3.97,1.77-3.97,3.96v26.72c0,2.19,1.78,3.96,3.97,3.96H144V346.18z"/>
<path style="fill:#4F4F74;" d="M382,49.74v209.52c0,5.66-4.58,10.24-10.24,10.24H140.24c-5.66,0-10.24-4.58-10.24-10.24V49.74
	c0-5.66,4.58-10.24,10.24-10.24h231.52C377.42,39.5,382,44.08,382,49.74z"/>
<path style="fill:#3E436D;" d="M267.814,251.5c-65.313,0-118.26-52.947-118.26-118.26V39.5h-9.314c-5.655,0-10.24,4.585-10.24,10.24
	v209.52c0,5.655,4.585,10.24,10.24,10.24h231.52c5.655,0,10.24-4.585,10.24-10.24v-7.76L267.814,251.5L267.814,251.5z"/>
<path style="fill:#82DBBA;" d="M340,70.14v168.72c0,2.56-2.08,4.64-4.64,4.64H176.64c-2.56,0-4.64-2.08-4.64-4.64V70.14
	c0-2.56,2.08-4.64,4.64-4.64h158.72C337.92,65.5,340,67.58,340,70.14z"/>
<path style="fill:#5BCE95;" d="M340,220.81c-78.424,0-142-63.576-142-142V65.5h-21.36c-2.563,0-4.64,2.077-4.64,4.64v168.72
	c0,2.563,2.077,4.64,4.64,4.64h158.72c2.563,0,4.64-2.077,4.64-4.64V220.81L340,220.81z"/>
<path style="fill:#4F4F74;" d="M231.5,337.14v26.72c0,2.19-1.78,3.96-3.97,3.96h-23.24c-2.19,0-3.97,1.78-3.97,3.97v23.24
	c0,2.19-1.77,3.97-3.96,3.97h-26.72c-2.19,0-3.96-1.78-3.96-3.97v-23.24c0-2.19-1.78-3.97-3.97-3.97h-23.24
	c-2.19,0-3.97-1.77-3.97-3.96v-26.72c0-2.19,1.78-3.96,3.97-3.96h23.24c2.19,0,3.97-1.78,3.97-3.97v-23.24
	c0-2.19,1.77-3.97,3.96-3.97h26.72c2.19,0,3.96,1.78,3.96,3.97v23.24c0,2.19,1.78,3.97,3.97,3.97h23.24
	C229.72,333.18,231.5,334.95,231.5,337.14z"/>
<path style="fill:#3E436D;" d="M184.64,385c-2.19,0-3.96-1.78-3.96-3.97v-23.24c0-2.19-1.78-3.97-3.97-3.97h-23.24
	c-2.19,0-3.97-1.77-3.97-3.96v-16.68h-11.03c-2.19,0-3.97,1.77-3.97,3.96v26.72c0,2.19,1.78,3.96,3.97,3.96h23.24
	c2.19,0,3.97,1.78,3.97,3.97v23.24c0,2.19,1.77,3.97,3.96,3.97h26.72c2.19,0,3.96-1.78,3.96-3.97V385H184.64z"/>
<path style="fill:#EDBF4A;" d="M367.67,308.83c6.83,6.83,10.25,15.79,10.25,24.75s-3.42,17.92-10.25,24.75l-43.84,43.84
	c-13.67,13.67-35.83,13.67-49.5,0c-13.67-13.67-13.67-35.83,0-49.5l43.84-43.84C331.84,295.16,354,295.16,367.67,308.83z"/>
<g>
	
		<ellipse transform="matrix(0.7071 -0.7071 0.7071 0.7071 -141.6187 335.7975)" style="fill:#E2AF3B;" cx="334.534" cy="338.848" rx="14.998" ry="14.998"/>
	<path style="fill:#E2AF3B;" d="M310.119,364.304c5.86,5.86,5.86,15.36,0,21.21c-5.86,5.86-15.36,5.86-21.21,0
		c-5.86-5.85-5.86-15.35,0-21.21C294.759,358.444,304.259,358.444,310.119,364.304z"/>
	<path style="fill:#E2AF3B;" d="M281.812,402.17c-13.67-13.67-13.67-35.83,0-49.5l43.84-43.84
		c5.882-5.882,13.336-9.226,21.009-10.046c-10.16-1.086-20.703,2.258-28.491,10.046l-43.84,43.84c-13.67,13.67-13.67,35.83,0,49.5
		c7.788,7.788,18.331,11.132,28.491,10.046C295.148,411.396,287.694,408.052,281.812,402.17z"/>
</g>
<ellipse transform="matrix(0.7071 -0.7071 0.7071 0.7071 -138.9782 338.7209)" style="fill:#82DBBA;" cx="339.383" cy="337.122" rx="14.998" ry="14.998"/>
<path style="fill:#FE4583;" d="M313.93,362.57c5.86,5.86,5.86,15.36,0,21.21c-5.86,5.86-15.36,5.86-21.21,0
	c-5.86-5.85-5.86-15.35,0-21.21C298.57,356.71,308.07,356.71,313.93,362.57z"/>
<path style="fill:#5BCE95;" d="M338.646,340.605c-4.929-4.929-5.695-12.42-2.332-18.165c-2.76,0.575-5.391,1.926-7.534,4.07
	c-5.86,5.86-5.86,15.35,0,21.21s15.35,5.86,21.21,0c0.931-0.931,1.697-1.96,2.332-3.045
	C347.537,345.672,342.362,344.321,338.646,340.605z"/>
<path style="fill:#EA2D88;" d="M302.586,376.665c-4.93-4.921-5.695-12.419-2.331-18.166c-2.762,0.575-5.394,1.926-7.536,4.071
	c-5.86,5.86-5.86,15.36,0,21.21c5.85,5.86,15.35,5.86,21.21,0c0.932-0.93,1.699-1.961,2.334-3.046
	C311.476,381.733,306.297,380.383,302.586,376.665z"/>
<path d="M381.716,0H130.284C108.347,0,90.5,17.847,90.5,39.784v432.432c0,21.937,17.847,39.784,39.784,39.784h201.337
	c9.986,0,19.374-3.889,26.436-10.95l52.494-52.494c7.061-7.061,10.949-16.449,10.949-26.435V39.784
	C421.5,17.847,403.653,0,381.716,0z M406.5,422.122c0,5.979-2.328,11.6-6.557,15.828l-3.693,3.693l-14.197-14.197
	c-2.93-2.929-7.678-2.929-10.607,0s-2.929,7.678,0,10.606l14.197,14.197l-7.393,7.393l-14.197-14.197
	c-2.93-2.929-7.678-2.929-10.607,0s-2.929,7.678,0,10.606l14.197,14.197l-7.393,7.393l-14.197-14.197
	c-2.93-2.929-7.678-2.929-10.607,0s-2.929,7.678,0,10.606l14.197,14.197l-2.194,2.194c-4.228,4.228-9.849,6.556-15.828,6.556
	H130.284c-13.666,0-24.784-11.118-24.784-24.784V39.784C105.5,26.118,116.618,15,130.284,15h251.432
	c13.666,0,24.784,11.118,24.784,24.784V422.122z"/>
<path d="M371.764,32H140.236c-9.78,0-17.736,7.956-17.736,17.736v209.528c0,9.78,7.956,17.736,17.736,17.736h231.527
	c9.78,0,17.736-7.956,17.736-17.736V49.736C389.5,39.956,381.544,32,371.764,32z M374.5,259.264c0,1.508-1.228,2.736-2.736,2.736
	H140.236c-1.509,0-2.736-1.228-2.736-2.736V49.736c0-1.508,1.228-2.736,2.736-2.736h231.527c1.509,0,2.736,1.228,2.736,2.736
	v209.528H374.5z"/>
<path d="M335.362,58H176.638c-6.692,0-12.138,5.445-12.138,12.138v168.725c0,6.693,5.445,12.138,12.138,12.138h158.725
	c6.692,0,12.138-5.445,12.138-12.138V215c0-4.142-3.357-7.5-7.5-7.5s-7.5,3.358-7.5,7.5v21h-153V73h153v112
	c0,4.142,3.357,7.5,7.5,7.5s7.5-3.358,7.5-7.5V70.138C347.5,63.445,342.055,58,335.362,58z"/>
<path d="M239,363.856v-26.713c0-6.322-5.144-11.465-11.465-11.465h-19.714v-19.713c0-6.322-5.144-11.465-11.465-11.465h-26.713
	c-6.321,0-11.465,5.144-11.465,11.465v19.713h-19.714c-6.321,0-11.465,5.143-11.465,11.465v26.713
	c0,6.322,5.144,11.465,11.465,11.465h19.714v19.713c0,6.322,5.144,11.465,11.465,11.465h26.713c6.321,0,11.465-5.144,11.465-11.465
	v-19.713h19.714C233.856,375.321,239,370.178,239,363.856z M224,360.321h-19.713c-6.322,0-11.466,5.144-11.466,11.465V391.5h-19.643
	v-19.713c0-6.322-5.144-11.465-11.466-11.465H142v-19.643h19.713c6.322,0,11.466-5.144,11.466-11.465V309.5h19.643v19.713
	c0,6.322,5.144,11.465,11.466,11.465H224V360.321z"/>
<path d="M342.92,291.08c-11.352,0-22.024,4.421-30.052,12.448l-43.84,43.84c-8.028,8.027-12.449,18.7-12.449,30.052
	s4.421,22.025,12.448,30.052s18.7,12.448,30.053,12.448c11.352,0,22.024-4.421,30.051-12.448l5.377-5.376
	c2.93-2.929,2.93-7.678,0.001-10.607c-2.929-2.928-7.678-2.929-10.606,0l-5.378,5.377c-5.193,5.194-12.1,8.055-19.444,8.055
	c-7.346,0-14.252-2.861-19.446-8.055c-5.193-5.194-8.055-12.1-8.055-19.445c0-7.346,2.861-14.251,8.056-19.446l43.841-43.84
	c5.193-5.194,12.1-8.055,19.444-8.055c7.346,0,14.252,2.861,19.446,8.055c5.193,5.194,8.055,12.1,8.055,19.445
	c0,7.346-2.86,14.251-8.056,19.445l-17.14,17.14c-2.929,2.929-2.929,7.678,0,10.606c2.93,2.929,7.678,2.929,10.607,0l17.139-17.14
	c8.028-8.027,12.449-18.7,12.449-30.052s-4.421-22.025-12.448-30.052C364.945,295.5,354.272,291.08,342.92,291.08z"/>
<path d="M355.295,353.025c4.249-4.25,6.59-9.9,6.59-15.91s-2.341-11.66-6.59-15.91c-4.25-4.25-9.9-6.59-15.91-6.59
	s-11.66,2.341-15.909,6.59c-4.25,4.25-6.591,9.9-6.591,15.91s2.341,11.66,6.59,15.91c4.25,4.25,9.9,6.59,15.91,6.59
	S351.045,357.274,355.295,353.025C355.294,353.025,355.294,353.025,355.295,353.025z M344.688,342.418L344.688,342.418
	c-1.417,1.417-3.301,2.197-5.304,2.197s-3.887-0.78-5.304-2.197c-1.416-1.417-2.196-3.3-2.196-5.303s0.78-3.886,2.197-5.303
	c1.416-1.417,3.3-2.197,5.303-2.197s3.887,0.78,5.304,2.197c1.416,1.417,2.196,3.3,2.196,5.303S346.104,341.001,344.688,342.418z"/>
<path d="M303.322,350.678c-6.01,0-11.66,2.341-15.909,6.59c-4.25,4.25-6.591,9.9-6.591,15.91s2.341,11.66,6.59,15.91
	c4.25,4.25,9.9,6.59,15.91,6.59s11.66-2.341,15.909-6.59c0,0,0,0,0.001,0c4.249-4.25,6.59-9.9,6.59-15.91s-2.341-11.661-6.59-15.91
	C314.982,353.019,309.332,350.678,303.322,350.678z M308.626,378.48C308.626,378.481,308.625,378.481,308.626,378.48
	c-1.417,1.417-3.301,2.197-5.304,2.197s-3.887-0.78-5.304-2.197c-1.416-1.417-2.196-3.3-2.196-5.303c0-2.003,0.78-3.886,2.197-5.303
	c1.416-1.417,3.3-2.197,5.303-2.197s3.887,0.78,5.304,2.197c1.416,1.417,2.196,3.299,2.196,5.303
	C310.822,375.181,310.042,377.064,308.626,378.48z"/>
<path d="M233.696,442.197l-20,20c-2.929,2.929-2.929,7.678,0,10.606c1.465,1.464,3.385,2.197,5.304,2.197s3.839-0.732,5.304-2.197
	l20-20c2.929-2.929,2.929-7.678,0-10.606C241.374,439.268,236.626,439.268,233.696,442.197z"/>
<path d="M286.696,442.197l-20,20c-2.929,2.929-2.929,7.678,0,10.606c1.465,1.464,3.385,2.197,5.304,2.197s3.839-0.732,5.304-2.197
	l20-20c2.929-2.929,2.929-7.678,0-10.606C294.374,439.268,289.626,439.268,286.696,442.197z"/>
<g>
</g>
<g>
</g>
<g>
</g>
<g>
</g>
<g>
</g>
<g>
</g>
<g>
</g>
<g>
</g>
<g>
</g>
<g>
</g>
<g>
</g>
<g>
</g>
<g>
</g>
<g>
</g>
<g>
</g>
</svg>
