<?xml version="1.0" encoding="iso-8859-1"?>
<!-- Generator: Adobe Illustrator 21.0.0, SVG Export Plug-In . SVG Version: 6.00 Build 0)  -->
<svg version="1.1" id="Capa_1" xmlns="http://www.w3.org/2000/svg" xmlns:xlink="http://www.w3.org/1999/xlink" x="0px" y="0px"
	 viewBox="0 0 512.001 512.001" style="enable-background:new 0 0 512.001 512.001;" xml:space="preserve">
<g>
	<path style="fill:#4F4F74;" d="M460.894,130.9h-65.134v44.601h78.585v-18.74V144.35C474.344,136.915,468.318,130.9,460.894,130.9z"
		/>
	<path style="fill:#4F4F74;" d="M52.107,130.9c-7.425,0-13.45,6.016-13.45,13.45v12.411v11.312h60.275V130.9H52.107z"/>
</g>
<g>
	<path style="fill:#3E436D;" d="M440.488,144.77c-3.422,0-6.567-1.999-8.012-5.085l-4.106-8.785h-32.612v44.601h78.585v-18.74
		V144.77L440.488,144.77L440.488,144.77z"/>
	<path style="fill:#3E436D;" d="M98.93,130.9H84.689l-4.102,8.778c-1.447,3.094-4.594,5.092-8.015,5.092H38.656v11.991v11.312
		h60.275L98.93,130.9L98.93,130.9z"/>
</g>
<path style="fill:#82DBBA;" d="M404.084,122.096c3.957,0,7.625,2.258,9.733,5.986l1.319,2.818l6.475,13.86
	c3.428,7.325,10.792,12.001,18.876,12.001h33.856h10.532c10.842,0,19.626,8.794,19.626,19.636v140.889
	c0,10.842-8.784,19.636-19.626,19.636h-36.804c-14.44,0-28.38,5.666-38.472,15.989c-22.314,22.824-53.442,36.993-87.877,36.993
	H191.337c-34.435,0-65.563-14.17-87.877-36.993c-10.093-10.323-24.033-15.989-38.472-15.989H27.125
	c-10.842,0-19.626-8.794-19.626-19.636V176.397c0-10.842,8.784-19.636,19.626-19.636h11.532h33.916
	c8.084,0,15.449-4.677,18.876-12.001l6.465-13.84l1.329-2.838c2.108-3.727,5.786-5.986,9.733-5.986L404.084,122.096L404.084,122.096
	z"/>
<g>
	<circle style="fill:#5BCE95;" cx="427.933" cy="254.567" r="15.989"/>
	<circle style="fill:#5BCE95;" cx="459.91" cy="204.603" r="15.989"/>
	<path style="fill:#5BCE95;" d="M95.852,218.227v24.582c0,0.939-0.759,1.699-1.699,1.699h-14.59c-0.939,0-1.699,0.759-1.699,1.699
		v14.59c0,0.939-0.759,1.699-1.699,1.699H51.584c-0.939,0-1.699-0.759-1.699-1.699v-14.59c0-0.939-0.759-1.699-1.699-1.699h-14.59
		c-0.939,0-1.699-0.759-1.699-1.699v-24.582c0-0.939,0.759-1.699,1.699-1.699h14.59c0.939,0,1.699-0.759,1.699-1.699v-14.59
		c0-0.939,0.759-1.699,1.699-1.699h24.582c0.939,0,1.699,0.759,1.699,1.699v14.59c0,0.939,0.759,1.699,1.699,1.699h14.59
		C95.093,216.528,95.852,217.288,95.852,218.227z"/>
	<path style="fill:#5BCE95;" d="M467.825,302.447c-14.44,0-28.38,5.666-38.472,15.989c-22.314,22.824-53.442,36.993-87.877,36.993
		H211.089c-34.435,0-65.563-14.17-87.877-36.993c-10.093-10.323-24.033-15.989-38.472-15.989H38.653
		c-6.297,0-11.403-5.105-11.403-11.403V156.761h-0.126c-10.842,0-19.626,8.794-19.626,19.636v140.889
		c0,10.842,8.784,19.636,19.626,19.636h37.863c14.44,0,28.38,5.666,38.472,15.989c22.314,22.824,53.442,36.993,87.877,36.993
		h130.387c34.435,0,65.563-14.17,87.877-36.993c10.093-10.323,24.033-15.989,38.472-15.989h36.804
		c10.842,0,19.626-8.794,19.626-19.636v-14.839L467.825,302.447L467.825,302.447z"/>
</g>
<path style="fill:#4F4F74;" d="M388.995,179.105v132.015c0,6.455-2.608,12.651-7.235,17.168
	c-15.909,15.569-37.403,24.522-60.037,24.522H191.337c-23.513,0-45.797-9.663-61.866-26.371c-4.217-4.387-6.465-10.293-6.465-16.378
	V179.105c0-8.244,6.675-14.919,14.919-14.919h236.151C382.32,164.186,388.995,170.861,388.995,179.105z"/>
<path style="fill:#3E436D;" d="M340.96,342.478H210.573c-23.513,0-45.797-9.663-61.866-26.371
	c-4.217-4.387-6.465-10.293-6.465-16.378V168.773c0-1.602,0.259-3.141,0.724-4.587h-5.041c-8.244,0-14.919,6.675-14.919,14.919
	v130.956c0,6.086,2.248,11.991,6.465,16.378c16.068,16.708,38.353,26.371,61.866,26.371h130.387c18.121,0,35.504-5.752,49.882-16.03
	C361.944,340.482,351.582,342.478,340.96,342.478z"/>
<path style="fill:#7CCAFD;" d="M362.005,194.062v108.206c0,1.862-1.524,3.386-3.386,3.386H152.383c-1.862,0-3.386-1.524-3.386-3.386
	V194.062c0-1.862,1.524-3.386,3.386-3.386h206.236C360.481,190.677,362.005,192.2,362.005,194.062z"/>
<path style="fill:#41C2E5;" d="M266.062,288.007c-53.532,0-97.33-43.799-97.33-97.33l0,0h-16.35c-1.862,0-3.386,1.524-3.386,3.386
	v108.206c0,1.862,1.524,3.386,3.386,3.386h206.236c1.862,0,3.386-1.524,3.386-3.386v-14.262H266.062z"/>
<path style="fill:#4F4F74;" d="M97.614,209.234v24.582c0,0.939-0.759,1.699-1.699,1.699h-14.59c-0.939,0-1.699,0.759-1.699,1.699
	v14.59c0,0.939-0.759,1.699-1.699,1.699H53.346c-0.939,0-1.699-0.759-1.699-1.699v-14.59c0-0.939-0.759-1.699-1.699-1.699h-14.59
	c-0.939,0-1.699-0.759-1.699-1.699v-24.582c0-0.939,0.759-1.699,1.699-1.699h14.59c0.939,0,1.699-0.759,1.699-1.699v-14.59
	c0-0.939,0.759-1.699,1.699-1.699h24.582c0.939,0,1.699,0.759,1.699,1.699v14.59c0,0.939,0.759,1.699,1.699,1.699h14.59
	C96.855,207.535,97.614,208.294,97.614,209.234z"/>
<path style="fill:#3E436D;" d="M62.773,242.51c-0.939,0-1.699-0.759-1.699-1.699v-14.59c0-0.939-0.759-1.699-1.699-1.699h-14.59
	c-0.939,0-1.699-0.759-1.699-1.699v-15.289h-7.729c-0.939,0-1.699,0.759-1.699,1.699v24.582c0,0.939,0.759,1.699,1.699,1.699h14.59
	c0.939,0,1.699,0.759,1.699,1.699v14.59c0,0.939,0.759,1.699,1.699,1.699h24.582c0.939,0,1.699-0.759,1.699-1.699v-9.293H62.773z"/>
<circle style="fill:#358DCD;" cx="433.369" cy="250.5" r="15.989"/>
<circle style="fill:#DD1B1B;" cx="465.346" cy="200.536" r="15.989"/>
<path style="fill:#098BAA;" d="M444.199,257.499c-8.834,0-15.989-7.155-15.989-15.989c0-2.33,0.51-4.537,1.404-6.532
	c-7.015,1.692-12.23,7.989-12.23,15.526c0,8.834,7.155,15.989,15.989,15.989c6.503,0,12.086-3.884,14.585-9.456
	C446.75,257.327,445.496,257.499,444.199,257.499z"/>
<path style="fill:#CC0202;" d="M476.176,207.535c-8.834,0-15.989-7.155-15.989-15.989c0-2.33,0.51-4.537,1.404-6.532
	c-7.015,1.692-12.23,7.989-12.23,15.526c0,8.834,7.155,15.989,15.989,15.989c6.503,0,12.086-3.884,14.585-9.456
	C478.727,207.363,477.473,207.535,476.176,207.535z"/>
<path d="M484.878,149.27h-3.04v-4.919c0-11.552-9.398-20.949-20.95-20.949h-41.15c-3.515-5.454-9.412-8.8-15.651-8.8H108.972
	c-6.24,0-12.137,3.346-15.652,8.8H52.111c-11.552,0-20.95,9.398-20.95,20.949v4.919h-4.039C12.167,149.27,0,161.437,0,176.392
	v140.899c0,14.955,12.167,27.122,27.123,27.122h37.866c12.508,0,24.576,5.007,33.111,13.738
	c24.744,25.31,57.858,39.249,93.242,39.249h130.378c35.384,0,68.498-13.939,93.242-39.249c8.535-8.731,20.603-13.738,33.111-13.738
	h36.806c14.955,0,27.123-12.166,27.123-27.122V176.392C512,161.437,499.833,149.27,484.878,149.27z M466.849,144.35v4.919h-26.36
	c-5.156,0-9.9-3.019-12.084-7.689l-1.492-3.19h33.976C464.175,138.389,466.849,141.063,466.849,144.35z M46.151,144.35
	c0-3.287,2.674-5.96,5.961-5.96h34.036l-1.492,3.19c-2.184,4.672-6.928,7.689-12.084,7.689h-26.42V144.35z M497.011,317.29
	c0,6.69-5.442,12.132-12.133,12.132h-36.806c-16.516,0-32.492,6.651-43.83,18.248c-21.899,22.401-51.206,34.738-82.523,34.738
	H191.341c-31.317,0-60.624-12.337-82.523-34.738c-11.339-11.597-27.313-18.248-43.83-18.248H27.123
	c-6.69,0-12.133-5.442-12.133-12.132V176.391c0-6.69,5.442-12.133,12.133-12.133h45.448c10.951,0,21.024-6.41,25.663-16.33
	l7.649-16.358c0.773-1.245,1.915-1.981,3.09-1.981h295.116c1.174,0,2.315,0.736,3.09,1.981l7.649,16.357
	c4.639,9.92,14.711,16.33,25.663,16.33h44.389c6.69,0,12.133,5.443,12.133,12.133L497.011,317.29L497.011,317.29z"/>
<path d="M374.074,156.687H137.926c-12.36,0-22.417,10.056-22.417,22.417v130.955c0,8.175,3.04,15.838,8.559,21.576
	c17.527,18.222,42.047,28.672,67.271,28.672h130.381c24.529,0,47.715-9.468,65.286-26.662c6.027-5.899,9.484-14.112,9.484-22.531
	v-132.01C396.49,166.744,386.434,156.687,374.074,156.687z M381.501,311.116c0,4.414-1.815,8.721-4.978,11.818
	c-14.753,14.436-34.215,22.386-54.803,22.386H191.341c-21.17,0-41.751-8.775-56.469-24.075c-2.82-2.932-4.373-6.904-4.373-11.184
	V179.104c0-4.096,3.332-7.428,7.428-7.428h236.147c4.096,0,7.428,3.332,7.428,7.428v132.011H381.501z"/>
<path d="M362.353,183.181H149.647c-4.215,0-7.643,3.43-7.643,7.644v114.682c0,4.215,3.429,7.644,7.643,7.644h27.161
	c4.14,0,7.495-3.356,7.495-7.495s-3.355-7.495-7.495-7.495h-19.814v-99.99h198.014v99.991H206.786c-4.14,0-7.495,3.356-7.495,7.495
	s3.355,7.495,7.495,7.495h155.568c4.215,0,7.643-3.43,7.643-7.644V190.825C369.997,186.61,366.568,183.181,362.353,183.181z"/>
<path d="M95.911,200.04h-8.791v-8.791c0-5.07-4.126-9.196-9.196-9.196H53.349c-5.07,0-9.196,4.125-9.196,9.196v8.791h-8.791
	c-5.07,0-9.196,4.125-9.196,9.196v24.577c0,5.07,4.126,9.196,9.196,9.196h8.791v8.791c0,5.07,4.126,9.196,9.196,9.196h24.575
	c5.07,0,9.196-4.125,9.196-9.196v-8.791h8.791c5.07,0,9.196-4.125,9.196-9.196v-24.577
	C105.109,204.165,100.983,200.04,95.911,200.04z M90.119,228.02h-8.791c-5.07,0-9.196,4.125-9.196,9.196v8.791H59.142v-8.791
	c0-5.07-4.126-9.196-9.196-9.196h-8.791v-12.991h8.791c5.07,0,9.196-4.125,9.196-9.196v-8.791h12.991v8.791
	c0,5.07,4.126,9.196,9.196,9.196h8.791V228.02z"/>
<circle cx="92.114" cy="278.98" r="8.994"/>
<circle cx="92.114" cy="305.96" r="8.994"/>
<path d="M433.373,227.021c-12.949,0-23.483,10.534-23.483,23.483c0,12.949,10.534,23.483,23.483,23.483s23.483-10.534,23.483-23.483
	C456.857,237.555,446.322,227.021,433.373,227.021z M433.373,258.998c-4.684,0-8.494-3.81-8.494-8.494s3.81-8.494,8.494-8.494
	s8.494,3.81,8.494,8.494S438.056,258.998,433.373,258.998z"/>
<path d="M465.35,177.057c-12.949,0-23.483,10.534-23.483,23.483c0,12.949,10.534,23.483,23.483,23.483s23.483-10.534,23.483-23.483
	C488.834,187.591,478.299,177.057,465.35,177.057z M465.35,209.034c-4.684,0-8.494-3.81-8.494-8.494s3.81-8.494,8.494-8.494
	s8.494,3.81,8.494,8.494S470.033,209.034,465.35,209.034z"/>
<path d="M424.38,289.976c-4.14,0-7.495,3.356-7.495,7.495v15.989c0,4.139,3.355,7.495,7.495,7.495c4.14,0,7.495-3.356,7.495-7.495
	V297.47C431.874,293.331,428.519,289.976,424.38,289.976z"/>
<path d="M447.363,289.976c-4.14,0-7.495,3.356-7.495,7.495v15.989c0,4.139,3.355,7.495,7.495,7.495c4.14,0,7.495-3.356,7.495-7.495
	V297.47C454.858,293.331,451.502,289.976,447.363,289.976z"/>
<path d="M470.347,289.976c-4.14,0-7.495,3.356-7.495,7.495v15.989c0,4.139,3.355,7.495,7.495,7.495c4.14,0,7.495-3.356,7.495-7.495
	V297.47C477.841,293.331,474.486,289.976,470.347,289.976z"/>
<g>
</g>
<g>
</g>
<g>
</g>
<g>
</g>
<g>
</g>
<g>
</g>
<g>
</g>
<g>
</g>
<g>
</g>
<g>
</g>
<g>
</g>
<g>
</g>
<g>
</g>
<g>
</g>
<g>
</g>
</svg>
