<?xml version="1.0" encoding="iso-8859-1"?>
<!-- Generator: Adobe Illustrator 21.0.0, SVG Export Plug-In . SVG Version: 6.00 Build 0)  -->
<svg version="1.1" id="Capa_1" xmlns="http://www.w3.org/2000/svg" xmlns:xlink="http://www.w3.org/1999/xlink" x="0px" y="0px"
	 viewBox="0 0 512.002 512.002" style="enable-background:new 0 0 512.002 512.002;" xml:space="preserve">
<path style="fill:#CEC1E7;" d="M116.144,268.458l-63.368-22.982c-1.089-0.395-2.292,0.167-2.688,1.256l-1.111,3.055
	c-6.344,17.494-7.013,35.677-2.967,52.511l118.841,88.387l3.565-0.26h0.01l0.709,0.26l1.828-5.025
	C188.187,338.153,163.65,285.682,116.144,268.458z"/>
<path style="fill:#BEB2DB;" d="M84.55,289.314H53.559h-9.695c0.405,4.392,1.124,8.731,2.146,12.984l112.748,83.855h12.025
	l0.18-0.495c1.986-5.478,3.41-11.022,4.314-16.569C169.534,324.091,131.1,289.314,84.55,289.314z"/>
<path style="fill:#EDE6F5;" d="M77.001,302.296c49.394,0,89.656,39.153,91.414,88.127c0.05,1.119,0.07,2.238,0.07,3.367v5.345
	h-67.244c-51.773,0-93.745-41.971-93.745-93.745v-0.844c0-1.243,1.008-2.251,2.251-2.251H46.01h30.991V302.296z"/>
<path style="fill:#DED6EA;" d="M168.159,386.153h-44.937c-48.434,0-88.285-36.732-93.226-83.855H9.747
	c-1.243,0-2.251,1.008-2.251,2.251v0.844c0,51.773,41.971,93.745,93.745,93.745h67.244v-5.345c0-1.129-0.02-2.248-0.07-3.367
	C168.364,388.991,168.276,387.567,168.159,386.153z"/>
<path style="fill:#9965CA;" d="M469.063,398.077c19.337,0,35.064,15.486,35.44,34.742c0.388,19.879-16.257,36.151-36.14,36.151
	h-98.071c-0.596,0-1.14-0.341-1.4-0.877l-8.604-17.744c-0.536-1.107-2.084-1.183-2.726-0.134l-11.037,18.012
	c-0.283,0.462-0.785,0.743-1.327,0.743h-134.99c-0.619,0-1.181-0.368-1.428-0.936l-3.127-7.206c-0.515-1.186-2.167-1.264-2.79-0.131
	l-4.112,7.468c-0.274,0.497-0.796,0.805-1.363,0.805h-38.793c-19.883,0-36.528-16.272-36.14-36.151
	c0.376-19.256,16.104-34.742,35.44-34.742h23.458h263.333L469.063,398.077L469.063,398.077z"/>
<g>
	<path style="fill:#8959C1;" d="M435.767,455.945h-30.928h-25.094h-16.744l5.89,12.148c0.26,0.536,0.804,0.877,1.4,0.877h98.071
		c11.106,0,21.197-5.079,27.879-13.025H435.767z"/>
	<path style="fill:#8959C1;" d="M244.756,455.945h-12.82h-7.557h-31.235c-19.883,0-36.528-16.272-36.14-36.151
		c0.161-8.236,3.136-15.777,7.996-21.718h-7.102c-19.336,0-35.064,15.486-35.44,34.742c-0.388,19.879,16.257,36.151,36.14,36.151
		h38.793c0.567,0,1.089-0.309,1.363-0.805l4.112-7.468c0.623-1.132,2.276-1.055,2.79,0.131l3.127,7.206
		c0.247,0.568,0.807,0.936,1.428,0.936h134.989c0.541,0,1.044-0.282,1.327-0.743l7.526-12.281L244.756,455.945L244.756,455.945z"/>
</g>
<path style="fill:#CF8AFA;" d="M449.392,411.084c2.398,6.664-2.528,13.687-9.611,13.687H186.258c-7.083,0-12.009-7.023-9.611-13.687
	l45.676-126.367c0.392-1.083,1.32-1.882,2.449-2.108l36.586-7.319c2.028-0.41,2.208-3.247,0.24-3.906l-27.551-9.183
	c-1.754-0.584-2.682-2.5-2.054-4.239l35.36-97.863l14.696-45.727c1.469-4.596,4.945-8.402,9.581-10.49l133.495-60.273
	c5.725-2.588,11.219,4.006,7.653,9.171l-74.091,107.319L449.392,411.084z"/>
<path style="fill:#C283FF;" d="M209.917,411.084l45.676-126.366c0.392-1.083,1.32-1.882,2.449-2.108l36.586-7.319
	c2.028-0.41,2.208-3.247,0.24-3.906l-27.551-9.183c-1.754-0.584-2.682-2.5-2.054-4.239l35.36-97.863l14.696-45.727
	c1.469-4.596,4.945-8.402,9.581-10.49L430.376,56.26l2.402-3.479c3.567-5.165-1.928-11.759-7.653-9.171L291.63,103.883
	c-4.636,2.088-8.112,5.894-9.581,10.49l-14.696,45.727l-35.36,97.863c-0.628,1.739,0.3,3.655,2.054,4.239l27.551,9.183
	c1.968,0.659,1.788,3.497-0.24,3.906l-36.586,7.319c-1.129,0.226-2.057,1.025-2.449,2.108l-45.676,126.365
	c-2.398,6.664,2.528,13.687,9.611,13.687h33.27C212.445,424.772,207.519,417.748,209.917,411.084z"/>
<path style="fill:#EE8E3E;" d="M429.38,355.726l10.98,30.382h-71.183c-0.03,0.1-60.763,0-60.763,0H185.679l10.98-30.382h111.755
	h60.763H429.38z"/>
<polygon style="fill:#EA8032;" points="196.659,355.726 185.679,386.108 218.946,386.108 229.926,355.726 "/>
<path style="fill:#FECF54;" d="M355.13,340.081h-32.669c-7.753,0-14.047,6.284-14.047,14.047v32.669
	c0,7.753,6.294,14.047,14.047,14.047h32.669c7.763,0,14.047-6.294,14.047-14.047v-32.669
	C369.177,346.365,362.893,340.081,355.13,340.081z M348.027,379.684h-18.463v-18.453h18.463V379.684z"/>
<circle style="fill:#F8D46E;" cx="335.176" cy="247.338" r="12.988"/>
<circle style="fill:#EE8E3E;" cx="335.176" cy="279.308" r="18.982"/>
<path style="fill:#F7C852;" d="M335.039,247.338c0-4.834,2.647-9.043,6.564-11.278c-1.896-1.082-4.085-1.709-6.424-1.709
	c-7.173,0-12.988,5.815-12.988,12.988s5.815,12.988,12.988,12.988c2.339,0,4.528-0.626,6.424-1.709
	C337.685,256.38,335.039,252.172,335.039,247.338z"/>
<path style="fill:#EA8032;" d="M329.184,279.308c0-8.195,5.209-15.161,12.488-17.817c-2.029-0.74-4.209-1.165-6.494-1.165
	c-10.48,0-18.982,8.502-18.982,18.982s8.502,18.982,18.982,18.982c2.285,0,4.465-0.425,6.494-1.165
	C334.394,294.469,329.184,287.504,329.184,279.308z"/>
<path d="M469.063,390.586h-19.118l-82.901-229.404L438.94,57.039c3.536-5.121,3.232-11.773-0.754-16.551
	c-3.986-4.779-10.476-6.268-16.149-3.708l-133.49,60.273c-6.546,2.955-11.515,8.432-13.635,15.027l-14.651,45.6l-36.466,100.906
	c-0.686,1.899-0.576,3.996,0.304,5.814s2.458,3.203,4.374,3.841l11.22,3.74l-18.212,3.643c-2.572,0.515-4.687,2.335-5.578,4.802
	l-35.482,98.187c13.512-49.208-12.935-101.505-61.722-119.198l-65.34-23.697c-3.889-1.411-8.187,0.599-9.598,4.49l-1.823,5.024
	c-5.561,15.332-7.225,31.605-4.957,47.575H7.493c-4.138,0-7.493,3.355-7.493,7.493v5.345c0,54.581,44.404,98.985,98.985,98.985
	h27.178c-6.956,7.633-11.203,17.776-11.203,28.893c0,23.675,19.261,42.937,42.937,42.937h40.415c2.084,0,4.043-0.866,5.439-2.339
	c1.391,1.467,3.345,2.339,5.44,2.339h136.883c2.607,0,5.026-1.355,6.389-3.578l5.822-9.498l4.292,8.852
	c1.253,2.584,3.871,4.224,6.743,4.224h99.747c23.676,0,42.937-19.261,42.937-42.937C512,409.847,492.739,390.586,469.063,390.586z
	 M183.699,413.636l7.239-20.032h52.078c4.138,0,7.493-3.355,7.493-7.493s-3.355-7.493-7.493-7.493h-46.662l5.563-15.395h99.007
	v15.395h-27.936c-4.138,0-7.493,3.355-7.493,7.493s3.355,7.493,7.493,7.493h29.057c2.858,8.546,10.923,14.73,20.419,14.73h32.667
	c9.496,0,17.561-6.183,20.419-14.73h59.552l7.239,20.032c0.419,1.158-0.028,2.057-0.332,2.49c-0.304,0.433-0.997,1.159-2.229,1.159
	H186.259c-1.232,0-1.925-0.726-2.229-1.159C183.727,415.692,183.28,414.794,183.699,413.636z M424.123,363.223l5.563,15.395H376.67
	v-15.395H424.123z M361.684,386.794c0,3.614-2.939,6.554-6.554,6.554h-32.667c-3.614,0-6.554-2.939-6.554-6.554v-32.668
	c0-3.614,2.939-6.554,6.554-6.554h32.667c3.614,0,6.554,2.939,6.554,6.554V386.794z M228.561,289.49l34.264-6.853
	c4.226-0.845,7.364-4.44,7.632-8.742s-2.401-8.257-6.49-9.62l-23.467-7.823l33.9-93.807c0.03-0.084,0.059-0.169,0.087-0.254
	l14.692-45.727c0.825-2.569,2.842-4.739,5.535-5.953l129.253-58.359l-68.894,99.793h-31.926c-4.138,0-7.493,3.355-7.493,7.493
	s3.355,7.493,7.493,7.493h4.54v61.165c-7.594,2.999-12.988,10.395-12.988,19.042c0,4.298,1.337,8.286,3.609,11.584
	c-0.163,0.135-0.32,0.276-0.479,0.415l-12.453-5.803c-2.664-1.241-5.81-0.81-8.041,1.103l-6.993,5.994
	c-3.142,2.693-3.506,7.423-0.812,10.565c2.693,3.143,7.424,3.506,10.565,0.812l3.328-2.852l6.292,2.932
	c-0.652,2.297-1.009,4.717-1.009,7.219c0,1.71,0.169,3.381,0.481,5.001l-9.177,2.822c-2.712,0.834-4.722,3.13-5.188,5.93
	l-0.999,5.994c-0.68,4.081,2.077,7.943,6.159,8.623c0.417,0.07,0.831,0.103,1.241,0.103c3.597,0,6.772-2.598,7.382-6.262
	l0.238-1.426l7.427-2.284c4.809,4.915,11.509,7.974,18.912,7.974c7.403,0,14.103-3.058,18.912-7.974l7.427,2.284l0.238,1.426
	c0.61,3.665,3.785,6.263,7.382,6.262c0.409,0,0.824-0.034,1.241-0.103c4.082-0.68,6.84-4.541,6.159-8.623l-0.999-5.994
	c-0.467-2.8-2.476-5.096-5.188-5.93l-9.177-2.822c0.312-1.62,0.481-3.292,0.481-5.001c0-2.503-0.357-4.922-1.009-7.219l6.292-2.932
	l3.328,2.852c3.141,2.692,7.872,2.33,10.565-0.812c2.693-3.142,2.33-7.872-0.812-10.565l-6.993-5.994
	c-2.232-1.913-5.377-2.344-8.041-1.103l-12.453,5.803c-0.159-0.139-0.316-0.28-0.479-0.415c2.271-3.298,3.609-7.286,3.609-11.584
	c0-8.647-5.394-16.042-12.988-19.042v-61.165h10.588l65.448,181.105h-42.876c-2.571-9.02-10.867-15.651-20.701-15.651h-32.667
	c-9.834,0-18.13,6.631-20.701,15.651h-94.43L228.561,289.49z M323.69,279.308c0-6.335,5.154-11.489,11.489-11.489
	s11.489,5.154,11.489,11.489s-5.154,11.489-11.489,11.489S323.69,285.644,323.69,279.308z M329.684,247.338
	c0-3.03,2.465-5.495,5.495-5.495s5.495,2.465,5.495,5.495s-2.465,5.495-5.495,5.495S329.684,250.368,329.684,247.338z
	 M15.013,307.792h61.985c7.2,0,14.356,0.915,21.269,2.718c4.008,1.044,8.096-1.355,9.141-5.359c1.044-4.004-1.355-8.096-5.359-9.141
	c-8.147-2.125-16.575-3.203-25.052-3.203h-24.87c-2.271-13.515-1.188-27.347,3.19-40.438l58.27,21.133
	c34.936,12.67,56.353,46.252,55.307,81.521c-7.237-18.085-19.755-33.906-36.374-45.185c-3.423-2.323-8.083-1.432-10.407,1.992
	c-2.324,3.424-1.433,8.083,1.992,10.407c20.881,14.174,34.149,36.786,36.506,61.588l-48.365-29.019
	c-3.551-2.13-8.151-0.979-10.28,2.57c-2.129,3.549-0.978,8.151,2.57,10.28l36.645,21.986H98.985
	C53.386,389.643,16.156,353.121,15.013,307.792z M469.063,461.472H374.01l-8.218-16.95c-1.195-2.464-3.639-4.08-6.374-4.215
	c-2.736-0.142-5.326,1.233-6.757,3.569l-10.785,17.596H214.103l-2.844-6.542c-1.139-2.621-3.67-4.365-6.524-4.498
	c-2.849-0.134-5.536,1.371-6.913,3.874l-3.94,7.165h-35.985c-15.412,0-27.951-12.538-27.951-27.951
	c0-15.413,12.538-27.951,27.951-27.951h12.782l-1.074,2.971c-1.959,5.421-1.151,11.473,2.16,16.192
	c3.312,4.719,8.73,7.535,14.494,7.535h253.521c5.765,0,11.182-2.816,14.494-7.535c3.311-4.719,4.119-10.771,2.16-16.192
	l-1.074-2.971h13.702c15.413,0,27.951,12.538,27.951,27.951C497.014,448.934,484.476,461.472,469.063,461.472z"/>
<path d="M348.026,353.738h-18.457c-4.138,0-7.493,3.355-7.493,7.493v18.457c0,4.138,3.355,7.493,7.493,7.493h18.457
	c4.138,0,7.493-3.355,7.493-7.493v-18.457C355.519,357.093,352.164,353.738,348.026,353.738z M340.533,372.196h-3.471v-3.471h3.471
	V372.196z"/>
<g>
</g>
<g>
</g>
<g>
</g>
<g>
</g>
<g>
</g>
<g>
</g>
<g>
</g>
<g>
</g>
<g>
</g>
<g>
</g>
<g>
</g>
<g>
</g>
<g>
</g>
<g>
</g>
<g>
</g>
</svg>
