<?xml version="1.0" encoding="iso-8859-1"?>
<!-- Generator: Adobe Illustrator 21.0.0, SVG Export Plug-In . SVG Version: 6.00 Build 0)  -->
<svg version="1.1" id="Capa_1" xmlns="http://www.w3.org/2000/svg" xmlns:xlink="http://www.w3.org/1999/xlink" x="0px" y="0px"
	 viewBox="0 0 511.999 511.999" style="enable-background:new 0 0 511.999 511.999;" xml:space="preserve">
<path style="fill:#EE8E3E;" d="M429.128,297.341v56.041H82.872v-56.041V165.264c0-12.169,9.867-22.036,22.036-22.036h105.638h90.907
	h105.638c12.169,0,22.036,9.867,22.036,22.036V297.341z"/>
<path style="fill:#EA8032;" d="M120.117,338.359V206.282c0-12.169,9.867-22.036,22.036-22.036h105.638h90.907h91.192v-18.219
	c0-12.169-9.867-22.036-22.036-22.036H302.216h-90.907H105.671c-12.169,0-22.036,9.867-22.036,22.036v132.078v56.041h36.482
	L120.117,338.359L120.117,338.359z"/>
<path style="fill:#EDE6F5;" d="M107.89,323.141V173.47c0-2.885,2.339-5.223,5.223-5.223h285.772c2.885,0,5.223,2.339,5.223,5.223
	v149.672c0,2.885-2.339,5.223-5.223,5.223H113.114C110.229,328.364,107.89,326.026,107.89,323.141z"/>
<path style="fill:#7CCAFD;" d="M327.04,49.158H184.959c-2.694,0-5.097,1.697-5.995,4.237l-13.031,36.793L256,197.267l90.066-107.079
	l-13.031-36.793C332.137,50.856,329.735,49.158,327.04,49.158z"/>
<path style="fill:#64C3F9;" d="M201.026,81.182l11.341-32.024h-27.408c-2.694,0-5.097,1.697-5.995,4.237l-13.031,36.793L256,197.267
	l21.335-25.364L201.026,81.182z"/>
<polygon style="fill:#55BEF9;" points="288.524,90.188 256,197.267 223.476,90.188 "/>
<polygon style="fill:#1DB1F2;" points="231.883,117.867 256,197.267 267.32,159.998 "/>
<path style="fill:#EE8E3E;" d="M429.128,297.341v185.157c0,12.149-9.847,21.996-21.996,21.996H104.868
	c-12.149,0-21.996-9.847-21.996-21.996V297.341H429.128z"/>
<path style="fill:#EA8032;" d="M156.189,467.967c-12.149,0-21.996-9.847-21.996-21.996v-148.63H82.872v185.157
	c0,12.149,9.847,21.996,21.996,21.996h302.263c12.149,0,21.996-9.847,21.996-21.996v-14.531L156.189,467.967L156.189,467.967z"/>
<g>
	<rect x="82.871" y="297.339" style="fill:#F8D46E;" width="346.256" height="26.52"/>
	<path style="fill:#F8D46E;" d="M400.106,446.451c0,0,0,28.021,0,29.021s-30.022,0-30.022,0H141.916h-26.143
		c-1.59,0-2.878-1.289-2.878-2.878v-26.143v-90.191c0-1.59,1.289-2.878,2.878-2.878h99.297h81.86h100.298
		c1.59,0,2.878,1.289,2.878,2.878V446.451z"/>
</g>
<path style="fill:#F7C852;" d="M392.599,459.119H241.145c-58.396,0-105.736-47.34-105.736-105.736l0,0h-19.636
	c-1.59,0-2.878,1.289-2.878,2.878v90.191v26.143c0,1.59,1.289,2.878,2.878,2.878h26.143h228.168c0,0,30.022,1.001,30.022,0
	c0-0.529,0-8.63,0-16.139C395.801,459.226,392.599,459.119,392.599,459.119z"/>
<g>
	<path style="fill:#EDE6F5;" d="M298.031,297.341v50.067c0,9.377-7.606,16.983-16.983,16.983h-50.097
		c-9.377,0-16.983-7.606-16.983-16.983v-50.067H298.031z"/>
	<path style="fill:#EDE6F5;" d="M141.916,457.029v47.465h-37.047c-12.149,0-21.996-9.847-21.996-21.996v-36.047h48.466
		C137.182,446.451,141.916,451.185,141.916,457.029z"/>
	<path style="fill:#EDE6F5;" d="M429.128,446.451v36.047c0,12.149-9.847,21.996-21.996,21.996h-37.047v-47.465
		c0-5.844,4.734-10.578,10.578-10.578H429.128z"/>
</g>
<path style="fill:#CEC1E7;" d="M273.012,297.341v39.435c0,1.434-1.162,2.596-2.596,2.596h-28.833c-1.434,0-2.596-1.162-2.596-2.596
	v-39.435H273.012z"/>
<g>
	<path style="fill:#FFEA6E;" d="M188.783,260.484l14.961,36.857H100.668l14.961-36.857c1.021-2.522,3.473-4.173,6.205-4.173h60.745
		C185.311,256.311,187.762,257.962,188.783,260.484z"/>
	<path style="fill:#FFEA6E;" d="M394.935,260.484l14.961,36.857H306.82l14.961-36.857c1.021-2.522,3.473-4.173,6.205-4.173h60.745
		C391.463,256.311,393.915,257.962,394.935,260.484z"/>
	<path style="fill:#FFEA6E;" d="M291.859,260.484l14.961,36.857H203.744l14.961-36.857c1.021-2.522,3.473-4.173,6.205-4.173h60.745
		C288.387,256.311,290.839,257.962,291.859,260.484z"/>
	<path style="fill:#FFEA6E;" d="M240.822,219.454l14.961,36.857H152.707l14.961-36.857c1.021-2.522,3.473-4.173,6.205-4.173h60.745
		C237.349,215.281,239.801,216.932,240.822,219.454z"/>
	<path style="fill:#FFEA6E;" d="M343.898,219.454l14.961,36.857H255.783l14.961-36.857c1.021-2.522,3.473-4.173,6.205-4.173h60.745
		C340.425,215.281,342.877,216.932,343.898,219.454z"/>
</g>
<g>
	<path style="fill:#FFDE3B;" d="M140.318,256.312L140.318,256.312h-18.486c-2.732,0-5.184,1.651-6.205,4.173l-14.961,36.857h103.076
		l-3.656-9.007h-38.206C145.367,288.335,134.108,271.613,140.318,256.312z"/>
	<path style="fill:#FFDE3B;" d="M346.471,256.312L346.471,256.312h-18.486c-2.732,0-5.184,1.651-6.205,4.173l-14.961,36.857h103.076
		l-3.656-9.007h-38.206C351.519,288.335,340.26,271.613,346.471,256.312z"/>
	<path style="fill:#FFDE3B;" d="M243.395,256.312L243.395,256.312h-18.486c-2.732,0-5.184,1.651-6.205,4.173l-14.961,36.857h103.076
		l-3.656-9.007h-38.206C248.443,288.335,237.184,271.613,243.395,256.312z"/>
	<path style="fill:#FFDE3B;" d="M192.357,215.282L192.357,215.282h-18.486c-2.732,0-5.184,1.651-6.205,4.173l-14.961,36.857h103.076
		l-3.656-9.007H213.92C197.406,247.304,186.146,230.583,192.357,215.282z"/>
	<path style="fill:#FFDE3B;" d="M295.433,215.282L295.433,215.282h-18.486c-2.732,0-5.184,1.651-6.205,4.173l-14.961,36.857h103.076
		l-3.656-9.007h-38.206C300.482,247.304,289.222,230.583,295.433,215.282z"/>
</g>
<path style="fill:#55BEF9;" d="M228.72,49.158l-5.244,41.03h-57.542l13.03-36.793c0.9-2.54,3.301-4.237,5.995-4.237H228.72z"/>
<path style="fill:#1DB1F2;" d="M201.026,81.182l11.341-32.024h-27.408c-1.011,0-1.979,0.239-2.844,0.671
	c-1.44,0.721-2.59,1.978-3.151,3.567l-13.031,36.793h42.669L201.026,81.182z"/>
<path style="fill:#55BEF9;" d="M333.037,53.396l13.031,36.793h-57.542l-5.244-41.03h43.76
	C329.735,49.158,332.137,50.856,333.037,53.396z"/>
<path style="fill:#F4C500;" d="M288.954,394.484c-3.433-3.443-8.196-5.574-13.44-5.574H256v62.046h19.514
	c10.498,0,19.014-8.516,19.014-19.014v-24.018C294.528,402.68,292.397,397.915,288.954,394.484z"/>
<path style="fill:#FFEA27;" d="M275.014,407.923v24.018c0,10.498-8.516,19.014-19.014,19.014c-10.498,0-19.014-8.516-19.014-19.014
	v-24.018c0-10.498,8.516-19.014,19.014-19.014c5.244,0,10.007,2.132,13.44,5.574C272.882,397.915,275.014,402.679,275.014,407.923z"
	/>
<path d="M138.246,13.573l12.012,8.749c1.334,0.972,2.88,1.439,4.413,1.439c2.318,0,4.604-1.07,6.072-3.086
	c2.441-3.35,1.703-8.046-1.647-10.486L147.084,1.44c-3.352-2.442-8.046-1.702-10.486,1.647
	C134.158,6.437,134.895,11.132,138.246,13.573z"/>
<path d="M152.038,39.229l-12.009,5.004c-3.826,1.594-5.635,5.988-4.041,9.815c1.201,2.882,3.991,4.62,6.931,4.62
	c0.962,0,1.94-0.186,2.884-0.579l12.009-5.004c3.826-1.594,5.635-5.988,4.041-9.815C160.259,39.443,155.865,37.633,152.038,39.229z"
	/>
<path d="M357.33,23.762c1.532,0,3.079-0.468,4.413-1.439l12.012-8.749c3.35-2.44,4.088-7.135,1.647-10.486
	c-2.44-3.349-7.134-4.088-10.486-1.647l-12.012,8.749c-3.35,2.44-4.088,7.135-1.647,10.486
	C352.726,22.691,355.012,23.762,357.33,23.762z"/>
<path d="M354.187,53.084l12.009,5.004c0.944,0.393,1.921,0.579,2.884,0.579c2.939,0,5.73-1.738,6.931-4.62
	c1.594-3.827-0.215-8.221-4.041-9.815l-12.009-5.004c-3.827-1.594-8.221,0.214-9.815,4.041
	C348.552,47.095,350.362,51.491,354.187,53.084z"/>
<path d="M275.014,381.403H256c-14.623,0-26.52,11.897-26.52,26.52v24.018c0,14.623,11.897,26.52,26.52,26.52
	c0.223,0,0.444-0.011,0.665-0.017c0.112,0.005,0.222,0.017,0.335,0.017h18.013c14.623,0,26.52-10.612,26.52-23.654v-29.747
	C301.533,392.015,289.638,381.403,275.014,381.403z M244.491,431.941v-24.018c0-6.346,5.163-11.509,11.508-11.509
	c6.346,0,11.509,5.163,11.509,11.509v24.018c0,6.346-5.163,11.508-11.509,11.508C249.654,443.449,244.491,438.287,244.491,431.941z
	 M286.522,434.806c0,3.247-2.535,6.144-6.167,7.617c1.39-3.217,2.164-6.76,2.164-10.481v-24.018c0-3.722-0.774-7.264-2.164-10.481
	c3.632,1.473,6.167,4.368,6.167,7.617V434.806z"/>
<path d="M407.088,135.722h-89.514c0,0,34.301-40.798,34.297-40.798c0.109-0.134,0.223-0.262,0.323-0.404
	c1.407-1.99,1.759-4.54,0.946-6.838l-14.534-41.03c-1.062-2.996-3.896-5-7.074-5H180.467c-3.179,0-6.013,2.002-7.074,5
	l-14.534,41.03c-0.787,2.222-0.473,4.673,0.819,6.633c-0.003-0.001,0.447,0.627,0.512,0.705l34.235,40.702h-89.514
	c-16.291,0-29.545,13.254-29.545,29.545l0,0v317.227c0,16.27,13.237,29.506,29.506,29.506h302.254
	c16.27,0,29.506-13.237,29.506-29.506V165.267l0,0C436.633,148.977,423.379,135.722,407.088,135.722z M400.106,411.926
	c-4.145,0-7.506,3.36-7.506,7.506v19.514h-11.937c-9.972,0-18.085,8.113-18.085,18.085v10.936H149.421v-10.936
	c0-9.972-8.113-18.085-18.085-18.085H120.4v-78.058h90.125c4.388,6.627,11.907,11.008,20.433,11.008h50.087
	c8.526,0,16.045-4.381,20.433-11.008h91.125v28.521c0,4.145,3.36,7.506,7.506,7.506c4.145,0,7.506-3.36,7.506-7.506v-36.027
	c0-4.145-3.36-7.506-7.506-7.506h-39.362v-14.01h60.878v107.079h-14.01v-19.514C407.612,415.286,404.251,411.926,400.106,411.926z
	 M149.421,482.978h98.573v14.01h-98.573V482.978z M263.005,482.978h99.574v14.01h-99.574V482.978z M90.378,438.946V331.366h60.879
	v14.511h-38.362c-4.145,0-7.506,3.36-7.506,7.506v85.563H90.378z M114.768,284.332c0.033-0.076,0.063-0.154,0.094-0.231
	l8.233-20.283h59.657l0,0l10.562,26.019h-80.781L114.768,284.332z M245.353,248.805L245.353,248.805h-80.782l0,0l10.562-26.019
	h59.657L245.353,248.805z M348.429,248.805L348.429,248.805h-80.782l0,0l10.562-26.019h59.657L348.429,248.805z M388.905,263.816
	c0.031,0.077,10.529,25.943,10.562,26.019l0,0h-80.782l10.562-26.019H388.905L388.905,263.816L388.905,263.816z M421.622,316.856
	H305.536v-12.009l0,0h116.086l0,0V316.856z M305.536,345.877v-14.01h40.197v14.01H305.536z M166.268,345.877v-14.511h40.197v14.511
	H166.268z M285.829,263.816L285.829,263.816l10.562,26.019l0,0h-80.782l0,0l10.562-26.019H285.829z M302.029,263.816h11.018
	l-5.509,13.571L302.029,263.816z M246.493,304.847h19.014v27.02h-19.014V304.847z M204.462,277.387l-5.509-13.571h11.018
	L204.462,277.387z M221.474,347.403v-42.556h10.007v34.525c0,4.145,3.36,7.506,7.506,7.506h34.025c4.145,0,7.506-3.36,7.506-7.506
	v-34.525h10.007v42.556c0,5.229-4.253,9.482-9.482,9.482h-50.087C225.729,356.885,221.474,352.632,221.474,347.403z M90.378,304.847
	h116.086l0,0v11.508H90.378L90.378,304.847L90.378,304.847z M407.088,150.733c8.014,0,14.534,6.52,14.534,14.534v124.569h-5.954
	l-4.053-9.983V168.246c0-4.145-3.36-7.506-7.506-7.506H296.532l8.417-10.007H407.088z M276.669,56.663l3.328,26.019h-47.994
	l3.328-26.019H276.669z M274.885,163.156l21.107-65.461h33.954L274.885,163.156z M231.781,97.694h48.439l-24.219,75.115
	L231.781,97.694z M216.008,97.694l21.107,65.461l-55.061-65.461H216.008z M335.445,82.683h-40.315l-3.328-26.019h34.426
	L335.445,82.683z M185.771,56.663h34.426l-3.328,26.019h-40.315L185.771,56.663z M104.911,150.733h102.14l8.417,10.007h-34.775
	c-4.145,0-7.506,3.36-7.506,7.506c0,4.145,3.36,7.506,7.506,7.506h47.401l22.161,26.347c1.426,1.695,3.529,2.674,5.744,2.674
	s4.317-0.979,5.744-2.674l22.161-26.347h112.699v74.977c-2.122-1.235-4.572-1.923-7.152-1.923h-24.821l-13.06-32.172
	c-2.185-5.381-7.348-8.859-13.156-8.859h-60.751c-5.807,0-10.972,3.478-13.156,8.859l-8.006,19.723l-8.006-19.723
	c-2.185-5.381-7.348-8.859-13.156-8.859h-60.751c-5.807,0-10.972,3.478-13.156,8.859l-13.06,32.172h-25.822
	c-2.58,0-5.031,0.69-7.152,1.923v-74.977h35.276c4.145,0,7.506-3.36,7.506-7.506c0-4.145-3.36-7.506-7.506-7.506h-42.782
	c-4.145,0-7.506,3.36-7.506,7.506v111.606l-4.053,9.983h-5.954V165.267C90.378,157.254,96.897,150.733,104.911,150.733z
	 M90.378,482.494v-28.537h40.958c1.695,0,3.074,1.379,3.074,3.074v39.958h-29.538C96.88,496.989,90.378,490.487,90.378,482.494z
	 M407.127,496.989H377.59v-39.958c0-1.695,1.379-3.074,3.074-3.074h40.958v28.537C421.622,490.487,415.12,496.989,407.127,496.989z"
	/>
<g>
</g>
<g>
</g>
<g>
</g>
<g>
</g>
<g>
</g>
<g>
</g>
<g>
</g>
<g>
</g>
<g>
</g>
<g>
</g>
<g>
</g>
<g>
</g>
<g>
</g>
<g>
</g>
<g>
</g>
</svg>
