<?xml version="1.0" encoding="iso-8859-1"?>
<!-- Generator: Adobe Illustrator 21.0.0, SVG Export Plug-In . SVG Version: 6.00 Build 0)  -->
<svg version="1.1" id="Capa_1" xmlns="http://www.w3.org/2000/svg" xmlns:xlink="http://www.w3.org/1999/xlink" x="0px" y="0px"
	 viewBox="0 0 512.001 512.001" style="enable-background:new 0 0 512.001 512.001;" xml:space="preserve">
<g>
	<path style="fill:#EDE6F5;" d="M209.923,62.5c-41.25,0-79.75-20.65-102.58-55c-18.26,38.51-27.55,76.64-27.55,114.35
		c0,37.29,9.08,74.17,27.55,110.65c23.44-30.87,59.98-49,98.74-49h47.26v-30v-61v-30H209.923z"/>
	<path style="fill:#EDE6F5;" d="M413.343,37.5l-2.62,2.5l-12.19,11.61c-7.33,6.99-17.06,10.89-27.19,10.89h-79v30v59v30h79.65
		c10.94,0,21.4,4.55,28.85,12.57l12.5,13.43C438.453,150.83,438.453,94.17,413.343,37.5z"/>
</g>
<path style="fill:#A85C3B;" d="M328.243,487.82l-30.86-46.35l-0.04-0.06V349.5h-46v95.49l5.82,26.63l6.28,28.75
	c0.25,1.15,0.86,2.14,1.7,2.85c0.93,0.81,2.13,1.28,3.43,1.28h50.73C327.873,504.5,332.983,494.95,328.243,487.82z"/>
<path style="fill:#A04830;" d="M286.443,500.37l-6.28-28.75l-5.82-26.63V349.5h-23v95.49l5.82,26.63l6.28,28.75
	c0.25,1.15,0.86,2.14,1.7,2.85c0.93,0.81,2.13,1.28,3.43,1.28h23c-1.3,0-2.5-0.47-3.43-1.28
	C287.303,502.51,286.693,501.52,286.443,500.37z"/>
<path style="fill:#F7B728;" d="M350.653,316.5c2.76,0,4.35,3.15,2.7,5.37L341.343,338l12.01,16.13c1.65,2.22,0.06,5.37-2.7,5.37
	h-50.31v-43H350.653z"/>
<rect x="251.339" y="156.81" style="fill:#A85C3B;" width="46" height="186.38"/>
<rect x="251.339" y="156.81" style="fill:#A04830;" width="23" height="186.38"/>
<path style="fill:#FECF54;" d="M300.343,7.5h-48c-4.14,0-7.89,1.68-10.6,4.4c-2.72,2.71-4.4,6.46-4.4,10.6c0,8.28,6.72,15,15,15
	h1.285v38.378h43.715V37.5h3c4.14,0,7.89-1.68,10.6-4.4c2.72-2.71,4.4-6.46,4.4-10.6C315.343,14.22,308.623,7.5,300.343,7.5z"/>
<path style="fill:#F7C852;" d="M274.813,37.5c-8.28,0-15-6.72-15-15c0-4.14,1.68-7.89,4.4-10.6c2.71-2.72,6.46-4.4,10.6-4.4h-22.47
	c-4.14,0-7.89,1.68-10.6,4.4c-2.72,2.71-4.4,6.46-4.4,10.6c0,8.28,6.72,15,15,15h1.285v38.378h22.47V37.5H274.813z"/>
<path style="fill:#FECF54;" d="M308.343,317.18v41.64c0,4.24-3.44,7.68-7.68,7.68h-47.64c-4.24,0-7.68-3.44-7.68-7.68v-41.64
	c0-4.24,3.44-7.68,7.68-7.68h47.64C304.903,309.5,308.343,312.94,308.343,317.18z"/>
<path style="fill:#EE8E3E;" d="M303.343,41.139v145.722c0,2.01-1.629,3.639-3.639,3.639h-50.722c-2.01,0-3.639-1.629-3.639-3.639
	V41.139c0-2.01,1.629-3.639,3.639-3.639h50.722C301.714,37.5,303.343,39.129,303.343,41.139z"/>
<path style="fill:#EA8032;" d="M303.343,167c-17.673,0-32-14.327-32-32V37.5h-22.361c-2.01,0-3.639,1.629-3.639,3.639v145.722
	c0,2.01,1.629,3.639,3.639,3.639h50.722c2.01,0,3.639-1.629,3.639-3.639L303.343,167L303.343,167z"/>
<path style="fill:#E1D8EF;" d="M245.343,153.5v30h-39.26c-38.76,0-75.3,18.13-98.74,49l11-52l0.2-0.06
	c0.03,0.13,0.07,0.25,0.11,0.38c25.47-17.52,56.02-27.32,87.43-27.32H245.343z"/>
<path style="fill:#CEC1E7;" d="M245.343,92.5v61h-39.26c-31.41,0-61.96,9.8-87.43,27.32c-0.04-0.13-0.08-0.25-0.11-0.38
	c-11.63-38.43-11.73-77.34-0.3-117.48c0.06-0.24,0.13-0.49,0.2-0.73c26.05,19.41,57.97,30.27,91.48,30.27H245.343z"/>
<rect x="233.339" y="92.5" style="fill:#C0B3E2;" width="12" height="61"/>
<path style="fill:#E1D8EF;" d="M245.343,62.5v30h-35.42c-33.51,0-65.43-10.86-91.48-30.27c-0.07,0.24-0.14,0.49-0.2,0.73h-0.01
	L107.343,7.5c22.83,34.35,61.33,55,102.58,55H245.343z"/>
<g>
	<rect x="233.339" y="153.5" style="fill:#CDBEEA;" width="12" height="30"/>
	<rect x="233.339" y="62.5" style="fill:#CDBEEA;" width="12" height="30"/>
</g>
<g>
	<path style="fill:#E1D8EF;" d="M371.993,151.5c9.13,0,18.11,1.83,26.42,5.25l14.93,50.75l-12.5-13.43
		c-7.45-8.02-17.91-12.57-28.85-12.57h-68.65v-30H371.993z"/>
	<path style="fill:#E1D8EF;" d="M398.323,87.07c-8.44,3.56-17.59,5.43-26.98,5.43h-68v-30h68c10.13,0,19.86-3.9,27.19-10.89
		l14.81-14.11l-14.96,49.85C398.363,87.26,398.343,87.16,398.323,87.07z"/>
</g>
<path style="fill:#CEC1E7;" d="M371.343,92.5c9.39,0,18.54-1.87,26.98-5.43c0.02,0.09,0.04,0.19,0.06,0.28
	c5.03,23.21,5.09,46.25,0.18,69.46c-0.05-0.02-0.1-0.04-0.15-0.06c-8.31-3.42-17.29-5.25-26.42-5.25h-68.65v-59H371.343z"/>
<rect x="303.339" y="92.5" style="fill:#C0B3E2;" width="12" height="59"/>
<g>
	<rect x="303.339" y="62.5" style="fill:#CDBEEA;" width="12" height="30"/>
	<rect x="303.339" y="151.5" style="fill:#CDBEEA;" width="12" height="30"/>
</g>
<path style="fill:#EDE6F5;" d="M297.383,441.47l12.88,19.35l-45.12,42.4c-0.84-0.71-1.45-1.7-1.7-2.85l-6.28-28.75l40.18-30.12
	L297.383,441.47z"/>
<path style="fill:#E1D8EF;" d="M283.332,486.127l-3.169-14.507l-3.238-14.814l-19.762,14.814l0,0l6.28,28.75
	c0.063,0.287,0.148,0.565,0.253,0.831c0.211,0.531,0.504,1.015,0.862,1.436c0.179,0.211,0.375,0.406,0.585,0.583L283.332,486.127z"
	/>
<rect id="SVGCleanerId_0" x="251.339" y="394.37" style="fill:#EDE6F5;" width="46" height="26.78"/>
<g>
	<rect id="SVGCleanerId_0_1_" x="251.339" y="394.37" style="fill:#EDE6F5;" width="46" height="26.78"/>
</g>
<rect x="251.339" y="394.37" style="fill:#E1D8EF;" width="23" height="26.78"/>
<path d="M419.681,211.495c0.05-0.079,0.099-0.158,0.146-0.24c0.109-0.189,0.209-0.383,0.302-0.581
	c0.022-0.047,0.05-0.089,0.071-0.137c0.013-0.028,0.024-0.057,0.037-0.085c0.002-0.006,0.005-0.012,0.008-0.018
	c25.835-58.385,25.822-117.59-0.044-175.973c-0.989-2.231-3.002-3.842-5.396-4.318c-2.395-0.474-4.87,0.243-6.637,1.928
	l-14.807,14.115C387.4,51.87,379.58,55,371.343,55h-60.5V42.391c7.13-3.779,12-11.275,12-19.891c0-12.407-10.094-22.5-22.5-22.5h-48
	c-12.407,0-22.5,10.093-22.5,22.5c0,6.886,3.112,13.055,8,17.186V55h-27.92c-38.831,0-74.843-19.309-96.333-51.651
	c-0.001-0.002-0.003-0.004-0.004-0.005c-0.171-0.256-0.359-0.498-0.558-0.729c-0.05-0.058-0.103-0.113-0.154-0.169
	c-0.153-0.167-0.312-0.326-0.478-0.477c-0.066-0.061-0.131-0.122-0.199-0.18c-0.217-0.184-0.441-0.359-0.677-0.517
	c-0.051-0.034-0.105-0.062-0.156-0.095c-0.194-0.123-0.392-0.238-0.596-0.343c-0.095-0.049-0.191-0.094-0.288-0.139
	c-0.181-0.083-0.364-0.159-0.552-0.227c-0.09-0.033-0.179-0.07-0.271-0.099c-0.268-0.087-0.541-0.161-0.819-0.218
	c-0.071-0.015-0.144-0.022-0.216-0.034c-0.222-0.039-0.446-0.068-0.673-0.086c-0.097-0.008-0.194-0.013-0.291-0.017
	c-0.232-0.01-0.466-0.007-0.702,0.005c-0.05,0.003-0.1-0.003-0.15,0.001c-0.018,0.001-0.036,0.006-0.054,0.008
	c-0.283,0.023-0.567,0.058-0.852,0.114c-0.017,0.003-0.033,0.009-0.05,0.012c-0.061,0.012-0.12,0.031-0.181,0.045
	c-0.239,0.055-0.472,0.119-0.7,0.195c-0.083,0.028-0.164,0.058-0.245,0.088c-0.223,0.083-0.439,0.176-0.65,0.278
	c-0.057,0.028-0.116,0.053-0.173,0.083c-0.273,0.141-0.537,0.295-0.787,0.466c-0.005,0.003-0.009,0.007-0.013,0.01
	c-0.239,0.165-0.465,0.345-0.682,0.535c-0.058,0.051-0.114,0.103-0.17,0.155c-0.173,0.161-0.337,0.328-0.493,0.504
	c-0.047,0.052-0.095,0.102-0.141,0.156c-0.19,0.225-0.367,0.46-0.529,0.706c-0.032,0.049-0.06,0.101-0.092,0.151
	c-0.131,0.21-0.252,0.426-0.362,0.648c-0.019,0.039-0.045,0.074-0.063,0.114c-37.6,79.313-37.571,157.234,0.086,231.601
	c0.005,0.01,0.012,0.02,0.018,0.03c0.132,0.257,0.279,0.505,0.439,0.744c0.041,0.062,0.087,0.119,0.129,0.179
	c0.126,0.177,0.259,0.35,0.401,0.516c0.056,0.066,0.113,0.131,0.171,0.195c0.157,0.172,0.322,0.336,0.494,0.493
	c0.039,0.035,0.075,0.073,0.115,0.108c0.221,0.193,0.454,0.374,0.698,0.54c0.024,0.017,0.051,0.031,0.075,0.047
	c0.213,0.142,0.436,0.272,0.665,0.393c0.068,0.036,0.137,0.069,0.206,0.102c0.193,0.094,0.391,0.179,0.593,0.257
	c0.081,0.031,0.161,0.063,0.243,0.091c0.217,0.075,0.439,0.138,0.666,0.193c0.062,0.015,0.122,0.035,0.184,0.049
	c0.014,0.003,0.027,0.008,0.04,0.011c0.281,0.06,0.562,0.1,0.842,0.127c0.011,0.001,0.022,0.004,0.033,0.005
	c0.171,0.015,0.341,0.019,0.511,0.023c0.058,0.001,0.116,0.009,0.174,0.009c0.022,0,0.042-0.005,0.064-0.006
	c0.355-0.003,0.706-0.038,1.053-0.091c0.11-0.017,0.218-0.036,0.326-0.057c0.332-0.066,0.659-0.148,0.978-0.258
	c0.033-0.011,0.067-0.018,0.099-0.029c0.347-0.124,0.68-0.282,1.005-0.456c0.086-0.046,0.168-0.094,0.252-0.143
	c0.279-0.164,0.548-0.343,0.805-0.542c0.042-0.033,0.088-0.061,0.129-0.094c0.283-0.229,0.546-0.484,0.796-0.755
	c0.071-0.078,0.137-0.159,0.205-0.24c0.083-0.098,0.172-0.19,0.251-0.293C135.208,208.21,169.888,191,206.085,191h31.783
	c0.225,3.403,2.711,6.187,5.975,6.849v107.269c-3.638,2.775-6,7.142-6,12.06v41.644c0,4.918,2.362,9.285,6,12.06v74.103
	c0,0.538,0.058,1.075,0.173,1.601l12.097,55.382c0.541,2.473,1.804,4.653,3.531,6.347c0.014,0.015,0.025,0.031,0.038,0.045
	c0.024,0.026,0.051,0.047,0.076,0.073c0.019,0.018,0.037,0.036,0.056,0.053c0.366,0.371,0.76,0.697,1.178,0.976
	c2.146,1.595,4.783,2.539,7.583,2.539h50.73c6.734,0,12.894-3.688,16.073-9.625c3.179-5.936,2.835-13.106-0.896-18.711
	l-29.639-44.521v-65.741c3.581-1.028,6.617-3.337,8.588-6.401h37.224c4.131,0,7.85-2.293,9.704-5.985
	c1.854-3.691,1.475-8.044-0.992-11.359L350.692,338l8.676-11.657c2.466-3.314,2.846-7.667,0.991-11.358
	c-1.854-3.692-5.573-5.985-9.704-5.985h-37.224c-1.971-3.065-5.007-5.373-8.588-6.401V285.5c0-4.142-3.357-7.5-7.5-7.5
	s-7.5,3.358-7.5,7.5V302h-31V198h31v57.5c0,4.142,3.357,7.5,7.5,7.5s7.5-3.358,7.5-7.5v-57.651c3.424-0.695,6-3.721,6-7.349V189
	h61.146c8.832,0,17.348,3.708,23.363,10.175l12.499,13.434c0.026,0.028,0.056,0.052,0.083,0.08c0.059,0.061,0.122,0.118,0.182,0.177
	c0.211,0.205,0.431,0.396,0.661,0.573c0.056,0.043,0.109,0.089,0.166,0.13c0.279,0.202,0.571,0.382,0.873,0.543
	c0.068,0.036,0.138,0.068,0.207,0.103c0.275,0.136,0.557,0.256,0.846,0.357c0.052,0.018,0.102,0.041,0.155,0.058
	c0.322,0.105,0.652,0.183,0.987,0.243c0.094,0.017,0.188,0.03,0.282,0.044c0.322,0.045,0.646,0.076,0.974,0.079
	c0.024,0,0.047,0.006,0.071,0.006c0.386,0,0.775-0.037,1.165-0.099c0.026-0.004,0.052-0.002,0.078-0.007
	c0.241-0.04,0.475-0.102,0.708-0.165c0.056-0.015,0.112-0.02,0.168-0.037c0.007-0.002,0.014-0.005,0.021-0.007
	c0.04-0.012,0.078-0.029,0.118-0.042c0.238-0.075,0.469-0.16,0.694-0.256c0.076-0.032,0.149-0.07,0.224-0.105
	c0.191-0.089,0.377-0.184,0.557-0.288c0.071-0.041,0.141-0.083,0.211-0.126c0.188-0.116,0.369-0.24,0.544-0.371
	c0.052-0.039,0.106-0.076,0.157-0.116c0.449-0.354,0.852-0.755,1.204-1.196c0.05-0.063,0.096-0.128,0.144-0.193
	C419.457,211.834,419.573,211.667,419.681,211.495z M424.672,122.5c0,20.449-3.479,41.142-10.35,61.75l-8.097-27.53
	c4.633-22.953,4.582-46.199-0.147-69.159l7.533-28.906C420.954,79.955,424.672,101.357,424.672,122.5z M274.343,101
	c-4.143,0-7.5,3.358-7.5,7.5V183h-14V45h14v29.5c0,4.142,3.357,7.5,7.5,7.5s7.5-3.358,7.5-7.5V45h14v138h-14v-74.5
	C281.843,104.358,278.486,101,274.343,101z M310.843,100h60.5c7.27,0,14.388-0.997,21.26-2.971
	c2.771,16.705,2.829,33.143,0.177,49.845c-6.76-1.91-13.722-2.874-20.79-2.874h-61.146v-44H310.843z M371.343,70
	c9.293,0,18.219-2.719,25.831-7.756l-4.993,19.16C385.518,83.787,378.526,85,371.343,85h-60.5V70H371.343z M252.343,15h48
	c4.136,0,7.5,3.364,7.5,7.5s-3.364,7.5-7.5,7.5h-48c-4.136,0-7.5-3.364-7.5-7.5S248.207,15,252.343,15z M209.923,70h27.92v15h-27.92
	c-1.218,0-2.433-0.021-3.646-0.05c-4.133-0.109-7.581,3.172-7.682,7.313c-0.102,4.141,3.173,7.58,7.313,7.682
	c1.336,0.033,2.673,0.055,4.014,0.055h27.92v46h-31.758c-29.29,0-57.753,7.93-82.935,23.022
	c-7.872-31.118-7.934-62.224-0.188-94.533c15.758,10.167,33.03,17.408,51.481,21.569c4.041,0.909,8.055-1.626,8.966-5.667
	s-1.626-8.055-5.667-8.966c-19.206-4.331-36.994-12.352-52.919-23.834l-4.554-23.189C144.239,57.047,176.132,70,209.923,70z
	 M104.669,32.803l5.865,29.864c-11.184,40.379-11.129,78.943,0.169,117.708l-5.978,28.257
	c-11.647-28.751-17.514-58.063-17.432-87.406C87.375,92.337,93.223,62.685,104.669,32.803z M120.192,207.998l4.722-22.324
	C149.191,169.539,177.195,161,206.085,161h31.758v15h-31.758C174.459,176,143.866,187.648,120.192,207.998z M300.664,317
	c0.099,0,0.179,0.08,0.179,0.178v41.644c0,0.098-0.08,0.178-0.179,0.178h-3.321h-44.322c-0.098,0-0.178-0.08-0.178-0.178v-41.644
	c0-0.098,0.08-0.178,0.178-0.178H300.664z M268.752,489.544l-3.235-14.809l30.017-22.505l4.973,7.471L268.752,489.544z
	 M258.843,401.875h31v11.773h-31V401.875z M258.843,444.175v-15.527h31v9.101l-27.844,20.875L258.843,444.175z M289.843,386.875h-31
	V374h31V386.875z M322.155,495.294c-0.341,0.637-1.165,1.706-2.85,1.706h-36.584l26.217-24.638l13.058,19.615
	C322.929,493.378,322.496,494.657,322.155,495.294z M335.326,342.478l7.087,9.522h-26.57v-28h26.57l-7.087,9.522
	C333.349,336.18,333.349,339.82,335.326,342.478z M371.99,174h-61.146v-15h61.146c6.932,0,13.738,1.166,20.285,3.448l5.72,19.449
	C390.35,176.812,381.293,174,371.99,174z"/>
<g>
</g>
<g>
</g>
<g>
</g>
<g>
</g>
<g>
</g>
<g>
</g>
<g>
</g>
<g>
</g>
<g>
</g>
<g>
</g>
<g>
</g>
<g>
</g>
<g>
</g>
<g>
</g>
<g>
</g>
</svg>
