<?xml version="1.0" encoding="iso-8859-1"?>
<!-- Generator: Adobe Illustrator 21.0.0, SVG Export Plug-In . SVG Version: 6.00 Build 0)  -->
<svg version="1.1" id="Capa_1" xmlns="http://www.w3.org/2000/svg" xmlns:xlink="http://www.w3.org/1999/xlink" x="0px" y="0px"
	 viewBox="0 0 512 512" style="enable-background:new 0 0 512 512;" xml:space="preserve">
<g>
	<path style="fill:#32314B;" d="M307.023,54.337L272.807,64.82l-6.302,7.025L295.206,96l4.011-4.6l11.296-33.473
		C311.247,55.755,309.215,53.665,307.023,54.337z"/>
	<path style="fill:#32314B;" d="M140.759,68.154l-4.782-3.794l-33.475-11.297c-2.171-0.733-4.261,1.298-3.59,3.49l10.475,34.217
		l0.01,0.01l0.001-0.001l7.679,6.315L140.759,68.154z"/>
	<path style="fill:#32314B;" d="M351.235,157.929l-31.597-16.779l-13.814-0.77v36.03l13.694,2.21l31.647-15.685
		C353.218,161.917,353.259,159.003,351.235,157.929z"/>
	<path style="fill:#32314B;" d="M114.767,220.087l-5.83,7.523l-11.295,33.463c-0.733,2.172,1.299,4.262,3.49,3.59l34.205-10.483
		c0,0,2.207-4.081,3.01-4.081C139.152,250.099,114.767,220.087,114.767,220.087z"/>
	<path style="fill:#32314B;" d="M309.242,262.446l-10.474-34.206l-4.467-4.669l-25.456,26.528l3.343,4.541l33.464,11.296
		C307.823,266.669,309.913,264.638,309.242,262.446z"/>
	<path style="fill:#32314B;" d="M249.781,246.08h-91.704v21.02v26.72c0,8.66,7.02,15.68,15.68,15.68h60.64
		c8.66,0,15.68-7.02,15.68-15.68V267.1L249.781,246.08z"/>
</g>
<path style="fill:#27273D;" d="M193.248,293.82V267.1v-21.02h-35.171v21.02v26.72c0,8.66,7.02,15.68,15.68,15.68h35.171
	C200.268,309.5,193.248,302.48,193.248,293.82z"/>
<g>
	<path style="fill:#32314B;" d="M119.077,140.38v37.12l-30.56,0.35l-31.598-16.779c-2.024-1.075-1.983-3.989,0.07-5.006
		l31.647-15.685L119.077,140.38L119.077,140.38z"/>
	<path style="fill:#32314B;" d="M207.512,12.413l15.685,31.647l-0.12,25.44h-37.35V43.94l16.779-31.598
		C203.581,10.319,206.495,10.359,207.512,12.413z"/>
</g>
<circle style="fill:#4F4F74;" cx="204.079" cy="159.5" r="117"/>
<path style="fill:#3E436D;" d="M249.781,266.498c-64.62,0-117-52.38-117-117c0-47.73,28.581-88.777,69.56-106.976
	C138.523,43.451,87.077,95.461,87.077,159.5c0,64.62,52.38,117,117,117c16.89,0,32.94-3.584,47.44-10.024
	C250.939,266.484,250.362,266.498,249.781,266.498z"/>
<path style="fill:#CEC1E7;" d="M447.167,60.5c8.97,0,15.14,9.02,11.88,17.37l-6.63,17.04c-2.01,5.18-7,8.59-12.56,8.59h-17.56
	c-5.56,0-10.55-3.41-12.56-8.59l-6.63-17.04c-3.26-8.35,2.91-17.37,11.88-17.37H447.167z"/>
<path style="fill:#BCAFDD;" d="M433.96,94.91l-6.63-17.04c-3.26-8.35,2.91-17.37,11.88-17.37h-24.222
	c-8.97,0-15.14,9.02-11.88,17.37l6.63,17.04c2.01,5.18,7,8.59,12.56,8.59h17.56c1.142,0,2.258-0.151,3.331-0.425
	C439.038,102.017,435.557,99.026,433.96,94.91z"/>
<path d="M359.595,153.876l-33.199-17.628c-0.528-2.793-1.144-5.568-1.862-8.316c-1.047-4.007-5.146-6.408-9.152-5.36
	c-4.008,1.047-6.407,5.145-5.359,9.153c2.359,9.029,3.556,18.374,3.556,27.775c0,60.378-49.121,109.5-109.5,109.5
	s-109.5-49.122-109.5-109.5S143.698,50,204.077,50c39.399,0,75.942,21.331,95.369,55.668c2.038,3.605,6.614,4.873,10.221,2.834
	c3.604-2.04,4.874-6.616,2.834-10.221c-1.56-2.757-3.227-5.432-4.975-8.038l11.845-35.12c0.899-2.665,0.231-5.609-1.729-7.625
	s-4.886-2.767-7.574-1.942l-36.005,11.03c-13.751-9.345-29.32-15.919-45.802-19.197L211.797,4.17
	c-1.248-2.52-3.803-4.13-6.614-4.169c-2.765-0.034-5.41,1.498-6.729,3.982l-17.631,33.204c-16.74,3.176-32.305,9.709-45.962,18.878
	l-35.16-11.859c-2.663-0.899-5.608-0.231-7.626,1.729c-2.017,1.96-2.767,4.885-1.942,7.574l11.03,36.006
	C91.89,103.108,85.24,118.624,81.94,135.33l-33.193,16.45c-2.521,1.249-4.13,3.803-4.169,6.615c-0.04,2.812,1.498,5.41,3.981,6.729
	l33.205,17.631c3.176,16.74,9.709,32.304,18.878,45.962l-11.859,35.16c-0.899,2.665-0.231,5.609,1.729,7.625
	c1.434,1.475,3.382,2.272,5.378,2.271c0.733,0,1.474-0.107,2.196-0.329l36.005-11.031c5.225,3.564,10.734,6.742,16.485,9.49v21.917
	c0,12.721,10.301,23.077,23,23.174v19.786c0,14.23,9.797,26.213,23,29.564v7.603c-9.797,2.489-17.93,9.743-21.332,19.606
	c-1.351,3.916,0.729,8.185,4.645,9.536c3.919,1.352,8.185-0.73,9.535-4.645c1.281-3.714,3.887-6.694,7.174-8.508
	c0.228,3.938,3.483,7.063,7.478,7.063c3.997,0,7.253-3.128,7.478-7.068c4.777,2.644,8.022,7.732,8.022,13.568v12
	c0,5.967-3.394,11.148-8.349,13.738c-0.959-3.036-3.797-5.238-7.151-5.238c-3.361,0-6.204,2.21-7.158,5.256
	c-2.793-1.454-5.127-3.757-6.633-6.685c-1.895-3.683-6.414-5.133-10.1-3.24c-3.684,1.894-5.135,6.416-3.24,10.1
	c4.079,7.931,11.258,13.515,19.631,15.626v10.88c-13.203,3.351-23,15.334-23,29.564v19c0,4.142,3.357,7.5,7.5,7.5s7.5-3.358,7.5-7.5
	v-19c0-5.827,3.235-10.908,8-13.555v1.555c0,4.142,3.357,7.5,7.5,7.5s7.5-3.358,7.5-7.5v-1.555c4.765,2.647,8,7.728,8,13.555v19
	c0,4.142,3.357,7.5,7.5,7.5s7.5-3.358,7.5-7.5v-19c0-14.23-9.797-26.213-23-29.564v-10.871c13.203-3.351,23-15.334,23-29.564v-12
	c0-14.23-9.797-26.213-23-29.564v-7.59c13.203-3.351,23-15.334,23-29.564v-19.786c12.699-0.097,23-10.453,23-23.174v-21.917
	c5.47-2.614,10.721-5.615,15.717-8.969l35.16,11.859c0.784,0.265,1.593,0.394,2.396,0.394c1.922,0,3.807-0.74,5.229-2.123
	c2.017-1.96,2.767-4.885,1.942-7.574l-11.03-36.006c9.273-13.593,15.923-29.109,19.223-45.815l33.193-16.449
	c2.521-1.249,4.13-3.803,4.169-6.615C363.616,157.793,362.078,155.195,359.595,153.876z M300.487,64.179l-4.019,11.915
	c-2.59-2.863-5.304-5.595-8.133-8.192L300.487,64.179z M204.847,23.926l5.578,11.254c-2.108-0.108-4.223-0.18-6.347-0.18
	c-1.733,0-3.456,0.045-5.172,0.116L204.847,23.926z M108.756,63.09l11.948,4.03c-2.864,2.587-5.605,5.307-8.218,8.146L108.756,63.09
	z M68.503,158.731l11.234-5.567c-0.106,2.099-0.16,4.212-0.16,6.337c0,1.733,0.045,3.456,0.116,5.172L68.503,158.731z
	 M107.668,254.821l4.03-11.948c2.587,2.864,5.306,5.605,8.146,8.218L107.668,254.821z M219.577,336.781
	c0,5.827-3.235,10.908-8,13.555V349.5c0-4.142-3.357-7.5-7.5-7.5s-7.5,3.358-7.5,7.5v0.836c-4.765-2.647-8-7.728-8-13.555v-19.063
	h31V336.781z M242.577,293.821c0,4.51-3.669,8.179-8.179,8.179h-60.643c-4.51,0-8.179-3.669-8.179-8.179v-15.922
	c12.13,3.954,25.068,6.101,38.5,6.101s26.37-2.147,38.5-6.101v15.922H242.577z M299.399,255.91l-11.948-4.03
	c2.864-2.587,5.605-5.307,8.219-8.146L299.399,255.91z M328.417,165.837c0.106-2.099,0.16-4.212,0.16-6.337
	c0-1.727-0.049-3.451-0.12-5.174l11.194,5.944L328.417,165.837z"/>
<path d="M191.809,101.003c3.658,1.942,8.198,0.551,10.142-3.107l2.374-4.47l2.153,4.345c1.309,2.641,3.965,4.171,6.726,4.171
	c1.118,0,2.255-0.251,3.324-0.782c3.712-1.839,5.229-6.339,3.39-10.05l-8.644-17.44c-1.249-2.52-3.803-4.129-6.615-4.169
	c-2.843-0.042-5.409,1.498-6.729,3.982l-9.228,17.379C186.76,94.52,188.151,99.061,191.809,101.003z"/>
<path d="M203.863,181.939c0.035,0.001,0.07,0.001,0.106,0.001c2.771,0,5.32-1.53,6.623-3.982l9.229-17.379
	c1.942-3.659,0.552-8.199-3.106-10.142c-3.66-1.943-8.199-0.551-10.142,3.106l-2.374,4.471l-2.153-4.344
	c-1.839-3.712-6.338-5.23-10.05-3.39c-3.712,1.839-5.229,6.339-3.39,10.05l8.643,17.44
	C198.497,180.29,201.052,181.9,203.863,181.939z"/>
<path d="M272.565,135.415l6.222-18.446c0.899-2.665,0.231-5.609-1.729-7.625c-1.96-2.017-4.885-2.768-7.574-1.942l-18.82,5.766
	c-3.96,1.213-6.188,5.408-4.974,9.368c1.214,3.959,5.405,6.187,9.368,4.974l4.845-1.484l-1.55,4.597
	c-1.324,3.925,0.784,8.18,4.709,9.503c0.795,0.268,1.604,0.396,2.398,0.396C268.589,140.52,271.509,138.545,272.565,135.415z"/>
<path d="M233.453,209.484c-1.324,3.925,0.784,8.18,4.709,9.503l18.445,6.222c0.785,0.265,1.594,0.394,2.396,0.394
	c1.922,0,3.807-0.74,5.229-2.123c2.017-1.96,2.767-4.885,1.942-7.574l-5.766-18.82c-1.213-3.961-5.406-6.188-9.368-4.974
	c-3.96,1.213-6.188,5.407-4.974,9.368l1.484,4.846l-4.596-1.55C239.032,203.452,234.778,205.559,233.453,209.484z"/>
<path d="M173.094,200.876c-3.925-1.322-8.18,0.785-9.504,4.709l-6.222,18.446c-0.899,2.665-0.231,5.609,1.729,7.625
	c1.434,1.475,3.382,2.271,5.378,2.271c0.733,0,1.474-0.107,2.196-0.329l18.82-5.766c3.96-1.213,6.188-5.408,4.974-9.368
	s-5.405-6.186-9.368-4.974l-4.845,1.484l1.55-4.597C179.127,206.454,177.019,202.199,173.094,200.876z"/>
<path d="M148.737,144.05c-1.839-3.712-6.338-5.23-10.05-3.39l-17.44,8.643c-2.521,1.249-4.13,3.803-4.169,6.615
	c-0.04,2.812,1.498,5.41,3.981,6.729l17.379,9.228c1.121,0.595,2.324,0.877,3.511,0.877c2.687,0,5.283-1.447,6.631-3.984
	c1.942-3.658,0.552-8.199-3.106-10.141l-4.471-2.374l4.345-2.153C149.06,152.261,150.577,147.762,148.737,144.05z"/>
<path d="M439.862,111c8.714,0,16.387-5.247,19.548-13.368l6.631-17.038c2.427-6.235,1.62-13.254-2.156-18.776S453.859,53,447.169,53
	h-32.184c-6.689,0-12.938,3.297-16.715,8.819c-3.777,5.522-4.583,12.541-2.156,18.776l6.631,17.038
	c3.161,8.12,10.834,13.367,19.548,13.367h1.284v19.936c-13.203,3.351-23,15.334-23,29.564v12c0,14.23,9.797,26.213,23,29.564v9.871
	c-13.203,3.351-23,15.334-23,29.564v12c0,14.23,9.797,26.213,23,29.564v9.871c-13.203,3.351-23,15.334-23,29.564v12
	c0,14.23,9.797,26.213,23,29.564v9.871c-13.203,3.351-23,15.334-23,29.564v12c0,14.23,9.797,26.213,23,29.564v10.905
	c-12.646,3.327-22,14.856-22,28.531v20c0,4.142,3.357,7.5,7.5,7.5s7.5-3.358,7.5-7.5v-20c0-5.248,2.813-9.84,7-12.386v1.386
	c0,4.142,3.357,7.5,7.5,7.5s7.5-3.358,7.5-7.5v-1.386c4.188,2.546,7,7.138,7,12.386v20c0,4.142,3.357,7.5,7.5,7.5s7.5-3.358,7.5-7.5
	v-20c0-13.675-9.354-25.204-22-28.531v-10.905c13.203-3.351,23-15.334,23-29.564v-12c0-14.23-9.797-26.213-23-29.564v-9.871
	c13.203-3.351,23-15.334,23-29.564v-12c0-14.23-9.797-26.213-23-29.564v-9.871c13.203-3.351,23-15.334,23-29.564v-12
	c0-14.23-9.797-26.213-23-29.564v-9.871c13.203-3.351,23-15.334,23-29.564v-12c0-14.23-9.797-26.213-23-29.564V111H439.862z
	 M446.577,403.5v12c0,5.967-3.394,11.148-8.349,13.738c-0.959-3.036-3.797-5.238-7.151-5.238s-6.192,2.202-7.151,5.238
	c-4.955-2.59-8.349-7.771-8.349-13.738v-12c0-5.827,3.235-10.908,8-13.555v2.555c0,4.142,3.357,7.5,7.5,7.5s7.5-3.358,7.5-7.5
	v-2.555C443.342,392.592,446.577,397.673,446.577,403.5z M446.577,322.5v12c0,5.967-3.394,11.148-8.349,13.738
	c-0.959-3.036-3.797-5.238-7.151-5.238s-6.192,2.202-7.151,5.238c-4.955-2.59-8.349-7.771-8.349-13.738v-12
	c0-5.827,3.235-10.908,8-13.555v2.555c0,4.142,3.357,7.5,7.5,7.5s7.5-3.358,7.5-7.5v-2.555
	C443.342,311.592,446.577,316.673,446.577,322.5z M446.577,241.5v12c0,5.967-3.394,11.148-8.349,13.738
	c-0.959-3.036-3.797-5.238-7.151-5.238s-6.192,2.202-7.151,5.238c-4.955-2.59-8.349-7.771-8.349-13.738v-12
	c0-5.827,3.235-10.908,8-13.555v2.555c0,4.142,3.357,7.5,7.5,7.5s7.5-3.358,7.5-7.5v-2.555
	C443.342,230.592,446.577,235.673,446.577,241.5z M446.577,160.5v12c0,5.967-3.394,11.148-8.349,13.738
	c-0.959-3.036-3.797-5.238-7.151-5.238s-6.192,2.202-7.151,5.238c-4.955-2.59-8.349-7.771-8.349-13.738v-12
	c0-5.881,3.292-11.007,8.13-13.633c0.644,3.488,3.695,6.133,7.37,6.133s6.726-2.644,7.37-6.133
	C443.285,149.493,446.577,154.619,446.577,160.5z M416.724,92.192l-6.631-17.038c-0.906-2.33,0.089-4.18,0.56-4.868
	c0.47-0.688,1.833-2.287,4.333-2.287h32.184c2.5,0,3.863,1.599,4.333,2.287c0.471,0.688,1.466,2.538,0.56,4.868l-6.631,17.037
	c-0.9,2.313-3.087,3.809-5.569,3.809h-17.568C419.811,96,417.624,94.505,416.724,92.192z"/>
<g>
</g>
<g>
</g>
<g>
</g>
<g>
</g>
<g>
</g>
<g>
</g>
<g>
</g>
<g>
</g>
<g>
</g>
<g>
</g>
<g>
</g>
<g>
</g>
<g>
</g>
<g>
</g>
<g>
</g>
</svg>
