<?xml version="1.0" encoding="iso-8859-1"?>
<!-- Generator: Adobe Illustrator 21.0.0, SVG Export Plug-In . SVG Version: 6.00 Build 0)  -->
<svg version="1.1" id="Capa_1" xmlns="http://www.w3.org/2000/svg" xmlns:xlink="http://www.w3.org/1999/xlink" x="0px" y="0px"
	 viewBox="0 0 512 512" style="enable-background:new 0 0 512 512;" xml:space="preserve">
<path style="fill:#4F4F74;" d="M116.181,319.453l-0.885,0.885l-10.737,39.241l-65.035,57.437c-1.71,1.52-1.88,4.139-0.36,5.849
	l22.565,25.564c1.52,1.71,4.139,1.87,5.859,0.36l65.035-57.437l40.271-5.799l1.156-0.387L116.181,319.453z"/>
<path style="fill:#3E436D;" d="M54.401,438.102c-1.52-1.71-1.35-4.329,0.36-5.849l65.035-57.437l10.7-39.107l-14.316-16.256
	l-0.885,0.885l-10.737,39.241l-65.035,57.437c-1.71,1.52-1.88,4.139-0.36,5.849l22.565,25.564c0.797,0.896,1.895,1.355,3.007,1.382
	L54.401,438.102z"/>
<path style="fill:#EDE6F5;" d="M353.929,41.733l-0.18,1.11L351.6,56.02c-9.008,55.477-36.951,106.115-79.081,143.316
	L149.237,308.221l18.558,21.012l0,0l22.793,25.807l12.891-11.385l110.39-97.499c19.748-17.438,42.041-31.419,65.937-41.566
	c1.593-0.677,3.193-1.336,4.8-1.979c6.428-2.569,12.966-4.865,19.595-6.878c3.314-1.007,6.652-1.944,10.011-2.808
	c3.358-0.865,6.737-1.66,10.136-2.381c3.397-0.722,6.813-1.372,10.246-1.949c3.2-0.538,6.417-1.006,9.644-1.416
	c7.155-0.909,14.37-1.51,21.626-1.78l6.803-0.255l6.803-0.255l0.86-0.03l23.824-146.596l0.35-2.13L353.929,41.733z"/>
<path style="fill:#CEC1E7;" d="M379.806,204.589c1.593-0.677,3.193-1.336,4.8-1.979c6.428-2.569,12.966-4.865,19.595-6.878
	c3.314-1.007,6.652-1.944,10.011-2.808c3.358-0.865,6.737-1.66,10.136-2.381c3.397-0.722,6.813-1.372,10.246-1.949
	c3.2-0.538,6.417-1.006,9.644-1.416c7.155-0.909,14.37-1.51,21.626-1.78l6.803-0.255l6.803-0.255l0.86-0.03l11.553-71.087
	l-76.556,2.886l-29.235,21.372c-0.305,2.077-7.278,9.108-7.278,9.108L170.269,332.033l20.32,23.008l12.891-11.385l110.39-97.499
	C333.618,228.718,355.91,214.737,379.806,204.589z"/>
<path style="fill:#00F4CB;" d="M46.551,423.695l-3.538,3.538l-22.985,1.21c-3.199,0.16-5.859,2.509-6.418,5.659l-5.999,33.682
	c-0.78,4.359,2.709,8.308,7.128,8.078l34.162-1.8c3.199-0.17,5.859-2.509,6.418-5.659l4.039-22.665l2.474-4.328L46.551,423.695z"/>
<path style="fill:#03E59A;" d="M26.005,446.498c0.56-3.149,3.219-5.499,6.418-5.659l22.985-1.21l2.624-2.624l-11.482-13.31
	l-3.538,3.538l-22.985,1.21c-3.199,0.16-5.859,2.509-6.418,5.659l-5.999,33.682c-0.78,4.359,2.709,8.308,7.128,8.078l6.094-0.321
	L26.005,446.498z"/>
<polygon style="fill:#CEC1E7;" points="502.415,37.984 455.586,79.335 455.446,79.455 439.009,131.982 444.848,144.679 
	445.928,145.909 479.43,183.84 479.954,184.473 480.33,184.86 504.504,36.135 "/>
<path style="fill:#BDACE5;" d="M353.929,41.733l0.51,0.611l0.66,0.719l33.972,38.461l0.34,0.39c0,0,2.705,2.676,3.097,2.676
	s52.455,5.207,52.455,5.207l10.482-10.344l0.14-0.12l46.829-41.35l1.131-0.958l0.959-0.892L353.929,41.733z"/>
<path style="fill:#F8D46E;" d="M232.058,380.124c3.769,0.39,5.269,5.069,2.429,7.578l-21.135,18.666
	c-6.848,6.049-17.306,5.399-23.355-1.45L99.669,302.642c-6.059-6.848-5.409-17.306,1.44-23.355l20.975-18.526
	c2.869-2.529,7.368-0.4,7.228,3.409l-0.75,20.635l82.221,93.108L232.058,380.124z"/>
<path style="fill:#F7C852;" d="M119.285,307.477c-6.059-6.848-5.409-17.306,1.44-23.355l8.123-7.175l0.464-12.776
	c0.14-3.809-4.359-5.939-7.228-3.409l-20.975,18.526c-6.848,6.049-7.498,16.506-1.44,23.355l90.329,102.276
	c4.884,5.53,12.64,7.012,19.053,4.197L119.285,307.477z"/>
<rect x="88.084" y="369.478" transform="matrix(0.7495 -0.662 0.662 0.7495 -233.2354 164.9638)" style="fill:#32314B;" width="26.555" height="42.39"/>
<rect x="81.187" y="372.071" transform="matrix(0.7495 -0.662 0.662 0.7495 -229.7678 158.4322)" style="fill:#27273D;" width="26.555" height="21.507"/>
<path style="fill:#32314B;" d="M57.479,401.159l28.063,31.773l-17.956,15.856c-1.72,1.51-4.339,1.35-5.859-0.36l-2.369-2.689
	l-16.346-18.506l-3.849-4.369c-1.52-1.71-1.35-4.329,0.36-5.849L57.479,401.159z"/>
<path style="fill:#27273D;" d="M53.296,438.875l6.063,6.864l2.336,2.652l0.033,0.037c0.197,0.221,0.412,0.415,0.642,0.583
	c0.034,0.025,0.072,0.041,0.107,0.065c0.203,0.139,0.411,0.267,0.631,0.366c0.015,0.007,0.031,0.01,0.046,0.016
	c0.502,0.219,1.04,0.339,1.583,0.352l0,0l-10.336-11.709c-1.52-1.71-1.35-4.329,0.36-5.849l16.956-14.974L57.48,401.16
	l-17.329,15.302l-0.627,0.554c-0.427,0.38-0.759,0.829-0.991,1.315c-0.116,0.243-0.208,0.495-0.275,0.753s-0.109,0.521-0.125,0.786
	c-0.066,1.059,0.271,2.14,1.031,2.995L53.296,438.875z"/>
<polygon style="fill:#00F4CB;" points="455.446,79.455 444.848,144.679 378.814,147.139 389.411,81.914 "/>
<path style="fill:#03E59A;" d="M418.659,101.007l33.488-1.247l3.299-20.305l-66.035,2.459l-10.598,65.225l23.27-0.867l5.81-35.757
	C408.759,105.187,413.264,101.207,418.659,101.007z"/>
<path d="M510.121,31.171c-1.487-1.685-3.663-2.627-5.898-2.529L353.65,34.24c-3.569,0.132-6.55,2.764-7.122,6.291l-2.323,14.291
	c-8.712,53.613-35.931,102.942-76.644,138.897L149.893,297.634l-13.73-15.546l0.641-17.64c0.172-4.738-2.486-9.11-6.772-11.138
	c-4.286-2.027-9.352-1.31-12.907,1.83l-20.974,18.525c-4.814,4.251-7.685,10.124-8.082,16.534
	c-0.397,6.41,1.725,12.592,5.977,17.407l12.948,14.661l-9.074,33.177l0,0c-0.001,0.001,0.001-0.001,0,0s0.001-0.001,0,0l0,0
	c-0.001,0.001,0.002-0.002,0.001-0.001s0,0-0.001,0.001l-63.355,55.951c-0.001,0.001,0,0-0.001,0.001s0.002-0.002,0.001-0.001l0,0
	c-2.332,2.06-3.723,4.903-3.915,8.008c-0.02,0.325-0.019,0.648-0.013,0.97l-11.004,0.579c-6.71,0.352-12.221,5.218-13.401,11.834
	l-6.005,33.68c-0.774,4.344,0.457,8.733,3.377,12.04c2.75,3.114,6.637,4.861,10.762,4.861c0.255,0,0.512-0.007,0.77-0.02
	L49.3,481.55c6.709-0.353,12.22-5.219,13.4-11.834l2.209-12.394c2.82-0.012,5.508-1.031,7.641-2.914l0,0l0,0l-0.144-0.585
	l63.499-55.368l0,0c0,0-0.001,0,0,0l0,0c0,0-5.592,4.938-5.591,4.938l5.591-4.938l0,0l34.044-4.903l14.425,16.333
	c4.746,5.374,11.375,8.117,18.038,8.117c5.659,0,11.339-1.981,15.904-6.012l21.136-18.668c3.524-3.111,4.874-8.015,3.44-12.492
	c-1.435-4.478-5.383-7.684-10.06-8.169l-18.361-1.905l-13.301-15.06l26.271-23.202c3.103-2.741,3.397-7.479,0.657-10.584
	c-2.741-3.103-7.48-3.397-10.584-0.657l-26.271,23.201l-10.747-12.17l131.232-115.899c3.103-2.741,3.397-7.479,0.656-10.584
	c-2.741-3.103-7.477-3.398-10.584-0.657L170.569,321.045l-10.747-12.17l117.664-103.917c42.966-37.946,71.792-89.897,81.29-146.408
	l22.666,25.664l-9.6,59.074l-48.302,42.658c-3.103,2.741-3.397,7.479-0.656,10.584c1.482,1.678,3.547,2.534,5.623,2.534
	c1.764,0,3.534-0.619,4.961-1.878l48.303-42.659l59.806-2.223l22.668,25.666c-57.252,2.439-112.368,24.622-155.334,62.568
	L239.997,301.4c-3.103,2.741-3.397,7.479-0.657,10.584c2.741,3.103,7.478,3.397,10.584,0.657l68.914-60.861
	c40.712-35.956,93.027-56.869,147.305-58.887l14.469-0.538c3.569-0.132,6.55-2.764,7.123-6.291l24.169-148.727
	C512.262,35.119,511.609,32.855,510.121,31.171z M106.104,404.766l-18.132-20.531l8.663-7.651l18.132,20.531L106.104,404.766z
	 M86.199,422.345l-18.132-20.531l8.663-7.651l18.132,20.531L86.199,422.345z M48.021,466.6l-32.894,1.729l5.782-32.428l18.884-0.993
	l11.547,13.075L48.021,466.6z M65.134,440.948l-18.132-20.531l9.824-8.676l18.132,20.531L65.134,440.948z M122.942,289.771
	c0.001,0.001-0.003-0.003-0.001-0.001C122.942,289.771,122.941,289.77,122.942,289.771l82.227,93.105
	c1.246,1.41,2.975,2.3,4.847,2.494l14.127,1.466l-15.753,13.914c-3.74,3.303-9.471,2.948-12.774-0.793l-17.154-19.424
	c-0.008-0.009-0.016-0.018-0.024-0.027l-22.788-25.802c-2.742-3.103-7.479-3.398-10.584-0.657
	c-3.103,2.741-3.397,7.479-0.657,10.584l13.67,15.478l-26.527,3.82c-1.447,0.208-2.8,0.834-3.895,1.802l-1.649,1.457l-18.132-20.531
	l1.649-1.457c1.095-0.967,1.884-2.232,2.269-3.642l7.07-25.851l5.658,6.406c2.741,3.103,7.478,3.397,10.584,0.657
	c3.103-2.741,3.397-7.479,0.657-10.584l-30.475-34.507c-0.001-0.001,0,0-0.001-0.001l0,0c-1.601-1.812-2.398-4.138-2.249-6.55
	c0.149-2.412,1.23-4.622,3.041-6.223l15.474-13.666l-0.483,13.297C120.998,286.456,121.669,288.33,122.942,289.771 M452.488,72.066
	l-59.806,2.223l-22.655-25.651l113.778-4.23L452.488,72.066z M387.684,139.303l8.145-50.124l50.746-1.887l-8.145,50.123
	L387.684,139.303z M475.47,168.03l-22.654-25.65l9.601-59.074l31.316-27.657L475.47,168.03z"/>
<g>
</g>
<g>
</g>
<g>
</g>
<g>
</g>
<g>
</g>
<g>
</g>
<g>
</g>
<g>
</g>
<g>
</g>
<g>
</g>
<g>
</g>
<g>
</g>
<g>
</g>
<g>
</g>
<g>
</g>
</svg>
