<?xml version="1.0" encoding="iso-8859-1"?>
<!-- Generator: Adobe Illustrator 21.0.0, SVG Export Plug-In . SVG Version: 6.00 Build 0)  -->
<svg version="1.1" id="Capa_1" xmlns="http://www.w3.org/2000/svg" xmlns:xlink="http://www.w3.org/1999/xlink" x="0px" y="0px"
	 viewBox="0 0 512 512" style="enable-background:new 0 0 512 512;" xml:space="preserve">
<path style="fill:#F8D46E;" d="M45.625,426.543l-2.627,1.792l-23.035,1.272c-3.206,0.18-5.862,2.535-6.413,5.691l-5.922,33.776
	c-0.772,4.379,2.735,8.326,7.164,8.076l34.247-1.894c3.196-0.17,5.851-2.535,6.403-5.691l3.988-22.725l2.432-1.998L45.625,426.543z"
	/>
<path style="fill:#F7C852;" d="M26.845,450.439c0.551-3.156,3.206-5.511,6.413-5.691l23.035-1.272l2.627-1.792l2.861,3.224
	l0.08-0.066l-16.236-18.3l-2.627,1.792l-23.035,1.272c-3.206,0.18-5.862,2.535-6.413,5.691l-5.922,33.776
	c-0.772,4.379,2.735,8.326,7.164,8.076l7.442-0.412L26.845,450.439z"/>
<path style="fill:#AB9DD6;" d="M115.426,319.874l58.359,66.218l-41.097,6.032L67.66,449.877c-1.713,1.523-4.339,1.363-5.862-0.351
	l-22.695-25.55c-1.523-1.723-1.373-4.349,0.351-5.872l65.028-57.753L115.426,319.874z"/>
<path style="fill:#A095CE;" d="M55.628,440.499c-1.523-1.723-1.373-4.349,0.351-5.872l65.028-57.753l10.484-38.774l-16.064-18.226
	l-10.943,40.477l-65.028,57.753c-1.723,1.523-1.874,4.148-0.351,5.872l22.695,25.55c0.813,0.915,1.94,1.372,3.074,1.382
	L55.628,440.499z"/>
<path style="fill:#00F4CB;" d="M474.708,462.947c-0.169-3.199-2.525-5.854-5.686-6.417l-22.719-4.016l-3.085-2.062l-16.535,15.709
	l1.095,2.762l1.244,23.038c0.17,3.199,2.524,5.865,5.677,6.416l33.775,5.972c4.367,0.778,8.32-2.722,8.078-7.162L474.708,462.947z"
	/>
<path style="fill:#03E59A;" d="M447.542,487.44c-3.153-0.551-5.507-3.215-5.677-6.416l-1.244-23.038l-1.095-2.762l4.473-4.249
	l-0.78-0.521l-16.535,15.709l1.095,2.762l1.244,23.038c0.17,3.199,2.524,5.865,5.677,6.416l33.775,5.972
	c4.367,0.778,8.32-2.722,8.078-7.162l-0.252-4.664L447.542,487.44z"/>
<path style="fill:#AB9DD6;" d="M387.16,334.856l-67.957,59.469l42.378,11.523l57.661,65.109c1.519,1.716,4.144,1.872,5.862,0.352
	l25.585-22.655c1.718-1.529,1.883-4.153,0.354-5.871l-57.661-65.109L387.16,334.856z"/>
<path style="fill:#A095CE;" d="M439.472,456.94c-1.716,1.519-4.343,1.365-5.862-0.353l-57.661-65.109l-40.814-11.098l-15.932,13.942
	l42.378,11.523l57.661,65.109c1.519,1.716,4.144,1.871,5.862,0.352l25.584-22.655c0.863-0.767,1.333-1.813,1.394-2.879
	L439.472,456.94z"/>
<path style="fill:#EDE6F5;" d="M35.43,15.124l5.509,142.707l14.326,2.3c55.608,8.963,106.41,36.895,143.761,79.073l109.309,123.419
	l46.868-41.52L245.895,197.684c-37.342-42.167-58.943-95.973-61.11-152.265l-0.566-14.499L43.228,8.217
	C39.031,7.542,35.267,10.877,35.43,15.124z"/>
<path style="fill:#E1D8EF;" d="M146.444,133.066l0.235-0.193l37.547-101.841l-0.007-0.112L43.228,8.217
	c-4.197-0.675-7.962,2.659-7.797,6.907l5.454,141.237l105.594-23.25L146.444,133.066z"/>
<path style="fill:#CEC1E7;" d="M146.679,132.873l-0.235,0.193l0.035,0.044L40.885,156.361l0.055,1.47l14.326,2.3
	c55.608,8.963,106.41,36.895,143.761,79.073l11.389,12.865l41.52,46.868l56.4,63.686l23.44-20.764l-121.34-136.998l-19.28-21.768
	L146.679,132.873z"/>
<path style="fill:#00F4CB;" d="M284.232,383.002c-6.857,6.078-7.493,16.557-1.415,23.415l18.595,20.999
	c2.541,2.869,7.271,1.299,7.609-2.516l1.774-20.616l93.213-82.547l21.426,0.409c3.795,0.073,5.868-4.401,3.345-7.247l-18.738-21.158
	c-6.078-6.857-16.557-7.493-23.413-1.425L284.232,383.002z"/>
<path style="fill:#03E59A;" d="M298.893,410.519c-6.078-6.857-5.442-17.337,1.415-23.415l102.397-90.686
	c1.937-1.714,4.167-2.875,6.502-3.529c-6.166-6.033-16.022-6.374-22.577-0.573l-102.397,90.686
	c-6.857,6.078-7.493,16.557-1.415,23.415l18.595,20.999c2.541,2.87,7.271,1.299,7.609-2.515l0.23-2.682L298.893,410.519z"/>
<rect x="371.474" y="395.695" transform="matrix(0.7487 -0.6629 0.6629 0.7487 -172.4417 363.113)" style="fill:#4F4F74;" width="42.483" height="26.615"/>
<rect x="374.279" y="403.023" transform="matrix(0.7486 -0.663 0.663 0.7486 -179.3923 359.5347)" style="fill:#27273D;" width="20.282" height="26.615"/>
<path style="fill:#4F4F74;" d="M435.095,424.805l-31.798,28.165l15.92,17.982c1.519,1.716,4.144,1.872,5.862,0.352l21.224-18.79
	l4.361-3.866c1.718-1.529,1.883-4.153,0.354-5.872L435.095,424.805z"/>
<path style="fill:#27273D;" d="M439.472,456.94c-1.716,1.519-4.343,1.365-5.862-0.353l-15.122-17.075l-15.183,13.447l15.936,17.994
	c0.754,0.853,1.782,1.319,2.837,1.387c1.059,0.062,2.143-0.279,3-1.037l21.224-18.79l4.361-3.866
	c0.856-0.762,1.325-1.794,1.393-2.853L439.472,456.94z"/>
<g>
	<path style="fill:#EDE6F5;" d="M503.89,38.764l-23.224,145.43l-14.498,0.571c-56.28,2.254-110.056,23.917-152.179,61.33
		L190.718,355.571l-41.572-46.822l123.272-109.475c42.113-37.403,69.987-88.243,78.865-143.872l2.295-14.328l147.15-5.872
		C502.669,35.124,504.197,36.845,503.89,38.764z"/>
	<path style="fill:#EDE6F5;" d="M503.89,38.764l-23.224,145.43l-14.498,0.571c-56.28,2.254-110.056,23.917-152.179,61.33
		L189.682,356.652l-41.612-46.891l124.348-110.486c42.113-37.403,69.987-88.243,78.865-143.872l2.295-14.328l147.15-5.872
		C502.669,35.124,504.197,36.845,503.89,38.764z"/>
</g>
<path style="fill:#E1D8EF;" d="M378.877,147.002l-0.21-0.22L353.557,41.184l0.02-0.11l147.15-5.872
	c1.943-0.077,3.47,1.642,3.163,3.563l-22.993,143.978l-102.06-35.7L378.877,147.002z"/>
<path style="fill:#CEC1E7;" d="M378.667,146.781l0.21,0.22l-0.04,0.04l102.06,35.7l-0.23,1.453l-14.498,0.571
	c-56.28,2.254-110.056,23.917-152.179,61.33l-12.845,11.412l-46.822,41.572l-63.605,56.491l-20.791-23.416l136.839-121.519
	l21.743-19.308L378.667,146.781z"/>
<path style="fill:#F8D46E;" d="M219.093,387.935c6.082,6.853,5.461,17.334-1.393,23.416l-20.971,18.627
	c-2.866,2.545-7.374,0.421-7.254-3.407l0.701-20.681l-82.682-93.093l-21.322-2.154c-3.777-0.381-5.3-5.07-2.455-7.595l21.131-18.767
	c6.853-6.082,17.334-5.461,23.416,1.383L219.093,387.935z"/>
<path style="fill:#F7C852;" d="M98.919,311.931l9.328-8.284c6.853-6.082,17.334-5.461,23.416,1.383l89.908,101.235
	c2.883-5.866,2.13-13.138-2.477-18.33l-90.828-102.271c-6.082-6.843-16.563-7.465-23.416-1.383l-21.131,18.767
	c-2.846,2.525-1.323,7.214,2.455,7.595L98.919,311.931z"/>
<rect x="88.068" y="370.289" transform="matrix(0.7476 -0.6641 0.6641 0.7476 -234.4388 166.1378)" style="fill:#4F4F74;" width="26.614" height="42.482"/>
<rect x="81.721" y="372.729" transform="matrix(0.7477 -0.6641 0.6641 0.7477 -231.2792 160.0984)" style="fill:#27273D;" width="26.616" height="23.309"/>
<path style="fill:#4F4F74;" d="M57.436,402.163l28.205,31.762l-17.955,15.951c-1.713,1.523-4.339,1.363-5.861-0.351l-18.827-21.192
	l-3.868-4.359c-1.523-1.723-1.373-4.349,0.351-5.872L57.436,402.163z"/>
<path style="fill:#27273D;" d="M72.91,419.589l-15.475-17.426L39.48,418.104c-1.723,1.523-1.874,4.148-0.351,5.872l3.868,4.359
	l18.827,21.192c0.35,0.394,0.763,0.695,1.205,0.924c0.045,0.022,0.085,0.054,0.13,0.074c0.104,0.049,0.216,0.077,0.324,0.117
	c0.172,0.062,0.343,0.128,0.521,0.166c0.034,0.008,0.068,0.009,0.102,0.016c0.252,0.048,0.509,0.081,0.766,0.083l-9.245-10.408
	c-1.523-1.723-1.373-4.349,0.351-5.872L72.91,419.589z"/>
<path d="M510.105,30.059c-1.495-1.684-3.651-2.606-5.919-2.519l-149.312,5.964c-1.005-0.189-2.065-0.18-3.125,0.072
	c-3.496,0.832-5.83,3.981-5.772,7.432l-2.11,13.214c-8.585,53.764-35.732,103.282-76.441,139.434l-7.232,6.423l-6.269-7.059
	c-13.796-15.534-25.502-32.865-34.794-51.509c-1.852-3.714-6.362-5.224-10.079-3.374c-3.714,1.852-5.225,6.363-3.374,10.078
	c9.883,19.829,22.335,38.261,37.01,54.785l6.268,7.058l-11.922,10.588l-79.336-88.853l23.277-66.535
	c2.162,18.524,6.38,36.757,12.604,54.412c1.38,3.914,5.669,5.97,9.586,4.589c3.914-1.38,5.968-5.672,4.588-9.586
	c-7.856-22.285-12.317-45.547-13.259-69.141l-0.579-14.5c-0.134-3.367-2.487-6.203-5.711-6.996c-0.217-0.1-0.441-0.193-0.672-0.274
	c-1.074-0.377-2.174-0.486-3.235-0.378L38.448,0.094c-2.227-0.356-4.49,0.307-6.175,1.802c-1.684,1.496-2.609,3.668-2.519,5.919
	l5.964,149.316c-0.189,1.005-0.18,2.062,0.071,3.121c0.831,3.492,3.974,5.824,7.422,5.771l13.226,2.112
	c53.763,8.585,103.281,35.732,139.434,76.441l6.268,7.058l-52.579,46.694l-15.676-17.652c-8.825-9.936-24.087-10.84-34.025-2.017
	l-21.135,18.77c-3.524,3.129-4.863,8.048-3.412,12.532c1.45,4.483,5.416,7.685,10.104,8.158h-0.001l18.41,1.859l2.926,3.294
	l-8.917,32.954l-5.588,4.963c0,0-0.001,0.001-0.002,0.001c-0.001,0-0.001,0.001-0.002,0.002l-39.797,35.344
	c-0.001,0.001-0.003,0.002-0.004,0.003c-0.001,0.001-0.003,0.003-0.004,0.004l-17.95,15.941c-2.332,2.07-3.717,4.925-3.902,8.037
	c-0.019,0.326-0.017,0.649-0.01,0.972l-11.031,0.61c-6.725,0.373-12.234,5.265-13.397,11.898l-5.926,33.774
	c-0.766,4.357,0.48,8.751,3.417,12.059c2.756,3.105,6.641,4.844,10.76,4.842c0.27,0,0.54-0.007,0.812-0.022l34.239-1.894
	c6.724-0.373,12.233-5.265,13.396-11.898l2.181-12.431c2.827-0.02,5.519-1.047,7.651-2.942l17.948-15.939
	c0.002-0.002,0.005-0.004,0.007-0.006c0.002-0.002,0.004-0.004,0.006-0.006l19.884-17.659c0.004-0.003,0.008-0.006,0.012-0.01
	c0.003-0.003,0.006-0.007,0.01-0.01l25.481-22.629l33.776-4.96l12.757,14.365l-0.594,17.684c-0.158,4.749,2.518,9.124,6.82,11.145
	c1.614,0.757,3.337,1.128,5.048,1.128c2.849,0,5.662-1.026,7.881-2.998l20.973-18.626c9.936-8.824,10.841-24.088,2.017-34.025
	l-23.59-26.563l14.063-12.488c3.103-2.755,3.385-7.506,0.629-10.609c-2.755-3.103-7.505-3.385-10.61-0.629l-13.85,12.3
	l-10.808-12.171l131.222-116.529c3.103-2.755,3.385-7.506,0.628-10.609c-2.754-3.102-7.504-3.386-10.609-0.629L170.56,321.549
	l-10.808-12.17l57.977-51.487c0.003-0.003,0.007-0.005,0.01-0.008c0.003-0.003,0.006-0.006,0.009-0.009l46.802-41.564
	c0.002-0.002,0.004-0.003,0.006-0.005c0.002-0.001,0.003-0.003,0.005-0.005l12.845-11.407
	c37.978-33.728,64.855-78.395,77.049-127.451l15.861,66.709l-46.801,41.562c-3.103,2.755-3.385,7.506-0.628,10.609
	c1.484,1.672,3.548,2.525,5.621,2.525c1.774,0,3.556-0.625,4.988-1.896l46.7-41.472l66.588,23.295
	c-50.932,5.97-99.268,27.497-137.781,61.698l-81.316,72.215c-3.103,2.755-3.385,7.506-0.628,10.609
	c2.755,3.103,7.504,3.387,10.609,0.629l16.03-14.236l46.847,52.752l-17.652,15.676c-4.813,4.275-7.674,10.168-8.055,16.595
	c-0.382,6.427,1.763,12.617,6.038,17.43l18.769,21.135c2.292,2.58,5.542,3.989,8.878,3.989c1.22,0,2.452-0.188,3.653-0.577
	c4.484-1.45,7.685-5.417,8.158-10.105l1.859-18.408l3.294-2.926l32.954,8.914l56.259,63.35c2.07,2.331,4.924,3.715,8.036,3.9
	c0.236,0.014,0.472,0.021,0.705,0.021c0.09,0,0.178-0.01,0.268-0.012l0.61,11.033c0.372,6.724,5.265,12.233,11.898,13.397
	l33.774,5.927c0.842,0.147,1.683,0.22,2.519,0.22c3.494,0,6.871-1.27,9.541-3.64c3.306-2.937,5.063-7.154,4.818-11.57l-1.894-34.239
	c-0.372-6.723-5.264-12.233-11.898-13.397l-12.445-2.183c-0.022-2.725-0.98-5.455-2.927-7.648l-51.294-57.759l0,0l0,0l-4.965-5.591
	l-4.959-33.777l14.364-12.757l17.682,0.594c4.771,0.181,9.124-2.516,11.145-6.818s1.288-9.377-1.869-12.93l-18.626-20.974
	c-8.825-9.936-24.087-10.84-34.025-2.017l-26.564,23.591l-46.847-52.752l7.232-6.423c40.708-36.152,93.087-57.258,147.488-59.432
	l14.501-0.579c3.401-0.135,6.256-2.537,7.015-5.81c0.085-0.19,0.182-0.372,0.253-0.573c0.376-1.072,0.485-2.171,0.378-3.231
	l23.29-145.849C512.262,34.01,511.601,31.744,510.105,30.059z M106.175,405.645l-18.233-20.53l8.665-7.695l18.233,20.53
	L106.175,405.645z M86.273,423.319l-18.233-20.53l8.665-7.695l18.233,20.53L86.273,423.319z M48.128,467.783l-32.968,1.824
	l5.706-32.522l18.927-1.047l11.611,13.075L48.128,467.783z M65.21,442.023l-18.233-20.53l9.825-8.725l18.233,20.53L65.21,442.023z
	 M131.624,384.689c-1.448,0.212-2.803,0.844-3.899,1.817l-1.649,1.465l-18.233-20.53l1.649-1.465
	c1.095-0.972,1.882-2.243,2.263-3.656l6.929-25.606l39.185,44.124L131.624,384.689z M212.71,405.735l-15.473,13.742l0.448-13.332
	c0.064-1.926-0.612-3.801-1.893-5.242l-82.676-93.096c-1.251-1.41-2.987-2.298-4.864-2.487l-14.168-1.431l15.755-13.99
	c3.738-3.32,9.484-2.982,12.807,0.758l90.822,102.27C216.791,396.667,216.45,402.413,212.71,405.735z M174.901,37.103
	l-28.622,81.813l-27.7-29.843c-2.823-3.043-7.578-3.219-10.621-0.396c-3.041,2.824-3.218,7.578-0.396,10.62l27.499,29.627
	l-84.625,20.12L45.138,16.382L174.901,37.103z M207.107,234.597c-33.728-37.98-78.395-64.856-127.452-77.05l66.723-15.864
	l79.417,88.944l-12.419,11.029L207.107,234.597z M277.104,288.9l46.66,52.54l-12.171,10.809l-46.66-52.54L277.104,288.9z
	 M407.859,405.826l-20.531,18.233l-7.694-8.664l20.531-18.234L407.859,405.826z M425.533,425.728l-20.53,18.233l-7.694-8.664
	l20.531-18.233L425.533,425.728z M471.82,496.842l-32.522-5.706l-1.047-18.927l13.075-11.611l18.671,3.275L471.82,496.842z
	 M423.707,465.023l-8.725-9.824l20.53-18.233l8.725,9.824L423.707,465.023z M386.903,380.377c0.213,1.449,0.845,2.803,1.817,3.899
	l1.465,1.649l-20.531,18.234l-1.465-1.649c-0.972-1.095-2.242-1.882-3.655-2.264l-25.607-6.928l44.124-39.186L386.903,380.377z
	 M395.141,298.531c1.725-1.532,3.875-2.284,6.019-2.284c2.504,0,4.998,1.028,6.788,3.044l13.742,15.474l-13.332-0.448
	c-1.919-0.07-3.801,0.612-5.242,1.892l-93.096,82.676c-1.409,1.252-2.297,2.988-2.486,4.864l-1.431,14.167l-13.991-15.755
	c-1.608-1.812-2.416-4.141-2.272-6.56c0.143-2.419,1.22-4.637,3.032-6.246L395.141,298.531z M347.171,320.653l-12.17,10.808
	l-46.66-52.54l12.171-10.808L347.171,320.653z M474.899,172.687l-81.814-28.622l29.844-27.7c3.041-2.824,3.218-7.578,0.396-10.62
	c-2.824-3.043-7.578-3.219-10.621-0.396l-29.626,27.499l-20.121-84.625l132.662-5.298L474.899,172.687z"/>
<path d="M438.811,99.274c1.692,0,3.395-0.568,4.797-1.734l22.996-19.103c3.193-2.652,3.631-7.39,0.98-10.583
	c-2.652-3.193-7.391-3.631-10.583-0.979l-22.996,19.104c-3.193,2.652-3.631,7.39-0.98,10.583
	C434.512,98.35,436.653,99.274,438.811,99.274z"/>
<path d="M69.089,55l19.103,22.996c1.486,1.79,3.627,2.713,5.784,2.713c1.692,0,3.395-0.568,4.797-1.734
	c3.193-2.652,3.631-7.39,0.98-10.583L80.651,45.396c-2.652-3.193-7.392-3.631-10.583-0.979C66.876,47.071,66.438,51.808,69.089,55z"
	/>
<g>
</g>
<g>
</g>
<g>
</g>
<g>
</g>
<g>
</g>
<g>
</g>
<g>
</g>
<g>
</g>
<g>
</g>
<g>
</g>
<g>
</g>
<g>
</g>
<g>
</g>
<g>
</g>
<g>
</g>
</svg>
