<?xml version="1.0" encoding="iso-8859-1"?>
<!-- Generator: Adobe Illustrator 21.0.0, SVG Export Plug-In . SVG Version: 6.00 Build 0)  -->
<svg version="1.1" id="Capa_1" xmlns="http://www.w3.org/2000/svg" xmlns:xlink="http://www.w3.org/1999/xlink" x="0px" y="0px"
	 viewBox="0 0 512 512" style="enable-background:new 0 0 512 512;" xml:space="preserve">
<g>
	<path style="fill:#FFB90B;" d="M222.74,125.26c-8.51-8.5-20.26-13.76-33.24-13.76H164v124h25.5c25.96,0,47-21.04,47-47v-30
		C236.5,145.52,231.24,133.77,222.74,125.26z"/>
	<path style="fill:#FFB90B;" d="M380.49,21.26c-8.51-8.5-20.26-13.76-33.24-13.76h-25.5v124h25.5c25.96,0,47-21.04,47-47v-30
		C394.25,41.52,388.99,29.77,380.49,21.26z"/>
</g>
<g>
	<path style="fill:#FFEA6E;" d="M369,54.5v30c0,25.96-21.04,47-47,47s-47-21.04-47-47v-30c0-25.96,21.04-47,47-47
		c12.98,0,24.73,5.26,33.24,13.76C363.74,29.77,369,41.52,369,54.5z"/>
	<path style="fill:#FFEA6E;" d="M211,158.5v30c0,25.96-21.04,47-47,47s-47-21.04-47-47v-30c0-25.96,21.04-47,47-47
		c12.98,0,24.73,5.26,33.24,13.76C205.74,133.77,211,145.52,211,158.5z"/>
</g>
<g>
	<path style="fill:#F9DF5D;" d="M338.5,116.758c-25.96,0-47-21.04-47-47v-30c0-9.922,3.081-19.12,8.329-26.705
		C285.052,20.973,275,36.559,275,54.5v30c0,25.96,21.04,47,47,47c16.038,0,30.19-8.036,38.671-20.295
		C354.066,114.745,346.52,116.758,338.5,116.758z"/>
	<path style="fill:#F9DF5D;" d="M180.5,220.758c-25.96,0-47-21.04-47-47v-30c0-9.922,3.081-19.12,8.329-26.705
		C127.052,124.973,117,140.559,117,158.5v30c0,25.96,21.04,47,47,47c16.038,0,30.19-8.036,38.671-20.295
		C196.066,218.745,188.519,220.758,180.5,220.758z"/>
</g>
<path style="fill:#EE8E3E;" d="M400,277.72v208.56c0,10.06-8.16,18.22-18.22,18.22H130.22c-10.06,0-18.22-8.16-18.22-18.22V277.72
	c0-10.06,8.16-18.22,18.22-18.22h251.56C391.84,259.5,400,267.66,400,277.72z"/>
<path style="fill:#EA8032;" d="M172.475,467c-10.06,0-18.22-8.16-18.22-18.22V259.5H130.22c-10.06,0-18.22,8.16-18.22,18.22v208.56
	c0,10.06,8.16,18.22,18.22,18.22h251.56c10.06,0,18.22-8.16,18.22-18.22V467H172.475z"/>
<path style="fill:#F8D46E;" d="M370,295.491V468.51c0,3.309-2.682,5.991-5.991,5.991H147.991c-3.309,0-5.991-2.682-5.991-5.991
	V295.491c0-3.309,2.682-5.991,5.991-5.991H364.01C367.318,289.5,370,292.182,370,295.491z"/>
<path style="fill:#F9BD38;" d="M247.638,455.685c-46.211,0-83.673-37.462-83.673-83.673V289.5h-15.974
	c-3.309,0-5.991,2.682-5.991,5.991V468.51c0,3.309,2.682,5.991,5.991,5.991H364.01c3.309,0,5.991-2.682,5.991-5.991v-12.824H247.638
	V455.685z"/>
<g>
	<path style="fill:#E0B13B;" d="M310.5,326.26v46.53c0,4.3-2.37,8.25-6.17,10.27l-35.88,19.09v6.5c0,1.7-1.38,3.09-3.09,3.09h-17.09
		c-1.7,0-3.09-1.39-3.09-3.09v-13.49c0-4.3,2.38-8.25,6.17-10.27l35.89-19.09v-27.91h-55.48v17.67c0,1.61-1.3,2.91-2.91,2.91h-17.44
		c-1.61,0-2.91-1.3-2.91-2.91v-29.3c0-6.42,5.21-11.63,11.63-11.63h78.74C305.29,314.63,310.5,319.84,310.5,326.26z"/>
	<path style="fill:#E0B13B;" d="M268.5,436.33v15.34c0,2.39-1.94,4.33-4.34,4.33h-14.63c-2.4,0-4.35-1.94-4.35-4.33v-15.34
		c0-2.39,1.95-4.33,4.35-4.33h14.63C266.56,432,268.5,433.94,268.5,436.33z"/>
</g>
<g>
	<path style="fill:#EE8E3E;" d="M178,157v35c0,7.73-6.27,14-14,14s-14-6.27-14-14v-35c0-7.73,6.27-14,14-14
		c3.86,0,7.36,1.57,9.9,4.1C176.43,149.64,178,153.14,178,157z"/>
	<path style="fill:#EE8E3E;" d="M336,53v35c0,7.73-6.27,14-14,14s-14-6.27-14-14V53c0-7.73,6.27-14,14-14c3.86,0,7.36,1.57,9.9,4.1
		C334.43,45.64,336,49.14,336,53z"/>
</g>
<path style="fill:#7CCAFD;" d="M188.98,48.85c2.27,1.12,1.91,4.43-0.51,5.16c-9.94,3.03-17,10.1-21.01,21.47
	c-0.84,2.38-4.23,2.46-5.18,0.12c-4.14-10.31-11.89-17.17-22.75-21.08c-2.31-0.83-2.51-4.02-0.31-5.1
	c10.21-5.01,17.98-12.53,22.96-22.95c1.02-2.14,4.13-2.05,5.04,0.14C171.32,36.48,178.69,43.81,188.98,48.85z"/>
<path d="M381.783,252H130.218c-14.181,0-25.718,11.537-25.718,25.718v208.564c0,14.181,11.537,25.718,25.718,25.718h251.563
	c14.181,0,25.718-11.537,25.718-25.718V277.718C407.5,263.537,395.964,252,381.783,252z M392.5,486.282
	c0,5.91-4.808,10.718-10.718,10.718H130.218c-5.91,0-10.718-4.808-10.718-10.718V277.718c0-5.91,4.808-10.718,10.718-10.718h251.563
	c5.91,0,10.718,4.808,10.718,10.718v208.564H392.5z"/>
<path d="M370,282H142c-4.142,0-7.5,3.357-7.5,7.5v116c0,4.143,3.358,7.5,7.5,7.5s7.5-3.357,7.5-7.5V297h213v170h-213v-31.5
	c0-4.143-3.358-7.5-7.5-7.5s-7.5,3.357-7.5,7.5v39c0,4.143,3.358,7.5,7.5,7.5h228c4.142,0,7.5-3.357,7.5-7.5v-185
	C377.5,285.357,374.142,282,370,282z"/>
<circle cx="347.5" cy="313" r="9"/>
<circle cx="166.5" cy="313" r="9"/>
<circle cx="347.5" cy="451" r="9"/>
<circle cx="166.5" cy="451" r="9"/>
<path d="M275.947,406.651l31.905-16.971c6.259-3.33,10.147-9.802,10.147-16.892v-46.526c0-10.549-8.583-19.131-19.131-19.131
	h-78.737c-10.549,0-19.131,8.582-19.131,19.131v29.302c0,5.739,4.669,10.409,10.409,10.409h17.445c5.74,0,10.409-4.67,10.409-10.409
	v-10.17h40.474v15.901l-31.906,16.972c-6.259,3.329-10.147,9.802-10.147,16.891v13.492c0,5.838,4.749,10.587,10.587,10.587h17.09
	c5.837,0,10.586-4.749,10.586-10.587L275.947,406.651L275.947,406.651z M264.925,395.524c-2.448,1.302-3.978,3.849-3.978,6.621
	v2.092h-8.263v-9.079c0-1.531,0.84-2.929,2.191-3.648l35.883-19.087c2.448-1.302,3.978-3.849,3.978-6.621v-27.907
	c0-4.143-3.358-7.5-7.5-7.5h-55.474c-4.142,0-7.5,3.357-7.5,7.5v13.079H216v-24.711c0-2.277,1.854-4.131,4.131-4.131h78.737
	c2.278,0,4.131,1.854,4.131,4.131v46.526c0,1.531-0.84,2.929-2.191,3.648L264.925,395.524z"/>
<path d="M264.113,424.5h-14.595c-6.525,0-11.834,5.309-11.834,11.834v15.332c0,6.525,5.309,11.834,11.834,11.834h14.595
	c6.525,0,11.834-5.309,11.834-11.834v-15.332C275.947,429.809,270.639,424.5,264.113,424.5z M260.947,448.5h-8.263v-9h8.263V448.5z"
	/>
<path d="M164,243h25c30.051,0,54.5-24.448,54.5-54.5v-30c0-30.052-24.449-54.5-54.5-54.5h-25c-30.051,0-54.5,24.448-54.5,54.5v30
	C109.5,218.552,133.949,243,164,243z M228.5,158.5v30c0,16.228-9.84,30.196-23.863,36.266c8.614-9.642,13.863-22.35,13.863-36.266
	v-30c0-13.916-5.249-26.624-13.863-36.266C218.66,128.304,228.5,142.272,228.5,158.5z M124.5,158.5c0-21.78,17.72-39.5,39.5-39.5
	s39.5,17.72,39.5,39.5v30c0,21.78-17.72,39.5-39.5,39.5s-39.5-17.72-39.5-39.5V158.5z"/>
<path d="M164,213.5c11.855,0,21.5-9.645,21.5-21.5v-35c0-11.855-9.645-21.5-21.5-21.5s-21.5,9.645-21.5,21.5v35
	C142.5,203.855,152.145,213.5,164,213.5z M157.5,157c0-3.584,2.916-6.5,6.5-6.5s6.5,2.916,6.5,6.5v35c0,3.584-2.916,6.5-6.5,6.5
	s-6.5-2.916-6.5-6.5V157z"/>
<path d="M322,139h25c30.051,0,54.5-24.448,54.5-54.5v-30C401.5,24.448,377.051,0,347,0h-25c-30.051,0-54.5,24.448-54.5,54.5v30
	C267.5,114.552,291.949,139,322,139z M282.5,54.5c0-21.78,17.72-39.5,39.5-39.5c19.407,0,36.199,14.448,39.061,33.607
	c0.611,4.097,4.425,6.915,8.525,6.311c4.097-0.612,6.922-4.429,6.31-8.525c-1.612-10.792-6.425-20.498-13.376-28.211
	c14.086,6.043,23.98,20.046,23.98,36.319v30c0,16.228-9.84,30.196-23.863,36.266c8.614-9.642,13.863-22.35,13.863-36.266v-7
	c0-4.143-3.358-7.5-7.5-7.5s-7.5,3.357-7.5,7.5v7c0,21.78-17.72,39.5-39.5,39.5s-39.5-17.72-39.5-39.5V54.5z"/>
<path d="M322,109.5c11.855,0,21.5-9.645,21.5-21.5V53c0-11.855-9.645-21.5-21.5-21.5s-21.5,9.645-21.5,21.5v35
	C300.5,99.855,310.145,109.5,322,109.5z M315.5,53c0-3.584,2.916-6.5,6.5-6.5s6.5,2.916,6.5,6.5v35c0,3.584-2.916,6.5-6.5,6.5
	s-6.5-2.916-6.5-6.5V53z"/>
<path d="M136.996,61.584c9.104,3.271,15.1,8.77,18.329,16.813c1.574,3.919,5.29,6.419,9.51,6.419c0.076,0,0.152-0.001,0.229-0.003
	c4.318-0.092,8.034-2.774,9.466-6.834c3.162-8.96,8.434-14.452,16.119-16.788c4.103-1.248,6.975-4.811,7.318-9.078
	c0.338-4.212-1.895-8.134-5.689-9.994l0,0c-8.862-4.342-14.793-10.356-18.133-18.39c-1.552-3.731-5.172-6.21-9.221-6.313
	c-4.048-0.117-7.778,2.183-9.516,5.823c-4.146,8.683-10.521,15.045-19.49,19.451c-3.707,1.821-5.952,5.661-5.721,9.783
	C130.428,56.607,133.097,60.184,136.996,61.584z M164.491,37.438c3.36,5.136,7.692,9.581,12.965,13.303
	c-5.263,3.182-9.583,7.615-12.93,13.269c-3.573-5.133-8.218-9.349-13.903-12.617C156.119,47.55,160.753,42.886,164.491,37.438z"/>
<g>
</g>
<g>
</g>
<g>
</g>
<g>
</g>
<g>
</g>
<g>
</g>
<g>
</g>
<g>
</g>
<g>
</g>
<g>
</g>
<g>
</g>
<g>
</g>
<g>
</g>
<g>
</g>
<g>
</g>
</svg>
