<?xml version="1.0" encoding="iso-8859-1"?>
<!-- Generator: Adobe Illustrator 21.0.0, SVG Export Plug-In . SVG Version: 6.00 Build 0)  -->
<svg version="1.1" id="Capa_1" xmlns="http://www.w3.org/2000/svg" xmlns:xlink="http://www.w3.org/1999/xlink" x="0px" y="0px"
	 viewBox="0 0 512 512" style="enable-background:new 0 0 512 512;" xml:space="preserve">
<rect x="243" y="117.12" style="fill:#F8D46E;" width="28" height="164.76"/>
<path style="fill:#F7C852;" d="M271,117.119h-14h-14v46.046V281.88h14V177.165c0-7.732,6.268-14,14-14l0,0V117.119z"/>
<path style="fill:#EE8E3E;" d="M400,277.72v208.56c0,10.06-8.16,18.22-18.22,18.22H130.22c-10.06,0-18.22-8.16-18.22-18.22V277.72
	c0-10.06,8.16-18.22,18.22-18.22h251.56C391.84,259.5,400,267.66,400,277.72z"/>
<path style="fill:#EA8032;" d="M169.612,467c-10.06,0-18.22-8.16-18.22-18.22V259.5H130.22c-10.06,0-18.22,8.16-18.22,18.22v208.56
	c0,10.06,8.16,18.22,18.22,18.22h251.56c10.06,0,18.22-8.16,18.22-18.22V467H169.612z"/>
<path style="fill:#F8D46E;" d="M370,295.455v173.09c0,3.289-2.666,5.955-5.955,5.955h-216.09c-3.289,0-5.955-2.666-5.955-5.955
	v-173.09c0-3.289,2.666-5.955,5.955-5.955h216.09C367.335,289.5,370,292.166,370,295.455z"/>
<path style="fill:#F9BD38;" d="M253.131,455.685c-48.674,0-88.131-39.458-88.131-88.131V289.5h-17.045
	c-3.289,0-5.955,2.666-5.955,5.955v173.09c0,3.289,2.666,5.955,5.955,5.955h216.09c3.289,0,5.955-2.666,5.955-5.955v-12.86H253.131z
	"/>
<g>
	<path style="fill:#E0B13B;" d="M310.5,326.26v46.53c0,4.3-2.37,8.25-6.17,10.27l-35.88,19.09v6.5c0,1.7-1.38,3.09-3.09,3.09h-17.09
		c-1.7,0-3.09-1.39-3.09-3.09v-13.49c0-4.3,2.38-8.25,6.17-10.27l35.89-19.09v-27.91h-55.48v17.67c0,1.61-1.3,2.91-2.91,2.91h-17.44
		c-1.61,0-2.91-1.3-2.91-2.91v-29.3c0-6.42,5.21-11.63,11.63-11.63h78.74C305.29,314.63,310.5,319.84,310.5,326.26z"/>
	<path style="fill:#E0B13B;" d="M268.451,436.33v15.34c0,2.39-1.94,4.33-4.34,4.33h-14.59c-2.4,0-4.34-1.94-4.34-4.33v-15.34
		c0-2.39,1.94-4.33,4.34-4.33h14.59C266.51,432,268.451,433.94,268.451,436.33z"/>
</g>
<path style="fill:#FE4583;" d="M313,7.5c36.45,0,66,29.55,66,66c0,18.22-7.39,34.72-19.33,46.67
	c-11.95,11.94-28.45,19.33-46.67,19.33H201c-36.45,0-66-29.55-66-66c0-18.22,7.39-34.72,19.33-46.67
	C166.28,14.89,182.78,7.5,201,7.5H313z"/>
<path style="fill:#FC3268;" d="M340.001,122.5h-112c-36.45,0-66-29.55-66-66c0-17.741,7.02-33.838,18.411-45.705
	c-9.94,3.263-18.848,8.808-26.082,16.035C142.39,38.78,135,55.28,135,73.5c0,36.45,29.55,66,66,66h112
	c18.22,0,34.72-7.39,46.67-19.33c0.314-0.314,0.611-0.644,0.919-0.964C354.108,121.333,347.192,122.5,340.001,122.5z"/>
<path style="fill:#FECF54;" d="M313,38.5c19.3,0,35,15.7,35,35s-15.7,35-35,35H201c-19.3,0-35-15.7-35-35s15.7-35,35-35H313z"/>
<path style="fill:#F9BD38;" d="M322.5,97h-112c-19.3,0-35-15.7-35-35c0-5.763,1.409-11.2,3.886-15.999
	C171.243,52.415,166,62.353,166,73.5c0,19.3,15.7,35,35,35h112c13.537,0,25.294-7.729,31.114-19.001
	C338.158,94.19,330.654,97,322.5,97z"/>
<path style="fill:#4ACE99;" d="M313,85H201c-6.341,0-11.5-5.159-11.5-11.5S194.659,62,201,62h112c6.341,0,11.5,5.159,11.5,11.5
	S319.341,85,313,85z"/>
<g>
	<path style="fill:#B2D66C;" d="M338,209.163v15.577c0,19.197-15.563,34.76-34.76,34.76H271v-19.24
		c0-19.197,15.563-34.76,34.76-34.76h28.577C336.36,205.5,338,207.14,338,209.163z"/>
	<path style="fill:#B2D66C;" d="M243,240.26v19.24h-32.24c-19.197,0-34.76-15.563-34.76-34.76v-15.577
		c0-2.023,1.64-3.663,3.663-3.663h28.577C227.437,205.5,243,221.063,243,240.26z"/>
</g>
<g>
	<path style="fill:#8FD650;" d="M327.76,205.5h-22c-19.197,0-34.76,15.563-34.76,34.76v19.24h22v-19.24
		C293,221.063,308.563,205.5,327.76,205.5z"/>
	<path style="fill:#8FD650;" d="M198,224.74v-15.577c0-2.023,1.64-3.663,3.663-3.663h-22c-2.023,0-3.663,1.64-3.663,3.663v15.577
		c0,19.198,15.563,34.76,34.76,34.76h22C213.563,259.5,198,243.938,198,224.74z"/>
</g>
<path d="M381.783,252h-46.287c6.234-7.365,10.005-16.879,10.005-27.262V205.5c0-4.143-3.358-7.5-7.5-7.5h-32.238
	c-10.383,0-19.897,3.771-27.262,10.005V189.5c0-4.143-3.358-7.5-7.5-7.5s-7.5,3.357-7.5,7.5V252h-13V147h13v12.5
	c0,4.143,3.358,7.5,7.5,7.5s7.5-3.357,7.5-7.5V147H313c40.528,0,73.5-32.972,73.5-73.5S353.529,0,313,0H201
	c-40.528,0-73.5,32.972-73.5,73.5S160.472,147,201,147h34.5v61.005C228.135,201.771,218.621,198,208.238,198H176
	c-4.142,0-7.5,3.357-7.5,7.5v19.238c0,10.382,3.77,19.896,10.005,27.262h-48.287c-14.181,0-25.718,11.537-25.718,25.718v208.564
	c0,14.181,11.537,25.718,25.718,25.718h251.563c14.181,0,25.718-11.537,25.718-25.718V277.718
	C407.5,263.537,395.964,252,381.783,252z M142.5,73.5c0-32.257,26.243-58.5,58.5-58.5h112c32.257,0,58.5,26.243,58.5,58.5
	S345.257,132,313,132H201C168.743,132,142.5,105.757,142.5,73.5z M278.5,240.262c0-15.032,12.229-27.262,27.262-27.262H330.5v11.738
	c0,15.032-12.229,27.262-27.262,27.262H278.5V240.262z M183.5,224.738V213h24.738c15.032,0,27.262,12.229,27.262,27.262V252h-24.738
	C195.729,252,183.5,239.771,183.5,224.738z M392.5,486.282c0,5.91-4.808,10.718-10.718,10.718H130.218
	c-5.91,0-10.718-4.808-10.718-10.718V277.718c0-5.91,4.808-10.718,10.718-10.718h251.563c5.91,0,10.718,4.808,10.718,10.718v208.564
	H392.5z"/>
<path d="M370,282H142c-4.142,0-7.5,3.357-7.5,7.5v115c0,4.143,3.358,7.5,7.5,7.5s7.5-3.357,7.5-7.5V297h213v170h-213v-32.5
	c0-4.143-3.358-7.5-7.5-7.5s-7.5,3.357-7.5,7.5v40c0,4.143,3.358,7.5,7.5,7.5h228c4.142,0,7.5-3.357,7.5-7.5v-185
	C377.5,285.357,374.142,282,370,282z"/>
<circle cx="347.5" cy="313" r="9"/>
<circle cx="166.5" cy="313" r="9"/>
<circle cx="347.5" cy="451" r="9"/>
<circle cx="166.5" cy="451" r="9"/>
<path d="M275.947,406.651l31.905-16.971c6.259-3.33,10.147-9.802,10.147-16.892v-46.526c0-10.549-8.583-19.131-19.131-19.131
	h-78.737c-10.549,0-19.131,8.582-19.131,19.131v29.302c0,5.739,4.669,10.409,10.409,10.409h17.445c5.74,0,10.409-4.67,10.409-10.409
	v-10.17h40.474v15.901l-31.906,16.972c-6.259,3.329-10.147,9.802-10.147,16.891v13.492c0,5.838,4.749,10.587,10.587,10.587h17.09
	c5.837,0,10.586-4.749,10.586-10.587L275.947,406.651L275.947,406.651z M264.925,395.524c-2.448,1.302-3.978,3.849-3.978,6.621
	v2.092h-8.263v-9.079c0-1.531,0.84-2.929,2.191-3.648l35.883-19.087c2.448-1.302,3.978-3.849,3.978-6.621v-27.907
	c0-4.143-3.358-7.5-7.5-7.5h-55.474c-4.142,0-7.5,3.357-7.5,7.5v13.079H216v-24.711c0-2.277,1.854-4.131,4.131-4.131h78.737
	c2.278,0,4.131,1.854,4.131,4.131v46.526c0,1.531-0.84,2.929-2.191,3.648L264.925,395.524z"/>
<path d="M264.113,424.5h-14.595c-6.525,0-11.834,5.309-11.834,11.834v15.332c0,6.525,5.309,11.834,11.834,11.834h14.595
	c6.525,0,11.834-5.309,11.834-11.834v-15.332C275.947,429.809,270.639,424.5,264.113,424.5z M260.947,448.5h-8.263v-9h8.263V448.5z"
	/>
<path d="M355.5,73.5c0-23.435-19.065-42.5-42.5-42.5h-74.25c-4.142,0-7.5,3.357-7.5,7.5s3.358,7.5,7.5,7.5H313
	c15.164,0,27.5,12.337,27.5,27.5S328.164,101,313,101H201c-15.164,0-27.5-12.337-27.5-27.5S185.836,46,201,46h7.75
	c4.142,0,7.5-3.357,7.5-7.5s-3.358-7.5-7.5-7.5H201c-23.435,0-42.5,19.065-42.5,42.5S177.565,116,201,116h112
	C336.435,116,355.5,96.935,355.5,73.5z"/>
<g>
</g>
<g>
</g>
<g>
</g>
<g>
</g>
<g>
</g>
<g>
</g>
<g>
</g>
<g>
</g>
<g>
</g>
<g>
</g>
<g>
</g>
<g>
</g>
<g>
</g>
<g>
</g>
<g>
</g>
</svg>
