<?xml version="1.0" encoding="iso-8859-1"?>
<!-- Generator: Adobe Illustrator 21.0.0, SVG Export Plug-In . SVG Version: 6.00 Build 0)  -->
<svg version="1.1" id="Capa_1" xmlns="http://www.w3.org/2000/svg" xmlns:xlink="http://www.w3.org/1999/xlink" x="0px" y="0px"
	 viewBox="0 0 512 512" style="enable-background:new 0 0 512 512;" xml:space="preserve">
<path style="fill:#FFF5DA;" d="M280.272,252.537v171.853c0,14.306-11.742,25.824-26.045,25.55l0,0H26.624
	c-10.836,0-19.619-8.784-19.619-19.619V81.179c0-10.836,8.784-19.619,19.619-19.619h234.029c10.836,0,19.619,8.784,19.619,19.619
	L280.272,252.537L280.272,252.537z"/>
<path style="fill:#F9EED4;" d="M280.273,424.389V252.537V81.179c0-10.836-8.784-19.619-19.619-19.619H144.016
	c-10.836,0-19.619,8.784-19.619,19.619V430.32c0,10.836,8.784,19.619,19.619,19.619h110.212
	C268.529,450.214,280.273,438.695,280.273,424.389z"/>
<path style="fill:#FE4583;" d="M91.78,178.314c7.347,7.878,6.987,20.24-0.521,27.967l-23.522,24.2c-1.206,1.241-3.2,1.241-4.406,0
	l-23.512-24.2c-7.517-7.728-7.878-20.09-0.531-27.967c0.17-0.17,0.34-0.35,0.51-0.521c6.987-6.987,17.737-7.918,25.735-2.793
	c7.998-5.125,18.748-4.194,25.735,2.793C91.449,177.964,91.609,178.144,91.78,178.314z"/>
<path style="fill:#F9EBCA;" d="M420.911,252.537v171.853c0,14.306-11.742,25.824-26.045,25.55l0,0H167.263
	c-10.836,0-19.619-8.784-19.619-19.619V81.179c0-10.836,8.784-19.619,19.619-19.619h234.029c10.836,0,19.619,8.784,19.619,19.619
	L420.911,252.537L420.911,252.537z"/>
<path style="fill:#F7E0B0;" d="M404.865,231.412c-65.957,0-119.431,53.474-119.431,119.431c0,41.264,20.93,77.642,52.754,99.097
	h56.677l0,0c14.303,0.274,26.045-11.244,26.045-25.55V252.537v-20.049C415.662,231.782,410.308,231.412,404.865,231.412z"/>
<path style="fill:#FFF0CA;" d="M129.796,437.447c-52.921,0-95.822-42.901-95.822-95.822V68.687c0-2.517,0.491-4.916,1.355-7.127
	h-8.705c-10.836,0-19.619,8.784-19.619,19.619V430.32c0,10.836,8.784,19.619,19.619,19.619h227.602
	c9.527,0.183,17.913-4.871,22.455-12.492H129.796z"/>
<path style="fill:#F7E0B0;" d="M270.434,437.447c-52.921,0-95.821-42.901-95.821-95.821V68.687c0-2.517,0.491-4.916,1.355-7.127
	h-8.706c-10.836,0-19.619,8.784-19.619,19.619V430.32c0,10.836,8.784,19.619,19.619,19.619h227.602l0,0
	c9.527,0.183,17.913-4.871,22.455-12.492H270.434z"/>
<circle style="fill:#358DCD;" cx="404.865" cy="350.843" r="99.597"/>
<path style="fill:#098BAA;" d="M360.102,335.962c0-35.764,18.857-67.122,47.167-84.687c-0.799-0.019-1.6-0.03-2.402-0.03
	c-55.004,0-99.597,44.594-99.597,99.597s44.594,99.597,99.597,99.597c19.24,0,37.201-5.461,52.431-14.911
	C403.403,434.253,360.102,390.163,360.102,335.962z"/>
<circle style="fill:#EDE6F5;" cx="404.895" cy="350.843" r="70.068"/>
<path style="fill:#FE4583;" d="M429.81,334.977c7.287,7.497,7.637,19.469,0.51,27.116c-0.16,0.17-0.33,0.34-0.49,0.5
	c-4.855,4.855-11.571,6.677-17.847,5.515l8.518,14.124c2.162,3.583-0.42,8.148-4.594,8.148h-21.391
	c-4.104,0-6.686-4.404-4.695-7.988l7.958-14.294c-6.286,1.181-13.013-0.641-17.877-5.505c-0.16-0.16-0.33-0.33-0.49-0.5
	c-7.127-7.647-6.777-19.619,0.51-27.116l22.141-22.788c1.535-1.581,4.073-1.581,5.608,0L429.81,334.977z"/>
<path style="fill:#4F4F74;" d="M224.229,191.847c6.286,6.486,6.596,16.836,0.43,23.443c-0.13,0.14-0.28,0.29-0.42,0.43
	c-4.194,4.194-10,5.776-15.415,4.765l7.357,12.212c1.872,3.093-0.36,7.037-3.974,7.037h-18.488c-3.543,0-5.776-3.804-4.054-6.897
	l6.877-12.362c-5.425,1.021-11.241-0.551-15.445-4.755c-0.14-0.14-0.28-0.29-0.42-0.43c-6.166-6.606-5.856-16.957,0.44-23.443
	l19.209-19.771c1.282-1.32,3.401-1.32,4.685-0.001L224.229,191.847z"/>
<path d="M96.589,172.494c-0.003-0.002-0.005-0.005-0.008-0.008c-8.192-8.191-20.642-10.405-31.047-5.952
	c-10.406-4.45-22.856-2.238-31.055,5.96c-0.23,0.23-0.455,0.464-0.676,0.701c-10.056,10.776-9.781,27.606,0.627,38.316l25.72,26.471
	c1.413,1.454,3.356,2.275,5.384,2.275c2.028,0,3.971-0.821,5.384-2.275l25.72-26.471c10.407-10.711,10.682-27.542,0.619-38.325
	C97.04,172.954,96.817,172.724,96.589,172.494z M85.871,201.049l-20.336,20.929l-20.336-20.929
	c-4.82-4.961-5.004-12.695-0.418-17.609c0.108-0.115,0.219-0.229,0.324-0.335c2.525-2.525,5.918-3.835,9.329-3.835
	c2.444,0,4.9,0.673,7.052,2.052c2.468,1.582,5.632,1.581,8.1-0.001c5.152-3.301,12.044-2.553,16.379,1.783
	c0.113,0.113,0.224,0.229,0.325,0.336C90.875,188.353,90.691,196.087,85.871,201.049z"/>
<path d="M428.418,246.347V81.177c0-14.957-12.168-27.124-27.124-27.124H167.26H27.123C12.168,54.053,0,66.221,0,81.177v349.146
	c0,14.956,12.168,27.124,27.123,27.124H167.26h227.29c3.416,0.325,6.867,0.5,10.345,0.5C463.953,457.947,512,409.9,512,350.843
	C512,299.865,476.198,257.096,428.418,246.347z M404.895,442.933c-28.482,0-54.912-12.873-72.511-35.316
	c-2.561-3.263-7.278-3.834-10.54-1.274c-3.263,2.559-3.834,7.277-1.275,10.539c8.116,10.35,17.851,18.941,28.707,25.551H167.26
	c-6.677,0-12.109-5.432-12.109-12.11V167.664c0-4.147-3.361-7.507-7.507-7.507c-4.146,0-7.507,3.36-7.507,7.507v262.659
	c0,4.35,1.035,8.461,2.864,12.11H27.123c-6.677,0-12.109-5.432-12.109-12.11V81.177c0-6.678,5.432-12.11,12.109-12.11h115.877
	c-1.829,3.648-2.864,7.759-2.864,12.11v56.457c0,4.147,3.361,7.507,7.507,7.507c4.146,0,7.507-3.36,7.507-7.507V81.177
	c0-6.678,5.432-12.11,12.109-12.11h234.034c6.678,0,12.11,5.432,12.11,12.11v162.899c-2.808-0.221-5.645-0.337-8.508-0.337
	c-59.058,0-107.105,48.047-107.105,107.105c0,13.036,2.324,25.787,6.908,37.899c1.468,3.878,5.803,5.828,9.679,4.363
	c3.877-1.468,5.831-5.802,4.363-9.679c-3.94-10.406-5.937-21.37-5.937-32.584c0-50.779,41.311-92.09,92.09-92.09
	s92.09,41.311,92.09,92.09S455.674,442.933,404.895,442.933z"/>
<path d="M404.895,273.267c-42.775,0-77.576,34.801-77.576,77.576s34.801,77.576,77.576,77.576s77.576-34.801,77.576-77.576
	S447.67,273.267,404.895,273.267z M404.895,413.404c-34.497,0-62.561-28.064-62.561-62.561s28.064-62.561,62.561-62.561
	s62.561,28.064,62.561,62.561S439.392,413.404,404.895,413.404z"/>
<path d="M410.251,304.07c-1.413-1.454-3.356-2.275-5.384-2.275s-3.971,0.821-5.384,2.275l-24.944,25.671
	c-10.178,10.474-10.446,26.934-0.616,37.467c0.22,0.236,0.444,0.469,0.674,0.699c3.118,3.117,6.887,5.389,10.963,6.709l-2.299,4.132
	c-2.243,4.031-2.187,8.814,0.151,12.79c2.338,3.976,6.488,6.351,11.103,6.351h21.391c4.638,0,8.934-2.508,11.214-6.545
	c2.28-4.037,2.209-9.012-0.185-12.983l-2.341-3.885c3.916-1.337,7.533-3.559,10.544-6.569c0.229-0.229,0.453-0.462,0.668-0.693
	c9.836-10.537,9.568-26.997-0.61-37.473L410.251,304.07z M398.146,382.874l6.19-11.121c0.22-0.396,0.401-0.806,0.545-1.224
	c0.171,0.501,0.396,0.989,0.678,1.454l6.565,10.891L398.146,382.874L398.146,382.874z M424.823,356.976
	c-0.099,0.105-0.2,0.211-0.304,0.313c-2.91,2.911-7.08,4.197-11.159,3.438c-2.905-0.546-5.86,0.675-7.543,3.104
	c-0.401,0.58-0.714,1.202-0.935,1.85c-0.235-0.691-0.574-1.355-1.015-1.967c-1.427-1.981-3.706-3.119-6.091-3.119
	c-0.459,0-0.923,0.042-1.385,0.129c-4.087,0.763-8.263-0.519-11.178-3.434c-0.104-0.103-0.205-0.208-0.31-0.319
	c-4.364-4.677-4.188-12.04,0.402-16.764l19.56-20.13l19.56,20.13C429.016,344.93,429.192,352.293,424.823,356.976z"/>
<path d="M229.609,186.62l-21.556-22.186c-1.413-1.454-3.356-2.275-5.384-2.275s-3.971,0.821-5.384,2.275l-21.557,22.186
	c-9.174,9.442-9.412,24.284-0.524,33.809c0.193,0.206,0.391,0.411,0.585,0.605c2.51,2.51,5.488,4.412,8.717,5.638l-1.398,2.513
	c-2.117,3.803-2.064,8.314,0.142,12.066s6.121,5.992,10.473,5.992h18.487c4.374,0,8.427-2.365,10.578-6.175
	c2.151-3.809,2.085-8.501-0.174-12.247l-1.387-2.301c3.073-1.227,5.91-3.073,8.314-5.476c0.202-0.201,0.399-0.406,0.612-0.633
	C239.022,210.903,238.784,196.06,229.609,186.62L229.609,186.62z M198.595,232.227l4.099-7.365l4.441,7.365H198.595z
	 M219.193,210.145c-0.082,0.087-0.166,0.175-0.261,0.27c-2.278,2.277-5.544,3.281-8.736,2.69c-2.888-0.541-5.824,0.659-7.512,3.059
	c-0.017-0.023-0.034-0.048-0.051-0.071c-1.426-1.981-3.705-3.119-6.09-3.119c-0.459,0-0.923,0.042-1.385,0.129
	c-3.199,0.599-6.469-0.403-8.76-2.695c-0.086-0.086-0.17-0.174-0.233-0.241c-3.4-3.644-3.253-9.39,0.333-13.082l16.173-16.644
	l16.172,16.644c0,0,0,0,0,0.001C222.428,200.775,222.574,206.521,219.193,210.145z"/>
<path d="M59.231,149.146h18.345c4.146,0,7.507-3.36,7.507-7.507c0-4.147-3.361-7.507-7.507-7.507H61.06v-10.01h10.838
	c7.27,0,13.186-5.916,13.186-13.187V99.271c0-7.271-5.916-13.187-13.186-13.187H53.552c-4.146,0-7.507,3.36-7.507,7.507
	s3.361,7.507,7.507,7.507h16.516v8.008H59.231c-7.27,0-13.186,5.916-13.186,13.187v13.665
	C46.045,143.23,51.961,149.146,59.231,149.146z"/>
<path d="M196.365,149.146h18.345c4.146,0,7.507-3.36,7.507-7.507c0-4.147-3.361-7.507-7.507-7.507h-16.516v-10.01h10.838
	c7.271,0,13.186-5.916,13.186-13.187V99.271c0-7.271-5.916-13.187-13.186-13.187h-18.345c-4.146,0-7.507,3.36-7.507,7.507
	s3.361,7.507,7.507,7.507h16.516v8.008h-10.838c-7.27,0-13.186,5.916-13.186,13.187v13.665
	C183.179,143.23,189.095,149.146,196.365,149.146z"/>
<g>
</g>
<g>
</g>
<g>
</g>
<g>
</g>
<g>
</g>
<g>
</g>
<g>
</g>
<g>
</g>
<g>
</g>
<g>
</g>
<g>
</g>
<g>
</g>
<g>
</g>
<g>
</g>
<g>
</g>
</svg>
