<?xml version="1.0" encoding="iso-8859-1"?>
<!-- Generator: Adobe Illustrator 21.0.0, SVG Export Plug-In . SVG Version: 6.00 Build 0)  -->
<svg version="1.1" id="Capa_1" xmlns="http://www.w3.org/2000/svg" xmlns:xlink="http://www.w3.org/1999/xlink" x="0px" y="0px"
	 viewBox="0 0 512 512" style="enable-background:new 0 0 512 512;" xml:space="preserve">
<path style="fill:#358DCD;" d="M379.482,212.179v37.948H132.518v-37.948v-74.421c0-15.089,12.238-27.327,27.327-27.327h192.311
	c15.089,0,27.327,12.238,27.327,27.327V212.179z"/>
<path style="fill:#098BAA;" d="M187.633,137.758c0-15.089,12.238-27.327,27.327-27.327h-55.115
	c-15.089,0-27.327,12.238-27.327,27.327v74.421v37.948h55.115v-37.948V137.758z"/>
<path style="fill:#82DBBA;" d="M354.384,209.82v40.307H157.616V209.82v-72.061c0-1.231,0.998-2.229,2.229-2.229h53.408
	c2.115,0,3.991,1.358,4.65,3.368l1.244,3.79c0.964,2.921,3.684,4.889,6.756,4.889h60.195c3.072,0,5.793-1.968,6.756-4.889
	l1.244-3.79c0.66-2.01,2.536-3.368,4.65-3.368h53.408c1.231,0,2.229,0.998,2.229,2.229L354.384,209.82L354.384,209.82z"/>
<path style="fill:#38C689;" d="M183.266,237.601v-56.528c0-9.81,7.953-17.762,17.762-17.762h153.356v-25.553
	c0-1.231-0.998-2.229-2.229-2.229h-53.408c-2.115,0-3.991,1.358-4.65,3.368l-1.244,3.79c-0.964,2.921-3.684,4.889-6.756,4.889
	h-60.195c-3.072,0-5.793-1.968-6.756-4.889l-1.244-3.79c-0.66-2.01-2.536-3.368-4.65-3.368h-53.408
	c-1.231,0-2.229,0.998-2.229,2.229v72.061v40.307h25.65V237.601z"/>
<path style="fill:#EDE6F5;" d="M434.598,83.265C389.431,36.563,326.104,7.529,256,7.529S122.569,36.563,77.402,83.265
	C34.143,127.98,7.529,188.888,7.529,256s26.614,128.02,69.873,172.735c45.166,46.702,108.494,75.736,178.598,75.736
	s133.431-29.033,178.598-75.736C477.857,384.02,504.471,323.112,504.471,256S477.857,127.98,434.598,83.265z M218.594,426.928
	c0,18.763-18.753,31.724-36.312,25.108c-29.485-11.093-55.808-28.642-77.242-50.939c-16.856-17.518-30.68-37.978-40.639-60.516
	c-9.377-21.213,6.375-45.036,29.565-45.036h42.596c21.705,0,42.787,8.102,58.338,23.251c2.108,2.048,4.317,3.996,6.626,5.833
	c10.832,8.614,17.067,21.745,17.067,35.579V426.928z M197.431,190.835c-15.009,13.513-34.274,21.343-54.463,21.343H95.935
	c-23.743,0-39.253-24.757-29.043-46.19c9.728-20.4,22.659-38.982,38.149-55.085C143.129,71.268,196.678,46.602,256,46.602
	s112.871,24.666,150.96,64.301c15.49,16.103,28.421,34.685,38.149,55.085c10.21,21.434-5.301,46.19-29.043,46.19h-47.034
	c-20.189,0-39.454-7.831-54.463-21.343c-15.521-13.965-36.051-22.468-58.569-22.468
	C233.482,168.368,212.952,176.871,197.431,190.835z M406.96,401.097c-21.434,22.297-47.757,39.846-77.242,50.939
	c-17.559,6.616-36.312-6.345-36.312-25.108v-66.721c0-13.834,6.234-26.965,17.067-35.579c0.151-0.12,0.301-0.241,0.452-0.361
	c23.12-18.633,51.953-28.722,81.649-28.722h25.459c23.191,0,38.942,23.823,29.565,45.036
	C437.64,363.118,423.816,383.578,406.96,401.097z"/>
<g>
	<circle style="fill:#E0D3F2;" cx="360.709" cy="270.165" r="11.756"/>
	<circle style="fill:#E0D3F2;" cx="384.753" cy="241.845" r="11.756"/>
	<path style="fill:#E0D3F2;" d="M146.645,255.218h-5.28c-2.431,0-4.402-1.971-4.402-4.402v-5.28c0-2.431-1.971-4.402-4.402-4.402
		h-6.845c-2.431,0-4.402,1.971-4.402,4.402v5.28c0,2.431-1.971,4.402-4.402,4.402h-5.28c-2.431,0-4.402,1.971-4.402,4.402v6.845
		c0,2.431,1.971,4.402,4.402,4.402h5.28c2.431,0,4.402,1.971,4.402,4.402v5.28c0,2.431,1.971,4.402,4.402,4.402h6.845
		c2.432,0,4.402-1.971,4.402-4.402v-5.28c0-2.431,1.971-4.402,4.402-4.402h5.28c2.431,0,4.402-1.971,4.402-4.402v-6.845
		C151.047,257.189,149.076,255.218,146.645,255.218z"/>
</g>
<circle style="fill:#CEC1E7;" cx="256" cy="256" r="60.677"/>
<path style="fill:#BCAFDD;" d="M238.684,256c0-25.867,16.196-47.941,38.995-56.669c-6.734-2.578-14.039-4.005-21.68-4.005
	c-33.507,0-60.674,27.167-60.674,60.674s27.167,60.674,60.674,60.674c7.641,0,14.944-1.427,21.68-4.005
	C254.881,303.941,238.684,281.867,238.684,256z"/>
<path style="fill:#FE4583;" d="M105.04,401.097c21.434,22.297,47.757,39.846,77.242,50.939c17.559,6.616,36.312-6.345,36.312-25.108
	v-58.699h74.812v58.699c0,18.763,18.753,31.724,36.312,25.108c29.485-11.093,55.808-28.642,77.242-50.939l27.638,27.638
	C389.431,475.437,326.104,504.471,256,504.471s-133.431-29.033-178.598-75.736L105.04,401.097z"/>
<circle style="fill:#4F4F74;" cx="256" cy="256" r="25.65"/>
<path style="fill:#3E436D;" d="M252.03,250.122c0-7.706,3.403-14.613,8.783-19.314c-1.559-0.296-3.167-0.458-4.813-0.458
	c-14.165,0-25.65,11.485-25.65,25.65c0,14.165,11.485,25.65,25.65,25.65c6.459,0,12.357-2.393,16.867-6.336
	C261.003,273.062,252.03,262.642,252.03,250.122z"/>
<path style="fill:#FE4583;" d="M77.402,83.265C122.569,36.563,185.896,7.529,256,7.529s133.431,29.033,178.598,75.736
	l-27.638,27.638C368.871,71.268,315.322,46.602,256,46.602s-112.871,24.666-150.96,64.301L77.402,83.265z"/>
<path d="M437.02,74.981C388.667,26.628,324.38,0,256,0S123.333,26.628,74.981,74.981S0,187.62,0,256s26.628,132.667,74.981,181.02
	S187.62,512,256,512s132.667-26.628,181.02-74.981S512,324.38,512,256S485.372,123.333,437.02,74.981z M256,15.059
	c63.228,0,122.727,24.205,167.95,68.206l-16.972,16.972c-10.268-9.951-21.537-18.92-33.687-26.744
	C338.33,50.976,297.771,39.075,256,39.075c-23.029,0-45.718,3.599-67.437,10.698c-3.953,1.292-6.11,5.543-4.818,9.496
	c1.293,3.952,5.543,6.113,9.496,4.818c20.206-6.604,41.321-9.953,62.759-9.953c38.874,0,76.612,11.072,109.137,32.02
	c31.686,20.407,56.988,49.135,73.171,83.08c3.694,7.748,3.171,16.696-1.397,23.937c-4.539,7.191-12.33,11.485-20.842,11.485h-29.057
	v-66.896c0-19.22-15.636-34.856-34.856-34.856H159.844c-19.22,0-34.856,15.636-34.856,34.856v66.896H95.932
	c-8.512,0-16.304-4.294-20.842-11.485c-4.569-7.24-5.091-16.188-1.396-23.937c19.377-40.646,52.269-74.071,92.619-94.122
	c3.724-1.851,5.242-6.37,3.392-10.094c-1.851-3.723-6.37-5.241-10.094-3.392c-20.131,10.003-38.53,23.11-54.553,38.649L88.05,83.265
	C133.273,39.263,192.772,15.059,256,15.059z M352.156,128h-56.95c-3.252,0-6.136,2.087-7.152,5.176l-2.261,6.871h-59.587
	l-2.261-6.871c-1.016-3.089-3.9-5.176-7.152-5.176h-56.948c-5.38,0-9.758,4.377-9.758,9.758v66.526
	c-2.362,0.24-4.739,0.369-7.123,0.369h-2.916v-66.895c0-10.916,8.882-19.797,19.797-19.797h192.311
	c10.916,0,19.797,8.882,19.797,19.797v66.896h-2.916c-2.384,0-4.761-0.13-7.123-0.369v-66.527
	C361.914,132.377,357.537,128,352.156,128z M346.855,143.059v58.024c-9.889-3.23-19.186-8.584-27.252-15.844
	c-17.483-15.734-40.072-24.4-63.602-24.4s-46.119,8.666-63.602,24.401c-8.068,7.26-17.365,12.614-27.252,15.844v-58.025h46.2
	l0.651,1.981c1.979,6.022,7.567,10.066,13.906,10.066h60.196c6.339,0,11.928-4.045,13.905-10.064l0.653-1.983H346.855z M256,496.941
	c-63.228,0-122.727-24.205-167.95-68.206l17.041-17.041c21.233,20.58,46.593,36.88,74.537,47.393
	c3.927,1.478,8.031,2.204,12.114,2.204c6.904,0,13.749-2.077,19.58-6.113c9.269-6.417,14.804-16.978,14.804-28.252v-51.168h59.749
	v51.169c0,11.273,5.535,21.835,14.804,28.252c5.832,4.037,12.677,6.113,19.58,6.113c4.083,0,8.188-0.727,12.113-2.204
	c27.944-10.514,53.305-26.813,74.538-47.393l17.041,17.041C378.727,472.737,319.228,496.941,256,496.941z M71.29,337.535
	c-3.39-7.67-2.695-16.123,1.909-23.191c4.597-7.059,12.361-11.273,20.768-11.273h42.599c20.249,0,39.099,7.498,53.077,21.113
	c2.289,2.229,4.71,4.362,7.199,6.339c9.039,7.188,14.224,18.007,14.224,29.68v66.723c0,6.427-3.032,12.212-8.315,15.87
	c-5.296,3.664-11.792,4.465-17.822,2.197C134.511,426.023,93.093,386.856,71.29,337.535z M434.429,417.918l-17.068-17.069
	c15.211-16.913,27.83-36.207,37.121-57.227c5.407-12.233,4.262-26.25-3.064-37.497c-7.387-11.342-19.869-18.114-33.386-18.114
	h-25.462c-7.343,0-14.769,0.598-22.069,1.778c-4.105,0.664-6.894,4.531-6.231,8.636c0.664,4.105,4.532,6.893,8.636,6.231
	c6.508-1.053,13.125-1.586,19.666-1.586h25.462c8.407,0,16.17,4.214,20.768,11.273c4.604,7.068,5.3,15.521,1.909,23.191
	c-21.802,49.322-63.222,88.49-113.639,107.459c-6.033,2.269-12.526,1.468-17.822-2.197c-5.285-3.658-8.315-9.442-8.315-15.87
	v-66.723c0-11.675,5.184-22.493,14.214-29.673l0.501-0.4c8.771-7.07,18.488-12.89,28.879-17.3c3.828-1.625,5.614-6.045,3.99-9.874
	c-1.625-3.828-6.045-5.612-9.874-3.99c-11.672,4.955-22.587,11.494-32.418,19.417l-0.44,0.351
	c-12.653,10.061-19.911,25.176-19.911,41.468v0.495h-59.749v-0.495c0-16.292-7.257-31.406-19.911-41.468
	c0-0.001-0.001-0.001-0.001-0.001c-2.094-1.664-4.134-3.461-6.063-5.339c-16.807-16.37-39.388-25.384-63.584-25.384H93.968
	c-13.518,0-25.999,6.771-33.386,18.114c-7.326,11.247-8.471,25.265-3.064,37.497c9.291,21.019,21.909,40.313,37.121,57.227
	l-17.068,17.069C37.173,373.501,15.059,316.451,15.059,256S37.173,138.499,77.571,94.083l17.042,17.043
	c-13.854,15.415-25.536,32.798-34.512,51.628c-5.932,12.442-5.089,26.817,2.254,38.453c7.314,11.589,19.866,18.508,33.577,18.508
	h47.033c21.694,0,42.827-8.267,59.508-23.281c14.712-13.241,33.723-20.534,53.527-20.534s38.815,7.293,53.527,20.534
	c16.681,15.014,37.815,23.281,59.508,23.281h47.033c13.712,0,26.264-6.919,33.577-18.508c7.343-11.636,8.186-26.012,2.254-38.453
	c-9.001-18.88-20.633-36.252-34.476-51.664l17.004-17.005c40.399,44.416,62.513,101.465,62.513,161.917
	S474.827,373.501,434.429,417.918z"/>
<path d="M149.538,248.175h-5.28c-2.432,0-4.402-1.971-4.402-4.402v-5.28c0-2.431-1.971-4.402-4.402-4.402h-6.844
	c-2.431,0-4.402,1.971-4.402,4.402v5.28c0,2.431-1.971,4.402-4.402,4.402h-5.28c-2.431,0-4.402,1.971-4.402,4.402v6.844
	c0,2.432,1.971,4.402,4.402,4.402h5.28c2.431,0,4.402,1.971,4.402,4.402v5.28c0,2.431,1.971,4.402,4.402,4.402h6.844
	c2.431,0,4.402-1.971,4.402-4.402v-5.28c0-2.431,1.971-4.402,4.402-4.402h5.28c2.432,0,4.402-1.971,4.402-4.402v-6.844
	C153.94,250.146,151.969,248.175,149.538,248.175z"/>
<path d="M217.583,223.289c9.39-11.781,23.392-18.538,38.417-18.538c15.025,0,29.027,6.756,38.417,18.538
	c1.487,1.864,3.679,2.836,5.893,2.836c1.645,0,3.302-0.536,4.688-1.641c3.252-2.592,3.786-7.33,1.195-10.581
	c-12.264-15.386-30.557-24.211-50.193-24.211c-19.636,0-37.929,8.824-50.193,24.211c-2.591,3.252-2.057,7.989,1.195,10.581
	C210.257,227.076,214.991,226.54,217.583,223.289z"/>
<path d="M301.925,298.662c2.904-2.977,2.845-7.744-0.132-10.647c-2.98-2.905-7.746-2.843-10.647,0.132
	c-9.328,9.561-21.81,14.828-35.147,14.828c-13.337,0-25.819-5.266-35.147-14.828c-2.904-2.977-7.671-3.036-10.647-0.132
	c-2.977,2.903-3.035,7.671-0.132,10.647c12.186,12.491,28.496,19.371,45.925,19.371C273.429,318.032,289.74,311.153,301.925,298.662
	z"/>
<path d="M222.821,256c0,18.295,14.883,33.179,33.179,33.179s33.179-14.883,33.179-33.179S274.295,222.821,256,222.821
	S222.821,237.705,222.821,256z M274.12,256c0,9.991-8.129,18.12-18.12,18.12c-9.991,0-18.12-8.129-18.12-18.12
	c0-9.991,8.129-18.12,18.12-18.12S274.12,246.009,274.12,256z"/>
<circle cx="362.867" cy="266.682" r="11.756"/>
<circle cx="386.911" cy="238.371" r="11.756"/>
<path d="M254.996,390.024c-4.159,0-7.529,3.37-7.529,7.529v59.231c0,4.159,3.37,7.529,7.529,7.529c4.159,0,7.529-3.37,7.529-7.529
	v-59.231C262.526,393.394,259.155,390.024,254.996,390.024z"/>
<g>
</g>
<g>
</g>
<g>
</g>
<g>
</g>
<g>
</g>
<g>
</g>
<g>
</g>
<g>
</g>
<g>
</g>
<g>
</g>
<g>
</g>
<g>
</g>
<g>
</g>
<g>
</g>
<g>
</g>
</svg>
