<?xml version="1.0" encoding="iso-8859-1"?>
<!-- Generator: Adobe Illustrator 21.0.0, SVG Export Plug-In . SVG Version: 6.00 Build 0)  -->
<svg version="1.1" id="Capa_1" xmlns="http://www.w3.org/2000/svg" xmlns:xlink="http://www.w3.org/1999/xlink" x="0px" y="0px"
	 viewBox="0 0 512 512" style="enable-background:new 0 0 512 512;" xml:space="preserve">
<path style="fill:#F9E8C0;" d="M399.437,52.209l-69.446-24.798h-42.583v247.468l41.742,14.513l0.003-0.008
	c-0.001,0.002-0.002,0.005-0.003,0.008l0.291,0.06l78.383-219.539C410.398,62.699,406.641,54.774,399.437,52.209z"/>
<polygon style="fill:#EFD8A8;" points="346.15,33.181 329.991,27.411 287.408,27.411 287.408,274.879 329.15,289.392 
	329.44,289.452 346.15,242.65 "/>
<path style="fill:#F9A198;" d="M126.499,83.663c-13.281,0-24.047,10.766-24.047,24.047v147.789h5.208
	c24.312,0,44.022-19.71,44.022-44.022V83.663H126.499z"/>
<path style="fill:#F78D89;" d="M112.471,88.184v119.251l0,0v47.797c22.048-2.398,39.212-21.069,39.212-43.755V83.663h-25.184
	C121.262,83.663,116.42,85.343,112.471,88.184z"/>
<rect x="222.355" y="285.127" style="fill:#FECABE;" width="94.515" height="34.593"/>
<path style="fill:#FFF5DA;" d="M317.021,7.515H140.316c-7.645,0-13.847,6.202-13.847,13.847v62.302v123.772l0,0l0,0v91.649h95.857
	l0,0l0,0h94.515h0.18c5.972,0,11.062-3.787,13.005-9.088c0.541-1.483,0.842-3.086,0.842-4.759V28.015v-6.653
	C330.868,13.717,324.666,7.515,317.021,7.515z"/>
<path style="fill:#F9E6B9;" d="M235.051,284.916c-10.36-17.404-29.367-29.057-51.09-29.057h-38.756v43.224h77.151h94.515h0.18
	c5.527,0,10.293-3.247,12.514-7.932v-6.235L235.051,284.916L235.051,284.916z"/>
<path style="fill:#FE4583;" d="M263.416,120.335c0.24,0.23,0.461,0.471,0.681,0.701c9.929,10.641,9.438,27.323-0.701,37.754
	l-30.88,31.789c-2.107,2.169-5.589,2.169-7.696,0l-30.88-31.789c-10.14-10.43-10.631-27.113-0.701-37.754
	c0.22-0.23,0.441-0.471,0.681-0.701c9.438-9.438,23.957-10.691,34.748-3.777C239.469,109.644,253.978,110.897,263.416,120.335z"/>
<path style="fill:#FC3268;" d="M212.303,155.801c-10.14-10.43-10.631-27.113-0.701-37.754c0.22-0.23,0.441-0.471,0.681-0.701
	c1.914-1.914,4.043-3.473,6.3-4.713c-8.68-1.557-17.954,0.993-24.664,7.703c-0.24,0.23-0.461,0.471-0.681,0.701
	c-9.929,10.641-9.438,27.323,0.701,37.754l30.88,31.789c2.107,2.169,5.589,2.169,7.695,0l6.786-6.986L212.303,155.801z"/>
<path style="fill:#FECABE;" d="M222.356,299.084c-10.36-17.404-29.367-29.057-51.09-29.057H147.54v-21.652l31.231-24.277
	c9.829-7.645,11.603-21.813,3.958-31.642c-4.449-5.711-11.092-8.707-17.815-8.707c-4.829,0-9.699,1.553-13.817,4.749l-24.598,18.937
	l-16.923,13.025c-4.489,3.457-7.124,8.797-7.124,14.468v35.099v7.014v34.798c0,27.464,19.989,50.258,46.21,54.617l-0.12,92.942
	H285.81v-93.556c17.871-4.687,31.061-20.948,31.061-40.296v-26.462H222.356z"/>
<g>
	<path style="fill:#FCB5A9;" d="M238.362,368.977h-62.807c-25.288-5.113-44.329-27.459-44.329-54.26v-34.798v-7.014v-35.099
		c0-5.671,2.635-11.012,7.124-14.468l16.923-13.025l24.598-18.937c0.385-0.299,0.782-0.568,1.178-0.838
		c-4.354-4.46-10.213-6.788-16.137-6.788c-4.829,0-9.699,1.553-13.817,4.749l-24.598,18.937l-16.923,13.025
		c-4.489,3.457-7.124,8.797-7.124,14.468v35.099v7.014v34.798c0,27.464,19.989,50.258,46.21,54.617l-0.12,92.942h28.779
		l0.053-41.395c0.026-20.267,16.462-36.682,36.729-36.682h24.259c3.409,0,6.172-2.763,6.172-6.172l0,0
		C244.534,371.74,241.771,368.977,238.362,368.977z"/>
	<path style="fill:#FCB5A9;" d="M237.409,311.301h79.461v-12.217h-94.515c0.009,0.04,0.018,0.08,0.027,0.12
		C223.952,306.261,230.18,311.301,237.409,311.301z"/>
</g>
<path style="fill:#FE4583;" d="M308.855,469.407v33.49c0,0.877-0.711,1.588-1.588,1.588H127.084c-0.877,0-1.588-0.71-1.588-1.588
	v-33.49c0-9.955,8.07-18.025,18.025-18.025h5.02h137.268h5.02C300.784,451.382,308.855,459.451,308.855,469.407z"/>
<path style="fill:#EA2D88;" d="M179.6,502.897v-33.49c0-9.955,8.07-18.025,18.025-18.025h-49.084h-5.02
	c-9.955,0-18.025,8.07-18.025,18.025v33.49c0,0.877,0.71,1.588,1.588,1.588h54.104C180.311,504.485,179.6,503.775,179.6,502.897z"/>
<path d="M324.385,325.543v-20.271c4.979-1.83,9.096-5.445,11.552-10.086c0.127-0.222,0.232-0.462,0.338-0.701
	c0.578-1.195,1.045-2.45,1.394-3.755l0,0l78.14-217.69c1.92-5.375,1.631-11.176-0.814-16.334
	c-2.443-5.158-6.749-9.056-12.126-10.974l-64.458-23.014v-1.351C338.413,9.567,328.846,0,317.045,0H140.35
	c-11.801,0-21.367,9.567-21.367,21.367V77.06c-13.786,3.381-24.047,15.837-24.047,30.651v204.132
	c0,28.858,19.546,53.223,46.09,60.593v71.555c-12.915,1.256-23.045,12.173-23.045,25.413v27.568h-6.198
	c-4.115,0-7.703,3.171-7.826,7.284c-0.127,4.255,3.284,7.745,7.512,7.745l0,0h219.114l0,0c4.115,0,7.703-3.171,7.826-7.284
	c0.127-4.255-3.284-7.745-7.512-7.745h-14.528v-27.568c0-13.24-10.13-24.156-23.045-25.413v-72.735
	C311.499,364.022,324.385,346.265,324.385,325.543z M118.984,92.987v110.746l-9.018,6.942V107.71
	C109.967,101.299,113.635,95.728,118.984,92.987z M301.34,469.403v27.568H133.012v-27.568c0-5.793,4.713-10.507,10.507-10.507l0,0
	h147.315l0,0C296.627,458.896,301.34,463.609,301.34,469.403z M278.295,443.867H156.057v-69.18c0.59,0.017,1.176,0.045,1.77,0.045
	h15.449c4.115,0,7.703-3.171,7.826-7.284c0.127-4.255-3.284-7.745-7.512-7.745h-15.764c-26.433,0-47.86-21.428-47.86-47.86V234.93
	c0-3.312,1.567-6.497,4.193-8.518l41.546-31.98c4.41-3.428,10.306-4.182,15.738-1.728c0.644,0.291,1.262,0.642,1.842,1.047
	c4.889,3.417,7.253,8.871,6.56,14.411c-0.498,3.984-2.518,7.535-5.687,9.999l-31.23,24.284c-1.832,1.424-2.902,3.613-2.902,5.933
	v21.65c0,4.15,3.365,7.515,7.515,7.515h23.728c28.568,0,51.821,23.193,51.919,51.739c0.012,3.485,2.254,6.651,5.641,7.469
	c4.963,1.198,9.388-2.527,9.388-7.288c0-8.026-1.423-15.726-4.024-22.863h18.488c4.115,0,7.703-3.171,7.826-7.284
	c0.127-4.255-3.284-7.745-7.512-7.745h-26.574c-12.085-17.534-32.295-29.057-55.154-29.057h-16.214v-10.458l28.327-22.028
	c6.234-4.846,10.245-11.796,11.324-19.603c1.056-7.642-0.89-15.494-5.418-21.74c-4.943-6.819-12.313-11.171-20.626-12.211
	c-7.971-0.997-15.846,1.168-22.154,6.075l-12.495,9.619V21.367c0-3.5,2.838-6.337,6.337-6.337h176.695
	c3.5,0,6.337,2.838,6.337,6.337v37.332c0,4.115,3.171,7.703,7.284,7.826c4.255,0.127,7.745-3.284,7.745-7.512V38.677l59.405,21.21
	c1.594,0.569,2.872,1.725,3.596,3.254c0.725,1.529,0.811,3.25,0.245,4.832l-63.247,176.2V89.387c0-4.115-3.171-7.703-7.284-7.826
	c-4.255-0.127-7.745,3.284-7.745,7.512v196.159c0.036,0.28-0.208,0.977-0.417,1.711c-0.582,2.044-2.097,3.769-4.135,4.37
	c-0.566,0.167-1.165,0.257-1.786,0.257h-33.677c-4.115,0-7.703,3.171-7.826,7.284c-0.127,4.255,3.284,7.745,7.512,7.745h26.301
	v18.944c0,18.866-15.294,34.16-34.16,34.16h-15.123c-4.115,0-7.703,3.171-7.826,7.284c-0.127,4.255,3.284,7.745,7.512,7.745h15.437
	c1.042,0,2.073-0.043,3.099-0.107V443.867z"/>
<path d="M213.669,359.703h-16.031c-4.151,0-7.515,3.364-7.515,7.515c0,4.151,3.364,7.515,7.515,7.515h16.031
	c4.151,0,7.515-3.364,7.515-7.515C221.184,363.066,217.819,359.703,213.669,359.703z"/>
<path d="M269.604,115.921c-0.283-0.305-0.573-0.605-0.869-0.901c-10.573-10.572-26.783-13.222-40.066-7.021
	c-13.284-6.202-29.496-3.55-40.066,7.021c-0.292,0.293-0.578,0.589-0.861,0.892c-12.622,13.524-12.266,34.662,0.811,48.119
	l34.728,35.741c1.415,1.456,3.36,2.277,5.39,2.277s3.975-0.822,5.39-2.277l34.728-35.741
	C281.862,150.572,282.218,129.437,269.604,115.921z M258.008,153.558l-29.338,30.194l-29.338-30.194
	c-7.484-7.702-7.747-19.734-0.604-27.388c0.164-0.176,0.332-0.35,0.504-0.522c3.914-3.914,9.168-5.942,14.454-5.942
	c3.788,0,7.594,1.042,10.929,3.18c2.472,1.583,5.638,1.583,8.11,0c7.988-5.119,18.664-3.959,25.384,2.762
	c0.168,0.167,0.332,0.337,0.5,0.518C265.754,133.824,265.49,145.855,258.008,153.558z"/>
<g>
</g>
<g>
</g>
<g>
</g>
<g>
</g>
<g>
</g>
<g>
</g>
<g>
</g>
<g>
</g>
<g>
</g>
<g>
</g>
<g>
</g>
<g>
</g>
<g>
</g>
<g>
</g>
<g>
</g>
</svg>
