<?xml version="1.0" encoding="iso-8859-1"?>
<!-- Generator: Adobe Illustrator 21.0.0, SVG Export Plug-In . SVG Version: 6.00 Build 0)  -->
<svg version="1.1" id="Capa_1" xmlns="http://www.w3.org/2000/svg" xmlns:xlink="http://www.w3.org/1999/xlink" x="0px" y="0px"
	 viewBox="0 0 512 512" style="enable-background:new 0 0 512 512;" xml:space="preserve">
<path style="fill:#85C255;" d="M427.096,76.5c12.134,0,21.927,10.062,21.486,22.294c-0.42,11.647-10.349,20.706-22.004,20.706
	h-24.482c12.134,0,21.927,10.062,21.486,22.294c-0.42,11.647-10.349,20.706-22.004,20.706h-35.482
	c12.134,0,21.927,10.062,21.486,22.294c-0.42,11.647-10.349,20.706-22.004,20.706H250.725c-16.949,0-30.688-13.74-30.688-30.688
	V151.51c0-15.72,5.21-31.05,15.05-43.25l0.99-1.17c15.86-18.7,39.51-30.59,65.95-30.59H427.096z"/>
<g>
	<path style="fill:#77B244;" d="M290.742,159.011c-20.179-14.264-43.893-22.642-68.692-24.217
		c-1.327,5.437-2.014,11.05-2.014,16.716v23.302c0,16.949,13.74,30.688,30.688,30.688h114.854c11.655,0,21.584-9.059,22.004-20.706
		c0.441-12.231-9.352-22.294-21.486-22.294h35.482c11.655,0,21.584-9.059,22.004-20.706c0.092-2.55-0.267-5.004-0.993-7.294H357.93
		C333.136,134.5,309.44,143.275,290.742,159.011z"/>
	<path style="fill:#77B244;" d="M446.729,89.229c-3.449,7.62-11.296,12.855-20.15,12.855h-67.394c-0.402,0-0.729,0.326-0.729,0.729
		l0,0c0,9.216,7.471,16.686,16.686,16.686h51.436c11.671,0,21.86-9.535,22.016-21.206C448.637,95.063,447.966,91.992,446.729,89.229
		z"/>
</g>
<path style="fill:#EDE6F5;" d="M294.686,195.5c0,0-1.378-5.841-2.886-12.572c-20.63-18.893-48.117-30.428-78.3-30.428h-90
	c-64.07,0-116,51.94-116,116c0,44.97,25.59,83.96,63,103.21v27.59c0,19.99,16.21,36.2,36.2,36.2h64.6c19.99,0,36.2-16.21,36.2-36.2
	v-14.8h6c59.67,0,108.81-45.06,115.27-103h0.512L294.686,195.5z"/>
<path style="fill:#E0D3F2;" d="M109.109,399.3v-27.59c-37.41-19.25-63-58.24-63-103.21c0-64.06,51.93-116,116-116H123.5
	c-64.07,0-116,51.94-116,116c0,44.97,25.59,83.96,63,103.21v27.59c0,19.99,16.21,36.2,36.2,36.2h38.609
	C125.319,435.5,109.109,419.29,109.109,399.3z"/>
<path style="fill:#82DBBA;" d="M483,152.5c12.134,0,21.927,10.062,21.486,22.294c-0.42,11.647-10.349,20.706-22.004,20.706H458
	c12.134,0,21.927,10.062,21.486,22.294c-0.42,11.647-10.349,20.706-22.004,20.706H422c12.134,0,21.927,10.062,21.486,22.294
	c-0.42,11.647-10.349,20.706-22.004,20.706H306.628c-16.949,0-30.688-13.74-30.688-30.688V227.51c0-15.72,5.21-31.05,15.05-43.25
	l0.99-1.17c15.86-18.7,39.51-30.59,65.95-30.59H483z"/>
<g>
	<path style="fill:#5BD3A2;" d="M478.007,209.118c-3.22,8.107-11.324,13.764-20.525,13.764h-66.504
		c-0.985,0-1.783,0.798-1.783,1.783v3.127c0,5.914,4.794,10.708,10.708,10.708h57.578c11.435,0,21.266-8.716,21.975-20.129
		C479.661,215.091,479.127,211.957,478.007,209.118z"/>
	<path style="fill:#5BD3A2;" d="M421.482,265.882H306.628c-16.949,0-30.688-13.74-30.688-30.688v15.618
		c0,16.949,13.74,30.688,30.688,30.688h114.854c11.655,0,21.584-9.059,22.004-20.706c0.111-3.071-0.424-6.004-1.479-8.676
		C438.787,260.225,430.683,265.882,421.482,265.882z"/>
	<path style="fill:#5BD3A2;" d="M503.007,166.118c-3.22,8.107-11.324,13.764-20.525,13.764h-65.925
		c-1.438,0-2.604,1.166-2.604,2.604l0,0c0,7.187,5.827,13.014,13.014,13.014h55.515c11.434,0,21.265-8.716,21.975-20.128
		C504.661,172.091,504.127,168.957,503.007,166.118z"/>
</g>
<g>
	<circle style="fill:#CEC1E7;" cx="73.5" cy="248.5" r="37"/>
	<circle style="fill:#CEC1E7;" cx="191.5" cy="248.5" r="37"/>
</g>
<g>
	<path style="fill:#BCAFDD;" d="M93.331,277c-20.43,0-37-16.57-37-37c0-11.344,5.113-21.492,13.155-28.279
		C50.944,213.723,36.5,229.427,36.5,248.5c0,20.43,16.57,37,37,37c9.086,0,17.404-3.283,23.845-8.721
		C96.026,276.922,94.688,277,93.331,277z"/>
	<path style="fill:#BCAFDD;" d="M211.331,277c-20.43,0-37-16.57-37-37c0-11.344,5.113-21.492,13.155-28.279
		c-18.542,2.002-32.986,17.706-32.986,36.779c0,20.43,16.57,37,37,37c9.086,0,17.404-3.283,23.845-8.721
		C214.026,276.922,212.688,277,211.331,277z"/>
</g>
<path d="M73.5,204C48.962,204,29,223.963,29,248.5S48.962,293,73.5,293s44.5-19.963,44.5-44.5S98.038,204,73.5,204z M73.5,278
	C57.233,278,44,264.767,44,248.5S57.233,219,73.5,219s29.5,13.233,29.5,29.5S89.767,278,73.5,278z"/>
<path d="M192.5,293c24.538,0,44.5-19.963,44.5-44.5S217.038,204,192.5,204S148,223.963,148,248.5S167.962,293,192.5,293z M192.5,219
	c16.267,0,29.5,13.233,29.5,29.5S208.767,278,192.5,278S163,264.767,163,248.5S176.233,219,192.5,219z"/>
<path d="M125.197,305.196l-17,17c-2.929,2.93-2.929,7.678,0,10.607c2.929,2.928,7.678,2.928,10.606,0l11.697-11.697l11.697,11.697
	c1.464,1.464,3.384,2.196,5.303,2.196s3.839-0.732,5.303-2.196c2.929-2.93,2.929-7.678,0-10.607l-17-17
	C132.875,302.269,128.125,302.269,125.197,305.196z"/>
<path d="M512,174c0-15.99-13.009-29-29-29h-50.281c0.185-1.32,0.281-2.656,0.281-4c0-5.074-1.311-9.85-3.61-14.003
	C445.202,126.788,458,113.861,458,98c0-15.99-13.009-29-29-29H303.931c-27.411,0-53.387,11.934-71.267,32.741
	c-10.687,12.437-17.847,27.278-20.93,43.259H123.5C55.402,145,0,200.402,0,268.5c0,25.057,7.477,49.192,21.622,69.799
	c1.454,2.118,3.802,3.257,6.19,3.257c1.462,0,2.941-0.428,4.238-1.317c3.415-2.345,4.283-7.013,1.939-10.428
	C21.566,311.713,15,290.513,15,268.5C15,208.673,63.673,160,123.5,160h90c9.874,0,19.673,1.333,29.126,3.962
	c3.991,1.112,8.126-1.225,9.235-5.216c1.11-3.991-1.225-8.126-5.216-9.235c-6.461-1.797-13.063-3.051-19.738-3.775
	c2.794-12.615,8.63-24.324,17.133-34.219C259.067,94.029,280.896,84,303.931,84H429c7.72,0,14,6.28,14,14s-6.28,14-14,14h-96.5
	c-4.142,0-7.5,3.357-7.5,7.5s3.358,7.5,7.5,7.5H404c7.72,0,14,6.28,14,14c0,1.361-0.204,2.706-0.595,4H357.93
	c-25.108,0-48.962,9.996-66.543,27.662c-4.684-3.809-9.65-7.279-14.832-10.363c-3.562-2.119-8.163-0.949-10.281,2.61
	c-2.118,3.56-0.95,8.162,2.61,10.28c4.49,2.672,8.791,5.682,12.857,8.974c-8.61,12.561-13.297,27.679-13.297,43.345V238.5
	c0,4.143,3.358,7.5,7.5,7.5s7.5-3.357,7.5-7.5v-10.991c0-14.599,5.016-28.577,14.115-39.413c0.048-0.054,0.1-0.102,0.146-0.156
	c15.049-17.756,37-27.939,60.225-27.939H483c7.72,0,14,6.28,14,14s-6.28,14-14,14h-80.5c-4.142,0-7.5,3.357-7.5,7.5
	s3.358,7.5,7.5,7.5c0,0,55.416,0,55.5,0c7.72,0,14,6.28,14,14s-6.28,14-14,14h-81.5c-4.142,0-7.5,3.357-7.5,7.5s3.358,7.5,7.5,7.5
	c0,0,45.416,0,45.5,0c7.72,0,14,6.28,14,14s-6.28,14-14,14H296.5c-4.142,0-7.5,3.357-7.5,7.5s3.358,7.5,7.5,7.5h23.557
	c-9.646,50.721-54.053,88-106.557,88h-26c-4.142,0-7.5,3.357-7.5,7.5s3.358,7.5,7.5,7.5H200v7.299c0,14.915-11.437,27.204-26,28.57
	V409.5c0-4.143-3.358-7.5-7.5-7.5s-7.5,3.357-7.5,7.5V428h-14.177v-18.5c0-4.143-3.358-7.5-7.5-7.5s-7.5,3.357-7.5,7.5V428h-14.177
	v-18.5c0-4.143-3.358-7.5-7.5-7.5s-7.5,3.357-7.5,7.5v17.852C87.719,424.563,78,413.047,78,399.299v-27.59
	c0-2.81-1.57-5.384-4.068-6.669c-7.59-3.905-14.729-8.722-21.221-14.315c-3.139-2.704-7.875-2.353-10.578,0.786
	c-2.704,3.138-2.352,7.873,0.786,10.577c6.215,5.355,12.953,10.085,20.081,14.099v23.112C63,423.396,82.604,443,106.701,443H171.3
	c24.096,0,43.7-19.604,43.7-43.701v-7.308c60.073-0.714,110.532-44.304,120.299-102.991H422c15.991,0,29-13.01,29-29
	c0-5.073-1.31-9.848-3.608-14H458c15.991,0,29-13.01,29-29c0-5.074-1.311-9.85-3.61-14.003C499.202,202.788,512,189.861,512,174z"/>
<g>
</g>
<g>
</g>
<g>
</g>
<g>
</g>
<g>
</g>
<g>
</g>
<g>
</g>
<g>
</g>
<g>
</g>
<g>
</g>
<g>
</g>
<g>
</g>
<g>
</g>
<g>
</g>
<g>
</g>
</svg>
