<?xml version="1.0" encoding="iso-8859-1"?>
<!-- Generator: Adobe Illustrator 21.0.0, SVG Export Plug-In . SVG Version: 6.00 Build 0)  -->
<svg version="1.1" id="Capa_1" xmlns="http://www.w3.org/2000/svg" xmlns:xlink="http://www.w3.org/1999/xlink" x="0px" y="0px"
	 viewBox="0 0 512.001 512.001" style="enable-background:new 0 0 512.001 512.001;" xml:space="preserve">
<path style="fill:#FFB90B;" d="M203.285,121.096h-55.876v299.983h55.876c82.838,0,149.991-67.153,149.991-149.991
	S286.123,121.096,203.285,121.096z"/>
<circle style="fill:#FFEA6E;" cx="156.956" cy="271.089" r="149.993"/>
<g>
	<path style="fill:#FFDE3B;" d="M179.582,241.945l98.694,117.336c18.026-24.754,28.669-55.229,28.669-88.195
		c0-41.832-17.131-79.657-44.753-106.862H216.45c-3.829,0-7.316,2.201-8.964,5.658l-29.267,61.399
		C176.542,234.796,177.076,238.965,179.582,241.945z"/>
	<path style="fill:#FFDE3B;" d="M214.063,401.491c-82.838,0-149.991-67.153-149.991-149.991c0-55.011,29.621-103.095,73.775-129.199
		C64.032,131.685,6.962,194.721,6.962,271.086c0,82.838,67.153,149.991,149.991,149.991c27.827,0,53.88-7.587,76.215-20.793
		C226.913,401.081,220.536,401.491,214.063,401.491z"/>
</g>
<circle style="fill:#F7D74F;" cx="154.546" cy="271.089" r="111.412"/>
<g>
	<path style="fill:#F2C91D;" d="M206.287,172.397l-28.069,58.884c-1.675,3.515-1.142,7.685,1.364,10.665l71.429,84.921
		c9.506-16.405,14.951-35.455,14.951-55.78C265.962,228.231,241.762,191.034,206.287,172.397z"/>
	<path style="fill:#F2C91D;" d="M182.292,365.639c-61.534,0-111.416-49.883-111.416-111.416c0-34.528,15.708-65.385,40.365-85.822
		C71.219,185.3,43.129,224.913,43.129,271.086c0,61.534,49.882,111.416,111.416,111.416c27.006,0,51.766-9.61,71.052-25.594
		C212.284,362.53,197.651,365.639,182.292,365.639z"/>
</g>
<path style="fill:#FFB90B;" d="M213.673,241.397l-0.7,12.184l-6.602,45.063c-0.49,2.961-3.051,5.121-6.042,5.121h-87.565
	c-2.991,0-5.552-2.161-6.042-5.121L100.3,253.3c-0.66-3.901,3.731-6.642,6.952-4.351l21.016,14.934
	c1.711,1.22,4.031,1.07,5.572-0.34l19.616-17.965c1.741-1.59,4.411-1.55,6.092,0.09l18.315,17.775c1.51,1.47,3.851,1.671,5.592,0.48
	l24.317-16.555L213.673,241.397z"/>
<polygon style="fill:#F7AA00;" points="209.472,277.48 212.973,253.58 213.673,241.397 207.771,247.369 192.747,257.597 "/>
<g>
	<path style="fill:#7CCAFD;" d="M400.707,112.42c1.931,0.94,1.62,3.731-0.43,4.351c-8.382,2.551-14.344,8.522-17.735,18.125
		c-0.71,2.011-3.571,2.081-4.361,0.1c-3.501-8.703-10.043-14.494-19.216-17.795c-1.951-0.7-2.121-3.391-0.26-4.301
		c8.612-4.231,15.184-10.583,19.376-19.386c0.87-1.801,3.491-1.73,4.261,0.12C385.813,101.967,392.024,108.158,400.707,112.42z"/>
	<path style="fill:#7CCAFD;" d="M149.634,206.447c1.931,0.94,1.62,3.731-0.43,4.351c-8.382,2.551-14.344,8.522-17.735,18.125
		c-0.71,2.011-3.571,2.081-4.361,0.1c-3.501-8.703-10.043-14.494-19.216-17.795c-1.951-0.7-2.121-3.391-0.26-4.301
		c8.612-4.231,15.184-10.583,19.376-19.386c0.87-1.801,3.491-1.73,4.261,0.12C134.74,195.994,140.952,202.186,149.634,206.447z"/>
	<polygon style="fill:#7CCAFD;" points="479.66,182.23 397.206,182.23 303.999,182.23 221.545,182.23 196.708,234.335 
		350.602,417.298 504.497,234.335 	"/>
</g>
<polygon style="fill:#67C4F9;" points="243.311,228.333 265.288,182.23 221.545,182.23 196.708,234.335 350.602,417.298 
	376.428,386.594 "/>
<g>
	<polygon style="fill:#43B0FC;" points="479.66,182.23 504.497,234.335 409.9,234.335 397.206,182.23 	"/>
	<polygon style="fill:#43B0FC;" points="409.599,234.335 350.602,417.298 291.605,234.335 	"/>
</g>
<polygon style="fill:#16A3F2;" points="318.491,317.713 350.602,417.298 364.917,372.907 "/>
<polygon style="fill:#43B0FC;" points="303.999,182.23 291.305,234.335 196.708,234.335 221.545,182.23 "/>
<polygon style="fill:#16A3F2;" points="196.708,234.335 248.36,234.335 243.311,228.333 265.288,182.23 221.545,182.23 "/>
<path d="M356.432,124.265c7.353,2.641,12.189,7.065,14.782,13.527c1.508,3.758,5.069,6.154,9.114,6.154
	c0.072,0,0.146-0.001,0.219-0.003c4.138-0.088,7.697-2.659,9.071-6.55c2.571-7.288,6.652-11.56,12.845-13.443
	c3.926-1.193,6.676-4.605,7.004-8.69c0.325-4.038-1.816-7.799-5.454-9.582c-0.001-0.001-0.001-0.001-0.001-0.001
	c-7.214-3.534-12.036-8.414-14.741-14.92c-1.486-3.576-4.953-5.953-8.833-6.054c-3.833-0.104-7.455,2.089-9.125,5.583
	c-3.381,7.083-8.585,12.275-15.913,15.875c-3.551,1.745-5.703,5.425-5.483,9.373C350.139,119.495,352.695,122.921,356.432,124.265z
	 M380.019,104.824c2.446,3.422,5.416,6.467,8.895,9.119c-3.497,2.383-6.477,5.446-8.924,9.176c-2.608-3.387-5.794-6.275-9.54-8.651
	C374.122,111.698,377.317,108.479,380.019,104.824z"/>
<path d="M105.359,218.292c7.353,2.641,12.189,7.065,14.782,13.527c1.508,3.758,5.069,6.154,9.114,6.154
	c0.072,0,0.146-0.001,0.219-0.003c4.138-0.088,7.697-2.659,9.071-6.55c2.571-7.288,6.652-11.56,12.845-13.443
	c3.926-1.193,6.676-4.605,7.004-8.689c0.325-4.038-1.816-7.799-5.454-9.582c-0.001-0.001-0.001-0.001-0.001-0.001
	c-7.214-3.534-12.036-8.414-14.741-14.92c-1.486-3.576-4.953-5.953-8.833-6.054c-3.844-0.096-7.455,2.09-9.125,5.583
	c-3.381,7.083-8.585,12.275-15.913,15.875c-3.551,1.745-5.703,5.425-5.483,9.373C99.067,213.522,101.622,216.948,105.359,218.292z
	 M128.946,198.852c2.446,3.422,5.416,6.467,8.895,9.119c-3.497,2.383-6.477,5.446-8.924,9.176c-2.608-3.387-5.794-6.275-9.54-8.65
	C123.05,205.726,126.244,202.507,128.946,198.852z"/>
<path d="M511.271,231.106l-24.834-52.103c-1.244-2.612-3.88-4.274-6.773-4.274H329.18c-13.95-17.921-31.843-32.808-51.973-43.19
	c-21.979-11.335-46.755-17.327-71.648-17.327h-49.014C70.226,114.211,0,184.437,0,270.756c0,37.604,13.532,73.957,38.105,102.364
	c1.482,1.715,3.574,2.595,5.677,2.595c1.74,0,3.486-0.602,4.904-1.829c3.134-2.71,3.477-7.447,0.766-10.581
	c-22.213-25.682-34.447-58.551-34.447-92.55c0-78.046,63.495-141.541,141.541-141.541c22.848,0,44.652,5.275,64.807,15.678
	c14.618,7.545,27.931,17.723,39.143,29.836h-31.139c-21.082-16.028-46.19-24.507-72.811-24.507
	c-66.463,0-120.535,54.072-120.535,120.535S90.083,391.29,156.546,391.29c24.728,0,48.493-7.435,68.725-21.501
	c16.394-11.398,29.541-26.471,38.538-44.024l14.482,17.217c-25.479,42.879-71.679,69.314-121.744,69.314
	c-31.535,0-61.38-10.153-86.307-29.362c-3.284-2.533-7.994-1.919-10.522,1.362c-2.529,3.282-1.92,7.992,1.362,10.522
	c27.576,21.25,60.588,32.482,95.466,32.482h49.014c40.547,0,78.441-15.155,107.61-42.85l31.691,37.677
	c1.425,1.693,3.526,2.673,5.741,2.673s4.315-0.979,5.741-2.673L510.24,239.162c0.007-0.008,0.565-0.765,0.604-0.825
	C512.217,236.159,512.378,233.43,511.271,231.106z M226.275,189.732h68.171l-9.038,37.099h-76.816L226.275,189.732z
	 M391.314,189.732l9.038,37.099h-99.5l9.038-37.099H391.314z M399.294,241.835l-48.692,151.016L301.91,241.835L399.294,241.835
	L399.294,241.835z M415.059,241.835h73.325L369.478,383.202L415.059,241.835z M492.612,226.831h-76.816l-9.038-37.099h68.171
	L492.612,226.831z M228.235,131.558c-0.539-0.278-1.086-0.538-1.628-0.809c15.222,2.252,29.863,6.975,43.725,14.124
	c14.632,7.547,27.958,17.733,39.18,29.856h-29.343C266.226,156.819,248.347,141.939,228.235,131.558z M216.707,357.469
	c-17.706,12.311-38.509,18.817-60.16,18.817c-58.19,0-105.531-47.341-105.531-105.531s47.341-105.531,105.531-105.531
	c20.475,0,39.925,5.732,56.861,16.632l-23.474,49.248c-1.107,2.324-0.946,5.054,0.428,7.231c0.075,0.119,6.26,7.55,6.26,7.55
	l-15.324,10.434l-16.521-16.039c-4.531-4.398-11.728-4.504-16.387-0.237l-17.79,16.294l-19.003-13.507
	c-3.948-2.805-9.152-2.959-13.257-0.389c-4.073,2.551-6.209,7.243-5.463,11.982l6.411,45.274c0.009,0.063,0.019,0.126,0.029,0.188
	c1.104,6.594,6.761,11.38,13.446,11.38h87.562c6.686,0,12.342-4.786,13.446-11.38c0.009-0.051,0.017-0.103,0.024-0.153l4.17-28.468
	l10.125,12.037c1.483,1.765,3.606,2.673,5.745,2.673c1.704,0,3.419-0.578,4.825-1.761c3.171-2.667,3.579-7.399,0.911-10.57
	c0,0-26.325-31.422-26.746-31.808h73.316l45.584,141.365l-72.828-86.585c-2.666-3.171-7.399-3.581-10.57-0.911
	c-3.171,2.667-3.579,7.399-0.911,10.57l5.789,6.882C245.378,331,232.831,346.258,216.707,357.469z M204.664,258.563l-5.523,37.7
	h-85.185l-5.25-37.077l15.216,10.815c4.558,3.241,10.863,2.853,14.987-0.928l17.485-16.015l16.24,15.767
	c4.05,3.933,10.378,4.48,15.042,1.303L204.664,258.563z M226.546,410.765c24.949-12.478,46.473-31.558,61.915-55.692l15.029,17.869
	C282.116,393.485,255.479,406.516,226.546,410.765z"/>
<g>
</g>
<g>
</g>
<g>
</g>
<g>
</g>
<g>
</g>
<g>
</g>
<g>
</g>
<g>
</g>
<g>
</g>
<g>
</g>
<g>
</g>
<g>
</g>
<g>
</g>
<g>
</g>
<g>
</g>
</svg>
