<?xml version="1.0" encoding="iso-8859-1"?>
<!-- Generator: Adobe Illustrator 21.0.0, SVG Export Plug-In . SVG Version: 6.00 Build 0)  -->
<svg version="1.1" id="Capa_1" xmlns="http://www.w3.org/2000/svg" xmlns:xlink="http://www.w3.org/1999/xlink" x="0px" y="0px"
	 viewBox="0 0 512 512" style="enable-background:new 0 0 512 512;" xml:space="preserve">
<path style="fill:#65657F;" d="M504.5,206.831v189.84c0,14.96-12.12,27.08-27.08,27.08H34.58c-14.96,0-27.08-12.12-27.08-27.08
	v-189.84c0-14.96,12.12-27.08,27.08-27.08h150.59h140.66h151.59C492.38,179.751,504.5,191.871,504.5,206.831z"/>
<path style="fill:#5B5B72;" d="M70.883,390.251c-14.96,0-27.08-12.12-27.08-27.08v-183.42H34.58c-14.96,0-27.08,12.12-27.08,27.08
	v189.84c0,14.96,12.12,27.08,27.08,27.08h442.84c14.96,0,27.08-12.12,27.08-27.08v-6.42L70.883,390.251L70.883,390.251z"/>
<path style="fill:#82DBBA;" d="M432.5,206.831v189.84c0,1.15-0.93,2.08-2.08,2.08H76.58c-1.15,0-2.08-0.93-2.08-2.08v-189.84
	c0-1.15,0.93-2.08,2.08-2.08H162h187h81.42C431.57,204.751,432.5,205.681,432.5,206.831z"/>
<path style="fill:#5BCE95;" d="M281.29,374.541c-93.772,0-169.79-76.018-169.79-169.79l0,0H76.58c-1.149,0-2.08,0.931-2.08,2.08
	v189.84c0,1.149,0.931,2.08,2.08,2.08h353.84c1.149,0,2.08-0.931,2.08-2.08v-22.13H281.29z"/>
<circle style="fill:#32314B;" cx="466.5" cy="301.751" r="14"/>
<g>
	<path style="fill:#54546D;" d="M40.5,349.251c-4.142,0-7.5-3.357-7.5-7.5v-37c0-4.143,3.358-7.5,7.5-7.5s7.5,3.357,7.5,7.5v37
		C48,345.894,44.642,349.251,40.5,349.251z"/>
	<path style="fill:#54546D;" d="M40.5,287.251c-4.142,0-7.5-3.357-7.5-7.5v-18c0-4.143,3.358-7.5,7.5-7.5s7.5,3.357,7.5,7.5v18
		C48,283.894,44.642,287.251,40.5,287.251z"/>
</g>
<g>
	<path style="fill:#AB9DD6;" d="M328.5,216.391v25.75c0,2.54-2.07,4.61-4.61,4.61h-11.78c-2.54,0-4.61-2.07-4.61-4.61v-28.17
		L328.5,216.391z"/>
	<path style="fill:#AB9DD6;" d="M205.5,213.741v28.4c0,2.54-2.07,4.61-4.61,4.61h-11.78c-2.54,0-4.61-2.07-4.61-4.61v-25.98
		L205.5,213.741z"/>
</g>
<path style="fill:#FE4583;" d="M345.24,190.641l-65.74-36.89h-48l-65.74,36.89c-2.32,1.3-3.76,3.76-3.76,6.42v23.43
	c0,4.4,3.83,7.82,8.2,7.32l14.3-1.65l21-2.42l26-2.99h48l28,3.22l21,2.42l12.3,1.42c4.37,0.5,8.2-2.92,8.2-7.32v-23.43
	C349,194.401,347.56,191.941,345.24,190.641z"/>
<path style="fill:#FC3268;" d="M340.8,203.757l-12.3-1.42l-21-2.42l-28-3.22h-48l-26,2.99l-21,2.42l-14.3,1.65
	c-4.254,0.486-7.985-2.744-8.181-6.974c-0.004,0.093-0.019,0.185-0.019,0.278v23.43c0,4.4,3.83,7.82,8.2,7.32l14.3-1.65l21-2.42
	l26-2.99h48l28,3.22l21,2.42l12.3,1.42c4.37,0.5,8.2-2.92,8.2-7.32v-23.43c0-0.094-0.015-0.185-0.019-0.278
	C348.785,201.013,345.054,204.243,340.8,203.757z"/>
<path style="fill:#AB9DD6;" d="M268.5,253.751v22.62c0,3.52-2.86,6.38-6.38,6.38h-13.24c-3.52,0-6.38-2.86-6.38-6.38v-22.62H268.5z"
	/>
<path style="fill:#8E81C6;" d="M254.5,276.371v-22.62h-12v22.62c0,3.52,2.86,6.38,6.38,6.38h12
	C257.36,282.751,254.5,279.891,254.5,276.371z"/>
<path style="fill:#EDE6F5;" d="M279.5,125.751v125.51c0,4.14-3.35,7.49-7.49,7.49h-33.02c-4.14,0-7.49-3.35-7.49-7.49v-125.51H279.5
	z"/>
<path style="fill:#AB9DD6;" d="M267.88,92.691l11.62,33.06h-48l11.62-33.06c0.94-2.66,3.45-4.44,6.27-4.44h12.22
	C264.43,88.251,266.94,90.031,267.88,92.691z"/>
<path style="fill:#E0D3F2;" d="M255.5,251.261v-125.51h-24v125.51c0,4.14,3.35,7.49,7.49,7.49h24
	C258.85,258.751,255.5,255.401,255.5,251.261z"/>
<path style="fill:#8E81C6;" d="M267.5,91.835c-1.133-2.177-3.386-3.584-5.89-3.584h-12.22c-2.82,0-5.33,1.78-6.27,4.44l-11.62,33.06
	h24l11.62-33.06C267.225,92.393,267.357,92.109,267.5,91.835z"/>
<path style="fill:#FE4583;" d="M279.5,295.641v4.93c0,2.31-1.87,4.18-4.18,4.18h-39.64c-2.31,0-4.18-1.87-4.18-4.18v-4.93
	c0-7.12,5.77-12.89,12.89-12.89h22.22C273.73,282.751,279.5,288.521,279.5,295.641z"/>
<path d="M477.423,172.251H327.794L287,149.359c0,0-0.087-24.693-0.094-24.738c-0.002,0-0.174-0.913-0.331-1.358l-11.623-33.059
	c-1.987-5.655-7.351-9.454-13.345-9.454h-12.215c-5.994,0-11.357,3.799-13.345,9.454l-11.623,33.059
	c-0.213,0.607-0.34,1.231-0.393,1.858c-0.018,0.208-0.032,24.237-0.032,24.237l-40.794,22.892H34.578
	C15.512,172.251,0,187.763,0,206.828v189.846c0,19.065,15.512,34.577,34.578,34.577h442.845c19.065,0,34.577-15.512,34.577-34.577
	V206.828C512,187.763,496.488,172.251,477.423,172.251z M287,166.56c0.013,0.007,54.487,30.576,54.5,30.583l0,0v23.195l0,0
	c-0.002,0,0.002,0,0,0l-54.5-6.273V166.56L287,166.56z M315,232.387l6,0.69v6.173h-6V232.387z M239,251.264L239,251.264V133.251l0,0
	h33.001l0,0c0,0.022,0-0.022,0,0l0.02,118c0,0.112-0.005-0.111,0,0l0,0L239,251.264C238.991,251.264,239.009,251.264,239,251.264
	 M261,275.251h-11v-9h11V275.251z M239,295.64c0-2.972,2.417-5.389,5.389-5.389l0,0h22.223l0,0c2.972,0,5.389,2.417,5.389,5.389
	v1.611h-33v-1.611H239z M249.997,95.751h11.005l7.911,22.5h-26.826L249.997,95.751z M224,214.064L224,214.064
	C223.995,214.065,224.005,214.064,224,214.064l-54.5,6.273v-23.195l0,0c0.012-0.006,54.488-30.576,54.5-30.583l0,0V214.064z
	 M192,232.848l6-0.691v7.094h-6V232.848z M497,396.674c0,10.795-8.782,19.577-19.577,19.577H34.578
	c-10.795,0-19.578-8.782-19.578-19.577V206.828c0-10.795,8.783-19.577,19.578-19.577h123.626c-2.348,2.673-3.704,6.148-3.704,9.811
	v0.189H76.577c-5.281,0-9.577,4.296-9.577,9.577v189.846c0,5.281,4.296,9.577,9.577,9.577h47.695c4.142,0,7.5-3.357,7.5-7.5
	s-3.358-7.5-7.5-7.5H82v-179h72.5v8.243c0,4.232,1.812,8.275,4.972,11.093c2.735,2.438,6.266,3.768,9.894,3.768
	c0.563,0,1.13-0.032,1.695-0.097l5.939-0.684v7.563c0,6.68,5.434,12.113,12.113,12.113h11.774c6.679,0,12.113-5.434,12.113-12.113
	v-11.708l11-1.266v22.1c0,6.881,4.668,12.68,11,14.432v10.671c0,0.393,0.027,0.78,0.059,1.165
	C228.501,280.925,224,287.761,224,295.64v4.931c0,6.44,5.24,11.681,11.681,11.681h39.639c6.44,0,11.681-5.24,11.681-11.681v-4.931
	c0-7.879-4.501-14.715-11.059-18.108c0.032-0.385,0.059-0.771,0.059-1.165v-10.671c6.332-1.752,11-7.551,11-14.432v-22.1l13,1.497
	v11.477c0,6.68,5.434,12.113,12.113,12.113h11.773c6.68,0,12.113-5.434,12.113-12.113v-7.333l3.939,0.454
	c0.565,0.064,1.132,0.097,1.695,0.097c3.627,0,7.159-1.33,9.894-3.768c3.159-2.817,4.972-6.86,4.972-11.093v-8.243H425v179H154.272
	c-4.142,0-7.5,3.357-7.5,7.5s3.358,7.5,7.5,7.5h276.15c5.281,0,9.577-4.296,9.577-9.577V206.828c0-5.281-4.296-9.577-9.577-9.577
	H356.5v-0.189c0-3.663-1.356-7.137-3.703-9.811h124.626c10.795,0,19.577,8.782,19.577,19.577V396.674z"/>
<path d="M466.5,280.251c-11.855,0-21.5,9.645-21.5,21.5s9.645,21.5,21.5,21.5s21.5-9.645,21.5-21.5S478.355,280.251,466.5,280.251z
	 M466.5,308.251c-3.584,0-6.5-2.916-6.5-6.5s2.916-6.5,6.5-6.5s6.5,2.916,6.5,6.5S470.084,308.251,466.5,308.251z"/>
<path d="M40.5,297.251c-4.142,0-7.5,3.357-7.5,7.5v37c0,4.143,3.358,7.5,7.5,7.5s7.5-3.357,7.5-7.5v-37
	C48,300.608,44.642,297.251,40.5,297.251z"/>
<path d="M40.5,254.251c-4.142,0-7.5,3.357-7.5,7.5v18c0,4.143,3.358,7.5,7.5,7.5s7.5-3.357,7.5-7.5v-18
	C48,257.608,44.642,254.251,40.5,254.251z"/>
<path d="M194.5,342.251c4.142,0,7.5-3.357,7.5-7.5v-25c0-4.143-3.358-7.5-7.5-7.5s-7.5,3.357-7.5,7.5v25
	C187,338.894,190.358,342.251,194.5,342.251z"/>
<path d="M318.5,342.251c4.143,0,7.5-3.357,7.5-7.5v-25c0-4.143-3.357-7.5-7.5-7.5s-7.5,3.357-7.5,7.5v25
	C311,338.894,314.357,342.251,318.5,342.251z"/>
<path d="M256.5,381.251c4.143,0,7.5-3.357,7.5-7.5v-25c0-4.143-3.357-7.5-7.5-7.5c-4.142,0-7.5,3.357-7.5,7.5v25
	C249,377.894,252.358,381.251,256.5,381.251z"/>
<path d="M255.5,218.251c4.143,0,7.5-3.357,7.5-7.5v-18c0-4.143-3.357-7.5-7.5-7.5c-4.142,0-7.5,3.357-7.5,7.5v18
	C248,214.894,251.358,218.251,255.5,218.251z"/>
<path d="M255.5,177.251c4.143,0,7.5-3.357,7.5-7.5v-19c0-4.143-3.357-7.5-7.5-7.5c-4.142,0-7.5,3.357-7.5,7.5v19
	C248,173.894,251.358,177.251,255.5,177.251z"/>
<g>
</g>
<g>
</g>
<g>
</g>
<g>
</g>
<g>
</g>
<g>
</g>
<g>
</g>
<g>
</g>
<g>
</g>
<g>
</g>
<g>
</g>
<g>
</g>
<g>
</g>
<g>
</g>
<g>
</g>
</svg>
