<svg height="512" viewBox="0 0 74 74" width="512" xmlns="http://www.w3.org/2000/svg"><g id="line_color" data-name="line color"><path d="m39.679 6.183 8.192 16.6a2.987 2.987 0 0 0 2.249 1.634l18.318 2.662a2.987 2.987 0 0 1 1.656 5.1l-13.255 12.916a2.987 2.987 0 0 0 -.859 2.644l3.129 18.244a2.987 2.987 0 0 1 -4.335 3.149l-16.384-8.613a2.987 2.987 0 0 0 -2.78 0l-16.385 8.614a2.987 2.987 0 0 1 -4.335-3.149l3.13-18.245a2.987 2.987 0 0 0 -.859-2.644l-13.256-12.921a2.987 2.987 0 0 1 1.656-5.1l18.318-2.662a2.987 2.987 0 0 0 2.249-1.634l8.192-16.6a2.987 2.987 0 0 1 5.359.005z" fill="#fcd462"/><path d="m70.095 32.174a2.987 2.987 0 0 0 -1.656-5.1l-18.318-2.658a2.987 2.987 0 0 1 -2.249-1.634l-8.192-16.6a2.97 2.97 0 0 0 -5.18-.265 2.924 2.924 0 0 1 .856 1.016l8.192 16.6a2.987 2.987 0 0 0 2.252 1.633l18.318 2.662a2.987 2.987 0 0 1 1.656 5.1l-13.255 12.917a2.987 2.987 0 0 0 -.859 2.644l3.129 18.244a2.928 2.928 0 0 1 -.463 2.164l.448.236a2.987 2.987 0 0 0 4.335-3.149l-3.129-18.245a2.987 2.987 0 0 1 .859-2.644z" fill="#f7be56"/><g fill="#323c6b"><path d="m33.9 39.31a.5.5 0 0 1 -.16-.026l-1.895-.642a.5.5 0 1 1 .32-.947l1.895.642a.5.5 0 0 1 -.16.974z"/><path d="m28.75 37.564a.5.5 0 0 1 -.16-.026l-3.256-1.1a.5.5 0 1 1 .32-.947l3.256 1.1a.5.5 0 0 1 -.16.974zm-6.512-2.208a.5.5 0 0 1 -.16-.026l-3.256-1.1a.5.5 0 1 1 .32-.947l3.256 1.1a.5.5 0 0 1 -.16.974zm-6.511-2.206a.5.5 0 0 1 -.16-.026l-3.257-1.1a.5.5 0 1 1 .32-.947l3.257 1.1a.5.5 0 0 1 -.16.974z"/><path d="m9.214 30.942a.5.5 0 0 1 -.16-.026l-1.894-.643a.5.5 0 1 1 .32-.947l1.894.642a.5.5 0 0 1 -.16.974z"/><path d="m64.786 30.942a.5.5 0 0 1 -.16-.974l1.894-.642a.5.5 0 1 1 .32.947l-1.894.642a.5.5 0 0 1 -.16.027z"/><path d="m45.25 37.564a.5.5 0 0 1 -.16-.974l3.257-1.1a.5.5 0 1 1 .32.947l-3.257 1.1a.5.5 0 0 1 -.16.027zm6.513-2.208a.5.5 0 0 1 -.16-.974l3.256-1.1a.5.5 0 1 1 .32.947l-3.256 1.1a.5.5 0 0 1 -.16.028zm6.512-2.208a.5.5 0 0 1 -.16-.974l3.256-1.1a.5.5 0 1 1 .32.947l-3.256 1.1a.5.5 0 0 1 -.161.028z"/><path d="m40.1 39.31a.5.5 0 0 1 -.16-.974l1.895-.642a.5.5 0 1 1 .32.947l-1.895.642a.5.5 0 0 1 -.16.027z"/><path d="m33.858 44.6a.5.5 0 0 1 -.4-.8l1.191-1.606a.5.5 0 0 1 .8.6l-1.189 1.6a.5.5 0 0 1 -.402.206z"/><path d="m23.926 57.978a.5.5 0 0 1 -.4-.8l2.482-3.345a.5.5 0 1 1 .8.6l-2.482 3.345a.5.5 0 0 1 -.4.2zm4.966-6.691a.5.5 0 0 1 -.4-.8l2.483-3.346a.5.5 0 1 1 .8.6l-2.483 3.346a.5.5 0 0 1 -.4.2z"/><path d="m20.25 62.93a.5.5 0 0 1 -.4-.8l1.192-1.606a.5.5 0 1 1 .8.6l-1.192 1.606a.5.5 0 0 1 -.4.2z"/><path d="m37 37.08a.5.5 0 0 1 -.5-.5v-2a.5.5 0 0 1 1 0v2a.5.5 0 0 1 -.5.5z"/><path d="m37 30.878a.5.5 0 0 1 -.5-.5v-4.2a.5.5 0 0 1 1 0v4.2a.5.5 0 0 1 -.5.5zm0-8.4a.5.5 0 0 1 -.5-.5v-4.2a.5.5 0 0 1 1 0v4.2a.5.5 0 0 1 -.5.496z"/><path d="m37 14.07a.5.5 0 0 1 -.5-.5v-2a.5.5 0 0 1 1 0v2a.5.5 0 0 1 -.5.5z"/><path d="m53.75 62.93a.5.5 0 0 1 -.4-.2l-1.192-1.606a.5.5 0 0 1 .8-.6l1.192 1.606a.5.5 0 0 1 -.4.8z"/><path d="m50.075 57.979a.5.5 0 0 1 -.4-.2l-2.485-3.348a.5.5 0 1 1 .8-.6l2.483 3.346a.5.5 0 0 1 -.4.8zm-4.967-6.691a.5.5 0 0 1 -.4-.2l-2.483-3.348a.5.5 0 1 1 .8-.6l2.482 3.345a.5.5 0 0 1 -.4.8z"/><path d="m40.142 44.6a.5.5 0 0 1 -.4-.2l-1.191-1.606a.5.5 0 0 1 .8-.6l1.192 1.606a.5.5 0 0 1 -.4.8z"/><path d="m37 43.645a3.781 3.781 0 1 1 3.78-3.781 3.785 3.785 0 0 1 -3.78 3.781zm0-6.561a2.781 2.781 0 1 0 2.78 2.78 2.783 2.783 0 0 0 -2.78-2.781z"/><path d="m12.592 61.132a.532.532 0 0 1 -.084-.007.5.5 0 0 1 -.41-.577l.2-1.166a.511.511 0 0 1 .576-.41.5.5 0 0 1 .41.577l-.2 1.166a.5.5 0 0 1 -.492.417z"/><path d="m13.193 57.574a.541.541 0 0 1 -.084-.007.5.5 0 0 1 -.41-.577l1.379-8.163a.508.508 0 0 1 .576-.41.5.5 0 0 1 .41.577l-1.379 8.163a.5.5 0 0 1 -.492.417z"/><path d="m24.409 20a.494.494 0 0 1 -.221-.052.5.5 0 0 1 -.228-.669l.57-1.157a.5.5 0 0 1 .9.442l-.57 1.157a.5.5 0 0 1 -.451.279z"/><path d="m62.787 23.721a.442.442 0 0 1 -.072-.005l-.744-.108a.5.5 0 1 1 .143-.989l.744.108a.5.5 0 0 1 -.07.995z"/><path d="m73.7 28.685a.5.5 0 0 1 -.476-.345 5.457 5.457 0 0 0 -4.424-3.74l-3.2-.471a.5.5 0 1 1 .145-.989l3.2.471a6.451 6.451 0 0 1 5.235 4.419.5.5 0 0 1 -.476.655z"/></g><path d="m43.749 59.467a.646.646 0 0 1 -.3-.074l-.719-.377a.65.65 0 0 1 .6-1.151l.719.377a.65.65 0 0 1 -.3 1.226z" fill="#fff"/><path d="m30.5 59.337a.65.65 0 0 1 -.3-1.225l3.253-1.71a7.764 7.764 0 0 1 7.086-.01.65.65 0 0 1 -.6 1.153 6.439 6.439 0 0 0 -5.879.007l-3.26 1.711a.648.648 0 0 1 -.3.074z" fill="#fff"/><path d="m17.832 69.979a3.5 3.5 0 0 1 -3.432-4.079l3.129-18.245a2.484 2.484 0 0 0 -.714-2.2l-13.258-12.923a3.487 3.487 0 0 1 1.933-5.948l18.318-2.662a2.489 2.489 0 0 0 1.873-1.361l8.192-16.6a3.487 3.487 0 0 1 6.254 0l8.192 16.6a2.489 2.489 0 0 0 1.873 1.361l18.318 2.662a3.487 3.487 0 0 1 1.933 5.948l-13.255 12.921a2.483 2.483 0 0 0 -.714 2.2l3.126 18.247a3.488 3.488 0 0 1 -5.061 3.676l-16.381-8.615a2.488 2.488 0 0 0 -2.316 0l-16.384 8.614a3.483 3.483 0 0 1 -1.626.404zm19.168-64.961a2.442 2.442 0 0 0 -2.23 1.382l-8.193 16.6a3.486 3.486 0 0 1 -2.625 1.908l-18.318 2.665a2.488 2.488 0 0 0 -1.38 4.243l13.256 12.921a3.483 3.483 0 0 1 1 3.087l-3.126 18.244a2.488 2.488 0 0 0 3.609 2.622l16.384-8.614a3.491 3.491 0 0 1 3.246 0l16.384 8.614a2.488 2.488 0 0 0 3.609-2.622l-3.129-18.245a3.483 3.483 0 0 1 1-3.086l13.259-12.921a2.488 2.488 0 0 0 -1.38-4.243l-18.318-2.662a3.486 3.486 0 0 1 -2.625-1.911l-8.193-16.6a2.442 2.442 0 0 0 -2.23-1.382z" fill="#323c6b"/></g></svg>