<svg height="512" viewBox="0 0 74 74" width="512" xmlns="http://www.w3.org/2000/svg"><g id="line_color" data-name="line color"><path d="m46.508 24.662c.648-1.812 1.289-3.875.15-5.978a7.625 7.625 0 0 0 -3-2.74c-1.263-.57-2.676-.02-4.006-.272a15.615 15.615 0 0 1 -3.313-1.531 6.422 6.422 0 0 0 -5.381.023c-1.517.707-2.854 2.008-4.46 2.309-1.246.229-2.565-.169-3.751.3a4.19 4.19 0 0 0 -2.308 3.283 9.213 9.213 0 0 0 .538 4.351" fill="#fe7058"/><path d="m46.508 25.163a.5.5 0 0 1 -.471-.668c.671-1.875 1.189-3.711.182-5.572a7.105 7.105 0 0 0 -2.771-2.523 4.347 4.347 0 0 0 -2.075-.192 7.269 7.269 0 0 1 -1.817-.044 7.487 7.487 0 0 1 -2.316-.984c-.366-.206-.731-.414-1.108-.582a5.934 5.934 0 0 0 -4.966.019 13.845 13.845 0 0 0 -1.605.936 8.6 8.6 0 0 1 -2.973 1.412 8.134 8.134 0 0 1 -1.7.077 4.929 4.929 0 0 0 -1.963.2 3.712 3.712 0 0 0 -2 2.9 8.786 8.786 0 0 0 .508 4.087.5.5 0 0 1 -.928.373 9.769 9.769 0 0 1 -.567-4.618 4.664 4.664 0 0 1 2.617-3.667 5.742 5.742 0 0 1 2.359-.271 7.264 7.264 0 0 0 1.485-.06 7.759 7.759 0 0 0 2.616-1.271 14.811 14.811 0 0 1 1.723-1 6.933 6.933 0 0 1 5.8-.025c.4.18.8.4 1.189.623a6.682 6.682 0 0 0 2.006.871 6.4 6.4 0 0 0 1.576.029 5.2 5.2 0 0 1 2.547.279 8.177 8.177 0 0 1 3.244 2.954c1.2 2.222.6 4.373-.119 6.385a.5.5 0 0 1 -.473.332z" fill="#323c6b"/><path d="m41.213 52.128c.753.838 1.637 1.545 2.436 2.336a2.191 2.191 0 0 1 .853 1.66c-.108.861-1.053 1.283-1.76 1.775a5.888 5.888 0 0 1 -1.406.915c-1.337.438-2.851-.8-4.142-.246a4.762 4.762 0 0 1 -.945.438 1.743 1.743 0 0 1 -.63-.031c-1.491-.261-3.12-.738-4.434.015a11.6 11.6 0 0 0 -1.314 1.053 2.02 2.02 0 0 1 -1.552.53c-.845-.138-1.306-1.045-1.575-1.852a11.47 11.47 0 0 1 -.661-4.9" fill="#fe7058"/><path d="m28.547 61.094a1.82 1.82 0 0 1 -.318-.028c-.862-.141-1.524-.877-1.961-2.187a11.909 11.909 0 0 1 -.684-5.109.507.507 0 0 1 .553-.441.5.5 0 0 1 .441.553 10.908 10.908 0 0 0 .638 4.679c.31.931.707 1.441 1.183 1.519a1.578 1.578 0 0 0 1.161-.429c.145-.114.283-.237.422-.36a5.782 5.782 0 0 1 .952-.733c1.295-.743 2.813-.449 4.152-.191.208.04.414.08.618.116a1.323 1.323 0 0 0 .454.032 1.6 1.6 0 0 0 .44-.2 4.063 4.063 0 0 1 .4-.206 3.706 3.706 0 0 1 2.442.073 3.236 3.236 0 0 0 1.74.158 3.188 3.188 0 0 0 .874-.548c.132-.1.265-.206.4-.3s.283-.188.43-.282c.547-.349 1.063-.678 1.122-1.146.047-.44-.382-.92-.708-1.241-.311-.308-.634-.6-.956-.9a20.92 20.92 0 0 1 -1.5-1.462.5.5 0 0 1 .744-.669c.44.49.943.949 1.431 1.393.333.3.666.606.985.923a2.666 2.666 0 0 1 1 2.068 2.817 2.817 0 0 1 -1.577 1.874c-.135.086-.269.171-.395.259s-.241.178-.36.271a3.95 3.95 0 0 1 -1.174.708 4.047 4.047 0 0 1 -2.309-.14 2.886 2.886 0 0 0 -1.794-.121 3.1 3.1 0 0 0 -.3.156 2.371 2.371 0 0 1 -.754.314 2.185 2.185 0 0 1 -.812-.031c-.205-.036-.417-.077-.631-.118-1.226-.235-2.492-.48-3.464.076a4.99 4.99 0 0 0 -.787.614c-.153.136-.306.271-.466.4a2.674 2.674 0 0 1 -1.632.656z" fill="#323c6b"/><path d="m52.311 52.04a.5.5 0 0 1 -.294-.9 60.8 60.8 0 0 0 6.1-5.084.5.5 0 1 1 .688.726 61.869 61.869 0 0 1 -6.2 5.168.5.5 0 0 1 -.294.09z" fill="#323c6b"/><path d="m49.984 53.7a.5.5 0 0 1 -.267-.923l.47-.3a.5.5 0 1 1 .541.841l-.478.3a.5.5 0 0 1 -.266.082z" fill="#323c6b"/><path d="m26.472 13.714a.5.5 0 0 1 -.226-.946c.34-.171.747-.429 1.1-.658a.5.5 0 0 1 .541.842c-.468.3-.85.536-1.192.708a.5.5 0 0 1 -.223.054z" fill="#323c6b"/><path d="m39 12.552a.5.5 0 0 1 -.243-.064h-.007c-.4-.228-.86-.485-1.346-.7a8.978 8.978 0 0 0 -6.831-.253.5.5 0 1 1 -.344-.938 9.968 9.968 0 0 1 7.585.28c.526.235 1 .5 1.427.744a.5.5 0 0 1 .193.683.5.5 0 0 1 -.434.248z" fill="#323c6b"/><path d="m16.99 37.8a14.78 14.78 0 0 1 -4.37 10.9 60.184 60.184 0 0 1 -7.38-5.88 6.751 6.751 0 0 1 0-10.05 60.184 60.184 0 0 1 7.38-5.88 14.8 14.8 0 0 1 4.37 10.91z" fill="#ea6453"/><path d="m68.72 44.95c-1.82 1.35-5.91-1.02-9.78-2.73-5.41 5.18-15.55 13.06-27.17 13.06-7.21 0-13.85-3.04-19.15-6.58a14.78 14.78 0 0 0 4.37-10.9 14.8 14.8 0 0 0 -4.37-10.91c5.3-3.54 11.94-6.58 19.15-6.58 11.62 0 21.76 7.89 27.17 13.07 3.87-1.72 7.96-4.08 9.78-2.74 3.04 2.23 3.04 12.08 0 14.31z" fill="#fe7058"/><path d="m31.353 23.06c11.62 0 21.76 7.89 27.17 13.07 3.87-1.72 7.96-4.08 9.78-2.74 1.7 1.246 2.447 4.873 2.246 8.219.963-3.818.359-9.364-1.83-10.969-1.82-1.34-5.91 1.02-9.78 2.74-5.409-5.18-15.549-13.07-27.169-13.07-7.21 0-13.85 3.04-19.15 6.58a11.673 11.673 0 0 1 1.413 1.586c4.967-3.016 10.917-5.416 17.32-5.416z" fill="#ea6453"/><g fill="#323c6b"><circle cx="9.638" cy="35.683" r="1.489"/><path d="m25.414 41.659a.494.494 0 0 1 -.24-.062.5.5 0 0 1 -.2-.679c2.575-4.7.067-8.068.042-8.1a.5.5 0 1 1 .793-.608c.121.158 2.927 3.922.042 9.19a.5.5 0 0 1 -.437.259z"/><path d="m29.332 42.62a.494.494 0 0 1 -.24-.062.5.5 0 0 1 -.2-.679c3.183-5.812.073-9.981.042-10.023a.5.5 0 1 1 .793-.608c.146.19 3.534 4.735.042 11.112a.5.5 0 0 1 -.437.26z"/><path d="m33.523 41.659a.494.494 0 0 1 -.24-.062.5.5 0 0 1 -.2-.679c2.575-4.7.067-8.068.042-8.1a.5.5 0 1 1 .793-.608c.121.158 2.927 3.922.042 9.19a.5.5 0 0 1 -.437.259z"/><path d="m31.77 55.78c-6.271 0-12.807-2.242-19.427-6.664a.5.5 0 0 1 -.06-.785 14.352 14.352 0 0 0 4.207-10.531 14.363 14.363 0 0 0 -4.207-10.541.5.5 0 0 1 .06-.785c6.62-4.422 13.157-6.664 19.427-6.664 11.752 0 22.04 8.021 27.272 12.977.552-.249 1.106-.508 1.656-.766 3.377-1.58 6.565-3.074 8.318-1.783 1.83 1.343 2.483 4.784 2.483 7.556s-.652 6.213-2.482 7.558c-1.746 1.292-4.917-.187-8.275-1.756-.564-.264-1.134-.529-1.7-.784-5.228 4.953-15.511 12.968-27.272 12.968zm-18.354-7.154c6.274 4.084 12.447 6.154 18.354 6.154 11.6 0 21.785-8.1 26.825-12.922a.5.5 0 0 1 .548-.1c.672.3 1.351.614 2.023.928 2.944 1.375 5.989 2.795 7.256 1.858 1.242-.911 2.076-3.625 2.076-6.753s-.835-5.84-2.076-6.75c-1.274-.938-4.338.5-7.3 1.883-.657.308-1.321.618-1.979.911a.5.5 0 0 1 -.549-.1c-5.043-4.823-15.236-12.925-26.824-12.925-5.906 0-12.079 2.07-18.354 6.154a15.6 15.6 0 0 1 4.074 10.836 15.59 15.59 0 0 1 -4.074 10.826z"/><path d="m12.62 49.2a.5.5 0 0 1 -.278-.084 60.419 60.419 0 0 1 -7.442-5.93 7.249 7.249 0 0 1 0-10.786 60.357 60.357 0 0 1 7.442-5.929.5.5 0 0 1 .615.046 15.368 15.368 0 0 1 4.533 11.283 15.358 15.358 0 0 1 -4.533 11.27.5.5 0 0 1 -.337.13zm-.053-21.671a59.694 59.694 0 0 0 -6.986 5.607 6.249 6.249 0 0 0 0 9.317 59.77 59.77 0 0 0 6.986 5.607 14.5 14.5 0 0 0 3.923-10.26 14.513 14.513 0 0 0 -3.923-10.271z"/></g><path d="m21.073 37.657a.6.6 0 0 1 -.589-.49c-.062-.329-.076-.473-.152-.793a.6.6 0 1 1 1.166-.28c.082.339.1.5.166.853a.6.6 0 0 1 -.479.7.613.613 0 0 1 -.112.01z" fill="#fff"/><path d="m19.561 46.809a.6.6 0 0 1 -.545-.851 13.376 13.376 0 0 0 1.624-6.7.6.6 0 1 1 1.2 0 14.546 14.546 0 0 1 -1.733 7.2.6.6 0 0 1 -.546.351z" fill="#fff"/></g></svg>