<svg height="512" viewBox="0 0 74 74" width="512" xmlns="http://www.w3.org/2000/svg"><g id="line_color" data-name="line color"><path d="m51.395 59.275v8.418a2.213 2.213 0 0 1 -2.213 2.213h-24.364a2.213 2.213 0 0 1 -2.213-2.213v-8.6" fill="#9297ab"/><path d="m49.182 70.406h-24.364a2.716 2.716 0 0 1 -2.712-2.713v-8.6a.5.5 0 0 1 1 0v8.6a1.715 1.715 0 0 0 1.712 1.713h24.364a1.715 1.715 0 0 0 1.712-1.713v-8.419a.5.5 0 0 1 1 0v8.418a2.716 2.716 0 0 1 -2.712 2.714z" fill="#323c6b"/><path d="m69.643 34.711a32.4 32.4 0 0 1 -4.612 17.653h-.057l-21.737 11.674a13.192 13.192 0 0 1 -12.485 0l-21.726-11.674h-.057a32.619 32.619 0 0 1 27.383-49.358 32.862 32.862 0 0 1 33.291 31.705z" fill="#e1e6e9"/><g opacity=".5"><path d="m69.64 34.71a32.339 32.339 0 0 1 -4.61 17.65h-.06l-.33.18a32.367 32.367 0 0 0 3.04-14.7 32.661 32.661 0 0 0 -59.33-17.88 32.665 32.665 0 0 1 61.29 14.75z" fill="#d5d6db"/></g><path d="m22.594 59.655c3.042-3.589 8.351-5.958 14.4-5.958s11.37 2.37 14.4 5.958l-8.362 4.519a12.7 12.7 0 0 1 -12.077 0z" fill="#bbbbcd"/><path d="m36.994 66.207a13.2 13.2 0 0 1 -6.276-1.593l-8.362-4.514a.5.5 0 0 1 -.144-.763c3.256-3.841 8.782-6.135 14.781-6.135s11.538 2.293 14.782 6.135a.5.5 0 0 1 -.144.763l-8.361 4.519a13.2 13.2 0 0 1 -6.276 1.588zm-13.607-6.691 7.806 4.219a12.165 12.165 0 0 0 11.6 0l7.807-4.22c-3.1-3.34-8.135-5.318-13.608-5.318s-10.492 1.978-13.605 5.319z" fill="#323c6b"/><path d="m36.994 54.2a.5.5 0 0 1 -.493-.42l-8.052-49.575a.5.5 0 0 1 .987-.16l8.051 49.572a.5.5 0 0 1 -.494.58z" fill="#323c6b"/><path d="m32.455 54.657a.5.5 0 0 1 -.47-.33l-15.935-43.941a.5.5 0 1 1 .94-.341l15.935 43.942a.5.5 0 0 1 -.3.641.507.507 0 0 1 -.17.029z" fill="#323c6b"/><path d="m24.746 21.262a.65.65 0 0 1 -.611-.429l-.346-.954a.65.65 0 1 1 1.222-.443l.346.954a.651.651 0 0 1 -.611.872z" fill="#fff"/><path d="m28.575 31.82a.65.65 0 0 1 -.611-.429l-2.913-8.031a.65.65 0 1 1 1.222-.443l2.913 8.032a.65.65 0 0 1 -.389.833.642.642 0 0 1 -.222.038z" fill="#fff"/><g fill="#323c6b"><path d="m28.943 55.716a.5.5 0 0 1 -.423-.233l-21.348-33.783a.5.5 0 0 1 .846-.534l21.348 33.783a.5.5 0 0 1 -.422.767z"/><path d="m26.075 57.176a.5.5 0 0 1 -.348-.141l-21.727-21.013a.5.5 0 1 1 .7-.719l21.723 21.014a.5.5 0 0 1 -.348.859z"/><path d="m37 54.2a.5.5 0 0 1 -.494-.58l8.046-49.575a.5.5 0 0 1 .987.16l-8.051 49.572a.5.5 0 0 1 -.488.423z"/><path d="m41.535 54.657a.507.507 0 0 1 -.17-.03.5.5 0 0 1 -.3-.641l15.935-43.941a.5.5 0 1 1 .94.341l-15.94 43.942a.5.5 0 0 1 -.465.329z"/><path d="m45.045 55.716a.5.5 0 0 1 -.422-.767l21.348-33.782a.5.5 0 1 1 .846.534l-21.348 33.782a.5.5 0 0 1 -.424.233z"/><path d="m47.914 57.176a.5.5 0 0 1 -.348-.859l21.734-21.017a.5.5 0 1 1 .7.719l-21.739 21.017a.5.5 0 0 1 -.347.14z"/><circle cx="33.638" cy="59.275" r="1.4"/><circle cx="40.351" cy="59.275" r="1.4"/><path d="m16.7 60.4a.5.5 0 0 1 -.236-.06l-8.284-4.457a.5.5 0 1 1 .473-.883l8.289 4.453a.5.5 0 0 1 -.237.94z"/><path d="m6.125 53.917a.5.5 0 0 1 -.434-.25c-.258-.446-.494-.9-.729-1.36a.522.522 0 0 1 .2-.7.478.478 0 0 1 .662.192l.023.045c.229.443.457.886.707 1.319a.5.5 0 0 1 -.433.75z"/><path d="m61 9.841a.5.5 0 0 1 -.337-.13l-.233-.211c-.133-.125-.267-.249-.4-.368a.5.5 0 1 1 .656-.755c.146.127.288.259.429.391l.226.208a.5.5 0 0 1 -.337.87z"/><path d="m69.072 20.625a.5.5 0 0 1 -.45-.281 35.394 35.394 0 0 0 -5.316-7.95.5.5 0 1 1 .748-.663 36.381 36.381 0 0 1 5.466 8.175.5.5 0 0 1 -.449.719z"/><path d="m37 66.112a13.671 13.671 0 0 1 -6.48-1.635l-21.671-11.64a.538.538 0 0 1 -.309-.216 33.147 33.147 0 1 1 61.603-17.921 32.971 32.971 0 0 1 -4.683 17.921.5.5 0 0 1 -.347.236l-21.639 11.622a13.676 13.676 0 0 1 -6.474 1.633zm-27.7-14.167 21.689 11.655a12.658 12.658 0 0 0 12.011 0l21.7-11.655a31.969 31.969 0 0 0 4.444-17.219 32.156 32.156 0 1 0 -59.844 17.219z"/></g></g></svg>