<svg height="512" viewBox="0 0 74 74" width="512" xmlns="http://www.w3.org/2000/svg"><g id="line_color" data-name="line color"><path d="m25.655 17.719a10.744 10.744 0 1 0 -15.873 5" fill="#fcd462"/><path d="m25.631 35.7a10.741 10.741 0 1 0 -14.836-3.073" fill="#fcd462"/><g fill="#323c6b"><path d="m2.752 18.875a.5.5 0 0 1 -.471-.332 14.225 14.225 0 0 1 -.851-4.8 13.982 13.982 0 0 1 1.513-6.343.5.5 0 1 1 .893.449 13 13 0 0 0 -1.405 5.889 13.235 13.235 0 0 0 .792 4.468.5.5 0 0 1 -.471.668z"/><path d="m4.89 5.75a.5.5 0 0 1 -.39-.81c.164-.208.331-.411.5-.61a.5.5 0 0 1 .756.656c-.163.188-.32.379-.475.574a.5.5 0 0 1 -.391.19z"/><path d="m61.593 68.18a.5.5 0 0 1 -.42-.771 12.471 12.471 0 0 0 2.032-7.041v-.59a.5.5 0 0 1 .5-.5.5.5 0 0 1 .5.5v.591a13.447 13.447 0 0 1 -2.192 7.575.5.5 0 0 1 -.42.236z"/><path d="m59.125 71.05a.5.5 0 0 1 -.331-.875q.482-.426.92-.9a.5.5 0 1 1 .73.682q-.47.5-.988.963a.5.5 0 0 1 -.331.13z"/></g><circle cx="16.669" cy="41.62" fill="#fcd462" r="10.745"/><path d="m26.42 13.74a10.566 10.566 0 0 1 -.77 3.98l-1.28.4a10.741 10.741 0 0 0 -17.88-9.96 10.749 10.749 0 0 1 19.93 5.58z" fill="#f7be56"/><path d="m30.51 26.7a10.767 10.767 0 0 1 -4.77 8.93 10.74 10.74 0 0 0 -13.8-16.29 10.739 10.739 0 0 1 18.57 7.36z" fill="#f7be56"/><path d="m27.41 41.62a10.742 10.742 0 0 1 -10.74 10.74 10.6 10.6 0 0 1 -4.93-1.2 10.487 10.487 0 0 0 2.39.27 10.746 10.746 0 0 0 4.98-20.27 10.747 10.747 0 0 1 8.3 10.46z" fill="#f7be56"/><path d="m9.782 23.223a.5.5 0 0 1 -.274-.082 11.243 11.243 0 1 1 17.412-9.4 11.086 11.086 0 0 1 -.8 4.167.5.5 0 1 1 -.928-.374 10.087 10.087 0 0 0 .729-3.793 10.245 10.245 0 1 0 -15.863 8.566.5.5 0 0 1 -.274.918z" fill="#323c6b"/><path d="m25.631 36.2a.5.5 0 0 1 -.273-.918 10.241 10.241 0 1 0 -14.146-2.93.5.5 0 1 1 -.834.551 11.247 11.247 0 1 1 15.522 3.214.5.5 0 0 1 -.269.083z" fill="#323c6b"/><path d="m16.67 52.864a11.245 11.245 0 1 1 11.244-11.244 11.258 11.258 0 0 1 -11.244 11.244zm0-21.489a10.245 10.245 0 1 0 10.244 10.245 10.256 10.256 0 0 0 -10.244-10.245z" fill="#323c6b"/><path d="m41.995 23.987a10.747 10.747 0 0 1 19.074 9.889c-9.482 8.916-13.975-1.671-19.074-9.889z" fill="#fcd462"/><path d="m62.14 29.2a10.79 10.79 0 0 1 -1.07 4.68 19.274 19.274 0 0 1 -1.82 1.52 10.633 10.633 0 0 0 1.05-4.64 10.739 10.739 0 0 0 -16.75-8.9 10.74 10.74 0 0 1 18.59 7.34z" fill="#f7be56"/><path d="m54.4 37.764a6.183 6.183 0 0 1 -.866-.061c-4.307-.607-7.365-5.756-10.322-10.736-.543-.915-1.086-1.83-1.637-2.717a.5.5 0 0 1 -.013-.506 11.246 11.246 0 0 1 21.076 5.456 11.139 11.139 0 0 1 -1.118 4.895.5.5 0 0 1 -.107.146c-2.513 2.359-4.82 3.523-7.013 3.523zm-11.823-13.786c.5.813 1 1.646 1.49 2.479 2.837 4.777 5.77 9.716 9.6 10.256 2.119.3 4.406-.727 6.99-3.138a10.149 10.149 0 0 0 .979-4.376 10.246 10.246 0 0 0 -19.061-5.222z" fill="#323c6b"/><path d="m47.592 44.718a10.285 10.285 0 0 1 -2.426.282 10.745 10.745 0 1 1 10.727-11.2" fill="#fcd462"/><path d="m45.166 45.5a11.245 11.245 0 1 1 11.227-11.717.5.5 0 0 1 -.479.52.492.492 0 0 1 -.521-.479 10.243 10.243 0 1 0 -10.227 10.676 9.8 9.8 0 0 0 2.308-.269.5.5 0 1 1 .236.972 10.818 10.818 0 0 1 -2.544.297z" fill="#323c6b"/><path d="m59.378 54.951a10.737 10.737 0 1 0 -10.4-5.381" fill="#fcd462"/><path d="m69.07 44.26a10.741 10.741 0 0 1 -9.69 10.69l-.78-.4a10.743 10.743 0 0 0 -1.69-20.93 9.59 9.59 0 0 1 1.42-.1 10.742 10.742 0 0 1 10.74 10.74z" fill="#f7be56"/><path d="m59.377 55.451a.5.5 0 0 1 -.047-1 10.236 10.236 0 1 0 -9.915-5.131.5.5 0 0 1 -.869.5 11.248 11.248 0 1 1 10.88 5.63.409.409 0 0 1 -.049.001z" fill="#323c6b"/><circle cx="50.04" cy="60.255" fill="#fcd462" r="10.745"/><path d="m60.78 60.26a10.732 10.732 0 0 1 -19.39 6.35 10.736 10.736 0 0 0 15.64-14.51 10.7 10.7 0 0 1 3.75 8.16z" fill="#f7be56"/><path d="m50.04 71.5a11.245 11.245 0 1 1 11.244-11.245 11.257 11.257 0 0 1 -11.244 11.245zm0-21.489a10.245 10.245 0 1 0 10.244 10.244 10.256 10.256 0 0 0 -10.244-10.244z" fill="#323c6b"/><path d="m39.689 38.181a.649.649 0 0 1 -.559-.316 6.955 6.955 0 0 1 -.6-1.24.65.65 0 0 1 1.225-.438 5.663 5.663 0 0 0 .494 1.01.65.65 0 0 1 -.557.984z" fill="#fff"/><path d="m38.763 34.869a.65.65 0 0 1 -.647-.653 7.042 7.042 0 0 1 4.806-6.637.65.65 0 0 1 .414 1.232 5.739 5.739 0 0 0 -3.919 5.411.65.65 0 0 1 -.654.647z" fill="#fff"/></g></svg>