<svg height="512" viewBox="0 0 74 74" width="512" xmlns="http://www.w3.org/2000/svg"><g id="line_color" data-name="line color"><path d="m23.46 19.825h27.319a7.2 7.2 0 0 1 7.2 7.2v38.345a2.873 2.873 0 0 1 -2.873 2.873h-35.977a2.873 2.873 0 0 1 -2.873-2.873v-38.34a7.2 7.2 0 0 1 7.204-7.205z" fill="#eeefee"/><path d="m57.987 27.031a7.2 7.2 0 0 0 -7.2-7.2h-3.137a7.2 7.2 0 0 1 7.2 7.2v34.292a3.427 3.427 0 0 1 -3.427 3.427h-35.167v.62a2.873 2.873 0 0 0 2.873 2.873h35.981a2.873 2.873 0 0 0 2.873-2.873v-.224z" fill="#e1e6e9"/><path d="m24.517 16.617h25.204v3.208h-25.204z" fill="#e1e6e9"/><path d="m49.721 20.325h-25.2a.5.5 0 0 1 -.5-.5v-3.208a.5.5 0 0 1 .5-.5h25.2a.5.5 0 0 1 .5.5v3.208a.5.5 0 0 1 -.5.5zm-24.7-1h24.2v-2.208h-24.2z" fill="#323c6b"/><path d="m51.729 17.155h-29.219a1.952 1.952 0 0 1 -2.01-1.888v-9.623a1.952 1.952 0 0 1 2.01-1.888h29.219a1.952 1.952 0 0 1 2.011 1.888v9.623a1.952 1.952 0 0 1 -2.011 1.888z" fill="#bbbbcd"/><path d="m53.742 5.64v9.63a1.952 1.952 0 0 1 -2.012 1.884h-2.647a1.952 1.952 0 0 0 2.017-1.884v-9.63a1.952 1.952 0 0 0 -2.012-1.884h2.642a1.952 1.952 0 0 1 2.012 1.884z" fill="#9297ab"/><path d="m25.9 13.75a.5.5 0 0 1 -.5-.5v-5.588a.5.5 0 0 1 1 0v5.588a.5.5 0 0 1 -.5.5z" fill="#323c6b"/><path d="m31.511 13.75a.5.5 0 0 1 -.5-.5v-5.588a.5.5 0 1 1 1 0v5.588a.5.5 0 0 1 -.5.5z" fill="#323c6b"/><path d="m37.119 13.75a.5.5 0 0 1 -.5-.5v-5.588a.5.5 0 1 1 1 0v5.588a.5.5 0 0 1 -.5.5z" fill="#323c6b"/><path d="m42.728 13.75a.5.5 0 0 1 -.5-.5v-5.588a.5.5 0 1 1 1 0v5.588a.5.5 0 0 1 -.5.5z" fill="#323c6b"/><path d="m48.335 13.75a.5.5 0 0 1 -.5-.5v-5.588a.5.5 0 1 1 1 0v5.588a.5.5 0 0 1 -.5.5z" fill="#323c6b"/><path d="m25.167 46.426a2.227 2.227 0 0 1 -2.294-2.045c-.365-8.412 2.227-11.381 2.385-11.592a2.41 2.41 0 0 1 3.193-.554 2.036 2.036 0 0 1 .6 2.952c-.067.1-1.889 2.155-1.591 9.023a2.2 2.2 0 0 1 -2.2 2.215z" fill="#fe7058"/><path d="m47.617 43.81h-.094a2.2 2.2 0 0 1 -2.2-2.215c.3-6.916-1.563-8.984-1.592-9.024a2.043 2.043 0 0 1 .621-2.953 2.4 2.4 0 0 1 3.178.556c.153.208 2.75 3.179 2.384 11.592a2.227 2.227 0 0 1 -2.297 2.044z" fill="#27ccbc"/><path d="m36.612 60.823a2.267 2.267 0 0 1 -2.241-1.673c-1.95-8.223-.351-11.7-.239-11.932a2.373 2.373 0 0 1 3.039-1.065 2.071 2.071 0 0 1 1.154 2.808c-.043.093-1.061 2.552.533 9.274a2.134 2.134 0 0 1 -1.75 2.538 2.464 2.464 0 0 1 -.496.05z" fill="#fcd462"/><path d="m29.06 35.19c-.07.09-1.89 2.15-1.6 9.02a2.182 2.182 0 0 1 -2.2 2.21.127.127 0 0 1 -.06.01 2.06 2.06 0 0 0 .26-1.1c-.29-6.86 1.53-8.92 1.6-9.02a2.043 2.043 0 0 0 -.61-2.95 2.434 2.434 0 0 0 -1.32-.38c.07-.11.12-.17.13-.19a2.413 2.413 0 0 1 3.19-.56 2.056 2.056 0 0 1 .61 2.96z" fill="#ea6453"/><path d="m49.91 41.77a2.231 2.231 0 0 1 -2.27 2.04 2.092 2.092 0 0 0 .27-.92c.37-8.41-2.23-11.38-2.38-11.59a2.336 2.336 0 0 0 -1.92-.92 2.149 2.149 0 0 1 .74-.76 2.41 2.41 0 0 1 3.18.55c.15.21 2.75 3.18 2.38 11.6z" fill="#21b3a9"/><path d="m38.32 48.96c-.04.09-1.06 2.55.54 9.27a2.136 2.136 0 0 1 -1.75 2.54 1.878 1.878 0 0 1 -.47.05 1.987 1.987 0 0 0 .22-1.46c-1.6-6.72-.58-9.18-.54-9.27a2.068 2.068 0 0 0 -1.15-2.81 2.576 2.576 0 0 0 -.97-.19 2.394 2.394 0 0 1 2.97-.94 2.071 2.071 0 0 1 1.15 2.81z" fill="#f7be56"/><g fill="#323c6b"><path d="m55.109 68.744h-35.98a3.377 3.377 0 0 1 -3.374-3.374v-38.34a7.713 7.713 0 0 1 7.7-7.7h27.324a7.713 7.713 0 0 1 7.7 7.7v38.34a3.377 3.377 0 0 1 -3.37 3.374zm-31.649-48.419a6.712 6.712 0 0 0 -6.7 6.7v38.345a2.376 2.376 0 0 0 2.374 2.374h35.98a2.376 2.376 0 0 0 2.374-2.374v-38.34a6.712 6.712 0 0 0 -6.7-6.7z"/><path d="m51.729 17.655h-29.219a2.455 2.455 0 0 1 -2.51-2.387v-9.623a2.455 2.455 0 0 1 2.51-2.389h29.219a2.455 2.455 0 0 1 2.511 2.389v9.623a2.455 2.455 0 0 1 -2.511 2.387zm-29.219-13.399a1.455 1.455 0 0 0 -1.51 1.389v9.623a1.455 1.455 0 0 0 1.511 1.388h29.218a1.455 1.455 0 0 0 1.511-1.388v-9.623a1.455 1.455 0 0 0 -1.511-1.388z"/><path d="m55.109 71.5a.5.5 0 0 1 0-1 5.134 5.134 0 0 0 5.091-4.5l.023-4.533a.5.5 0 0 1 .5-.5.5.5 0 0 1 .5.5l-.027 4.591a6.143 6.143 0 0 1 -6.087 5.442z"/><path d="m60.73 59.573h-.007a.5.5 0 0 1 -.493-.507l.009-.667a.5.5 0 1 1 1 .014l-.009.667a.5.5 0 0 1 -.5.493z"/><path d="m17.742 6.144a.5.5 0 0 1 -.5-.5 5.213 5.213 0 0 1 5.268-5.144h1.251a.5.5 0 0 1 0 1h-1.251a4.212 4.212 0 0 0 -4.268 4.144.5.5 0 0 1 -.5.5z"/><path d="m26.5 1.5h-.681a.5.5 0 0 1 0-1h.681a.5.5 0 0 1 0 1z"/><path d="m25.167 46.926a2.719 2.719 0 0 1 -2.793-2.526c-.334-7.7 1.8-11.047 2.465-11.89a2.93 2.93 0 0 1 3.88-.7 2.6 2.6 0 0 1 1.188 1.718 2.494 2.494 0 0 1 -.448 1.952c-.316.4-1.762 2.573-1.5 8.707a2.525 2.525 0 0 1 -.682 1.831 2.881 2.881 0 0 1 -2 .9zm1.984-14.566a1.846 1.846 0 0 0 -1.491.725c-.644.82-2.606 3.92-2.288 11.274a1.722 1.722 0 0 0 1.794 1.566v.5l.071-.5a1.878 1.878 0 0 0 1.31-.584 1.533 1.533 0 0 0 .417-1.109c-.275-6.322 1.219-8.744 1.684-9.336a1.505 1.505 0 0 0 .275-1.179 1.611 1.611 0 0 0 -.742-1.06 1.922 1.922 0 0 0 -1.03-.297z"/><path d="m47.618 44.31h-.11a2.884 2.884 0 0 1 -2.008-.91 2.526 2.526 0 0 1 -.681-1.831c.276-6.363-1.293-8.458-1.473-8.677a2.52 2.52 0 0 1 -.46-1.992 2.6 2.6 0 0 1 1.2-1.71 2.889 2.889 0 0 1 3.846.683c.68.866 2.815 4.218 2.481 11.911a2.718 2.718 0 0 1 -2.795 2.526zm-1.992-14.557a1.907 1.907 0 0 0 -1.012.288 1.613 1.613 0 0 0 -.745 1.055 1.51 1.51 0 0 0 .265 1.183c.319.386 1.972 2.741 1.686 9.337a1.533 1.533 0 0 0 .417 1.109 1.877 1.877 0 0 0 1.306.584l.075.5v-.5a1.722 1.722 0 0 0 1.794-1.566c.319-7.35-1.643-10.453-2.252-11.228a1.9 1.9 0 0 0 -1.534-.762z"/><path d="m36.612 61.323a2.781 2.781 0 0 1 -2.728-2.058c-1.967-8.294-.388-11.884-.2-12.266a2.882 2.882 0 0 1 3.681-1.307 2.677 2.677 0 0 1 1.5 1.517 2.473 2.473 0 0 1 -.084 1.968c0 .013-.983 2.4.569 8.942a2.488 2.488 0 0 1 -.331 1.927 2.808 2.808 0 0 1 -1.805 1.216 2.96 2.96 0 0 1 -.602.061zm-.388-14.86a1.809 1.809 0 0 0 -1.642.974c-.068.14-1.644 3.5.275 11.6a1.841 1.841 0 0 0 2.149 1.249 1.8 1.8 0 0 0 1.164-.775 1.5 1.5 0 0 0 .2-1.158c-1.659-6.993-.548-9.5-.5-9.6a1.487 1.487 0 0 0 .053-1.185 1.687 1.687 0 0 0 -.947-.95 1.958 1.958 0 0 0 -.752-.155z"/></g></g></svg>