<svg height="512" viewBox="0 0 74 74" width="512" xmlns="http://www.w3.org/2000/svg" xmlns:xlink="http://www.w3.org/1999/xlink"><clipPath id="clip-path"><path d="m15.129 42.257a7.548 7.548 0 0 1 -4.529-1.763c.174-4.855 2.673-10.366 5.646-12.619"/></clipPath><clipPath id="clip-path-2"><path d="m20.873 52.045a2.608 2.608 0 0 0 3.967 0c2.592-3.034 6.806-9.026 6.806-15.922 0-6.587-5.174-13.84-7.546-15.479 1.026-1.67 6.061-4.36 4.111-7.111-.915-1.291-4.11 2.084-5.354 2.084s-4.439-3.375-5.354-2.084c-1.95 2.751 3.084 5.441 4.111 7.111-2.372 1.639-7.546 8.892-7.546 15.479-.001 6.896 4.212 12.888 6.805 15.922z"/></clipPath><clipPath id="clip-path-3"><path d="m31.6 37.347a3.783 3.783 0 0 0 1.935-1.631.757.757 0 0 1 1.366.494 7.329 7.329 0 0 1 -4.332 6.11"/></clipPath><clipPath id="clip-path-4"><path d="m31.642 36.122c0 6.9-4.21 12.89-6.8 15.92a2.6 2.6 0 0 1 -3.07.68 2.65 2.65 0 0 0 .9-.68c2.59-3.03 6.81-9.02 6.81-15.92 0-6.59-5.18-13.84-7.55-15.48 1-1.62 5.77-4.2 4.26-6.87.86-.51 1.64-.78 2.02-.24 1.95 2.75-3.09 5.44-4.11 7.11 2.37 1.64 7.54 8.89 7.54 15.48z"/></clipPath><clipPath id="clip-path-5"><path d="m58.2 37.347a3.783 3.783 0 0 0 1.935-1.631.757.757 0 0 1 1.366.494 7.329 7.329 0 0 1 -4.332 6.11"/></clipPath><clipPath id="clip-path-6"><path d="m47.47 52.045a2.608 2.608 0 0 0 3.967 0c2.592-3.034 6.806-9.026 6.806-15.922 0-6.587-5.174-13.84-7.546-15.479 1.026-1.67 6.061-4.36 4.111-7.111-.915-1.291-4.11 2.084-5.354 2.084s-4.439-3.375-5.354-2.084c-1.95 2.751 3.084 5.441 4.111 7.111-2.372 1.639-7.546 8.892-7.546 15.479-.001 6.896 4.212 12.888 6.805 15.922z"/></clipPath><clipPath id="clip-path-7"><path d="m58.242 36.122c0 6.9-4.21 12.89-6.81 15.92a2.588 2.588 0 0 1 -3.06.68 2.649 2.649 0 0 0 .9-.68c2.59-3.03 6.8-9.02 6.8-15.92 0-6.59-5.17-13.84-7.54-15.48.99-1.62 5.77-4.2 4.26-6.87.86-.51 1.64-.78 2.02-.24 1.95 2.75-3.09 5.44-4.12 7.11 2.38 1.64 7.55 8.89 7.55 15.48z"/></clipPath><g id="line_color" data-name="line color"><path d="m8.38 24.979v40.984h-2.767v-40.984" fill="#e7aa6c"/><path d="m8.38 66.463h-2.768a.5.5 0 0 1 -.5-.5v-40.984a.5.5 0 0 1 1 0v40.484h1.768v-40.484a.5.5 0 0 1 1 0v40.984a.5.5 0 0 1 -.5.5z" fill="#323c6b"/><path d="m7 26.092a.5.5 0 0 1 -.2-.043c-.214-.1-5.241-2.381-5.241-5.4v-5.039a.5.5 0 1 1 1 0v5.037c0 1.878 3.035 3.72 4.445 4.394 1.409-.675 4.445-2.52 4.445-4.394v-5.037a.5.5 0 1 1 1 0v5.037c0 3.021-5.027 5.306-5.241 5.4a.5.5 0 0 1 -.208.045z" fill="#323c6b"/><path d="m66.489 24.979v40.984h-2.767v-40.984" fill="#e7aa6c"/><path d="m66.489 66.463h-2.767a.5.5 0 0 1 -.5-.5v-40.984a.5.5 0 0 1 1 0v40.484h1.768v-40.484a.5.5 0 0 1 1 0v40.984a.5.5 0 0 1 -.501.5z" fill="#323c6b"/><path d="m65.105 26.092a.5.5 0 0 1 -.2-.043c-.214-.1-5.241-2.381-5.241-5.4v-5.039a.5.5 0 1 1 1 0v5.037c0 1.878 3.035 3.72 4.445 4.394 1.409-.675 4.445-2.52 4.445-4.394v-5.037a.5.5 0 1 1 1 0v5.037c0 3.021-5.027 5.306-5.241 5.4a.5.5 0 0 1 -.208.045z" fill="#323c6b"/><path d="m40.653 15.161h-.013a.5.5 0 0 1 -.487-.513 5.273 5.273 0 0 1 .2-1.278.5.5 0 0 1 .963.269 4.3 4.3 0 0 0 -.159 1.035.5.5 0 0 1 -.504.487z" fill="#323c6b"/><path d="m48.245 12.05a.5.5 0 0 1 -.269-.079 6.3 6.3 0 0 0 -3.276-1.232 3.177 3.177 0 0 0 -2.339 1.022.5.5 0 0 1 -.73-.684 4.168 4.168 0 0 1 3.069-1.338 7.159 7.159 0 0 1 3.814 1.39.5.5 0 0 1 -.269.921z" fill="#323c6b"/><g clip-path="url(#clip-path)"><path d="m12 16h20v20h-20z" fill="none"/><path d="m12 16h20v20h-20z" fill="#b7c2d4"/><path d="m12 36h20v20h-20z" fill="none"/><path d="m12 36h20v20h-20z" fill="#b7c2d4"/><path d="m-8 16h20v20h-20z" fill="none"/><path d="m-8 16h20v20h-20z" fill="#b7c2d4"/><path d="m-8 36h20v20h-20z" fill="none"/><path d="m-8 36h20v20h-20z" fill="#b7c2d4"/></g><path d="m15.129 42.757h-.023a8 8 0 0 1 -4.83-1.881.5.5 0 0 1 -.177-.4c.177-4.94 2.744-10.651 5.844-13a.5.5 0 1 1 .6.8c-2.837 2.15-5.2 7.377-5.437 11.992a7.018 7.018 0 0 0 4.043 1.492.5.5 0 0 1 -.023 1z" fill="#323c6b"/><g clip-path="url(#clip-path-2)"><path d="m12-4h20v20h-20z" fill="none"/><path d="m12-4h20v20h-20z" fill="#b7c2d4"/><path d="m12 16h20v20h-20z" fill="none"/><path d="m12 16h20v20h-20z" fill="#b7c2d4"/><path d="m12 36h20v20h-20z" fill="none"/><path d="m12 36h20v20h-20z" fill="#b7c2d4"/></g><g clip-path="url(#clip-path-3)"><path d="m32 16h20v20h-20z" fill="none"/><path d="m32 16h20v20h-20z" fill="#b7c2d4"/><path d="m32 36h20v20h-20z" fill="none"/><path d="m32 36h20v20h-20z" fill="#b7c2d4"/><path d="m12 16h20v20h-20z" fill="none"/><path d="m12 16h20v20h-20z" fill="#b7c2d4"/><path d="m12 36h20v20h-20z" fill="none"/><path d="m12 36h20v20h-20z" fill="#b7c2d4"/></g><path d="m30.571 42.82a.5.5 0 0 1 -.207-.955 6.774 6.774 0 0 0 4.041-5.7.258.258 0 0 0 -.459-.165 4.276 4.276 0 0 1 -2.2 1.822.5.5 0 0 1 -.3-.955 3.342 3.342 0 0 0 1.673-1.439 1.256 1.256 0 0 1 2.274.821 7.874 7.874 0 0 1 -4.623 6.524.5.5 0 0 1 -.199.047z" fill="#323c6b"/><g clip-path="url(#clip-path-4)"><path d="m12-4h20v20h-20z" fill="none"/><path d="m12-4h20v20h-20z" fill="#a4adbc"/><path d="m12 16h20v20h-20z" fill="none"/><path d="m12 16h20v20h-20z" fill="#a4adbc"/><path d="m12 36h20v20h-20z" fill="none"/><path d="m12 36h20v20h-20z" fill="#a4adbc"/></g><g fill="#323c6b"><path d="m25.466 39.549a.5.5 0 0 1 -.182-.034 7.261 7.261 0 0 0 -4.861 0 .5.5 0 0 1 -.363-.932 8.28 8.28 0 0 1 5.588 0 .5.5 0 0 1 -.182.966z"/><path d="m25.466 34.221a.5.5 0 0 1 -.182-.034 7.261 7.261 0 0 0 -4.861 0 .5.5 0 0 1 -.363-.932 8.269 8.269 0 0 1 5.588 0 .5.5 0 0 1 -.182.966z"/><path d="m26.235 36.967a.5.5 0 0 1 -.189-.037 9.107 9.107 0 0 0 -6.385 0 .5.5 0 0 1 -.379-.93 10.13 10.13 0 0 1 7.143 0 .5.5 0 0 1 -.189.963z"/><path d="m18.592 54.494a.5.5 0 0 1 -.38-.175 38.157 38.157 0 0 1 -3.153-4.275.5.5 0 1 1 .844-.536 37.232 37.232 0 0 0 3.069 4.162.5.5 0 0 1 -.38.825z"/><path d="m14.441 48.525a.5.5 0 0 1 -.441-.258l-.1-.183c-.082-.148-.165-.3-.245-.45a.5.5 0 0 1 .885-.466c.077.146.156.288.234.43l.1.187a.5.5 0 0 1 -.438.741z"/><path d="m29.287 45.51a.492.492 0 0 1 -.237-.06 13.66 13.66 0 0 0 -12.394 0 .5.5 0 0 1 -.475-.88 14.434 14.434 0 0 1 13.343 0 .5.5 0 0 1 -.237.94z"/><circle cx="22.118" cy="46.954" r=".881"/><path d="m22.856 53.46a3.1 3.1 0 0 1 -2.363-1.09c-2.587-3.027-6.927-9.163-6.927-16.247 0-6.562 4.855-13.476 7.35-15.573a16.519 16.519 0 0 0 -1.271-1.218c-1.77-1.591-4.194-3.77-2.552-6.088.834-1.172 2.459-.092 3.9.862a6.187 6.187 0 0 0 1.866 1.011 6.187 6.187 0 0 0 1.866-1.011c1.438-.954 3.063-2.036 3.9-.862 1.643 2.318-.781 4.5-2.552 6.088a16.424 16.424 0 0 0 -1.273 1.218c2.494 2.1 7.35 9.01 7.35 15.573 0 7.084-4.34 13.22-6.927 16.247a3.1 3.1 0 0 1 -2.367 1.09zm-4.737-39.725a.238.238 0 0 0 -.209.086c-1.045 1.475.4 2.968 2.4 4.767a9.778 9.778 0 0 1 1.724 1.793.5.5 0 0 1 -.142.673c-2.127 1.469-7.33 8.569-7.33 15.067 0 6.763 4.189 12.675 6.687 15.6a2.177 2.177 0 0 0 3.207 0c2.5-2.922 6.687-8.835 6.687-15.6 0-6.5-5.2-13.6-7.33-15.067a.5.5 0 0 1 -.142-.673 9.763 9.763 0 0 1 1.729-1.793c2-1.8 3.449-3.292 2.4-4.766-.264-.38-1.737.593-2.527 1.117a5.506 5.506 0 0 1 -2.419 1.178 5.506 5.506 0 0 1 -2.419-1.178 7.132 7.132 0 0 0 -2.316-1.204z"/></g><g clip-path="url(#clip-path-5)"><path d="m52 16h20v20h-20z" fill="none"/><path d="m52 16h20v20h-20z" fill="#b7c2d4"/><path d="m52 36h20v20h-20z" fill="none"/><path d="m52 36h20v20h-20z" fill="#b7c2d4"/></g><path d="m57.168 42.82a.5.5 0 0 1 -.207-.955 6.774 6.774 0 0 0 4.039-5.696.258.258 0 0 0 -.457-.169 4.276 4.276 0 0 1 -2.2 1.822.5.5 0 0 1 -.3-.955 3.336 3.336 0 0 0 1.672-1.439 1.257 1.257 0 0 1 2.285.823 7.874 7.874 0 0 1 -4.623 6.524.5.5 0 0 1 -.209.045z" fill="#323c6b"/><path d="m41.726 42.257a7.548 7.548 0 0 1 -4.526-1.763c.174-4.855 2.673-10.366 5.646-12.619" fill="#bbbbcd"/><path d="m41.726 42.757h-.026a8.008 8.008 0 0 1 -4.83-1.881.5.5 0 0 1 -.177-.4c.177-4.939 2.744-10.65 5.844-13a.5.5 0 1 1 .6.8c-2.837 2.15-5.2 7.377-5.437 11.992a7.021 7.021 0 0 0 4.043 1.492.5.5 0 0 1 -.023 1z" fill="#323c6b"/><g clip-path="url(#clip-path-6)"><path d="m52-4h20v20h-20z" fill="none"/><path d="m52-4h20v20h-20z" fill="#b7c2d4"/><path d="m52 16h20v20h-20z" fill="none"/><path d="m52 16h20v20h-20z" fill="#b7c2d4"/><path d="m52 36h20v20h-20z" fill="none"/><path d="m52 36h20v20h-20z" fill="#b7c2d4"/><path d="m32-4h20v20h-20z" fill="none"/><path d="m32-4h20v20h-20z" fill="#b7c2d4"/><path d="m32 16h20v20h-20z" fill="none"/><path d="m32 16h20v20h-20z" fill="#b7c2d4"/><path d="m32 36h20v20h-20z" fill="none"/><path d="m32 36h20v20h-20z" fill="#b7c2d4"/></g><g clip-path="url(#clip-path-7)"><path d="m52-4h20v20h-20z" fill="none"/><path d="m52-4h20v20h-20z" fill="#a4adbc"/><path d="m52 16h20v20h-20z" fill="none"/><path d="m52 16h20v20h-20z" fill="#a4adbc"/><path d="m52 36h20v20h-20z" fill="none"/><path d="m52 36h20v20h-20z" fill="#a4adbc"/><path d="m32-4h20v20h-20z" fill="none"/><path d="m32-4h20v20h-20z" fill="#a4adbc"/><path d="m32 16h20v20h-20z" fill="none"/><path d="m32 16h20v20h-20z" fill="#a4adbc"/><path d="m32 36h20v20h-20z" fill="none"/><path d="m32 36h20v20h-20z" fill="#a4adbc"/></g><circle cx="48.715" cy="46.954" fill="#323c6b" r=".881"/><path d="m55.885 45.51a.492.492 0 0 1 -.237-.06 13.666 13.666 0 0 0 -12.394 0 .5.5 0 0 1 -.475-.88 14.676 14.676 0 0 1 13.343 0 .5.5 0 0 1 -.237.94z" fill="#323c6b"/><path d="m46.841 39.549a.5.5 0 0 1 -.182-.966 8.28 8.28 0 0 1 5.588 0 .5.5 0 0 1 -.363.932 7.261 7.261 0 0 0 -4.861 0 .5.5 0 0 1 -.182.034z" fill="#323c6b"/><path d="m52.065 34.221a.5.5 0 0 1 -.182-.034 7.261 7.261 0 0 0 -4.861 0 .5.5 0 1 1 -.363-.932 8.269 8.269 0 0 1 5.588 0 .5.5 0 0 1 -.182.966z" fill="#323c6b"/><path d="m52.835 36.967a.5.5 0 0 1 -.189-.037 9.107 9.107 0 0 0 -6.385 0 .5.5 0 0 1 -.379-.93 10.13 10.13 0 0 1 7.143 0 .5.5 0 0 1 -.189.963z" fill="#323c6b"/><path d="m49.453 53.46a3.105 3.105 0 0 1 -2.362-1.09c-2.587-3.027-6.927-9.163-6.927-16.247 0-6.562 4.856-13.476 7.351-15.573a16.43 16.43 0 0 0 -1.271-1.217c-1.771-1.591-4.2-3.771-2.552-6.089.835-1.173 2.46-.092 3.9.862a6.187 6.187 0 0 0 1.866 1.011 6.187 6.187 0 0 0 1.866-1.011c1.438-.954 3.063-2.036 3.9-.862 1.643 2.318-.782 4.5-2.552 6.088a16.519 16.519 0 0 0 -1.271 1.218c2.494 2.1 7.35 9.01 7.35 15.573 0 7.082-4.339 13.219-6.926 16.247a3.108 3.108 0 0 1 -2.372 1.09zm-4.736-39.725a.238.238 0 0 0 -.209.086c-1.046 1.475.4 2.968 2.4 4.767a9.762 9.762 0 0 1 1.724 1.793.5.5 0 0 1 -.142.673c-2.128 1.47-7.331 8.569-7.331 15.067 0 6.763 4.189 12.675 6.687 15.6a2.109 2.109 0 0 0 1.6.74 2.111 2.111 0 0 0 1.6-.74c2.5-2.923 6.686-8.836 6.686-15.6 0-6.5-5.2-13.6-7.33-15.067a.5.5 0 0 1 -.142-.673 9.778 9.778 0 0 1 1.74-1.793c2-1.8 3.449-3.292 2.4-4.767-.265-.38-1.737.593-2.527 1.117a5.506 5.506 0 0 1 -2.419 1.178 5.506 5.506 0 0 1 -2.419-1.178 7.128 7.128 0 0 0 -2.318-1.203z" fill="#323c6b"/><path d="m44.028 33.486a.477.477 0 0 1 -.479-.593 3.753 3.753 0 0 1 .1-.376.477.477 0 0 1 .911.28 2.862 2.862 0 0 0 -.088.328.477.477 0 0 1 -.444.361z" fill="#fff"/><path d="m44.551 31.559a.477.477 0 0 1 -.455-.664 34.121 34.121 0 0 1 2.146-4.313.476.476 0 1 1 .793.528 33.254 33.254 0 0 0 -2.063 4.161.476.476 0 0 1 -.421.288z" fill="#fff"/><path d="m72.183 21.2h-72.264a.5.5 0 0 1 -.5-.5.5.5 0 0 1 .5-.5h72.264a.5.5 0 0 1 0 1z" fill="#323c6b"/></g></svg>