<svg height="512" viewBox="0 0 74 74" width="512" xmlns="http://www.w3.org/2000/svg"><g id="line_color" data-name="line color"><path d="m12.153 12.364a8.671 8.671 0 0 1 2.447-5.432c2.871-2.845 8.355-1.926 8.355-1.926-6.729.618-6.733 6.569-6.725 6.863v.009" fill="#e1e6e9"/><path d="m12.153 12.864h-.01a.5.5 0 0 1 -.49-.51 9.174 9.174 0 0 1 2.591-5.776c3.017-2.991 8.555-2.1 8.79-2.065a.5.5 0 0 1 -.034.987c-6.351.584-6.277 6.116-6.271 6.352a.5.5 0 0 1 -1 .073 7.485 7.485 0 0 1 3.806-6.494 7.541 7.541 0 0 0 -4.588 1.853 8.23 8.23 0 0 0 -2.295 5.086.5.5 0 0 1 -.499.494z" fill="#323c6b"/><path d="m15.971 19.1 4.789-6.74a2.085 2.085 0 0 0 -.539-2.984l-3.039 2.9a5.142 5.142 0 0 0 -6.4 1.25 13.579 13.579 0 0 0 -1.266 1.859" fill="#f7be56"/><path d="m15.971 19.6a.494.494 0 0 1 -.289-.092.5.5 0 0 1 -.118-.7l4.789-6.742a1.546 1.546 0 0 0 .308-1.093 1.57 1.57 0 0 0 -.413-.936l-2.721 2.594a.5.5 0 0 1 -.586.076 4.624 4.624 0 0 0 -5.772 1.132 13.064 13.064 0 0 0 -1.218 1.79.5.5 0 1 1 -.865-.5 14.1 14.1 0 0 1 1.314-1.929 5.63 5.63 0 0 1 6.693-1.535l2.783-2.654a.5.5 0 0 1 .614-.06 2.585 2.585 0 0 1 .668 3.708l-4.78 6.729a.5.5 0 0 1 -.407.212z" fill="#323c6b"/><path d="m14.541 30.35a11.955 11.955 0 0 0 3.733 5.467l-4.223 4.693a12.536 12.536 0 0 1 -5.624-4.037z" fill="#f7be56"/><path d="m14.052 41.011a.505.505 0 0 1 -.182-.034 12.948 12.948 0 0 1 -5.857-4.223.5.5 0 0 1 .061-.633l6.114-6.121a.5.5 0 0 1 .823.183 11.383 11.383 0 0 0 3.577 5.249.5.5 0 0 1 .059.724l-4.223 4.693a.5.5 0 0 1 -.372.162zm-4.959-4.5a12.734 12.734 0 0 0 4.821 3.4l3.644-4.049a12.1 12.1 0 0 1 -3.205-4.621z" fill="#323c6b"/><path d="m8.42 36.476s9.97-5.876 8.295-16.486a12.488 12.488 0 0 0 -8.815-4.84c-5.83 5.337-5.735 16.164.52 21.326z" fill="#fcd462"/><path d="m8.42 36.976a.5.5 0 0 1 -.318-.114 14.43 14.43 0 0 1 -4.971-10.862 14.571 14.571 0 0 1 4.434-11.219.5.5 0 0 1 .375-.13 12.882 12.882 0 0 1 9.186 5.055.5.5 0 0 1 .083.206c1.708 10.822-8.433 16.934-8.535 16.994a.5.5 0 0 1 -.254.07zm-.338-21.309a13.82 13.82 0 0 0 -3.951 10.3 13.517 13.517 0 0 0 4.331 9.884c1.606-1.071 9.133-6.618 7.777-15.667a12.119 12.119 0 0 0 -8.157-4.517z" fill="#323c6b"/><path d="m61.726 12.364a8.671 8.671 0 0 0 -2.443-5.432c-2.871-2.845-8.355-1.926-8.355-1.926 6.729.618 6.733 6.569 6.725 6.863v.009" fill="#e1e6e9"/><path d="m61.727 12.864a.5.5 0 0 1 -.5-.49 8.229 8.229 0 0 0 -2.3-5.087 7.538 7.538 0 0 0 -4.586-1.853 7.481 7.481 0 0 1 3.809 6.447l-1-.053c0-.208.078-5.741-6.272-6.325a.5.5 0 0 1 -.037-.991c.236-.039 5.772-.926 8.789 2.065a9.173 9.173 0 0 1 2.592 5.777.5.5 0 0 1 -.49.51z" fill="#323c6b"/><path d="m64.362 15.384a13.579 13.579 0 0 0 -1.262-1.86 5.142 5.142 0 0 0 -6.4-1.25l-3.039-2.9a2.085 2.085 0 0 0 -.539 2.984l4.787 6.742" fill="#f7be56"/><path d="m57.909 19.6a.5.5 0 0 1 -.407-.21l-4.789-6.74a2.584 2.584 0 0 1 .677-3.7.5.5 0 0 1 .614.06l2.783 2.654a5.632 5.632 0 0 1 6.694 1.536 14.112 14.112 0 0 1 1.313 1.929.5.5 0 1 1 -.865.5 13.078 13.078 0 0 0 -1.217-1.789 4.621 4.621 0 0 0 -5.773-1.133.5.5 0 0 1 -.586-.076l-2.721-2.594a1.567 1.567 0 0 0 -.413.934 1.536 1.536 0 0 0 .3 1.083l4.8 6.755a.5.5 0 0 1 -.118.7.494.494 0 0 1 -.292.091z" fill="#323c6b"/><path d="m59.339 30.35a11.955 11.955 0 0 1 -3.733 5.467l4.223 4.693a12.536 12.536 0 0 0 5.624-4.037z" fill="#f7be56"/><path d="m59.829 41.011a.5.5 0 0 1 -.372-.166l-4.224-4.693a.5.5 0 0 1 .059-.724 11.38 11.38 0 0 0 3.577-5.249.5.5 0 0 1 .361-.318.5.5 0 0 1 .462.135l6.114 6.125a.5.5 0 0 1 .061.633 12.948 12.948 0 0 1 -5.856 4.223.505.505 0 0 1 -.182.034zm-3.506-5.144 3.644 4.049a12.737 12.737 0 0 0 4.82-3.4l-5.26-5.268a12.108 12.108 0 0 1 -3.204 4.619z" fill="#323c6b"/><path d="m65.46 36.476s-9.97-5.876-8.295-16.486a12.488 12.488 0 0 1 8.812-4.84c5.833 5.337 5.737 16.164-.517 21.326z" fill="#fcd462"/><path d="m8.217 48.862a.5.5 0 0 1 -.3-.1l-3.517-2.698a.5.5 0 0 1 .609-.793l3.318 2.546 5.021-1.287a.5.5 0 0 1 .248.969l-5.255 1.348a.514.514 0 0 1 -.124.015z" fill="#323c6b"/><path d="m8.094 57.47a.5.5 0 0 1 -.239-.061l-5.155-2.802a.5.5 0 0 1 .479-.879l4.958 2.7 6.844-2.432a.5.5 0 0 1 .334.942l-7.054 2.503a.5.5 0 0 1 -.167.029z" fill="#323c6b"/><path d="m9.044 70.885a.491.491 0 0 1 -.214-.048.5.5 0 0 1 -.238-.666l2.511-5.3a.5.5 0 0 1 .271-.252l8-3.105a.5.5 0 0 1 .361.933l-7.818 3.033-2.417 5.12a.5.5 0 0 1 -.456.285z" fill="#323c6b"/><path d="m65.663 48.862a.514.514 0 0 1 -.124-.016l-5.257-1.346a.5.5 0 0 1 .248-.969l5.021 1.287 3.317-2.546a.5.5 0 0 1 .609.793l-3.511 2.694a.5.5 0 0 1 -.303.103z" fill="#323c6b"/><path d="m65.786 57.47a.5.5 0 0 1 -.167-.029l-7.054-2.506a.5.5 0 0 1 .334-.942l6.844 2.432 4.957-2.7a.5.5 0 0 1 .479.879l-5.153 2.8a.5.5 0 0 1 -.24.066z" fill="#323c6b"/><path d="m64.836 70.885a.5.5 0 0 1 -.452-.286l-2.426-5.122-7.817-3.033a.5.5 0 0 1 .361-.933l8 3.105a.5.5 0 0 1 .271.252l2.512 5.3a.5.5 0 0 1 -.452.714z" fill="#323c6b"/><path d="m36.94 31.72c16.06 0 23.615 5.48 23.615 12.246s-2.328 24.093-23.615 24.093-23.615-17.329-23.615-24.093 7.553-12.246 23.615-12.246z" fill="#fcd462"/><path d="m65.46 36.48a12.928 12.928 0 0 1 -1.21-.84c4.94-5.48 4.63-15.1-.74-20.04a11.654 11.654 0 0 1 2.47-.45c5.83 5.34 5.73 16.16-.52 21.33z" fill="#f7be56"/><g opacity=".4"><path d="m35.46 31.74c1.726.04 3.328.059 4.833.073-1.078-.056-2.186-.093-3.353-.093-.5 0-1 .01-1.48.02z" fill="#f7be56"/></g><path d="m57.477 37.277c.005.054.019.1.023.153a39.08 39.08 0 0 1 -2.018 16.475 15.876 15.876 0 0 1 -7.344 8.577 26.481 26.481 0 0 1 -12.448 2.7c-11.68 0-17.65-5.21-20.66-11.04 2.46 6.87 8.33 13.92 21.91 13.92a26.085 26.085 0 0 0 12.919-2.962 25.689 25.689 0 0 1 2.61-1.783c7.025-5.633 8.091-14.838 8.091-19.35a8.991 8.991 0 0 0 -3.083-6.69z" fill="#f7be56"/><circle cx="44.891" cy="29.417" fill="#9297ab" r="2.74"/><path d="m44.891 32.657a3.24 3.24 0 1 1 3.239-3.239 3.243 3.243 0 0 1 -3.239 3.239zm0-5.479a2.24 2.24 0 1 0 2.239 2.24 2.242 2.242 0 0 0 -2.239-2.24z" fill="#323c6b"/><circle cx="28.989" cy="29.417" fill="#9297ab" r="2.74"/><g fill="#323c6b"><path d="m28.989 32.657a3.24 3.24 0 1 1 3.239-3.239 3.243 3.243 0 0 1 -3.239 3.239zm0-5.479a2.24 2.24 0 1 0 2.239 2.24 2.243 2.243 0 0 0 -2.239-2.24z"/><path d="m50.2 68.748a.5.5 0 0 1 -.217-.951c.232-.112.464-.227.688-.346a.5.5 0 1 1 .471.882c-.236.126-.479.247-.726.366a.5.5 0 0 1 -.216.049z"/><path d="m39.281 71.48a.5.5 0 0 1 -.03-1 29.6 29.6 0 0 0 8.3-1.649.5.5 0 0 1 .342.939 30.582 30.582 0 0 1 -8.578 1.708z"/><path d="m72.091 19.625a.5.5 0 0 1 -.468-.323c-.073-.194-.147-.386-.227-.577a.5.5 0 0 1 .926-.38c.081.2.159.4.236.6a.5.5 0 0 1 -.468.677z"/><path d="m72.766 30.3a.513.513 0 0 1 -.114-.013.5.5 0 0 1 -.372-.6 17.9 17.9 0 0 0 .469-3.634 18.107 18.107 0 0 0 -.381-4.193.5.5 0 1 1 .979-.206 19.078 19.078 0 0 1 .4 4.425 18.854 18.854 0 0 1 -.5 3.838.5.5 0 0 1 -.481.383z"/><path d="m65.46 36.976a.5.5 0 0 1 -.254-.069c-.1-.061-10.244-6.172-8.535-16.994a.5.5 0 0 1 .083-.206 12.882 12.882 0 0 1 9.186-5.055.5.5 0 0 1 .375.13 14.566 14.566 0 0 1 4.433 11.218 14.431 14.431 0 0 1 -4.97 10.866.5.5 0 0 1 -.318.11zm-7.819-16.789c-1.358 9.063 6.17 14.6 7.776 15.668a13.516 13.516 0 0 0 4.332-9.885 13.818 13.818 0 0 0 -3.951-10.3 12.074 12.074 0 0 0 -8.157 4.517z"/><path d="m36.939 68.559c-22.376 0-24.115-18.823-24.115-24.592 0-6.162 6.335-12.746 24.115-12.746s24.116 6.579 24.116 12.745c0 5.769-1.74 24.593-24.116 24.593zm0-36.338c-14.258 0-23.115 4.5-23.115 11.746 0 5.535 1.667 23.592 23.115 23.592s23.116-18.059 23.116-23.593c0-7.245-8.855-11.746-23.116-11.746z"/></g><path d="m18.954 42.608a.649.649 0 0 1 -.571-.957c1.3-2.433 2.743-3.615 6.571-4.775a.65.65 0 0 1 .377 1.244c-3.491 1.058-4.663 2.022-5.8 4.145a.648.648 0 0 1 -.577.343z" fill="#fff"/><path d="m28.456 37.395a.65.65 0 0 1 -.171-1.284c.412-.091.423-.061.859-.14a.65.65 0 1 1 .233 1.278c-.419.077-.414.043-.811.131a.659.659 0 0 1 -.11.015z" fill="#fff"/></g></svg>