<svg height="512" viewBox="0 0 74 74" width="512" xmlns="http://www.w3.org/2000/svg"><g id="line_color" data-name="line color"><path d="m29.27 19.23c-.2-.34-.42-.66-.65-.98a8.978 8.978 0 0 1 -1.72-5.27c0-8.34 4.01-11.01 8.96-11.01s8.96 2.67 8.96 11.01a8.978 8.978 0 0 1 -1.72 5.27 9.524 9.524 0 0 0 -.58.88" fill="#9297ab"/><circle cx="32.883" cy="8.807" fill="#323c6b" r="1.364"/><circle cx="38.838" cy="8.807" fill="#323c6b" r="1.364"/><path d="m17.322 54.14a22.566 22.566 0 0 0 -6.354 11.729 2.711 2.711 0 0 0 1.29 2.813l1.523.9a2.689 2.689 0 0 0 4.007-1.775 2.7 2.7 0 0 1 1.261-1.766l4.9-2.91" fill="#bbbbcd"/><path d="m15.149 70.465a3.176 3.176 0 0 1 -1.623-.45l-1.526-.902a3.225 3.225 0 0 1 -1.528-3.329 23.171 23.171 0 0 1 6.487-11.99.5.5 0 0 1 .721.693 22.192 22.192 0 0 0 -6.223 11.47 2.223 2.223 0 0 0 1.05 2.294l1.526.9a2.189 2.189 0 0 0 3.267-1.441 3.214 3.214 0 0 1 1.495-2.1l4.9-2.911a.5.5 0 1 1 .511.859l-4.9 2.911a2.211 2.211 0 0 0 -1.027 1.439 3.147 3.147 0 0 1 -1.827 2.273 3.2 3.2 0 0 1 -1.303.284z" fill="#323c6b"/><path d="m49.384 28.213a13.93 13.93 0 0 1 6.082-3.152.691.691 0 0 1 .493.2 13.345 13.345 0 0 1 4.541 7.239 1.823 1.823 0 0 0 1.161 1.27 1.886 1.886 0 0 0 2.433-2.4 26.994 26.994 0 0 0 -5.212-8.657 4.4 4.4 0 0 0 -4.2-1.457 18.881 18.881 0 0 0 -9.075 5.112" fill="#bbbbcd"/><path d="m62.322 34.387a2.4 2.4 0 0 1 -.837-.151 2.309 2.309 0 0 1 -1.475-1.626 12.91 12.91 0 0 0 -4.363-6.955.6.6 0 0 0 -.161-.1 13.593 13.593 0 0 0 -5.786 3.045.5.5 0 1 1 -.638-.771 14.4 14.4 0 0 1 6.3-3.257 1.142 1.142 0 0 1 .9.3 13.942 13.942 0 0 1 4.716 7.512 1.315 1.315 0 0 0 .848.915 1.386 1.386 0 0 0 1.788-1.762 26.562 26.562 0 0 0 -5.118-8.5 3.886 3.886 0 0 0 -3.719-1.3 18.374 18.374 0 0 0 -8.835 4.986.5.5 0 1 1 -.679-.723 19.339 19.339 0 0 1 9.315-5.236 4.884 4.884 0 0 1 4.679 1.618 27.544 27.544 0 0 1 5.306 8.818 2.39 2.39 0 0 1 -2.241 3.184z" fill="#323c6b"/><path d="m26.515 26.367a18.881 18.881 0 0 0 -9.075-5.112 4.4 4.4 0 0 0 -4.2 1.457 26.994 26.994 0 0 0 -5.212 8.657 1.886 1.886 0 0 0 2.433 2.4 1.823 1.823 0 0 0 1.161-1.27 13.345 13.345 0 0 1 4.538-7.232.691.691 0 0 1 .493-.2 13.93 13.93 0 0 1 6.082 3.152" fill="#bbbbcd"/><path d="m9.8 34.387a2.39 2.39 0 0 1 -2.242-3.187 27.551 27.551 0 0 1 5.305-8.819 4.882 4.882 0 0 1 4.68-1.618 19.341 19.341 0 0 1 9.314 5.237.5.5 0 0 1 -.686.729 18.376 18.376 0 0 0 -8.834-4.986 3.889 3.889 0 0 0 -3.72 1.295 26.569 26.569 0 0 0 -5.118 8.5 1.386 1.386 0 0 0 1.789 1.762 1.315 1.315 0 0 0 .849-.915 13.939 13.939 0 0 1 4.713-7.51 1.121 1.121 0 0 1 .9-.3 14.4 14.4 0 0 1 6.308 3.258.5.5 0 1 1 -.638.771 13.453 13.453 0 0 0 -5.827-3.04c.006.011-.041.037-.121.1a12.909 12.909 0 0 0 -4.36 6.953 2.309 2.309 0 0 1 -1.475 1.625 2.408 2.408 0 0 1 -.837.145z" fill="#323c6b"/><path d="m48.182 63.133 4.9 2.91a2.7 2.7 0 0 1 1.261 1.766 2.689 2.689 0 0 0 4.007 1.775l1.523-.9a2.711 2.711 0 0 0 1.29-2.813 22.566 22.566 0 0 0 -6.355-11.731" fill="#bbbbcd"/><path d="m56.98 70.465a3.2 3.2 0 0 1 -1.3-.279 3.149 3.149 0 0 1 -1.828-2.276 2.208 2.208 0 0 0 -1.027-1.436l-4.9-2.91a.5.5 0 0 1 .511-.859l4.9 2.911a3.213 3.213 0 0 1 1.5 2.092 2.189 2.189 0 0 0 3.263 1.448l1.522-.9a2.223 2.223 0 0 0 1.053-2.3 22.189 22.189 0 0 0 -6.222-11.468.5.5 0 0 1 .721-.693 23.168 23.168 0 0 1 6.486 11.988 3.226 3.226 0 0 1 -1.531 3.333l-1.52.9a3.176 3.176 0 0 1 -1.628.449z" fill="#323c6b"/><path d="m36.06 18.21c-12.18 0-22.07 9.36-22.07 22.33s9.89 27.75 22.07 27.75 22.08-14.77 22.08-27.75-9.89-22.33-22.08-22.33z" fill="#bbbbcd"/><path d="m12.945 51.875a.5.5 0 0 1 -.472-.334 33.9 33.9 0 0 1 -1.93-9.558.5.5 0 0 1 .475-.524.494.494 0 0 1 .524.475 32.888 32.888 0 0 0 1.875 9.275.5.5 0 0 1 -.472.666z" fill="#323c6b"/><path d="m11.028 39.917h-.02a.5.5 0 0 1 -.48-.519q.015-.376.038-.75a.5.5 0 1 1 1 .062q-.022.363-.037.727a.5.5 0 0 1 -.501.48z" fill="#323c6b"/><path d="m47.915 13.476a.5.5 0 0 1 -.5-.5 19.058 19.058 0 0 0 -1.215-7.148.5.5 0 0 1 .927-.376 20.036 20.036 0 0 1 1.285 7.524.5.5 0 0 1 -.497.5z" fill="#323c6b"/><path d="m45.1 3.369a.5.5 0 0 1 -.4-.2 9.919 9.919 0 0 0 -.815-.947.5.5 0 0 1 .711-.7 11 11 0 0 1 .9 1.042.5.5 0 0 1 -.4.8z" fill="#323c6b"/><path d="m54.221 40.671c0 10.67-8.1 23.557-18.16 23.557s-18.152-12.888-18.152-23.557c0-10.489 7.8-18.4 18.151-18.4s18.161 7.911 18.161 18.4z" fill="#27ccbc"/><path d="m44.82 12.98a8.978 8.978 0 0 1 -1.72 5.27 9.519 9.519 0 0 0 -.58.88l-2.4.02a8.978 8.978 0 0 0 1.72-5.27c0-8.34-4.01-11.01-8.96-11.01a12.5 12.5 0 0 0 -1.51.09 9.5 9.5 0 0 1 4.49-.99c4.95 0 8.96 2.67 8.96 11.01z" fill="#84879c"/><g fill="#323c6b"><path d="m36.065 56.009a.5.5 0 0 1 -.354-.146l-5.074-5.078a.5.5 0 0 1 -.132-.234l-2.652-10.784a.5.5 0 0 1 .073-.4l4.6-6.692a.5.5 0 0 1 .412-.217h6.246a.5.5 0 0 1 .412.217l4.6 6.692a.5.5 0 0 1 .074.4l-2.605 10.686a.5.5 0 0 1 -.13.233l-5.115 5.175a.5.5 0 0 1 -.354.148zm-4.622-5.833 4.62 4.624 4.664-4.718 2.526-10.335-4.328-6.291h-5.725l-4.328 6.291z"/><path d="m32.942 33.456a.5.5 0 0 1 -.424-.235l-5.138-8.221a.5.5 0 0 1 .848-.53l5.138 8.216a.5.5 0 0 1 -.423.765z"/><path d="m17.924 41.676a.5.5 0 0 1 -.072-.995l10.413-1.529a.494.494 0 0 1 .567.422.5.5 0 0 1 -.422.567l-10.41 1.53a.471.471 0 0 1 -.076.005z"/><path d="m22.478 56.009a.5.5 0 0 1 -.257-.929l8.514-5.08a.5.5 0 1 1 .513.858l-8.514 5.078a.5.5 0 0 1 -.256.073z"/><path d="m39.188 33.456a.5.5 0 0 1 -.423-.765l5.135-8.217a.5.5 0 0 1 .848.53l-5.138 8.216a.5.5 0 0 1 -.422.236z"/><path d="m54.206 41.676a.471.471 0 0 1 -.073-.005l-10.414-1.529a.5.5 0 0 1 -.422-.567.492.492 0 0 1 .567-.422l10.413 1.529a.5.5 0 0 1 -.072.995z"/><path d="m49.652 56.009a.5.5 0 0 1 -.256-.071l-8.514-5.078a.5.5 0 0 1 .518-.86l8.514 5.078a.5.5 0 0 1 -.257.929z"/><path d="m36.065 64.487a.5.5 0 0 1 -.5-.5v-8.478a.5.5 0 0 1 1 0v8.478a.5.5 0 0 1 -.5.5z"/><path d="m29.271 19.73a.5.5 0 0 1 -.431-.246c-.192-.327-.4-.635-.625-.942a9.441 9.441 0 0 1 -1.815-5.562c0-9.513 5.145-11.51 9.46-11.51s9.46 2 9.46 11.51a9.447 9.447 0 0 1 -1.814 5.563 9.018 9.018 0 0 0 -.55.833.5.5 0 1 1 -.87-.493 9.983 9.983 0 0 1 .61-.926 8.455 8.455 0 0 0 1.624-4.977c0-6.974-2.846-10.51-8.46-10.51s-8.46 3.536-8.46 10.51a8.448 8.448 0 0 0 1.625 4.977c.24.333.467.666.675 1.019a.5.5 0 0 1 -.43.754z"/><path d="m36.06 64.728c-10.332 0-18.651-13.161-18.651-24.057 0-10.774 8.018-18.9 18.651-18.9s18.661 8.129 18.661 18.899c0 10.897-8.321 24.058-18.661 24.058zm0-41.956c-10.062 0-17.651 7.695-17.651 17.9 0 10.443 7.874 23.057 17.651 23.057s17.661-12.615 17.661-23.059c0-10.203-7.593-17.898-17.661-17.898z"/></g><path d="m36.06 18.21c-12.18 0-22.07 9.36-22.07 22.33s9.89 27.75 22.07 27.75 22.08-14.77 22.08-27.75-9.89-22.33-22.08-22.33z" fill="none" stroke="#323c6b" stroke-linecap="round" stroke-linejoin="round"/><path d="m33.63 47.873a.629.629 0 0 1 -.613-.487l-1.344-5.809a.629.629 0 0 1 1.226-.284l1.345 5.807a.629.629 0 0 1 -.471.755.641.641 0 0 1 -.143.018z" fill="#fff"/><path d="m33.09 39.6a.629.629 0 0 1 -.528-.971l.47-.726a.629.629 0 1 1 1.057.684l-.47.726a.629.629 0 0 1 -.529.287z" fill="#fff"/></g></svg>