<svg height="512" viewBox="0 0 74 74" width="512" xmlns="http://www.w3.org/2000/svg"><g id="line_color" data-name="line color"><path d="m68.4 33.892s-1.889 6.249-18.012 8.747c-1.145.182-2.289.318-3.434.436a6.478 6.478 0 0 1 -7 4.469 11.118 11.118 0 0 0 1.517-4.151c-2.407.036-4.769-.036-7.04-.209a7.739 7.739 0 0 1 -9.21 3.761 13.3 13.3 0 0 0 2.68-4.523 92.259 92.259 0 0 1 -14.501-3.47 75.018 75.018 0 0 1 -11.44 5.74s5.123-6.276 5.123-8.792-5.123-8.8-5.123-8.8a36.48 36.48 0 0 1 10.173 6.059c6.286-1.626 18.566-5.341 27.913-7.176a13.869 13.869 0 0 0 -1.535-6.858 8.178 8.178 0 0 1 8.32 5.859c2.4-.182 4.187-.018 5.023.627 4.996 3.858 16.546 8.281 16.546 8.281z" fill="#c2c76c"/><path d="m39.393 26.106a1.494 1.494 0 0 1 .053 2.008c-9.346 1.838-21.633 5.556-27.914 7.18a36.829 36.829 0 0 0 -6.923-4.626c-1.314-1.934-2.649-3.568-2.649-3.568a36.475 36.475 0 0 1 10.17 6.057c6.143-1.581 18.001-5.171 27.263-7.051z" fill="#baba67"/><path d="m68.4 33.894a5.621 5.621 0 0 1 -1.25 1.891c-2.489-.994-11.6-4.722-15.9-8.044-.833-.641-2.628-.8-5.021-.62a8.072 8.072 0 0 0 -6.805-5.758 12.883 12.883 0 0 0 -.919-2.243 8.179 8.179 0 0 1 8.322 5.865c2.4-.182 4.188-.021 5.021.62 5.002 3.866 16.552 8.289 16.552 8.289z" fill="#baba67"/><g fill="#323c6b"><path d="m39.982 27.154a.52.52 0 0 1 -.067 0 .5.5 0 0 1 -.429-.562c.028-.214.048-.426.061-.638a.511.511 0 0 1 .529-.468.5.5 0 0 1 .469.53c-.015.235-.036.472-.068.709a.5.5 0 0 1 -.495.429z"/><path d="m47.257 27.289a.5.5 0 0 1 -.5-.452 8.379 8.379 0 0 0 -.4-1.695.5.5 0 1 1 .947-.321 9.347 9.347 0 0 1 .451 1.921.5.5 0 0 1 -.45.545z"/><path d="m27.893 42.921a.5.5 0 0 1 -.476-.656 10.2 10.2 0 0 0 .289-1.061.5.5 0 0 1 .979.209 11.561 11.561 0 0 1 -.316 1.163.5.5 0 0 1 -.476.345z"/><path d="m41.464 43.894a.45.45 0 0 1 -.072-.005.5.5 0 0 1 -.424-.566 7.827 7.827 0 0 0 .077-.843.464.464 0 0 1 .52-.48.5.5 0 0 1 .48.519 9.263 9.263 0 0 1 -.087.949.5.5 0 0 1 -.494.426z"/><circle cx="56.93" cy="33.019" r="1.287"/><path d="m71.5 34.392h-3.1a.5.5 0 0 1 0-1h3.1a.5.5 0 0 1 0 1z"/></g><path d="m16.113 37.722a.687.687 0 0 1 -.154-.017l-.389-.088a.694.694 0 0 1 .308-1.354l.389.088a.694.694 0 0 1 -.153 1.371z" fill="#fff"/><path d="m25.708 40.005a.711.711 0 0 1 -.164-.02l-7.091-1.721a.695.695 0 1 1 .328-1.35l7.091 1.721a.695.695 0 0 1 -.163 1.37z" fill="#fff"/><path d="m66.423 40.172a.5.5 0 0 1 -.324-.88c.207-.177.4-.352.59-.524a.5.5 0 0 1 .682.731c-.2.183-.4.367-.623.554a.5.5 0 0 1 -.325.119z" fill="#323c6b"/><path d="m57.432 44.467a.5.5 0 0 1 -.14-.98 32.49 32.49 0 0 0 7.094-2.911.5.5 0 1 1 .5.867 33.508 33.508 0 0 1 -7.312 3 .5.5 0 0 1 -.142.024z" fill="#323c6b"/><path d="m5.156 46.662a.5.5 0 0 1 -.19-.962 73.743 73.743 0 0 0 7.381-3.639.5.5 0 1 1 .486.873 74.711 74.711 0 0 1 -7.486 3.69.5.5 0 0 1 -.191.038z" fill="#323c6b"/><path d="m2.831 47.684a.5.5 0 0 1 -.169-.971l.481-.172a.5.5 0 0 1 .338.941l-.481.173a.5.5 0 0 1 -.169.029z" fill="#323c6b"/><path d="m40.684 48.076c-.251 0-.51-.011-.778-.033a.5.5 0 0 1 -.376-.773 10.836 10.836 0 0 0 1.338-3.37c-2.083.016-4.157-.05-6.179-.195a8.238 8.238 0 0 1 -9.607 3.722.5.5 0 0 1 -.229-.83 13 13 0 0 0 2.361-3.777 93.39 93.39 0 0 1 -13.746-3.32 74.55 74.55 0 0 1 -11.339 5.663.5.5 0 0 1 -.557-.787c1.394-1.708 5.011-6.56 5.011-8.477s-3.617-6.778-5.011-8.486a.5.5 0 0 1 -.021-.6.505.505 0 0 1 .577-.182 37.293 37.293 0 0 1 10.143 5.969c1.745-.455 3.919-1.06 6.347-1.734 6.393-1.776 14.318-3.978 20.947-5.3a13.641 13.641 0 0 0 -1.492-6.2.5.5 0 0 1 .006-.495.574.574 0 0 1 .514-.249 8.614 8.614 0 0 1 8.581 5.834c2.5-.155 4.128.093 4.986.756 4.881 3.772 16.3 8.169 16.414 8.213a.5.5 0 0 1 .3.611c-.081.268-2.167 6.58-18.415 9.1-.934.148-1.943.279-3.156.408a6.946 6.946 0 0 1 -6.619 4.532zm.779-5.182a.5.5 0 0 1 .5.569 11.569 11.569 0 0 1 -1.17 3.612 5.959 5.959 0 0 0 5.687-4.175.5.5 0 0 1 .417-.323c1.331-.137 2.413-.274 3.407-.432 13.1-2.03 16.621-6.578 17.411-7.982-2.3-.9-11.706-4.712-16.167-8.16-.474-.365-1.67-.752-4.68-.524a.5.5 0 0 1 -.512-.338 7.559 7.559 0 0 0 -7.037-5.5 14.051 14.051 0 0 1 1.225 6.368.5.5 0 0 1 -.4.458c-6.668 1.309-14.757 3.557-21.257 5.363-2.559.71-4.836 1.343-6.628 1.807a.5.5 0 0 1 -.479-.13 37.109 37.109 0 0 0 -8.272-5.245c1.56 2.072 4.076 5.711 4.076 7.634s-2.549 5.6-4.106 7.664a82.406 82.406 0 0 0 9.665-5.038.505.505 0 0 1 .419-.05 92.223 92.223 0 0 0 14.408 3.451.5.5 0 0 1 .4.653 13.769 13.769 0 0 1 -2.237 4.062 7.193 7.193 0 0 0 7.863-3.712.493.493 0 0 1 .469-.244c2.282.173 4.638.242 6.994.208z" fill="#323c6b"/></g></svg>