<svg height="512" viewBox="0 0 74 74" width="512" xmlns="http://www.w3.org/2000/svg"><g id="line_color" data-name="line color"><path d="m47.638 36.25 9.182-14.112a5.218 5.218 0 0 0 -1.44-7.265c-2.294-1.537-5.119-2.494-7.68-1.672 1.924.871 4.69 2.576 5.689 5.161a2.188 2.188 0 0 1 -.22 1.926 2.313 2.313 0 0 1 -2.8.9 4.036 4.036 0 0 0 -2.816-.05 5.36 5.36 0 0 1 2.382 2.776 2.273 2.273 0 0 1 -.254 2.053l-3.045 4.5" fill="#f7be56"/><g fill="#323c6b"><path d="m31.08 27.461a.5.5 0 0 1 -.43-.244c-3.093-5.2-1.526-12.089-.59-16.206.177-.779.333-1.464.433-2.027a6.781 6.781 0 0 0 -1.914-5.621.5.5 0 1 1 .686-.728 7.709 7.709 0 0 1 2.213 6.522c-.1.576-.261 1.277-.442 2.075-.9 3.971-2.414 10.617.475 15.473a.5.5 0 0 1 -.43.756z"/><path d="m43.2 27.461a.5.5 0 0 1 -.43-.756c2.889-4.855 1.377-11.5.475-15.473-.182-.8-.341-1.5-.442-2.075a7.709 7.709 0 0 1 2.213-6.522.5.5 0 0 1 .687.727 6.816 6.816 0 0 0 -1.915 5.621c.1.563.256 1.248.433 2.027.937 4.117 2.5 11.007-.59 16.206a.5.5 0 0 1 -.431.245z"/><path d="m34.18 25.716a.488.488 0 0 1 -.131-.018.5.5 0 0 1 -.352-.613 3.015 3.015 0 0 0 -.511-2.439.5.5 0 0 1 .785-.62 4.026 4.026 0 0 1 .69 3.321.5.5 0 0 1 -.481.369z"/><path d="m40.1 25.716a.5.5 0 0 1 -.482-.369 4.026 4.026 0 0 1 .69-3.321.5.5 0 0 1 .786.619 3.052 3.052 0 0 0 -.512 2.44.5.5 0 0 1 -.352.613.488.488 0 0 1 -.13.018z"/><path d="m54.921 12.035a.5.5 0 0 1 -.23-.056q-.442-.229-.887-.422a.5.5 0 0 1 .4-.917c.316.139.633.288.947.452a.5.5 0 0 1 -.23.944z"/><path d="m61.423 20.544a.5.5 0 0 1 -.5-.466 8.42 8.42 0 0 0 -2.9-5.825c-.144-.125-.289-.237-.435-.35l-.229-.178a.5.5 0 1 1 .623-.782l.217.169c.161.125.321.249.479.386a9.414 9.414 0 0 1 3.244 6.513.5.5 0 0 1 -.465.533z"/><path d="m47.638 36.75a.5.5 0 0 1 -.419-.772l9.181-14.113a4.669 4.669 0 0 0 .725-3.542 4.716 4.716 0 0 0 -2.025-3.035 9.911 9.911 0 0 0 -5.876-1.875 10.115 10.115 0 0 1 4.631 4.769 2.7 2.7 0 0 1 -.262 2.369 2.8 2.8 0 0 1 -3.4 1.105 4.06 4.06 0 0 0 -1.455-.248 5.082 5.082 0 0 1 1.662 2.333 2.775 2.775 0 0 1 -.31 2.506l-3.045 4.5a.5.5 0 1 1 -.828-.561l3.045-4.5a1.771 1.771 0 0 0 .2-1.6 4.908 4.908 0 0 0 -2.2-2.54.5.5 0 0 1 .1-.873 4.5 4.5 0 0 1 3.173.045 1.819 1.819 0 0 0 2.2-.693 1.693 1.693 0 0 0 .179-1.482c-.991-2.563-3.826-4.161-5.429-4.886a.5.5 0 0 1 .053-.932c3.251-1.042 6.477.637 8.111 1.732a5.719 5.719 0 0 1 1.576 7.961l-9.178 14.1a.5.5 0 0 1 -.409.232z"/></g><path d="m27.64 30.463-3.045-4.5a2.273 2.273 0 0 1 -.254-2.053 5.36 5.36 0 0 1 2.382-2.776 4.036 4.036 0 0 0 -2.816.05 2.313 2.313 0 0 1 -2.8-.9 2.188 2.188 0 0 1 -.22-1.926c1-2.585 3.765-4.291 5.689-5.161-2.56-.823-5.385.134-7.68 1.672a5.218 5.218 0 0 0 -1.44 7.265l9.182 14.116" fill="#f7be56"/><path d="m26.638 36.75a.5.5 0 0 1 -.419-.228l-9.183-14.112a5.646 5.646 0 0 1 -.868-4.278 5.71 5.71 0 0 1 2.449-3.675c1.634-1.1 4.86-2.774 8.111-1.732a.5.5 0 0 1 .053.932c-1.6.725-4.437 2.323-5.429 4.886a1.691 1.691 0 0 0 .18 1.483 1.815 1.815 0 0 0 2.2.692 4.507 4.507 0 0 1 3.173-.045.5.5 0 0 1 .1.873 4.908 4.908 0 0 0 -2.2 2.54 1.771 1.771 0 0 0 .2 1.6l3.045 4.5a.5.5 0 1 1 -.828.561l-3.045-4.5a2.775 2.775 0 0 1 -.31-2.506 5.082 5.082 0 0 1 1.663-2.333 4.1 4.1 0 0 0 -1.455.248 2.8 2.8 0 0 1 -3.4-1.1 2.7 2.7 0 0 1 -.263-2.369 10.115 10.115 0 0 1 4.631-4.769 9.94 9.94 0 0 0 -5.876 1.875 4.716 4.716 0 0 0 -2.024 3.036 4.662 4.662 0 0 0 .72 3.534l9.188 14.12a.5.5 0 0 1 -.419.772z" fill="#323c6b"/><path d="m40.441 63.1c1.338 2.151 2.82 5.042 2.038 6.226-1.472 2.233-9.21 2.233-10.682 0-.782-1.183.7-4.075 2.038-6.226" fill="#fcd462"/><path d="m37.138 71.5c-2.179 0-4.835-.5-5.758-1.9-.277-.419-1.122-1.7 2.03-6.766a.5.5 0 0 1 .85.528c-2.611 4.2-2.226 5.414-2.046 5.686.563.854 2.588 1.451 4.924 1.451 2.335 0 4.358-.6 4.92-1.45.182-.273.566-1.49-2.044-5.687a.5.5 0 0 1 .85-.528c3.154 5.066 2.309 6.347 2.036 6.766-.922 1.4-3.577 1.9-5.755 1.9z" fill="#323c6b"/><path d="m25.65 36.7a11.488 11.488 0 0 1 22.976 0c0 18.934-5.143 27.225-11.488 27.225s-11.488-8.287-11.488-27.225z" fill="#fcd462"/><path d="m48.628 36.7c0 18.94-5.15 27.23-11.49 27.23a7.124 7.124 0 0 1 -4.58-1.69 6.677 6.677 0 0 0 1.83.25c6.35 0 11.49-8.29 11.49-27.23a11.474 11.474 0 0 0 -4.85-9.37 11.5 11.5 0 0 1 7.6 10.81z" fill="#f7be56"/><path d="m37.138 46.265a16.645 16.645 0 0 1 -5.845-1.084.65.65 0 1 1 .453-1.218 15.048 15.048 0 0 0 10.783 0 .65.65 0 1 1 .453 1.218 16.645 16.645 0 0 1 -5.844 1.084z" fill="#f7be56"/><path d="m37.138 51.259a12.091 12.091 0 0 1 -4.241-.786.65.65 0 1 1 .453-1.219 10.566 10.566 0 0 0 7.576 0 .65.65 0 1 1 .453 1.219 12.091 12.091 0 0 1 -4.241.786z" fill="#f7be56"/><path d="m37.138 55.839a9.333 9.333 0 0 1 -3.273-.606.65.65 0 1 1 .453-1.219 7.765 7.765 0 0 0 5.641 0 .65.65 0 1 1 .453 1.219 9.333 9.333 0 0 1 -3.274.606z" fill="#f7be56"/><path d="m24.458 54.042a.5.5 0 0 1 -.483-.372 55.819 55.819 0 0 1 -1.575-9.923.5.5 0 0 1 1-.076 54.714 54.714 0 0 0 1.541 9.743.5.5 0 0 1 -.355.611.506.506 0 0 1 -.128.017z" fill="#323c6b"/><path d="m22.732 41.167a.5.5 0 0 1 -.5-.481l-.028-.709a.5.5 0 0 1 .481-.518h.015a.5.5 0 0 1 .5.481l.028.709a.5.5 0 0 1 -.481.518z" fill="#323c6b"/><path d="m37.138 64.429c-7.507 0-11.988-10.365-11.988-27.725a11.988 11.988 0 0 1 23.977 0c-.001 17.36-4.482 27.725-11.989 27.725zm0-38.713a11 11 0 0 0 -10.989 10.984c0 16.734 4.107 26.725 10.988 26.725s10.989-9.987 10.989-26.725a11 11 0 0 0 -10.988-10.984z" fill="#323c6b"/></g></svg>