<svg height="512" viewBox="0 0 74 74" width="512" xmlns="http://www.w3.org/2000/svg"><g id="line_color" data-name="line color"><path d="m54.967 27.339v25.374c6.684-1.122 17.068-6.373 17.068-12.687s-10.384-11.565-17.068-12.687z" fill="#e1e6e9"/><path d="m69.975 44.926a6.491 6.491 0 0 0 .75-2.95c0-5.91-9.11-10.89-15.76-12.42v-2.22c6.69 1.12 17.07 6.38 17.07 12.69a7.648 7.648 0 0 1 -2.06 4.9z" fill="#d5d6db"/><path d="m6.665 31.28a1.725 1.725 0 0 0 -2.414 2.3c1.143 2.12 2.709 5.363 2.709 6.446s-1.566 4.331-2.708 6.451a1.725 1.725 0 0 0 2.414 2.3l8.983-6.457a2.819 2.819 0 0 0 0-4.579z" fill="#e1e6e9"/><path d="m16.325 41.616a2.769 2.769 0 0 0 -1.11-1.72l-8.99-6.45a1.654 1.654 0 0 0 -1.97.13 1.726 1.726 0 0 1 2.41-2.3l8.98 6.46a2.812 2.812 0 0 1 .68 3.88z" fill="#d5d6db"/><g fill="#323c6b"><path d="m54.967 40.526h-38.146a.5.5 0 1 1 0-1h38.146a.5.5 0 1 1 0 1z"/><path d="m43.386 50.362c-2.674 0-4.768-4.54-4.768-10.336s2.094-10.336 4.768-10.336a.5.5 0 0 1 0 1c-1.819 0-3.768 3.751-3.768 9.336s1.948 9.336 3.768 9.336a.5.5 0 0 1 0 1z"/><path d="m49.411 51.6c-2.674 0-4.769-5.086-4.769-11.579s2.095-11.578 4.769-11.578a.5.5 0 0 1 0 1c-1.782 0-3.769 4.344-3.769 10.578s1.987 10.579 3.769 10.579a.5.5 0 0 1 0 1z"/><path d="m36.768 47.622c-2.04 0-3.579-3.266-3.579-7.6s1.539-7.6 3.579-7.6a.5.5 0 0 1 0 1c-1.22 0-2.579 2.709-2.579 6.6s1.359 6.6 2.579 6.6a.5.5 0 1 1 0 1z"/><path d="m30.313 45.645c-1.551 0-2.721-2.416-2.721-5.619s1.17-5.619 2.721-5.619a.5.5 0 0 1 0 1c-.719 0-1.721 1.757-1.721 4.619s1 4.619 1.721 4.619a.5.5 0 0 1 0 1z"/><path d="m23.979 44.219c-1.365 0-2.1-2.16-2.1-4.192s.736-4.193 2.1-4.193a.5.5 0 1 1 0 1c-.438 0-1.1 1.273-1.1 3.193s.663 3.192 1.1 3.192a.5.5 0 1 1 0 1z"/><path d="m69.243 42.479c-4.515 0-5.847-2.271-5.91-2.385a.5.5 0 0 1 .87-.493c.024.04 1.627 2.61 7.493 1.667a.5.5 0 1 1 .158.987 16.5 16.5 0 0 1 -2.611.224z"/><circle cx="62.508" cy="35.106" r="1.448"/><path d="m65.426 28.573a.5.5 0 0 1 -.271-.08 27.139 27.139 0 0 0 -6.473-2.824.5.5 0 1 1 .291-.957 28.609 28.609 0 0 1 6.727 2.941.5.5 0 0 1 -.271.92z"/><path d="m68.187 30.127a.471.471 0 0 1 -.269-.084l-.031-.021c-.293-.2-.353-.243-.672-.443a.5.5 0 1 1 .531-.847c.337.211.4.254.708.466a.516.516 0 0 1 .144.706.5.5 0 0 1 -.411.223z"/><path d="m5.766 52.534a.5.5 0 0 1 0-1 4.241 4.241 0 0 0 2.2-.625l.1-.061 4.022-2.894a.5.5 0 1 1 .584.812l-4.19 3a5.24 5.24 0 0 1 -2.716.768z"/><path d="m2.486 51.193a.5.5 0 0 1 -.347-.14 5.3 5.3 0 0 1 -.576-.652.5.5 0 0 1 .8-.6 4.318 4.318 0 0 0 .467.53.5.5 0 0 1 -.347.86z"/><path d="m54.967 53.213a.5.5 0 0 1 -.5-.5v-25.374a.5.5 0 0 1 .177-.382.514.514 0 0 1 .406-.111c7.146 1.2 17.485 6.583 17.485 13.18s-10.335 11.981-17.485 13.18a.529.529 0 0 1 -.083.007zm.5-25.274v24.175c6.9-1.349 16.068-6.425 16.068-12.087s-9.169-10.739-16.068-12.089z"/><path d="m5.746 49.532a2.236 2.236 0 0 1 -1.934-3.292c1.56-2.9 2.648-5.451 2.648-6.213s-1.089-3.318-2.648-6.213a2.225 2.225 0 0 1 3.113-2.96l.032.021 8.982 6.457a3.32 3.32 0 0 1 0 5.391l-8.982 6.455a2.32 2.32 0 0 1 -1.211.354zm.018-18.015a1.229 1.229 0 0 0 -.837.347 1.188 1.188 0 0 0 -.234 1.474c.462.858 2.768 5.214 2.768 6.688s-2.306 5.83-2.768 6.688a1.225 1.225 0 0 0 1.713 1.631l8.95-6.436a2.319 2.319 0 0 0 0-3.767l-8.966-6.442a1.217 1.217 0 0 0 -.626-.182z"/></g><path d="m59.253 48.341a.65.65 0 0 1 -.213-1.265 31.022 31.022 0 0 0 6.149-2.915.65.65 0 0 1 .688 1.1 32.362 32.362 0 0 1 -6.411 3.04.65.65 0 0 1 -.213.04z" fill="#fff"/><path d="m57.441 45.942a.65.65 0 0 1 -.65-.65v-.72a.65.65 0 0 1 1.3 0v.72a.65.65 0 0 1 -.65.65z" fill="#fff"/></g></svg>