<svg height="512" viewBox="0 0 74 74" width="512" xmlns="http://www.w3.org/2000/svg"><g id="line_color" data-name="line color"><path d="m23.67 28.828a6.353 6.353 0 0 0 .17-3.535c-.66-1.47 2.45-4.172 5.56-4.516s1.22-.6 7.29-2.691a22.668 22.668 0 0 1 5.49-1.178 2.944 2.944 0 0 1 3.3 3.327 12.273 12.273 0 0 0 -.094 2.338" fill="#e1e6e9"/><path d="m23.67 29.328a.5.5 0 0 1 -.484-.627 5.754 5.754 0 0 0 .2-3.207 1.932 1.932 0 0 1 .22-1.807 8.192 8.192 0 0 1 5.742-3.407 4.823 4.823 0 0 0 2.394-.66 27.236 27.236 0 0 1 4.788-2.006 23.221 23.221 0 0 1 5.612-1.2 3.711 3.711 0 0 1 3.069 1.2 3.137 3.137 0 0 1 .762 2.722 11.915 11.915 0 0 0 -.086 2.2.5.5 0 1 1 -1 .075 12.575 12.575 0 0 1 .1-2.473 2.146 2.146 0 0 0 -.528-1.861 2.711 2.711 0 0 0 -2.24-.87 22.228 22.228 0 0 0 -5.37 1.153 26.307 26.307 0 0 0 -4.63 1.94 5.784 5.784 0 0 1 -2.763.776 7.2 7.2 0 0 0 -4.984 2.909 1.125 1.125 0 0 0 -.175.9 6.706 6.706 0 0 1 -.143 3.867.5.5 0 0 1 -.484.376z" fill="#323c6b"/><path d="m42.729 51.514c.016.3.062 1.239.123 1.543a2.944 2.944 0 0 1 -3.3 3.327 11.083 11.083 0 0 1 -3.966-.71c-6.07-2.086-3.086-2.11-6.186-2.454s-6.22-3.045-5.56-4.516c.39-.886.035-2.375-.255-3.48" fill="#e1e6e9"/><path d="m39.824 56.9q-.157 0-.314-.013c-.306-.025-.564-.039-.8-.052a9.869 9.869 0 0 1 -3.288-.682c-3.3-1.136-4.005-1.686-4.424-2.015-.263-.207-.343-.269-1.655-.415a8.193 8.193 0 0 1 -5.743-3.412 1.933 1.933 0 0 1 -.219-1.81c.34-.774-.081-2.378-.283-3.149a.5.5 0 0 1 .967-.254c.344 1.312.674 2.8.229 3.809a1.123 1.123 0 0 0 .173.908 7.2 7.2 0 0 0 4.984 2.91c1.448.161 1.7.262 2.162.622.345.271.988.775 4.132 1.856a8.873 8.873 0 0 0 3.02.629c.241.014.507.028.824.054a2.71 2.71 0 0 0 2.241-.869 2.146 2.146 0 0 0 .529-1.86 14.849 14.849 0 0 1 -.127-1.512l-.005-.1a.5.5 0 0 1 .471-.527.507.507 0 0 1 .527.471l.006.1c.017.309.061 1.128.109 1.368a3.138 3.138 0 0 1 -.762 2.722 3.693 3.693 0 0 1 -2.754 1.221z" fill="#323c6b"/><path d="m70.51 36.984s-6.64 14.53-28.3 14.53c-11.79 0-21.64-6.2-27.14-10.44a8.57 8.57 0 0 1 -5.7 3.62c-1.8.37-5.2.68-6.78-.61 4.86-.17-.08-7.09-.08-7.09s4.94-6.92.08-7.09c1.58-1.3 4.98-.98 6.78-.62a8.631 8.631 0 0 1 5.74 3.68c6.02-4.49 15.13-10.5 27.1-10.5 21.66 0 28.3 14.52 28.3 14.52z" fill="#e1e6e9"/><path d="m70.51 36.986a15.313 15.313 0 0 1 -1.14 1.93c-1.69-2.94-9.19-13.79-27.91-13.79-11.97 0-21.08 6.01-27.1 10.5a8.631 8.631 0 0 0 -5.74-3.68 15.482 15.482 0 0 0 -3.9-.29c-.04-.97-.6-1.69-2.13-1.75 1.58-1.3 4.98-.98 6.78-.62a8.63 8.63 0 0 1 5.74 3.68c6.02-4.49 15.13-10.5 27.1-10.5 21.66 0 28.3 14.52 28.3 14.52z" fill="#d5d6db"/><path d="m59.688 47.976a.5.5 0 0 1 -.32-.117 13.271 13.271 0 0 1 -3.982-6.465 11.135 11.135 0 0 1 .953-8.036.5.5 0 1 1 .874.486 10.125 10.125 0 0 0 -.856 7.308 12.376 12.376 0 0 0 3.654 5.94.5.5 0 0 1 -.321.883z" fill="#323c6b"/><circle cx="62.19" cy="35.308" fill="#323c6b" r="1.486"/><path d="m46.755 39.653c0 1.471 2.537 2.664-.244 2.664s-8.869-1.193-8.869-2.664 6.088-2.664 8.869-2.664.244 1.193.244 2.664z" fill="#d5d6db"/><g fill="#323c6b"><path d="m46.512 42.817c-2.182 0-9.369-.986-9.369-3.164s7.187-3.164 9.369-3.164c.858 0 1.478.1 1.719.559s-.083.939-.4 1.39a2.442 2.442 0 0 0 -.575 1.215 2.439 2.439 0 0 0 .575 1.215c.317.451.646.917.4 1.39s-.861.559-1.719.559zm0-5.327c-3.449 0-8.369 1.4-8.369 2.164s4.92 2.164 8.369 2.164a4.252 4.252 0 0 0 .722-.046c-.063-.1-.15-.225-.221-.326a3.2 3.2 0 0 1 -.757-1.791 3.2 3.2 0 0 1 .757-1.791c.072-.1.159-.225.222-.327a4.252 4.252 0 0 0 -.723-.048z"/><path d="m10.729 47.937a.5.5 0 0 1 -.125-.984c.237-.061.465-.134.691-.209a.5.5 0 0 1 .316.948c-.248.083-.5.163-.758.229a.5.5 0 0 1 -.124.016z"/><path d="m6.258 48.517a10.063 10.063 0 0 1 -4.91-1.088.5.5 0 0 1 .485-.874 10.725 10.725 0 0 0 6.249.862.5.5 0 1 1 .1.994 18.518 18.518 0 0 1 -1.924.106z"/><path d="m59.51 23.529a.5.5 0 0 1 -.212-.047 36.008 36.008 0 0 0 -8.131-2.653.5.5 0 0 1 .2-.98 37.035 37.035 0 0 1 8.358 2.729.5.5 0 0 1 -.213.953z"/><path d="m62 25.01a.5.5 0 0 1 -.272-.081l-.441-.29a.5.5 0 0 1 .544-.839l.442.29a.5.5 0 0 1 -.273.92z"/><path d="m42.21 52.014c-11.13 0-20.773-5.485-27.028-10.226a9.18 9.18 0 0 1 -5.713 3.4c-.843.172-5.153.954-7.195-.713a.5.5 0 0 1 .3-.887c1.2-.042 1.441-.527 1.52-.686.6-1.219-.9-4.09-1.989-5.614a.5.5 0 0 1 0-.581c1.087-1.525 2.589-4.4 1.989-5.615-.079-.159-.317-.644-1.52-.686a.5.5 0 0 1 -.3-.886c2.014-1.656 6.347-.895 7.2-.724a9.238 9.238 0 0 1 5.759 3.461c6.575-4.857 15.532-10.293 26.977-10.293 21.73 0 28.688 14.664 28.755 14.812a.5.5 0 0 1 0 .416c-.065.148-7.025 14.822-28.755 14.822zm-27.14-11.44a.5.5 0 0 1 .305.1c6.116 4.715 15.736 10.336 26.834 10.336 19.68 0 26.819-12.268 27.741-14.029-.924-1.758-8.09-14.021-27.741-14.021-11.394 0-20.308 5.559-26.8 10.4a.5.5 0 0 1 -.719-.13 8.138 8.138 0 0 0 -5.419-3.461 12.244 12.244 0 0 0 -5.211-.047 1.992 1.992 0 0 1 .93.921c.937 1.9-1.154 5.28-1.872 6.347.718 1.067 2.808 4.446 1.872 6.347a1.992 1.992 0 0 1 -.924.918 12.508 12.508 0 0 0 5.2-.055 8.071 8.071 0 0 0 5.381-3.4.5.5 0 0 1 .335-.221.488.488 0 0 1 .088-.005z"/><path d="m42.21 52.014c-11.38 0-21.21-5.734-27.445-10.544a.5.5 0 1 1 .61-.792c6.116 4.715 15.736 10.336 26.834 10.336a.5.5 0 0 1 0 1z"/></g><path d="m27.289 45.171a.645.645 0 0 1 -.277-.062 64.305 64.305 0 0 1 -6.083-3.309.65.65 0 0 1 .684-1.105 63.7 63.7 0 0 0 5.954 3.24.65.65 0 0 1 -.277 1.238z" fill="#fff"/><path d="m30.385 46.46a.649.649 0 0 1 -.234-.044l-.636-.25a.65.65 0 0 1 .485-1.207l.622.244a.65.65 0 0 1 -.234 1.257z" fill="#fff"/></g></svg>