<svg height="512" viewBox="0 0 74 74" width="512" xmlns="http://www.w3.org/2000/svg"><g id="line_color" data-name="line color"><path d="m34.013 43.542a7.664 7.664 0 0 0 -7.9-4.708 7.82 7.82 0 0 1 1.49 4.708z" fill="#9297ab"/><path d="m34.013 44.042h-6.413a.5.5 0 0 1 -.5-.507 7.346 7.346 0 0 0 -1.394-4.406.5.5 0 0 1 .362-.792 8.13 8.13 0 0 1 8.4 5.01.5.5 0 0 1 -.46.7zm-5.92-1h5.123a7.082 7.082 0 0 0 -6.207-3.742 8.372 8.372 0 0 1 1.084 3.742z" fill="#323c6b"/><path d="m58.4 37.78v7.5a11.184 11.184 0 0 1 -11.179 11.18h-35.909c-6.993 0-9.287-6.9-9.287-6.9s2.295-6.9 9.287-6.9h30.776a3.454 3.454 0 0 0 3.454-3.46 3.454 3.454 0 0 0 -3.454-3.454h-20.888a7.373 7.373 0 0 1 -7.385-7.4 6.415 6.415 0 0 1 6.406-6.418 6.912 6.912 0 0 0 6.907 6.907h22.339a8.937 8.937 0 0 1 8.933 8.945z" fill="#bbbbcd"/><path d="m67.494 16.36c.07-2.98-3.51-5.86-7.02-4.71a12.061 12.061 0 0 1 2.11 6.99" fill="#9dceb2"/><path d="m62.584 19.14h-.047a.5.5 0 0 1 -.452-.544 11.676 11.676 0 0 0 -2.033-6.674.5.5 0 0 1 .265-.745 5.88 5.88 0 0 1 5.39.94 5.287 5.287 0 0 1 2.286 4.256.54.54 0 0 1 -.512.488.5.5 0 0 1 -.488-.512 4.349 4.349 0 0 0 -1.883-3.43 4.949 4.949 0 0 0 -3.857-.952 11.941 11.941 0 0 1 1.829 6.72.5.5 0 0 1 -.498.453z" fill="#323c6b"/><path d="m55.86 31v11.48a11.19 11.19 0 0 1 -11.19 11.19h-35.9a9.038 9.038 0 0 1 -5.61-1.87 9.483 9.483 0 0 0 8.15 4.66h35.91a11.179 11.179 0 0 0 11.18-11.18v-9.047a6.66 6.66 0 0 0 -2.54-5.233z" fill="#9297ab"/><path d="m70.024 21.458a7.373 7.373 0 0 1 -7.4 7.385h-35.5a6.912 6.912 0 0 1 -6.907-6.907h36.483a6.9 6.9 0 0 0 6.907-6.9 6.42 6.42 0 0 1 6.417 6.422z" fill="#bbbbcd"/><path d="m63.61 15.04a6.9 6.9 0 0 1 -6.91 6.9h-35.661a10.142 10.142 0 0 0 -5.077 1.24c-.005.186-.018.372-.038.548-.01.092-.024.192-.037.291h41.983a6.9 6.9 0 0 0 6.9-6.9 6.366 6.366 0 0 1 4.91 2.3 6.383 6.383 0 0 0 -6.07-4.379z" fill="#9297ab"/><path d="m70.02 21.46a7.36 7.36 0 0 1 -2.15 5.22 7.125 7.125 0 0 1 -2.54 1.64 5.344 5.344 0 0 0 .44-.39 7.328 7.328 0 0 0 2.16-5.22 6.436 6.436 0 0 0 -4.5-6.13 6.555 6.555 0 0 0 .18-1.54 6.412 6.412 0 0 1 6.41 6.42z" fill="#9297ab"/><g fill="#323c6b"><path d="m15.623 56.96a.5.5 0 0 1 -.262-.926 6.488 6.488 0 0 0 2.44-8.362.5.5 0 1 1 .9-.437 7.487 7.487 0 0 1 -2.817 9.651.5.5 0 0 1 -.261.074z"/><circle cx="10.649" cy="46.571" r="1.252"/><path d="m6.349 50.609a.493.493 0 0 1 -.239-.062c-2.286-1.25-3.6-.307-3.659-.266a.5.5 0 0 1 -.609-.793c.075-.058 1.857-1.4 4.747.182a.5.5 0 0 1 -.24.938z"/><path d="m60.3 51.25a.5.5 0 0 1 -.461-.694 13.507 13.507 0 0 0 .484-1.367.5.5 0 1 1 .958.288 14.716 14.716 0 0 1 -.521 1.466.5.5 0 0 1 -.46.307z"/><path d="m47.221 59.96a.5.5 0 0 1 0-1 13.745 13.745 0 0 0 11.008-5.59.5.5 0 1 1 .8.594 14.749 14.749 0 0 1 -11.808 5.996z"/><path d="m41.679 19.435h-8.938a.5.5 0 0 1 0-1h8.938a.5.5 0 0 1 0 1z"/><path d="m45.4 19.435h-.771a.5.5 0 0 1 0-1h.771a.5.5 0 0 1 0 1z"/><path d="m47.22 56.96h-35.91c-7.267 0-9.74-7.169-9.764-7.242a.5.5 0 0 1 0-.318 12.474 12.474 0 0 1 2.109-3.61 9.765 9.765 0 0 1 7.654-3.63h30.781a2.955 2.955 0 0 0 0-5.91h-20.89a7.875 7.875 0 0 1 -7.89-7.9 6.9 6.9 0 0 1 6.91-6.91h36.48a6.412 6.412 0 0 0 6.41-6.4.5.5 0 0 1 .5-.5 6.923 6.923 0 0 1 6.91 6.92 7.857 7.857 0 0 1 -7.89 7.88h-8.938a9.451 9.451 0 0 1 5.208 8.44v7.5a11.693 11.693 0 0 1 -11.68 11.68zm-44.667-7.4c.392 1.032 2.72 6.4 8.757 6.4h35.91a10.692 10.692 0 0 0 10.68-10.68v-7.5a8.445 8.445 0 0 0 -8.43-8.44.5.5 0 0 1 0-1h13.16a6.857 6.857 0 0 0 6.89-6.88 5.924 5.924 0 0 0 -5.428-5.9 7.415 7.415 0 0 1 -7.392 6.88h-36.48a5.9 5.9 0 0 0 -5.91 5.91 6.874 6.874 0 0 0 6.89 6.9h20.89a3.98 3.98 0 0 1 2.794 1.156 3.958 3.958 0 0 1 -2.794 6.754h-30.78a8.791 8.791 0 0 0 -6.887 3.271 11.944 11.944 0 0 0 -1.87 3.132z"/></g><path d="m41.25 46.359h-.583a.65.65 0 1 1 0-1.3h.583a.65.65 0 0 1 0 1.3z" fill="#fff"/><path d="m38.433 46.359h-7a.65.65 0 0 1 0-1.3h7a.65.65 0 0 1 0 1.3z" fill="#fff"/><path d="m49.47 29.34h-24.72a.5.5 0 0 1 0-1h24.72a.5.5 0 0 1 0 1z" fill="#323c6b"/><path d="m67.494 16.36c.07-2.98-3.51-5.86-7.02-4.71a12.061 12.061 0 0 1 2.11 6.99" fill="#9297ab"/><path d="m62.584 19.14h-.047a.5.5 0 0 1 -.452-.544 11.673 11.673 0 0 0 -2.033-6.673.5.5 0 0 1 .265-.745 5.878 5.878 0 0 1 5.389.94 5.287 5.287 0 0 1 2.287 4.257.54.54 0 0 1 -.512.488.5.5 0 0 1 -.488-.512 4.349 4.349 0 0 0 -1.883-3.431 4.936 4.936 0 0 0 -3.857-.951 11.938 11.938 0 0 1 1.829 6.72.5.5 0 0 1 -.498.451z" fill="#323c6b"/><path d="m47.22 56.96h-35.91c-7.267 0-9.74-7.169-9.764-7.242a.5.5 0 0 1 0-.318 12.475 12.475 0 0 1 2.109-3.61 9.766 9.766 0 0 1 7.654-3.63h30.781a2.955 2.955 0 0 0 0-5.91h-20.89a7.874 7.874 0 0 1 -7.89-7.9 6.9 6.9 0 0 1 6.91-6.91h36.48a6.412 6.412 0 0 0 6.41-6.4.5.5 0 0 1 .5-.5 6.923 6.923 0 0 1 6.91 6.92 7.858 7.858 0 0 1 -7.89 7.88h-8.938a9.451 9.451 0 0 1 5.208 8.44v7.5a11.693 11.693 0 0 1 -11.68 11.68zm-44.667-7.4c.392 1.032 2.72 6.4 8.757 6.4h35.91a10.692 10.692 0 0 0 10.68-10.68v-7.5a8.445 8.445 0 0 0 -8.43-8.44.5.5 0 0 1 0-1h13.16a6.858 6.858 0 0 0 6.89-6.88 5.924 5.924 0 0 0 -5.428-5.9 7.415 7.415 0 0 1 -7.392 6.88h-36.48a5.9 5.9 0 0 0 -5.91 5.91 6.874 6.874 0 0 0 6.89 6.9h20.89a3.977 3.977 0 0 1 2.794 1.157 3.958 3.958 0 0 1 -2.794 6.753h-30.78a8.792 8.792 0 0 0 -6.887 3.271 11.944 11.944 0 0 0 -1.87 3.132z" fill="#323c6b"/><path d="m49.47 29.34h-24.72a.5.5 0 0 1 0-1h24.72a.5.5 0 0 1 0 1z" fill="#323c6b"/></g></svg>