<svg height="512" viewBox="0 0 74 74" width="512" xmlns="http://www.w3.org/2000/svg"><g id="line_color" data-name="line color"><path d="m24.411 55.891c-2.418 2.888-7.952 5.63-12.634 6.046a6.772 6.772 0 0 1 -6.682-4.018 38.431 38.431 0 0 1 -3.03-16.851c.388-16.748 14.889-33.457 31.586-34.822a33.579 33.579 0 0 1 36.4 33.454 28.467 28.467 0 0 1 -1.356 8.523c-5.419 17.248-26.676 23.777-40.401 12.015q-.162-.139-.324-.281c-9.829-8.651-9.3-24.242-.112-33.552a18.44 18.44 0 0 1 14.229-5.315c17.256.946 21.586 17.7 12.988 26.571a11.9 11.9 0 0 1 -9.434 3.492c-10.927-.743-13.586-11.49-7.978-17.1a7.438 7.438 0 0 1 5.542-2.144c7.317.244 9.148 7.308 5.493 10.965a4.853 4.853 0 0 1 -3.644 1.368c-4.6-.215-5.741-4.691-3.417-7.015" fill="#efbc8f"/><path d="m69.55 44.637c.021-.067.04-.134.061-.2a28.235 28.235 0 0 0 .365-3.338 25.581 25.581 0 0 0 -.426 3.538z" fill="#d5d6db"/><path d="m33.65 6.25c-11.07.9-21.17 8.55-26.84 18.48 5.86-8.61 15.12-15 25.17-15.83a33.544 33.544 0 0 1 30.56 14.54 25.738 25.738 0 0 1 4.45 14.428v.081a28.7 28.7 0 0 1 -1.35 8.53c-4.75 15.101-21.64 21.981-34.98 15.551 11.096 7.47 25.84 4.443 33.74-5.652-.078-.131 1.193-1.818.692-.9a25.474 25.474 0 0 0 3.6-7.25 28.389 28.389 0 0 0 1.36-8.53 33.575 33.575 0 0 0 -36.402-33.448z" fill="#e0ad86"/><path d="m60.835 25.555a.649.649 0 0 1 -.552-.305q-.283-.45-.583-.894a.65.65 0 0 1 1.075-.73q.313.461.61.934a.65.65 0 0 1 -.551.995z" fill="#fff"/><path d="m57.85 21.591a.648.648 0 0 1 -.484-.216 28.389 28.389 0 0 0 -9.731-7.026.65.65 0 1 1 .519-1.192 29.705 29.705 0 0 1 10.18 7.351.65.65 0 0 1 -.484 1.084z" fill="#fff"/><g fill="#323c6b"><path d="m8.371 18.32a.5.5 0 0 1 -.391-.812 42.765 42.765 0 0 1 7.141-7.09.5.5 0 1 1 .615.789 41.733 41.733 0 0 0 -6.974 6.924.5.5 0 0 1 -.391.189z"/><path d="m17.424 9.854a.5.5 0 0 1 -.266-.923l.329-.211c.188-.122.376-.244.568-.358a.5.5 0 1 1 .51.86c-.181.107-.356.221-.533.336l-.343.22a.5.5 0 0 1 -.265.076z"/><path d="m65.234 61a.5.5 0 0 1 -.359-.848c.229-.235.456-.472.677-.713a.5.5 0 0 1 .736.677c-.229.248-.461.492-.7.733a.5.5 0 0 1 -.354.151z"/><path d="m52.584 68.588a.5.5 0 0 1 -.137-.98 27.979 27.979 0 0 0 9.392-4.748.5.5 0 0 1 .609.793 28.962 28.962 0 0 1 -9.726 4.916.5.5 0 0 1 -.138.019z"/><path d="m44.712 66.708a24.832 24.832 0 0 1 -16.271-6.091l-.329-.285a21.4 21.4 0 0 1 -3.281-3.632c-2.739 2.869-8.084 5.34-12.536 5.735a7.25 7.25 0 0 1 -7.183-4.31 38.514 38.514 0 0 1 -3.074-17.069c.404-17.447 15.379-33.946 32.045-35.309a33.818 33.818 0 0 1 25.951 8.895 34.177 34.177 0 0 1 10.989 25.058 28.947 28.947 0 0 1 -1.379 8.673 26.219 26.219 0 0 1 -24.932 18.335zm-19.382-11.044a20.364 20.364 0 0 0 3.443 3.917l.319.278a23.944 23.944 0 0 0 22.528 4.865 25.092 25.092 0 0 0 17.07-16.646 27.94 27.94 0 0 0 1.333-8.378 33.173 33.173 0 0 0 -10.666-24.323 32.79 32.79 0 0 0 -25.192-8.633c-16.189 1.324-30.734 17.368-31.127 34.336a37.545 37.545 0 0 0 2.985 16.633 6.24 6.24 0 0 0 6.183 3.726c4.252-.378 9.55-2.852 12.049-5.588a22.366 22.366 0 0 1 -3.485-11.374 25.09 25.09 0 0 1 7.206-18.423 18.989 18.989 0 0 1 14.612-5.462c8.1.443 14.17 4.353 16.667 10.727a15.776 15.776 0 0 1 -3.347 16.691 12.431 12.431 0 0 1 -9.827 3.643c-5.127-.349-9.107-3-10.645-7.1a10.278 10.278 0 0 1 2.346-10.853 7.874 7.874 0 0 1 5.913-2.29c3.505.117 6.246 1.826 7.331 4.574a6.74 6.74 0 0 1 -1.5 7.245 5.355 5.355 0 0 1 -4.026 1.51 5.088 5.088 0 0 1 -4.76-3.065 4.5 4.5 0 0 1 1.013-4.8.5.5 0 0 1 .707.707 3.5 3.5 0 0 0 -.788 3.734 4.069 4.069 0 0 0 3.878 2.425 4.313 4.313 0 0 0 3.268-1.222 5.742 5.742 0 0 0 1.279-6.17c-.948-2.4-3.293-3.837-6.435-3.942a6.929 6.929 0 0 0 -5.172 2 9.275 9.275 0 0 0 -2.118 9.794c1.417 3.777 4.98 6.13 9.775 6.456a11.427 11.427 0 0 0 9.042-3.341 14.773 14.773 0 0 0 3.134-15.63c-2.348-5.994-8.1-9.672-15.79-10.094a18.021 18.021 0 0 0 -13.845 5.167 24.084 24.084 0 0 0 -6.918 17.686 21.331 21.331 0 0 0 3.5 11.124.483.483 0 0 1 .06.096z"/></g></g></svg>