<svg height="512" viewBox="0 0 74 74" width="512" xmlns="http://www.w3.org/2000/svg"><g id="line_color" data-name="line color"><path d="m17.774 10.237s1.965-10.665 6.348-5.886c.764.833 1.206 4.358 1.206 4.358s5.934 1.882 3.434 4.024-7.9 1.508-7.9 1.508" fill="#89c5cd"/><path d="m22.684 14.832a17.3 17.3 0 0 1 -1.875-.094.5.5 0 1 1 .116-.993c.051.006 5.208.582 7.512-1.392.506-.434.448-.721.429-.815-.177-.87-2.263-1.9-3.688-2.353a.5.5 0 0 1 -.345-.415c-.176-1.4-.626-3.588-1.079-4.082-.788-.859-1.508-1.206-2.141-1.021-1.833.527-3.038 4.986-3.347 6.66a.5.5 0 1 1 -.983-.182c.125-.678 1.3-6.647 4.054-7.439 1.027-.3 2.089.144 3.155 1.307.732.8 1.151 3.317 1.292 4.321.979.344 3.746 1.446 4.063 3a1.8 1.8 0 0 1 -.758 1.774c-1.689 1.455-4.53 1.724-6.405 1.724z" fill="#323c6b"/><path d="m33.59 50.85a9.314 9.314 0 0 1 -13.92 8.06c-.63-.36-1.26-.75-1.9-1.15-.85-13.24 10.17-15.48 10.17-15.48a9.436 9.436 0 0 1 5.65 8.57z" fill="#e1e6e9"/><path d="m17.77 57.76c-7.16-4.54-14.68-11.66-14.77-21.56-.16-17.36 14.98-26.09 14.98-26.09l2.89 4.13s-14.84 18.23 7.07 28.04c0 0-11.02 2.24-10.17 15.48z" fill="#89c5cd"/><path d="m31.3 56.94a9.246 9.246 0 0 1 -11.63 1.97c-.63-.36-1.26-.75-1.9-1.15a22.07 22.07 0 0 1 .05-3.48c.77.54 1.54 1.06 2.3 1.54.64.4 1.27.79 1.9 1.15a9.168 9.168 0 0 0 9.28-.03z" fill="#d5d6db"/><path d="m17.82 54.28a22.07 22.07 0 0 0 -.05 3.48c-7.16-4.54-14.68-11.66-14.77-21.56-.12-13.3 8.74-21.54 12.89-24.66-4.46 4.01-10.64 11.59-10.54 22.72.08 8.84 6.09 15.47 12.47 20.02z" fill="#6eaaad"/><path d="m12.015 41.047a.5.5 0 0 1 -.456-.7c2.517-5.624 6.536-5.925 6.705-5.935a.5.5 0 0 1 .062 1c-.15.011-3.6.311-5.854 5.345a.5.5 0 0 1 -.457.29z" fill="#323c6b"/><path d="m9.873 29.961a.5.5 0 0 1 -.362-.845c3.88-4.074 6.5-3.51 6.61-3.482a.5.5 0 0 1 -.224.975c-.046-.009-2.25-.384-5.661 3.2a.5.5 0 0 1 -.363.152z" fill="#323c6b"/><path d="m56.226 63.763s-1.965 10.665-6.348 5.885c-.764-.833-1.206-4.358-1.206-4.358s-5.934-1.882-3.434-4.024 7.9-1.508 7.9-1.508" fill="#89c5cd"/><path d="m52.04 71.382a3.571 3.571 0 0 1 -2.531-1.4c-.732-.8-1.151-3.317-1.292-4.321-.979-.344-3.746-1.446-4.062-3a1.8 1.8 0 0 1 .758-1.774c2.637-2.258 8.05-1.653 8.279-1.625a.5.5 0 0 1 -.116.993c-.051-.007-5.209-.582-7.512 1.392-.506.434-.448.721-.429.815.177.87 2.263 1.9 3.688 2.353a.5.5 0 0 1 .345.415c.176 1.4.626 3.588 1.079 4.082.788.859 1.506 1.206 2.141 1.021 1.833-.527 3.038-4.986 3.347-6.66a.5.5 0 0 1 .983.182c-.125.678-1.3 6.647-4.054 7.439a2.244 2.244 0 0 1 -.624.088z" fill="#323c6b"/><path d="m46.06 31.72a9.436 9.436 0 0 1 -5.65-8.57 9.314 9.314 0 0 1 13.92-8.06c.63.36 1.26.75 1.9 1.15.85 13.24-10.17 15.48-10.17 15.48z" fill="#e1e6e9"/><path d="m71 37.8c.16 17.36-14.98 26.09-14.98 26.09l-2.89-4.13s14.84-18.23-7.07-28.04c0 0 11.02-2.24 10.17-15.48 7.16 4.54 14.68 11.66 14.77 21.56z" fill="#89c5cd"/><path d="m56.18 19.65c-.85-.61-1.71-1.19-2.56-1.73-.64-.4-1.27-.79-1.9-1.15a9.139 9.139 0 0 0 -8.26-.49 9.236 9.236 0 0 1 10.87-1.19c.63.36 1.26.75 1.9 1.15a20.114 20.114 0 0 1 -.05 3.41z" fill="#d5d6db"/><path d="m71 37.8c.16 17.36-14.98 26.09-14.98 26.09l-.07-.1c4.3-3.35 12.56-11.47 12.44-24.31-.08-8.72-5.93-15.29-12.21-19.83a20.114 20.114 0 0 0 .05-3.41c7.16 4.54 14.68 11.66 14.77 21.56z" fill="#6eaaad"/><g fill="#323c6b"><path d="m55.706 39.593a.5.5 0 0 1 -.031-1c.15-.011 3.6-.311 5.854-5.345a.5.5 0 1 1 .913.408c-2.517 5.624-6.536 5.925-6.705 5.935z"/><path d="m58.339 48.406a2.1 2.1 0 0 1 -.459-.041.5.5 0 0 1 .224-.975c.049.012 2.25.384 5.661-3.2a.5.5 0 1 1 .725.689c-2.99 3.141-5.228 3.527-6.151 3.527z"/><circle cx="27.937" cy="50.364" r="1.364"/><circle cx="46.893" cy="23.98" r="1.364"/><path d="m5.586 51.583a.5.5 0 0 1 -.393-.19 27.383 27.383 0 0 1 -4.066-6.961.5.5 0 0 1 .931-.365 26.4 26.4 0 0 0 3.919 6.706.5.5 0 0 1 -.392.81z"/><path d="m.886 42.667a.5.5 0 0 1 -.48-.363c-.062-.216-.122-.432-.18-.649a.5.5 0 1 1 .967-.256c.056.211.115.421.175.631a.5.5 0 0 1 -.344.618.492.492 0 0 1 -.138.019z"/><path d="m37.8 20.587a.484.484 0 0 1 -.125-.016.5.5 0 0 1 -.359-.609 12.836 12.836 0 0 1 8.008-8.835.5.5 0 0 1 .345.938 11.839 11.839 0 0 0 -7.385 8.147.5.5 0 0 1 -.484.375z"/><path d="m48.656 11.4a.5.5 0 0 1 -.047-1c.371-.036.745-.062 1.124-.062a.5.5 0 0 1 0 1c-.347 0-.688.024-1.028.057a.4.4 0 0 1 -.049.005z"/><path d="m46.06 32.22a.5.5 0 0 1 -.2-.043 9.944 9.944 0 0 1 -5.95-9.027 9.795 9.795 0 0 1 14.671-8.492c.632.362 1.268.755 1.914 1.159a.5.5 0 0 1 .234.392c.868 13.519-10.455 15.979-10.569 16a.493.493 0 0 1 -.1.011zm3.665-17.879a8.848 8.848 0 0 0 -8.815 8.809 8.938 8.938 0 0 0 5.2 8.045c1.344-.327 10.254-2.943 9.632-14.667-.56-.349-1.112-.687-1.664-1a8.648 8.648 0 0 0 -4.353-1.187z"/><path d="m56.021 64.39a.5.5 0 0 1 -.41-.213l-2.89-4.13a.5.5 0 0 1 .022-.6c.063-.078 6.326-7.9 4.443-15.81-1.129-4.743-4.941-8.6-11.33-11.458a.5.5 0 0 1 .1-.946c.432-.089 10.582-2.326 9.771-14.958a.5.5 0 0 1 .767-.455c6.792 4.306 14.908 11.615 15 21.978.161 17.45-15.076 26.439-15.23 26.528a.5.5 0 0 1 -.243.064zm-2.269-4.614 2.407 3.439c2.341-1.515 14.482-10.104 14.341-25.415-.086-9.51-7.328-16.39-13.729-20.618.218 10-6.461 13.563-9.331 14.628 5.985 2.938 9.589 6.834 10.72 11.595 1.802 7.59-3.227 14.809-4.409 16.371z"/></g><path d="m61.947 50.75a.649.649 0 0 1 -.633-.8c.044-.187.085-.375.122-.566a.65.65 0 1 1 1.276.248q-.061.311-.132.616a.65.65 0 0 1 -.633.502z" fill="#fff"/><path d="m57.168 59.828a.65.65 0 0 1 -.5-1.066 24.305 24.305 0 0 0 3.872-6.362.65.65 0 0 1 1.208.48 25.631 25.631 0 0 1 -4.08 6.718.649.649 0 0 1 -.5.23z" fill="#fff"/><path d="m24.273 60.66a9.637 9.637 0 0 1 -4.854-1.318c-.632-.362-1.268-.755-1.914-1.159a.5.5 0 0 1 -.234-.392c-.868-13.519 10.455-15.979 10.569-16a.493.493 0 0 1 .3.033 9.946 9.946 0 0 1 5.95 9.026 9.847 9.847 0 0 1 -9.817 9.81zm-6.019-3.187c.56.349 1.112.688 1.664 1a8.649 8.649 0 0 0 7.745.5 8.851 8.851 0 0 0 5.427-8.123 8.939 8.939 0 0 0 -5.2-8.045c-1.348.327-10.259 2.944-9.636 14.668z" fill="#323c6b"/><path d="m17.77 58.26a.5.5 0 0 1 -.268-.078c-6.792-4.307-14.908-11.616-15.002-21.982-.161-17.446 15.076-26.434 15.23-26.523a.5.5 0 0 1 .66.146l2.89 4.13a.5.5 0 0 1 -.022.6c-.063.078-6.326 7.9-4.444 15.809 1.129 4.743 4.941 8.6 11.33 11.458a.5.5 0 0 1 -.1.946c-.432.089-10.582 2.327-9.771 14.958a.5.5 0 0 1 -.5.532zm.072-47.475c-2.342 1.515-14.483 10.104-14.342 25.415.086 9.509 7.328 16.389 13.729 20.618-.218-10 6.461-13.563 9.331-14.629-5.985-2.938-9.589-6.834-10.72-11.595-1.8-7.585 3.227-14.8 4.409-16.366z" fill="#323c6b"/></g></svg>