<svg height="512" viewBox="0 0 74 74" width="512" xmlns="http://www.w3.org/2000/svg"><g id="line_color" data-name="line color"><path d="m10.294 13.957a7.606 7.606 0 0 1 -1.138-1.607 5.73 5.73 0 0 1 2.623-8.189 5.714 5.714 0 0 1 8.173 2.609 5.082 5.082 0 0 1 .417 1.1" fill="#fcd462"/><path d="m10.293 14.458a.5.5 0 0 1 -.373-.167 8.088 8.088 0 0 1 -1.21-1.716 6.477 6.477 0 0 1 -.51-5.228 6.727 6.727 0 0 1 3.354-3.631 6.659 6.659 0 0 1 5.088-.566 6.507 6.507 0 0 1 3.758 3.391 5.569 5.569 0 0 1 .457 1.205.5.5 0 0 1 -.97.244 4.584 4.584 0 0 0 -.379-.99 5.534 5.534 0 0 0 -3.175-2.9 5.671 5.671 0 0 0 -4.325.5 5.733 5.733 0 0 0 -2.87 3.079 5.508 5.508 0 0 0 .462 4.442 7.113 7.113 0 0 0 1.065 1.5.5.5 0 0 1 -.373.833z" fill="#323c6b"/><path d="m10.764 20.582c-.148-.235-.3-.485-.413-.721-2.608-5.061-.531-9.592 3.775-11.814 4.218-2.173 9.009-1.319 11.648 3.467" fill="#fcd462"/><path d="m11.665 29.4c-3.279-7.053-.274-13.309 5.758-16.418 5.977-3.091 12.713-1.954 16.577 4.618" fill="#fcd462"/><path d="m10.764 21.082a.5.5 0 0 1 -.424-.234c-.156-.249-.313-.514-.437-.765-2.536-4.92-.932-9.938 3.997-12.483 4.794-2.47 9.743-1 12.315 3.67a.5.5 0 1 1 -.876.482c-2.326-4.22-6.636-5.5-10.98-3.264-4.464 2.3-5.861 6.676-3.561 11.141.114.229.253.463.392.684a.5.5 0 0 1 -.423.766z" fill="#323c6b"/><path d="m11.665 29.9a.5.5 0 0 1 -.454-.289c-3.187-6.856-.839-13.558 5.983-17.073 6.706-3.474 13.476-1.588 17.234 4.806a.5.5 0 0 1 -.862.507c-3.465-5.9-9.712-7.633-15.913-4.426-6.3 3.249-8.477 9.436-5.535 15.763a.5.5 0 0 1 -.243.665.506.506 0 0 1 -.21.047z" fill="#323c6b"/><path d="m52.989 70.352a4.4 4.4 0 0 0 2.17.2c.087-.016.174-.032.261-.049a4.241 4.241 0 0 0 2.826-2.14c.636-1.174 1.628-4.122-.128-4.943a.433.433 0 0 1 -.248-.549 10.178 10.178 0 0 1 -2.119-2.671c-3.2-5.86 7.9-23.084-1.161-32.524-6.54-6.812-15.164-5.166-19.439-3.731-1.444 16.751.309 33 10.8 41.708a19.783 19.783 0 0 0 6.72 4.7.458.458 0 0 1 .318-.001z" fill="#f7be56"/><g opacity=".4"><path d="m56.134 52.814a33.776 33.776 0 0 0 -.45 7.239c-.837-1.683-.397-4.236.45-7.239z" fill="#bbbbcd"/></g><g fill="#323c6b"><path d="m60.649 32.235a.5.5 0 0 1 -.482-.368 13.762 13.762 0 0 0 -2.842-5.334 19.161 19.161 0 0 0 -2.657-2.552.5.5 0 1 1 .622-.783 20.214 20.214 0 0 1 2.8 2.686 14.759 14.759 0 0 1 3.046 5.72.5.5 0 0 1 -.351.614.513.513 0 0 1 -.136.017z"/><path d="m61.162 35.282a.5.5 0 0 1 -.5-.464c-.021-.282-.047-.563-.083-.844a.5.5 0 0 1 .992-.124q.056.447.087.9a.5.5 0 0 1 -.462.535z"/><path d="m47.909 71.874c-.209 0-.416-.01-.623-.019l-.327-.012a.5.5 0 0 1 -.484-.516.489.489 0 0 1 .516-.484l.336.012c.2.008.392.016.591.018a.5.5 0 0 1 0 1z"/><path d="m44.088 71.512a.485.485 0 0 1 -.059 0 53.978 53.978 0 0 1 -9.653-2.046.5.5 0 1 1 .3-.955 53.051 53.051 0 0 0 9.474 2.008.5.5 0 0 1 -.058 1z"/><path d="m54.649 71.329a4.806 4.806 0 0 1 -1.875-.381 20.324 20.324 0 0 1 -7.194-4.956c-8.823-7.315-12.601-20.462-11.18-39.027a4.849 4.849 0 0 1 3.91-4.37c4.65-.9 11.309-.813 16.638 4.736 5.725 5.963 3.668 14.919 2.015 22.116-1.036 4.509-1.93 8.4-.776 10.515a9.693 9.693 0 0 0 1.871 2.409 4.843 4.843 0 0 1 1.318 5.343q-.14.348-.288.7a4.829 4.829 0 0 1 -4.439 2.915zm-12.06-48.159a21.537 21.537 0 0 0 -4.086.406 3.846 3.846 0 0 0 -3.1 3.465c-1.381 17.967 2.378 31.186 10.865 38.229a19.478 19.478 0 0 0 6.9 4.757 3.832 3.832 0 0 0 5.008-2.01q.145-.337.28-.675a3.85 3.85 0 0 0 -1.073-4.24 10.714 10.714 0 0 1 -2.065-2.659c-1.337-2.448-.4-6.513.678-11.221 1.682-7.324 3.589-15.625-1.762-21.2a15.614 15.614 0 0 0 -11.645-4.852z"/></g><path d="m53.786 64.7a2.439 2.439 0 0 1 -2.18 3.465c-21.054.412-35.729-11.3-40.162-21.034-5.534-12.151-.144-22.508 10.188-27.21s21.681-1.969 27.216 10.189c4.338 9.531-.956 21.69 4.938 34.59z" fill="#fcd462"/><path d="m51.978 59.542c.4 1.494-1.418 3.021-3.048 3.048-18.93.38-32.71-9.05-38.51-18.04a24.779 24.779 0 0 0 1.02 2.59c4.44 9.73 19.11 21.44 40.17 21.03a2.445 2.445 0 0 0 2.18-3.47 30.758 30.758 0 0 1 -1.812-5.158z" fill="#f7be56"/><path d="m26.435 57.114a.7.7 0 0 1 -.342-.09c-5.375-3.031-8.582-6.949-9.79-9.606a.7.7 0 1 1 1.269-.577c1.118 2.456 4.123 6.1 9.206 8.968a.7.7 0 0 1 -.343 1.3z" fill="#fff"/><path d="m15.7 43.255a.7.7 0 0 1 -.7-.644 10.507 10.507 0 0 1 -.017-1.345.7.7 0 1 1 1.392.072 9.259 9.259 0 0 0 .015 1.167.7.7 0 0 1 -.642.748z" fill="#fff"/><path d="m50.549 68.681c-19.6 0-34.69-10.639-39.561-21.337-2.68-5.888-2.978-11.7-.861-16.8a21.6 21.6 0 0 1 11.3-11.075 21.6 21.6 0 0 1 15.773-1.25c5.239 1.755 9.426 5.8 12.106 11.683 2.05 4.5 2 9.56 1.943 14.914-.064 6.3-.131 12.806 2.971 19.63a2.978 2.978 0 0 1 -2.661 4.226c-.338.006-.676.009-1.01.009zm-19.4-50.422a22.568 22.568 0 0 0 -9.314 2.118 20.6 20.6 0 0 0 -10.784 10.548c-2.008 4.841-1.715 10.375.848 16 3.9 8.561 17.656 21.142 39.639 20.742a1.978 1.978 0 0 0 1.769-2.812c-3.194-7.026-3.124-13.948-3.061-20.054.054-5.24.1-10.189-1.854-14.489-2.562-5.629-6.544-9.484-11.514-11.149a17.991 17.991 0 0 0 -5.724-.905z" fill="#323c6b"/></g></svg>