<svg height="512" viewBox="0 0 74 74" width="512" xmlns="http://www.w3.org/2000/svg"><g id="line_color" data-name="line color"><path d="m24.45 37.438v5.715a8.785 8.785 0 1 1 -17.57 0v-.028a2 2 0 1 1 4 0v.028a4.785 4.785 0 1 0 9.57 0v-5.715a2 2 0 0 1 4 0z" fill="#e1e6e9"/><path d="m34.19 37.438v21.775a8.79 8.79 0 0 1 -17.58 0v-.86a2 2 0 0 1 4 0v.86a4.79 4.79 0 0 0 9.58 0v-21.775a2 2 0 0 1 4 0z" fill="#e1e6e9"/><path d="m57.39 58.353v.86a8.79 8.79 0 0 1 -17.58 0v-21.775a2 2 0 0 1 4 0v21.775a4.79 4.79 0 0 0 9.58 0v-.86a2 2 0 0 1 4 0z" fill="#e1e6e9"/><path d="m67.12 43.125v.028a8.785 8.785 0 1 1 -17.57 0v-5.715a2 2 0 0 1 4 0v5.715a4.785 4.785 0 1 0 9.57 0v-.028a2 2 0 0 1 4 0z" fill="#e1e6e9"/><path d="m24.45 37.438v5.715a8.8 8.8 0 0 1 -8.79 8.79 8.264 8.264 0 0 1 -1.11-.07 8.8 8.8 0 0 0 7.68-8.72v-5.715a2.021 2.021 0 0 0 -.89-1.67 2.007 2.007 0 0 1 3.11 1.67z" fill="#d5d6db"/><path d="m34.19 37.438v21.775a8.8 8.8 0 0 1 -8.79 8.787 8.265 8.265 0 0 1 -1.11-.07 8.8 8.8 0 0 0 7.68-8.72v-21.772a2.046 2.046 0 0 0 -.89-1.67 2.007 2.007 0 0 1 3.11 1.67z" fill="#d5d6db"/><path d="m47.49 63.863a4.561 4.561 0 0 1 -1.11.14 4.8 4.8 0 0 1 -4.79-4.79v-21.775a2.021 2.021 0 0 0 -.89-1.67 2.007 2.007 0 0 1 3.11 1.67v21.775a4.774 4.774 0 0 0 3.68 4.65z" fill="#d5d6db"/><path d="m57.39 58.353v.86a8.8 8.8 0 0 1 -8.79 8.787 8.264 8.264 0 0 1 -1.11-.07 8.81 8.81 0 0 0 7.68-8.72v-.86a2.047 2.047 0 0 0 -.89-1.67 2.007 2.007 0 0 1 3.11 1.67z" fill="#d5d6db"/><path d="m57.23 47.8a4.5 4.5 0 0 1 -1.11.14 4.8 4.8 0 0 1 -4.79-4.79v-5.712a2.046 2.046 0 0 0 -.89-1.67 2.007 2.007 0 0 1 3.11 1.67v5.715a4.774 4.774 0 0 0 3.68 4.647z" fill="#d5d6db"/><path d="m67.12 43.125v.028a8.794 8.794 0 0 1 -8.78 8.79 8.264 8.264 0 0 1 -1.11-.07 8.8 8.8 0 0 0 7.67-8.72v-.028a1.977 1.977 0 0 0 -.89-1.66 2.02 2.02 0 0 1 1.11-.34 2 2 0 0 1 2 2z" fill="#d5d6db"/><path d="m58.73 23.419v11.361a5.18 5.18 0 0 1 -5.18 5.18v-2.42a2.07 2.07 0 0 0 -1.676-2.077 2 2 0 0 0 -2.324 1.975v2.522h-5.74v-2.522a2 2 0 0 0 -2.324-1.975 2.07 2.07 0 0 0 -1.676 2.077v2.42h-5.62v-2.42a2.07 2.07 0 0 0 -1.676-2.077 2 2 0 0 0 -2.324 1.975v2.522h-5.74v-2.522a2 2 0 0 0 -2.324-1.975 2.07 2.07 0 0 0 -1.676 2.077v2.42a5.18 5.18 0 0 1 -5.18-5.18v-11.89a21.724 21.724 0 0 1 22.53-21.706c11.77.416 20.93 10.454 20.93 22.235z" fill="#89c5cd"/><path d="m37.8 1.18a21.631 21.631 0 0 0 -16.2 6.39 21.592 21.592 0 0 1 13.39-4.01c11.77.42 20.93 10.45 20.93 22.23v11.36a5.132 5.132 0 0 1 -.42 2.025v.389a5.174 5.174 0 0 0 3.23-4.784v-11.36c0-11.78-9.16-21.82-20.93-22.24z" fill="#6eaaad"/><path d="m51.053 16.136a.65.65 0 0 1 -.6-.355 16.8 16.8 0 0 0 -8.253-7.756.65.65 0 1 1 .519-1.192 18.1 18.1 0 0 1 8.888 8.357.65.65 0 0 1 -.556.945z" fill="#fff"/><path d="m38.912 5.4a.666.666 0 0 0 -.7.6.65.65 0 0 0 .6.7l1.091.3a.65.65 0 0 0 .126-1.287z" fill="#fff"/><g fill="#323c6b"><path d="m32.312 69.241a.5.5 0 0 1 -.295-.9 11.321 11.321 0 0 0 4.361-6.544.5.5 0 1 1 .973.229 12.316 12.316 0 0 1 -4.744 7.123.5.5 0 0 1 -.295.092z"/><path d="m37.19 59.658a.5.5 0 0 1 -.5-.5v-1.167a.5.5 0 0 1 1 0v1.167a.5.5 0 0 1 -.5.5z"/><path d="m12.557 19.691a.556.556 0 0 1 -.075-.005.5.5 0 0 1 -.42-.569 24.916 24.916 0 0 1 2.977-8.617.5.5 0 1 1 .869.493 23.932 23.932 0 0 0 -2.858 8.27.5.5 0 0 1 -.493.428z"/><path d="m17.673 8a.494.494 0 0 1 -.312-.11.5.5 0 0 1 -.078-.7c.24-.3.484-.594.736-.883a.5.5 0 0 1 .754.657q-.363.417-.709.851a.5.5 0 0 1 -.391.185z"/><path d="m53.55 40.46a.5.5 0 0 1 -.5-.5v-2.42a1.565 1.565 0 0 0 -1.25-1.583 1.5 1.5 0 0 0 -1.747 1.48v2.523a.5.5 0 0 1 -.5.5h-5.743a.5.5 0 0 1 -.5-.5v-2.522a1.5 1.5 0 0 0 -1.747-1.48 1.565 1.565 0 0 0 -1.253 1.582v2.42a.5.5 0 0 1 -.5.5h-5.62a.5.5 0 0 1 -.5-.5v-2.42a1.565 1.565 0 0 0 -1.253-1.583 1.5 1.5 0 0 0 -1.747 1.48v2.523a.5.5 0 0 1 -.5.5h-5.74a.5.5 0 0 1 -.5-.5v-2.522a1.5 1.5 0 0 0 -1.747-1.48 1.565 1.565 0 0 0 -1.253 1.582v2.42a.5.5 0 0 1 -.5.5 5.687 5.687 0 0 1 -5.681-5.68v-11.89a22.224 22.224 0 0 1 23.045-22.205c11.809.421 21.416 10.615 21.416 22.734v11.361a5.687 5.687 0 0 1 -5.68 5.68zm-9.24-1h4.74v-2.022a2.5 2.5 0 0 1 2.9-2.469 2.572 2.572 0 0 1 2.1 2.571v1.894a4.688 4.688 0 0 0 4.18-4.654v-11.361c0-11.582-9.175-21.333-20.451-21.735a21.225 21.225 0 0 0 -22.009 21.206v11.89a4.688 4.688 0 0 0 4.181 4.654v-1.894a2.572 2.572 0 0 1 2.1-2.571 2.5 2.5 0 0 1 2.9 2.469v2.022h4.74v-2.022a2.5 2.5 0 0 1 2.9-2.469 2.572 2.572 0 0 1 2.1 2.571v1.92h4.619v-1.92a2.572 2.572 0 0 1 2.1-2.571 2.5 2.5 0 0 1 2.9 2.469z"/><path d="m15.66 52.443a9.3 9.3 0 0 1 -9.28-9.29 2.5 2.5 0 1 1 5-.028 4.285 4.285 0 1 0 8.57.028v-5.715a2.5 2.5 0 0 1 5 0v5.715a9.3 9.3 0 0 1 -9.29 9.29zm-6.78-10.818a1.5 1.5 0 0 0 -1.5 1.5 8.285 8.285 0 1 0 16.57.028v-5.715a1.5 1.5 0 0 0 -3 0v5.715a5.285 5.285 0 1 1 -10.57 0 1.508 1.508 0 0 0 -1.5-1.528z"/><path d="m25.4 68.5a9.3 9.3 0 0 1 -9.29-9.29v-.86a2.5 2.5 0 0 1 5 0v.86a4.29 4.29 0 0 0 8.58 0v-21.772a2.5 2.5 0 0 1 5 0v21.775a9.3 9.3 0 0 1 -9.29 9.287zm-6.79-11.65a1.5 1.5 0 0 0 -1.5 1.5v.86a8.29 8.29 0 0 0 16.58 0v-21.772a1.5 1.5 0 0 0 -3 0v21.775a5.29 5.29 0 0 1 -10.58 0v-.86a1.5 1.5 0 0 0 -1.5-1.5z"/><path d="m48.6 68.5a9.3 9.3 0 0 1 -9.29-9.29v-21.772a2.5 2.5 0 0 1 5 0v21.775a4.29 4.29 0 0 0 8.58 0v-.86a2.5 2.5 0 0 1 5 0v.86a9.3 9.3 0 0 1 -9.29 9.287zm-6.79-32.562a1.5 1.5 0 0 0 -1.5 1.5v21.775a8.29 8.29 0 0 0 16.58 0v-.86a1.5 1.5 0 0 0 -3 0v.86a5.29 5.29 0 0 1 -10.58 0v-21.775a1.5 1.5 0 0 0 -1.5-1.5z"/><path d="m58.34 52.443a9.3 9.3 0 0 1 -9.29-9.29v-5.715a2.5 2.5 0 0 1 5 0v5.715a4.285 4.285 0 1 0 8.57 0 2.5 2.5 0 1 1 5-.028v.028a9.3 9.3 0 0 1 -9.28 9.29zm-6.79-16.505a1.5 1.5 0 0 0 -1.5 1.5v5.715a8.285 8.285 0 1 0 16.57 0v-.028a1.5 1.5 0 0 0 -3 0 5.285 5.285 0 1 1 -10.57.028v-5.715a1.5 1.5 0 0 0 -1.5-1.5z"/></g></g></svg>