<svg height="512" viewBox="0 0 74 74" width="512" xmlns="http://www.w3.org/2000/svg"><g id="line_color" data-name="line color"><path d="m41.176 48.4v1.381a2.073 2.073 0 0 1 -1.592 2.019c-2.042.485-5.542 1.523-7.406 3.264a5.325 5.325 0 0 1 -3.654 1.671 2.072 2.072 0 0 1 -1.713-.934l-3.165-4.759" fill="#d5d6db"/><path d="m28.54 57.238h-.018a2.57 2.57 0 0 1 -2.128-1.157l-3.165-4.759a.5.5 0 1 1 .832-.554l3.165 4.759a1.573 1.573 0 0 0 1.3.71h.014a4.87 4.87 0 0 0 3.3-1.537c1.965-1.834 5.625-2.908 7.632-3.384a1.57 1.57 0 0 0 1.207-1.537v-1.379a.5.5 0 0 1 1 0v1.381a2.567 2.567 0 0 1 -1.979 2.509c-1.91.454-5.384 1.465-7.181 3.143a5.832 5.832 0 0 1 -3.979 1.805z" fill="#323c6b"/><path d="m19.482 28.515s2.744-6.184 8.659-5.076c4.031.755 11.355 3.432 15.611 5.06a3 3 0 0 1 1.508 4.337" fill="#d5d6db"/><path d="m45.261 33.336a.5.5 0 0 1 -.431-.754 2.5 2.5 0 0 0 -1.256-3.615c-4.071-1.557-11.5-4.282-15.524-5.036-5.451-1.02-8 4.55-8.11 4.788a.5.5 0 0 1 -.914-.406c.029-.065 2.973-6.533 9.208-5.365 4.1.768 11.6 3.515 15.7 5.085a3.5 3.5 0 0 1 1.76 5.058.5.5 0 0 1 -.433.245z" fill="#323c6b"/><path d="m59.608 35.241v3.975c-8.048-.5-9.509 1.719-11.243 3.914a18.05 18.05 0 0 1 -10.35 6.246c-7.82 1.724-21.415 2.968-28.951-.757a10.822 10.822 0 0 1 -5.595-6.519l5.08-2.082c-4.649.114-5.549-1.34-5.549-1.34a10.387 10.387 0 0 1 2.059-5.92 11.957 11.957 0 0 1 11.864-4.671z" fill="#e1e6e9"/><path d="m46.362 41.194a18.038 18.038 0 0 1 -10.35 6.25c-7.82 1.72-21.41 2.96-28.95-.76a11.009 11.009 0 0 1 -1.72-1.06 11.022 11.022 0 0 0 3.72 2.99c7.54 3.73 21.13 2.49 28.95.76a18.023 18.023 0 0 0 10.35-6.24c1.74-2.2 3.2-4.42 11.25-3.92v-1.867c-10.051-.563-11.512 1.647-13.25 3.847z" fill="#d5d6db"/><path d="m59.608 35.241s8.732-9.046 11.1-6.814c1.588 1.494-3.9 5.526-4.1 7.7-.195 2.109 4.172 6.719 2.549 8.08-2.065 1.731-9.552-4.988-9.552-4.988z" fill="#e1e6e9"/><path d="m68.287 44.974c-2.846 0-7.892-4.38-9.013-5.386a.5.5 0 0 1 -.166-.372v-3.975a.5.5 0 0 1 .141-.347c1.516-1.569 9.2-9.28 11.806-6.831 1.248 1.175-.328 3.069-1.854 4.9-.947 1.138-2.021 2.428-2.092 3.206-.069.756.7 2.146 1.386 3.373 1.094 1.969 2.226 4 .986 5.044a1.8 1.8 0 0 1 -1.194.388zm-8.179-5.982c2.982 2.642 7.562 5.813 8.73 4.829.606-.508-.405-2.329-1.218-3.791-.826-1.485-1.605-2.888-1.508-3.951.1-1.087 1.179-2.382 2.319-3.754 1.114-1.338 2.5-3 1.937-3.533-1.368-1.292-6.768 3.069-10.26 6.651z" fill="#323c6b"/><path d="m9.649 49.393a.5.5 0 0 1 -.054-1c8.745-.96 9.382-9.442 9.388-9.527a.493.493 0 0 1 .53-.467.5.5 0 0 1 .468.531c-.006.094-.706 9.407-10.276 10.458z" fill="#323c6b"/><circle cx="11.343" cy="35.525" fill="#323c6b" r="1.431"/><path d="m24.971 38.9s2.319 2.792 8.233 1.625c0 0-5.016 4.316-10.126 3.964" fill="#dbd8dd"/><g fill="#323c6b"><path d="m23.684 45.009q-.319 0-.64-.021a.5.5 0 0 1 -.465-.533.507.507 0 0 1 .533-.465c3.21.225 6.395-1.5 8.222-2.709-4.7.317-6.657-1.952-6.748-2.062a.5.5 0 0 1 .768-.641c.095.11 2.249 2.544 7.754 1.456a.5.5 0 0 1 .423.87c-.203.174-4.831 4.105-9.847 4.105z"/><path d="m24.111 29.791a.5.5 0 0 1 -.394-.808l2.55-3.258a.5.5 0 1 1 .787.616l-2.554 3.259a.5.5 0 0 1 -.389.191z"/><path d="m28.566 30.538a.5.5 0 0 1 -.394-.808l2.4-3.063a.5.5 0 1 1 .787.616l-2.4 3.063a.5.5 0 0 1 -.393.192z"/><path d="m33.021 31.285a.5.5 0 0 1 -.394-.808l2.244-2.869a.5.5 0 1 1 .787.616l-2.244 2.869a.5.5 0 0 1 -.393.192z"/><path d="m37.476 32.031a.5.5 0 0 1 -.394-.808l1.583-2.023a.5.5 0 1 1 .787.616l-1.583 2.024a.5.5 0 0 1 -.393.191z"/><path d="m41.93 32.778a.5.5 0 0 1 -.419-.772l.97-1.493a.5.5 0 1 1 .838.545l-.97 1.493a.5.5 0 0 1 -.419.227z"/><path d="m54.553 42.858a.5.5 0 0 1 -.084-.993c.231-.04.48-.074.742-.1a.5.5 0 1 1 .113.993c-.242.028-.472.059-.686.1a.511.511 0 0 1 -.085 0z"/><path d="m47.011 49.056a.5.5 0 0 1 -.3-.9 18.891 18.891 0 0 0 3.613-3.475l.172-.218a9.542 9.542 0 0 1 1.288-1.431.5.5 0 0 1 .648.762 8.884 8.884 0 0 0 -1.151 1.288l-.172.219a19.916 19.916 0 0 1 -3.8 3.66.5.5 0 0 1 -.298.095z"/><path d="m3.5 30.475a.5.5 0 0 1 -.365-.841l.4-.424a.5.5 0 0 1 .723.691l-.4.415a.5.5 0 0 1 -.358.159z"/><path d="m6.611 27.782a.5.5 0 0 1 -.271-.92 15.375 15.375 0 0 1 8.335-2.486.5.5 0 0 1 0 1 14.378 14.378 0 0 0 -7.793 2.324.5.5 0 0 1 -.271.082z"/><path d="m22.688 51.549c-5.059 0-10.116-.64-13.846-2.482a11.254 11.254 0 0 1 -5.852-6.82.5.5 0 0 1 .289-.609l2.949-1.208c-2.836-.32-3.565-1.348-3.652-1.488a.5.5 0 0 1 -.075-.276 10.893 10.893 0 0 1 2.157-6.2 12.418 12.418 0 0 1 12.358-4.866l42.676 7.152a.5.5 0 0 1 .417.493v3.975a.5.5 0 0 1 -.531.5c-7.517-.467-9.045 1.466-10.652 3.513l-.167.212a18.589 18.589 0 0 1 -10.635 6.425 75.894 75.894 0 0 1 -15.436 1.679zm-18.6-9.164a10.277 10.277 0 0 0 5.2 5.785c7.769 3.837 21.646 2.256 28.622.717a17.59 17.59 0 0 0 10.063-6.067l.166-.21c1.657-2.112 3.373-4.3 10.97-3.923v-3.023l-42.269-7.084a11.433 11.433 0 0 0 -11.379 4.475 9.9 9.9 0 0 0 -1.954 5.445c.3.271 1.514 1.108 5.031 1.021a.517.517 0 0 1 .5.4.5.5 0 0 1 -.3.565z"/></g><path d="m42.415 36.1a.676.676 0 0 1 -.108-.009l-.26-.04a.65.65 0 0 1 -.533-.749.657.657 0 0 1 .748-.534l.26.04a.65.65 0 0 1 -.106 1.291z" fill="#fff"/><path d="m39.9 35.6a.676.676 0 0 1 -.108-.009l-8.007-1.259a.65.65 0 0 1 .215-1.285l8.007 1.259a.65.65 0 0 1 -.107 1.294z" fill="#fff"/></g></svg>