<svg height="512" viewBox="0 0 74 74" width="512" xmlns="http://www.w3.org/2000/svg"><g id="line_color" data-name="line color"><path d="m37.97 71c-19.54-.1-35.02-11.75-33.7-23.55 1.33-12.06 11.77-19.6 34.54-20.79a55.739 55.739 0 0 0 10.931-1.534 3.261 3.261 0 0 0 .915-5.929l-.046-.027a13.518 13.518 0 0 0 -7.05-1.87l-26.1.01a7.155 7.155 0 0 1 0-14.31h28.88c2.47 0 6.933-.118 9.5 1.342 10.827 4.533 12.76 19.938 5.15 29.448-6.94 8.63-22.69 7.79-25.5 7.56a5.77 5.77 0 0 0 -.93.01 15.171 15.171 0 0 0 -6.08 1.96c-3.6 2.2-2.25 7.77 1.93 8.29l1.5.19a9.213 9.213 0 0 0 5.36-.95 18.22 18.22 0 0 1 14.61-.73s16.33 5.59 17.81 9.2c1.51 3.67-12.17 11.79-31.72 11.68z" fill="#89c5cd"/><path d="m60.736 33.59c-6.936 8.63-22.436 7.99-25.246 7.76a5.77 5.77 0 0 0 -.93.01 15.171 15.171 0 0 0 -6.08 1.96 4.424 4.424 0 0 0 -1.3 6.29 4.108 4.108 0 0 1 -3.191-5.053 5.554 5.554 0 0 1 3.488-4.081 17 17 0 0 1 4.243-1.046c.3-.04 2.939-.179 3.249-.149 2.82.22 16.241 1.2 23.171-7.431a22.072 22.072 0 0 0 4.57-12.52c-.03 0-.01-.19.01-.27v-.038a11.358 11.358 0 0 0 -2.489-7.486 17.585 17.585 0 0 0 -4.861-3.936c-2.56-1.46-6.67-1.85-9.14-1.85h-30.44a7.154 7.154 0 0 0 -5.06 2.1l-.06.06a7.155 7.155 0 0 1 6.79-4.91h30.43c2.47 0 6.58.39 9.15 1.85a16.578 16.578 0 0 1 8.49 14.21.134.134 0 0 1 -.09.09 23.4 23.4 0 0 1 -4.704 14.44z" fill="#6eaaad"/><path d="m37.97 71c-10.2-.05-19.29-3.25-25.47-7.98a44.174 44.174 0 0 0 22.63 6.04c19.55.11 33.23-8 31.72-11.67a3.773 3.773 0 0 0 -1.03-1.29c1.97 1.12 3.47 2.24 3.87 3.22 1.51 3.67-12.17 11.79-31.72 11.68z" fill="#6eaaad"/><g fill="#323c6b"><path d="m16.484 66.13a.5.5 0 0 1 -.23-.944 6.316 6.316 0 0 0 3.565-4.63 9.108 9.108 0 0 0 -1.886-6.988c-3.687-4.014-3.907-8.084-.674-12.442a13.28 13.28 0 0 1 9.685-5.189c9.967-.837 20.884-2.151 24.243-7.173 1.215-1.815 1.39-4.005.534-6.7a.5.5 0 0 1 .953-.3c.939 2.958.719 5.5-.656 7.555-3.606 5.391-14.792 6.757-24.992 7.614a12.28 12.28 0 0 0 -8.963 4.788c-1.852 2.5-3.8 6.369.606 11.17a10.055 10.055 0 0 1 2.131 7.839 7.363 7.363 0 0 1 -4.09 5.344.5.5 0 0 1 -.226.056z"/><path d="m50.787 70.35a.483.483 0 0 1 -.074-.005c-3.343-.493-5.817-1.838-7.354-4a10.555 10.555 0 0 1 -1.6-7.46.5.5 0 0 1 .982.187 9.7 9.7 0 0 0 1.435 6.7c1.372 1.925 3.619 3.129 6.679 3.58a.5.5 0 0 1 -.072.995z"/><circle cx="55.667" cy="57.69" r="1.93"/><path d="m67.227 61.075a11.2 11.2 0 0 1 -3.241-.513.5.5 0 0 1 .289-.957c3.381 1.02 5.265.048 5.284.039a.5.5 0 0 1 .479.877 6.167 6.167 0 0 1 -2.811.554z"/><path d="m69.412 65.917a.5.5 0 0 1 -.353-.854c.266-.265.519-.53.736-.8a.5.5 0 0 1 .773.634 11.683 11.683 0 0 1 -.8.871.5.5 0 0 1 -.356.149z"/><path d="m59.509 71.156a.5.5 0 0 1 -.163-.973 36.915 36.915 0 0 0 8.018-3.769.5.5 0 1 1 .547.837 37.907 37.907 0 0 1 -8.238 3.877.506.506 0 0 1 -.164.028z"/><path d="m6.979 34.958a.5.5 0 0 1 -.364-.843 27.138 27.138 0 0 1 7.7-5.575.5.5 0 0 1 .447.895 26.132 26.132 0 0 0 -7.418 5.365.5.5 0 0 1 -.365.158z"/><path d="m17.75 28.072a.5.5 0 0 1 -.18-.966c.271-.105.545-.21.822-.314a.5.5 0 0 1 .35.938c-.273.1-.543.206-.812.309a.494.494 0 0 1 -.18.033z"/></g><path d="m43.976 53.511a.65.65 0 0 1 -.047-1.3q.564-.042 1.1-.049a.621.621 0 0 1 .66.64.651.651 0 0 1 -.641.66q-.5.008-1.026.046z" fill="#fff"/><path d="m33.055 56.411a9.923 9.923 0 0 1 -1.23-.077.65.65 0 0 1 .162-1.29 8.576 8.576 0 0 0 4.992-.885 18.163 18.163 0 0 1 4.021-1.49.65.65 0 0 1 .3 1.264 16.887 16.887 0 0 0 -3.733 1.384 9.9 9.9 0 0 1 -4.512 1.094z" fill="#fff"/><path d="m38.354 71.5h-.388c-11.939-.061-23.278-4.505-29.589-11.6-3.488-3.919-5.077-8.244-4.605-12.505 1.428-12.95 13.208-20.095 35.012-21.234a55.683 55.683 0 0 0 10.832-1.52 2.749 2.749 0 0 0 2.054-2.306 2.665 2.665 0 0 0 -1.27-2.709 13.074 13.074 0 0 0 -6.839-1.826l-26.1.01a7.655 7.655 0 0 1 0-15.31h31.969a16.428 16.428 0 0 1 16.409 17.39 37.445 37.445 0 0 1 -.774 6.455 19.114 19.114 0 0 1 -10.594 12.6c-7.08 3.276-14.958 3.226-19.02 2.9a5.292 5.292 0 0 0 -.843.009 14.769 14.769 0 0 0 -5.869 1.89 3.807 3.807 0 0 0 -1.739 4.156 4.045 4.045 0 0 0 3.477 3.218l1.5.19a8.671 8.671 0 0 0 5.067-.9 18.559 18.559 0 0 1 15.042-.743c1.653.564 16.549 5.755 18.07 9.468a2.67 2.67 0 0 1 -.492 2.581c-2.786 4.127-15.185 9.786-31.31 9.786zm5.206-54.7a14.032 14.032 0 0 1 7.31 1.943 3.659 3.659 0 0 1 1.789 3.736 3.726 3.726 0 0 1 -2.795 3.131 56.659 56.659 0 0 1 -11.028 1.55c-21.236 1.11-32.703 7.955-34.069 20.34-.444 3.972 1.063 8.029 4.358 11.732 6.128 6.888 17.182 11.2 28.848 11.263h.389c15.773 0 27.812-5.4 30.47-9.348a1.886 1.886 0 0 0 .4-1.643c-1.144-2.79-13.027-7.382-17.51-8.917a17.875 17.875 0 0 0 -14.221.7 9.662 9.662 0 0 1 -5.649 1l-1.5-.19a5.033 5.033 0 0 1 -4.33-4 4.775 4.775 0 0 1 2.2-5.214 15.77 15.77 0 0 1 6.278-2.019 6.242 6.242 0 0 1 1.023-.013c3.977.315 11.656.366 18.527-2.814a18.119 18.119 0 0 0 10.05-11.937 36.562 36.562 0 0 0 .745-6.266 15.429 15.429 0 0 0 -15.415-16.334h-31.97a6.655 6.655 0 0 0 0 13.31z" fill="#323c6b"/></g></svg>