<svg height="512" viewBox="0 0 74 74" width="512" xmlns="http://www.w3.org/2000/svg"><g id="line_color" data-name="line color"><path d="m48.96 5.12h-40.88a5.006 5.006 0 0 0 -5.01 5.01v56.11a5.006 5.006 0 0 0 5.01 5.01h40.88a5.012 5.012 0 0 0 5.01-5.01v-56.11a5.012 5.012 0 0 0 -5.01-5.01zm-11.57 11.13h-17.75a2.7 2.7 0 0 1 0-5.4h17.75a2.7 2.7 0 1 1 0 5.4z" fill="#e7aa6c"/><path d="m50.17 5.27a5 5 0 0 1 .63 2.44v56.11a5.012 5.012 0 0 1 -5.01 5.01h-40.88a4.834 4.834 0 0 1 -1.21-.15 5.026 5.026 0 0 0 4.38 2.57h40.88a5.012 5.012 0 0 0 5.01-5.01v-56.11a5.01 5.01 0 0 0 -3.8-4.86z" fill="#d09865"/><path d="m57.083 18.007v33.793h11.062v-22.731a11.062 11.062 0 0 0 -11.062-11.062z" fill="#e1e6e9"/><path d="m68.147 29.07v22.73h-2.13v-20.63a11.085 11.085 0 0 0 -8.93-10.87v-2.29a11.064 11.064 0 0 1 11.06 11.06z" fill="#d5d6db"/><path d="m63.365 67.059a3.141 3.141 0 0 1 -6.282 0v-15.259h4.211v12.3a3.146 3.146 0 0 1 2.071 2.959z" fill="#9297ab"/><path d="m60.224 70.7a3.645 3.645 0 0 1 -3.641-3.641v-15.259a.5.5 0 0 1 .5-.5h4.211a.5.5 0 0 1 .5.5v11.97a3.643 3.643 0 0 1 -1.57 6.929zm-2.641-18.4v14.759a2.641 2.641 0 1 0 3.54-2.487.5.5 0 0 1 -.329-.47v-11.802z" fill="#323c6b"/><path d="m1.083 6.915a.5.5 0 0 1 -.234-.059.5.5 0 0 1 -.207-.676 8.415 8.415 0 0 1 7.438-4.48h.787a.5.5 0 0 1 0 1h-.787a7.417 7.417 0 0 0 -6.556 3.95.5.5 0 0 1 -.441.265z" fill="#323c6b"/><path d="m11.784 2.7h-.608a.5.5 0 0 1 0-1h.608a.5.5 0 0 1 0 1z" fill="#323c6b"/><path d="m68.849 55.218h-1.078a.5.5 0 0 1 0-1h1.079a1.715 1.715 0 0 0 1.712-1.718v-1.386a.5.5 0 0 1 1 0v1.386a2.716 2.716 0 0 1 -2.713 2.718z" fill="#323c6b"/><path d="m71.062 49.669a.5.5 0 0 1 -.5-.5v-.3a.5.5 0 1 1 1 0v.3a.5.5 0 0 1 -.5.5z" fill="#323c6b"/><path d="m12.537 24.625c.206 3.2.3 6.4.383 9.594s.1 6.4.117 9.594c-.011 3.2-.024 6.4-.115 9.594l-.139 4.8c-.083 1.6-.132 3.2-.245 4.8-.113-1.6-.162-3.2-.245-4.8l-.14-4.8c-.091-3.2-.1-6.4-.115-9.594.013-3.2.025-6.4.117-9.594s.176-6.396.382-9.594z" fill="#d09865"/><path d="m23.627 22.5c.206 3.552.3 7.1.383 10.656s.1 7.1.117 10.656c-.011 3.552-.024 7.1-.115 10.656l-.14 5.328c-.083 1.776-.132 3.552-.245 5.328-.113-1.776-.162-3.552-.245-5.328l-.14-5.328c-.091-3.552-.1-7.1-.115-10.656.013-3.552.025-7.1.117-10.656s.177-7.104.383-10.656z" fill="#d09865"/><path d="m34 22.5c.206 3.552.3 7.1.383 10.656s.1 7.1.117 10.656c-.011 3.552-.024 7.1-.115 10.656l-.137 5.332c-.083 1.776-.132 3.552-.245 5.328-.113-1.776-.162-3.552-.245-5.328l-.139-5.328c-.091-3.552-.1-7.1-.115-10.656.013-3.552.025-7.1.117-10.656s.179-7.108.379-10.66z" fill="#d09865"/><path d="m44.5 24.625c.206 3.2.3 6.4.383 9.594s.1 6.4.117 9.594c-.011 3.2-.024 6.4-.115 9.594l-.139 4.8c-.083 1.6-.132 3.2-.245 4.8-.113-1.6-.162-3.2-.245-4.8l-.139-4.8c-.091-3.2-.1-6.4-.115-9.594.013-3.2.025-6.4.117-9.594s.181-6.396.381-9.594z" fill="#d09865"/><path d="m21.75 49.836c-.36-.146-.72-.3-1.07-.467a21.478 21.478 0 0 1 -8.82-8.723.01.01 0 0 1 -.01-.01 37.293 37.293 0 0 1 -2.519-5.2c-.913-2.336 1.275-4.336 3.669-5.089a21.143 21.143 0 0 1 4.172-.768c.34-.039.681-.087 1.031-.136z" fill="#e1e6e9"/><path d="m43.863 53.483c-1.366.259-3-2.133-4.686-4.106-.759.25-1.616.5-2.544.732l-2.838-16.334a26.289 26.289 0 0 1 7.729 10.711c2.6.08 5.489-.143 6.141 1.089 1.089 2.035-1.535 7.479-3.802 7.908z" fill="#e1e6e9"/><path d="m34.009 50.671a25.521 25.521 0 0 1 -9.39.009l-3.719-21.385a19.119 19.119 0 0 1 8.6 1.74c.411.2.8.4 1.2.625z" fill="#e1e6e9"/><path d="m18.2 29.44.37 2.14c-.43.04-.87.08-1.05.1a21.376 21.376 0 0 0 -4.17.77c-1.82.57-3.51 1.86-3.82 3.46-.07-.16-.14-.32-.2-.48-.91-2.33 1.28-4.33 3.67-5.08a20.66 20.66 0 0 1 4.17-.77c.34-.04.68-.09 1.03-.14z" fill="#dbd8dd"/><path d="m21.75 49.84c-.01 0-.01-.01-.02-.01l-.05-.37z" fill="#dbd8dd"/><path d="m45.69 52.22c.98-1.79 1.51-3.96.91-5.08-.65-1.23-3.54-1.01-6.14-1.09a26.423 26.423 0 0 0 -6.14-9.28l-.52-2.99a26.247 26.247 0 0 1 7.72 10.71c2.6.08 5.49-.15 6.15 1.08.79 1.49-.4 4.81-1.98 6.65z" fill="#dbd8dd"/><path d="m30.7 31.66.36 2.04c-.42-.2-.93-.42-1.21-.56a18.975 18.975 0 0 0 -8.58-1.74l-.37-2.11a19.2 19.2 0 0 1 8.6 1.75c.41.19.81.4 1.2.62z" fill="#dbd8dd"/><path d="m34.01 50.67h-.02l-.1-.69z" fill="#dbd8dd"/><g fill="#323c6b"><path d="m11.6 40.7a.5.5 0 0 1 -.131-.982 8.561 8.561 0 0 0 5.511-3.862 9.127 9.127 0 0 0 .738-6.281.5.5 0 0 1 .963-.271 10.034 10.034 0 0 1 -.831 7.044 9.521 9.521 0 0 1 -6.117 4.334.516.516 0 0 1 -.133.018z"/><path d="m68.145 52.3h-11.062a.5.5 0 0 1 -.5-.5v-33.794a.5.5 0 0 1 .5-.5 11.575 11.575 0 0 1 11.562 11.562v22.732a.5.5 0 0 1 -.5.5zm-10.562-1h10.062v-22.232a10.575 10.575 0 0 0 -10.062-10.55z"/><path d="m48.959 71.75h-40.879a5.516 5.516 0 0 1 -5.51-5.51v-56.11a5.516 5.516 0 0 1 5.51-5.51h40.88a5.516 5.516 0 0 1 5.51 5.51v56.11a5.516 5.516 0 0 1 -5.511 5.51zm-40.879-66.13a4.515 4.515 0 0 0 -4.51 4.51v56.11a4.515 4.515 0 0 0 4.51 4.51h40.88a4.515 4.515 0 0 0 4.51-4.51v-56.11a4.515 4.515 0 0 0 -4.51-4.51zm29.31 11.13h-17.75a3.2 3.2 0 0 1 0-6.4h17.75a3.2 3.2 0 1 1 0 6.4zm-17.75-5.4a2.2 2.2 0 0 0 0 4.4h17.75a2.2 2.2 0 1 0 0-4.4z"/><path d="m21.75 50.336a.5.5 0 0 1 -.188-.037c-.368-.149-.737-.309-1.1-.478a21.649 21.649 0 0 1 -9.018-8.888c-.01-.014-.02-.029-.029-.044a37.6 37.6 0 0 1 -2.553-5.273 3.373 3.373 0 0 1 .1-2.752 6.343 6.343 0 0 1 3.882-2.994 15.1 15.1 0 0 1 3.052-.625c.338-.044.728-.095 1.2-.162.32-.037.627-.08.941-.124a.59.59 0 0 1 .652.4l3.55 20.393a.5.5 0 0 1 -.493.586zm-9.492-9.992a.559.559 0 0 1 .033.048 20.692 20.692 0 0 0 8.609 8.526l.2.094-3.309-19.012c-.2.027-.382.051-.564.071-.463.066-.856.117-1.2.162a14.109 14.109 0 0 0 -2.885.588 5.416 5.416 0 0 0 -3.274 2.479 2.366 2.366 0 0 0 -.068 1.951 36.688 36.688 0 0 0 2.459 5.093z"/><path d="m43.655 54c-1.318 0-2.622-1.589-4-3.265-.214-.261-.429-.523-.646-.781-.721.229-1.479.443-2.258.638a.5.5 0 0 1 -.614-.4l-2.837-16.331a.5.5 0 0 1 .809-.473 27.024 27.024 0 0 1 7.76 10.606c.336.008.674.011 1.011.015 2.337.025 4.546.049 5.225 1.332s.128 3.415-.623 4.984c-.759 1.585-2.084 3.376-3.528 3.649a1.617 1.617 0 0 1 -.299.026zm-4.478-5.125a.5.5 0 0 1 .38.175c.293.343.585.7.874 1.051 1.172 1.428 2.509 3.051 3.339 2.889.874-.166 2-1.411 2.812-3.1.8-1.668 1.056-3.309.642-4.083-.4-.759-2.5-.781-4.353-.8-.455 0-.913-.01-1.363-.023a.5.5 0 0 1 -.453-.325 25.944 25.944 0 0 0 -6.528-9.585l2.5 14.414c.688-.182 1.354-.379 1.988-.588a.507.507 0 0 1 .162-.023z"/><path d="m29.043 51.613a22.173 22.173 0 0 1 -4.526-.444.5.5 0 0 1 -.391-.4l-3.726-21.388a.5.5 0 0 1 .486-.586 19.573 19.573 0 0 1 8.828 1.79c.419.2.822.412 1.226.64a.5.5 0 0 1 .246.349l3.314 19.011a.5.5 0 0 1 -.409.579 30.144 30.144 0 0 1 -5.048.449zm-3.99-1.356a24.806 24.806 0 0 0 8.376 0l-3.183-18.277c-.315-.174-.632-.337-.96-.494a18.266 18.266 0 0 0 -7.793-1.692z"/><circle cx="14.798" cy="32.864" r=".899" transform="matrix(.433 -.901 .901 .433 -21.232 31.959)"/><path d="m12.39 34.893a4.954 4.954 0 0 1 -3.27-1.522.5.5 0 1 1 .7-.719 3.782 3.782 0 0 0 2.82 1.228.5.5 0 0 1 .1 1 3.442 3.442 0 0 1 -.35.013z"/></g><path d="m6.75 61.316a.714.714 0 0 1 -.714-.714v-8.21a.714.714 0 1 1 1.428 0v8.208a.714.714 0 0 1 -.714.716z" fill="#fff"/><path d="m6.75 50.436a.714.714 0 0 1 -.714-.714v-.664a.714.714 0 1 1 1.428 0v.664a.714.714 0 0 1 -.714.714z" fill="#fff"/></g></svg>