<svg height="512" viewBox="0 0 74 74" width="512" xmlns="http://www.w3.org/2000/svg"><g id="line_color" data-name="line color"><path d="m37.867 18.977c-.714-2.208-2.634-3.636-4.675-4.6 8.5-1.753 11.985 2.458 13.163 4.536v.009" fill="#9099cd"/><path d="m37.867 19.477a.5.5 0 0 1 -.476-.346c-.562-1.736-2.047-3.184-4.414-4.3a.5.5 0 0 1 .113-.942c8.878-1.831 12.538 2.732 13.7 4.779a.5.5 0 1 1 -.9.443c-1.245-2.165-4.3-5.432-11.182-4.488a7.827 7.827 0 0 1 3.633 4.2.5.5 0 0 1 -.476.654z" fill="#323c6b"/><path d="m58.992 38.417a34.977 34.977 0 0 0 6.257-6.66 35.233 35.233 0 0 0 -9.22-8.86 12.772 12.772 0 0 0 -1.661 15.52z" fill="#7d87c2"/><path d="m58.992 38.917h-4.624a.5.5 0 0 1 -.428-.241 13.371 13.371 0 0 1 -1.961-6.919 13.535 13.535 0 0 1 3.687-9.2.5.5 0 0 1 .637-.075 35.386 35.386 0 0 1 9.363 9 .5.5 0 0 1 0 .555 35.135 35.135 0 0 1 -6.356 6.763.5.5 0 0 1 -.318.117zm-4.339-1h4.158a35.758 35.758 0 0 0 5.827-6.161 35.55 35.55 0 0 0 -8.529-8.206 12.524 12.524 0 0 0 -3.13 8.207 12.348 12.348 0 0 0 1.674 6.16z" fill="#323c6b"/><path d="m17.519 34.536c1.628 1.044 3.7 2.445 6.054 3.88h30.8a12.772 12.772 0 0 1 1.656-15.516 25.276 25.276 0 0 0 -13.85-4.36c-9.69 0-19.41 7.08-24.66 10.45-2.3-2.7-6.88-5.14-8.57-2.92-.9 1.18 1.56 4.22 1.56 5.69s-2.46 4.52-1.56 5.69c1.69 2.216 6.27-.224 8.57-2.914z" fill="#9099cd"/><path d="m56.029 22.9a11.955 11.955 0 0 0 -1.35 1.71 24.8 24.8 0 0 0 -12.75-3.68c-9.69 0-19.41 7.08-24.66 10.45-2.14-2.52-6.26-4.81-8.19-3.31-.32-.81-.48-1.54-.13-2 1.69-2.22 6.27.22 8.57 2.92 5.25-3.37 14.97-10.45 24.66-10.45a25.276 25.276 0 0 1 13.85 4.36z" fill="#7d87c2"/><g fill="#323c6b"><circle cx="57.912" cy="29.765" r="1.319"/><path d="m45.023 35.854a.5.5 0 0 1 -.457-.3 8.668 8.668 0 0 1 .344-8.08.5.5 0 0 1 .833.553 7.666 7.666 0 0 0 -.265 7.119.5.5 0 0 1 -.456.7z"/><path d="m40.211 35.215a.5.5 0 0 1 -.457-.3 7.3 7.3 0 0 1 .292-6.8.5.5 0 0 1 .833.552 6.3 6.3 0 0 0 -.213 5.842.5.5 0 0 1 -.456.7z"/><path d="m22.334 22.848a.5.5 0 0 1 -.258-.929c2.016-1.212 3.875-2.224 5.682-3.092a.5.5 0 0 1 .433.9c-1.778.854-3.61 1.851-5.6 3.048a.5.5 0 0 1 -.257.073z"/><path d="m30.162 18.792a.5.5 0 0 1 -.2-.959l.542-.234a.5.5 0 0 1 .391.921l-.537.231a.5.5 0 0 1 -.196.041z"/></g><path d="m28.755 38.337a.649.649 0 0 1 -.281-.064c-1.705-.819-4.228-2.141-6.105-3.258a.65.65 0 0 1 .665-1.117c1.844 1.1 4.333 2.4 6 3.2a.65.65 0 0 1 -.282 1.236z" fill="#fff"/><path d="m54.368 38.917h-30.795a.5.5 0 0 1 -.26-.073c-1.632-.995-3.12-1.968-4.432-2.826-.447-.292-.872-.571-1.273-.83-1.727 1.859-4.6 3.677-6.842 3.623a2.769 2.769 0 0 1 -2.214-1.062c-.716-.931-.014-2.408.667-3.836a6.845 6.845 0 0 0 .791-2.157 6.813 6.813 0 0 0 -.788-2.142c-.682-1.431-1.387-2.911-.669-3.851a2.766 2.766 0 0 1 2.215-1.063c2.244-.061 5.116 1.77 6.84 3.632.416-.27.857-.559 1.322-.864 5.374-3.528 14.369-9.434 23.25-9.434a25.614 25.614 0 0 1 14.12 4.444.5.5 0 0 1 .09.763 12.524 12.524 0 0 0 -3.413 8.516 12.364 12.364 0 0 0 1.816 6.4.5.5 0 0 1 -.428.759zm-30.654-1h29.8a13.3 13.3 0 0 1 -1.533-6.16 13.535 13.535 0 0 1 3.281-8.757 24.449 24.449 0 0 0 -13.083-3.963c-8.582 0-17.42 5.8-22.7 9.27-.6.4-1.168.767-1.689 1.1a.5.5 0 0 1 -.65-.1c-1.526-1.791-4.263-3.61-6.255-3.61h-.085a1.758 1.758 0 0 0 -1.449.667c-.347.455.3 1.819.777 2.815a7 7 0 0 1 .885 2.572 7.04 7.04 0 0 1 -.888 2.586c-.473.992-1.119 2.352-.775 2.8a1.759 1.759 0 0 0 1.449.67c1.967.056 4.793-1.785 6.345-3.6a.5.5 0 0 1 .65-.1c.505.324 1.053.682 1.639 1.065 1.267.842 2.709 1.783 4.28 2.745z" fill="#323c6b"/><path d="m58.683 61.847h-43.366a4.505 4.505 0 0 1 -4.241-2.986l-3.851-15.361h59.55l-3.85 15.361a4.505 4.505 0 0 1 -4.242 2.986z" fill="#e1e6e9"/><path d="m66.77 43.5-3.85 15.36a4.5 4.5 0 0 1 -4.24 2.99h-43.36a4.5 4.5 0 0 1 -4.24-2.99l-.02-.07a4.433 4.433 0 0 0 2.13.54h43.37a4.5 4.5 0 0 0 4.24-2.98l3.12-12.85z" fill="#d5d6db"/><path d="m6.194 38.467h61.612a2.543 2.543 0 0 1 2.569 2.516 2.543 2.543 0 0 1 -2.569 2.517h-61.612a2.543 2.543 0 0 1 -2.569-2.516 2.543 2.543 0 0 1 2.569-2.517z" fill="#e1e6e9"/><path d="m67.806 44h-61.612a3.017 3.017 0 1 1 0-6.033h61.612a3.017 3.017 0 1 1 0 6.033zm-61.612-5.033a2.017 2.017 0 1 0 0 4.033h61.612a2.017 2.017 0 1 0 0-4.033z" fill="#323c6b"/><path d="m54.828 65.347h-.656a.5.5 0 0 1 0-1h.656a.5.5 0 0 1 0 1z" fill="#323c6b"/><path d="m58.683 65.347h-1.5a.5.5 0 0 1 0-1h1.5a7.039 7.039 0 0 0 6.045-3.467.5.5 0 0 1 .862.506 8.041 8.041 0 0 1 -6.907 3.961z" fill="#323c6b"/><path d="m58.683 62.347h-43.366a5.017 5.017 0 0 1 -4.717-3.317l-3.86-15.408a.5.5 0 0 1 .485-.622h59.55a.5.5 0 0 1 .485.622l-3.851 15.361a5.027 5.027 0 0 1 -4.726 3.364zm-50.817-18.347 3.695 14.74a4.005 4.005 0 0 0 3.756 2.607h43.366a4.015 4.015 0 0 0 3.771-2.654l3.68-14.693z" fill="#323c6b"/></g></svg>