<svg height="512" viewBox="0 0 74 74" width="512" xmlns="http://www.w3.org/2000/svg" xmlns:xlink="http://www.w3.org/1999/xlink"><clipPath id="clip-path"><path d="m41.782 36.366c4.563-2.2 9.655-2.242 11.972-.95l-3.266 5.236 3.546 3.6-2.334 3.882 2.876 3.128c-2.89.639-7.635 1.085-10.173-.873-4.897-4.505-5.231-9.202-2.621-14.023z"/></clipPath><g id="line_color" data-name="line color"><g clip-path="url(#clip-path)"><path d="m51.145 29.987h10.579v10.579h-10.579z" fill="none"/><path d="m51.145 29.987h10.579v10.579h-10.579z" fill="#ff816c"/><path d="m51.145 40.566h10.579v10.579h-10.579z" fill="none"/><path d="m51.145 40.566h10.579v10.579h-10.579z" fill="#ff816c"/><path d="m51.145 51.145h10.579v10.579h-10.579z" fill="none"/><path d="m51.145 51.145h10.579v10.579h-10.579z" fill="#ff816c"/><path d="m40.566 29.987h10.579v10.579h-10.579z" fill="none"/><path d="m40.566 29.987h10.579v10.579h-10.579z" fill="#ff816c"/><path d="m40.566 40.566h10.579v10.579h-10.579z" fill="none"/><path d="m40.566 40.566h10.579v10.579h-10.579z" fill="#ff816c"/><path d="m40.566 51.145h10.579v10.579h-10.579z" fill="none"/><path d="m40.566 51.145h10.579v10.579h-10.579z" fill="#ff816c"/><path d="m29.987 29.987h10.579v10.579h-10.579z" fill="none"/><path d="m29.987 29.987h10.579v10.579h-10.579z" fill="#ff816c"/><path d="m29.987 40.566h10.579v10.579h-10.579z" fill="none"/><path d="m29.987 40.566h10.579v10.579h-10.579z" fill="#ff816c"/><path d="m29.987 51.145h10.579v10.579h-10.579z" fill="none"/><path d="m29.987 51.145h10.579v10.579h-10.579z" fill="#ff816c"/></g><path d="m49.827 52.3a9.49 9.49 0 0 1 -5.727-1.515c-4.748-4.364-5.664-9.286-2.755-14.657a.5.5 0 0 1 .223-.212c4.917-2.368 10.076-2.25 12.433-.936a.5.5 0 0 1 .181.7l-3.058 4.9 3.27 3.323a.5.5 0 0 1 .072.608l-2.14 3.556 2.623 2.853a.5.5 0 0 1 -.26.827 23.6 23.6 0 0 1 -4.862.553zm-7.681-15.553c-2.607 4.926-1.757 9.27 2.6 13.273 1.967 1.516 5.722 1.5 8.866.926l-2.276-2.475a.5.5 0 0 1 -.06-.6l2.133-3.544-3.278-3.327a.5.5 0 0 1 -.068-.615l2.971-4.763c-2.323-.952-6.783-.806-10.888 1.125z" fill="#323c6b"/><path d="m33.877 38.773a.5.5 0 0 1 -.3-.9q.364-.278.708-.565a.5.5 0 0 1 .64.769q-.361.3-.741.591a.5.5 0 0 1 -.307.105z" fill="#323c6b"/><path d="m32.7 52.034a.5.5 0 0 1 -.348-.141 9.27 9.27 0 0 1 -1.912-2.732 8.828 8.828 0 0 1 .329-8.068.5.5 0 0 1 .878.479 7.838 7.838 0 0 0 -.3 7.163 8.274 8.274 0 0 0 1.7 2.44.5.5 0 0 1 -.348.859z" fill="#323c6b"/><path d="m53.973 68.44a6.413 6.413 0 0 1 -6.235 2.448 5.16 5.16 0 0 1 -4.08-4.121s4.942 1.526 5.342-1.534a6.836 6.836 0 0 0 -4.431-7.312 7.45 7.45 0 0 0 -3.591-.351c-7.01.914-11.278-1.632-13.62-6.6a12.611 12.611 0 0 1 4.142-15.352 32.131 32.131 0 0 0 10.674-13.53 12.274 12.274 0 0 1 -12.894.6 11.071 11.071 0 0 0 -6.733-1.583l-1.942.2a2.618 2.618 0 0 1 -3-2.375l6.3-1.73a8.394 8.394 0 0 0 4.66-3.281 13.413 13.413 0 0 1 6.255-5.011l1.069-5.908 3.028 5.264a12.163 12.163 0 0 1 1.306.1l4.202-5.364.245 6.749a2.175 2.175 0 0 1 .2.1l5.1-3.223-1.828 5.794a11.069 11.069 0 0 1 2.522 7.361 16.017 16.017 0 0 1 -3.476 9.768c-1.151 1.5-2.22 3.036-3.191 4.594a13.794 13.794 0 0 0 6.149 19.857c.122.057.253.114.384.163a9.787 9.787 0 0 1 4.962 4.431c1.215 2.371 1.639 5.766-1.519 9.846z" fill="#f7d98f"/><path d="m35.636 6.72-.316-.55.57-3.17 2.6 4.51.635.865c-.16-.022-.491-.042-.868-.058a3.189 3.189 0 0 1 -2.621-1.597z" fill="#eacd8b"/><path d="m42.168 6.952-.038-1.032 2.3-2.92.2 5.49.04 1.259a3.227 3.227 0 0 1 -2.502-2.797z" fill="#eacd8b"/><path d="m53.97 68.44a6.424 6.424 0 0 1 -6.23 2.45c-.02 0-.04-.01-.06-.01a6.642 6.642 0 0 0 3.89-2.44c3.16-4.08 2.74-7.48 1.52-9.85a9.764 9.764 0 0 0 -4.96-4.43c-.13-.05-.26-.11-.38-.16a13.806 13.806 0 0 1 -6.16-19.86c.98-1.56 2.04-3.09 3.2-4.59a16.019 16.019 0 0 0 3.47-9.77 11.274 11.274 0 0 0 -2.07-6.8 1.393 1.393 0 0 1 -.233-1.25l1.013-3.21 3-1.9-1.83 5.8a11.059 11.059 0 0 1 2.52 7.36 15.968 15.968 0 0 1 -3.48 9.77c-1.15 1.5-2.22 3.03-3.19 4.59a13.807 13.807 0 0 0 6.16 19.86c.12.05.25.11.38.16a9.764 9.764 0 0 1 4.96 4.43c1.22 2.37 1.64 5.77-1.52 9.85z" fill="#eacd8b"/><g fill="#323c6b"><path d="m50.462 17.594a.5.5 0 0 1 -.152-.976l3.46-1.107a.5.5 0 1 1 .3.952l-3.46 1.107a.5.5 0 0 1 -.148.024z"/><path d="m54.126 20.109h-.036l-3.356-.24a.5.5 0 0 1 .071-1l3.356.24a.5.5 0 0 1 -.035 1z"/><path d="m52.945 23.71a.5.5 0 0 1 -.191-.038l-2.48-1.025a.5.5 0 0 1 .382-.924l2.48 1.025a.5.5 0 0 1 -.191.962z"/><path d="m50.854 26.056a.5.5 0 0 1 -.276-.083l-1.08-.717a.5.5 0 1 1 .553-.833l1.08.717a.5.5 0 0 1 -.277.917z"/><path d="m49.774 15.243a.5.5 0 0 1 -.289-.909l1.59-1.122a.5.5 0 0 1 .576.817l-1.59 1.122a.5.5 0 0 1 -.287.092z"/><path d="m28.338 10.083a.5.5 0 0 1 -.349-.858l.355-.342a.5.5 0 0 1 .685.729l-.342.328a.5.5 0 0 1 -.349.143z"/><path d="m57.483 56.583a.5.5 0 0 1 -.415-.221q-.205-.3-.428-.6a.5.5 0 0 1 .794-.608q.242.316.463.646a.5.5 0 0 1 -.414.779z"/><path d="m58.476 67.167a.5.5 0 0 1 -.462-.691 10.482 10.482 0 0 0 .317-7.565.5.5 0 0 1 .947-.321 11.584 11.584 0 0 1 -.34 8.268.5.5 0 0 1 -.462.309z"/><path d="m21.517 15.243a.5.5 0 0 1 -.132-.982l1.59-.437a4.923 4.923 0 0 0 2.725-1.924c.2-.282.429-.581.671-.884a.5.5 0 0 1 .78.626c-.229.285-.447.567-.634.833a5.922 5.922 0 0 1 -3.279 2.309l-1.588.436a.5.5 0 0 1 -.133.023z"/><circle cx="36.318" cy="13.876" r="1.445"/><path d="m48.869 71.5a6.346 6.346 0 0 1 -1.228-.119 5.665 5.665 0 0 1 -4.465-4.481.5.5 0 0 1 .629-.611c.754.232 2.95.681 4.044-.02a1.451 1.451 0 0 0 .658-1.1 6.368 6.368 0 0 0 -4.107-6.778 6.974 6.974 0 0 0 -3.354-.325c-6.81.887-11.567-1.428-14.139-6.884a13.162 13.162 0 0 1 4.293-15.963 32.077 32.077 0 0 0 9.853-11.84 12.933 12.933 0 0 1 -12.023-.256 10.55 10.55 0 0 0 -6.43-1.517l-1.943.2a3.118 3.118 0 0 1 -3.557-2.836.5.5 0 0 1 .366-.522l6.3-1.73a7.92 7.92 0 0 0 4.383-3.086 14.023 14.023 0 0 1 6.23-5.092l1.021-5.629a.5.5 0 0 1 .926-.161l2.889 5.022c.261.011.522.031.791.06l4.03-5.141a.5.5 0 0 1 .893.291l.221 6.1 4.55-2.882a.5.5 0 0 1 .744.573l-1.744 5.534a11.545 11.545 0 0 1 2.463 7.47 16.394 16.394 0 0 1 -3.58 10.074c-1.154 1.506-2.219 3.039-3.163 4.554a13.293 13.293 0 0 0 5.93 19.132c.122.057.241.109.359.154a10.322 10.322 0 0 1 5.23 4.67c1.175 2.3 1.857 5.96-1.567 10.384a7.037 7.037 0 0 1 -5.503 2.755zm-4.449-4.035a4.481 4.481 0 0 0 3.414 2.935 5.93 5.93 0 0 0 5.744-2.264c2.491-3.218 2.985-6.353 1.468-9.315a9.307 9.307 0 0 0 -4.712-4.2c-.124-.046-.267-.109-.4-.171a14.293 14.293 0 0 1 -6.366-20.572c.961-1.543 2.044-3.1 3.218-4.634a15.4 15.4 0 0 0 3.374-9.461 10.506 10.506 0 0 0 -2.4-7.037.5.5 0 0 1 -.1-.477l1.417-4.491-3.944 2.492a.5.5 0 0 1 -.492.024l-.146-.076a.5.5 0 0 1 -.325-.45l-.2-5.382-3.354 4.284a.5.5 0 0 1 -.457.188 11.548 11.548 0 0 0 -1.252-.094.5.5 0 0 1 -.424-.25l-2.345-4.079-.825 4.565a.5.5 0 0 1 -.323.382 12.925 12.925 0 0 0 -6.02 4.828 8.918 8.918 0 0 1 -4.938 3.476l-5.861 1.609a2.122 2.122 0 0 0 2.358 1.519l1.967-.2a11.551 11.551 0 0 1 7.036 1.649 11.866 11.866 0 0 0 12.344-.574.5.5 0 0 1 .759.594 32.807 32.807 0 0 1 -10.835 13.735 12.16 12.16 0 0 0 -3.986 14.737c2.4 5.089 6.687 7.156 13.1 6.32a7.964 7.964 0 0 1 3.829.377 7.385 7.385 0 0 1 4.757 7.858 2.42 2.42 0 0 1 -1.11 1.8 5.848 5.848 0 0 1 -3.97.355z"/></g><path d="m30.894 49.812a.65.65 0 0 1 -.595-.387 9.784 9.784 0 0 1 -.248-7.231.65.65 0 1 1 1.227.431 8.492 8.492 0 0 0 .21 6.274.651.651 0 0 1 -.594.914z" fill="#fff"/><path d="m32.7 52.592a.647.647 0 0 1 -.473-.2q-.29-.308-.556-.647a.65.65 0 1 1 1.024-.8q.228.292.478.558a.65.65 0 0 1 -.473 1.1z" fill="#fff"/></g></svg>